<svg xmlns="http://www.w3.org/2000/svg">
<defs>
<font id="BebasNeuePro-BoldItalic" horiz-adv-x="400" >
  <font-face 
    font-family="Bebas Neue Pro"
    font-weight="700"
    font-style="italic"
    font-stretch="normal"
    units-per-em="1000"
    panose-1="2 11 6 6 2 2 2 12 2 1"
    ascent="811"
    descent="-189"
    x-height="510"
    cap-height="700"
    bbox="-230 -200 808 918"
    underline-thickness="80"
    underline-position="-240"
    slope="-12"
    unicode-range="U+000D-FB02"
  />
<missing-glyph horiz-adv-x="738" 
d="M75 0v700h630v-700h-630zM173 134h434v432h-434v-432zM189 550h114v-112h-114v112zM367 390h-32v16h-16v80h32v32h-32v32h16v-16h32v-16h16v16h-16v16h32v-16h16v16h16v-32h16v-16h-16v-32h-16v-16h-16v48h-32v-16h16v-32h-16v16h-32v-48h16v32h16v-16h16v16h16v-32h-32
v-32zM447 550h16v-32h-16v32zM479 550h112v-112h-112v112zM205 454h82v80h-82v-80zM495 454h80v80h-80v-80zM221 518h50v-48h-50v48zM511 518h48v-48h-48v48zM431 454v-32h-16v32h16zM463 438h-16v16h16v-16zM221 406v-16h17v-16h-33v16h-16v32h49v-16h-17zM303 422v-16h-16
v-16h-32v16h16v16h32zM447 390v-16h-16v48h16v-16h16v-16h-16zM463 390h16v16h-16v16h64v-16h-16v-16h16v16h16v-16h16v-16h-16v-16h-32v16h-32v-16h-16v32zM591 374h-16v16h-16v32h32v-48zM303 406h16v-32h-32v16h16v16zM399 406h16v-16h-16v16zM383 390v-16h-16v16h16z
M238 358v16h17v-16h-17zM287 358h32v-16h-64v16h16v16h16v-16zM335 326v48h16v-48h-16zM431 358h-16v16h16v-16zM189 358h16v-32h-16v32zM431 342h48v16h32v-32h48v-16h-48v-16h16v-32h16v-16h-16v-16h16v-16h32v-16h16v-16h-32v16h-32v-32h-32v-16h-16v16h-16v-16h-16v32
h-16v-32h-32v16h16v16h-16v-16h-32v16h16v32h-16v-16h-16v32h48v16h16v-32h-16v-16h32v48h16v16h-16v16h-16v-16h-16v32h16v16h16v-16h16v16h-16v32zM399 310v-16h-32v16h16v32h-16v16h32v-16h16v-32h-16zM591 310h-16v16h-16v16h16v16h16v-48zM255 294h-17v16h-17v16h17v16

<glyph glyph-name="fi" unicode="fi" horiz-adv-x="455" 
d="M308 510l-19 -90h-76l-90 -420h-107l90 420h-58l19 90h58l19 90q23 110 128 110q46 0 77 -17l-18 -88q-24 11 -44 11q-32 0 -41 -41l-14 -65h76zM375 573l24 116h106l-24 -116h-106zM360 0h-108l108 510h108z" />
    <glyph glyph-name="fl" unicode="fl" horiz-adv-x="455" 
d="M308 510l-19 -90h-76l-90 -420h-107l90 420h-58l19 90h58l19 90q23 110 128 110q46 0 77 -17l-18 -88q-24 11 -44 11q-32 0 -41 -41l-14 -65h76zM252 0l149 700h108l-149 -700h-108z" />
    <glyph glyph-name=".notdef" horiz-adv-x="738" 
d="M75 0v700h630v-700h-630zM173 134h434v432h-434v-432zM189 550h114v-112h-114v112zM367 390h-32v16h-16v80h32v32h-32v32h16v-16h32v-16h16v16h-16v16h32v-16h16v16h16v-32h16v-16h-16v-32h-16v-16h-16v48h-32v-16h16v-32h-16v16h-32v-48h16v32h16v-16h16v16h16v-32h-32
v-32zM447 550h16v-32h-16v32zM479 550h112v-112h-112v112zM205 454h82v80h-82v-80zM495 454h80v80h-80v-80zM221 518h50v-48h-50v48zM511 518h48v-48h-48v48zM431 454v-32h-16v32h16zM463 438h-16v16h16v-16zM221 406v-16h17v-16h-33v16h-16v32h49v-16h-17zM303 422v-16h-16
v-16h-32v16h16v16h32zM447 390v-16h-16v48h16v-16h16v-16h-16zM463 390h16v16h-16v16h64v-16h-16v-16h16v16h16v-16h16v-16h-16v-16h-32v16h-32v-16h-16v32zM591 374h-16v16h-16v32h32v-48zM303 406h16v-32h-32v16h16v16zM399 406h16v-16h-16v16zM383 390v-16h-16v16h16z
M238 358v16h17v-16h-17zM287 358h32v-16h-64v16h16v16h16v-16zM335 326v48h16v-48h-16zM431 358h-16v16h16v-16zM189 358h16v-32h-16v32zM431 342h48v16h32v-32h48v-16h-48v-16h16v-32h16v-16h-16v-16h16v-16h32v-16h16v-16h-32v16h-32v-32h-32v-16h-16v16h-16v-16h-16v32
h-16v-32h-32v16h16v16h-16v-16h-32v16h16v32h-16v-16h-16v32h48v16h16v-32h-16v-16h32v48h16v16h-16v16h-16v-16h-16v32h16v16h16v-16h16v16h-16v32zM399 310v-16h-32v16h16v32h-16v16h32v-16h16v-32h-16zM591 310h-16v16h-16v16h16v16h16v-48zM255 294h-17v16h-17v16h17v16
h17v-32h16v-32h-16v16zM319 326v-32h16v-32h-16v16h-32v16h16v16h-32v16h48zM351 326h16v-16h-16v16zM189 310h32v-16h-32v16zM335 310h16v-16h-16v16zM479 310h-16v-16h16v16zM238 278h-17v16h17v-16zM367 278h-16v16h16v-16zM559 294h16v-16h-16v16zM463 230h48v48h-48
v-48zM543 278h16v-16h-16v16zM559 230v16h16v32h16v-64h-16v16h-16zM189 262h114v-112h-114v112zM335 246v16h16v-32h-32v16h16zM383 246h-16v16h16v-16zM479 262h16v-16h-16v16zM205 166h82v80h-82v-80zM221 230h50v-48h-50v48zM447 198h16v16h-16v-16zM479 182h32v32h-32
v-32zM319 198h32v-32h16v-16h-48v48zM543 166v-16h-16v16h16zM591 150h-16v16h16v-16z" />
    <glyph glyph-name=".null" horiz-adv-x="0" 
 />
    <glyph glyph-name="nonmarkingreturn" horiz-adv-x="333" 
 />
    <glyph glyph-name="CR" unicode="&#xd;" horiz-adv-x="160" 
 />
    <glyph glyph-name="space" unicode=" " horiz-adv-x="160" 
 />
    <glyph glyph-name="exclam" unicode="!" horiz-adv-x="214" 
d="M133 185h-82l33 223l62 292h112l-62 -292zM108 0h-110l23 110h110z" />
    <glyph glyph-name="quotedbl" unicode="&#x22;" horiz-adv-x="324" 
d="M164 474h-59l22 226h112zM312 474h-59l22 226h112z" />
    <glyph glyph-name="numbersign" unicode="#" 
d="M71 0h-81l66 204h-50l22 71h50l59 190h-51l22 71h51l52 164h80l-51 -164h73l51 164h80l-51 -164h51l-23 -71h-50l-59 -190h51l-23 -71h-50l-65 -204h-80l64 204h-73zM217 465l-59 -190h74l58 190h-73z" />
    <glyph glyph-name="dollar" unicode="$" 
d="M349 745l-13 -64q90 -25 90 -121q0 -28 -7 -53l-5 -20l-103 10l6 26q3 12 3 22q0 44 -53 44q-31 0 -46.5 -23t-15.5 -61q0 -55 63 -122q84 -90 84 -172q0 -81 -43 -136q-44 -56 -116 -63l-14 -67h-90l15 74q-90 25 -90 123q0 23 6 50l10 47l103 -10l-11 -52
q-2 -10 -2 -20q0 -45 54 -45q32 0 49 24.5t17 64.5q0 54 -63 120q-85 88 -85 175q0 78 42 130.5t113 61.5l12 57h90z" />
    <glyph glyph-name="percent" unicode="%" horiz-adv-x="561" 
d="M158 325q-49 0 -76.5 23t-27.5 65q0 20 4 35l34 160q22 100 112 100q50 0 76.5 -23.5t26.5 -65.5q0 -19 -4 -34l-35 -160q-22 -100 -110 -100zM127 0h-72l419 700h73zM158 388q33 0 40 40l37 170q0 3 0.5 6t1 5t0.5 3q0 33 -35 33q-33 0 -40 -40l-36 -170q0 -3 -0.5 -6.5
t-1 -5.5t-0.5 -3q0 -32 34 -32zM398 -11q-49 0 -76.5 23t-27.5 65q0 20 4 35l34 160q22 100 112 100q50 0 76.5 -23.5t26.5 -65.5q0 -19 -4 -34l-35 -160q-22 -100 -110 -100zM398 52q33 0 40 40l37 170q0 3 0.5 6t1 5t0.5 3q0 33 -35 33q-33 0 -40 -40l-36 -170
q0 -3 -0.5 -6.5t-1 -5.5t-0.5 -3q0 -32 34 -32z" />
    <glyph glyph-name="ampersand" unicode="&#x26;" horiz-adv-x="414" 
d="M185 449q0 -43 58 -43h183l-21 -98h-27l-36 -165q-21 -95 -18 -143h-93q-5 13 1 59q-40 -69 -119 -69q-55 0 -84.5 27t-29.5 80q0 21 7 53l16 71q24 108 115 139v2q-57 22 -57 95q0 23 6 51l10 46q33 156 173 156q76 0 117.5 -35t41.5 -101q0 -24 -8 -64h-104q7 36 7 54
q0 49 -51 49q-55 0 -68 -67l-15 -69q-4 -20 -4 -28zM235 153l34 155h-41q-75 0 -97 -94l-16 -68q-3 -10 -3 -22q0 -45 51 -45q57 0 72 74z" />
    <glyph glyph-name="quotesingle" unicode="'" horiz-adv-x="176" 
d="M164 474h-59l22 226h112z" />
    <glyph glyph-name="parenleft" unicode="(" horiz-adv-x="272" 
d="M163 -100h-29q-65 0 -96.5 23.5t-31.5 76.5q0 24 6 54l107 500q16 79 55.5 112.5t122.5 33.5h36l-18 -82h-22q-61 0 -76 -72l-107 -500q-4 -21 -4 -30q0 -18 10 -26t34 -8h30z" />
    <glyph glyph-name="parenright" unicode=")" horiz-adv-x="272" 
d="M-6 -100h-36l17 82h22q61 0 76 72l107 500q4 15 4 31q0 18 -10 25.5t-34 7.5h-30l18 82h29q64 0 95.5 -23.5t31.5 -76.5q0 -22 -6 -54l-107 -500q-16 -79 -55.5 -112.5t-121.5 -33.5z" />
    <glyph glyph-name="asterisk" unicode="*" horiz-adv-x="424" 
d="M263 462l-97 -135l-67 53l121 112l-148 33l39 85l135 -68l3 158h90l-43 -158l151 68l17 -85l-158 -33l91 -112l-77 -53z" />
    <glyph glyph-name="plus" unicode="+" 
d="M249 125h-78v137h-134v78h134v135h78v-135h134v-78h-134v-137z" />
    <glyph glyph-name="comma" unicode="," horiz-adv-x="200" 
d="M14 -120h-54l68 120h-37l23 110h110l-20 -99z" />
    <glyph glyph-name="hyphen" unicode="-" horiz-adv-x="270" 
d="M245 255h-220l19 90h220z" />
    <glyph glyph-name="period" unicode="." horiz-adv-x="200" 
d="M101 0h-110l23 110h110z" />
    <glyph glyph-name="slash" unicode="/" horiz-adv-x="387" 
d="M30 -100h-101l446 800h101z" />
    <glyph glyph-name="zero" unicode="0" 
d="M170 -10q-76 0 -119 36.5t-43 104.5q0 24 6 51l79 370q16 77 61.5 117.5t114.5 40.5q76 0 119 -36.5t43 -104.5q0 -25 -6 -52l-79 -370q-34 -157 -176 -157zM176 90q45 0 59 62l81 383q3 13 3 25q0 50 -55 50q-46 0 -60 -63l-81 -383q-3 -14 -3 -24q0 -50 56 -50z" />
    <glyph glyph-name="one" unicode="1" horiz-adv-x="291" 
d="M189 0h-113l117 534h-115l9 78q69 0 106 19t67 69h81z" />
    <glyph glyph-name="two" unicode="2" horiz-adv-x="371" 
d="M288 0h-321l20 96q16 76 53 133q36 55 110 111q73 56 107 98q33 42 43 88q4 15 4 35q0 49 -53 49q-48 0 -62 -62l-17 -82h-106l18 86q35 158 175 158q77 0 117.5 -35t40.5 -101q0 -24 -7 -56q-15 -67 -59 -126.5t-132 -127.5q-58 -44 -82.5 -74t-32.5 -67l-5 -23h210z
" />
    <glyph glyph-name="three" unicode="3" horiz-adv-x="374" 
d="M154 -10q-77 0 -118 35.5t-41 99.5q0 25 6 55l9 41h105l-12 -57q-3 -14 -3 -25q0 -49 54 -49q50 0 65 72l14 68q5 28 5 37q0 48 -55 48h-41l21 100h36q71 0 87 78l9 42q3 13 3 25q0 50 -50 50q-45 0 -59 -59l-12 -52h-105l12 55q34 156 171 156q73 0 114.5 -34.5
t41.5 -98.5q0 -29 -7 -56l-3 -13q-14 -63 -40.5 -96.5t-71.5 -44.5v-1q60 -28 60 -101q0 -16 -5 -44l-17 -76q-35 -155 -173 -155z" />
    <glyph glyph-name="four" unicode="4" horiz-adv-x="399" 
d="M281 0h-113l27 127h-210l20 100l300 473h125l-101 -473h52l-21 -100h-52zM276 505l-169 -278h109z" />
    <glyph glyph-name="five" unicode="5" horiz-adv-x="383" 
d="M163 -10q-77 0 -117.5 35.5t-40.5 101.5q0 25 6 55l9 39h105l-12 -57q-3 -14 -3 -25q0 -49 56 -49q46 0 60 62l33 154q4 15 4 32q0 21 -13.5 33.5t-34.5 12.5q-55 0 -72 -75h-105l105 391h291l-22 -100h-188l-48 -166q45 51 96 51q50 0 78.5 -30.5t28.5 -85.5
q0 -25 -8 -65l-34 -156q-35 -158 -174 -158z" />
    <glyph glyph-name="six" unicode="6" horiz-adv-x="393" 
d="M169 -10q-78 0 -119.5 36t-41.5 102q0 26 6 54l78 365q34 163 176 163q79 0 120.5 -35.5t41.5 -101.5q0 -23 -6 -52h-106q6 24 6 41q0 48 -57 48q-50 0 -66 -79l-28 -132q40 52 99 52q53 0 81.5 -29.5t28.5 -83.5q0 -32 -7 -59l-29 -132q-36 -157 -177 -157zM173 89
q48 0 61 61l27 127q3 15 3 26q0 48 -53 48q-48 0 -62 -62l-27 -127q-3 -14 -3 -25q0 -48 54 -48z" />
    <glyph glyph-name="seven" unicode="7" horiz-adv-x="356" 
d="M117 0h-122l306 600h-216l22 100h330l-20 -96z" />
    <glyph glyph-name="eight" unicode="8" horiz-adv-x="396" 
d="M165 -10q-74 0 -119 36.5t-45 101.5q0 24 6 52l13 61q22 103 101 134l1 2q-45 31 -45 93q0 22 6 49l8 39q35 152 181 152q73 0 116 -35t43 -100q0 -23 -6 -52l-8 -39q-19 -96 -97 -128v-2q48 -34 48 -99q0 -15 -5 -47l-14 -63q-35 -155 -184 -155zM236 410q54 0 67 63
l14 64q3 12 3 23q0 50 -57 50q-49 0 -62 -61l-14 -64q-3 -13 -3 -23q0 -52 52 -52zM173 90q53 0 68 72l15 68q3 15 3 27q0 55 -55 55q-58 0 -73 -71l-14 -66q-3 -17 -3 -29q0 -56 59 -56z" />
    <glyph glyph-name="nine" unicode="9" horiz-adv-x="393" 
d="M165 -11q-80 0 -121 35.5t-41 101.5q0 24 6 52h106q-6 -24 -6 -41q0 -48 57 -48q50 0 66 79l28 132q-40 -52 -99 -52q-53 0 -81.5 29.5t-28.5 83.5q0 32 7 59l29 132q36 157 177 157q78 0 119.5 -36t41.5 -102q0 -25 -6 -54l-78 -365q-34 -163 -176 -163zM222 348
q48 0 62 62l27 127q3 13 3 25q0 48 -54 48q-48 0 -61 -61l-27 -127q-3 -15 -3 -26q0 -48 53 -48z" />
    <glyph glyph-name="colon" unicode=":" horiz-adv-x="200" 
d="M182 381h-110l23 110h110zM101 0h-110l23 110h110z" />
    <glyph glyph-name="semicolon" unicode=";" horiz-adv-x="200" 
d="M183 381h-110l23 110h110zM14 -120h-54l68 120h-37l23 110h110l-20 -99z" />
    <glyph glyph-name="less" unicode="&#x3c;" 
d="M358 211v-80l-306 132v74l306 132v-80l-211 -89z" />
    <glyph glyph-name="equal" unicode="=" 
d="M373 342h-326v78h326v-78zM373 180h-326v78h326v-78z" />
    <glyph glyph-name="greater" unicode="&#x3e;" 
d="M368 263l-306 -132v80l211 89l-211 89v80l306 -132v-74z" />
    <glyph glyph-name="question" unicode="?" horiz-adv-x="360" 
d="M197 185h-96l10 46q15 79 85 147q81 82 97 158q3 15 3 26q0 48 -54 48q-46 0 -59 -63l-17 -82h-105l17 86q15 76 59 117.5t112 41.5q73 0 115.5 -35.5t42.5 -101.5q0 -24 -7 -56q-19 -90 -112 -178q-74 -71 -84 -120zM164 0h-110l23 110h110z" />
    <glyph glyph-name="at" unicode="@" horiz-adv-x="692" 
d="M472 497h98l-88 -274q-4 -9 -4 -21q0 -15 18 -15q44 0 87 102q44 105 44 175q0 75 -50 118t-140 43q-93 0 -169 -66q-77 -66 -117 -166q-40 -98 -40 -203q0 -97 58 -146.5t166 -49.5q89 0 177 51l-26 -97q-76 -38 -158 -38q-142 0 -227 74q-84 74 -84 210
q0 96 31.5 189.5t86.5 166.5q56 74 136 117t168 43q128 0 200 -59t72 -171q0 -87 -30 -174q-28 -86 -86 -147q-55 -60 -122 -60q-83 0 -91 63q-40 -63 -103 -63q-43 0 -69 23.5t-26 64.5q0 30 12 66l42 134q38 119 128 119q72 0 91 -58zM327 180q45 0 71 81l24 77q5 17 5 34
q0 47 -43 47q-38 0 -54 -54l-38 -120q-5 -20 -5 -30q0 -35 40 -35z" />
    <glyph glyph-name="A" unicode="A" horiz-adv-x="402" 
d="M-43 0l263 700h152l-35 -700h-112l10 137h-124l-48 -137h-106zM266 573l-121 -341h96z" />
    <glyph glyph-name="B" unicode="B" horiz-adv-x="407" 
d="M172 0h-185l149 700h160q142 0 142 -115q0 -23 -6 -50l-6 -29q-13 -62 -36 -94t-64 -41v-1q57 -27 57 -99q0 -23 -6 -48l-13 -61q-17 -83 -63.5 -122.5t-128.5 -39.5zM227 600l-39 -185h39q67 0 84 78l8 38q4 20 4 29q0 40 -45 40h-51zM167 315l-46 -215h59q59 0 74 73
l13 61q5 28 5 37q0 24 -13.5 34t-44.5 10h-47z" />
    <glyph glyph-name="C" unicode="C" horiz-adv-x="381" 
d="M166 -10q-77 0 -117.5 35t-40.5 101q0 24 6 52l81 378q16 75 60 114.5t112 39.5q76 0 116 -35t40 -100q0 -26 -6 -53l-12 -58h-106l16 76q3 12 3 23q0 47 -53 47q-45 0 -59 -59l-84 -391q-3 -12 -3 -22q0 -48 53 -48q50 0 61 57l22 109h105l-23 -112q-31 -154 -171 -154z
" />
    <glyph glyph-name="D" unicode="D" horiz-adv-x="409" 
d="M167 0h-180l149 700h162q69 0 105 -32.5t36 -92.5q0 -23 -6 -52l-75 -354q-18 -87 -64 -128t-127 -41zM227 600l-106 -500h49q58 0 75 72l78 364q3 16 3 27q0 37 -42 37h-57z" />
    <glyph glyph-name="E" unicode="E" horiz-adv-x="359" 
d="M287 0h-300l149 700h300l-22 -100h-187l-39 -185h148l-21 -100h-148l-46 -215h187z" />
    <glyph glyph-name="F" unicode="F" horiz-adv-x="344" 
d="M100 0h-113l149 700h291l-22 -100h-178l-41 -195h139l-21 -100h-139z" />
    <glyph glyph-name="G" unicode="G" horiz-adv-x="392" 
d="M169 -10q-76 0 -118.5 35t-42.5 102q0 26 6 56l79 370q34 157 173 157q78 0 118.5 -35.5t40.5 -101.5q0 -25 -6 -54l-9 -45h-106l13 63q3 13 3 25q0 49 -53 49q-48 0 -62 -62l-83 -386q-3 -13 -3 -25q0 -48 53 -48q50 0 63 61l31 144h-56l21 100h162l-53 -247
q-33 -158 -171 -158z" />
    <glyph glyph-name="H" unicode="H" horiz-adv-x="422" 
d="M99 0h-112l149 700h112l-61 -285h116l61 285h112l-149 -700h-112l67 315h-116z" />
    <glyph glyph-name="I" unicode="I" horiz-adv-x="194" 
d="M99 0h-112l149 700h112z" />
    <glyph glyph-name="J" unicode="J" horiz-adv-x="261" 
d="M35 -4q-51 0 -78 12l21 98q27 -9 46 -9q54 0 68 60l115 543h113l-118 -551q-33 -153 -167 -153z" />
    <glyph glyph-name="K" unicode="K" horiz-adv-x="414" 
d="M377 700h120l-189 -263l40 -437h-111l-27 301l-67 -93l-44 -208h-112l149 700h112l-61 -287z" />
    <glyph glyph-name="L" unicode="L" horiz-adv-x="344" 
d="M278 0h-291l149 700h112l-128 -600h179z" />
    <glyph glyph-name="M" unicode="M" horiz-adv-x="538" 
d="M85 0h-98l149 700h154l-35 -508l181 508h158l-149 -700h-106l113 530l-195 -530h-90l31 530z" />
    <glyph glyph-name="N" unicode="N" horiz-adv-x="427" 
d="M87 0h-100l149 700h133l22 -419l90 419h100l-149 -700h-108l-28 511z" />
    <glyph glyph-name="O" unicode="O" 
d="M170 -10q-76 0 -119 36.5t-43 104.5q0 24 6 51l79 370q16 77 61.5 117.5t114.5 40.5q76 0 119 -36.5t43 -104.5q0 -25 -6 -52l-79 -370q-34 -157 -176 -157zM176 90q45 0 59 62l81 383q3 13 3 25q0 50 -55 50q-46 0 -60 -63l-81 -383q-3 -14 -3 -24q0 -50 56 -50z" />
    <glyph glyph-name="P" unicode="P" horiz-adv-x="388" 
d="M100 0h-113l149 700h161q66 0 101 -32.5t35 -91.5q0 -24 -6 -51l-15 -71q-18 -87 -65 -128t-131 -41h-56zM227 600l-45 -215h45q60 0 73 70l17 82q3 15 3 25q0 38 -40 38h-53z" />
    <glyph glyph-name="Q" unicode="Q" 
d="M425 517l-79 -370q-13 -57 -43 -97q4 -10 8.5 -12.5t18.5 -2.5h27l-21 -100h-29q-74 0 -78 64q-27 -9 -59 -9q-76 0 -119 36.5t-43 104.5q0 24 6 51l79 370q16 77 61.5 117.5t114.5 40.5q76 0 119 -36.5t43 -104.5q0 -25 -6 -52zM235 152l81 383q3 13 3 25q0 50 -55 50
q-46 0 -60 -63l-81 -383q-3 -14 -3 -24q0 -50 56 -50q45 0 59 62z" />
    <glyph glyph-name="R" unicode="R" horiz-adv-x="405" 
d="M99 0h-112l149 700h161q66 0 100.5 -30.5t34.5 -89.5q0 -24 -6 -54l-7 -34q-13 -64 -37.5 -97.5t-66.5 -44.5v-1q51 -17 51 -87q0 -31 -7 -58l-26 -123q-10 -47 -10 -63q0 -2 2 -18h-109q-2 24 -2 26q0 22 9 64l27 128q6 26 6 42q0 23 -11.5 31.5t-41.5 8.5h-40zM227 600
l-43 -200h33q68 0 86 78l12 54q4 15 4 32q0 36 -42 36h-50z" />
    <glyph glyph-name="S" unicode="S" horiz-adv-x="371" 
d="M148 -10q-151 0 -151 130q0 33 7 62l5 24h105l-8 -43q-3 -15 -3 -27q0 -46 52 -46q68 0 68 98q0 63 -61 133q-83 94 -83 188q0 89 49 144q49 57 134 57q150 0 150 -129q0 -23 -8 -63l-3 -13h-105l6 30q3 17 3 30q0 45 -50 45q-32 0 -48.5 -25t-16.5 -66q0 -60 61 -130
q83 -98 83 -192q0 -91 -50 -150q-50 -57 -136 -57z" />
    <glyph glyph-name="T" unicode="T" horiz-adv-x="366" 
d="M185 0h-112l127 600h-115l22 100h342l-22 -100h-115z" />
    <glyph glyph-name="U" unicode="U" horiz-adv-x="402" 
d="M171 -10q-75 0 -117 36t-42 102q0 26 6 54l111 518h112l-115 -538q-3 -14 -3 -24q0 -48 55 -48q47 0 59 61l117 549h108l-118 -553q-33 -157 -173 -157z" />
    <glyph glyph-name="V" unicode="V" horiz-adv-x="382" 
d="M212 0h-150l45 700h110l-46 -550l188 550h106z" />
    <glyph glyph-name="W" unicode="W" horiz-adv-x="557" 
d="M177 0h-146l79 700h106l-68 -548l169 548h120l-65 -548l166 548h99l-219 -700h-139l52 481z" />
    <glyph glyph-name="X" unicode="X" horiz-adv-x="404" 
d="M68 0h-113l207 366l-50 334h111l27 -221l120 221h114l-198 -350l53 -350h-111l-29 239z" />
    <glyph glyph-name="Y" unicode="Y" horiz-adv-x="396" 
d="M199 0h-112l64 298l-47 402h112l19 -261l133 261h114l-219 -402z" />
    <glyph glyph-name="Z" unicode="Z" horiz-adv-x="358" 
d="M285 0h-322l19 98l304 502h-186l22 100h312l-20 -98l-304 -502h196z" />
    <glyph glyph-name="bracketleft" unicode="[" horiz-adv-x="272" 
d="M164 -100h-178l170 800h178l-18 -82h-78l-135 -636h78z" />
    <glyph glyph-name="backslash" unicode="\" horiz-adv-x="387" 
d="M301 -100h-89l-106 800h89z" />
    <glyph glyph-name="bracketright" unicode="]" horiz-adv-x="272" 
d="M136 -100h-178l17 82h78l135 636h-78l18 82h178z" />
    <glyph glyph-name="asciicircum" unicode="^" 
d="M146 430h-90l143 270h74l143 -270h-90l-90 170z" />
    <glyph glyph-name="underscore" unicode="_" horiz-adv-x="300" 
d="M222 -112h-300l15 70h300z" />
    <glyph glyph-name="grave" unicode="`" horiz-adv-x="500" 
d="M373 563h-78l-78 135h115z" />
    <glyph glyph-name="a" unicode="a" horiz-adv-x="372" 
d="M216 520q143 0 143 -121q0 -33 -7 -62l-42 -203q-19 -88 -17 -134h-100q-3 6 3 49q-39 -59 -105 -59q-48 0 -76 29.5t-28 79.5q0 72 40 117t122 74q57 20 76 32q17 11 22 31v-1l3 15q3 13 3 24q0 38 -42 38q-41 0 -52 -54l-5 -24h-102l7 29q33 140 157 140zM141 81
q46 0 62 61l22 105q-9 -9 -60 -32q-66 -30 -66 -93q0 -41 42 -41z" />
    <glyph glyph-name="b" unicode="b" horiz-adv-x="388" 
d="M282 520q49 0 76.5 -27t27.5 -77q0 -21 -7 -56l-50 -236q-29 -134 -131 -134q-42 0 -69.5 23t-34.5 63l-31 -76h-78l148 700h108l-46 -219q37 39 87 39zM224 140l47 221q3 14 3 26q0 39 -39 39q-52 0 -67 -72l-39 -182h1q-4 -17 -4 -35q0 -53 48 -53q38 0 50 56z" />
    <glyph glyph-name="c" unicode="c" horiz-adv-x="362" 
d="M154 -10q-71 0 -110.5 33t-39.5 95q0 23 6 50l44 206q15 70 57 108t106 38q69 0 108 -32.5t39 -94.5q0 -24 -6 -51l-3 -17h-104l8 38q3 13 3 23q0 40 -46 40q-43 0 -54 -53l-48 -226q-3 -13 -3 -24q0 -39 45 -39q43 0 54 53l6 28h104l-6 -29q-15 -70 -56 -108t-104 -38z
" />
    <glyph glyph-name="d" unicode="d" horiz-adv-x="387" 
d="M336 700h108l-120 -566q-19 -88 -17 -134h-100q-4 7 3 52q-39 -62 -105 -62q-49 0 -76.5 27t-27.5 77q0 21 7 56l50 236q29 134 131 134q71 0 96 -57zM152 84q52 0 67 72l39 182q4 17 4 35q0 53 -49 53q-38 0 -50 -56l-47 -221q-3 -13 -3 -26q0 -39 39 -39z" />
    <glyph glyph-name="e" unicode="e" horiz-adv-x="374" 
d="M218 520q72 0 112.5 -34.5t40.5 -97.5q0 -23 -6 -50l-22 -106h-211l-17 -79q-3 -15 -3 -26q0 -43 52 -43q43 0 56 58l5 23h103l-5 -24q-15 -73 -57.5 -112t-107.5 -39q-74 0 -113.5 34.5t-39.5 97.5q0 24 6 52l42 197q15 72 57.5 110.5t107.5 38.5zM161 369l-11 -53h104
l9 43q3 13 3 23q0 44 -49 44q-43 0 -56 -57z" />
    <glyph glyph-name="f" unicode="f" horiz-adv-x="265" 
d="M287 616q-32 0 -41 -41l-14 -65h76l-19 -90h-76l-90 -420h-107l90 420h-58l19 90h58l19 90q23 110 128 110q46 0 77 -17l-18 -88q-24 11 -44 11z" />
    <glyph glyph-name="g" unicode="g" horiz-adv-x="385" 
d="M291 440l17 70h92l-113 -535q-15 -71 -54 -105.5t-110 -34.5q-74 0 -112.5 30t-38.5 86q0 2 2 24h102q-1 -3 -1 -13q0 -40 47 -40q44 0 58 57l17 82q-35 -38 -86 -38q-49 0 -76.5 27t-27.5 77q0 21 7 56l43 203q29 134 131 134q41 0 68 -21t35 -59zM158 113q46 0 64 65
l34 160q4 15 4 33q0 55 -48 55q-38 0 -50 -58l-41 -190q-3 -14 -3 -26q0 -39 40 -39z" />
    <glyph glyph-name="h" unicode="h" horiz-adv-x="389" 
d="M281 520q49 0 75.5 -26t26.5 -76q0 -30 -7 -57l-77 -361h-108l76 355q4 15 4 31q0 40 -39 40q-48 0 -63 -67l-76 -359h-106l148 700h106l-46 -218q36 38 86 38z" />
    <glyph glyph-name="i" unicode="i" horiz-adv-x="190" 
d="M216 573h-106l24 116h106zM95 0h-108l108 510h108z" />
    <glyph glyph-name="j" unicode="j" horiz-adv-x="189" 
d="M215 573h-106l24 116h106zM-103 -149l18 86q14 -8 32 -8q23 0 29 26l119 555h108l-123 -576q-21 -99 -111 -99q-47 0 -72 16z" />
    <glyph glyph-name="k" unicode="k" horiz-adv-x="394" 
d="M309 510h125l-161 -195l56 -315h-108l-36 209l-61 -75l-29 -134h-108l149 700h108l-83 -388z" />
    <glyph glyph-name="l" unicode="l" horiz-adv-x="190" 
d="M95 0h-108l149 700h108z" />
    <glyph glyph-name="m" unicode="m" horiz-adv-x="593" 
d="M485 520q49 0 75.5 -26t26.5 -76q0 -30 -7 -57l-77 -361h-108l76 355q4 15 4 31q0 40 -39 40q-42 0 -60 -55q0 -2 -2 -10l-77 -361h-108l76 355q4 15 4 31q0 40 -39 40q-49 0 -64 -71l-75 -355h-108l107 510h92l-9 -53q41 63 106 63q80 0 98 -67q39 67 108 67z" />
    <glyph glyph-name="n" unicode="n" horiz-adv-x="389" 
d="M281 520q49 0 75.5 -26t26.5 -76q0 -30 -7 -57l-77 -361h-108l76 355q4 15 4 31q0 40 -39 40q-49 0 -64 -71l-75 -355h-108l107 510h92l-9 -53q41 63 106 63z" />
    <glyph glyph-name="o" unicode="o" horiz-adv-x="374" 
d="M156 -10q-70 0 -110.5 35t-40.5 97q0 26 5 49l44 201q31 148 164 148q70 0 110.5 -35t40.5 -97q0 -26 -5 -49l-44 -201q-31 -148 -164 -148zM158 84q43 0 55 56l48 220q3 12 3 23q0 43 -48 43q-43 0 -55 -56l-48 -220q-3 -12 -3 -23q0 -43 48 -43z" />
    <glyph glyph-name="p" unicode="p" horiz-adv-x="387" 
d="M281 520q49 0 76.5 -27t27.5 -77q0 -21 -7 -56l-50 -236q-29 -134 -131 -134q-68 0 -95 55l-42 -200h-108l140 665h92l-8 -52q39 62 105 62zM223 140l47 221q3 14 3 26q0 39 -39 39q-46 0 -63 -57l-43 -204q-3 -18 -3 -28q0 -53 48 -53q38 0 50 56z" />
    <glyph glyph-name="q" unicode="q" horiz-adv-x="387" 
d="M294 436l30 74l78 -1l-141 -664h-108l39 182q-42 -42 -99 -36q-115 11 -84 159l50 236q31 145 147 134q35 -4 58.5 -26t29.5 -58zM147 80q47 -5 68 57l46 218q8 65 -40 69q-44 5 -57 -56l-48 -223q-13 -60 31 -65z" />
    <glyph glyph-name="r" unicode="r" horiz-adv-x="274" 
d="M279 520q28 0 41 -10l-21 -101q-18 7 -38 7q-79 0 -103 -110v1l-65 -307h-108l107 510h92l-13 -81q37 91 108 91z" />
    <glyph glyph-name="s" unicode="s" horiz-adv-x="342" 
d="M129 -10q-62 0 -98.5 32t-36.5 88q0 14 5 44l2 8h103l-4 -17q-3 -13 -3 -24q0 -40 40 -40q26 0 40.5 18t14.5 42q0 22 -13.5 39.5t-44.5 39.5q-36 25 -57 50q-28 32 -28 87q0 69 44 116t118 47q59 0 94 -30.5t35 -84.5q0 -17 -5 -45h-100q4 23 4 34q0 34 -35 34
q-23 0 -36.5 -16.5t-13.5 -39.5t14.5 -40.5t46.5 -40.5t41 -32q17 -14 30.5 -43t13.5 -60q0 -68 -46 -117t-125 -49z" />
    <glyph glyph-name="t" unicode="t" horiz-adv-x="273" 
d="M290 420h-77l-63 -296q0 -3 -0.5 -6t-1 -5t-0.5 -3q0 -26 37 -26q13 0 31 5l-12 -91q-24 -8 -57 -8q-51 0 -80.5 24.5t-29.5 69.5q0 19 4 34l64 302h-58l19 90h63l39 138h94l-29 -138h76z" />
    <glyph glyph-name="u" unicode="u" horiz-adv-x="389" 
d="M221 155l75 355h108l-107 -510h-92l9 53q-40 -63 -106 -63q-49 0 -75.5 26t-26.5 76q0 30 7 57l77 361h108l-76 -355q-4 -15 -4 -31q0 -40 39 -40q49 0 64 71z" />
    <glyph glyph-name="v" unicode="v" horiz-adv-x="361" 
d="M195 0h-135l7 510h107l-16 -367l141 367h105z" />
    <glyph glyph-name="w" unicode="w" horiz-adv-x="541" 
d="M172 0h-137l34 510h103l-27 -367l129 367h107l-29 -367l131 367h99l-184 -510h-130l20 314z" />
    <glyph glyph-name="x" unicode="x" horiz-adv-x="376" 
d="M68 0h-114l176 269l-58 241h109l30 -152l91 152h114l-167 -255l61 -255h-109l-33 168z" />
    <glyph glyph-name="y" unicode="y" horiz-adv-x="366" 
d="M303 510h105l-243 -569q-25 -56 -57.5 -81t-80.5 -25q-53 0 -81 18l19 88q24 -12 51 -12q34 0 51 39l9 22l-11 520h106l-6 -350z" />
    <glyph glyph-name="z" unicode="z" horiz-adv-x="332" 
d="M256 0h-291l17 88l242 332h-160l19 90h281l-17 -88l-242 -332h170z" />
    <glyph glyph-name="braceleft" unicode="{" horiz-adv-x="272" 
d="M174 -100h-54q-42 0 -67.5 22.5t-25.5 63.5q0 13 3 29l40 189q4 20 4 27q0 16 -11.5 22t-39.5 6l9 82q36 0 54.5 14.5t26.5 48.5l40 189q11 53 45.5 80t84.5 27h61l-18 -82h-12q-30 0 -46.5 -15t-23.5 -49l-35 -169q-8 -36 -25.5 -56t-50.5 -29l-9 -2q50 -17 50 -66
q0 -12 -3 -25l-36 -169q-4 -15 -4 -30t9 -20.5t31 -5.5h20z" />
    <glyph glyph-name="bar" unicode="|" horiz-adv-x="300" 
d="M215 -200h-90v1000h90v-1000z" />
    <glyph glyph-name="braceright" unicode="}" horiz-adv-x="272" 
d="M7 -100h-60l17 82h12q30 0 46.5 15t23.5 49l36 169q15 68 75 85l9 2q-50 17 -50 66q0 12 3 25l36 169q4 15 4 30t-9 20.5t-31 5.5h-20l18 82h53q42 0 67.5 -22.5t25.5 -63.5q0 -12 -3 -29l-40 -189q-4 -20 -4 -27q0 -16 11.5 -22t39.5 -6l-9 -82q-36 0 -54.5 -14.5
t-26.5 -48.5l-40 -189q-11 -53 -45.5 -80t-84.5 -27z" />
    <glyph glyph-name="asciitilde" unicode="~" 
d="M79 227l-57 43q32 55 58.5 77.5t62.5 22.5q30 0 74 -29q44 -28 59 -28q16 0 27.5 11t37.5 49l57 -43q-32 -55 -58.5 -77.5t-62.5 -22.5q-28 0 -74 29q-43 28 -59 28t-27.5 -11t-37.5 -49z" />
    <glyph glyph-name="uni00A0" unicode="&#xa0;" horiz-adv-x="160" 
 />
    <glyph glyph-name="exclamdown" unicode="&#xa1;" horiz-adv-x="214" 
d="M193 400h-110l23 110h110zM68 -190h-112l62 292l63 223h82l-33 -223z" />
    <glyph glyph-name="cent" unicode="&#xa2;" 
d="M345 710l-16 -71q89 -27 89 -125q0 -24 -6 -53l-4 -19h-105l7 37q2 10 2 22q0 47 -52 47q-47 0 -59 -58l-58 -268q-3 -12 -3 -23q0 -47 52 -47q51 0 61 58l14 68h107l-16 -72q-15 -68 -54.5 -108t-98.5 -45l-15 -73h-90l17 82q-88 28 -88 126q0 24 6 52l55 255
q14 67 53 106.5t98 45.5l14 63h90z" />
    <glyph glyph-name="sterling" unicode="&#xa3;" 
d="M309 0h-327l17 96q50 21 84.5 61t45.5 89q4 16 4 24h-94l18 85h72q-28 93 -28 149q0 94 47.5 150t132.5 56q68 0 109.5 -36.5t41.5 -103.5q0 -24 -11 -77h-106q12 59 12 67q0 50 -48 50q-69 0 -69 -114q0 -31 4 -55q2 -15 6 -35t7.5 -34.5t3.5 -16.5h124l-18 -85h-104
q-1 -13 -5 -32q-16 -79 -97 -138h199z" />
    <glyph glyph-name="currency" unicode="&#xa4;" 
d="M331 284l58 -54l-49 -49l-53 59q-67 -39 -134 0l-53 -59l-49 49l58 54q-18 31 -18 66t18 66l-58 54l49 49l53 -59q67 39 134 0l53 59l49 -49l-58 -54q18 -31 18 -66t-18 -66zM181 311q15 -14 39 -14t38 14q15 15 15 39t-15 38q-14 15 -38 15t-39 -15q-14 -14 -14 -38
t14 -39z" />
    <glyph glyph-name="yen" unicode="&#xa5;" 
d="M372 700h112l-204 -377h82l-14 -69h-91l-16 -73h91l-14 -69h-92l-24 -112h-112l24 112h-88l14 69h89l16 73h-89l14 69h81l-43 377h112l19 -261z" />
    <glyph glyph-name="brokenbar" unicode="&#xa6;" horiz-adv-x="300" 
d="M215 400h-90v400h90v-400zM215 -200h-90v400h90v-400z" />
    <glyph glyph-name="section" unicode="&#xa7;" horiz-adv-x="414" 
d="M428 538h-103q4 15 4 30q0 48 -51 48q-30 0 -46 -17t-16 -47q0 -19 13 -38q12 -16 25 -27l41 -28q39 -28 51 -38q22 -18 38.5 -49t16.5 -63q0 -57 -30.5 -98.5t-82.5 -55.5q34 -40 34 -97q0 -73 -46.5 -119t-121.5 -46q-70 0 -112 36.5t-42 97.5q0 13 4 38h103
q-4 -15 -4 -30q0 -48 51 -48q30 0 46 17t16 47q0 18 -14 37q-14 20 -25 27q-9 8 -40 29q-39 28 -51 38q-22 18 -38.5 49t-16.5 63q0 57 30.5 98.5t82.5 55.5q-34 40 -34 97q0 73 46.5 119t121.5 46q70 0 112 -36.5t42 -97.5q0 -13 -4 -38zM291 295q0 19 -12 37
q-16 25 -65 58l-4 3q-32 -4 -50.5 -28t-18.5 -57q0 -19 13 -38q12 -16 24 -28q25 -19 40 -29l4 -3q32 4 50.5 28t18.5 57z" />
    <glyph glyph-name="dieresis" unicode="&#xa8;" horiz-adv-x="500" 
d="M295 573h-95l24 116h95zM436 573h-95l24 116h95z" />
    <glyph glyph-name="copyright" unicode="&#xa9;" horiz-adv-x="740" 
d="M639 92q-99 -102 -249 -102t-249 102q-99 104 -99 258q0 155 99 257q99 103 249 103t249 -103q99 -102 99 -257q0 -154 -99 -258zM191 141q78 -81 199 -81q122 0 198 81q78 83 78 209q0 127 -78 208q-76 82 -198 82q-121 0 -199 -82q-77 -82 -77 -208t77 -209zM273 252
v194q0 124 113 124t113 -124v-36h-72v42q0 48 -39 48t-39 -48v-204q0 -47 39 -47t39 47v60h72v-56q0 -122 -113 -122t-113 122z" />
    <glyph glyph-name="ordfeminine" unicode="&#xaa;" horiz-adv-x="276" 
d="M213 710q48 0 75 -22t27 -64q0 -14 -5 -42l-31 -142q-16 -73 -16 -100h-60q-1 7 2 40q-29 -45 -77 -45q-36 0 -55.5 18.5t-19.5 52.5q0 100 116 136q39 13 52 20.5t17 18.5l5 21q0 2 0.5 5t1 5t0.5 3.5v2.5q0 32 -33 32q-32 0 -42 -42l-2 -8h-67l2 12q10 46 39 72t71 26z
M159 393q41 0 52 59l14 64q-5 -5 -46 -23q-53 -23 -53 -70q0 -30 33 -30zM232 219h-212l14 63h212z" />
    <glyph glyph-name="guillemotleft" unicode="&#xab;" horiz-adv-x="344" 
d="M159 184h-78l-53 116l98 110h83l-87 -116zM307 184h-78l-52 116l97 110h83l-86 -116z" />
    <glyph glyph-name="logicalnot" unicode="&#xac;" 
d="M373 164h-78v137h-268v78h346v-215z" />
    <glyph glyph-name="uni00AD" unicode="&#xad;" horiz-adv-x="270" 
d="M245 255h-220l19 90h220z" />
    <glyph glyph-name="registered" unicode="&#xae;" horiz-adv-x="740" 
d="M639 92q-99 -102 -249 -102t-249 102q-99 104 -99 258q0 155 99 257q99 103 249 103t249 -103q99 -102 99 -257q0 -154 -99 -258zM191 141q78 -81 199 -81q122 0 198 81q78 83 78 209q0 127 -78 208q-76 82 -198 82q-121 0 -199 -82q-77 -82 -77 -208t77 -209zM356 136
h-76v428h116q113 0 113 -112v-9q0 -71 -52 -93v-2q52 -16 52 -92v-61q0 -39 9 -59h-78q-7 17 -7 60v55q0 33 -10 45.5t-37 12.5h-30v-173zM356 494v-115h31q46 0 46 51v13q0 51 -41 51h-36z" />
    <glyph glyph-name="overscore" unicode="&#xaf;" horiz-adv-x="500" 
d="M437 592h-230l16 78h230z" />
    <glyph glyph-name="degree" unicode="&#xb0;" 
d="M360 493q-37 -37 -90 -37t-90 37t-37 90t37 90t90 37t90 -37t37 -90t-37 -90zM233 546q15 -15 37 -15t37 15q16 15 16 37t-16 37q-15 16 -37 16t-37 -16q-15 -15 -15 -37t15 -37z" />
    <glyph glyph-name="plusminus" unicode="&#xb1;" 
d="M373 104h-326v78h124v115h-124v78h124v119h78v-119h124v-78h-124v-115h124v-78z" />
    <glyph glyph-name="uni00B2" unicode="&#xb2;" horiz-adv-x="278" 
d="M259 351h-203l13 64q10 49 32 82.5t70 69.5q45 35 66.5 62.5t29.5 61.5q2 10 2 19q0 32 -32 32t-41 -41l-9 -44h-67l10 47q23 101 109 101q50 0 76 -22.5t26 -64.5q0 -18 -4 -33q-9 -42 -36.5 -78t-84.5 -81q-38 -29 -53 -49t-20 -45l-4 -18h133z" />
    <glyph glyph-name="uni00B3" unicode="&#xb3;" horiz-adv-x="279" 
d="M173 341q-101 0 -101 85q0 22 4 37l6 27h67l-9 -39q0 -2 -0.5 -5t-1 -5t-0.5 -3.5v-2.5q0 -31 34 -31q31 0 41 46l11 49q3 15 3 24q0 28 -34 28h-28l14 63h23q47 0 57 52l5 22q3 12 3 22q0 32 -36 32q-30 0 -39 -39l-7 -32h-66l7 34q21 100 110 100q101 0 101 -86
q0 -20 -4 -35l-3 -14q-8 -39 -24 -59.5t-46 -28.5v-2q35 -21 35 -65q0 -12 -4 -29l-8 -45q-19 -100 -110 -100z" />
    <glyph glyph-name="acute" unicode="&#xb4;" horiz-adv-x="500" 
d="M341 563h-88l99 135h125z" />
    <glyph glyph-name="uni00B5" unicode="&#xb5;" horiz-adv-x="392" 
d="M226 155l75 355h108l-107 -510h-92l9 53q-41 -63 -106 -63q-4 0 -22 2l-31 -147h-106l141 665h108l-76 -355q-4 -15 -4 -31q0 -40 39 -40q49 0 64 71z" />
    <glyph glyph-name="paragraph" unicode="&#xb6;" horiz-adv-x="451" 
d="M183 -97h-82l90 402q-123 0 -123 111q0 24 6 54l13 61q18 87 65.5 128t129.5 41h213l-170 -797h-82l153 717h-60z" />
    <glyph glyph-name="middot" unicode="&#xb7;" horiz-adv-x="200" 
d="M153 245h-110l23 110h110z" />
    <glyph glyph-name="cedilla" unicode="&#xb8;" horiz-adv-x="500" 
d="M168 -155q-91 0 -91 53q0 7 2 19h74q-3 -9 -3 -16q0 -16 20 -16q32 0 32 40q0 18 -28 18h-9l15 71h49l-15 -53q62 0 62 -44q0 -41 -26.5 -56.5t-81.5 -15.5z" />
    <glyph glyph-name="uni00B9" unicode="&#xb9;" horiz-adv-x="279" 
d="M218 351h-71l72 339h-70l2 49q41 0 66.5 12.5t47.5 43.5h46z" />
    <glyph glyph-name="ordmasculine" unicode="&#xba;" horiz-adv-x="277" 
d="M174 333q-51 0 -78.5 24t-27.5 68q0 21 4 36l30 144q22 105 117 105q51 0 78.5 -24.5t27.5 -68.5q0 -20 -4 -35l-31 -144q-22 -105 -116 -105zM176 396q33 0 43 43l34 157q2 16 2 17q0 35 -41 35q-32 0 -41 -44l-33 -157q-2 -16 -2 -17q0 -34 38 -34zM237 219h-212l14 63
h212z" />
    <glyph glyph-name="guillemotright" unicode="&#xbb;" horiz-adv-x="343" 
d="M87 184h-83l86 116l-36 110h78l52 -116zM235 184h-83l87 116l-37 110h78l53 -116z" />
    <glyph glyph-name="onequarter" unicode="&#xbc;" horiz-adv-x="650" 
d="M172 0h-72l419 700h73zM198 256h-71l72 339h-70l2 49q41 0 66.5 12.5t47.5 43.5h46zM542 0h-71l17 80h-132l12 63l191 301h77l-64 -301h33l-13 -63h-33zM543 323l-110 -180h69z" />
    <glyph glyph-name="onehalf" unicode="&#xbd;" horiz-adv-x="650" 
d="M172 0h-72l419 700h73zM198 256h-71l72 339h-70l2 49q41 0 66.5 12.5t47.5 43.5h46zM557 0h-203l13 64q10 49 32 82.5t70 69.5q45 35 66.5 62.5t29.5 61.5q2 10 2 19q0 32 -32 32t-41 -41l-9 -44h-67l10 47q23 101 109 101q50 0 76 -22.5t26 -64.5q0 -18 -4 -33
q-9 -42 -36.5 -78t-84.5 -81q-38 -29 -53 -49t-20 -45l-4 -18h133z" />
    <glyph glyph-name="threequarters" unicode="&#xbe;" horiz-adv-x="649" 
d="M152 246q-101 0 -101 85q0 22 4 37l6 27h67l-9 -39q0 -2 -0.5 -5t-1 -5t-0.5 -3.5v-2.5q0 -31 34 -31q31 0 41 46l11 49q3 15 3 24q0 28 -34 28h-28l14 63h23q47 0 57 52l5 22q3 12 3 22q0 32 -36 32q-30 0 -39 -39l-7 -32h-66l7 34q21 100 110 100q101 0 101 -86
q0 -20 -4 -35l-3 -14q-8 -39 -24 -59.5t-46 -28.5v-2q35 -21 35 -65q0 -12 -4 -29l-8 -45q-19 -100 -110 -100zM171 0h-72l419 700h73zM541 0h-71l17 80h-132l12 63l191 301h77l-64 -301h33l-13 -63h-33zM542 323l-110 -180h69z" />
    <glyph glyph-name="questiondown" unicode="&#xbf;" horiz-adv-x="360" 
d="M282 400h-110l23 110h110zM110 -200q-73 0 -115.5 35.5t-42.5 101.5q0 24 7 56q18 90 112 178q73 71 84 120l7 34h96l-10 -46q-17 -77 -85 -147q-84 -85 -97 -158q-3 -15 -3 -26q0 -48 54 -48q45 0 59 63l17 82h105l-17 -86q-15 -76 -59 -117.5t-112 -41.5z" />
    <glyph glyph-name="Agrave" unicode="&#xc0;" horiz-adv-x="402" 
d="M321 878l41 -135h-78l-78 135h115zM-43 0l263 700h152l-35 -700h-112l10 137h-124l-48 -137h-106zM266 573l-121 -341h96z" />
    <glyph glyph-name="Aacute" unicode="&#xc1;" horiz-adv-x="402" 
d="M341 878h125l-136 -135h-88zM63 0h-106l263 700h152l-35 -700h-112l10 137h-124zM266 573l-121 -341h96z" />
    <glyph glyph-name="Acircumflex" unicode="&#xc2;" horiz-adv-x="402" 
d="M359 743l-34 75l-68 -75h-88l111 135h104l53 -135h-78zM63 0h-106l263 700h152l-35 -700h-112l10 137h-124zM266 573l-121 -341h96z" />
    <glyph glyph-name="Atilde" unicode="&#xc3;" horiz-adv-x="402" 
d="M406 874l52 -40q-47 -80 -97 -80q-27 0 -56 24q-14 13 -25 13q-27 0 -49 -43l-51 40q47 80 97 80q28 0 56 -24q14 -13 25 -13q23 0 48 43zM63 0h-106l263 700h152l-35 -700h-112l10 137h-124zM266 573l-121 -341h96z" />
    <glyph glyph-name="Adieresis" unicode="&#xc4;" horiz-adv-x="402" 
d="M213 869h95l-24 -116h-95zM330 753l24 116h95l-24 -116h-95zM63 0h-106l263 700h152l-35 -700h-112l10 137h-124zM266 573l-121 -341h96z" />
    <glyph glyph-name="Aring" unicode="&#xc5;" horiz-adv-x="402" 
d="M330 918q36 0 59.5 -22.5t23.5 -55.5q0 -40 -29 -68.5t-69 -28.5q-36 0 -59.5 22.5t-23.5 55.5q0 40 29 68.5t69 28.5zM319 796q15 0 26 11t11 28q3 22 -20 28q-27 6 -40 -16q-6 -9 -6 -21q0 -13 8 -21.5t21 -8.5zM63 0h-106l263 700h152l-35 -700h-112l10 137h-124z
M266 573l-121 -341h96z" />
    <glyph glyph-name="AE" unicode="&#xc6;" horiz-adv-x="578" 
d="M655 700l-22 -100h-187l-39 -185h148l-21 -100h-148l-46 -215h187l-21 -100h-300l29 137h-107l-64 -137h-110l338 700h363zM326 562l-154 -330h83z" />
    <glyph glyph-name="Ccedilla" unicode="&#xc7;" horiz-adv-x="381" 
d="M267 710q76 0 116 -35t40 -100q0 -26 -6 -53l-12 -58h-106l16 76q3 12 3 23q0 47 -53 47q-45 0 -59 -59l-84 -391q-3 -12 -3 -22q0 -48 53 -48q50 0 61 57l22 109h105l-23 -112q-31 -154 -171 -154h-1l-8 -29q62 0 62 -44q0 -41 -26.5 -56.5t-81.5 -15.5q-91 0 -91 53
q0 7 2 19h74q-3 -9 -3 -16q0 -16 20 -16q32 0 32 40q0 18 -28 18h-9l11 51q-111 21 -111 132q0 24 6 52l81 378q16 75 60 114.5t112 39.5z" />
    <glyph glyph-name="Egrave" unicode="&#xc8;" horiz-adv-x="359" 
d="M352 743h-78l-78 135h115zM287 0h-300l149 700h300l-22 -100h-187l-39 -185h148l-21 -100h-148l-46 -215h187z" />
    <glyph glyph-name="Eacute" unicode="&#xc9;" horiz-adv-x="359" 
d="M320 743h-88l99 135h125zM287 0h-300l149 700h300l-22 -100h-187l-39 -185h148l-21 -100h-148l-46 -215h187z" />
    <glyph glyph-name="Ecircumflex" unicode="&#xca;" horiz-adv-x="359" 
d="M247 743h-88l111 135h104l53 -135h-78l-34 75zM287 0h-300l149 700h300l-22 -100h-187l-39 -185h148l-21 -100h-148l-46 -215h187z" />
    <glyph glyph-name="Edieresis" unicode="&#xcb;" horiz-adv-x="359" 
d="M274 753h-95l24 116h95zM415 753h-95l24 116h95zM287 0h-300l149 700h300l-22 -100h-187l-39 -185h148l-21 -100h-148l-46 -215h187z" />
    <glyph glyph-name="Igrave" unicode="&#xcc;" horiz-adv-x="194" 
d="M257 743h-78l-78 135h115zM99 0h-112l149 700h112z" />
    <glyph glyph-name="Iacute" unicode="&#xcd;" horiz-adv-x="194" 
d="M225 743h-88l99 135h125zM99 0h-112l149 700h112z" />
    <glyph glyph-name="Icircumflex" unicode="&#xce;" horiz-adv-x="194" 
d="M152 743h-88l111 135h104l53 -135h-78l-34 75zM99 0h-112l149 700h112z" />
    <glyph glyph-name="Idieresis" unicode="&#xcf;" horiz-adv-x="194" 
d="M179 753h-95l24 116h95zM320 753h-95l24 116h95zM99 0h-112l149 700h112z" />
    <glyph glyph-name="Eth" unicode="&#xd0;" horiz-adv-x="427" 
d="M154 700h162q69 0 105 -32.5t36 -92.5q0 -23 -6 -52l-75 -354q-18 -87 -64 -128t-127 -41h-180l68 318h-48l20 94h48zM263 172l78 364q3 16 3 27q0 37 -42 37h-57l-40 -188h54l-20 -94h-54l-46 -218h49q58 0 75 72z" />
    <glyph glyph-name="Ntilde" unicode="&#xd1;" horiz-adv-x="427" 
d="M244 748l-51 40q47 80 97 80q28 0 56 -24q14 -13 25 -13q23 0 48 43l52 -40q-47 -80 -97 -80q-28 0 -56 24q-14 13 -25 13q-27 0 -49 -43zM87 0h-100l149 700h133l22 -419l90 419h100l-149 -700h-108l-28 511z" />
    <glyph glyph-name="Ograve" unicode="&#xd2;" 
d="M361 743h-78l-78 135h115zM170 -10q-76 0 -119 36.5t-43 104.5q0 24 6 51l79 370q16 77 61.5 117.5t114.5 40.5q76 0 119 -36.5t43 -104.5q0 -25 -6 -52l-79 -370q-34 -157 -176 -157zM176 90q45 0 59 62l81 383q3 13 3 25q0 50 -55 50q-46 0 -60 -63l-81 -383
q-3 -14 -3 -24q0 -50 56 -50z" />
    <glyph glyph-name="Oacute" unicode="&#xd3;" 
d="M329 743h-88l99 135h125zM170 -10q-76 0 -119 36.5t-43 104.5q0 24 6 51l79 370q16 77 61.5 117.5t114.5 40.5q76 0 119 -36.5t43 -104.5q0 -25 -6 -52l-79 -370q-34 -157 -176 -157zM176 90q45 0 59 62l81 383q3 13 3 25q0 50 -55 50q-46 0 -60 -63l-81 -383
q-3 -14 -3 -24q0 -50 56 -50z" />
    <glyph glyph-name="Ocircumflex" unicode="&#xd4;" 
d="M256 743h-88l111 135h104l53 -135h-78l-34 75zM170 -10q-76 0 -119 36.5t-43 104.5q0 24 6 51l79 370q16 77 61.5 117.5t114.5 40.5q76 0 119 -36.5t43 -104.5q0 -25 -6 -52l-79 -370q-34 -157 -176 -157zM176 90q45 0 59 62l81 383q3 13 3 25q0 50 -55 50q-46 0 -60 -63
l-81 -383q-3 -14 -3 -24q0 -50 56 -50z" />
    <glyph glyph-name="Otilde" unicode="&#xd5;" 
d="M230 748l-51 40q47 80 97 80q28 0 56 -24q14 -13 25 -13q23 0 48 43l52 -40q-47 -80 -97 -80q-28 0 -56 24q-14 13 -25 13q-27 0 -49 -43zM170 -10q-76 0 -119 36.5t-43 104.5q0 24 6 51l79 370q16 77 61.5 117.5t114.5 40.5q76 0 119 -36.5t43 -104.5q0 -25 -6 -52
l-79 -370q-34 -157 -176 -157zM176 90q45 0 59 62l81 383q3 13 3 25q0 50 -55 50q-46 0 -60 -63l-81 -383q-3 -14 -3 -24q0 -50 56 -50z" />
    <glyph glyph-name="Odieresis" unicode="&#xd6;" 
d="M283 753h-95l24 116h95zM424 753h-95l24 116h95zM170 -10q-76 0 -119 36.5t-43 104.5q0 24 6 51l79 370q16 77 61.5 117.5t114.5 40.5q76 0 119 -36.5t43 -104.5q0 -25 -6 -52l-79 -370q-34 -157 -176 -157zM176 90q45 0 59 62l81 383q3 13 3 25q0 50 -55 50
q-46 0 -60 -63l-81 -383q-3 -14 -3 -24q0 -50 56 -50z" />
    <glyph glyph-name="multiply" unicode="&#xd7;" 
d="M212 247l-107 -110l-53 53l106 110l-105 109l53 53l106 -109l106 110l53 -53l-106 -110l106 -110l-53 -53z" />
    <glyph glyph-name="Oslash" unicode="&#xd8;" 
d="M418 730l52 -34l-47 -76q8 -26 8 -51t-6 -52l-79 -370q-34 -157 -176 -157q-72 0 -114 33l-33 -53l-53 34l46 75q-8 26 -8 52q0 24 6 51l79 370q16 77 61.5 117.5t114.5 40.5q72 0 116 -34zM204 547l-53 -249l168 271q-6 41 -55 41q-46 0 -60 -63zM235 152l52 247
l-166 -270q6 -39 55 -39q45 0 59 62z" />
    <glyph glyph-name="Ugrave" unicode="&#xd9;" horiz-adv-x="402" 
d="M362 743h-78l-78 135h115zM171 -10q-75 0 -117 36t-42 102q0 26 6 54l111 518h112l-115 -538q-3 -14 -3 -24q0 -48 55 -48q47 0 59 61l117 549h108l-118 -553q-33 -157 -173 -157z" />
    <glyph glyph-name="Uacute" unicode="&#xda;" horiz-adv-x="402" 
d="M330 743h-88l99 135h125zM171 -10q-75 0 -117 36t-42 102q0 26 6 54l111 518h112l-115 -538q-3 -14 -3 -24q0 -48 55 -48q47 0 59 61l117 549h108l-118 -553q-33 -157 -173 -157z" />
    <glyph glyph-name="Ucircumflex" unicode="&#xdb;" horiz-adv-x="402" 
d="M257 743h-88l111 135h104l53 -135h-78l-34 75zM171 -10q-75 0 -117 36t-42 102q0 26 6 54l111 518h112l-115 -538q-3 -14 -3 -24q0 -48 55 -48q47 0 59 61l117 549h108l-118 -553q-33 -157 -173 -157z" />
    <glyph glyph-name="Udieresis" unicode="&#xdc;" horiz-adv-x="402" 
d="M284 753h-95l24 116h95zM425 753h-95l24 116h95zM171 -10q-75 0 -117 36t-42 102q0 26 6 54l111 518h112l-115 -538q-3 -14 -3 -24q0 -48 55 -48q47 0 59 61l117 549h108l-118 -553q-33 -157 -173 -157z" />
    <glyph glyph-name="Yacute" unicode="&#xdd;" horiz-adv-x="396" 
d="M325 743h-88l99 135h125zM199 0h-112l64 298l-47 402h112l19 -261l133 261h114l-219 -402z" />
    <glyph glyph-name="Thorn" unicode="&#xde;" horiz-adv-x="388" 
d="M100 0h-113l149 700h113l-21 -99h48q66 0 101 -32.5t35 -91.5q0 -24 -6 -51l-15 -71q-18 -87 -65 -128t-131 -41h-56zM206 501l-45 -215h45q60 0 73 70l17 82q3 15 3 25q0 38 -40 38h-53z" />
    <glyph glyph-name="germandbls" unicode="&#xdf;" horiz-adv-x="396" 
d="M205 -11q-40 0 -71 16l19 89q19 -10 41 -10q27 0 43.5 19.5t16.5 47.5q0 21 -24 53q-37 52 -37 100q0 36 10 63q13 40 49 86l25 36q26 37 26 88q0 39 -41 39q-39 0 -51 -54l-119 -562h-107l119 567q29 143 160 143q66 0 106 -32t40 -92q0 -38 -11 -74q-9 -30 -22 -50
q-2 -3 -31 -41q-10 -12 -23 -30q-22 -32 -22 -70q0 -31 29 -71q32 -44 32 -84q0 -72 -44 -125q-43 -52 -113 -52z" />
    <glyph glyph-name="agrave" unicode="&#xe0;" horiz-adv-x="372" 
d="M263 698l41 -135h-78l-78 135h115zM216 520q143 0 143 -121q0 -33 -7 -62l-42 -203q-19 -88 -17 -134h-100q-3 6 3 49q-39 -59 -105 -59q-48 0 -76 29.5t-28 79.5q0 72 40 117t122 74q57 20 76 32q17 11 22 31v-1l3 15q3 13 3 24q0 38 -42 38q-41 0 -52 -54l-5 -24h-102
l7 29q33 140 157 140zM141 81q46 0 62 61l22 105q-9 -9 -60 -32q-66 -30 -66 -93q0 -41 42 -41z" />
    <glyph glyph-name="aacute" unicode="&#xe1;" horiz-adv-x="372" 
d="M283 698h125l-136 -135h-88zM216 520q143 0 143 -121q0 -33 -7 -62l-42 -203q-19 -88 -17 -134h-100q-3 6 3 49q-39 -59 -105 -59q-48 0 -76 29.5t-28 79.5q0 72 40 117t122 74q57 20 76 32q17 11 22 31v-1l3 15q3 13 3 24q0 38 -42 38q-41 0 -52 -54l-5 -24h-102l7 29
q33 140 157 140zM141 81q46 0 62 61l22 105q-9 -9 -60 -32q-66 -30 -66 -93q0 -41 42 -41z" />
    <glyph glyph-name="acircumflex" unicode="&#xe2;" horiz-adv-x="372" 
d="M301 563l-34 75l-68 -75h-88l111 135h104l53 -135h-78zM216 520q143 0 143 -121q0 -33 -7 -62l-42 -203q-19 -88 -17 -134h-100q-3 6 3 49q-39 -59 -105 -59q-48 0 -76 29.5t-28 79.5q0 72 40 117t122 74q57 20 76 32q17 11 22 31v-1l3 15q3 13 3 24q0 38 -42 38
q-41 0 -52 -54l-5 -24h-102l7 29q33 140 157 140zM141 81q46 0 62 61l22 105q-9 -9 -60 -32q-66 -30 -66 -93q0 -41 42 -41z" />
    <glyph glyph-name="atilde" unicode="&#xe3;" horiz-adv-x="372" 
d="M348 694l52 -40q-47 -80 -97 -80q-27 0 -56 24q-14 13 -25 13q-27 0 -49 -43l-51 40q47 80 97 80q27 0 56 -24q14 -13 25 -13q23 0 48 43zM216 520q143 0 143 -121q0 -33 -7 -62l-42 -203q-19 -88 -17 -134h-100q-3 6 3 49q-39 -59 -105 -59q-48 0 -76 29.5t-28 79.5
q0 72 40 117t122 74q57 20 76 32q17 11 22 31v-1l3 15q3 13 3 24q0 38 -42 38q-41 0 -52 -54l-5 -24h-102l7 29q33 140 157 140zM141 81q46 0 62 61l22 105q-9 -9 -60 -32q-66 -30 -66 -93q0 -41 42 -41z" />
    <glyph glyph-name="adieresis" unicode="&#xe4;" horiz-adv-x="372" 
d="M155 689h95l-24 -116h-95zM272 573l24 116h95l-24 -116h-95zM216 520q143 0 143 -121q0 -33 -7 -62l-42 -203q-19 -88 -17 -134h-100q-3 6 3 49q-39 -59 -105 -59q-48 0 -76 29.5t-28 79.5q0 72 40 117t122 74q57 20 76 32q17 11 22 31v-1l3 15q3 13 3 24q0 38 -42 38
q-41 0 -52 -54l-5 -24h-102l7 29q33 140 157 140zM141 81q46 0 62 61l22 105q-9 -9 -60 -32q-66 -30 -66 -93q0 -41 42 -41z" />
    <glyph glyph-name="aring" unicode="&#xe5;" horiz-adv-x="372" 
d="M257 563q-36 0 -59.5 22.5t-23.5 55.5q0 40 29 68.5t69 28.5q36 0 59.5 -22.5t23.5 -55.5q0 -40 -29 -68.5t-69 -28.5zM232 646q0 -13 8 -21.5t21 -8.5q15 0 26 11t11 28q3 22 -20 28q-27 6 -40 -16q-6 -9 -6 -21zM216 520q143 0 143 -121q0 -33 -7 -62l-42 -203
q-19 -88 -17 -134h-100q-3 6 3 49q-39 -59 -105 -59q-48 0 -76 29.5t-28 79.5q0 72 40 117t122 74q57 20 76 32q17 11 22 31v-1l3 15q3 13 3 24q0 38 -42 38q-41 0 -52 -54l-5 -24h-102l7 29q33 140 157 140zM141 81q46 0 62 61l22 105q-9 -9 -60 -32q-66 -30 -66 -93
q0 -41 42 -41z" />
    <glyph glyph-name="ae" unicode="&#xe6;" horiz-adv-x="569" 
d="M426 520q66 0 103.5 -34.5t37.5 -96.5q0 -24 -6 -51l-22 -106h-211l-17 -79q-3 -15 -3 -26q0 -43 52 -43q43 0 56 58l5 23h103l-5 -24q-15 -73 -57.5 -112t-107.5 -39q-118 0 -146 84q-37 -84 -119 -84q-48 0 -76 29.5t-28 79.5q0 72 40.5 117.5t121.5 73.5q59 21 77 32
q17 11 22 31l3 14q3 13 3 24q0 38 -42 38t-52 -54l-5 -24h-102l7 29q33 140 157 140q83 0 105 -55q39 55 106 55zM450 316l9 43q3 13 3 23q0 44 -49 44q-43 0 -56 -57l-9 -40l-3 -13h105zM139 81q48 0 64 73l1 6l3 14l15 73q-15 -14 -59 -32q-66 -30 -66 -90q0 -44 42 -44z
" />
    <glyph glyph-name="ccedilla" unicode="&#xe7;" horiz-adv-x="362" 
d="M217 520q69 0 108 -32.5t39 -94.5q0 -24 -6 -51l-3 -17h-104l8 38q3 13 3 23q0 40 -46 40q-43 0 -54 -53l-48 -226q-3 -13 -3 -24q0 -39 45 -39q43 0 54 53l6 28h104l-6 -29q-15 -70 -56 -108t-104 -38h-1l-8 -29q62 0 62 -44q0 -41 -26.5 -56.5t-81.5 -15.5
q-91 0 -91 53q0 7 2 19h74q-3 -9 -3 -16q0 -16 20 -16q32 0 32 40q0 18 -28 18h-9l11 51q-103 21 -103 124q0 23 6 50l44 206q15 70 57 108t106 38z" />
    <glyph glyph-name="egrave" unicode="&#xe8;" horiz-adv-x="374" 
d="M269 698l41 -135h-78l-78 135h115zM218 520q72 0 112.5 -34.5t40.5 -97.5q0 -23 -6 -50l-22 -106h-211l-17 -79q-3 -15 -3 -26q0 -43 52 -43q43 0 56 58l5 23h103l-5 -24q-15 -73 -57.5 -112t-107.5 -39q-74 0 -113.5 34.5t-39.5 97.5q0 24 6 52l42 197q15 72 57.5 110.5
t107.5 38.5zM161 369l-11 -53h104l9 43q3 13 3 23q0 44 -49 44q-43 0 -56 -57z" />
    <glyph glyph-name="eacute" unicode="&#xe9;" horiz-adv-x="374" 
d="M289 698h125l-136 -135h-88zM218 520q72 0 112.5 -34.5t40.5 -97.5q0 -23 -6 -50l-22 -106h-211l-17 -79q-3 -15 -3 -26q0 -43 52 -43q43 0 56 58l5 23h103l-5 -24q-15 -73 -57.5 -112t-107.5 -39q-74 0 -113.5 34.5t-39.5 97.5q0 24 6 52l42 197q15 72 57.5 110.5
t107.5 38.5zM161 369l-11 -53h104l9 43q3 13 3 23q0 44 -49 44q-43 0 -56 -57z" />
    <glyph glyph-name="ecircumflex" unicode="&#xea;" horiz-adv-x="374" 
d="M307 563l-34 75l-68 -75h-88l111 135h104l53 -135h-78zM218 520q72 0 112.5 -34.5t40.5 -97.5q0 -23 -6 -50l-22 -106h-211l-17 -79q-3 -15 -3 -26q0 -43 52 -43q43 0 56 58l5 23h103l-5 -24q-15 -73 -57.5 -112t-107.5 -39q-74 0 -113.5 34.5t-39.5 97.5q0 24 6 52
l42 197q15 72 57.5 110.5t107.5 38.5zM161 369l-11 -53h104l9 43q3 13 3 23q0 44 -49 44q-43 0 -56 -57z" />
    <glyph glyph-name="edieresis" unicode="&#xeb;" horiz-adv-x="374" 
d="M161 689h95l-24 -116h-95zM278 573l24 116h95l-24 -116h-95zM218 520q72 0 112.5 -34.5t40.5 -97.5q0 -23 -6 -50l-22 -106h-211l-17 -79q-3 -15 -3 -26q0 -43 52 -43q43 0 56 58l5 23h103l-5 -24q-15 -73 -57.5 -112t-107.5 -39q-74 0 -113.5 34.5t-39.5 97.5q0 24 6 52
l42 197q15 72 57.5 110.5t107.5 38.5zM161 369l-11 -53h104l9 43q3 13 3 23q0 44 -49 44q-43 0 -56 -57z" />
    <glyph glyph-name="igrave" unicode="&#xec;" horiz-adv-x="190" 
d="M218 563h-78l-78 135h115zM95 0h-108l108 510h108z" />
    <glyph glyph-name="iacute" unicode="&#xed;" horiz-adv-x="190" 
d="M186 563h-88l99 135h125zM95 0h-108l108 510h108z" />
    <glyph glyph-name="icircumflex" unicode="&#xee;" horiz-adv-x="190" 
d="M113 563h-88l111 135h104l53 -135h-78l-34 75zM95 0h-108l108 510h108z" />
    <glyph glyph-name="idieresis" unicode="&#xef;" horiz-adv-x="190" 
d="M140 573h-95l24 116h95zM281 573h-95l24 116h95zM95 0h-108l108 510h108z" />
    <glyph glyph-name="eth" unicode="&#xf0;" horiz-adv-x="376" 
d="M349 700h91l-102 -82q36 -68 36 -162q0 -62 -20 -162l-33 -155q-15 -72 -57.5 -110.5t-107.5 -38.5q-70 0 -110.5 35t-40.5 97q0 26 5 49l37 172q28 136 130 136q66 0 93 -52q1 7 1 28q0 52 -16 97l-45 -36h-91l111 89q-34 54 -82 95h122q20 -17 35 -35zM158 84
q43 0 55 56l36 173q1 4 1 15q0 54 -48 54q-38 0 -50 -57l-38 -175q-3 -14 -3 -24q0 -42 47 -42z" />
    <glyph glyph-name="ntilde" unicode="&#xf1;" horiz-adv-x="389" 
d="M236 611q-27 0 -49 -43l-51 40q47 80 97 80q27 0 56 -24q14 -13 25 -13q23 0 48 43l52 -40q-47 -80 -97 -80q-27 0 -56 24q-14 13 -25 13zM281 520q49 0 75.5 -26t26.5 -76q0 -30 -7 -57l-77 -361h-108l76 355q4 15 4 31q0 40 -39 40q-49 0 -64 -71l-75 -355h-108
l107 510h92l-9 -53q41 63 106 63z" />
    <glyph glyph-name="ograve" unicode="&#xf2;" horiz-adv-x="374" 
d="M310 563h-78l-78 135h115zM156 -10q-70 0 -110.5 35t-40.5 97q0 26 5 49l44 201q31 148 164 148q70 0 110.5 -35t40.5 -97q0 -26 -5 -49l-44 -201q-31 -148 -164 -148zM158 84q43 0 55 56l48 220q3 12 3 23q0 43 -48 43q-43 0 -55 -56l-48 -220q-3 -12 -3 -23
q0 -43 48 -43z" />
    <glyph glyph-name="oacute" unicode="&#xf3;" horiz-adv-x="374" 
d="M278 563h-88l99 135h125zM156 -10q-70 0 -110.5 35t-40.5 97q0 26 5 49l44 201q31 148 164 148q70 0 110.5 -35t40.5 -97q0 -26 -5 -49l-44 -201q-31 -148 -164 -148zM158 84q43 0 55 56l48 220q3 12 3 23q0 43 -48 43q-43 0 -55 -56l-48 -220q-3 -12 -3 -23
q0 -43 48 -43z" />
    <glyph glyph-name="ocircumflex" unicode="&#xf4;" horiz-adv-x="374" 
d="M205 563h-88l111 135h104l53 -135h-78l-34 75zM156 -10q-70 0 -110.5 35t-40.5 97q0 26 5 49l44 201q31 148 164 148q70 0 110.5 -35t40.5 -97q0 -26 -5 -49l-44 -201q-31 -148 -164 -148zM158 84q43 0 55 56l48 220q3 12 3 23q0 43 -48 43q-43 0 -55 -56l-48 -220
q-3 -12 -3 -23q0 -43 48 -43z" />
    <glyph glyph-name="otilde" unicode="&#xf5;" horiz-adv-x="374" 
d="M179 568l-51 40q47 80 97 80q27 0 56 -24q14 -13 25 -13q23 0 48 43l52 -40q-47 -80 -97 -80q-27 0 -56 24q-14 13 -25 13q-27 0 -49 -43zM156 -10q-70 0 -110.5 35t-40.5 97q0 26 5 49l44 201q31 148 164 148q70 0 110.5 -35t40.5 -97q0 -26 -5 -49l-44 -201
q-31 -148 -164 -148zM158 84q43 0 55 56l48 220q3 12 3 23q0 43 -48 43q-43 0 -55 -56l-48 -220q-3 -12 -3 -23q0 -43 48 -43z" />
    <glyph glyph-name="odieresis" unicode="&#xf6;" horiz-adv-x="374" 
d="M232 573h-95l24 116h95zM373 573h-95l24 116h95zM156 -10q-70 0 -110.5 35t-40.5 97q0 26 5 49l44 201q31 148 164 148q70 0 110.5 -35t40.5 -97q0 -26 -5 -49l-44 -201q-31 -148 -164 -148zM158 84q43 0 55 56l48 220q3 12 3 23q0 43 -48 43q-43 0 -55 -56l-48 -220
q-3 -12 -3 -23q0 -43 48 -43z" />
    <glyph glyph-name="divide" unicode="&#xf7;" 
d="M262 399h-106v106h106v-106zM382 261h-346v78h346v-78zM262 95h-106v106h106v-106z" />
    <glyph glyph-name="oslash" unicode="&#xf8;" horiz-adv-x="374" 
d="M347 542l45 -34l-38 -56q15 -27 15 -64q0 -26 -5 -49l-44 -201q-31 -148 -164 -148q-60 0 -97 25l-32 -47l-45 34l38 56q-15 27 -15 64q0 26 5 49l44 201q31 148 164 148q60 0 97 -25zM161 370l-33 -152l129 191q-11 17 -41 17q-43 0 -55 -56zM213 140l33 152l-129 -191
q11 -17 41 -17q43 0 55 56z" />
    <glyph glyph-name="ugrave" unicode="&#xf9;" horiz-adv-x="389" 
d="M275 698l41 -135h-78l-78 135h115zM221 155l75 355h108l-107 -510h-92l9 53q-40 -63 -106 -63q-49 0 -75.5 26t-26.5 76q0 30 7 57l77 361h108l-76 -355q-4 -15 -4 -31q0 -40 39 -40q49 0 64 71z" />
    <glyph glyph-name="uacute" unicode="&#xfa;" horiz-adv-x="389" 
d="M295 698h125l-136 -135h-88zM221 155l75 355h108l-107 -510h-92l9 53q-40 -63 -106 -63q-49 0 -75.5 26t-26.5 76q0 30 7 57l77 361h108l-76 -355q-4 -15 -4 -31q0 -40 39 -40q49 0 64 71z" />
    <glyph glyph-name="ucircumflex" unicode="&#xfb;" horiz-adv-x="389" 
d="M313 563l-34 75l-68 -75h-88l111 135h104l53 -135h-78zM221 155l75 355h108l-107 -510h-92l9 53q-40 -63 -106 -63q-49 0 -75.5 26t-26.5 76q0 30 7 57l77 361h108l-76 -355q-4 -15 -4 -31q0 -40 39 -40q49 0 64 71z" />
    <glyph glyph-name="udieresis" unicode="&#xfc;" horiz-adv-x="389" 
d="M167 689h95l-24 -116h-95zM308 689h95l-24 -116h-95zM221 155l75 355h108l-107 -510h-92l9 53q-40 -63 -106 -63q-49 0 -75.5 26t-26.5 76q0 30 7 57l77 361h108l-76 -355q-4 -15 -4 -31q0 -40 39 -40q49 0 64 71z" />
    <glyph glyph-name="yacute" unicode="&#xfd;" horiz-adv-x="366" 
d="M271 563h-88l99 135h125zM303 510h105l-243 -569q-25 -56 -57.5 -81t-80.5 -25q-53 0 -81 18l19 88q24 -12 51 -12q34 0 51 39l9 22l-11 520h106l-6 -350z" />
    <glyph glyph-name="thorn" unicode="&#xfe;" horiz-adv-x="387" 
d="M281 520q49 0 76.5 -27t27.5 -77q0 -21 -7 -56l-50 -236q-29 -134 -131 -134q-68 0 -95 54l-42 -199h-108l182 855h108l-46 -217q37 37 85 37zM223 140l47 221q3 14 3 26q0 39 -39 39q-43 0 -61 -51l-46 -217q-2 -12 -2 -21q0 -53 48 -53q38 0 50 56z" />
    <glyph glyph-name="ydieresis" unicode="&#xff;" horiz-adv-x="366" 
d="M225 573h-95l24 116h95zM366 573h-95l24 116h95zM303 510h105l-243 -569q-25 -56 -57.5 -81t-80.5 -25q-53 0 -81 18l19 88q24 -12 51 -12q34 0 51 39l9 22l-11 520h106l-6 -350z" />
    <glyph glyph-name="Amacron" unicode="&#x100;" horiz-adv-x="402" 
d="M196 772l16 78h230l-16 -78h-230zM63 0h-106l263 700h152l-35 -700h-112l10 137h-124zM266 573l-121 -341h96z" />
    <glyph glyph-name="amacron" unicode="&#x101;" horiz-adv-x="372" 
d="M138 592l16 78h230l-16 -78h-230zM216 520q143 0 143 -121q0 -33 -7 -62l-42 -203q-19 -88 -17 -134h-100q-3 6 3 49q-39 -59 -105 -59q-48 0 -76 29.5t-28 79.5q0 72 40 117t122 74q57 20 76 32q17 11 22 31v-1l3 15q3 13 3 24q0 38 -42 38q-41 0 -52 -54l-5 -24h-102
l7 29q33 140 157 140zM141 81q46 0 62 61l22 105q-9 -9 -60 -32q-66 -30 -66 -93q0 -41 42 -41z" />
    <glyph glyph-name="Abreve" unicode="&#x102;" horiz-adv-x="402" 
d="M386 870h64q-24 -119 -134 -119q-49 0 -75.5 24.5t-26.5 68.5q0 2 2 26h62v-8q0 -23 10 -31.5t31 -8.5q49 0 67 48zM63 0h-106l263 700h152l-35 -700h-112l10 137h-124zM266 573l-121 -341h96z" />
    <glyph glyph-name="abreve" unicode="&#x103;" horiz-adv-x="372" 
d="M258 571q-49 0 -75.5 24.5t-26.5 68.5q0 2 2 26h62v-8q0 -23 10 -31.5t31 -8.5q49 0 67 48h64q-24 -119 -134 -119zM216 520q143 0 143 -121q0 -33 -7 -62l-42 -203q-19 -88 -17 -134h-100q-3 6 3 49q-39 -59 -105 -59q-48 0 -76 29.5t-28 79.5q0 72 40 117t122 74
q57 20 76 32q17 11 22 31v-1l3 15q3 13 3 24q0 38 -42 38q-41 0 -52 -54l-5 -24h-102l7 29q33 140 157 140zM141 81q46 0 62 61l22 105q-9 -9 -60 -32q-66 -30 -66 -93q0 -41 42 -41z" />
    <glyph glyph-name="Aogonek" unicode="&#x104;" horiz-adv-x="402" 
d="M337 0h-34q-53 -38 -53 -74q0 -20 27 -20q20 0 37 7l-4 -59q-25 -9 -59 -9q-88 0 -88 60q0 59 78 95h-16l10 137h-124l-48 -137h-106l263 700h152zM266 573l-121 -341h96z" />
    <glyph glyph-name="aogonek" unicode="&#x105;" horiz-adv-x="372" 
d="M216 520q143 0 143 -121q0 -33 -7 -62l-42 -203q-19 -88 -17 -134h-38q-53 -37 -53 -74q0 -20 27 -20q13 0 37 7l-4 -59q-25 -9 -59 -9q-89 0 -89 57q0 61 79 98q-1 7 3 49q-39 -59 -105 -59q-48 0 -76 29.5t-28 79.5q0 72 40 117t122 74q57 20 76 32q17 11 22 31v-1
l3 15q3 13 3 24q0 38 -42 38q-41 0 -52 -54l-5 -24h-102l7 29q33 140 157 140zM141 81q46 0 62 61l22 105q-9 -9 -60 -32q-66 -30 -66 -93q0 -41 42 -41z" />
    <glyph glyph-name="Cacute" unicode="&#x106;" horiz-adv-x="381" 
d="M323 743h-88l99 135h125zM166 -10q-77 0 -117.5 35t-40.5 101q0 24 6 52l81 378q16 75 60 114.5t112 39.5q76 0 116 -35t40 -100q0 -26 -6 -53l-12 -58h-106l16 76q3 12 3 23q0 47 -53 47q-45 0 -59 -59l-84 -391q-3 -12 -3 -22q0 -48 53 -48q50 0 61 57l22 109h105
l-23 -112q-31 -154 -171 -154z" />
    <glyph glyph-name="cacute" unicode="&#x107;" horiz-adv-x="362" 
d="M275 563h-88l99 135h125zM154 -10q-71 0 -110.5 33t-39.5 95q0 23 6 50l44 206q15 70 57 108t106 38q69 0 108 -32.5t39 -94.5q0 -24 -6 -51l-3 -17h-104l8 38q3 13 3 23q0 40 -46 40q-43 0 -54 -53l-48 -226q-3 -13 -3 -24q0 -39 45 -39q43 0 54 53l6 28h104l-6 -29
q-15 -70 -56 -108t-104 -38z" />
    <glyph glyph-name="Ccircumflex" unicode="&#x108;" horiz-adv-x="381" 
d="M250 743h-88l111 135h104l53 -135h-78l-34 75zM166 -10q-77 0 -117.5 35t-40.5 101q0 24 6 52l81 378q16 75 60 114.5t112 39.5q76 0 116 -35t40 -100q0 -26 -6 -53l-12 -58h-106l16 76q3 12 3 23q0 47 -53 47q-45 0 -59 -59l-84 -391q-3 -12 -3 -22q0 -48 53 -48
q50 0 61 57l22 109h105l-23 -112q-31 -154 -171 -154z" />
    <glyph glyph-name="ccircumflex" unicode="&#x109;" horiz-adv-x="362" 
d="M202 563h-88l111 135h104l53 -135h-78l-34 75zM154 -10q-71 0 -110.5 33t-39.5 95q0 23 6 50l44 206q15 70 57 108t106 38q69 0 108 -32.5t39 -94.5q0 -24 -6 -51l-3 -17h-104l8 38q3 13 3 23q0 40 -46 40q-43 0 -54 -53l-48 -226q-3 -13 -3 -24q0 -39 45 -39q43 0 54 53
l6 28h104l-6 -29q-15 -70 -56 -108t-104 -38z" />
    <glyph glyph-name="Cdotaccent" unicode="&#x10a;" horiz-adv-x="381" 
d="M353 753h-106l24 116h106zM166 -10q-77 0 -117.5 35t-40.5 101q0 24 6 52l81 378q16 75 60 114.5t112 39.5q76 0 116 -35t40 -100q0 -26 -6 -53l-12 -58h-106l16 76q3 12 3 23q0 47 -53 47q-45 0 -59 -59l-84 -391q-3 -12 -3 -22q0 -48 53 -48q50 0 61 57l22 109h105
l-23 -112q-31 -154 -171 -154z" />
    <glyph glyph-name="cdotaccent" unicode="&#x10b;" horiz-adv-x="362" 
d="M305 573h-106l24 116h106zM154 -10q-71 0 -110.5 33t-39.5 95q0 23 6 50l44 206q15 70 57 108t106 38q69 0 108 -32.5t39 -94.5q0 -24 -6 -51l-3 -17h-104l8 38q3 13 3 23q0 40 -46 40q-43 0 -54 -53l-48 -226q-3 -13 -3 -24q0 -39 45 -39q43 0 54 53l6 28h104l-6 -29
q-15 -70 -56 -108t-104 -38z" />
    <glyph glyph-name="Ccaron" unicode="&#x10c;" horiz-adv-x="381" 
d="M351 743h-104l-53 135h78l33 -75l69 75h88zM166 -10q-77 0 -117.5 35t-40.5 101q0 24 6 52l81 378q16 75 60 114.5t112 39.5q76 0 116 -35t40 -100q0 -26 -6 -53l-12 -58h-106l16 76q3 12 3 23q0 47 -53 47q-45 0 -59 -59l-84 -391q-3 -12 -3 -22q0 -48 53 -48
q50 0 61 57l22 109h105l-23 -112q-31 -154 -171 -154z" />
    <glyph glyph-name="ccaron" unicode="&#x10d;" horiz-adv-x="362" 
d="M303 563h-104l-53 135h78l33 -75l69 75h88zM154 -10q-71 0 -110.5 33t-39.5 95q0 23 6 50l44 206q15 70 57 108t106 38q69 0 108 -32.5t39 -94.5q0 -24 -6 -51l-3 -17h-104l8 38q3 13 3 23q0 40 -46 40q-43 0 -54 -53l-48 -226q-3 -13 -3 -24q0 -39 45 -39q43 0 54 53
l6 28h104l-6 -29q-15 -70 -56 -108t-104 -38z" />
    <glyph glyph-name="Dcaron" unicode="&#x10e;" horiz-adv-x="409" 
d="M351 743h-104l-53 135h78l33 -75l69 75h88zM167 0h-180l149 700h162q69 0 105 -32.5t36 -92.5q0 -23 -6 -52l-75 -354q-18 -87 -64 -128t-127 -41zM227 600l-106 -500h49q58 0 75 72l78 364q3 16 3 27q0 37 -42 37h-57z" />
    <glyph glyph-name="dcaron" unicode="&#x10f;" horiz-adv-x="468" 
d="M336 700h108l-120 -566q-19 -88 -17 -134h-100q-4 7 3 52q-39 -62 -105 -62q-49 0 -76.5 27t-27.5 77q0 21 7 56l50 236q29 134 131 134q71 0 96 -57zM449 598l22 102h102l-19 -91l-70 -115h-47l51 104h-39zM152 84q52 0 67 72l39 182q4 17 4 35q0 53 -49 53
q-38 0 -50 -56l-47 -221q-3 -13 -3 -26q0 -39 39 -39z" />
    <glyph glyph-name="Dcroat" unicode="&#x110;" horiz-adv-x="427" 
d="M154 700h162q69 0 105 -32.5t36 -92.5q0 -23 -6 -52l-75 -354q-18 -87 -64 -128t-127 -41h-180l68 318h-48l20 94h48zM263 172l78 364q3 16 3 27q0 37 -42 37h-57l-40 -188h54l-20 -94h-54l-46 -218h49q58 0 75 72z" />
    <glyph glyph-name="dslash" unicode="&#x111;" horiz-adv-x="387" 
d="M431 639h40l-20 -76h-36l-91 -429q-19 -88 -17 -134h-100q-4 7 3 52q-39 -62 -105 -62q-49 0 -76.5 27t-27.5 77q0 21 7 56l50 236q29 134 131 134q71 0 96 -57l22 100h-70l20 76h66l13 61h108zM152 84q52 0 67 72l39 182q4 17 4 35q0 53 -49 53q-38 0 -50 -56l-47 -221
q-3 -13 -3 -26q0 -39 39 -39z" />
    <glyph glyph-name="Emacron" unicode="&#x112;" horiz-adv-x="359" 
d="M416 772h-230l16 78h230zM287 0h-300l149 700h300l-22 -100h-187l-39 -185h148l-21 -100h-148l-46 -215h187z" />
    <glyph glyph-name="emacron" unicode="&#x113;" horiz-adv-x="374" 
d="M144 592l16 78h230l-16 -78h-230zM218 520q72 0 112.5 -34.5t40.5 -97.5q0 -23 -6 -50l-22 -106h-211l-17 -79q-3 -15 -3 -26q0 -43 52 -43q43 0 56 58l5 23h103l-5 -24q-15 -73 -57.5 -112t-107.5 -39q-74 0 -113.5 34.5t-39.5 97.5q0 24 6 52l42 197q15 72 57.5 110.5
t107.5 38.5zM161 369l-11 -53h104l9 43q3 13 3 23q0 44 -49 44q-43 0 -56 -57z" />
    <glyph glyph-name="Ebreve" unicode="&#x114;" horiz-adv-x="359" 
d="M306 751q-49 0 -75.5 24.5t-26.5 68.5q0 2 2 26h62v-8q0 -23 10 -31.5t31 -8.5q49 0 67 48h64q-24 -119 -134 -119zM287 0h-300l149 700h300l-22 -100h-187l-39 -185h148l-21 -100h-148l-46 -215h187z" />
    <glyph glyph-name="ebreve" unicode="&#x115;" horiz-adv-x="374" 
d="M264 571q-49 0 -75.5 24.5t-26.5 68.5q0 2 2 26h62v-8q0 -23 10 -31.5t31 -8.5q49 0 67 48h64q-24 -119 -134 -119zM218 520q72 0 112.5 -34.5t40.5 -97.5q0 -23 -6 -50l-22 -106h-211l-17 -79q-3 -15 -3 -26q0 -43 52 -43q43 0 56 58l5 23h103l-5 -24
q-15 -73 -57.5 -112t-107.5 -39q-74 0 -113.5 34.5t-39.5 97.5q0 24 6 52l42 197q15 72 57.5 110.5t107.5 38.5zM161 369l-11 -53h104l9 43q3 13 3 23q0 44 -49 44q-43 0 -56 -57z" />
    <glyph glyph-name="Edotaccent" unicode="&#x116;" horiz-adv-x="359" 
d="M350 753h-106l24 116h106zM287 0h-300l149 700h300l-22 -100h-187l-39 -185h148l-21 -100h-148l-46 -215h187z" />
    <glyph glyph-name="edotaccent" unicode="&#x117;" horiz-adv-x="374" 
d="M226 689h106l-24 -116h-106zM218 520q72 0 112.5 -34.5t40.5 -97.5q0 -23 -6 -50l-22 -106h-211l-17 -79q-3 -15 -3 -26q0 -43 52 -43q43 0 56 58l5 23h103l-5 -24q-15 -73 -57.5 -112t-107.5 -39q-74 0 -113.5 34.5t-39.5 97.5q0 24 6 52l42 197q15 72 57.5 110.5
t107.5 38.5zM161 369l-11 -53h104l9 43q3 13 3 23q0 44 -49 44q-43 0 -56 -57z" />
    <glyph glyph-name="Eogonek" unicode="&#x118;" horiz-adv-x="359" 
d="M436 700l-22 -100h-187l-39 -185h148l-21 -100h-148l-46 -215h187l-21 -100h-34q-53 -35 -53 -73q0 -21 27 -21q13 0 37 7l-4 -59q-26 -9 -59 -9q-89 0 -89 60t79 95h-204l149 700h300z" />
    <glyph glyph-name="eogonek" unicode="&#x119;" horiz-adv-x="374" 
d="M218 520q72 0 112.5 -34.5t40.5 -97.5q0 -23 -6 -50l-22 -106h-211l-17 -79q-3 -15 -3 -26q0 -43 52 -43q43 0 56 58l5 23h103l-5 -24q-19 -93 -84 -131q-51 -44 -51 -84q0 -20 27 -20q13 0 37 7l-4 -59q-26 -9 -59 -9q-89 0 -89 57q0 53 60 88h-2q-74 0 -113.5 34.5
t-39.5 97.5q0 24 6 52l42 197q15 72 57.5 110.5t107.5 38.5zM161 369l-11 -53h104l9 43q3 13 3 23q0 44 -49 44q-43 0 -56 -57z" />
    <glyph glyph-name="Ecaron" unicode="&#x11a;" horiz-adv-x="359" 
d="M348 743h-104l-53 135h78l33 -75l69 75h88zM287 0h-300l149 700h300l-22 -100h-187l-39 -185h148l-21 -100h-148l-46 -215h187z" />
    <glyph glyph-name="ecaron" unicode="&#x11b;" horiz-adv-x="374" 
d="M417 698l-111 -135h-104l-53 135h78l33 -75l69 75h88zM218 520q72 0 112.5 -34.5t40.5 -97.5q0 -23 -6 -50l-22 -106h-211l-17 -79q-3 -15 -3 -26q0 -43 52 -43q43 0 56 58l5 23h103l-5 -24q-15 -73 -57.5 -112t-107.5 -39q-74 0 -113.5 34.5t-39.5 97.5q0 24 6 52
l42 197q15 72 57.5 110.5t107.5 38.5zM161 369l-11 -53h104l9 43q3 13 3 23q0 44 -49 44q-43 0 -56 -57z" />
    <glyph glyph-name="Gcircumflex" unicode="&#x11c;" horiz-adv-x="392" 
d="M252 743h-88l111 135h104l53 -135h-78l-34 75zM169 -10q-76 0 -118.5 35t-42.5 102q0 26 6 56l79 370q34 157 173 157q78 0 118.5 -35.5t40.5 -101.5q0 -25 -6 -54l-9 -45h-106l13 63q3 13 3 25q0 49 -53 49q-48 0 -62 -62l-83 -386q-3 -13 -3 -25q0 -48 53 -48
q50 0 63 61l31 144h-56l21 100h162l-53 -247q-33 -158 -171 -158z" />
    <glyph glyph-name="gcircumflex" unicode="&#x11d;" horiz-adv-x="385" 
d="M303 563l-34 75l-68 -75h-88l111 135h104l53 -135h-78zM291 440l17 70h92l-113 -535q-15 -71 -54 -105.5t-110 -34.5q-74 0 -112.5 30t-38.5 86q0 2 2 24h102q-1 -3 -1 -13q0 -40 47 -40q44 0 58 57l17 82q-35 -38 -86 -38q-49 0 -76.5 27t-27.5 77q0 21 7 56l43 203
q29 134 131 134q41 0 68 -21t35 -59zM158 113q46 0 64 65l34 160q4 15 4 33q0 55 -48 55q-38 0 -50 -58l-41 -190q-3 -14 -3 -26q0 -39 40 -39z" />
    <glyph glyph-name="Gbreve" unicode="&#x11e;" horiz-adv-x="392" 
d="M311 751q-49 0 -75.5 24.5t-26.5 68.5q0 2 2 26h62v-8q0 -23 10 -31.5t31 -8.5q49 0 67 48h64q-24 -119 -134 -119zM169 -10q-76 0 -118.5 35t-42.5 102q0 26 6 56l79 370q34 157 173 157q78 0 118.5 -35.5t40.5 -101.5q0 -25 -6 -54l-9 -45h-106l13 63q3 13 3 25
q0 49 -53 49q-48 0 -62 -62l-83 -386q-3 -13 -3 -25q0 -48 53 -48q50 0 63 61l31 144h-56l21 100h162l-53 -247q-33 -158 -171 -158z" />
    <glyph glyph-name="gbreve" unicode="&#x11f;" horiz-adv-x="385" 
d="M260 571q-49 0 -75.5 24.5t-26.5 68.5q0 2 2 26h62v-8q0 -23 10 -31.5t31 -8.5q49 0 67 48h64q-24 -119 -134 -119zM291 440l17 70h92l-113 -535q-15 -71 -54 -105.5t-110 -34.5q-74 0 -112.5 30t-38.5 86q0 2 2 24h102q-1 -3 -1 -13q0 -40 47 -40q44 0 58 57l17 82
q-35 -38 -86 -38q-49 0 -76.5 27t-27.5 77q0 21 7 56l43 203q29 134 131 134q41 0 68 -21t35 -59zM158 113q46 0 64 65l34 160q4 15 4 33q0 55 -48 55q-38 0 -50 -58l-41 -190q-3 -14 -3 -26q0 -39 40 -39z" />
    <glyph glyph-name="Gdotaccent" unicode="&#x120;" horiz-adv-x="392" 
d="M355 753h-106l24 116h106zM169 -10q-76 0 -118.5 35t-42.5 102q0 26 6 56l79 370q34 157 173 157q78 0 118.5 -35.5t40.5 -101.5q0 -25 -6 -54l-9 -45h-106l13 63q3 13 3 25q0 49 -53 49q-48 0 -62 -62l-83 -386q-3 -13 -3 -25q0 -48 53 -48q50 0 63 61l31 144h-56
l21 100h162l-53 -247q-33 -158 -171 -158z" />
    <glyph glyph-name="gdotaccent" unicode="&#x121;" horiz-adv-x="385" 
d="M222 689h106l-24 -116h-106zM291 440l17 70h92l-113 -535q-15 -71 -54 -105.5t-110 -34.5q-74 0 -112.5 30t-38.5 86q0 2 2 24h102q-1 -3 -1 -13q0 -40 47 -40q44 0 58 57l17 82q-35 -38 -86 -38q-49 0 -76.5 27t-27.5 77q0 21 7 56l43 203q29 134 131 134q41 0 68 -21
t35 -59zM158 113q46 0 64 65l34 160q4 15 4 33q0 55 -48 55q-38 0 -50 -58l-41 -190q-3 -14 -3 -26q0 -39 40 -39z" />
    <glyph glyph-name="uni0122" unicode="&#x122;" horiz-adv-x="392" 
d="M169 -10q-76 0 -118.5 35t-42.5 102q0 26 6 56l79 370q34 157 173 157q78 0 118.5 -35.5t40.5 -101.5q0 -25 -6 -54l-9 -45h-106l13 63q3 13 3 25q0 49 -53 49q-48 0 -62 -62l-83 -386q-3 -13 -3 -25q0 -48 53 -48q50 0 63 61l31 144h-56l21 100h162l-53 -247
q-33 -158 -171 -158zM100 -189h-42l52 54h-49l20 92h106l-16 -82z" />
    <glyph glyph-name="uni0123" unicode="&#x123;" horiz-adv-x="385" 
d="M275 665h48l-19 -92h-106l16 82l63 64h42zM291 440l17 70h92l-113 -535q-15 -71 -54 -105.5t-110 -34.5q-74 0 -112.5 30t-38.5 86q0 2 2 24h102q-1 -3 -1 -13q0 -40 47 -40q44 0 58 57l17 82q-35 -38 -86 -38q-49 0 -76.5 27t-27.5 77q0 21 7 56l43 203q29 134 131 134
q41 0 68 -21t35 -59zM158 113q46 0 64 65l34 160q4 15 4 33q0 55 -48 55q-38 0 -50 -58l-41 -190q-3 -14 -3 -26q0 -39 40 -39z" />
    <glyph glyph-name="Hcircumflex" unicode="&#x124;" horiz-adv-x="422" 
d="M266 743h-88l111 135h104l53 -135h-78l-34 75zM99 0h-112l149 700h112l-61 -285h116l61 285h112l-149 -700h-112l67 315h-116z" />
    <glyph glyph-name="hcircumflex" unicode="&#x125;" horiz-adv-x="389" 
d="M252 743l-34 75l-68 -75h-88l111 135h104l53 -135h-78zM281 520q49 0 75.5 -26t26.5 -76q0 -30 -7 -57l-77 -361h-108l76 355q4 15 4 31q0 40 -39 40q-48 0 -63 -67l-76 -359h-106l148 700h106l-46 -218q36 38 86 38z" />
    <glyph glyph-name="Hbar" unicode="&#x126;" horiz-adv-x="442" 
d="M466 603h38l-19 -90h-38l-109 -513h-112l67 315h-116l-67 -315h-112l109 513h-40l19 90h40l21 97h112l-21 -97h116l21 97h112zM198 415h116l21 98h-116z" />
    <glyph glyph-name="hbar" unicode="&#x127;" horiz-adv-x="389" 
d="M281 520q49 0 75.5 -26t26.5 -76q0 -30 -7 -57l-77 -361h-108l76 355q4 15 4 31q0 40 -39 40q-48 0 -63 -67l-76 -359h-106l119 563h-42l20 76h38l13 61h106l-13 -61h70l-20 -76h-66l-17 -81q36 38 86 38z" />
    <glyph glyph-name="Itilde" unicode="&#x128;" horiz-adv-x="194" 
d="M126 748l-51 40q47 80 97 80q28 0 56 -24q14 -13 25 -13q23 0 48 43l52 -40q-47 -80 -97 -80q-28 0 -56 24q-14 13 -25 13q-27 0 -49 -43zM99 0h-112l149 700h112z" />
    <glyph glyph-name="itilde" unicode="&#x129;" horiz-adv-x="190" 
d="M87 568l-51 40q47 80 97 80q28 0 56 -24q14 -13 25 -13q23 0 48 43l52 -40q-47 -80 -97 -80q-27 0 -56 24q-14 13 -25 13q-27 0 -49 -43zM95 0h-108l108 510h108z" />
    <glyph glyph-name="Imacron" unicode="&#x12a;" horiz-adv-x="194" 
d="M321 772h-230l16 78h230zM99 0h-112l149 700h112z" />
    <glyph glyph-name="imacron" unicode="&#x12b;" horiz-adv-x="190" 
d="M282 592h-230l16 78h230zM95 0h-108l108 510h108z" />
    <glyph glyph-name="Ibreve" unicode="&#x12c;" horiz-adv-x="194" 
d="M211 751q-49 0 -75.5 24.5t-26.5 68.5q0 2 2 26h62v-8q0 -23 10 -31.5t31 -8.5q49 0 67 48h64q-24 -119 -134 -119zM99 0h-112l149 700h112z" />
    <glyph glyph-name="ibreve" unicode="&#x12d;" horiz-adv-x="190" 
d="M172 571q-49 0 -75.5 24.5t-26.5 68.5q0 2 2 26h62v-8q0 -23 10 -31.5t31 -8.5q49 0 67 48h64q-24 -119 -134 -119zM95 0h-108l108 510h108z" />
    <glyph glyph-name="Iogonek" unicode="&#x12e;" horiz-adv-x="194" 
d="M99 0h-24q-19 -15 -31 -36t-12 -38q0 -20 27 -20q13 0 37 7l-4 -59q-26 -9 -59 -9q-89 0 -89 57q0 60 71 98h-28l149 700h112z" />
    <glyph glyph-name="iogonek" unicode="&#x12f;" horiz-adv-x="190" 
d="M110 573l24 116h106l-24 -116h-106zM14 0h-27l108 510h108l-108 -510h-21q-19 -15 -31 -36t-12 -38q0 -20 27 -20q13 0 37 7l-4 -59q-25 -9 -59 -9q-89 0 -89 57q0 60 71 98z" />
    <glyph glyph-name="Idot" unicode="&#x130;" horiz-adv-x="194" 
d="M255 753h-106l24 116h106zM99 0h-112l149 700h112z" />
    <glyph glyph-name="dotlessi" unicode="&#x131;" horiz-adv-x="190" 
d="M95 0h-108l108 510h108z" />
    <glyph glyph-name="IJ" unicode="&#x132;" horiz-adv-x="455" 
d="M99 0h-112l149 700h112zM229 -4q-51 0 -78 12l21 98q27 -9 46 -9q54 0 68 60l115 543h113l-118 -551q-33 -153 -167 -153z" />
    <glyph glyph-name="ij" unicode="&#x133;" horiz-adv-x="379" 
d="M216 573h-106l24 116h106zM405 573h-106l24 116h106zM95 0h-108l108 510h108zM87 -149l18 86q14 -8 32 -8q23 0 29 26l119 555h108l-123 -576q-21 -99 -111 -99q-47 0 -72 16z" />
    <glyph glyph-name="Jcircumflex" unicode="&#x134;" horiz-adv-x="261" 
d="M218 743h-88l111 135h104l53 -135h-78l-34 75zM35 -4q-51 0 -78 12l21 98q27 -9 46 -9q54 0 68 60l115 543h113l-118 -551q-33 -153 -167 -153z" />
    <glyph glyph-name="jcircumflex" unicode="&#x135;" horiz-adv-x="189" 
d="M112 563h-88l111 135h104l53 -135h-78l-34 75zM-103 -149l18 86q14 -8 32 -8q23 0 29 26l119 555h108l-123 -576q-21 -99 -111 -99q-47 0 -72 16z" />
    <glyph glyph-name="uni0136" unicode="&#x136;" horiz-adv-x="414" 
d="M377 700h120l-189 -263l40 -437h-111l-27 301l-67 -93l-44 -208h-112l149 700h112l-61 -287zM130 -135h-49l20 92h106l-16 -82l-71 -64h-42z" />
    <glyph glyph-name="uni0137" unicode="&#x137;" horiz-adv-x="394" 
d="M309 510h125l-161 -195l56 -315h-108l-36 209l-61 -75l-29 -134h-108l149 700h108l-83 -388zM121 -135h-49l20 92h106l-16 -82l-71 -64h-42z" />
    <glyph glyph-name="kgreenlandic" unicode="&#x138;" horiz-adv-x="394" 
d="M309 510h125l-161 -195l56 -315h-108l-36 209l-61 -74l-29 -135h-108l109 510h108l-42 -198z" />
    <glyph glyph-name="Lacute" unicode="&#x139;" horiz-adv-x="344" 
d="M235 743h-88l99 135h125zM278 0h-291l149 700h112l-128 -600h179z" />
    <glyph glyph-name="lacute" unicode="&#x13a;" horiz-adv-x="190" 
d="M224 743h-88l99 135h125zM95 0h-108l149 700h108z" />
    <glyph glyph-name="uni013B" unicode="&#x13b;" horiz-adv-x="344" 
d="M278 0h-291l149 700h112l-128 -600h179zM90 -189h-42l52 54h-49l20 92h106l-16 -82z" />
    <glyph glyph-name="uni013C" unicode="&#x13c;" horiz-adv-x="190" 
d="M95 0h-108l149 700h108zM-2 -189h-42l52 54h-49l20 92h106l-16 -82z" />
    <glyph glyph-name="Lcaron" unicode="&#x13d;" horiz-adv-x="344" 
d="M278 0h-291l149 700h112l-128 -600h179zM317 494h-47l51 104h-39l22 102h102l-19 -91z" />
    <glyph glyph-name="lcaron" unicode="&#x13e;" horiz-adv-x="269" 
d="M95 0h-108l149 700h108zM285 494h-47l51 104h-39l22 102h102l-19 -91z" />
    <glyph glyph-name="Ldot" unicode="&#x13f;" horiz-adv-x="344" 
d="M278 0h-291l149 700h112l-128 -600h179zM337 337h-106l23 106h106z" />
    <glyph glyph-name="ldot" unicode="&#x140;" horiz-adv-x="300" 
d="M95 0h-108l149 700h108zM299 295h-110l23 110h110z" />
    <glyph glyph-name="Lslash" unicode="&#x141;" horiz-adv-x="368" 
d="M351 525l-27 -130l-144 -125l-36 -170h179l-21 -100h-291l32 150l-63 -55l28 130l63 55l89 420h112l-64 -300z" />
    <glyph glyph-name="lslash" unicode="&#x142;" horiz-adv-x="223" 
d="M207 469l58 51l-25 -120l-59 -51l-74 -349h-108l50 234l-46 -40l26 120l45 39l74 347h108z" />
    <glyph glyph-name="Nacute" unicode="&#x143;" horiz-adv-x="427" 
d="M343 743h-88l99 135h125zM87 0h-100l149 700h133l22 -419l90 419h100l-149 -700h-108l-28 511z" />
    <glyph glyph-name="nacute" unicode="&#x144;" horiz-adv-x="389" 
d="M297 698h125l-136 -135h-88zM281 520q49 0 75.5 -26t26.5 -76q0 -30 -7 -57l-77 -361h-108l76 355q4 15 4 31q0 40 -39 40q-49 0 -64 -71l-75 -355h-108l107 510h92l-9 -53q41 63 106 63z" />
    <glyph glyph-name="uni0145" unicode="&#x145;" horiz-adv-x="427" 
d="M87 0h-100l149 700h133l22 -419l90 419h100l-149 -700h-108l-28 511zM117 -189h-42l52 54h-49l20 92h106l-16 -82z" />
    <glyph glyph-name="uni0146" unicode="&#x146;" horiz-adv-x="389" 
d="M281 520q49 0 75.5 -26t26.5 -76q0 -30 -7 -57l-77 -361h-108l76 355q4 15 4 31q0 40 -39 40q-49 0 -64 -71l-75 -355h-108l107 510h92l-9 -53q41 63 106 63zM108 -135h-49l20 92h106l-16 -82l-71 -64h-42z" />
    <glyph glyph-name="Ncaron" unicode="&#x147;" horiz-adv-x="427" 
d="M371 743h-104l-53 135h78l33 -75l69 75h88zM87 0h-100l149 700h133l22 -419l90 419h100l-149 -700h-108l-28 511z" />
    <glyph glyph-name="ncaron" unicode="&#x148;" horiz-adv-x="389" 
d="M425 698l-111 -135h-104l-53 135h78l33 -75l69 75h88zM281 520q49 0 75.5 -26t26.5 -76q0 -30 -7 -57l-77 -361h-108l76 355q4 15 4 31q0 40 -39 40q-49 0 -64 -71l-75 -355h-108l107 510h92l-9 -53q41 63 106 63z" />
    <glyph glyph-name="napostrophe" unicode="&#x149;" horiz-adv-x="389" 
d="M129 605l-72 -111h-47l50 100h-41l23 106h106zM281 520q49 0 75.5 -26t26.5 -76q0 -30 -7 -57l-77 -361h-108l76 355q4 15 4 31q0 40 -39 40q-49 0 -64 -71l-75 -355h-108l107 510h92l-9 -53q41 63 106 63z" />
    <glyph glyph-name="Eng" unicode="&#x14a;" horiz-adv-x="427" 
d="M164 -165q-47 0 -80 11l19 88q23 -9 48 -9q53 0 66 61q11 53 13 72l-1 28l-30 437l-112 -523h-100l149 700h133l25 -403l87 403h100l-152 -713q-33 -152 -165 -152z" />
    <glyph glyph-name="eng" unicode="&#x14b;" horiz-adv-x="391" 
d="M281 520q49 0 75.5 -26t26.5 -76q0 -30 -7 -57l-89 -417q-22 -109 -126 -109q-47 0 -80 16l19 88q24 -10 44 -10q17 0 26 9t14 31l83 386q4 15 4 31q0 40 -39 40q-49 0 -64 -71l-75 -355h-108l107 510h92l-9 -53q41 63 106 63z" />
    <glyph glyph-name="Omacron" unicode="&#x14c;" 
d="M425 772h-230l16 78h230zM170 -10q-76 0 -119 36.5t-43 104.5q0 24 6 51l79 370q16 77 61.5 117.5t114.5 40.5q76 0 119 -36.5t43 -104.5q0 -25 -6 -52l-79 -370q-34 -157 -176 -157zM176 90q45 0 59 62l81 383q3 13 3 25q0 50 -55 50q-46 0 -60 -63l-81 -383
q-3 -14 -3 -24q0 -50 56 -50z" />
    <glyph glyph-name="omacron" unicode="&#x14d;" horiz-adv-x="374" 
d="M374 592h-230l16 78h230zM156 -10q-70 0 -110.5 35t-40.5 97q0 26 5 49l44 201q31 148 164 148q70 0 110.5 -35t40.5 -97q0 -26 -5 -49l-44 -201q-31 -148 -164 -148zM158 84q43 0 55 56l48 220q3 12 3 23q0 43 -48 43q-43 0 -55 -56l-48 -220q-3 -12 -3 -23
q0 -43 48 -43z" />
    <glyph glyph-name="Obreve" unicode="&#x14e;" 
d="M315 751q-49 0 -75.5 24.5t-26.5 68.5q0 2 2 26h62v-8q0 -23 10 -31.5t31 -8.5q49 0 67 48h64q-24 -119 -134 -119zM170 -10q-76 0 -119 36.5t-43 104.5q0 24 6 51l79 370q16 77 61.5 117.5t114.5 40.5q76 0 119 -36.5t43 -104.5q0 -25 -6 -52l-79 -370
q-34 -157 -176 -157zM176 90q45 0 59 62l81 383q3 13 3 25q0 50 -55 50q-46 0 -60 -63l-81 -383q-3 -14 -3 -24q0 -50 56 -50z" />
    <glyph glyph-name="obreve" unicode="&#x14f;" horiz-adv-x="374" 
d="M264 571q-49 0 -75.5 24.5t-26.5 68.5q0 2 2 26h62v-8q0 -23 10 -31.5t31 -8.5q49 0 67 48h64q-24 -119 -134 -119zM156 -10q-70 0 -110.5 35t-40.5 97q0 26 5 49l44 201q31 148 164 148q70 0 110.5 -35t40.5 -97q0 -26 -5 -49l-44 -201q-31 -148 -164 -148zM158 84
q43 0 55 56l48 220q3 12 3 23q0 43 -48 43q-43 0 -55 -56l-48 -220q-3 -12 -3 -23q0 -43 48 -43z" />
    <glyph glyph-name="Ohungarumlaut" unicode="&#x150;" 
d="M251 743h-79l99 135h116zM400 743h-79l99 135h116zM170 -10q-76 0 -119 36.5t-43 104.5q0 24 6 51l79 370q16 77 61.5 117.5t114.5 40.5q76 0 119 -36.5t43 -104.5q0 -25 -6 -52l-79 -370q-34 -157 -176 -157zM176 90q45 0 59 62l81 383q3 13 3 25q0 50 -55 50
q-46 0 -60 -63l-81 -383q-3 -14 -3 -24q0 -50 56 -50z" />
    <glyph glyph-name="ohungarumlaut" unicode="&#x151;" horiz-adv-x="374" 
d="M200 563h-79l99 135h116zM349 563h-79l99 135h116zM156 -10q-70 0 -110.5 35t-40.5 97q0 26 5 49l44 201q31 148 164 148q70 0 110.5 -35t40.5 -97q0 -26 -5 -49l-44 -201q-31 -148 -164 -148zM158 84q43 0 55 56l48 220q3 12 3 23q0 43 -48 43q-43 0 -55 -56l-48 -220
q-3 -12 -3 -23q0 -43 48 -43z" />
    <glyph glyph-name="OE" unicode="&#x152;" horiz-adv-x="573" 
d="M501 0h-354q-66 0 -101 31.5t-35 91.5q0 25 6 54l75 354q18 86 65.5 127.5t130.5 41.5h362l-22 -100h-188l-39 -185h149l-21 -100h-149l-46 -215h188zM165 100h57l106 500h-49q-59 0 -75 -72l-77 -364q-4 -20 -4 -28q0 -36 42 -36z" />
    <glyph glyph-name="oe" unicode="&#x153;" horiz-adv-x="582" 
d="M581 392q0 -26 -6 -54l-22 -106h-211l-17 -79q-3 -15 -3 -26q0 -43 52 -43q43 0 56 58l5 23h103l-5 -24q-31 -151 -160 -151q-90 0 -119 53q-33 -53 -103 -53q-69 0 -108 33.5t-39 95.5q0 23 6 52l44 201q31 148 159 148q86 0 115 -53q36 53 105 53q70 0 109 -33t39 -95z
M213 140l48 220q3 12 3 23q0 43 -48 43q-43 0 -55 -56l-48 -220q-3 -12 -3 -23q0 -43 48 -43q43 0 55 56zM371 369l-11 -53h104l9 43q3 13 3 23q0 44 -49 44q-43 0 -56 -57z" />
    <glyph glyph-name="Racute" unicode="&#x154;" horiz-adv-x="405" 
d="M320 743h-88l99 135h125zM99 0h-112l149 700h161q66 0 100.5 -30.5t34.5 -89.5q0 -24 -6 -54l-7 -34q-13 -64 -37.5 -97.5t-66.5 -44.5v-1q51 -17 51 -87q0 -31 -7 -58l-26 -123q-10 -47 -10 -63q0 -2 2 -18h-109q-2 24 -2 26q0 22 9 64l27 128q6 26 6 42
q0 23 -11.5 31.5t-41.5 8.5h-40zM227 600l-43 -200h33q68 0 86 78l12 54q4 15 4 32q0 36 -42 36h-50z" />
    <glyph glyph-name="racute" unicode="&#x155;" horiz-adv-x="274" 
d="M248 698h125l-136 -135h-88zM184 510l-13 -81q37 91 108 91q28 0 41 -10l-21 -101q-18 7 -38 7q-79 0 -103 -110v1l-65 -307h-108l107 510h92z" />
    <glyph glyph-name="uni0156" unicode="&#x156;" horiz-adv-x="405" 
d="M99 0h-112l149 700h161q66 0 100.5 -30.5t34.5 -89.5q0 -24 -6 -54l-7 -34q-13 -64 -37.5 -97.5t-66.5 -44.5v-1q51 -17 51 -87q0 -31 -7 -58l-26 -123q-10 -47 -10 -63q0 -2 2 -18h-109q-2 24 -2 26q0 22 9 64l27 128q6 26 6 42q0 23 -11.5 31.5t-41.5 8.5h-40zM227 600
l-43 -200h33q68 0 86 78l12 54q4 15 4 32q0 36 -42 36h-50zM110 -189h-42l52 54h-49l20 92h106l-16 -82z" />
    <glyph glyph-name="uni0157" unicode="&#x157;" horiz-adv-x="274" 
d="M279 520q28 0 41 -10l-21 -101q-18 7 -38 7q-79 0 -103 -110v1l-65 -307h-108l107 510h92l-13 -81q37 91 108 91zM7 -135h-49l20 92h106l-16 -82l-71 -64h-42z" />
    <glyph glyph-name="Rcaron" unicode="&#x158;" horiz-adv-x="405" 
d="M348 743h-104l-53 135h78l33 -75l69 75h88zM99 0h-112l149 700h161q66 0 100.5 -30.5t34.5 -89.5q0 -24 -6 -54l-7 -34q-13 -64 -37.5 -97.5t-66.5 -44.5v-1q51 -17 51 -87q0 -31 -7 -58l-26 -123q-10 -47 -10 -63q0 -2 2 -18h-109q-2 24 -2 26q0 22 9 64l27 128
q6 26 6 42q0 23 -11.5 31.5t-41.5 8.5h-40zM227 600l-43 -200h33q68 0 86 78l12 54q4 15 4 32q0 36 -42 36h-50z" />
    <glyph glyph-name="rcaron" unicode="&#x159;" horiz-adv-x="274" 
d="M376 698l-111 -135h-104l-53 135h78l33 -75l69 75h88zM184 510l-13 -81q37 91 108 91q28 0 41 -10l-21 -101q-18 7 -38 7q-79 0 -103 -110v1l-65 -307h-108l107 510h92z" />
    <glyph glyph-name="Sacute" unicode="&#x15a;" horiz-adv-x="371" 
d="M313 736h-88l99 135h125zM148 -10q-151 0 -151 130q0 33 7 62l5 24h105l-8 -43q-3 -15 -3 -27q0 -46 52 -46q68 0 68 98q0 63 -61 133q-83 94 -83 188q0 89 49 144q49 57 134 57q150 0 150 -129q0 -23 -8 -63l-3 -13h-105l6 30q3 17 3 30q0 45 -50 45q-32 0 -48.5 -25
t-16.5 -66q0 -60 61 -130q83 -98 83 -192q0 -91 -50 -150q-50 -57 -136 -57z" />
    <glyph glyph-name="sacute" unicode="&#x15b;" horiz-adv-x="342" 
d="M259 563h-88l99 135h125zM129 -10q-62 0 -98.5 32t-36.5 88q0 14 5 44l2 8h103l-4 -17q-3 -13 -3 -24q0 -40 40 -40q26 0 40.5 18t14.5 42q0 22 -13.5 39.5t-44.5 39.5q-36 25 -57 50q-28 32 -28 87q0 69 44 116t118 47q59 0 94 -30.5t35 -84.5q0 -17 -5 -45h-100
q4 23 4 34q0 34 -35 34q-23 0 -36.5 -16.5t-13.5 -39.5t14.5 -40.5t46.5 -40.5t41 -32q17 -14 30.5 -43t13.5 -60q0 -68 -46 -117t-125 -49z" />
    <glyph glyph-name="Scircumflex" unicode="&#x15c;" horiz-adv-x="371" 
d="M240 736h-88l111 135h104l53 -135h-78l-34 75zM148 -10q-151 0 -151 130q0 33 7 62l5 24h105l-8 -43q-3 -15 -3 -27q0 -46 52 -46q68 0 68 98q0 63 -61 133q-83 94 -83 188q0 89 49 144q49 57 134 57q150 0 150 -129q0 -23 -8 -63l-3 -13h-105l6 30q3 17 3 30
q0 45 -50 45q-32 0 -48.5 -25t-16.5 -66q0 -60 61 -130q83 -98 83 -192q0 -91 -50 -150q-50 -57 -136 -57z" />
    <glyph glyph-name="scircumflex" unicode="&#x15d;" horiz-adv-x="342" 
d="M186 563h-88l111 135h104l53 -135h-78l-34 75zM129 -10q-62 0 -98.5 32t-36.5 88q0 14 5 44l2 8h103l-4 -17q-3 -13 -3 -24q0 -40 40 -40q26 0 40.5 18t14.5 42q0 22 -13.5 39.5t-44.5 39.5q-36 25 -57 50q-28 32 -28 87q0 69 44 116t118 47q59 0 94 -30.5t35 -84.5
q0 -17 -5 -45h-100q4 23 4 34q0 34 -35 34q-23 0 -36.5 -16.5t-13.5 -39.5t14.5 -40.5t46.5 -40.5t41 -32q17 -14 30.5 -43t13.5 -60q0 -68 -46 -117t-125 -49z" />
    <glyph glyph-name="Scedilla" unicode="&#x15e;" horiz-adv-x="371" 
d="M262 710q150 0 150 -129q0 -23 -8 -63l-3 -13h-105l6 30q3 17 3 30q0 45 -50 45q-32 0 -48.5 -25t-16.5 -66q0 -60 61 -130q83 -98 83 -192q0 -92 -48.5 -149t-133.5 -58l-7 -25q62 0 62 -44q0 -41 -26.5 -56.5t-81.5 -15.5q-91 0 -91 53q0 7 2 19h74q-3 -9 -3 -16
q0 -16 20 -16q32 0 32 40q0 18 -28 18h-9l10 46q-109 16 -109 127q0 33 7 62l5 24h105l-8 -43q-3 -15 -3 -27q0 -46 52 -46q68 0 68 98q0 63 -61 133q-83 94 -83 188q0 89 49 144q49 57 134 57z" />
    <glyph glyph-name="scedilla" unicode="&#x15f;" horiz-adv-x="342" 
d="M335 360h-100q4 23 4 34q0 34 -35 34q-23 0 -36.5 -16.5t-13.5 -39.5t14.5 -40.5t46.5 -40.5t41 -32q17 -14 30.5 -43t13.5 -60q0 -65 -44 -114q-43 -48 -118 -52l-8 -29q62 0 62 -44q0 -41 -26.5 -56.5t-81.5 -15.5q-91 0 -91 53q0 7 2 19h74q-3 -9 -3 -16q0 -16 20 -16
q32 0 32 40q0 18 -28 18h-9l11 50q-46 9 -72 39.5t-26 77.5q0 14 5 44l2 8h103l-4 -17q-3 -13 -3 -24q0 -40 40 -40q26 0 40.5 18t14.5 42q0 22 -13.5 39.5t-44.5 39.5q-36 25 -57 50q-28 32 -28 87q0 69 44 116t118 47q59 0 94 -30.5t35 -84.5q0 -17 -5 -45z" />
    <glyph glyph-name="Scaron" unicode="&#x160;" horiz-adv-x="371" 
d="M341 736h-104l-53 135h78l33 -75l69 75h88zM148 -10q-151 0 -151 130q0 33 7 62l5 24h105l-8 -43q-3 -15 -3 -27q0 -46 52 -46q68 0 68 98q0 63 -61 133q-83 94 -83 188q0 89 49 144q49 57 134 57q150 0 150 -129q0 -23 -8 -63l-3 -13h-105l6 30q3 17 3 30q0 45 -50 45
q-32 0 -48.5 -25t-16.5 -66q0 -60 61 -130q83 -98 83 -192q0 -91 -50 -150q-50 -57 -136 -57z" />
    <glyph glyph-name="scaron" unicode="&#x161;" horiz-adv-x="342" 
d="M287 563h-104l-53 135h78l33 -75l69 75h88zM129 -10q-62 0 -98.5 32t-36.5 88q0 14 5 44l2 8h103l-4 -17q-3 -13 -3 -24q0 -40 40 -40q26 0 40.5 18t14.5 42q0 22 -13.5 39.5t-44.5 39.5q-36 25 -57 50q-28 32 -28 87q0 69 44 116t118 47q59 0 94 -30.5t35 -84.5
q0 -17 -5 -45h-100q4 23 4 34q0 34 -35 34q-23 0 -36.5 -16.5t-13.5 -39.5t14.5 -40.5t46.5 -40.5t41 -32q17 -14 30.5 -43t13.5 -60q0 -68 -46 -117t-125 -49z" />
    <glyph glyph-name="uni0162" unicode="&#x162;" horiz-adv-x="366" 
d="M85 600l22 100h342l-22 -100h-115l-127 -600h-32l-11 -39q62 0 62 -44q0 -41 -26.5 -56.5t-81.5 -15.5q-91 0 -91 53q0 7 2 19h74q-3 -9 -3 -16q0 -16 20 -16q32 0 32 40q0 18 -28 18h-9l12 57h-32l127 600h-115z" />
    <glyph glyph-name="uni0163" unicode="&#x163;" horiz-adv-x="273" 
d="M290 420h-77l-63 -296q0 -3 -0.5 -6t-1 -5t-0.5 -3q0 -26 37 -26q13 0 31 5l-12 -91q-24 -8 -57 -8q-15 0 -19 1l-8 -30q62 0 62 -44q0 -41 -26.5 -56.5t-81.5 -15.5q-91 0 -91 53q0 7 2 19h74q-3 -9 -3 -16q0 -16 20 -16q32 0 32 40q0 18 -28 18h-9l13 60q-47 23 -47 81
q0 19 4 34l64 302h-58l19 90h63l39 138h94l-29 -138h76z" />
    <glyph glyph-name="Tcaron" unicode="&#x164;" horiz-adv-x="366" 
d="M340 743h-104l-53 135h78l33 -75l69 75h88zM185 0h-112l127 600h-115l22 100h342l-22 -100h-115z" />
    <glyph glyph-name="tcaron" unicode="&#x165;" horiz-adv-x="294" 
d="M275 648l22 102h102l-19 -91l-70 -115h-47l51 104h-39zM168 648h94l-29 -138h76l-19 -90h-77l-63 -296q0 -3 -0.5 -6t-1 -5t-0.5 -3q0 -26 37 -26q13 0 31 5l-12 -91q-24 -8 -57 -8q-51 0 -80.5 24.5t-29.5 69.5q0 19 4 34l64 302h-58l19 90h63z" />
    <glyph glyph-name="Tbar" unicode="&#x166;" horiz-adv-x="364" 
d="M449 700l-22 -100h-115l-39 -185h74l-21 -100h-74l-67 -315h-112l67 315h-76l21 100h76l39 185h-115l22 100h342z" />
    <glyph glyph-name="tbar" unicode="&#x167;" horiz-adv-x="273" 
d="M309 510l-19 -90h-77l-26 -122h61l-20 -76h-57l-21 -98q0 -3 -0.5 -6t-1 -5t-0.5 -3q0 -26 37 -26q13 0 31 5l-12 -91q-24 -8 -57 -8q-51 0 -80.5 24.5t-29.5 69.5q0 19 4 34l22 104h-49l20 76h45l26 122h-58l19 90h63l39 138h94l-29 -138h76z" />
    <glyph glyph-name="Utilde" unicode="&#x168;" horiz-adv-x="402" 
d="M231 748l-51 40q47 80 97 80q28 0 56 -24q14 -13 25 -13q23 0 48 43l52 -40q-47 -80 -97 -80q-27 0 -56 24q-14 13 -25 13q-27 0 -49 -43zM171 -10q-75 0 -117 36t-42 102q0 26 6 54l111 518h112l-115 -538q-3 -14 -3 -24q0 -48 55 -48q47 0 59 61l117 549h108l-118 -553
q-33 -157 -173 -157z" />
    <glyph glyph-name="utilde" unicode="&#x169;" horiz-adv-x="389" 
d="M234 611q-27 0 -49 -43l-51 40q47 80 97 80q27 0 56 -24q14 -13 25 -13q23 0 48 43l52 -40q-47 -80 -97 -80q-27 0 -56 24q-14 13 -25 13zM221 155l75 355h108l-107 -510h-92l9 53q-40 -63 -106 -63q-49 0 -75.5 26t-26.5 76q0 30 7 57l77 361h108l-76 -355
q-4 -15 -4 -31q0 -40 39 -40q49 0 64 71z" />
    <glyph glyph-name="Umacron" unicode="&#x16a;" horiz-adv-x="402" 
d="M426 772h-230l16 78h230zM171 -10q-75 0 -117 36t-42 102q0 26 6 54l111 518h112l-115 -538q-3 -14 -3 -24q0 -48 55 -48q47 0 59 61l117 549h108l-118 -553q-33 -157 -173 -157z" />
    <glyph glyph-name="umacron" unicode="&#x16b;" horiz-adv-x="389" 
d="M166 670h230l-16 -78h-230zM221 155l75 355h108l-107 -510h-92l9 53q-40 -63 -106 -63q-49 0 -75.5 26t-26.5 76q0 30 7 57l77 361h108l-76 -355q-4 -15 -4 -31q0 -40 39 -40q49 0 64 71z" />
    <glyph glyph-name="Ubreve" unicode="&#x16c;" horiz-adv-x="402" 
d="M316 751q-49 0 -75.5 24.5t-26.5 68.5q0 2 2 26h62v-8q0 -23 10 -31.5t31 -8.5q49 0 67 48h64q-24 -119 -134 -119zM171 -10q-75 0 -117 36t-42 102q0 26 6 54l111 518h112l-115 -538q-3 -14 -3 -24q0 -48 55 -48q47 0 59 61l117 549h108l-118 -553q-33 -157 -173 -157z
" />
    <glyph glyph-name="ubreve" unicode="&#x16d;" horiz-adv-x="389" 
d="M270 571q-49 0 -75.5 24.5t-26.5 68.5q0 2 2 26h62v-8q0 -23 10 -31.5t31 -8.5q49 0 67 48h64q-24 -119 -134 -119zM221 155l75 355h108l-107 -510h-92l9 53q-40 -63 -106 -63q-49 0 -75.5 26t-26.5 76q0 30 7 57l77 361h108l-76 -355q-4 -15 -4 -31q0 -40 39 -40
q49 0 64 71z" />
    <glyph glyph-name="Uring" unicode="&#x16e;" horiz-adv-x="402" 
d="M315 743q-36 0 -59.5 22.5t-23.5 55.5q0 40 29 68.5t69 28.5q36 0 59.5 -22.5t23.5 -55.5q0 -40 -29 -68.5t-69 -28.5zM319 796q15 0 26 11t11 28q3 22 -20 28q-27 6 -40 -16q-6 -9 -6 -21q0 -13 8 -21.5t21 -8.5zM171 -10q-75 0 -117 36t-42 102q0 26 6 54l111 518h112
l-115 -538q-3 -14 -3 -24q0 -48 55 -48q47 0 59 61l117 549h108l-118 -553q-33 -157 -173 -157z" />
    <glyph glyph-name="uring" unicode="&#x16f;" horiz-adv-x="389" 
d="M269 563q-36 0 -59.5 22.5t-23.5 55.5q0 40 29 68.5t69 28.5q36 0 59.5 -22.5t23.5 -55.5q0 -40 -29 -68.5t-69 -28.5zM244 646q0 -13 8 -21.5t21 -8.5q15 0 26 11t11 28q3 22 -20 28q-27 6 -40 -16q-6 -9 -6 -21zM221 155l75 355h108l-107 -510h-92l9 53
q-40 -63 -106 -63q-49 0 -75.5 26t-26.5 76q0 30 7 57l77 361h108l-76 -355q-4 -15 -4 -31q0 -40 39 -40q49 0 64 71z" />
    <glyph glyph-name="Uhungarumlaut" unicode="&#x170;" horiz-adv-x="402" 
d="M252 743h-79l99 135h116zM401 743h-79l99 135h116zM171 -10q-75 0 -117 36t-42 102q0 26 6 54l111 518h112l-115 -538q-3 -14 -3 -24q0 -48 55 -48q47 0 59 61l117 549h108l-118 -553q-33 -157 -173 -157z" />
    <glyph glyph-name="uhungarumlaut" unicode="&#x171;" horiz-adv-x="389" 
d="M226 698h116l-136 -135h-79zM491 698l-136 -135h-79l99 135h116zM221 155l75 355h108l-107 -510h-92l9 53q-40 -63 -106 -63q-49 0 -75.5 26t-26.5 76q0 30 7 57l77 361h108l-76 -355q-4 -15 -4 -31q0 -40 39 -40q49 0 64 71z" />
    <glyph glyph-name="Uogonek" unicode="&#x172;" horiz-adv-x="402" 
d="M237 151l117 549h108l-118 -553q-29 -137 -141 -155q-42 -35 -42 -65q0 -21 27 -21q13 0 37 7l-4 -59q-25 -9 -59 -9q-89 0 -89 60q0 53 63 87q-59 8 -91.5 43t-32.5 93q0 26 6 54l111 518h112l-115 -538q-3 -14 -3 -24q0 -48 55 -48q47 0 59 61z" />
    <glyph glyph-name="uogonek" unicode="&#x173;" horiz-adv-x="389" 
d="M297 0h-37q-53 -37 -53 -74q0 -20 27 -20q13 0 37 7l-4 -59q-25 -9 -59 -9q-89 0 -89 57q0 63 87 102l8 49q-40 -63 -106 -63q-49 0 -75.5 26t-26.5 76q0 30 7 57l77 361h108l-76 -355q-4 -15 -4 -31q0 -40 39 -40q49 0 64 71l75 355h108z" />
    <glyph glyph-name="Wcircumflex" unicode="&#x174;" horiz-adv-x="557" 
d="M335 743h-88l111 135h104l53 -135h-78l-34 75zM177 0h-146l79 700h106l-68 -548l169 548h120l-65 -548l166 548h99l-219 -700h-139l52 481z" />
    <glyph glyph-name="wcircumflex" unicode="&#x175;" horiz-adv-x="541" 
d="M289 563h-88l111 135h104l53 -135h-78l-34 75zM172 0h-137l34 510h103l-27 -367l129 367h107l-29 -367l131 367h99l-184 -510h-130l20 314z" />
    <glyph glyph-name="Ycircumflex" unicode="&#x176;" horiz-adv-x="396" 
d="M252 743h-88l111 135h104l53 -135h-78l-34 75zM199 0h-112l64 298l-47 402h112l19 -261l133 261h114l-219 -402z" />
    <glyph glyph-name="ycircumflex" unicode="&#x177;" horiz-adv-x="366" 
d="M198 563h-88l111 135h104l53 -135h-78l-34 75zM303 510h105l-243 -569q-25 -56 -57.5 -81t-80.5 -25q-53 0 -81 18l19 88q24 -12 51 -12q34 0 51 39l9 22l-11 520h106l-6 -350z" />
    <glyph glyph-name="Ydieresis" unicode="&#x178;" horiz-adv-x="396" 
d="M279 753h-95l24 116h95zM420 753h-95l24 116h95zM199 0h-112l64 298l-47 402h112l19 -261l133 261h114l-219 -402z" />
    <glyph glyph-name="Zacute" unicode="&#x179;" horiz-adv-x="358" 
d="M312 743h-88l99 135h125zM285 0h-322l19 98l304 502h-186l22 100h312l-20 -98l-304 -502h196z" />
    <glyph glyph-name="zacute" unicode="&#x17a;" horiz-adv-x="332" 
d="M260 563h-88l99 135h125zM256 0h-291l17 88l242 332h-160l19 90h281l-17 -88l-242 -332h170z" />
    <glyph glyph-name="Zdotaccent" unicode="&#x17b;" horiz-adv-x="358" 
d="M342 753h-106l24 116h106zM285 0h-322l19 98l304 502h-186l22 100h312l-20 -98l-304 -502h196z" />
    <glyph glyph-name="zdotaccent" unicode="&#x17c;" horiz-adv-x="332" 
d="M290 573h-106l24 116h106zM256 0h-291l17 88l242 332h-160l19 90h281l-17 -88l-242 -332h170z" />
    <glyph glyph-name="Zcaron" unicode="&#x17d;" horiz-adv-x="358" 
d="M340 743h-104l-53 135h78l33 -75l69 75h88zM285 0h-322l19 98l304 502h-186l22 100h312l-20 -98l-304 -502h196z" />
    <glyph glyph-name="zcaron" unicode="&#x17e;" horiz-adv-x="332" 
d="M288 563h-104l-53 135h78l33 -75l69 75h88zM256 0h-291l17 88l242 332h-160l19 90h281l-17 -88l-242 -332h170z" />
    <glyph glyph-name="florin" unicode="&#x192;" 
d="M375 745l-17 -79q71 -24 71 -102q0 -22 -6 -49l-3 -15q-11 -59 -34.5 -92t-64.5 -48v-2q54 -28 54 -100q0 -24 -6 -49l-5 -22q-28 -132 -141 -156l-18 -86h-62l17 80h-58l-17 -80h-62l17 80h-70l21 100h40l96 450h-40l21 100h70l15 70h62l-15 -70h50h8l15 70h62zM307 483
l5 24q4 21 4 31q0 37 -42 37h-37l-36 -170h19q70 0 87 78zM257 198l6 26q5 28 5 39q0 24 -12.5 33t-42.5 9h-33l-39 -180h39q62 0 77 73z" />
    <glyph glyph-name="AEacute" unicode="&#x1fc;" horiz-adv-x="578" 
d="M427 878h125l-136 -135h-88zM655 700l-22 -100h-187l-39 -185h148l-21 -100h-148l-46 -215h187l-21 -100h-300l29 137h-107l-64 -137h-110l338 700h363zM326 562l-154 -330h83z" />
    <glyph glyph-name="aeacute" unicode="&#x1fd;" horiz-adv-x="569" 
d="M396 698h125l-136 -135h-88zM426 520q66 0 103.5 -34.5t37.5 -96.5q0 -24 -6 -51l-22 -106h-211l-17 -79q-3 -15 -3 -26q0 -43 52 -43q43 0 56 58l5 23h103l-5 -24q-15 -73 -57.5 -112t-107.5 -39q-118 0 -146 84q-37 -84 -119 -84q-48 0 -76 29.5t-28 79.5
q0 72 40.5 117.5t121.5 73.5q59 21 77 32q17 11 22 31l3 14q3 13 3 24q0 38 -42 38t-52 -54l-5 -24h-102l7 29q33 140 157 140q83 0 105 -55q39 55 106 55zM450 316l9 43q3 13 3 23q0 44 -49 44q-43 0 -56 -57l-9 -40l-3 -13h105zM139 81q48 0 64 73l1 6l3 14l15 73
q-15 -14 -59 -32q-66 -30 -66 -90q0 -44 42 -44z" />
    <glyph glyph-name="Oslashacute" unicode="&#x1fe;" 
d="M340 878h125l-136 -135h-88zM418 730l52 -34l-47 -76q8 -26 8 -51t-6 -52l-79 -370q-34 -157 -176 -157q-72 0 -114 33l-33 -53l-53 34l46 75q-8 26 -8 52q0 24 6 51l79 370q16 77 61.5 117.5t114.5 40.5q72 0 116 -34zM204 547l-53 -249l168 271q-6 41 -55 41
q-46 0 -60 -63zM235 152l52 247l-166 -270q6 -39 55 -39q45 0 59 62z" />
    <glyph glyph-name="oslashacute" unicode="&#x1ff;" horiz-adv-x="374" 
d="M289 698h125l-136 -135h-88zM315 495l32 47l45 -34l-38 -56q15 -27 15 -64q0 -26 -5 -49l-44 -201q-31 -148 -164 -148q-60 0 -97 25l-32 -47l-45 34l38 56q-15 27 -15 64q0 26 5 49l44 201q31 148 164 148q60 0 97 -25zM161 370l-33 -152l129 191q-11 17 -41 17
q-43 0 -55 -56zM213 140l33 152l-129 -191q11 -17 41 -17q43 0 55 56z" />
    <glyph glyph-name="uni0218" unicode="&#x218;" horiz-adv-x="371" 
d="M148 -10q-151 0 -151 130q0 33 7 62l5 24h105l-8 -43q-3 -15 -3 -27q0 -46 52 -46q68 0 68 98q0 63 -61 133q-83 94 -83 188q0 89 49 144q49 57 134 57q150 0 150 -129q0 -23 -8 -63l-3 -13h-105l6 30q3 17 3 30q0 45 -50 45q-32 0 -48.5 -25t-16.5 -66q0 -60 61 -130
q83 -98 83 -192q0 -91 -50 -150q-50 -57 -136 -57zM89 -185h-42l52 54h-49l20 92h106l-16 -82z" />
    <glyph glyph-name="uni0219" unicode="&#x219;" horiz-adv-x="342" 
d="M129 -10q-62 0 -98.5 32t-36.5 88q0 14 5 44l2 8h103l-4 -17q-3 -13 -3 -24q0 -40 40 -40q26 0 40.5 18t14.5 42q0 22 -13.5 39.5t-44.5 39.5q-36 25 -57 50q-28 32 -28 87q0 69 44 116t118 47q59 0 94 -30.5t35 -84.5q0 -17 -5 -45h-100q4 23 4 34q0 34 -35 34
q-23 0 -36.5 -16.5t-13.5 -39.5t14.5 -40.5t46.5 -40.5t41 -32q17 -14 30.5 -43t13.5 -60q0 -68 -46 -117t-125 -49zM74 -189h-42l52 54h-49l20 92h106l-16 -82z" />
    <glyph glyph-name="uni021A" unicode="&#x21a;" horiz-adv-x="366" 
d="M185 0h-112l127 600h-115l22 100h342l-22 -100h-115zM86 -189h-42l52 54h-49l20 92h106l-16 -82z" />
    <glyph glyph-name="uni021B" unicode="&#x21b;" horiz-adv-x="273" 
d="M290 420h-77l-63 -296q0 -3 -0.5 -6t-1 -5t-0.5 -3q0 -26 37 -26q13 0 31 5l-12 -91q-24 -8 -57 -8q-51 0 -80.5 24.5t-29.5 69.5q0 19 4 34l64 302h-58l19 90h63l39 138h94l-29 -138h76zM74 -135h-49l20 92h106l-16 -82l-71 -64h-42z" />
    <glyph glyph-name="uni0237" unicode="&#x237;" horiz-adv-x="189" 
d="M-103 -149l18 86q14 -8 32 -8q23 0 29 26l119 555h108l-123 -576q-21 -99 -111 -99q-47 0 -72 16z" />
    <glyph glyph-name="uni02BC" unicode="&#x2bc;" horiz-adv-x="0" 
d="M57 494h-47l50 100h-41l23 106h106l-19 -95z" />
    <glyph glyph-name="circumflex" unicode="&#x2c6;" horiz-adv-x="500" 
d="M268 563h-88l111 135h104l53 -135h-78l-34 75z" />
    <glyph glyph-name="caron" unicode="&#x2c7;" horiz-adv-x="500" 
d="M369 563h-104l-53 135h78l33 -75l69 75h88z" />
    <glyph glyph-name="uni02C9" unicode="&#x2c9;" horiz-adv-x="500" 
d="M437 592h-230l16 78h230z" />
    <glyph glyph-name="breve" unicode="&#x2d8;" horiz-adv-x="500" 
d="M327 571q-49 0 -75.5 24.5t-26.5 68.5q0 2 2 26h62v-8q0 -23 10 -31.5t31 -8.5q49 0 67 48h64q-24 -119 -134 -119z" />
    <glyph glyph-name="dotaccent" unicode="&#x2d9;" horiz-adv-x="500" 
d="M371 573h-106l24 116h106z" />
    <glyph glyph-name="ring" unicode="&#x2da;" horiz-adv-x="500" 
d="M326 563q-36 0 -59.5 22.5t-23.5 55.5q0 40 29 68.5t69 28.5q36 0 59.5 -22.5t23.5 -55.5q0 -40 -29 -68.5t-69 -28.5zM330 616q15 0 26 11t11 28q0 13 -8.5 21.5t-21.5 8.5q-15 0 -25.5 -11t-10.5 -28q0 -13 8 -21.5t21 -8.5z" />
    <glyph glyph-name="ogonek" unicode="&#x2db;" horiz-adv-x="500" 
d="M188 -155q-89 0 -89 60q0 33 21.5 56.5t70.5 44.5l50 -5q-54 -36 -54 -74q0 -21 27 -21q13 0 37 7l-4 -59q-25 -9 -59 -9z" />
    <glyph glyph-name="tilde" unicode="&#x2dc;" horiz-adv-x="500" 
d="M242 568l-51 40q47 80 97 80q28 0 56 -24q14 -13 25 -13q23 0 48 43l52 -40q-47 -80 -97 -80q-28 0 -56 24q-14 13 -25 13q-27 0 -49 -43z" />
    <glyph glyph-name="hungarumlaut" unicode="&#x2dd;" horiz-adv-x="500" 
d="M263 563h-79l99 135h116zM412 563h-79l99 135h116z" />
    <glyph glyph-name="gravecomb" unicode="&#x300;" horiz-adv-x="0" 
d="M123 563h-78l-78 135h115z" />
    <glyph glyph-name="acutecomb" unicode="&#x301;" horiz-adv-x="0" 
d="M91 563h-88l99 135h125z" />
    <glyph glyph-name="uni0302" unicode="&#x302;" horiz-adv-x="0" 
d="M18 563h-88l111 135h104l53 -135h-78l-34 75z" />
    <glyph glyph-name="tildecomb" unicode="&#x303;" horiz-adv-x="0" 
d="M-8 568l-51 40q47 80 97 80q27 0 56 -24q14 -13 25 -13q23 0 48 43l52 -40q-47 -80 -97 -80q-28 0 -56 24q-14 13 -25 13q-27 0 -49 -43z" />
    <glyph glyph-name="uni0304" unicode="&#x304;" horiz-adv-x="0" 
d="M187 592h-230l16 78h230z" />
    <glyph glyph-name="uni0306" unicode="&#x306;" horiz-adv-x="0" 
d="M77 571q-49 0 -75.5 24.5t-26.5 68.5q0 2 2 26h62v-8q0 -23 10 -31.5t31 -8.5q49 0 67 48h64q-24 -119 -134 -119z" />
    <glyph glyph-name="uni0307" unicode="&#x307;" horiz-adv-x="0" 
d="M121 573h-106l24 116h106z" />
    <glyph glyph-name="uni0308" unicode="&#x308;" horiz-adv-x="0" 
d="M45 573h-95l24 116h95zM186 573h-95l24 116h95z" />
    <glyph glyph-name="uni030A" unicode="&#x30a;" horiz-adv-x="0" 
d="M76 563q-36 0 -59.5 22.5t-23.5 55.5q0 40 29 68.5t69 28.5q36 0 59.5 -22.5t23.5 -55.5q0 -40 -29 -68.5t-69 -28.5zM80 616q15 0 26 11t11 28q0 13 -8.5 21.5t-21.5 8.5q-15 0 -25.5 -11t-10.5 -28q0 -13 8 -21.5t21 -8.5z" />
    <glyph glyph-name="uni030B" unicode="&#x30b;" horiz-adv-x="0" 
d="M13 563h-79l99 135h116zM162 563h-79l99 135h116z" />
    <glyph glyph-name="uni030C" unicode="&#x30c;" horiz-adv-x="0" 
d="M119 563h-104l-53 135h78l33 -75l69 75h88z" />
    <glyph glyph-name="uni0312" unicode="&#x312;" horiz-adv-x="0" 
d="M121 573h-106l16 82l63 64h42l-44 -54h48z" />
    <glyph glyph-name="uni0326" unicode="&#x326;" horiz-adv-x="0" 
d="M-97 -189h-42l52 54h-49l20 92h106l-16 -82z" />
    <glyph glyph-name="uni0327" unicode="&#x327;" horiz-adv-x="0" 
d="M-87 -155q-91 0 -91 53q0 7 2 19h74q-3 -9 -3 -16q0 -16 20 -16q32 0 32 40q0 18 -28 18h-9l15 71h49l-15 -53q62 0 62 -44q0 -41 -26.5 -56.5t-81.5 -15.5z" />
    <glyph glyph-name="uni0328" unicode="&#x328;" horiz-adv-x="0" 
d="M-62 -155q-89 0 -89 60q0 33 21.5 56.5t70.5 44.5l50 -5q-54 -36 -54 -74q0 -21 27 -21q13 0 37 7l-4 -59q-26 -9 -59 -9z" />
    <glyph glyph-name="uni0335" unicode="&#x335;" horiz-adv-x="0" 
d="M117 303h-214l20 94h214z" />
    <glyph glyph-name="uni0336" unicode="&#x336;" horiz-adv-x="0" 
d="M220 305h-418l19 90h418z" />
    <glyph glyph-name="uni0337" unicode="&#x337;" horiz-adv-x="0" 
d="M205 508l-365 -540l-45 34l365 540z" />
    <glyph glyph-name="uni0338" unicode="&#x338;" horiz-adv-x="0" 
d="M270 696l-447 -726l-53 34l448 726z" />
    <glyph glyph-name="uni0394" unicode="&#x394;" 
d="M-44 0l263 700h152l-35 -700h-380zM265 573l-169 -478h135z" />
    <glyph glyph-name="uni03A9" unicode="&#x3a9;" horiz-adv-x="398" 
d="M268 710q74 0 118 -36.5t44 -103.5q0 -26 -6 -54l-39 -182q-18 -81 -47 -133.5t-80 -100.5h75l-21 -100h-151l20 104q59 77 84 191l51 239q3 15 3 26q0 50 -55 50q-48 0 -61 -64l-55 -259q-15 -74 -15 -110q0 -37 14 -81l-18 -96h-151l21 100h81l3 5q-46 67 -46 144
q0 43 11 93l44 209q16 75 61.5 117t114.5 42z" />
    <glyph glyph-name="uni03BC" unicode="&#x3bc;" horiz-adv-x="392" 
d="M226 155l75 355h108l-107 -510h-92l9 53q-41 -63 -106 -63q-4 0 -22 2l-31 -147h-106l141 665h108l-76 -355q-4 -15 -4 -31q0 -40 39 -40q49 0 64 71z" />
    <glyph glyph-name="pi" unicode="&#x3c0;" horiz-adv-x="438" 
d="M123 0h-106l89 420h-58l19 90h412l-19 -90h-58l-89 -420h-106l89 420h-84z" />
    <glyph glyph-name="uni1E02" unicode="&#x1e02;" horiz-adv-x="407" 
d="M350 753h-106l24 116h106zM172 0h-185l149 700h160q142 0 142 -115q0 -23 -6 -50l-6 -29q-13 -62 -36 -94t-64 -41v-1q57 -27 57 -99q0 -23 -6 -48l-13 -61q-17 -83 -63.5 -122.5t-128.5 -39.5zM227 600l-39 -185h39q67 0 84 78l8 38q4 20 4 29q0 40 -45 40h-51zM167 315
l-46 -215h59q59 0 74 73l13 61q5 28 5 37q0 24 -13.5 34t-44.5 10h-47z" />
    <glyph glyph-name="uni1E03" unicode="&#x1e03;" horiz-adv-x="388" 
d="M171 869h106l-24 -116h-106zM282 520q49 0 76.5 -27t27.5 -77q0 -21 -7 -56l-50 -236q-29 -134 -131 -134q-42 0 -69.5 23t-34.5 63l-31 -76h-78l148 700h108l-46 -219q37 39 87 39zM224 140l47 221q3 14 3 26q0 39 -39 39q-52 0 -67 -72l-39 -182h1q-4 -17 -4 -35
q0 -53 48 -53q38 0 50 56z" />
    <glyph glyph-name="uni1E0A" unicode="&#x1e0a;" horiz-adv-x="409" 
d="M353 753h-106l24 116h106zM167 0h-180l149 700h162q69 0 105 -32.5t36 -92.5q0 -23 -6 -52l-75 -354q-18 -87 -64 -128t-127 -41zM227 600l-106 -500h49q58 0 75 72l78 364q3 16 3 27q0 37 -42 37h-57z" />
    <glyph glyph-name="uni1E0B" unicode="&#x1e0b;" horiz-adv-x="387" 
d="M346 753l24 116h106l-24 -116h-106zM285 463l51 237h108l-120 -566q-19 -88 -17 -134h-100q-4 7 3 52q-39 -62 -105 -62q-49 0 -76.5 27t-27.5 77q0 21 7 56l50 236q29 134 131 134q71 0 96 -57zM152 84q52 0 67 72l39 182q4 17 4 35q0 53 -49 53q-38 0 -50 -56l-47 -221
q-3 -13 -3 -26q0 -39 39 -39z" />
    <glyph glyph-name="uni1E1E" unicode="&#x1e1e;" horiz-adv-x="344" 
d="M345 753h-106l24 116h106zM100 0h-113l149 700h291l-22 -100h-178l-41 -195h139l-21 -100h-139z" />
    <glyph glyph-name="uni1E1F" unicode="&#x1e1f;" horiz-adv-x="265" 
d="M231 869h106l-24 -116h-106zM287 616q-32 0 -41 -41l-14 -65h76l-19 -90h-76l-90 -420h-107l90 420h-58l19 90h58l19 90q23 110 128 110q46 0 77 -17l-18 -88q-24 11 -44 11z" />
    <glyph glyph-name="uni1E40" unicode="&#x1e40;" horiz-adv-x="538" 
d="M428 753h-106l24 116h106zM85 0h-98l149 700h154l-35 -508l181 508h158l-149 -700h-106l113 530l-195 -530h-90l31 530z" />
    <glyph glyph-name="uni1E41" unicode="&#x1e41;" horiz-adv-x="593" 
d="M334 689h106l-24 -116h-106zM485 520q49 0 75.5 -26t26.5 -76q0 -30 -7 -57l-77 -361h-108l76 355q4 15 4 31q0 40 -39 40q-42 0 -60 -55q0 -2 -2 -10l-77 -361h-108l76 355q4 15 4 31q0 40 -39 40q-49 0 -64 -71l-75 -355h-108l107 510h92l-9 -53q41 63 106 63
q80 0 98 -67q39 67 108 67z" />
    <glyph glyph-name="uni1E56" unicode="&#x1e56;" horiz-adv-x="388" 
d="M350 753h-106l24 116h106zM100 0h-113l149 700h161q66 0 101 -32.5t35 -91.5q0 -24 -6 -51l-15 -71q-18 -87 -65 -128t-131 -41h-56zM227 600l-45 -215h45q60 0 73 70l17 82q3 15 3 25q0 38 -40 38h-53z" />
    <glyph glyph-name="uni1E57" unicode="&#x1e57;" horiz-adv-x="387" 
d="M236 689h106l-24 -116h-106zM281 520q49 0 76.5 -27t27.5 -77q0 -21 -7 -56l-50 -236q-29 -134 -131 -134q-68 0 -95 55l-42 -200h-108l140 665h92l-8 -52q39 62 105 62zM223 140l47 221q3 14 3 26q0 39 -39 39q-46 0 -63 -57l-43 -204q-3 -18 -3 -28q0 -53 48 -53
q38 0 50 56z" />
    <glyph glyph-name="uni1E60" unicode="&#x1e60;" horiz-adv-x="371" 
d="M343 746h-106l24 116h106zM148 -10q-151 0 -151 130q0 33 7 62l5 24h105l-8 -43q-3 -15 -3 -27q0 -46 52 -46q68 0 68 98q0 63 -61 133q-83 94 -83 188q0 89 49 144q49 57 134 57q150 0 150 -129q0 -23 -8 -63l-3 -13h-105l6 30q3 17 3 30q0 45 -50 45q-32 0 -48.5 -25
t-16.5 -66q0 -60 61 -130q83 -98 83 -192q0 -91 -50 -150q-50 -57 -136 -57z" />
    <glyph glyph-name="uni1E61" unicode="&#x1e61;" horiz-adv-x="342" 
d="M289 573h-106l24 116h106zM129 -10q-62 0 -98.5 32t-36.5 88q0 14 5 44l2 8h103l-4 -17q-3 -13 -3 -24q0 -40 40 -40q26 0 40.5 18t14.5 42q0 22 -13.5 39.5t-44.5 39.5q-36 25 -57 50q-28 32 -28 87q0 69 44 116t118 47q59 0 94 -30.5t35 -84.5q0 -17 -5 -45h-100
q4 23 4 34q0 34 -35 34q-23 0 -36.5 -16.5t-13.5 -39.5t14.5 -40.5t46.5 -40.5t41 -32q17 -14 30.5 -43t13.5 -60q0 -68 -46 -117t-125 -49z" />
    <glyph glyph-name="uni1E6A" unicode="&#x1e6a;" horiz-adv-x="366" 
d="M342 753h-106l24 116h106zM185 0h-112l127 600h-115l22 100h342l-22 -100h-115z" />
    <glyph glyph-name="uni1E6B" unicode="&#x1e6b;" horiz-adv-x="273" 
d="M196 817h106l-24 -116h-106zM290 420h-77l-63 -296q0 -3 -0.5 -6t-1 -5t-0.5 -3q0 -26 37 -26q13 0 31 5l-12 -91q-24 -8 -57 -8q-51 0 -80.5 24.5t-29.5 69.5q0 19 4 34l64 302h-58l19 90h63l39 138h94l-29 -138h76z" />
    <glyph glyph-name="Wgrave" unicode="&#x1e80;" horiz-adv-x="557" 
d="M440 743h-78l-78 135h115zM177 0h-146l79 700h106l-68 -548l169 548h120l-65 -548l166 548h99l-219 -700h-139l52 481z" />
    <glyph glyph-name="wgrave" unicode="&#x1e81;" horiz-adv-x="541" 
d="M394 563h-78l-78 135h115zM172 0h-137l34 510h103l-27 -367l129 367h107l-29 -367l131 367h99l-184 -510h-130l20 314z" />
    <glyph glyph-name="Wacute" unicode="&#x1e82;" horiz-adv-x="557" 
d="M408 743h-88l99 135h125zM177 0h-146l79 700h106l-68 -548l169 548h120l-65 -548l166 548h99l-219 -700h-139l52 481z" />
    <glyph glyph-name="wacute" unicode="&#x1e83;" horiz-adv-x="541" 
d="M362 563h-88l99 135h125zM172 0h-137l34 510h103l-27 -367l129 367h107l-29 -367l131 367h99l-184 -510h-130l20 314z" />
    <glyph glyph-name="Wdieresis" unicode="&#x1e84;" horiz-adv-x="557" 
d="M362 753h-95l24 116h95zM503 753h-95l24 116h95zM177 0h-146l79 700h106l-68 -548l169 548h120l-65 -548l166 548h99l-219 -700h-139l52 481z" />
    <glyph glyph-name="wdieresis" unicode="&#x1e85;" horiz-adv-x="541" 
d="M316 573h-95l24 116h95zM457 573h-95l24 116h95zM172 0h-137l34 510h103l-27 -367l129 367h107l-29 -367l131 367h99l-184 -510h-130l20 314z" />
    <glyph glyph-name="uni1E9E" unicode="&#x1e9e;" horiz-adv-x="412" 
d="M136 700h337l-21 -103l-117 -188q57 -29 57 -104q0 -27 -6 -57l-16 -79q-18 -86 -64.5 -127.5t-126.5 -41.5h-36l21 100h25q53 0 68 70l20 93q3 14 3 23q0 39 -45 39h-23l18 93l112 182h-115l-127 -600h-113z" />
    <glyph glyph-name="Ygrave" unicode="&#x1ef2;" horiz-adv-x="396" 
d="M357 743h-78l-78 135h115zM199 0h-112l64 298l-47 402h112l19 -261l133 261h114l-219 -402z" />
    <glyph glyph-name="ygrave" unicode="&#x1ef3;" horiz-adv-x="366" 
d="M303 563h-78l-78 135h115zM303 510h105l-243 -569q-25 -56 -57.5 -81t-80.5 -25q-53 0 -81 18l19 88q24 -12 51 -12q34 0 51 39l9 22l-11 520h106l-6 -350z" />
    <glyph glyph-name="uni2002" unicode="&#x2002;" horiz-adv-x="300" 
 />
    <glyph glyph-name="uni2003" unicode="&#x2003;" horiz-adv-x="500" 
 />
    <glyph glyph-name="uni2007" unicode="&#x2007;" 
 />
    <glyph glyph-name="uni2008" unicode="&#x2008;" horiz-adv-x="200" 
 />
    <glyph glyph-name="uni200B" unicode="&#x200b;" horiz-adv-x="0" 
 />
    <glyph glyph-name="figuredash" unicode="&#x2012;" 
d="M401 260h-400l17 80h400z" />
    <glyph glyph-name="endash" unicode="&#x2013;" horiz-adv-x="300" 
d="M301 260h-300l17 80h300z" />
    <glyph glyph-name="emdash" unicode="&#x2014;" horiz-adv-x="500" 
d="M501 260h-500l17 80h500z" />
    <glyph glyph-name="quoteleft" unicode="&#x2018;" horiz-adv-x="200" 
d="M186 700h54l-68 -120h37l-23 -110h-110l20 99z" />
    <glyph glyph-name="quoteright" unicode="&#x2019;" horiz-adv-x="200" 
d="M155 470h-54l68 120h-37l23 110h110l-20 -99z" />
    <glyph glyph-name="quotesinglbase" unicode="&#x201a;" horiz-adv-x="200" 
d="M14 -120h-54l68 120h-37l23 110h110l-20 -99z" />
    <glyph glyph-name="quotedblleft" unicode="&#x201c;" horiz-adv-x="348" 
d="M186 700h54l-68 -120h37l-23 -110h-110l20 99zM334 700h54l-68 -120h37l-23 -110h-110l20 99z" />
    <glyph glyph-name="quotedblright" unicode="&#x201d;" horiz-adv-x="348" 
d="M155 470h-54l68 120h-37l23 110h110l-20 -99zM303 470h-54l68 120h-37l23 110h110l-20 -99z" />
    <glyph glyph-name="quotedblbase" unicode="&#x201e;" horiz-adv-x="348" 
d="M14 -120h-54l68 120h-37l23 110h110l-20 -99zM162 -120h-54l68 120h-37l23 110h110l-20 -99z" />
    <glyph glyph-name="dagger" unicode="&#x2020;" 
d="M175 -97h-100l110 516h-128l20 95h128l40 186h100l-40 -186h128l-20 -95h-128z" />
    <glyph glyph-name="daggerdbl" unicode="&#x2021;" horiz-adv-x="412" 
d="M181 -97h-100l40 186h-128l20 95h128l50 235h-128l20 95h128l40 186h100l-40 -186h128l-20 -95h-128l-50 -235h128l-20 -95h-128z" />
    <glyph glyph-name="bullet" unicode="&#x2022;" horiz-adv-x="300" 
d="M153 223q-31 0 -51.5 19.5t-20.5 48.5q0 35 26 59.5t62 24.5q30 0 49.5 -19.5t19.5 -47.5q0 -35 -25.5 -60t-59.5 -25z" />
    <glyph glyph-name="ellipsis" unicode="&#x2026;" horiz-adv-x="500" 
d="M84 0h-110l23 110h110zM251 0h-110l23 110h110zM418 0h-110l23 110h110z" />
    <glyph glyph-name="perthousand" unicode="&#x2030;" horiz-adv-x="817" 
d="M158 325q-49 0 -76.5 23t-27.5 65q0 20 4 35l34 160q22 100 112 100q50 0 76.5 -23.5t26.5 -65.5q0 -19 -4 -34l-35 -160q-22 -100 -110 -100zM127 0h-72l419 700h73zM158 388q33 0 40 40l37 170q0 3 0.5 6t1 5t0.5 3q0 33 -35 33q-33 0 -40 -40l-36 -170q0 -3 -0.5 -6.5
t-1 -5.5t-0.5 -3q0 -32 34 -32zM398 -11q-49 0 -76.5 23t-27.5 65q0 20 4 35l34 160q22 100 112 100q50 0 76.5 -23.5t26.5 -65.5q0 -19 -4 -34l-35 -160q-22 -100 -110 -100zM654 -11q-49 0 -76.5 23t-27.5 65q0 20 4 35l34 160q22 100 112 100q50 0 76.5 -23.5t26.5 -65.5
q0 -19 -4 -34l-35 -160q-22 -100 -110 -100zM398 52q33 0 40 40l37 170q0 3 0.5 6t1 5t0.5 3q0 33 -35 33q-33 0 -40 -40l-36 -170q0 -3 -0.5 -6.5t-1 -5.5t-0.5 -3q0 -32 34 -32zM654 52q33 0 40 40l37 170q0 3 0.5 6t1 5t0.5 3q0 33 -35 33q-33 0 -40 -40l-36 -170
q0 -3 -0.5 -6.5t-1 -5.5t-0.5 -3q0 -32 34 -32z" />
    <glyph glyph-name="guilsinglleft" unicode="&#x2039;" horiz-adv-x="195" 
d="M159 184h-78l-53 116l98 110h83l-87 -116z" />
    <glyph glyph-name="guilsinglright" unicode="&#x203a;" horiz-adv-x="195" 
d="M87 184h-83l86 116l-36 110h78l52 -116z" />
    <glyph glyph-name="fraction" unicode="&#x2044;" horiz-adv-x="93" 
d="M-107 0h-72l419 700h73z" />
    <glyph glyph-name="uni2070" unicode="&#x2070;" horiz-adv-x="278" 
d="M176 341q-49 0 -76.5 23t-27.5 65q0 20 4 35l51 241q22 100 112 100q50 0 76.5 -23.5t26.5 -65.5q0 -19 -4 -34l-52 -241q-22 -100 -110 -100zM176 404q33 0 40 40l54 251l2 14q0 33 -35 33q-33 0 -40 -40l-53 -251q0 -3 -0.5 -6.5t-1 -5.5t-0.5 -3q0 -32 34 -32z" />
    <glyph glyph-name="uni2074" unicode="&#x2074;" horiz-adv-x="279" 
d="M245 351h-71l17 80h-132l12 63l191 301h77l-64 -301h33l-13 -63h-33zM246 674l-110 -180h69z" />
    <glyph glyph-name="uni2075" unicode="&#x2075;" horiz-adv-x="278" 
d="M177 341q-100 0 -100 87q0 14 4 35l3 15h66l-5 -28q0 -3 -0.5 -6.5t-1 -5.5t-0.5 -3q0 -31 35 -31q32 0 39 39l20 103q0 2 0.5 5t1 5t0.5 3.5v2.5q0 31 -35 31q-32 0 -39 -42l-2 -11h-67l67 255h186l-13 -63h-124l-27 -105q21 30 58 30q70 0 70 -72q0 -22 -4 -37
l-22 -107q-21 -100 -110 -100z" />
    <glyph glyph-name="uni2076" unicode="&#x2076;" horiz-adv-x="277" 
d="M176 341q-50 0 -76 23t-26 65q0 19 4 34l51 239q22 103 112 103q103 0 103 -89q0 -14 -3 -29h-68q3 15 3 25q0 30 -35 30q-32 0 -43 -50l-20 -89q26 30 63 30q70 0 70 -70q0 -12 -5 -37l-18 -85q-22 -100 -112 -100zM179 404q31 0 39 39l16 80q0 3 0.5 5.5t1 4.5t0.5 3.5
v2.5q0 31 -35 31q-31 0 -39 -39l-16 -81q-1 -4 -1 -15q0 -31 34 -31z" />
    <glyph glyph-name="uni2077" unicode="&#x2077;" horiz-adv-x="278" 
d="M153 351h-77l196 381h-138l13 63h210l-12 -61z" />
    <glyph glyph-name="uni2078" unicode="&#x2078;" horiz-adv-x="278" 
d="M67 433q0 14 3 31l8 37q14 68 64 86v2q-27 21 -27 59q0 11 4 32l5 25q22 100 117 100q47 0 74 -23.5t27 -67.5q0 -16 -3 -32l-5 -24q-14 -65 -61 -82v-2q30 -22 30 -64q0 -12 -4 -33l-8 -36q-22 -100 -116 -100q-50 0 -79 24t-29 68zM218 614q36 0 44 42l7 36q2 8 2 14
q0 36 -35 36q-33 0 -42 -42l-7 -36q-2 -8 -2 -14q0 -36 33 -36zM178 404q35 0 44 45l10 48q2 18 2 19q0 36 -38 36q-37 0 -46 -46l-10 -48q-2 -18 -2 -19q0 -35 40 -35z" />
    <glyph glyph-name="uni2079" unicode="&#x2079;" horiz-adv-x="277" 
d="M172 341q-103 0 -103 89q0 14 3 29h68q-3 -15 -3 -25q0 -30 35 -30q31 0 43 50l20 89q-25 -30 -63 -30q-70 0 -70 70q0 12 5 37l18 85q22 100 112 100q50 0 76 -23t26 -65q0 -19 -4 -34l-51 -239q-22 -103 -112 -103zM212 576q32 0 39 39l16 81q1 4 1 15q0 31 -34 31
q-32 0 -39 -39l-16 -80q0 -3 -0.5 -5.5t-1 -4.5t-0.5 -3.5v-2.5q0 -31 35 -31z" />
    <glyph glyph-name="uni2080" unicode="&#x2080;" horiz-adv-x="278" 
d="M87 -75q-49 0 -76.5 23t-27.5 65q0 20 4 35l51 241q22 100 112 100q50 0 76.5 -23.5t26.5 -65.5q0 -19 -4 -34l-52 -241q-22 -100 -110 -100zM87 -12q33 0 40 40l54 251q0 3 0.5 6t1 5t0.5 3q0 33 -35 33q-33 0 -40 -40l-53 -251q0 -3 -0.5 -6.5t-1 -5.5t-0.5 -3
q0 -32 34 -32z" />
    <glyph glyph-name="uni2081" unicode="&#x2081;" horiz-adv-x="278" 
d="M129 -65h-71l72 339h-70l2 49q41 0 66.5 12.5t47.5 43.5h46z" />
    <glyph glyph-name="uni2082" unicode="&#x2082;" horiz-adv-x="278" 
d="M171 -65h-203l13 64q10 49 32 82.5t70 69.5q45 35 66.5 62.5t29.5 61.5q2 10 2 19q0 32 -32 32t-41 -41l-9 -44h-67l10 47q23 101 109 101q50 0 76 -22.5t26 -64.5q0 -18 -4 -33q-9 -42 -36.5 -78t-84.5 -81q-38 -29 -53 -49t-20 -45l-4 -18h133z" />
    <glyph glyph-name="uni2083" unicode="&#x2083;" horiz-adv-x="278" 
d="M84 -75q-101 0 -101 85q0 22 4 37l6 27h67l-9 -39q0 -3 -0.5 -5.5t-1 -4.5t-0.5 -3.5v-2.5q0 -31 34 -31q31 0 41 46l11 49q3 15 3 24q0 28 -34 28h-28l14 63h23q47 0 57 52l5 22q3 12 3 22q0 32 -36 32q-30 0 -39 -39l-7 -32h-66l7 34q21 100 110 100q101 0 101 -86
q0 -20 -4 -35l-3 -14q-8 -39 -24 -59.5t-46 -28.5v-2q35 -21 35 -65q0 -12 -4 -29l-8 -45q-19 -100 -110 -100z" />
    <glyph glyph-name="uni2084" unicode="&#x2084;" horiz-adv-x="278" 
d="M156 -65h-71l17 80h-132l12 63l191 301h77l-64 -301h33l-13 -63h-33zM157 258l-110 -180h69z" />
    <glyph glyph-name="uni2085" unicode="&#x2085;" horiz-adv-x="278" 
d="M88 -75q-100 0 -100 87q0 14 4 35l3 15h66l-5 -28q0 -3 -0.5 -6.5t-1 -5.5t-0.5 -3q0 -31 35 -31q31 0 39 39l20 103q0 2 0.5 5t1 5t0.5 3.5v2.5q0 31 -35 31q-31 0 -39 -42l-2 -11h-67l67 255h186l-13 -63h-124l-27 -105q21 30 58 30q70 0 70 -72q0 -22 -4 -37l-22 -107
q-21 -100 -110 -100z" />
    <glyph glyph-name="uni2086" unicode="&#x2086;" horiz-adv-x="278" 
d="M88 -75q-50 0 -76 23t-26 65q0 19 4 34l51 239q22 103 112 103q103 0 103 -89q0 -14 -3 -29h-68q3 15 3 25q0 30 -35 30q-32 0 -43 -50l-20 -89q26 30 63 30q70 0 70 -70q0 -12 -5 -37l-18 -85q-22 -100 -112 -100zM91 -12q31 0 39 39l16 80q0 3 0.5 5.5t1 4.5t0.5 3.5
v2.5q0 31 -35 31q-31 0 -39 -39l-16 -81q-1 -4 -1 -15q0 -31 34 -31z" />
    <glyph glyph-name="uni2087" unicode="&#x2087;" horiz-adv-x="278" 
d="M64 -65h-77l196 381h-138l13 63h210l-12 -61z" />
    <glyph glyph-name="uni2088" unicode="&#x2088;" horiz-adv-x="278" 
d="M-21 17q0 14 3 31l8 37q14 68 64 86v2q-27 21 -27 59q0 11 4 32l5 25q22 100 117 100q47 0 74 -23.5t27 -67.5q0 -16 -3 -32l-5 -24q-14 -65 -61 -82v-2q30 -23 30 -64q0 -12 -4 -33l-8 -36q-22 -100 -116 -100q-50 0 -79 24t-29 68zM130 198q36 0 44 42l7 36q2 8 2 14
q0 36 -35 36q-33 0 -42 -42l-7 -36q-2 -8 -2 -14q0 -36 33 -36zM90 -12q35 0 44 45l10 48q2 18 2 19q0 36 -38 36q-37 0 -46 -46l-10 -48q-2 -18 -2 -19q0 -35 40 -35z" />
    <glyph glyph-name="uni2089" unicode="&#x2089;" horiz-adv-x="278" 
d="M84 -75q-103 0 -103 89q0 14 3 29h68q-3 -15 -3 -25q0 -30 35 -30q31 0 43 50l20 89q-25 -30 -63 -30q-70 0 -70 70q0 12 5 37l18 85q22 100 112 100q50 0 76 -23t26 -65q0 -19 -4 -34l-51 -239q-22 -103 -112 -103zM124 160q32 0 39 39l16 81q1 4 1 15q0 31 -34 31
q-32 0 -39 -39l-16 -80q0 -3 -0.5 -5.5t-1 -4.5t-0.5 -3.5v-2.5q0 -31 35 -31z" />
    <glyph glyph-name="Euro" unicode="&#x20ac;" 
d="M183 -10q-76 0 -116 35t-40 100q0 22 7 57l21 98h-26l12 55h28l12 55h-28l11 55h26l22 106q33 159 172 159q75 0 115.5 -35t40.5 -98q0 -23 -8 -60l-4 -16h-105l7 34q3 15 3 27q0 48 -51 48q-46 0 -59 -64l-21 -101h154l-11 -55h-154l-12 -55h154l-12 -55h-154l-25 -117
q-3 -16 -3 -28q0 -45 52 -45q45 0 58 61l16 73h105l-16 -76q-33 -158 -171 -158z" />
    <glyph glyph-name="uni20B9" unicode="&#x20b9;" 
d="M124 700h344l-18 -85h-98q18 -35 19 -66h64l-18 -85h-54q-14 -71 -62 -111q-49 -40 -103 -40h-35l160 -313h-120l-160 313l16 85h100q87 0 96 66h-182l18 85h173q4 38 -13 52t-61 14h-84z" />
    <glyph glyph-name="uni20BF" unicode="&#x20bf;" 
d="M375 745l-17 -79q71 -24 71 -102q0 -22 -6 -49l-3 -15q-11 -59 -34.5 -92t-64.5 -48v-2q54 -28 54 -100q0 -24 -6 -49l-5 -22q-28 -132 -141 -156l-18 -86h-62l17 80h-58l-17 -80h-62l17 80h-70l21 100h40l96 450h-40l21 100h70l15 70h62l-15 -70h50h8l15 70h62zM307 483
l5 24q4 21 4 31q0 37 -42 37h-37l-36 -170h19q70 0 87 78zM257 198l6 26q5 28 5 39q0 24 -12.5 33t-42.5 9h-33l-39 -180h39q62 0 77 73z" />
    <glyph glyph-name="uni2113" unicode="&#x2113;" horiz-adv-x="235" 
d="M117 -10q-110 0 -110 92q0 21 4 36l124 582h106l-123 -576q0 -4 -0.5 -8t-1 -6t-0.5 -3q0 -23 27 -23q20 0 41 7l-12 -93q-24 -8 -55 -8z" />
    <glyph glyph-name="uni2116" unicode="&#x2116;" horiz-adv-x="660" 
d="M85 0h-98l149 700h135l-8 -419l90 419h98l-149 -700h-110l2 511zM544 284q-51 0 -78.5 24t-27.5 68q0 21 4 36l30 144q22 105 117 105q51 0 78.5 -24.5t27.5 -68.5q0 -20 -4 -35l-31 -144q-22 -105 -116 -105zM546 347q33 0 43 43l34 157q2 16 2 17q0 35 -41 35
q-32 0 -41 -44l-33 -157q-2 -16 -2 -17q0 -34 38 -34zM607 170h-212l14 63h212z" />
    <glyph glyph-name="uni2117" unicode="&#x2117;" horiz-adv-x="740" 
d="M639 92q-99 -102 -249 -102t-249 102q-99 104 -99 258q0 155 99 257q99 103 249 103t249 -103q99 -102 99 -257q0 -154 -99 -258zM191 141q78 -81 199 -81q122 0 198 81q78 83 78 209q0 127 -78 208q-76 82 -198 82q-121 0 -199 -82q-77 -82 -77 -208t77 -209zM373 127
h-76v428h116q113 0 113 -112v-41q0 -112 -113 -112h-40v-163zM373 485v-125h36q41 0 41 51v23q0 51 -41 51h-36z" />
    <glyph glyph-name="uni2120" unicode="&#x2120;" horiz-adv-x="595" 
d="M183 336q-101 0 -101 90v22h67v-21q0 -33 33 -33t33 34q0 24 -12.5 38.5t-47.5 32.5q-41 21 -57 47t-16 64q0 44 26 70t72 26q48 0 73 -23.5t25 -66.5v-11h-66v10q0 33 -30 33t-30 -32q0 -21 12 -34t50 -35q40 -23 55 -48t15 -65q0 -46 -26.5 -72t-74.5 -26zM386 344h-61
v356h103l44 -226l43 226h103v-356h-66v271l-57 -271h-52l-57 271v-271z" />
    <glyph glyph-name="trademark" unicode="&#x2122;" horiz-adv-x="597" 
d="M212 344h-70v292h-73v64h216v-64h-73v-292zM388 344h-61v356h103l44 -226l43 226h103v-356h-66v271l-57 -271h-52l-57 271v-271z" />
    <glyph glyph-name="uni2126" unicode="&#x2126;" horiz-adv-x="398" 
d="M268 710q74 0 118 -36.5t44 -103.5q0 -26 -6 -54l-39 -182q-18 -81 -47 -133.5t-80 -100.5h75l-21 -100h-151l20 104q59 77 84 191l51 239q3 15 3 26q0 50 -55 50q-48 0 -61 -64l-55 -259q-15 -74 -15 -110q0 -37 14 -81l-18 -96h-151l21 100h81l3 5q-46 67 -46 144
q0 43 11 93l44 209q16 75 61.5 117t114.5 42z" />
    <glyph glyph-name="estimated" unicode="&#x212e;" horiz-adv-x="821" 
d="M428 -10q-157 0 -269 106q-111 107 -111 254q0 148 111 254q112 106 269 106q158 0 268 -106q112 -106 112 -254v-9h-613q-8 0 -8 -7v-193q0 -5 11 -21q36 -52 97.5 -80t134.5 -28q146 0 244 120h56q-54 -67 -133.5 -104.5t-168.5 -37.5zM195 361h469q7 0 7 7v196
q0 9 -12 22q-42 49 -102 75.5t-127 26.5q-126 0 -232 -106q-11 -11 -11 -22v-192q0 -7 8 -7z" />
    <glyph glyph-name="uni2153" unicode="&#x2153;" horiz-adv-x="650" 
d="M172 0h-72l419 700h73zM198 256h-71l72 339h-70l2 49q41 0 66.5 12.5t47.5 43.5h46zM470 -10q-101 0 -101 85q0 22 4 37l6 27h67l-9 -39q0 -3 -0.5 -5.5t-1 -4.5t-0.5 -3.5v-2.5q0 -31 34 -31q31 0 41 46l11 49q3 15 3 24q0 28 -34 28h-28l14 63h23q47 0 57 52l5 22
q3 12 3 22q0 32 -36 32q-30 0 -39 -39l-7 -32h-66l7 34q21 100 110 100q101 0 101 -86q0 -20 -4 -35l-3 -14q-8 -39 -24 -59.5t-46 -28.5v-2q35 -21 35 -65q0 -12 -4 -29l-8 -45q-19 -100 -110 -100z" />
    <glyph glyph-name="uni2154" unicode="&#x2154;" horiz-adv-x="649" 
d="M239 256h-203l13 64q10 49 32 82.5t70 69.5q45 35 66.5 62.5t29.5 61.5q2 10 2 19q0 32 -32 32t-41 -41l-9 -44h-67l10 47q23 101 109 101q50 0 76 -22.5t26 -64.5q0 -18 -4 -33q-9 -42 -36.5 -78t-84.5 -81q-38 -29 -53 -49t-20 -45l-4 -18h133zM171 0h-72l419 700h73z
M469 -10q-101 0 -101 85q0 22 4 37l6 27h67l-9 -39q0 -3 -0.5 -5.5t-1 -4.5t-0.5 -3.5v-2.5q0 -31 34 -31q31 0 41 46l11 49q3 15 3 24q0 28 -34 28h-28l14 63h23q47 0 57 52l5 22q3 12 3 22q0 32 -36 32q-30 0 -39 -39l-7 -32h-66l7 34q21 100 110 100q101 0 101 -86
q0 -20 -4 -35l-3 -14q-8 -39 -24 -59.5t-46 -28.5v-2q35 -21 35 -65q0 -12 -4 -29l-8 -45q-19 -100 -110 -100z" />
    <glyph glyph-name="oneeighth" unicode="&#x215b;" horiz-adv-x="650" 
d="M172 0h-72l419 700h73zM198 256h-71l72 339h-70l2 49q41 0 66.5 12.5t47.5 43.5h46zM365 82q0 14 3 31l8 37q14 68 64 86v2q-27 21 -27 59q0 11 4 32l5 25q22 100 117 100q47 0 74 -23.5t27 -67.5q0 -15 -3 -32l-5 -24q-14 -65 -61 -82v-2q30 -23 30 -64q0 -12 -4 -33
l-8 -36q-22 -100 -116 -100q-50 0 -79 24t-29 68zM516 263q36 0 44 42l7 36q2 8 2 14q0 36 -35 36q-33 0 -42 -42l-7 -36q-2 -8 -2 -14q0 -36 33 -36zM476 53q35 0 44 45l10 48q2 18 2 19q0 36 -38 36q-37 0 -46 -46l-10 -48q-2 -18 -2 -19q0 -35 40 -35z" />
    <glyph glyph-name="threeeighths" unicode="&#x215c;" horiz-adv-x="649" 
d="M152 246q-101 0 -101 85q0 22 4 37l6 27h67l-9 -39q0 -2 -0.5 -5t-1 -5t-0.5 -3.5v-2.5q0 -31 34 -31q31 0 41 46l11 49q3 15 3 24q0 28 -34 28h-28l14 63h23q47 0 57 52l5 22q3 12 3 22q0 32 -36 32q-30 0 -39 -39l-7 -32h-66l7 34q21 100 110 100q101 0 101 -86
q0 -20 -4 -35l-3 -14q-8 -39 -24 -59.5t-46 -28.5v-2q35 -21 35 -65q0 -12 -4 -29l-8 -45q-19 -100 -110 -100zM171 0h-72l419 700h73zM364 82q0 14 3 31l8 37q14 68 64 86v2q-27 21 -27 59q0 11 4 32l5 25q22 100 117 100q47 0 74 -23.5t27 -67.5q0 -15 -3 -32l-5 -24
q-14 -65 -61 -82v-2q30 -23 30 -64q0 -12 -4 -33l-8 -36q-22 -100 -116 -100q-50 0 -79 24t-29 68zM515 263q37 0 44 42l7 36q2 8 2 14q0 36 -35 36q-33 0 -42 -42l-7 -36q-2 -8 -2 -14q0 -36 33 -36zM475 53q35 0 44 45l10 48q2 18 2 19q0 36 -38 36q-37 0 -46 -46l-10 -48
q-2 -18 -2 -19q0 -35 40 -35z" />
    <glyph glyph-name="fiveeighths" unicode="&#x215d;" horiz-adv-x="649" 
d="M156 246q-100 0 -100 87q0 14 4 35l3 15h66l-5 -28q0 -3 -0.5 -6.5t-1 -5.5t-0.5 -3q0 -31 35 -31q31 0 39 39l20 103q0 2 0.5 5t1 5t0.5 3.5v2.5q0 31 -35 31q-31 0 -39 -42l-2 -11h-67l67 255h186l-13 -63h-124l-27 -105q21 30 58 30q70 0 70 -72q0 -22 -4 -37
l-22 -107q-21 -100 -110 -100zM171 0h-72l419 700h73zM364 82q0 14 3 31l8 37q14 68 64 86v2q-27 21 -27 59q0 11 4 32l5 25q22 100 117 100q47 0 74 -23.5t27 -67.5q0 -15 -3 -32l-5 -24q-14 -65 -61 -82v-2q30 -23 30 -64q0 -12 -4 -33l-8 -36q-22 -100 -116 -100
q-50 0 -79 24t-29 68zM515 263q37 0 44 42l7 36q2 8 2 14q0 36 -35 36q-33 0 -42 -42l-7 -36q-2 -8 -2 -14q0 -36 33 -36zM475 53q35 0 44 45l10 48q2 18 2 19q0 36 -38 36q-37 0 -46 -46l-10 -48q-2 -18 -2 -19q0 -35 40 -35z" />
    <glyph glyph-name="seveneighths" unicode="&#x215e;" horiz-adv-x="649" 
d="M133 256h-77l196 381h-138l13 63h210l-12 -61zM171 0h-72l419 700h73zM364 82q0 14 3 31l8 37q14 68 64 86v2q-27 21 -27 59q0 11 4 32l5 25q22 100 117 100q47 0 74 -23.5t27 -67.5q0 -15 -3 -32l-5 -24q-14 -65 -61 -82v-2q30 -23 30 -64q0 -12 -4 -33l-8 -36
q-22 -100 -116 -100q-50 0 -79 24t-29 68zM515 263q37 0 44 42l7 36q2 8 2 14q0 36 -35 36q-33 0 -42 -42l-7 -36q-2 -8 -2 -14q0 -36 33 -36zM475 53q35 0 44 45l10 48q2 18 2 19q0 36 -38 36q-37 0 -46 -46l-10 -48q-2 -18 -2 -19q0 -35 40 -35z" />
    <glyph glyph-name="partialdiff" unicode="&#x2202;" horiz-adv-x="411" 
d="M204 -10q-81 0 -123.5 41.5t-42.5 119.5q0 16 1 21l9 125q11 155 127 155q76 0 104 -64l9 134q0 2 0.5 9t0.5 9q0 37 -13.5 54t-45.5 17q-54 0 -59 -68l-1 -17h-104l1 13q6 84 48 127.5t118 43.5q166 0 166 -163q0 -19 -1 -25l-25 -361q-6 -83 -49.5 -127t-119.5 -44z
M263 156l8 124q5 71 -55 71q-53 0 -59 -67l-8 -124v-9q0 -62 55 -62t59 67z" />
    <glyph glyph-name="emptyset" unicode="&#x2205;" horiz-adv-x="672" 
d="M167 82l-57 -60l-68 62l61 64q-61 82 -61 197q0 139 89 231t224 92q105 0 188 -60l57 60l68 -62l-61 -64q61 -82 61 -197q0 -139 -89 -231t-224 -92q-106 0 -188 60zM176 224l298 312q-53 38 -119 38q-90 0 -149 -65t-59 -164q0 -68 29 -121zM355 116q90 0 149 65t59 164
q0 68 -29 121l-298 -312q53 -38 119 -38z" />
    <glyph glyph-name="uni2206" unicode="&#x2206;" 
d="M-44 0l263 700h152l-35 -700h-380zM265 573l-169 -478h135z" />
    <glyph glyph-name="product" unicode="&#x220f;" horiz-adv-x="465" 
d="M179 -155h-110v855h367v-855h-110v755h-147v-755z" />
    <glyph glyph-name="summation" unicode="&#x2211;" horiz-adv-x="411" 
d="M417 -155h-362v98l183 331l-183 328v98h362v-100h-242l179 -327l-179 -328h242v-100z" />
    <glyph glyph-name="minus" unicode="&#x2212;" 
d="M383 261h-346v78h346v-78z" />
    <glyph glyph-name="uni2215" unicode="&#x2215;" 
d="M48 0h-86l430 700h87z" />
    <glyph glyph-name="uni2219" unicode="&#x2219;" horiz-adv-x="220" 
d="M193 286h-128v128h128v-128z" />
    <glyph glyph-name="radical" unicode="&#x221a;" horiz-adv-x="473" 
d="M298 -65h-111l-83 376h-67v78h151l65 -307l144 618h84z" />
    <glyph glyph-name="infinity" unicode="&#x221e;" horiz-adv-x="641" 
d="M185 131q-76 0 -113 49q-38 50 -38 121q0 70 38 119q37 49 111 49q46 0 79 -22t63 -70h4q59 92 145 92q75 0 113 -50t38 -120t-38 -120q-37 -48 -111 -48q-46 0 -79 22t-63 70h-5q-56 -92 -144 -92zM191 212q31 0 49.5 18.5t45.5 74.5q-31 52 -48 68q-17 17 -47 17
q-32 0 -52 -25t-20 -64t19.5 -64t52.5 -25zM468 210q32 0 52 25t20 64t-20 64.5t-52 25.5q-29 0 -47 -18q-16 -16 -50 -76q35 -53 51 -69t46 -16z" />
    <glyph glyph-name="integral" unicode="&#x222b;" 
d="M130 -170q-42 0 -66 10v100q24 -11 45 -11q45 0 45 50v629q0 69 35 105.5t99 36.5q42 0 66 -10v-99q-17 10 -45 10q-45 0 -45 -50v-629q0 -69 -35 -105.5t-99 -36.5z" />
    <glyph glyph-name="approxequal" unicode="&#x2248;" 
d="M88 313l-57 43q32 55 58.5 77.5t62.5 22.5q30 0 74 -29q44 -28 59 -28q16 0 27.5 11t37.5 49l57 -43q-32 -55 -58.5 -77.5t-62.5 -22.5q-28 0 -74 29q-43 28 -59 28t-27.5 -11t-37.5 -49zM88 141l-57 43q32 55 58.5 77.5t62.5 22.5q30 0 74 -29q44 -28 59 -28
q16 0 27.5 11t37.5 49l57 -43q-32 -55 -58.5 -77.5t-62.5 -22.5q-28 0 -74 29q-43 28 -59 28t-27.5 -11t-37.5 -49z" />
    <glyph glyph-name="notequal" unicode="&#x2260;" 
d="M125 90h-78l53 90h-53v78h99l50 84h-149v78h195l53 90h78l-53 -90h53v-78h-99l-50 -84h149v-78h-195z" />
    <glyph glyph-name="lessequal" unicode="&#x2264;" 
d="M359 281v-80l-306 107v74l306 107v-80l-198 -64zM359 104h-306v78h306v-78z" />
    <glyph glyph-name="greaterequal" unicode="&#x2265;" 
d="M367 308l-306 -107v80l198 64l-198 64v80l306 -107v-74zM367 104h-306v78h306v-78z" />
    <glyph glyph-name="lozenge" unicode="&#x25ca;" 
d="M237 -10h-34l-163 360l163 360h34l163 -360zM130 350l90 -216l90 216l-90 216z" />
    <glyph glyph-name="uniE0FF" unicode="&#xe0ff;" horiz-adv-x="500" 
 />
    <glyph glyph-name="uniEFFD" unicode="&#xeffd;" horiz-adv-x="500" 
 />
    <glyph glyph-name="uniF000" unicode="&#xf000;" horiz-adv-x="500" 
 />
    <glyph glyph-name="uniF8FF" unicode="&#xf8ff;" horiz-adv-x="634" 
d="M284 494h59v116h156v-116h132v-152h-132v-60q0 -110 -63 -174t-165 -64q-101 0 -165 62q-63 63 -63 163t65 162q64 63 176 63zM343 281v61h-60q-39 0 -61 -20q-21 -20 -21 -52t20 -52q23 -18 51 -20t51 21.5t20 61.5z" />
    <glyph glyph-name="_1" horiz-adv-x="0" 
 />
    <glyph glyph-name="CR.001" horiz-adv-x="333" 
 />
    <glyph glyph-name="NULL" horiz-adv-x="0" 
 />
    <glyph glyph-name="uni00A40301" horiz-adv-x="261" 
d="M291 743h-88l99 135h125zM35 -4q-51 0 -78 12l21 98q27 -9 46 -9q54 0 68 60l115 543h113l-118 -551q-33 -153 -167 -153z" />
    <glyph glyph-name="i.loclTRK" horiz-adv-x="190" 
d="M216 573h-106l24 116h106zM95 0h-108l108 510h108z" />
    <glyph glyph-name="germandbls.calt" horiz-adv-x="412" 
d="M136 700h337l-21 -103l-117 -188q57 -29 57 -104q0 -27 -6 -57l-16 -79q-18 -86 -64.5 -127.5t-126.5 -41.5h-36l21 100h25q53 0 68 70l20 93q3 14 3 23q0 39 -45 39h-23l18 93l112 182h-115l-127 -600h-113z" />
    <glyph glyph-name="zero.tf" 
d="M170 -10q-76 0 -119 36.5t-43 104.5q0 24 6 51l79 370q16 77 61.5 117.5t114.5 40.5q76 0 119 -36.5t43 -104.5q0 -25 -6 -52l-79 -370q-34 -157 -176 -157zM176 90q45 0 59 62l81 383q3 13 3 25q0 50 -55 50q-46 0 -60 -63l-81 -383q-3 -14 -3 -24q0 -50 56 -50z" />
    <glyph glyph-name="one.tf" 
d="M251 0h-113l117 534h-115l9 78q69 0 106 19t67 69h81z" />
    <glyph glyph-name="two.tf" 
d="M303 0h-321l20 96q16 76 53 133q36 55 110 111q73 56 107 98q33 42 43 88q4 15 4 35q0 49 -53 49q-48 0 -62 -62l-17 -82h-106l18 86q35 158 175 158q77 0 117.5 -35t40.5 -101q0 -24 -7 -56q-15 -67 -59 -126.5t-132 -127.5q-58 -44 -82.5 -74t-32.5 -67l-5 -23h210z
" />
    <glyph glyph-name="three.tf" 
d="M167 -10q-77 0 -118 35.5t-41 99.5q0 25 6 55l9 41h105l-12 -57q-3 -14 -3 -25q0 -49 54 -49q50 0 65 72l14 68q5 28 5 37q0 48 -55 48h-41l21 100h36q70 0 87 78l9 42q3 13 3 25q0 50 -50 50q-45 0 -59 -59l-12 -52h-105l12 55q35 156 171 156q73 0 114.5 -34.5
t41.5 -98.5q0 -29 -7 -56l-3 -13q-14 -63 -40.5 -96.5t-71.5 -44.5v-1q60 -28 60 -101q0 -16 -5 -44l-17 -76q-35 -155 -173 -155z" />
    <glyph glyph-name="four.tf" 
d="M282 0h-113l27 127h-210l20 100l300 473h125l-101 -473h52l-21 -100h-52zM277 505l-169 -278h109z" />
    <glyph glyph-name="five.tf" 
d="M172 -10q-77 0 -117.5 35.5t-40.5 101.5q0 25 6 55l9 39h105l-12 -57q-3 -14 -3 -25q0 -49 56 -49q46 0 60 62l33 154q4 15 4 32q0 21 -13.5 33.5t-34.5 12.5q-56 0 -72 -75h-105l105 391h291l-22 -100h-188l-48 -166q45 51 96 51q50 0 78.5 -30.5t28.5 -85.5
q0 -25 -8 -65l-34 -156q-35 -158 -174 -158z" />
    <glyph glyph-name="six.tf" 
d="M172 -10q-78 0 -119.5 36t-41.5 102q0 26 6 54l78 365q34 163 176 163q79 0 120.5 -35.5t41.5 -101.5q0 -23 -6 -52h-106q6 24 6 41q0 48 -57 48q-50 0 -66 -79l-28 -132q40 52 99 52q53 0 81.5 -29.5t28.5 -83.5q0 -32 -7 -59l-29 -132q-36 -157 -177 -157zM176 89
q48 0 61 61l27 127q3 15 3 26q0 48 -53 48q-48 0 -62 -62l-27 -127q-3 -14 -3 -25q0 -48 54 -48z" />
    <glyph glyph-name="seven.tf" 
d="M139 0h-122l306 600h-216l22 100h330l-20 -96z" />
    <glyph glyph-name="eight.tf" 
d="M167 -10q-74 0 -119 36.5t-45 101.5q0 24 6 52l13 61q22 103 101 134l1 2q-45 31 -45 93q0 22 6 49l8 39q35 152 181 152q73 0 116 -35t43 -100q0 -23 -6 -52l-8 -39q-19 -96 -97 -128v-2q48 -34 48 -99q0 -15 -5 -47l-14 -63q-35 -155 -184 -155zM238 410q54 0 67 63
l14 64q3 12 3 23q0 50 -57 50q-49 0 -62 -61l-14 -64q-3 -13 -3 -23q0 -52 52 -52zM175 90q53 0 68 72l15 68q3 15 3 27q0 55 -55 55q-58 0 -73 -71l-14 -66q-3 -17 -3 -29q0 -56 59 -56z" />
    <glyph glyph-name="nine.tf" 
d="M169 -11q-80 0 -121 35.5t-41 101.5q0 24 6 52h106q-6 -24 -6 -41q0 -48 57 -48q50 0 66 79l28 132q-40 -52 -99 -52q-53 0 -81.5 29.5t-28.5 83.5q0 32 7 59l29 132q36 157 177 157q78 0 119.5 -36t41.5 -102q0 -25 -6 -54l-78 -365q-34 -163 -176 -163zM226 348
q48 0 62 62l27 127q3 13 3 25q0 48 -54 48q-48 0 -61 -61l-27 -127q-3 -15 -3 -26q0 -48 53 -48z" />
    <glyph glyph-name="zero.dnom" horiz-adv-x="278" 
d="M101 -10q-49 0 -76.5 23t-27.5 65q0 20 4 35l51 241q22 100 112 100q50 0 76.5 -23.5t26.5 -65.5q0 -19 -4 -34l-52 -241q-22 -100 -110 -100zM101 53q33 0 40 40l54 251l2 14q0 33 -35 33q-33 0 -40 -40l-53 -251q0 -3 -0.5 -6.5t-1 -5.5t-0.5 -3q0 -32 34 -32z" />
    <glyph glyph-name="one.dnom" horiz-adv-x="278" 
d="M143 0h-71l72 339h-70l2 49q41 0 66.5 12.5t47.5 43.5h46z" />
    <glyph glyph-name="two.dnom" horiz-adv-x="278" 
d="M185 0h-203l13 64q10 49 32 82.5t70 69.5q45 35 66.5 62.5t29.5 61.5q2 10 2 19q0 32 -32 32t-41 -41l-9 -44h-67l10 47q23 101 109 101q50 0 76 -22.5t26 -64.5q0 -18 -4 -33q-9 -42 -36.5 -78t-84.5 -81q-38 -29 -53 -49t-20 -45l-4 -18h133z" />
    <glyph glyph-name="three.dnom" horiz-adv-x="278" 
d="M98 -10q-101 0 -101 85q0 22 4 37l6 27h67l-9 -39q0 -3 -0.5 -5.5t-1 -4.5t-0.5 -3.5v-2.5q0 -31 34 -31q31 0 41 46l11 49q3 15 3 24q0 28 -34 28h-28l14 63h23q47 0 57 52l5 22q3 12 3 22q0 32 -36 32q-30 0 -39 -39l-7 -32h-66l7 34q21 100 110 100q101 0 101 -86
q0 -20 -4 -35l-3 -14q-8 -39 -24 -59.5t-46 -28.5v-2q35 -21 35 -65q0 -12 -4 -29l-8 -45q-19 -100 -110 -100z" />
    <glyph glyph-name="four.dnom" horiz-adv-x="278" 
d="M170 0h-71l17 80h-132l12 63l191 301h77l-64 -301h33l-13 -63h-33zM171 323l-110 -180h69z" />
    <glyph glyph-name="five.dnom" horiz-adv-x="278" 
d="M102 -10q-100 0 -100 87q0 14 4 35l3 15h66l-5 -28q0 -3 -0.5 -6.5t-1 -5.5t-0.5 -3q0 -31 35 -31q31 0 39 39l20 103q0 2 0.5 5t1 5t0.5 3.5v2.5q0 31 -35 31q-31 0 -39 -42l-2 -11h-67l67 255h186l-13 -63h-124l-27 -105q21 30 58 30q70 0 70 -72q0 -22 -4 -37
l-22 -107q-21 -100 -110 -100z" />
    <glyph glyph-name="six.dnom" horiz-adv-x="278" 
d="M102 -10q-50 0 -76 23t-26 65q0 19 4 34l51 239q22 103 112 103q103 0 103 -89q0 -14 -3 -29h-68q3 15 3 25q0 30 -35 30q-32 0 -43 -50l-20 -89q26 30 63 30q70 0 70 -70q0 -12 -5 -37l-18 -85q-22 -100 -112 -100zM105 53q31 0 39 39l16 80q0 2 0.5 5t1 5t0.5 3.5v2.5
q0 31 -35 31q-31 0 -39 -39l-16 -81q-1 -4 -1 -15q0 -31 34 -31z" />
    <glyph glyph-name="seven.dnom" horiz-adv-x="278" 
d="M78 0h-77l196 381h-138l13 63h210l-12 -61z" />
    <glyph glyph-name="eight.dnom" horiz-adv-x="278" 
d="M-7 82q0 14 3 31l8 37q14 68 64 86v2q-27 21 -27 59q0 11 4 32l5 25q22 100 117 100q47 0 74 -23.5t27 -67.5q0 -15 -3 -32l-5 -24q-14 -65 -61 -82v-2q30 -23 30 -64q0 -12 -4 -33l-8 -36q-22 -100 -116 -100q-50 0 -79 24t-29 68zM144 263q36 0 44 42l7 36q2 8 2 14
q0 36 -35 36q-33 0 -42 -42l-7 -36q-2 -8 -2 -14q0 -36 33 -36zM104 53q35 0 44 45l10 48q2 18 2 19q0 36 -38 36q-37 0 -46 -46l-10 -48q-2 -18 -2 -19q0 -35 40 -35z" />
    <glyph glyph-name="nine.dnom" horiz-adv-x="278" 
d="M98 -10q-103 0 -103 89q0 14 3 29h68q-3 -15 -3 -25q0 -30 35 -30q31 0 43 50l20 89q-25 -30 -63 -30q-70 0 -70 70q0 12 5 37l18 85q22 100 112 100q50 0 76 -23t26 -65q0 -19 -4 -34l-51 -239q-22 -103 -112 -103zM138 225q32 0 39 39l16 81q1 4 1 15q0 31 -34 31
q-32 0 -39 -39l-16 -80q0 -2 -0.5 -5t-1 -5t-0.5 -3.5v-2.5q0 -31 35 -31z" />
    <glyph glyph-name="zero.numr" horiz-adv-x="278" 
d="M155 246q-49 0 -76.5 23t-27.5 65q0 20 4 35l51 241q22 100 112 100q50 0 76.5 -23.5t26.5 -65.5q0 -19 -4 -34l-52 -241q-22 -100 -110 -100zM155 309q33 0 40 40l54 251q0 3 0.5 6t1 5t0.5 3q0 33 -35 33q-33 0 -40 -40l-53 -251q0 -3 -0.5 -6.5t-1 -5.5t-0.5 -3
q0 -32 34 -32z" />
    <glyph glyph-name="one.numr" horiz-adv-x="279" 
d="M198 256h-71l72 339h-70l2 49q41 0 66.5 12.5t47.5 43.5h46z" />
    <glyph glyph-name="two.numr" horiz-adv-x="278" 
d="M239 256h-203l13 64q10 49 32 82.5t70 69.5q45 35 66.5 62.5t29.5 61.5q2 10 2 19q0 32 -32 32t-41 -41l-9 -44h-67l10 47q23 101 109 101q50 0 76 -22.5t26 -64.5q0 -18 -4 -33q-9 -42 -36.5 -78t-84.5 -81q-38 -29 -53 -49t-20 -45l-4 -18h133z" />
    <glyph glyph-name="three.numr" horiz-adv-x="278" 
d="M152 246q-101 0 -101 85q0 22 4 37l6 27h67l-9 -39q0 -2 -0.5 -5t-1 -5t-0.5 -3.5v-2.5q0 -31 34 -31q31 0 41 46l11 49q3 15 3 24q0 28 -34 28h-28l14 63h23q47 0 57 52l5 22q3 12 3 22q0 32 -36 32q-30 0 -39 -39l-7 -32h-66l7 34q21 100 110 100q101 0 101 -86
q0 -20 -4 -35l-3 -14q-8 -39 -24 -59.5t-46 -28.5v-2q35 -21 35 -65q0 -12 -4 -29l-8 -45q-19 -100 -110 -100z" />
    <glyph glyph-name="four.numr" horiz-adv-x="279" 
d="M225 256h-71l17 80h-132l12 63l191 301h77l-64 -301h33l-13 -63h-33zM226 579l-110 -180h69z" />
    <glyph glyph-name="five.numr" horiz-adv-x="278" 
d="M156 246q-100 0 -100 87q0 14 4 35l3 15h66l-5 -28q0 -3 -0.5 -6.5t-1 -5.5t-0.5 -3q0 -31 35 -31q31 0 39 39l20 103q0 2 0.5 5t1 5t0.5 3.5v2.5q0 31 -35 31q-31 0 -39 -42l-2 -11h-67l67 255h186l-13 -63h-124l-27 -105q21 30 58 30q70 0 70 -72q0 -22 -4 -37
l-22 -107q-21 -100 -110 -100z" />
    <glyph glyph-name="six.numr" horiz-adv-x="277" 
d="M156 246q-50 0 -76 23t-26 65q0 19 4 34l51 239q22 103 112 103q103 0 103 -89q0 -14 -3 -29h-68q3 15 3 25q0 30 -35 30q-32 0 -43 -50l-20 -89q26 30 63 30q70 0 70 -70q0 -12 -5 -37l-18 -85q-22 -100 -112 -100zM159 309q31 0 39 39l16 80q0 3 0.5 5.5t1 4.5t0.5 3.5
v2.5q0 31 -35 31q-31 0 -39 -39l-16 -81q-1 -4 -1 -15q0 -31 34 -31z" />
    <glyph glyph-name="seven.numr" horiz-adv-x="278" 
d="M133 256h-77l196 381h-138l13 63h210l-12 -61z" />
    <glyph glyph-name="eight.numr" horiz-adv-x="278" 
d="M47 338q0 14 3 31l8 37q14 68 64 86v2q-27 21 -27 59q0 11 4 32l5 25q22 100 117 100q47 0 74 -23.5t27 -67.5q0 -15 -3 -32l-5 -24q-14 -65 -61 -82v-2q30 -23 30 -64q0 -12 -4 -33l-8 -36q-22 -100 -116 -100q-50 0 -79 24t-29 68zM198 519q36 0 44 42l7 36q2 8 2 14
q0 36 -35 36q-33 0 -42 -42l-7 -36q-2 -8 -2 -14q0 -36 33 -36zM158 309q35 0 44 45l10 48q2 18 2 19q0 36 -38 36q-37 0 -46 -46l-10 -48q-2 -18 -2 -19q0 -35 40 -35z" />
    <glyph glyph-name="nine.numr" horiz-adv-x="277" 
d="M152 246q-103 0 -103 89q0 14 3 29h68q-3 -15 -3 -25q0 -30 35 -30q31 0 43 50l20 89q-25 -30 -63 -30q-70 0 -70 70q0 12 5 37l18 85q22 100 112 100q50 0 76 -23t26 -65q0 -19 -4 -34l-51 -239q-22 -103 -112 -103zM192 481q32 0 39 39l16 81q1 4 1 15q0 31 -34 31
q-32 0 -39 -39l-16 -80q0 -2 -0.5 -5t-1 -5t-0.5 -3.5v-2.5q0 -31 35 -31z" />
    <glyph glyph-name="caroncomb.alt" horiz-adv-x="0" 
d="M57 494h-47l51 104h-39l22 102h102l-19 -91z" />
    <glyph glyph-name="caron.alt" horiz-adv-x="500" 
d="M307 494h-47l51 104h-39l22 102h102l-19 -91z" />
    </font>
</defs>
</svg>
