<svg xmlns="http://www.w3.org/2000/svg">
<defs>
<font id="BebasNeuePro-Book" horiz-adv-x="400" >
  <font-face 
    font-family="Bebas Neue Pro Book"
    font-weight="350"
    font-stretch="normal"
    units-per-em="1000"
    panose-1="2 11 4 6 2 2 2 5 2 1"
    ascent="811"
    descent="-189"
    x-height="496"
    cap-height="700"
    bbox="-196 -214 795 902"
    underline-thickness="40"
    underline-position="-160"
    unicode-range="U+000D-FB02"
  />
<missing-glyph horiz-adv-x="738" 
d="M54 0v700h630v-700h-630zM152 134h434v432h-434v-432zM168 550h114v-112h-114v112zM346 390h-32v16h-16v80h32v32h-32v32h16v-16h32v-16h16v16h-16v16h32v-16h16v16h16v-32h16v-16h-16v-32h-16v-16h-16v48h-32v-16h16v-32h-16v16h-32v-48h16v32h16v-16h16v16h16v-32h-32
v-32zM426 550h16v-32h-16v32zM458 550h112v-112h-112v112zM184 454h82v80h-82v-80zM474 454h80v80h-80v-80zM200 518h50v-48h-50v48zM490 518h48v-48h-48v48zM410 454v-32h-16v32h16zM442 438h-16v16h16v-16zM200 406v-16h17v-16h-33v16h-16v32h49v-16h-17zM282 422v-16h-16
v-16h-32v16h16v16h32zM426 390v-16h-16v48h16v-16h16v-16h-16zM442 390h16v16h-16v16h64v-16h-16v-16h16v16h16v-16h16v-16h-16v-16h-32v16h-32v-16h-16v32zM570 374h-16v16h-16v32h32v-48zM282 406h16v-32h-32v16h16v16zM378 406h16v-16h-16v16zM362 390v-16h-16v16h16z
M217 358v16h17v-16h-17zM266 358h32v-16h-64v16h16v16h16v-16zM314 326v48h16v-48h-16zM410 358h-16v16h16v-16zM168 358h16v-32h-16v32zM410 342h48v16h32v-32h48v-16h-48v-16h16v-32h16v-16h-16v-16h16v-16h32v-16h16v-16h-32v16h-32v-32h-32v-16h-16v16h-16v-16h-16v32
h-16v-32h-32v16h16v16h-16v-16h-32v16h16v32h-16v-16h-16v32h48v16h16v-32h-16v-16h32v48h16v16h-16v16h-16v-16h-16v32h16v16h16v-16h16v16h-16v32zM378 310v-16h-32v16h16v32h-16v16h32v-16h16v-32h-16zM570 310h-16v16h-16v16h16v16h16v-48zM234 294h-17v16h-17v16h17v16
h17v-32h16v-32h-16v16zM298 326v-32h16v-32h-16v16h-32v16h16v16h-32v16h48zM330 326h16v-16h-16v16zM168 310h32v-16h-32v16zM314 310h16v-16h-16v16zM458 310h-16v-16h16v16zM217 278h-17v16h17v-16zM346 278h-16v16h16v-16zM538 294h16v-16h-16v16zM442 230h48v48h-48

<glyph glyph-name="fi" unicode="fi" horiz-adv-x="412" 
d="M90 496v109q0 105 96 105q33 0 54 -10v-40q-20 10 -48 10q-31 0 -44 -15.5t-13 -52.5v-106h105v-39h-105v-457h-45v457h-69v39h69zM313 577v100h45v-100h-45zM358 0h-45v496h45v-496z" />
    <glyph glyph-name="fl" unicode="fl" horiz-adv-x="412" 
d="M90 496v109q0 105 96 105q33 0 54 -10v-40q-20 10 -48 10q-31 0 -44 -15.5t-13 -52.5v-106h105v-39h-105v-457h-45v457h-69v39h69zM313 0v700h45v-700h-45z" />
    <glyph glyph-name=".notdef" horiz-adv-x="738" 
d="M54 0v700h630v-700h-630zM152 134h434v432h-434v-432zM168 550h114v-112h-114v112zM346 390h-32v16h-16v80h32v32h-32v32h16v-16h32v-16h16v16h-16v16h32v-16h16v16h16v-32h16v-16h-16v-32h-16v-16h-16v48h-32v-16h16v-32h-16v16h-32v-48h16v32h16v-16h16v16h16v-32h-32
v-32zM426 550h16v-32h-16v32zM458 550h112v-112h-112v112zM184 454h82v80h-82v-80zM474 454h80v80h-80v-80zM200 518h50v-48h-50v48zM490 518h48v-48h-48v48zM410 454v-32h-16v32h16zM442 438h-16v16h16v-16zM200 406v-16h17v-16h-33v16h-16v32h49v-16h-17zM282 422v-16h-16
v-16h-32v16h16v16h32zM426 390v-16h-16v48h16v-16h16v-16h-16zM442 390h16v16h-16v16h64v-16h-16v-16h16v16h16v-16h16v-16h-16v-16h-32v16h-32v-16h-16v32zM570 374h-16v16h-16v32h32v-48zM282 406h16v-32h-32v16h16v16zM378 406h16v-16h-16v16zM362 390v-16h-16v16h16z
M217 358v16h17v-16h-17zM266 358h32v-16h-64v16h16v16h16v-16zM314 326v48h16v-48h-16zM410 358h-16v16h16v-16zM168 358h16v-32h-16v32zM410 342h48v16h32v-32h48v-16h-48v-16h16v-32h16v-16h-16v-16h16v-16h32v-16h16v-16h-32v16h-32v-32h-32v-16h-16v16h-16v-16h-16v32
h-16v-32h-32v16h16v16h-16v-16h-32v16h16v32h-16v-16h-16v32h48v16h16v-32h-16v-16h32v48h16v16h-16v16h-16v-16h-16v32h16v16h16v-16h16v16h-16v32zM378 310v-16h-32v16h16v32h-16v16h32v-16h16v-32h-16zM570 310h-16v16h-16v16h16v16h16v-48zM234 294h-17v16h-17v16h17v16
h17v-32h16v-32h-16v16zM298 326v-32h16v-32h-16v16h-32v16h16v16h-32v16h48zM330 326h16v-16h-16v16zM168 310h32v-16h-32v16zM314 310h16v-16h-16v16zM458 310h-16v-16h16v16zM217 278h-17v16h17v-16zM346 278h-16v16h16v-16zM538 294h16v-16h-16v16zM442 230h48v48h-48
v-48zM522 278h16v-16h-16v16zM538 230v16h16v32h16v-64h-16v16h-16zM168 262h114v-112h-114v112zM314 246v16h16v-32h-32v16h16zM362 246h-16v16h16v-16zM458 262h16v-16h-16v16zM184 166h82v80h-82v-80zM200 230h50v-48h-50v48zM426 198h16v16h-16v-16zM458 182h32v32h-32
v-32zM298 198h32v-32h16v-16h-48v48zM522 166v-16h-16v16h16zM570 150h-16v16h16v-16z" />
    <glyph glyph-name=".null" horiz-adv-x="0" 
 />
    <glyph glyph-name="nonmarkingreturn" horiz-adv-x="333" 
 />
    <glyph glyph-name="CR" unicode="&#xd;" horiz-adv-x="166" 
 />
    <glyph glyph-name="space" unicode=" " horiz-adv-x="166" 
 />
    <glyph glyph-name="exclam" unicode="!" horiz-adv-x="182" 
d="M109 166h-35l-6 169v366h46v-366zM115 0h-48v91h48v-91z" />
    <glyph glyph-name="quotedbl" unicode="&#x22;" horiz-adv-x="255" 
d="M90 519h-26l-11 181h48zM191 519h-26l-11 181h48z" />
    <glyph glyph-name="numbersign" unicode="#" 
d="M106 0h-39l23 222h-64l3 35h65l23 226h-65l3 35h66l18 183h39l-18 -183h116l19 183h39l-19 -183h60l-3 -35h-60l-23 -226h59l-3 -35h-60l-23 -222h-39l23 222h-117zM156 483l-23 -226h117l22 226h-116z" />
    <glyph glyph-name="dollar" unicode="$" 
d="M352 165q0 -66 -34 -106t-96 -47v-67h-39v67q-63 4 -98 45t-35 108v40h44v-43q0 -47 23.5 -75t65.5 -33v285q-76 58 -104 99q-28 43 -28 100q0 64 35 104.5t97 45.5v57h39v-57q60 -6 93.5 -46.5t33.5 -106.5v-23h-44v26q0 45 -21.5 73.5t-61.5 33.5v-277q76 -57 102 -100
q28 -43 28 -103zM97 541q0 -41 18.5 -71t67.5 -72v248q-40 -5 -63 -33t-23 -72zM222 309v-254q84 13 84 108q0 43 -18 75q-17 30 -66 71z" />
    <glyph glyph-name="percent" unicode="%" horiz-adv-x="577" 
d="M34 417v185q0 52 26 80.5t74 28.5t74 -28.5t26 -80.5v-185q0 -52 -26 -80.5t-74 -28.5t-74 28.5t-26 80.5zM170 0h-38l274 700h37zM196 414v191q0 72 -62 72t-62 -72v-191q0 -72 62 -72t62 72zM343 99v185q0 52 26 80.5t74 28.5t74 -28.5t26 -80.5v-185q0 -52 -26 -80.5
t-74 -28.5t-74 28.5t-26 80.5zM505 96v191q0 72 -62 72t-62 -72v-191q0 -72 62 -72t62 72z" />
    <glyph glyph-name="ampersand" unicode="&#x26;" horiz-adv-x="409" 
d="M379 380v-41h-33v-213q0 -87 11 -126h-42q-7 23 -8 75q-37 -85 -132 -85q-62 0 -95 36t-33 106v88q0 115 86 141v1q-85 28 -85 141v42q0 80 38 122.5t111 42.5q149 0 149 -166v-18h-43v22q0 120 -105 120q-52 0 -79 -31.5t-27 -90.5v-51q0 -55 28.5 -85t78.5 -30h180z
M302 172v167h-104q-106 0 -106 -119v-83q0 -107 93 -107q52 0 84.5 39t32.5 103z" />
    <glyph glyph-name="quotesingle" unicode="'" horiz-adv-x="154" 
d="M90 519h-27l-10 181h48z" />
    <glyph glyph-name="parenleft" unicode="(" horiz-adv-x="256" 
d="M220 -100h-26q-66 0 -98.5 31t-32.5 104v530q0 68 30.5 101.5t100.5 33.5h26v-38h-23q-45 0 -67 -22t-22 -75v-530q0 -49 20.5 -73t68.5 -24h23v-38z" />
    <glyph glyph-name="parenright" unicode=")" horiz-adv-x="256" 
d="M61 -100h-24v38h22q46 0 68 22.5t22 74.5v530q0 50 -21 73.5t-69 23.5h-22v38h24q67 0 100 -32t33 -103v-530q0 -68 -31 -101.5t-102 -33.5z" />
    <glyph glyph-name="asterisk" unicode="*" horiz-adv-x="389" 
d="M194 513l-80 -126l-31 22l92 118l-145 36l12 37l141 -51l-8 151h39l-8 -151l141 49l12 -37l-145 -34l92 -117l-31 -23z" />
    <glyph glyph-name="plus" unicode="+" 
d="M221 131h-42v149h-146v41h146v148h42v-148h146v-41h-146v-149z" />
    <glyph glyph-name="comma" unicode="," horiz-adv-x="166" 
d="M72 -96h-22l27 96h-18v91h48v-87z" />
    <glyph glyph-name="hyphen" unicode="-" horiz-adv-x="260" 
d="M225 281h-190v38h190v-38z" />
    <glyph glyph-name="period" unicode="." horiz-adv-x="166" 
d="M107 0h-48v91h48v-91z" />
    <glyph glyph-name="slash" unicode="/" horiz-adv-x="359" 
d="M62 -100h-41l276 800h41z" />
    <glyph glyph-name="zero" unicode="0" 
d="M199 -10q-74 0 -113.5 43.5t-39.5 125.5v382q0 82 39.5 125.5t113.5 43.5q75 0 115 -43.5t40 -125.5v-382q0 -82 -40 -125.5t-115 -43.5zM199 32q109 0 109 124v388q0 124 -109 124q-107 0 -107 -124v-388q0 -124 107 -124z" />
    <glyph glyph-name="one" unicode="1" horiz-adv-x="262" 
d="M201 0h-46v610q-38 -41 -125 -45v38q105 8 136 98h35v-701z" />
    <glyph glyph-name="two" unicode="2" horiz-adv-x="367" 
d="M332 0h-298v43q0 89 34 150q36 65 104 134q63 66 90 110q29 47 29 103q0 128 -105 128q-109 0 -109 -124v-50h-43v47q0 79 37.5 124t115.5 45q75 0 112.5 -45t37.5 -124q0 -63 -30 -117t-98 -123q-52 -54 -68 -74q-26 -31 -44 -76.5t-18 -93.5v-15h253v-42z" />
    <glyph glyph-name="three" unicode="3" horiz-adv-x="378" 
d="M185 -10q-77 0 -115 44t-38 124v48h44v-50q0 -124 108 -124t108 128v66q0 118 -105 118h-46v43h47q48 0 75.5 30.5t27.5 85.5v40q0 125 -106 125q-105 0 -105 -123v-36h-44v33q0 168 151 168q74 0 112 -43.5t38 -124.5v-31q0 -116 -86 -143v-1q87 -23 87 -141v-68
q0 -168 -153 -168z" />
    <glyph glyph-name="four" unicode="4" horiz-adv-x="396" 
d="M313 0h-46v155h-243v43l236 502h53v-503h60v-42h-60v-155zM267 618l-197 -421h197v421z" />
    <glyph glyph-name="five" unicode="5" horiz-adv-x="379" 
d="M190 -10q-77 0 -115 44.5t-38 124.5v40h44v-43q0 -124 109 -124q107 0 107 124v145q0 119 -97 119q-83 0 -113 -85l-1 -6h-43l19 371h266v-42h-225l-14 -260q40 64 124 64q64 0 97 -40.5t33 -117.5v-145q0 -169 -153 -169z" />
    <glyph glyph-name="six" unicode="6" horiz-adv-x="392" 
d="M46 159v380q0 171 153 171q74 0 113 -43t39 -126v-12h-44v15q0 124 -107 124q-108 0 -108 -131v-182q35 78 127 78q135 0 135 -163v-111q0 -82 -40 -125.5t-114 -43.5t-114 43.5t-40 125.5zM308 156v111q0 124 -101 124q-51 0 -83 -38.5t-32 -98.5v-98q0 -124 108 -124
t108 124z" />
    <glyph glyph-name="seven" unicode="7" horiz-adv-x="356" 
d="M120 0h-48l214 658h-264v42h310v-42z" />
    <glyph glyph-name="eight" unicode="8" horiz-adv-x="396" 
d="M39 158v68q0 114 87 141v1q-83 30 -83 140v37q0 80 39.5 122.5t115.5 42.5t115.5 -42.5t39.5 -122.5v-37q0 -110 -83 -140v-1q87 -27 87 -141v-68q0 -80 -40 -124t-119 -44t-119 44t-40 124zM307 500v46q0 122 -109 122t-109 -122v-46q0 -54 28 -83.5t81 -29.5t81 29.5
t28 83.5zM311 160v70q0 114 -113 114t-113 -114v-70q0 -128 113 -128t113 128z" />
    <glyph glyph-name="nine" unicode="9" horiz-adv-x="392" 
d="M193 -10q-74 0 -113 43t-39 126v12h44v-15q0 -124 107 -124q108 0 108 131v182q-34 -78 -127 -78q-135 0 -135 163v111q0 82 40 125.5t114 43.5t114 -43.5t40 -125.5v-380q0 -171 -153 -171zM185 309q51 0 83 38.5t32 98.5v98q0 124 -108 124t-108 -124v-111
q0 -124 101 -124z" />
    <glyph glyph-name="colon" unicode=":" horiz-adv-x="166" 
d="M107 381h-48v91h48v-91zM107 0h-48v91h48v-91z" />
    <glyph glyph-name="semicolon" unicode=";" horiz-adv-x="166" 
d="M107 381h-48v91h48v-91zM72 -96h-22l27 96h-18v91h48v-87z" />
    <glyph glyph-name="less" unicode="&#x3c;" 
d="M345 181v-44l-294 143v40l294 143v-44l-244 -119z" />
    <glyph glyph-name="equal" unicode="=" 
d="M357 360h-314v42h314v-42zM357 198h-314v42h314v-42z" />
    <glyph glyph-name="greater" unicode="&#x3e;" 
d="M350 280l-294 -143v44l244 119l-244 119v44l294 -143v-40z" />
    <glyph glyph-name="question" unicode="?" horiz-adv-x="363" 
d="M184 166h-41v39q0 46 17 84.5t56 93.5q34 46 53 86q16 33 16 81q0 118 -104 118q-106 0 -106 -124v-50h-44v47q0 80 38.5 124.5t112.5 44.5t111.5 -42.5t37.5 -120.5q0 -49 -17.5 -89.5t-57.5 -91.5q-36 -47 -55 -84q-17 -36 -17 -78v-38zM187 0h-48v91h48v-91z" />
    <glyph glyph-name="at" unicode="@" horiz-adv-x="699" 
d="M499 500l-26 -246l-4 -32q-10 -79 44 -79q50 0 79 83q29 85 29 189q0 122 -64.5 188.5t-182.5 66.5q-101 0 -168 -58q-129 -108 -124 -358q2 -147 76 -225.5t213 -78.5q99 0 167 51l-3 -47q-68 -44 -163 -44q-161 0 -247 90t-86 258q0 203 85 327q86 125 249 125
q138 0 213 -77.5t75 -219.5q0 -81 -16 -146q-15 -68 -52 -117q-36 -48 -89 -48q-68 0 -76 71q-36 -71 -109 -71q-56 0 -81 35t-19 97l15 154q12 122 112 122q75 0 103 -67l6 57h44zM331 142q37 0 63.5 29.5t34.5 81.5v4l9 86q6 56 -17 92t-67 36q-65 0 -76 -89l-15 -144
q-11 -96 68 -96z" />
    <glyph glyph-name="A" unicode="A" 
d="M377 0h-47l-34 161h-196l-33 -161h-44l145 700h62zM197 637l-89 -435h180z" />
    <glyph glyph-name="B" unicode="B" 
d="M210 0h-156v700h146q81 0 117 -37.5t36 -120.5v-30q0 -115 -84 -142v-2q95 -24 95 -149v-59q0 -82 -37 -121t-117 -39zM100 658v-272h89q61 0 89.5 28t28.5 90v34q0 64 -25 92t-83 28h-99zM100 344v-302h110q57 0 82.5 28t25.5 91v59q0 67 -29 95.5t-98 28.5h-91z" />
    <glyph glyph-name="C" unicode="C" horiz-adv-x="383" 
d="M196 -10q-70 0 -109.5 43t-39.5 119v396q0 76 39.5 119t109.5 43q72 0 111.5 -43t39.5 -119v-71h-44v73q0 56 -28.5 87t-77.5 31q-48 0 -76 -31t-28 -87v-400q0 -56 28 -87t76 -31q49 0 77.5 31t28.5 87v93h44v-91q0 -76 -39.5 -119t-111.5 -43z" />
    <glyph glyph-name="D" unicode="D" horiz-adv-x="405" 
d="M206 0h-152v700h152q79 0 116 -40.5t37 -126.5v-366q0 -86 -37 -126.5t-116 -40.5zM100 658v-616h105q57 0 82.5 28.5t25.5 94.5v370q0 66 -25.5 94.5t-82.5 28.5h-105z" />
    <glyph glyph-name="E" unicode="E" horiz-adv-x="352" 
d="M328 0h-274v700h274v-42h-228v-272h189v-42h-189v-302h228v-42z" />
    <glyph glyph-name="F" unicode="F" horiz-adv-x="340" 
d="M100 0h-46v700h265v-42h-219v-281h180v-42h-180v-335z" />
    <glyph glyph-name="G" unicode="G" horiz-adv-x="394" 
d="M198 -10q-74 0 -113 43.5t-39 125.5v382q0 82 39 125.5t113 43.5q75 0 114.5 -43.5t39.5 -125.5v-54h-44v57q0 124 -109 124q-107 0 -107 -124v-388q0 -124 107 -124q109 0 109 124v176h-99v43h143v-216q0 -82 -39.5 -125.5t-114.5 -43.5z" />
    <glyph glyph-name="H" unicode="H" horiz-adv-x="415" 
d="M100 0h-46v700h46v-314h215v314h46v-700h-46v344h-215v-344z" />
    <glyph glyph-name="I" unicode="I" horiz-adv-x="154" 
d="M100 0h-46v700h46v-700z" />
    <glyph glyph-name="J" unicode="J" horiz-adv-x="259" 
d="M73 -4q-31 0 -51 7v43q24 -8 46 -8q49 0 71.5 26t22.5 83v553h46v-552q0 -77 -33 -114.5t-102 -37.5z" />
    <glyph glyph-name="K" unicode="K" horiz-adv-x="402" 
d="M380 0h-49l-142 385l-89 -148v-237h-46v700h46v-385l229 385h49l-159 -265z" />
    <glyph glyph-name="L" unicode="L" horiz-adv-x="340" 
d="M319 0h-265v700h46v-658h219v-42z" />
    <glyph glyph-name="M" unicode="M" horiz-adv-x="516" 
d="M97 0h-43v700h72l132 -611l132 611h72v-700h-46v637l-139 -637h-41l-139 637v-637z" />
    <glyph glyph-name="N" unicode="N" horiz-adv-x="422" 
d="M98 0h-44v700h64l206 -582v582h44v-700h-51l-219 626v-626z" />
    <glyph glyph-name="O" unicode="O" 
d="M46 159v382q0 82 40 125.5t114 43.5t114 -43.5t40 -125.5v-382q0 -82 -40 -125.5t-114 -43.5t-114 43.5t-40 125.5zM308 156v388q0 124 -108 124t-108 -124v-388q0 -124 108 -124t108 124z" />
    <glyph glyph-name="P" unicode="P" horiz-adv-x="381" 
d="M100 0h-46v700h144q79 0 116 -40.5t37 -126.5v-51q0 -86 -37 -126t-116 -40h-98v-316zM100 658v-300h98q57 0 82 28t25 94v56q0 66 -25 94t-82 28h-98z" />
    <glyph glyph-name="Q" unicode="Q" 
d="M366 -23h13v-42h-17q-74 0 -95 66q-33 -11 -67 -11q-74 0 -114 43.5t-40 125.5v382q0 82 40 125.5t114 43.5t114 -43.5t40 -125.5v-382q0 -95 -54 -139q8 -24 23.5 -33.5t42.5 -9.5zM92 544v-388q0 -124 108 -124t108 124v388q0 124 -108 124t-108 -124z" />
    <glyph glyph-name="R" unicode="R" horiz-adv-x="398" 
d="M100 0h-46v700h144q81 0 117 -37.5t36 -120.5v-43q0 -121 -90 -143v-1q47 -10 68.5 -44.5t21.5 -98.5v-128q0 -54 9 -84h-47q-8 37 -8 84v130q0 64 -26.5 90.5t-89.5 26.5h-89v-331zM100 658v-284h87q61 0 89.5 27.5t28.5 89.5v47q0 64 -25 92t-83 28h-97z" />
    <glyph glyph-name="S" unicode="S" horiz-adv-x="367" 
d="M183 -10q-72 0 -111 43t-39 120v38h44v-41q0 -57 28 -87.5t78 -30.5t78 30.5t28 87.5q0 54 -27 94q-26 41 -94 94q-76 58 -106 105q-29 47 -29 107q0 75 39.5 117.5t110.5 42.5t109.5 -42.5t38.5 -120.5v-27h-44v30q0 57 -27 87.5t-77 30.5q-49 0 -76.5 -30t-27.5 -85
q0 -49 27 -89q27 -39 97 -94q73 -57 103 -106q29 -47 29 -111q0 -77 -39.5 -120t-112.5 -43z" />
    <glyph glyph-name="T" unicode="T" horiz-adv-x="354" 
d="M200 0h-46v658h-133v42h312v-42h-133v-658z" />
    <glyph glyph-name="U" unicode="U" horiz-adv-x="404" 
d="M50 159v541h46v-544q0 -124 107 -124q106 0 106 124v544h45v-541q0 -82 -39 -125.5t-113 -43.5t-113 43.5t-39 125.5z" />
    <glyph glyph-name="V" unicode="V" horiz-adv-x="394" 
d="M230 0h-63l-144 700h47l130 -638l128 638h43z" />
    <glyph glyph-name="W" unicode="W" horiz-adv-x="558" 
d="M190 0h-65l-100 700h45l91 -637l91 637h56l92 -637l91 637h42l-100 -700h-63l-90 610z" />
    <glyph glyph-name="X" unicode="X" horiz-adv-x="395" 
d="M67 0h-45l148 357l-142 343h49l122 -295l122 295h46l-143 -343l149 -357h-50l-128 310z" />
    <glyph glyph-name="Y" unicode="Y" horiz-adv-x="386" 
d="M216 0h-46v316l-149 384h49l124 -323l125 323h46l-149 -384v-316z" />
    <glyph glyph-name="Z" unicode="Z" horiz-adv-x="351" 
d="M325 0h-300v41l250 617h-240v42h290v-41l-250 -617h250v-42z" />
    <glyph glyph-name="bracketleft" unicode="[" horiz-adv-x="256" 
d="M222 -100h-156v800h156v-38h-111v-724h111v-38z" />
    <glyph glyph-name="backslash" unicode="\" horiz-adv-x="358" 
d="M337 -100h-40l-276 800h40z" />
    <glyph glyph-name="bracketright" unicode="]" horiz-adv-x="256" 
d="M191 -100h-156v38h111v724h-111v38h156v-800z" />
    <glyph glyph-name="asciicircum" unicode="^" 
d="M85 431h-47l142 269h40l142 -269h-47l-115 217z" />
    <glyph glyph-name="underscore" unicode="_" horiz-adv-x="300" 
d="M300 -93h-300v32h300v-32z" />
    <glyph glyph-name="grave" unicode="`" horiz-adv-x="500" 
d="M288 567h-40l-85 120h54z" />
    <glyph glyph-name="a" unicode="a" horiz-adv-x="362" 
d="M320 0h-42q-6 24 -7 76q-35 -86 -126 -86q-53 0 -83 32t-30 88t28.5 92t98.5 67q73 33 89 46q18 17 18 46v14q0 43 -23 67t-64 24q-43 0 -68 -25t-25 -70v-11h-42v9q0 65 36 101t100 36q63 0 96.5 -35.5t33.5 -101.5v-242q0 -88 10 -127zM156 30q50 0 80 38.5t30 104.5
v116q-13 -20 -94 -56q-51 -22 -73 -50t-22 -69q0 -40 20.5 -62t58.5 -22z" />
    <glyph glyph-name="b" unicode="b" horiz-adv-x="380" 
d="M215 506q119 0 119 -142v-231q0 -143 -119 -143q-89 0 -122 88l-6 -78h-33v700h45v-268q36 74 116 74zM290 137v222q0 107 -85 107q-48 0 -77 -38.5t-29 -103.5v-152q0 -65 29 -103.5t77 -38.5q85 0 85 107z" />
    <glyph glyph-name="c" unicode="c" horiz-adv-x="355" 
d="M184 -10q-68 0 -103.5 40.5t-35.5 116.5v202q0 157 139 157q136 0 136 -157v-13h-43v17q0 113 -93 113q-94 0 -94 -113v-210q0 -113 94 -113q93 0 93 113v28h43v-24q0 -157 -136 -157z" />
    <glyph glyph-name="d" unicode="d" horiz-adv-x="380" 
d="M335 0h-41q-7 26 -8 77q-16 -41 -47.5 -64t-73.5 -23q-119 0 -119 143v231q0 142 119 142q80 0 116 -74v268h45v-573q0 -91 9 -127zM175 30q48 0 77 38.5t29 103.5v152q0 65 -29 103.5t-77 38.5q-84 0 -84 -107v-222q0 -107 84 -107z" />
    <glyph glyph-name="e" unicode="e" horiz-adv-x="366" 
d="M185 506q68 0 104.5 -41t36.5 -118v-100h-236v-102q0 -115 95 -115q97 0 97 115v12h44v-8q0 -77 -36.5 -118t-104.5 -41q-69 0 -104.5 40.5t-35.5 118.5v198q0 78 35.5 118.5t104.5 40.5zM90 351v-64h192v64q0 115 -97 115q-95 0 -95 -115z" />
    <glyph glyph-name="f" unicode="f" horiz-adv-x="259" 
d="M192 670q-31 0 -44 -15.5t-13 -52.5v-106h105v-39h-105v-457h-45v457h-69v39h69v109q0 105 96 105q33 0 54 -10v-40q-20 10 -48 10z" />
    <glyph glyph-name="g" unicode="g" horiz-adv-x="378" 
d="M285 422l1 74h38v-518q0 -143 -138 -143q-66 0 -101 31.5t-35 90.5v5h43v-6q0 -81 93 -81q94 0 94 101v107q-36 -74 -116 -74q-119 0 -119 143v212q0 142 119 142q86 0 121 -84zM174 49q48 0 77 38.5t29 103.5v133q0 65 -29 103.5t-77 38.5q-84 0 -84 -107v-203
q0 -107 84 -107z" />
    <glyph glyph-name="h" unicode="h" horiz-adv-x="380" 
d="M213 506q117 0 117 -142v-364h-45v357q0 109 -82 109q-48 0 -76 -38t-28 -104v-324h-45v700h45v-264q36 70 114 70z" />
    <glyph glyph-name="i" unicode="i" horiz-adv-x="153" 
d="M99 577h-45v100h45v-100zM99 0h-45v496h45v-496z" />
    <glyph glyph-name="j" unicode="j" horiz-adv-x="153" 
d="M99 577h-45v100h45v-100zM22 -165q-26 0 -42 10v40q19 -10 37 -10q20 0 28.5 10.5t8.5 38.5v572h45v-574q0 -87 -77 -87z" />
    <glyph glyph-name="k" unicode="k" horiz-adv-x="372" 
d="M350 0h-50l-123 265l-78 -108v-157h-45v700h45v-478l195 274h50l-137 -189z" />
    <glyph glyph-name="l" unicode="l" horiz-adv-x="153" 
d="M99 0h-45v700h45v-700z" />
    <glyph glyph-name="m" unicode="m" horiz-adv-x="591" 
d="M429 506q112 0 112 -133v-373h-45v369q0 97 -77 97q-45 0 -72 -38.5t-27 -103.5v-324h-45v369q0 97 -77 97q-45 0 -72 -38.5t-27 -103.5v-324h-45v496h38l1 -72q33 82 115 82q87 0 106 -82q33 82 115 82z" />
    <glyph glyph-name="n" unicode="n" horiz-adv-x="380" 
d="M213 506q117 0 117 -142v-364h-45v357q0 109 -82 109q-48 0 -76 -38t-28 -104v-324h-45v496h39l1 -72q33 82 119 82z" />
    <glyph glyph-name="o" unicode="o" horiz-adv-x="368" 
d="M44 149v198q0 77 36 118t104 41t104 -41t36 -118v-198q0 -77 -36 -118t-104 -41t-104 41t-36 118zM279 145v206q0 115 -95 115t-95 -115v-206q0 -115 95 -115t95 115z" />
    <glyph glyph-name="p" unicode="p" horiz-adv-x="380" 
d="M215 506q119 0 119 -142v-231q0 -143 -119 -143q-80 0 -116 74v-219h-45v651h38l1 -77q34 87 122 87zM289 137v222q0 107 -84 107q-48 0 -77 -38.5t-29 -103.5v-152q0 -65 29 -103.5t77 -38.5q84 0 84 107z" />
    <glyph glyph-name="q" unicode="q" horiz-adv-x="380" 
d="M287 419l6 77h33v-651h-45v219q-36 -74 -116 -74q-119 0 -119 143v231q0 142 119 142q43 0 74.5 -23t47.5 -64zM175 30q48 0 77 38.5t29 103.5v152q0 65 -29 103.5t-77 38.5q-84 0 -84 -107v-222q0 -107 84 -107z" />
    <glyph glyph-name="r" unicode="r" horiz-adv-x="256" 
d="M204 506q22 0 35 -6v-45q-14 7 -34 7q-106 0 -106 -170v-292h-45v496h38l1 -80q29 90 111 90z" />
    <glyph glyph-name="s" unicode="s" horiz-adv-x="336" 
d="M170 -10q-64 0 -100.5 35.5t-36.5 98.5v18h43v-19q0 -45 24.5 -69t67.5 -24t67.5 23.5t24.5 67.5q0 39 -23 61.5t-77 48.5q-53 25 -82 50q-40 34 -40 98q0 58 34.5 92.5t93.5 34.5q58 0 93.5 -35t35.5 -97v-9h-42v10q0 44 -23 67.5t-63 23.5q-39 0 -62.5 -23t-23.5 -64
q0 -43 32 -69q30 -22 69 -40q52 -25 82 -51q40 -33 40 -98q0 -62 -35.5 -96.5t-98.5 -34.5z" />
    <glyph glyph-name="t" unicode="t" horiz-adv-x="258" 
d="M236 496v-39h-105v-359q0 -37 13 -52.5t44 -15.5q28 0 48 10v-40q-21 -10 -54 -10q-96 0 -96 105v362h-66v39h67l6 152h38v-152h105z" />
    <glyph glyph-name="u" unicode="u" horiz-adv-x="380" 
d="M281 172v324h45v-496h-39l-1 72q-33 -82 -119 -82q-117 0 -117 142v364h45v-357q0 -109 82 -109q48 0 76 38t28 104z" />
    <glyph glyph-name="v" unicode="v" horiz-adv-x="354" 
d="M206 0h-58l-125 496h46l110 -437l109 437h43z" />
    <glyph glyph-name="w" unicode="w" horiz-adv-x="527" 
d="M181 0h-58l-98 496h45l86 -431l83 431h52l84 -431l85 431h42l-97 -496h-56l-84 411z" />
    <glyph glyph-name="x" unicode="x" horiz-adv-x="358" 
d="M69 0h-45l127 254l-122 242h49l102 -205l103 205h45l-122 -242l128 -254h-50l-107 218z" />
    <glyph glyph-name="y" unicode="y" horiz-adv-x="350" 
d="M285 496h42l-116 -463l-26 -102q-13 -52 -36 -74t-66 -22q-29 0 -45 10v40q16 -10 41 -10q26 0 39 12.5t22 48.5l18 69l-136 491h46l114 -415z" />
    <glyph glyph-name="z" unicode="z" horiz-adv-x="323" 
d="M294 0h-266v38l217 419h-207v39h256v-38l-217 -419h217v-39z" />
    <glyph glyph-name="braceleft" unicode="{" horiz-adv-x="256" 
d="M224 -100h-33q-47 0 -70.5 24.5t-23.5 79.5v187q0 50 -14.5 69.5t-51.5 19.5v40q37 0 51.5 19t14.5 67v190q0 104 94 104h33v-41h-17q-37 0 -51 -18t-14 -65v-177q0 -85 -56 -99v-1q56 -14 56 -101v-174q0 -47 14 -65t51 -18h17v-41z" />
    <glyph glyph-name="bar" unicode="|" horiz-adv-x="300" 
d="M171 -200h-42v1001h42v-1001z" />
    <glyph glyph-name="braceright" unicode="}" horiz-adv-x="256" 
d="M65 -100h-32v41h16q38 0 52 18t14 65v174q0 87 56 101v1q-56 14 -56 99v177q0 47 -14 65t-52 18h-16v41h32q95 0 95 -104v-190q0 -48 14.5 -67t51.5 -19v-40q-37 0 -51.5 -19.5t-14.5 -69.5v-187q0 -55 -24 -79.5t-71 -24.5z" />
    <glyph glyph-name="asciitilde" unicode="~" 
d="M53 243l-31 23q25 45 49 66t56 21q31 0 78 -32t69 -32t38 15t37 52l31 -23q-25 -45 -49.5 -66t-56.5 -21q-29 0 -78 32l-28 19q-23 13 -40 13q-22 0 -38.5 -15.5t-36.5 -51.5z" />
    <glyph glyph-name="uni00A0" unicode="&#xa0;" horiz-adv-x="166" 
 />
    <glyph glyph-name="exclamdown" unicode="&#xa1;" horiz-adv-x="182" 
d="M115 405h-48v91h48v-91zM114 -205h-46v366l5 169h35l6 -169v-366z" />
    <glyph glyph-name="cent" unicode="&#xa2;" 
d="M354 486v-28h-43v30q0 50 -23 80.5t-65 36.5v-511q42 6 65 36.5t23 80.5v50h43v-48q0 -71 -34 -113.5t-97 -47.5v-72h-39v72q-61 6 -95 48t-34 113v273q0 71 34 113t95 48v63h39v-63q63 -5 97 -47.5t34 -113.5zM101 488v-277q0 -49 22 -79.5t61 -36.5v509
q-39 -6 -61 -36.5t-22 -79.5z" />
    <glyph glyph-name="sterling" unicode="&#xa3;" 
d="M355 0h-310v40q100 88 100 185q0 18 -3 36h-90v40h82q-8 20 -32 68q-45 89 -45 178q0 75 37.5 119t111.5 44q76 0 113.5 -45.5t37.5 -123.5v-24h-43v27q0 124 -107 124q-104 0 -104 -124q0 -54 13 -94q9 -30 33 -82.5t28 -66.5h148v-40h-139q3 -17 3 -33q0 -85 -91 -186
h257v-42z" />
    <glyph glyph-name="currency" unicode="&#xa4;" 
d="M293 280l54 -52l-25 -25l-52 54q-31 -23 -70 -23t-70 23l-52 -54l-25 25l54 52q-23 29 -23 70t23 70l-54 52l25 25l52 -54q31 23 70 23t70 -23l52 54l25 -25l-54 -52q23 -29 23 -70t-23 -70zM144 294q22 -22 56 -22t56 22t22 56t-22 56t-56 22t-56 -22t-22 -56t22 -56z
" />
    <glyph glyph-name="yen" unicode="&#xa5;" 
d="M326 700h46l-149 -383h116v-40h-116v-101h116v-40h-116v-136h-46v136h-114v40h114v101h-114v40h114l-149 383h49l124 -324z" />
    <glyph glyph-name="brokenbar" unicode="&#xa6;" horiz-adv-x="300" 
d="M171 400h-42v400h42v-400zM171 -200h-42v400h42v-400z" />
    <glyph glyph-name="section" unicode="&#xa7;" horiz-adv-x="416" 
d="M279 156q73 -45 73 -125q0 -62 -40.5 -100t-103.5 -38q-64 0 -104 38.5t-40 103.5v11h43v-12q0 -47 27.5 -74t73.5 -27q43 0 71.5 26.5t28.5 70.5q0 49 -39 77q-31 23 -83 45q-45 19 -55 25q-16 9 -44 30q-47 37 -47 106q0 52 25.5 86.5t72.5 47.5q-74 47 -74 125
q0 62 40.5 100t103.5 38q64 0 104 -38.5t40 -103.5v-11h-43v12q0 47 -27.5 74t-73.5 27q-43 0 -71.5 -26.5t-28.5 -70.5q0 -49 38 -77q32 -23 84 -45q61 -26 98 -55q48 -36 48 -106q0 -51 -25.5 -86t-71.5 -48zM85 317q0 -50 38 -80q31 -22 85 -46l22 -10q48 2 74.5 29.5
t26.5 75.5q0 51 -39 79q-29 23 -84 47l-22 10q-46 -2 -73.5 -30t-27.5 -75z" />
    <glyph glyph-name="dieresis" unicode="&#xa8;" horiz-adv-x="500" 
d="M217 577h-45v100h45v-100zM328 577h-45v100h45v-100z" />
    <glyph glyph-name="copyright" unicode="&#xa9;" horiz-adv-x="768" 
d="M633 92q-99 -102 -249 -102t-249 102q-99 104 -99 258q0 155 99 257q99 103 249 103t249 -103q99 -102 99 -257q0 -154 -99 -258zM162 119q88 -91 222 -91t221 91q88 91 88 231t-88 231q-87 91 -221 91t-222 -91q-87 -91 -87 -231t87 -231zM275 248v203q0 118 106 118
t106 -118v-25h-38v28q0 78 -67 78t-67 -78v-208q0 -77 67 -77t67 77v41h38v-39q0 -117 -106 -117t-106 117z" />
    <glyph glyph-name="ordfeminine" unicode="&#xaa;" horiz-adv-x="285" 
d="M125 539q47 20 61 32q13 12 13 33v10q0 29 -15.5 45.5t-43.5 16.5q-30 0 -47 -17t-17 -48v-9h-36v8q0 47 27 73.5t73 26.5q96 0 96 -102v-172q0 -66 7 -93h-35q-3 12 -5 48q-26 -56 -88 -56q-39 0 -61.5 23.5t-22.5 63.5q0 42 21 68t73 49zM123 369q35 0 55.5 25.5
t20.5 71.5v83q-9 -16 -66 -41q-64 -28 -64 -82q0 -26 14.5 -41.5t39.5 -15.5zM237 237h-199v34h199v-34z" />
    <glyph glyph-name="guillemotleft" unicode="&#xab;" horiz-adv-x="266" 
d="M124 208h-35l-53 92l53 90h35l-44 -90zM228 208h-35l-52 92l52 90h35l-43 -90z" />
    <glyph glyph-name="logicalnot" unicode="&#xac;" 
d="M355 165h-41v149h-293v41h334v-190z" />
    <glyph glyph-name="uni00AD" unicode="&#xad;" horiz-adv-x="260" 
d="M225 281h-190v38h190v-38z" />
    <glyph glyph-name="registered" unicode="&#xae;" horiz-adv-x="768" 
d="M633 92q-99 -102 -249 -102t-249 102q-99 104 -99 258q0 155 99 257q99 103 249 103t249 -103q99 -102 99 -257q0 -154 -99 -258zM162 119q88 -91 222 -91t221 91q88 91 88 231t-88 231q-87 91 -221 91t-222 -91q-87 -91 -87 -231t87 -231zM325 136h-40v428h104
q54 0 80 -24.5t26 -81.5v-17q0 -77 -58 -93v-1q58 -10 58 -89v-64q0 -40 9 -58h-42q-7 18 -7 59v61q0 39 -17.5 55t-61.5 16h-51v-191zM325 526v-162h53q41 0 59 15.5t18 55.5v19q0 37 -15 54.5t-53 17.5h-62z" />
    <glyph glyph-name="overscore" unicode="&#xaf;" horiz-adv-x="500" 
d="M347 607h-194v41h194v-41z" />
    <glyph glyph-name="degree" unicode="&#xb0;" 
d="M275 529q-31 -31 -75 -31t-75 31t-31 75t31 75t75 31t75 -31t31 -75t-31 -75zM153 556q19 -19 47 -19t47 19q19 20 19 48t-19 47q-19 20 -47 20t-47 -20q-19 -19 -19 -47t19 -48z" />
    <glyph glyph-name="plusminus" unicode="&#xb1;" 
d="M357 121h-314v41h136v139h-136v41h136v141h42v-141h136v-41h-136v-139h136v-41z" />
    <glyph glyph-name="uni00B2" unicode="&#xb2;" horiz-adv-x="288" 
d="M241 351h-193v35q0 52 20 91.5t65 86.5q41 41 57.5 70t16.5 63q0 74 -61 74q-62 0 -62 -72v-32h-36v30q0 50 25 79t74 29q48 0 73 -28.5t25 -78.5q0 -40 -19.5 -75.5t-64.5 -82.5q-43 -44 -59.5 -75t-16.5 -72v-8h156v-34z" />
    <glyph glyph-name="uni00B3" unicode="&#xb3;" horiz-adv-x="288" 
d="M140 341q-99 0 -99 109v32h36v-35q0 -72 62 -72q63 0 63 76v43q0 72 -63 72h-28v34h30q28 0 44.5 18.5t16.5 51.5v25q0 76 -62 76t-62 -72v-24h-35v21q0 109 98 109q48 0 73.5 -28.5t25.5 -80.5v-20q0 -72 -54 -92v-1q54 -13 54 -91v-42q0 -109 -100 -109z" />
    <glyph glyph-name="acute" unicode="&#xb4;" horiz-adv-x="500" 
d="M252 567h-40l71 120h54z" />
    <glyph glyph-name="uni00B5" unicode="&#xb5;" horiz-adv-x="384" 
d="M285 172v324h45v-496h-39l-1 72q-33 -82 -119 -82q-43 0 -72 20v-165h-45v651h45v-357q0 -109 82 -109q48 0 76 38t28 104z" />
    <glyph glyph-name="paragraph" unicode="&#xb6;" horiz-adv-x="444" 
d="M241 -97h-40v400q-158 5 -158 162v68q0 167 164 167h171v-797h-40v758h-97v-758z" />
    <glyph glyph-name="middot" unicode="&#xb7;" horiz-adv-x="166" 
d="M107 254h-48v91h48v-91z" />
    <glyph glyph-name="cedilla" unicode="&#xb8;" horiz-adv-x="500" 
d="M252 -155q-81 0 -81 56v6h37v-7q0 -25 42 -25q47 0 47 26q0 24 -42 24h-14v80h28v-54q65 0 65 -49q0 -57 -82 -57z" />
    <glyph glyph-name="uni00B9" unicode="&#xb9;" horiz-adv-x="288" 
d="M187 351h-38v377q-29 -21 -78 -24v30q67 3 89 61h27v-444z" />
    <glyph glyph-name="ordmasculine" unicode="&#xba;" horiz-adv-x="284" 
d="M40 450v145q0 55 26.5 85t75.5 30t75.5 -30t26.5 -85v-145q0 -55 -26.5 -85t-75.5 -30t-75.5 30t-26.5 85zM207 447v151q0 78 -65 78t-65 -78v-151q0 -78 65 -78t65 78zM241 238h-198v34h198v-34z" />
    <glyph glyph-name="guillemotright" unicode="&#xbb;" horiz-adv-x="267" 
d="M73 208h-35l43 92l-43 90h35l53 -90zM178 208h-35l43 92l-43 90h35l52 -90z" />
    <glyph glyph-name="onequarter" unicode="&#xbc;" horiz-adv-x="657" 
d="M187 256h-38v377q-29 -21 -78 -24v30q67 3 89 61h27v-444zM211 0h-38l274 700h37zM591 0h-38v93h-152v35l147 316h43v-317h37v-34h-37v-93zM553 375l-115 -248h115v248z" />
    <glyph glyph-name="onehalf" unicode="&#xbd;" horiz-adv-x="657" 
d="M187 256h-38v377q-29 -21 -78 -24v30q67 3 89 61h27v-444zM211 0h-38l274 700h37zM610 0h-193v35q0 52 20 91.5t65 86.5q41 41 57.5 70t16.5 63q0 74 -61 74q-62 0 -62 -72v-32h-36v30q0 50 25 79t74 29q48 0 73 -28.5t25 -78.5q0 -40 -19.5 -75.5t-64.5 -82.5
q-43 -44 -59.5 -75t-16.5 -72v-8h156v-34z" />
    <glyph glyph-name="threequarters" unicode="&#xbe;" horiz-adv-x="657" 
d="M140 246q-99 0 -99 109v32h36v-35q0 -72 62 -72q63 0 63 76v43q0 72 -63 72h-28v34h30q28 0 44.5 18.5t16.5 51.5v25q0 76 -62 76t-62 -72v-24h-35v21q0 109 98 109q48 0 73.5 -28.5t25.5 -80.5v-20q0 -73 -54 -92v-1q54 -14 54 -91v-42q0 -109 -100 -109zM211 0h-38
l274 700h37zM591 0h-38v93h-152v35l147 316h43v-317h37v-34h-37v-93zM553 375l-115 -248h115v248z" />
    <glyph glyph-name="questiondown" unicode="&#xbf;" horiz-adv-x="363" 
d="M224 405h-48v91h48v-91zM32 -51q0 49 17.5 89.5t57.5 91.5q39 51 54 83q18 35 18 79v38h41v-39q0 -46 -17 -84.5t-56 -93.5q-34 -46 -53 -86q-16 -33 -16 -81q0 -118 104 -118q106 0 106 124v50h44v-47q0 -80 -38.5 -124.5t-112.5 -44.5t-111.5 42.5t-37.5 120.5z" />
    <glyph glyph-name="Agrave" unicode="&#xc0;" 
d="M167 881l71 -120h-40l-85 120h54zM377 0h-47l-34 161h-196l-33 -161h-44l145 700h62zM197 637l-89 -435h180z" />
    <glyph glyph-name="Aacute" unicode="&#xc1;" 
d="M233 881h54l-85 -120h-40zM377 0h-47l-34 161h-196l-33 -161h-44l145 700h62zM197 637l-89 -435h180z" />
    <glyph glyph-name="Acircumflex" unicode="&#xc2;" 
d="M260 761l-60 92l-60 -92h-40l73 120h54l73 -120h-40zM377 0h-47l-34 161h-196l-33 -161h-44l145 700h62zM197 637l-89 -435h180z" />
    <glyph glyph-name="Atilde" unicode="&#xc3;" 
d="M160 821q-24 0 -41 -42l-28 14q29 65 69 65q25 0 52 -21q21 -15 33 -15q23 0 41 42l28 -14q-29 -65 -69 -65q-26 0 -53 21q-19 15 -32 15zM377 0h-47l-34 161h-196l-33 -161h-44l145 700h62zM197 637l-89 -435h180z" />
    <glyph glyph-name="Adieresis" unicode="&#xc4;" 
d="M122 871h45v-100h-45v100zM233 871h45v-100h-45v100zM377 0h-47l-34 161h-196l-33 -161h-44l145 700h62zM197 637l-89 -435h180z" />
    <glyph glyph-name="Aring" unicode="&#xc5;" 
d="M130 831q0 30 20 50.5t50 20.5t50 -20.5t20 -50.5q0 -29 -20 -49.5t-50 -20.5t-50 20.5t-20 49.5zM228 859q-11 12 -28 12t-28 -12q-11 -11 -11 -28t11 -28t28 -11t28 11t11 28t-11 28zM377 0h-47l-34 161h-196l-33 -161h-44l145 700h62zM197 637l-89 -435h180z" />
    <glyph glyph-name="AE" unicode="&#xc6;" horiz-adv-x="587" 
d="M563 700v-42h-227v-271h188v-42h-188v-303h227v-42h-273v161h-169l-56 -161h-44l244 700h298zM290 645l-155 -443h155v443z" />
    <glyph glyph-name="Ccedilla" unicode="&#xc7;" horiz-adv-x="383" 
d="M347 548v-71h-44v73q0 56 -28.5 87t-77.5 31q-48 0 -76 -31t-28 -87v-400q0 -56 28 -87t76 -31q49 0 77.5 31t28.5 87v93h44v-91q0 -73 -35.5 -115t-100.5 -46v-40q65 0 65 -49q0 -57 -82 -57q-81 0 -81 56v6h37v-7q0 -25 42 -25q47 0 47 26q0 24 -42 24h-14v65
q-64 4 -100 47t-36 115v396q0 76 39.5 119t109.5 43q72 0 111.5 -43t39.5 -119z" />
    <glyph glyph-name="Egrave" unicode="&#xc8;" horiz-adv-x="352" 
d="M229 761h-40l-85 120h54zM328 0h-274v700h274v-42h-228v-272h189v-42h-189v-302h228v-42z" />
    <glyph glyph-name="Eacute" unicode="&#xc9;" horiz-adv-x="352" 
d="M193 761h-40l71 120h54zM328 0h-274v700h274v-42h-228v-272h189v-42h-189v-302h228v-42z" />
    <glyph glyph-name="Ecircumflex" unicode="&#xca;" horiz-adv-x="352" 
d="M131 761h-40l73 120h54l73 -120h-40l-60 92zM328 0h-274v700h274v-42h-228v-272h189v-42h-189v-302h228v-42z" />
    <glyph glyph-name="Edieresis" unicode="&#xcb;" horiz-adv-x="352" 
d="M158 771h-45v100h45v-100zM269 771h-45v100h45v-100zM328 0h-274v700h274v-42h-228v-272h189v-42h-189v-302h228v-42z" />
    <glyph glyph-name="Igrave" unicode="&#xcc;" horiz-adv-x="154" 
d="M115 761h-40l-85 120h54zM100 0h-46v700h46v-700z" />
    <glyph glyph-name="Iacute" unicode="&#xcd;" horiz-adv-x="154" 
d="M79 761h-40l71 120h54zM100 0h-46v700h46v-700z" />
    <glyph glyph-name="Icircumflex" unicode="&#xce;" horiz-adv-x="154" 
d="M17 761h-40l73 120h54l73 -120h-40l-60 92zM100 0h-46v700h46v-700z" />
    <glyph glyph-name="Idieresis" unicode="&#xcf;" horiz-adv-x="154" 
d="M44 771h-45v100h45v-100zM155 771h-45v100h45v-100zM100 0h-46v700h46v-700z" />
    <glyph glyph-name="Eth" unicode="&#xd0;" horiz-adv-x="417" 
d="M66 700h152q79 0 116 -40.5t37 -126.5v-366q0 -86 -37 -126.5t-116 -40.5h-152v345h-44v40h44v315zM325 165v370q0 66 -25.5 94.5t-82.5 28.5h-105v-273h98v-40h-98v-303h105q57 0 82.5 28.5t25.5 94.5z" />
    <glyph glyph-name="Ntilde" unicode="&#xd1;" horiz-adv-x="422" 
d="M130 779l-28 14q29 65 69 65q25 0 52 -21q21 -15 33 -15q23 0 41 42l28 -14q-29 -65 -69 -65q-26 0 -53 21q-19 15 -32 15q-25 0 -41 -42zM98 0h-44v700h64l206 -582v582h44v-700h-51l-219 626v-626z" />
    <glyph glyph-name="Ograve" unicode="&#xd2;" 
d="M238 761h-40l-85 120h54zM46 159v382q0 82 40 125.5t114 43.5t114 -43.5t40 -125.5v-382q0 -82 -40 -125.5t-114 -43.5t-114 43.5t-40 125.5zM308 156v388q0 124 -108 124t-108 -124v-388q0 -124 108 -124t108 124z" />
    <glyph glyph-name="Oacute" unicode="&#xd3;" 
d="M202 761h-40l71 120h54zM46 159v382q0 82 40 125.5t114 43.5t114 -43.5t40 -125.5v-382q0 -82 -40 -125.5t-114 -43.5t-114 43.5t-40 125.5zM308 156v388q0 124 -108 124t-108 -124v-388q0 -124 108 -124t108 124z" />
    <glyph glyph-name="Ocircumflex" unicode="&#xd4;" 
d="M140 761h-40l73 120h54l73 -120h-40l-60 92zM46 159v382q0 82 40 125.5t114 43.5t114 -43.5t40 -125.5v-382q0 -82 -40 -125.5t-114 -43.5t-114 43.5t-40 125.5zM308 156v388q0 124 -108 124t-108 -124v-388q0 -124 108 -124t108 124z" />
    <glyph glyph-name="Otilde" unicode="&#xd5;" 
d="M119 779l-28 14q29 65 69 65q25 0 52 -21q21 -15 33 -15q23 0 41 42l28 -14q-29 -65 -69 -65q-26 0 -53 21q-19 15 -32 15q-24 0 -41 -42zM46 159v382q0 82 40 125.5t114 43.5t114 -43.5t40 -125.5v-382q0 -82 -40 -125.5t-114 -43.5t-114 43.5t-40 125.5zM308 156v388
q0 124 -108 124t-108 -124v-388q0 -124 108 -124t108 124z" />
    <glyph glyph-name="Odieresis" unicode="&#xd6;" 
d="M167 771h-45v100h45v-100zM278 771h-45v100h45v-100zM46 159v382q0 82 40 125.5t114 43.5t114 -43.5t40 -125.5v-382q0 -82 -40 -125.5t-114 -43.5t-114 43.5t-40 125.5zM308 156v388q0 124 -108 124t-108 -124v-388q0 -124 108 -124t108 124z" />
    <glyph glyph-name="multiply" unicode="&#xd7;" 
d="M200 272l-122 -124l-28 29l122 123l-122 123l29 28l121 -123l122 124l28 -29l-122 -123l122 -123l-28 -29z" />
    <glyph glyph-name="Oslash" unicode="&#xd8;" 
d="M330 726l27 -12l-27 -69q24 -41 24 -104v-382q0 -82 -40 -125.5t-114 -43.5q-68 0 -109 38l-21 -54l-27 12l27 69q-24 40 -24 104v382q0 82 40 125.5t114 43.5q68 0 109 -38zM92 544v-388q0 -20 3 -36l195 503q-26 45 -90 45q-108 0 -108 -124zM308 156v388q0 20 -3 36
l-195 -503q26 -45 90 -45q108 0 108 124z" />
    <glyph glyph-name="Ugrave" unicode="&#xd9;" horiz-adv-x="404" 
d="M240 761h-40l-85 120h54zM50 159v541h46v-544q0 -124 107 -124q106 0 106 124v544h45v-541q0 -82 -39 -125.5t-113 -43.5t-113 43.5t-39 125.5z" />
    <glyph glyph-name="Uacute" unicode="&#xda;" horiz-adv-x="404" 
d="M204 761h-40l71 120h54zM50 159v541h46v-544q0 -124 107 -124q106 0 106 124v544h45v-541q0 -82 -39 -125.5t-113 -43.5t-113 43.5t-39 125.5z" />
    <glyph glyph-name="Ucircumflex" unicode="&#xdb;" horiz-adv-x="404" 
d="M142 761h-40l73 120h54l73 -120h-40l-60 92zM50 159v541h46v-544q0 -124 107 -124q106 0 106 124v544h45v-541q0 -82 -39 -125.5t-113 -43.5t-113 43.5t-39 125.5z" />
    <glyph glyph-name="Udieresis" unicode="&#xdc;" horiz-adv-x="404" 
d="M169 771h-45v100h45v-100zM280 771h-45v100h45v-100zM50 159v541h46v-544q0 -124 107 -124q106 0 106 124v544h45v-541q0 -82 -39 -125.5t-113 -43.5t-113 43.5t-39 125.5z" />
    <glyph glyph-name="Yacute" unicode="&#xdd;" horiz-adv-x="386" 
d="M195 761h-40l71 120h54zM216 0h-46v316l-149 384h49l124 -323l125 323h46l-149 -384v-316z" />
    <glyph glyph-name="Thorn" unicode="&#xde;" horiz-adv-x="381" 
d="M100 0h-46v700h46v-112h98q79 0 116 -40.5t37 -126.5v-51q0 -86 -37 -126.5t-116 -40.5h-98v-203zM100 545v-299h98q57 0 82 28t25 93v56q0 66 -25 94t-82 28h-98z" />
    <glyph glyph-name="germandbls" unicode="&#xdf;" horiz-adv-x="390" 
d="M232 -10q-35 0 -59 10v41q20 -11 54 -11q92 0 92 99q0 23 -10 42q-6 13 -13.5 22.5t-13 14t-23.5 17.5q-21 16 -37 30q-37 37 -37 104q0 55 40 105q42 54 42 112q0 94 -82 94q-41 0 -63.5 -27.5t-22.5 -79.5v-563h-45v561q0 73 34 111t98 38q58 0 92 -35t34 -100
q0 -69 -45 -126q-37 -46 -37 -91q0 -26 9 -45q13 -28 53 -56q26 -19 36 -29q36 -36 36 -99q0 -65 -35 -102t-97 -37z" />
    <glyph glyph-name="agrave" unicode="&#xe0;" horiz-adv-x="362" 
d="M144 687l71 -120h-40l-85 120h54zM320 0h-42q-6 24 -7 76q-35 -86 -126 -86q-53 0 -83 32t-30 88t28.5 92t98.5 67q73 33 89 46q18 17 18 46v14q0 43 -23 67t-64 24q-43 0 -68 -25t-25 -70v-11h-42v9q0 65 36 101t100 36q63 0 96.5 -35.5t33.5 -101.5v-242q0 -88 10 -127
zM156 30q50 0 80 38.5t30 104.5v116q-13 -20 -94 -56q-51 -22 -73 -50t-22 -69q0 -40 20.5 -62t58.5 -22z" />
    <glyph glyph-name="aacute" unicode="&#xe1;" horiz-adv-x="362" 
d="M210 687h54l-85 -120h-40zM320 0h-42q-6 24 -7 76q-35 -86 -126 -86q-53 0 -83 32t-30 88t28.5 92t98.5 67q73 33 89 46q18 17 18 46v14q0 43 -23 67t-64 24q-43 0 -68 -25t-25 -70v-11h-42v9q0 65 36 101t100 36q63 0 96.5 -35.5t33.5 -101.5v-242q0 -88 10 -127z
M156 30q50 0 80 38.5t30 104.5v116q-13 -20 -94 -56q-51 -22 -73 -50t-22 -69q0 -40 20.5 -62t58.5 -22z" />
    <glyph glyph-name="acircumflex" unicode="&#xe2;" horiz-adv-x="362" 
d="M237 567l-60 92l-60 -92h-40l73 120h54l73 -120h-40zM320 0h-42q-6 24 -7 76q-35 -86 -126 -86q-53 0 -83 32t-30 88t28.5 92t98.5 67q73 33 89 46q18 17 18 46v14q0 43 -23 67t-64 24q-43 0 -68 -25t-25 -70v-11h-42v9q0 65 36 101t100 36q63 0 96.5 -35.5t33.5 -101.5
v-242q0 -88 10 -127zM156 30q50 0 80 38.5t30 104.5v116q-13 -20 -94 -56q-51 -22 -73 -50t-22 -69q0 -40 20.5 -62t58.5 -22z" />
    <glyph glyph-name="atilde" unicode="&#xe3;" horiz-adv-x="362" 
d="M137 627q-25 0 -41 -42l-28 14q29 65 69 65q25 0 52 -21q21 -15 33 -15q23 0 41 42l28 -14q-29 -65 -69 -65q-26 0 -53 21q-19 15 -32 15zM320 0h-42q-6 24 -7 76q-35 -86 -126 -86q-53 0 -83 32t-30 88t28.5 92t98.5 67q73 33 89 46q18 17 18 46v14q0 43 -23 67t-64 24
q-43 0 -68 -25t-25 -70v-11h-42v9q0 65 36 101t100 36q63 0 96.5 -35.5t33.5 -101.5v-242q0 -88 10 -127zM156 30q50 0 80 38.5t30 104.5v116q-13 -20 -94 -56q-51 -22 -73 -50t-22 -69q0 -40 20.5 -62t58.5 -22z" />
    <glyph glyph-name="adieresis" unicode="&#xe4;" horiz-adv-x="362" 
d="M99 677h45v-100h-45v100zM210 677h45v-100h-45v100zM320 0h-42q-6 24 -7 76q-35 -86 -126 -86q-53 0 -83 32t-30 88t28.5 92t98.5 67q73 33 89 46q18 17 18 46v14q0 43 -23 67t-64 24q-43 0 -68 -25t-25 -70v-11h-42v9q0 65 36 101t100 36q63 0 96.5 -35.5t33.5 -101.5
v-242q0 -88 10 -127zM156 30q50 0 80 38.5t30 104.5v116q-13 -20 -94 -56q-51 -22 -73 -50t-22 -69q0 -40 20.5 -62t58.5 -22z" />
    <glyph glyph-name="aring" unicode="&#xe5;" horiz-adv-x="362" 
d="M107 637q0 30 20 50.5t50 20.5t50 -20.5t20 -50.5q0 -29 -20 -49.5t-50 -20.5t-50 20.5t-20 49.5zM205 665q-11 12 -28 12t-28 -12q-11 -11 -11 -28t11 -28t28 -11t28 11t11 28t-11 28zM320 0h-42q-6 24 -7 76q-35 -86 -126 -86q-53 0 -83 32t-30 88t28.5 92t98.5 67
q73 33 89 46q18 17 18 46v14q0 43 -23 67t-64 24q-43 0 -68 -25t-25 -70v-11h-42v9q0 65 36 101t100 36q63 0 96.5 -35.5t33.5 -101.5v-242q0 -88 10 -127zM156 30q50 0 80 38.5t30 104.5v116q-13 -20 -94 -56q-51 -22 -73 -50t-22 -69q0 -40 20.5 -62t58.5 -22z" />
    <glyph glyph-name="ae" unicode="&#xe6;" horiz-adv-x="587" 
d="M547 347v-100h-236v-102q0 -115 96 -115q97 0 97 115v12h43v-8q0 -77 -36 -118t-105 -41q-100 0 -130 87q-32 -87 -128 -87q-54 0 -85 32t-31 88t28.5 92t98.5 67t89 47q18 15 18 45v14q0 91 -86 91q-43 0 -68 -25t-25 -70v-11h-42v9q0 65 35.5 101t96.5 36q91 0 114 -75
q29 75 118 75q67 0 102.5 -41t35.5 -118zM406 466q-95 0 -95 -115v-64h192v64q0 115 -97 115zM157 30q50 0 79.5 38t29.5 104v117q-13 -20 -94 -56q-51 -22 -73 -50t-22 -69q0 -39 21 -61.5t59 -22.5z" />
    <glyph glyph-name="ccedilla" unicode="&#xe7;" horiz-adv-x="355" 
d="M320 349v-13h-43v17q0 113 -93 113q-94 0 -94 -113v-210q0 -113 94 -113q93 0 93 113v28h43v-24q0 -148 -122 -157v-39q65 0 65 -49q0 -57 -82 -57q-81 0 -81 56v6h37v-7q0 -25 42 -25q47 0 47 26q0 24 -42 24h-14v65q-125 9 -125 157v202q0 157 139 157q136 0 136 -157z
" />
    <glyph glyph-name="egrave" unicode="&#xe8;" horiz-adv-x="366" 
d="M151 687l71 -120h-40l-85 120h54zM185 506q68 0 104.5 -41t36.5 -118v-100h-236v-102q0 -115 95 -115q97 0 97 115v12h44v-8q0 -77 -36.5 -118t-104.5 -41q-69 0 -104.5 40.5t-35.5 118.5v198q0 78 35.5 118.5t104.5 40.5zM90 351v-64h192v64q0 115 -97 115
q-95 0 -95 -115z" />
    <glyph glyph-name="eacute" unicode="&#xe9;" horiz-adv-x="366" 
d="M217 687h54l-85 -120h-40zM185 506q68 0 104.5 -41t36.5 -118v-100h-236v-102q0 -115 95 -115q97 0 97 115v12h44v-8q0 -77 -36.5 -118t-104.5 -41q-69 0 -104.5 40.5t-35.5 118.5v198q0 78 35.5 118.5t104.5 40.5zM90 351v-64h192v64q0 115 -97 115q-95 0 -95 -115z" />
    <glyph glyph-name="ecircumflex" unicode="&#xea;" horiz-adv-x="366" 
d="M244 567l-60 92l-60 -92h-40l73 120h54l73 -120h-40zM185 506q68 0 104.5 -41t36.5 -118v-100h-236v-102q0 -115 95 -115q97 0 97 115v12h44v-8q0 -77 -36.5 -118t-104.5 -41q-69 0 -104.5 40.5t-35.5 118.5v198q0 78 35.5 118.5t104.5 40.5zM90 351v-64h192v64
q0 115 -97 115q-95 0 -95 -115z" />
    <glyph glyph-name="edieresis" unicode="&#xeb;" horiz-adv-x="366" 
d="M106 677h45v-100h-45v100zM217 677h45v-100h-45v100zM185 506q68 0 104.5 -41t36.5 -118v-100h-236v-102q0 -115 95 -115q97 0 97 115v12h44v-8q0 -77 -36.5 -118t-104.5 -41q-69 0 -104.5 40.5t-35.5 118.5v198q0 78 35.5 118.5t104.5 40.5zM90 351v-64h192v64
q0 115 -97 115q-95 0 -95 -115z" />
    <glyph glyph-name="igrave" unicode="&#xec;" horiz-adv-x="153" 
d="M114 567h-40l-85 120h54zM99 0h-45v496h45v-496z" />
    <glyph glyph-name="iacute" unicode="&#xed;" horiz-adv-x="153" 
d="M78 567h-40l71 120h54zM99 0h-45v496h45v-496z" />
    <glyph glyph-name="icircumflex" unicode="&#xee;" horiz-adv-x="153" 
d="M16 567h-40l73 120h54l73 -120h-40l-60 92zM99 0h-45v496h45v-496z" />
    <glyph glyph-name="idieresis" unicode="&#xef;" horiz-adv-x="153" 
d="M43 577h-45v100h45v-100zM154 577h-45v100h45v-100zM99 0h-45v496h45v-496z" />
    <glyph glyph-name="eth" unicode="&#xf0;" horiz-adv-x="372" 
d="M282 700h48l-82 -79q76 -97 76 -256v-216q0 -77 -36 -118t-105 -41q-68 0 -103.5 41t-35.5 118v189q0 142 119 142q79 0 116 -73q-5 113 -60 186l-81 -77h-48l108 103q-47 50 -122 81h70q43 -18 80 -54zM279 145v153q0 65 -29 103.5t-77 38.5q-84 0 -84 -107v-188
q0 -115 94 -115q96 0 96 115z" />
    <glyph glyph-name="ntilde" unicode="&#xf1;" horiz-adv-x="380" 
d="M150 627q-24 0 -41 -42l-28 14q29 65 69 65q25 0 52 -21q21 -15 33 -15q23 0 41 42l28 -14q-29 -65 -69 -65q-26 0 -53 21q-20 15 -32 15zM213 506q117 0 117 -142v-364h-45v357q0 109 -82 109q-48 0 -76 -38t-28 -104v-324h-45v496h39l1 -72q33 82 119 82z" />
    <glyph glyph-name="ograve" unicode="&#xf2;" horiz-adv-x="368" 
d="M222 567h-40l-85 120h54zM44 149v198q0 77 36 118t104 41t104 -41t36 -118v-198q0 -77 -36 -118t-104 -41t-104 41t-36 118zM279 145v206q0 115 -95 115t-95 -115v-206q0 -115 95 -115t95 115z" />
    <glyph glyph-name="oacute" unicode="&#xf3;" horiz-adv-x="368" 
d="M186 567h-40l71 120h54zM44 149v198q0 77 36 118t104 41t104 -41t36 -118v-198q0 -77 -36 -118t-104 -41t-104 41t-36 118zM279 145v206q0 115 -95 115t-95 -115v-206q0 -115 95 -115t95 115z" />
    <glyph glyph-name="ocircumflex" unicode="&#xf4;" horiz-adv-x="368" 
d="M124 567h-40l73 120h54l73 -120h-40l-60 92zM44 149v198q0 77 36 118t104 41t104 -41t36 -118v-198q0 -77 -36 -118t-104 -41t-104 41t-36 118zM279 145v206q0 115 -95 115t-95 -115v-206q0 -115 95 -115t95 115z" />
    <glyph glyph-name="otilde" unicode="&#xf5;" horiz-adv-x="368" 
d="M103 585l-28 14q29 65 69 65q25 0 52 -21q21 -15 33 -15q23 0 41 42l28 -14q-29 -65 -69 -65q-26 0 -53 21q-20 15 -32 15q-24 0 -41 -42zM44 149v198q0 77 36 118t104 41t104 -41t36 -118v-198q0 -77 -36 -118t-104 -41t-104 41t-36 118zM279 145v206q0 115 -95 115
t-95 -115v-206q0 -115 95 -115t95 115z" />
    <glyph glyph-name="odieresis" unicode="&#xf6;" horiz-adv-x="368" 
d="M151 577h-45v100h45v-100zM262 577h-45v100h45v-100zM44 149v198q0 77 36 118t104 41t104 -41t36 -118v-198q0 -77 -36 -118t-104 -41t-104 41t-36 118zM279 145v206q0 115 -95 115t-95 -115v-206q0 -115 95 -115t95 115z" />
    <glyph glyph-name="divide" unicode="&#xf7;" 
d="M225 392h-54v91h54v-91zM365 279h-334v42h334v-42zM225 117h-54v91h54v-91z" />
    <glyph glyph-name="oslash" unicode="&#xf8;" horiz-adv-x="368" 
d="M300 526l24 -13l-28 -59q28 -37 28 -107v-198q0 -77 -36 -118t-104 -41q-58 0 -93 30l-23 -49l-24 13l27 58q-27 39 -27 107v198q0 77 36 118t104 41q59 0 92 -30zM89 351v-206q0 -32 7 -52l161 342q-25 31 -73 31q-95 0 -95 -115zM279 145v206q0 32 -7 52l-161 -341
q23 -32 73 -32q95 0 95 115z" />
    <glyph glyph-name="ugrave" unicode="&#xf9;" horiz-adv-x="380" 
d="M155 687l71 -120h-40l-85 120h54zM281 172v324h45v-496h-39l-1 72q-33 -82 -119 -82q-117 0 -117 142v364h45v-357q0 -109 82 -109q48 0 76 38t28 104z" />
    <glyph glyph-name="uacute" unicode="&#xfa;" horiz-adv-x="380" 
d="M221 687h54l-85 -120h-40zM281 172v324h45v-496h-39l-1 72q-33 -82 -119 -82q-117 0 -117 142v364h45v-357q0 -109 82 -109q48 0 76 38t28 104z" />
    <glyph glyph-name="ucircumflex" unicode="&#xfb;" horiz-adv-x="380" 
d="M248 567l-60 92l-60 -92h-40l73 120h54l73 -120h-40zM281 172v324h45v-496h-39l-1 72q-33 -82 -119 -82q-117 0 -117 142v364h45v-357q0 -109 82 -109q48 0 76 38t28 104z" />
    <glyph glyph-name="udieresis" unicode="&#xfc;" horiz-adv-x="380" 
d="M110 677h45v-100h-45v100zM221 677h45v-100h-45v100zM281 172v324h45v-496h-39l-1 72q-33 -82 -119 -82q-117 0 -117 142v364h45v-357q0 -109 82 -109q48 0 76 38t28 104z" />
    <glyph glyph-name="yacute" unicode="&#xfd;" horiz-adv-x="350" 
d="M208 687h54l-85 -120h-40zM285 496h42l-116 -463l-26 -102q-13 -52 -36 -74t-66 -22q-29 0 -45 10v40q16 -10 41 -10q26 0 39 12.5t22 48.5l18 69l-136 491h46l114 -415z" />
    <glyph glyph-name="thorn" unicode="&#xfe;" horiz-adv-x="380" 
d="M215 506q119 0 119 -142v-231q0 -143 -119 -143q-80 0 -116 74v-219h-45v855h45v-268q36 74 116 74zM289 137v222q0 107 -84 107q-48 0 -77 -38.5t-29 -103.5v-152q0 -65 29 -103.5t77 -38.5q84 0 84 107z" />
    <glyph glyph-name="ydieresis" unicode="&#xff;" horiz-adv-x="350" 
d="M97 677h45v-100h-45v100zM208 677h45v-100h-45v100zM285 496h42l-116 -463l-26 -102q-13 -52 -36 -74t-66 -22q-29 0 -45 10v40q16 -10 41 -10q26 0 39 12.5t22 48.5l18 69l-136 491h46l114 -415z" />
    <glyph glyph-name="Amacron" unicode="&#x100;" 
d="M103 842h194v-41h-194v41zM377 0h-47l-34 161h-196l-33 -161h-44l145 700h62zM197 637l-89 -435h180z" />
    <glyph glyph-name="amacron" unicode="&#x101;" horiz-adv-x="362" 
d="M80 648h194v-41h-194v41zM320 0h-42q-6 24 -7 76q-35 -86 -126 -86q-53 0 -83 32t-30 88t28.5 92t98.5 67q73 33 89 46q18 17 18 46v14q0 43 -23 67t-64 24q-43 0 -68 -25t-25 -70v-11h-42v9q0 65 36 101t100 36q63 0 96.5 -35.5t33.5 -101.5v-242q0 -88 10 -127zM156 30
q50 0 80 38.5t30 104.5v116q-13 -20 -94 -56q-51 -22 -73 -50t-22 -69q0 -40 20.5 -62t58.5 -22z" />
    <glyph glyph-name="Abreve" unicode="&#x102;" 
d="M107 868h33q3 -58 60 -58t61 58h32q-1 -45 -25.5 -69.5t-67.5 -24.5t-67 24.5t-26 69.5zM377 0h-47l-34 161h-196l-33 -161h-44l145 700h62zM197 637l-89 -435h180z" />
    <glyph glyph-name="abreve" unicode="&#x103;" horiz-adv-x="362" 
d="M84 674h33q3 -58 60 -58t61 58h32q-1 -45 -25.5 -69.5t-67.5 -24.5t-67 24.5t-26 69.5zM320 0h-42q-6 24 -7 76q-35 -86 -126 -86q-53 0 -83 32t-30 88t28.5 92t98.5 67q73 33 89 46q18 17 18 46v14q0 43 -23 67t-64 24q-43 0 -68 -25t-25 -70v-11h-42v9q0 65 36 101
t100 36q63 0 96.5 -35.5t33.5 -101.5v-242q0 -88 10 -127zM156 30q50 0 80 38.5t30 104.5v116q-13 -20 -94 -56q-51 -22 -73 -50t-22 -69q0 -40 20.5 -62t58.5 -22z" />
    <glyph glyph-name="Aogonek" unicode="&#x104;" 
d="M347 -122q22 0 43 12v-33q-27 -12 -54 -12q-74 2 -74 63q0 62 67 96l-33 157h-196l-33 -161h-44l145 700h62l147 -700h-15q-63 -32 -63 -81q0 -41 48 -41zM197 637l-89 -435h180z" />
    <glyph glyph-name="aogonek" unicode="&#x105;" horiz-adv-x="362" 
d="M291 -122q22 0 43 12v-33q-27 -12 -54 -12q-74 2 -74 63q0 57 71 98q-4 22 -6 70q-35 -86 -126 -86q-53 0 -83 32t-30 88t28.5 92t98.5 67q73 33 89 46q18 17 18 46v14q0 43 -23 67t-64 24q-43 0 -68 -25t-25 -70v-11h-42v9q0 65 36 101t100 36q63 0 96.5 -35.5
t33.5 -101.5v-242q0 -88 10 -127h-17q-60 -39 -60 -81q0 -41 48 -41zM156 30q50 0 80 38.5t30 104.5v116q-13 -20 -94 -56q-51 -22 -73 -50t-22 -69q0 -40 20.5 -62t58.5 -22z" />
    <glyph glyph-name="Cacute" unicode="&#x106;" horiz-adv-x="383" 
d="M198 761h-40l71 120h54zM196 -10q-70 0 -109.5 43t-39.5 119v396q0 76 39.5 119t109.5 43q72 0 111.5 -43t39.5 -119v-71h-44v73q0 56 -28.5 87t-77.5 31q-48 0 -76 -31t-28 -87v-400q0 -56 28 -87t76 -31q49 0 77.5 31t28.5 87v93h44v-91q0 -76 -39.5 -119t-111.5 -43z
" />
    <glyph glyph-name="cacute" unicode="&#x107;" horiz-adv-x="355" 
d="M184 567h-40l71 120h54zM184 -10q-68 0 -103.5 40.5t-35.5 116.5v202q0 157 139 157q136 0 136 -157v-13h-43v17q0 113 -93 113q-94 0 -94 -113v-210q0 -113 94 -113q93 0 93 113v28h43v-24q0 -157 -136 -157z" />
    <glyph glyph-name="Ccircumflex" unicode="&#x108;" horiz-adv-x="383" 
d="M136 761h-40l73 120h54l73 -120h-40l-60 92zM196 -10q-70 0 -109.5 43t-39.5 119v396q0 76 39.5 119t109.5 43q72 0 111.5 -43t39.5 -119v-71h-44v73q0 56 -28.5 87t-77.5 31q-48 0 -76 -31t-28 -87v-400q0 -56 28 -87t76 -31q49 0 77.5 31t28.5 87v93h44v-91
q0 -76 -39.5 -119t-111.5 -43z" />
    <glyph glyph-name="ccircumflex" unicode="&#x109;" horiz-adv-x="355" 
d="M122 567h-40l73 120h54l73 -120h-40l-60 92zM184 -10q-68 0 -103.5 40.5t-35.5 116.5v202q0 157 139 157q136 0 136 -157v-13h-43v17q0 113 -93 113q-94 0 -94 -113v-210q0 -113 94 -113q93 0 93 113v28h43v-24q0 -157 -136 -157z" />
    <glyph glyph-name="Cdotaccent" unicode="&#x10a;" horiz-adv-x="383" 
d="M219 771h-45v100h45v-100zM196 -10q-70 0 -109.5 43t-39.5 119v396q0 76 39.5 119t109.5 43q72 0 111.5 -43t39.5 -119v-71h-44v73q0 56 -28.5 87t-77.5 31q-48 0 -76 -31t-28 -87v-400q0 -56 28 -87t76 -31q49 0 77.5 31t28.5 87v93h44v-91q0 -76 -39.5 -119t-111.5 -43
z" />
    <glyph glyph-name="cdotaccent" unicode="&#x10b;" horiz-adv-x="355" 
d="M205 577h-45v100h45v-100zM184 -10q-68 0 -103.5 40.5t-35.5 116.5v202q0 157 139 157q136 0 136 -157v-13h-43v17q0 113 -93 113q-94 0 -94 -113v-210q0 -113 94 -113q93 0 93 113v28h43v-24q0 -157 -136 -157z" />
    <glyph glyph-name="Ccaron" unicode="&#x10c;" horiz-adv-x="383" 
d="M223 761h-54l-73 120h40l60 -92l60 92h40zM196 -10q-70 0 -109.5 43t-39.5 119v396q0 76 39.5 119t109.5 43q72 0 111.5 -43t39.5 -119v-71h-44v73q0 56 -28.5 87t-77.5 31q-48 0 -76 -31t-28 -87v-400q0 -56 28 -87t76 -31q49 0 77.5 31t28.5 87v93h44v-91
q0 -76 -39.5 -119t-111.5 -43z" />
    <glyph glyph-name="ccaron" unicode="&#x10d;" horiz-adv-x="355" 
d="M209 567h-54l-73 120h40l60 -92l60 92h40zM184 -10q-68 0 -103.5 40.5t-35.5 116.5v202q0 157 139 157q136 0 136 -157v-13h-43v17q0 113 -93 113q-94 0 -94 -113v-210q0 -113 94 -113q93 0 93 113v28h43v-24q0 -157 -136 -157z" />
    <glyph glyph-name="Dcaron" unicode="&#x10e;" horiz-adv-x="405" 
d="M221 761h-54l-73 120h40l60 -92l60 92h40zM206 0h-152v700h152q79 0 116 -40.5t37 -126.5v-366q0 -86 -37 -126.5t-116 -40.5zM100 658v-616h105q57 0 82.5 28.5t25.5 94.5v370q0 66 -25.5 94.5t-82.5 28.5h-105z" />
    <glyph glyph-name="dcaron" unicode="&#x10f;" horiz-adv-x="412" 
d="M281 700h45v-573q0 -91 9 -127h-41q-7 26 -8 77q-16 -41 -47.5 -64t-73.5 -23q-119 0 -119 143v231q0 142 119 142q80 0 116 -74v268zM372 613v87h43v-83l-27 -87h-20l20 83h-16zM175 30q48 0 77 38.5t29 103.5v152q0 65 -29 103.5t-77 38.5q-84 0 -84 -107v-222
q0 -107 84 -107z" />
    <glyph glyph-name="Dcroat" unicode="&#x110;" horiz-adv-x="417" 
d="M66 700h152q79 0 116 -40.5t37 -126.5v-366q0 -86 -37 -126.5t-116 -40.5h-152v345h-44v40h44v315zM325 165v370q0 66 -25.5 94.5t-82.5 28.5h-105v-273h98v-40h-98v-303h105q57 0 82.5 28.5t25.5 94.5z" />
    <glyph glyph-name="dslash" unicode="&#x111;" horiz-adv-x="380" 
d="M379 616v-37h-53v-452q0 -91 9 -127h-41q-7 26 -8 77q-16 -41 -47.5 -64t-73.5 -23q-119 0 -119 143v231q0 142 119 142q80 0 116 -74v147h-90v37h90v84h45v-84h53zM175 30q48 0 77 38.5t29 103.5v152q0 65 -29 103.5t-77 38.5q-84 0 -84 -107v-222q0 -107 84 -107z" />
    <glyph glyph-name="Emacron" unicode="&#x112;" horiz-adv-x="352" 
d="M288 801h-194v41h194v-41zM328 0h-274v700h274v-42h-228v-272h189v-42h-189v-302h228v-42z" />
    <glyph glyph-name="emacron" unicode="&#x113;" horiz-adv-x="366" 
d="M87 648h194v-41h-194v41zM185 506q68 0 104.5 -41t36.5 -118v-100h-236v-102q0 -115 95 -115q97 0 97 115v12h44v-8q0 -77 -36.5 -118t-104.5 -41q-69 0 -104.5 40.5t-35.5 118.5v198q0 78 35.5 118.5t104.5 40.5zM90 351v-64h192v64q0 115 -97 115q-95 0 -95 -115z" />
    <glyph glyph-name="Ebreve" unicode="&#x114;" horiz-adv-x="352" 
d="M98 868h33q3 -58 60 -58t61 58h32q-1 -45 -25.5 -69.5t-67.5 -24.5t-67 24.5t-26 69.5zM328 0h-274v700h274v-42h-228v-272h189v-42h-189v-302h228v-42z" />
    <glyph glyph-name="ebreve" unicode="&#x115;" horiz-adv-x="366" 
d="M91 674h33q3 -58 60 -58t61 58h32q-1 -45 -25.5 -69.5t-67.5 -24.5t-67 24.5t-26 69.5zM185 506q68 0 104.5 -41t36.5 -118v-100h-236v-102q0 -115 95 -115q97 0 97 115v12h44v-8q0 -77 -36.5 -118t-104.5 -41q-69 0 -104.5 40.5t-35.5 118.5v198q0 78 35.5 118.5
t104.5 40.5zM90 351v-64h192v64q0 115 -97 115q-95 0 -95 -115z" />
    <glyph glyph-name="Edotaccent" unicode="&#x116;" horiz-adv-x="352" 
d="M214 771h-45v100h45v-100zM328 0h-274v700h274v-42h-228v-272h189v-42h-189v-302h228v-42z" />
    <glyph glyph-name="edotaccent" unicode="&#x117;" horiz-adv-x="366" 
d="M162 677h45v-100h-45v100zM185 506q68 0 104.5 -41t36.5 -118v-100h-236v-102q0 -115 95 -115q97 0 97 115v12h44v-8q0 -77 -36.5 -118t-104.5 -41q-69 0 -104.5 40.5t-35.5 118.5v198q0 78 35.5 118.5t104.5 40.5zM90 351v-64h192v64q0 115 -97 115q-95 0 -95 -115z" />
    <glyph glyph-name="Eogonek" unicode="&#x118;" horiz-adv-x="352" 
d="M328 700v-42h-228v-272h189v-42h-189v-302h228v-42h-41q-50 -35 -50 -81q0 -41 48 -41q22 0 43 12v-33q-27 -12 -54 -12q-74 2 -74 63q0 52 54 92h-200v700h274z" />
    <glyph glyph-name="eogonek" unicode="&#x119;" horiz-adv-x="366" 
d="M185 506q68 0 104.5 -41t36.5 -118v-100h-236v-102q0 -115 95 -115q97 0 97 115v12h44v-8q0 -93 -54 -134q-52 -46 -52 -96q0 -41 48 -41q22 0 43 12v-33q-27 -12 -54 -12q-74 2 -74 63q0 48 41 86q-15 -4 -39 -4q-69 0 -104.5 40.5t-35.5 118.5v198q0 78 35.5 118.5
t104.5 40.5zM90 351v-64h192v64q0 115 -97 115q-95 0 -95 -115z" />
    <glyph glyph-name="Ecaron" unicode="&#x11a;" horiz-adv-x="352" 
d="M218 761h-54l-73 120h40l60 -92l60 92h40zM328 0h-274v700h274v-42h-228v-272h189v-42h-189v-302h228v-42z" />
    <glyph glyph-name="ecaron" unicode="&#x11b;" horiz-adv-x="366" 
d="M284 687l-73 -120h-54l-73 120h40l60 -92l60 92h40zM185 506q68 0 104.5 -41t36.5 -118v-100h-236v-102q0 -115 95 -115q97 0 97 115v12h44v-8q0 -77 -36.5 -118t-104.5 -41q-69 0 -104.5 40.5t-35.5 118.5v198q0 78 35.5 118.5t104.5 40.5zM90 351v-64h192v64
q0 115 -97 115q-95 0 -95 -115z" />
    <glyph glyph-name="Gcircumflex" unicode="&#x11c;" horiz-adv-x="394" 
d="M137 761h-40l73 120h54l73 -120h-40l-60 92zM198 -10q-74 0 -113 43.5t-39 125.5v382q0 82 39 125.5t113 43.5q75 0 114.5 -43.5t39.5 -125.5v-54h-44v57q0 124 -109 124q-107 0 -107 -124v-388q0 -124 107 -124q109 0 109 124v176h-99v43h143v-216q0 -82 -39.5 -125.5
t-114.5 -43.5z" />
    <glyph glyph-name="gcircumflex" unicode="&#x11d;" horiz-adv-x="378" 
d="M239 567l-60 92l-60 -92h-40l73 120h54l73 -120h-40zM285 422l1 74h38v-518q0 -143 -138 -143q-66 0 -101 31.5t-35 90.5v5h43v-6q0 -81 93 -81q94 0 94 101v107q-36 -74 -116 -74q-119 0 -119 143v212q0 142 119 142q86 0 121 -84zM174 49q48 0 77 38.5t29 103.5v133
q0 65 -29 103.5t-77 38.5q-84 0 -84 -107v-203q0 -107 84 -107z" />
    <glyph glyph-name="Gbreve" unicode="&#x11e;" horiz-adv-x="394" 
d="M104 868h33q3 -58 60 -58t61 58h32q-1 -45 -25.5 -69.5t-67.5 -24.5t-67 24.5t-26 69.5zM198 -10q-74 0 -113 43.5t-39 125.5v382q0 82 39 125.5t113 43.5q75 0 114.5 -43.5t39.5 -125.5v-54h-44v57q0 124 -109 124q-107 0 -107 -124v-388q0 -124 107 -124q109 0 109 124
v176h-99v43h143v-216q0 -82 -39.5 -125.5t-114.5 -43.5z" />
    <glyph glyph-name="gbreve" unicode="&#x11f;" horiz-adv-x="378" 
d="M86 674h33q3 -58 60 -58t61 58h32q-1 -45 -25.5 -69.5t-67.5 -24.5t-67 24.5t-26 69.5zM285 422l1 74h38v-518q0 -143 -138 -143q-66 0 -101 31.5t-35 90.5v5h43v-6q0 -81 93 -81q94 0 94 101v107q-36 -74 -116 -74q-119 0 -119 143v212q0 142 119 142q86 0 121 -84z
M174 49q48 0 77 38.5t29 103.5v133q0 65 -29 103.5t-77 38.5q-84 0 -84 -107v-203q0 -107 84 -107z" />
    <glyph glyph-name="Gdotaccent" unicode="&#x120;" horiz-adv-x="394" 
d="M220 771h-45v100h45v-100zM198 -10q-74 0 -113 43.5t-39 125.5v382q0 82 39 125.5t113 43.5q75 0 114.5 -43.5t39.5 -125.5v-54h-44v57q0 124 -109 124q-107 0 -107 -124v-388q0 -124 107 -124q109 0 109 124v176h-99v43h143v-216q0 -82 -39.5 -125.5t-114.5 -43.5z" />
    <glyph glyph-name="gdotaccent" unicode="&#x121;" horiz-adv-x="378" 
d="M157 677h45v-100h-45v100zM285 422l1 74h38v-518q0 -143 -138 -143q-66 0 -101 31.5t-35 90.5v5h43v-6q0 -81 93 -81q94 0 94 101v107q-36 -74 -116 -74q-119 0 -119 143v212q0 142 119 142q86 0 121 -84zM174 49q48 0 77 38.5t29 103.5v133q0 65 -29 103.5t-77 38.5
q-84 0 -84 -107v-203q0 -107 84 -107z" />
    <glyph glyph-name="uni0122" unicode="&#x122;" horiz-adv-x="394" 
d="M198 -10q-74 0 -113 43.5t-39 125.5v382q0 82 39 125.5t113 43.5q75 0 114.5 -43.5t39.5 -125.5v-54h-44v57q0 124 -109 124q-107 0 -107 -124v-388q0 -124 107 -124q109 0 109 124v176h-99v43h143v-216q0 -82 -39.5 -125.5t-114.5 -43.5zM189 -179h-19l25 52h-19v77h45
v-73z" />
    <glyph glyph-name="uni0123" unicode="&#x123;" horiz-adv-x="378" 
d="M182 654h19v-77h-45v74l32 56h19zM285 422l1 74h38v-518q0 -143 -138 -143q-66 0 -101 31.5t-35 90.5v5h43v-6q0 -81 93 -81q94 0 94 101v107q-36 -74 -116 -74q-119 0 -119 143v212q0 142 119 142q86 0 121 -84zM174 49q48 0 77 38.5t29 103.5v133q0 65 -29 103.5
t-77 38.5q-84 0 -84 -107v-203q0 -107 84 -107z" />
    <glyph glyph-name="Hcircumflex" unicode="&#x124;" horiz-adv-x="415" 
d="M148 761h-40l73 120h54l73 -120h-40l-60 92zM100 0h-46v700h46v-314h215v314h46v-700h-46v344h-215v-344z" />
    <glyph glyph-name="hcircumflex" unicode="&#x125;" horiz-adv-x="380" 
d="M176 761h-40l-60 92l-60 -92h-40l73 120h54zM213 506q117 0 117 -142v-364h-45v357q0 109 -82 109q-48 0 -76 -38t-28 -104v-324h-45v700h45v-264q36 70 114 70z" />
    <glyph glyph-name="Hbar" unicode="&#x126;" horiz-adv-x="434" 
d="M371 563h42v-39h-42v-524h-46v344h-215v-344h-46v524h-43v39h43v137h46v-137h215v137h46v-137zM110 386h215v138h-215v-138z" />
    <glyph glyph-name="hbar" unicode="&#x127;" horiz-adv-x="380" 
d="M213 506q117 0 117 -142v-364h-45v357q0 109 -82 109q-48 0 -76 -38t-28 -104v-324h-45v579h-53v37h53v84h45v-84h90v-37h-90v-143q36 70 114 70z" />
    <glyph glyph-name="Itilde" unicode="&#x128;" horiz-adv-x="154" 
d="M-4 779l-28 14q29 65 69 65q25 0 52 -21q21 -15 33 -15q23 0 41 42l28 -14q-29 -65 -69 -65q-26 0 -53 21q-19 15 -32 15q-24 0 -41 -42zM100 0h-46v700h46v-700z" />
    <glyph glyph-name="itilde" unicode="&#x129;" horiz-adv-x="153" 
d="M-5 585l-28 14q29 65 69 65q25 0 52 -21q21 -15 33 -15q23 0 41 42l28 -14q-29 -65 -69 -65q-26 0 -53 21q-20 15 -32 15q-24 0 -41 -42zM99 0h-45v496h45v-496z" />
    <glyph glyph-name="Imacron" unicode="&#x12a;" horiz-adv-x="154" 
d="M174 801h-194v41h194v-41zM100 0h-46v700h46v-700z" />
    <glyph glyph-name="imacron" unicode="&#x12b;" horiz-adv-x="153" 
d="M173 607h-194v41h194v-41zM99 0h-45v496h45v-496z" />
    <glyph glyph-name="Ibreve" unicode="&#x12c;" horiz-adv-x="154" 
d="M-16 868h33q3 -58 60 -58t61 58h32q-1 -45 -25.5 -69.5t-67.5 -24.5t-67 24.5t-26 69.5zM100 0h-46v700h46v-700z" />
    <glyph glyph-name="ibreve" unicode="&#x12d;" horiz-adv-x="153" 
d="M-17 674h33q3 -58 60 -58t61 58h32q-1 -45 -25.5 -69.5t-67.5 -24.5t-67 24.5t-26 69.5zM99 0h-45v496h45v-496z" />
    <glyph glyph-name="Iogonek" unicode="&#x12e;" horiz-adv-x="154" 
d="M93 -122q22 0 43 12v-33q-27 -12 -54 -12q-74 2 -74 63q0 52 54 92h-8v700h46v-700h-6q-49 -33 -49 -81q0 -41 48 -41z" />
    <glyph glyph-name="iogonek" unicode="&#x12f;" horiz-adv-x="153" 
d="M54 677h45v-100h-45v100zM92 -122q22 0 43 12v-33q-27 -12 -54 -12q-74 2 -74 63q0 52 54 92h-7v496h45v-496h-6q-49 -33 -49 -81q0 -41 48 -41z" />
    <glyph glyph-name="Idot" unicode="&#x130;" horiz-adv-x="154" 
d="M100 771h-45v100h45v-100zM100 0h-46v700h46v-700z" />
    <glyph glyph-name="dotlessi" unicode="&#x131;" horiz-adv-x="153" 
d="M99 0h-45v496h45v-496z" />
    <glyph glyph-name="IJ" unicode="&#x132;" horiz-adv-x="413" 
d="M100 0h-46v700h46v-700zM227 -4q-31 0 -51 7v43q24 -8 46 -8q49 0 71.5 26t22.5 83v553h46v-552q0 -77 -33 -114.5t-102 -37.5z" />
    <glyph glyph-name="ij" unicode="&#x133;" horiz-adv-x="306" 
d="M99 577h-45v100h45v-100zM252 577h-45v100h45v-100zM99 0h-45v496h45v-496zM175 -165q-26 0 -42 10v40q19 -10 37 -10q20 0 28.5 10.5t8.5 38.5v572h45v-574q0 -87 -77 -87z" />
    <glyph glyph-name="Jcircumflex" unicode="&#x134;" horiz-adv-x="259" 
d="M113 761h-40l73 120h54l73 -120h-40l-60 92zM73 -4q-31 0 -51 7v43q24 -8 46 -8q49 0 71.5 26t22.5 83v553h46v-552q0 -77 -33 -114.5t-102 -37.5z" />
    <glyph glyph-name="jcircumflex" unicode="&#x135;" horiz-adv-x="153" 
d="M16 567h-40l73 120h54l73 -120h-40l-60 92zM22 -165q-26 0 -42 10v40q19 -10 37 -10q20 0 28.5 10.5t8.5 38.5v572h45v-574q0 -87 -77 -87z" />
    <glyph glyph-name="uni0136" unicode="&#x136;" horiz-adv-x="402" 
d="M378 700l-159 -265l161 -435h-49l-142 385l-89 -148v-237h-46v700h46v-385l229 385h49zM212 -127h-19v77h45v-73l-32 -56h-19z" />
    <glyph glyph-name="uni0137" unicode="&#x137;" horiz-adv-x="372" 
d="M344 496l-137 -189l143 -307h-50l-123 265l-78 -108v-157h-45v700h45v-478l195 274h50zM197 -127h-19v77h45v-73l-32 -56h-19z" />
    <glyph glyph-name="kgreenlandic" unicode="&#x138;" horiz-adv-x="370" 
d="M349 0h-50l-123 265l-78 -108v-157h-45v496h45v-274l195 274h50l-137 -189z" />
    <glyph glyph-name="Lacute" unicode="&#x139;" horiz-adv-x="340" 
d="M89 761h-40l71 120h54zM319 0h-265v700h46v-658h219v-42z" />
    <glyph glyph-name="lacute" unicode="&#x13a;" horiz-adv-x="153" 
d="M78 761h-40l71 120h54zM99 0h-45v700h45v-700z" />
    <glyph glyph-name="uni013B" unicode="&#x13b;" horiz-adv-x="340" 
d="M319 0h-265v700h46v-658h219v-42zM180 -179h-19l25 52h-19v77h45v-73z" />
    <glyph glyph-name="uni013C" unicode="&#x13c;" horiz-adv-x="153" 
d="M99 0h-45v700h45v-700zM67 -179h-19l25 52h-19v77h45v-73z" />
    <glyph glyph-name="Lcaron" unicode="&#x13d;" horiz-adv-x="340" 
d="M319 0h-265v700h46v-658h219v-42zM232 530h-20l19 83h-16v87h44v-83z" />
    <glyph glyph-name="lcaron" unicode="&#x13e;" horiz-adv-x="184" 
d="M99 0h-45v700h45v-700zM161 530h-20l19 83h-16v87h44v-83z" />
    <glyph glyph-name="Ldot" unicode="&#x13f;" horiz-adv-x="339" 
d="M319 0h-265v700h46v-658h219v-42zM268 324h-45v88h45v-88z" />
    <glyph glyph-name="ldot" unicode="&#x140;" horiz-adv-x="204" 
d="M99 0h-45v700h45v-700zM202 304h-48v91h48v-91z" />
    <glyph glyph-name="Lslash" unicode="&#x141;" horiz-adv-x="367" 
d="M127 271v-229h219v-42h-265v222l-59 -63v52l59 63v426h46v-376l152 163v-53z" />
    <glyph glyph-name="lslash" unicode="&#x142;" horiz-adv-x="211" 
d="M128 445l61 62v-48l-61 -62v-397h-45v350l-59 -60v48l59 60v302h45v-255z" />
    <glyph glyph-name="Nacute" unicode="&#x143;" horiz-adv-x="422" 
d="M213 761h-40l71 120h54zM98 0h-44v700h64l206 -582v582h44v-700h-51l-219 626v-626z" />
    <glyph glyph-name="nacute" unicode="&#x144;" horiz-adv-x="380" 
d="M223 687h54l-85 -120h-40zM213 506q117 0 117 -142v-364h-45v357q0 109 -82 109q-48 0 -76 -38t-28 -104v-324h-45v496h39l1 -72q33 82 119 82z" />
    <glyph glyph-name="uni0145" unicode="&#x145;" horiz-adv-x="422" 
d="M98 0h-44v700h64l206 -582v582h44v-700h-51l-219 626v-626zM202 -179h-19l25 52h-19v77h45v-73z" />
    <glyph glyph-name="uni0146" unicode="&#x146;" horiz-adv-x="380" 
d="M213 506q117 0 117 -142v-364h-45v357q0 109 -82 109q-48 0 -76 -38t-28 -104v-324h-45v496h39l1 -72q33 82 119 82zM187 -127h-19v77h45v-73l-32 -56h-19z" />
    <glyph glyph-name="Ncaron" unicode="&#x147;" horiz-adv-x="422" 
d="M238 761h-54l-73 120h40l60 -92l60 92h40zM98 0h-44v700h64l206 -582v582h44v-700h-51l-219 626v-626z" />
    <glyph glyph-name="ncaron" unicode="&#x148;" horiz-adv-x="380" 
d="M290 687l-73 -120h-54l-73 120h40l60 -92l60 92h40zM213 506q117 0 117 -142v-364h-45v357q0 109 -82 109q-48 0 -76 -38t-28 -104v-324h-45v496h39l1 -72q33 82 119 82z" />
    <glyph glyph-name="napostrophe" unicode="&#x149;" horiz-adv-x="380" 
d="M13 612h-17v88h45v-84l-30 -86h-20zM213 506q117 0 117 -142v-364h-45v357q0 109 -82 109q-48 0 -76 -38t-28 -104v-324h-45v496h39l1 -72q33 82 119 82z" />
    <glyph glyph-name="Eng" unicode="&#x14a;" horiz-adv-x="422" 
d="M234 -165q-31 0 -52 7v40q22 -8 47 -8q49 0 71 26t22 82q0 24 -9 51l-215 593v-626h-44v700h64l206 -568v568h44v-713q0 -152 -134 -152z" />
    <glyph glyph-name="eng" unicode="&#x14b;" horiz-adv-x="380" 
d="M214 506q116 0 116 -142v-424q0 -105 -96 -105q-30 0 -53 10v40q20 -10 47 -10q31 0 44 15.5t13 52.5v416q0 107 -81 107q-48 0 -76.5 -38t-28.5 -104v-324h-45v496h38l1 -73q35 83 121 83z" />
    <glyph glyph-name="Omacron" unicode="&#x14c;" 
d="M297 801h-194v41h194v-41zM46 159v382q0 82 40 125.5t114 43.5t114 -43.5t40 -125.5v-382q0 -82 -40 -125.5t-114 -43.5t-114 43.5t-40 125.5zM308 156v388q0 124 -108 124t-108 -124v-388q0 -124 108 -124t108 124z" />
    <glyph glyph-name="omacron" unicode="&#x14d;" horiz-adv-x="368" 
d="M281 607h-194v41h194v-41zM44 149v198q0 77 36 118t104 41t104 -41t36 -118v-198q0 -77 -36 -118t-104 -41t-104 41t-36 118zM279 145v206q0 115 -95 115t-95 -115v-206q0 -115 95 -115t95 115z" />
    <glyph glyph-name="Obreve" unicode="&#x14e;" 
d="M107 868h33q3 -58 60 -58t61 58h32q-1 -45 -25.5 -69.5t-67.5 -24.5t-67 24.5t-26 69.5zM46 159v382q0 82 40 125.5t114 43.5t114 -43.5t40 -125.5v-382q0 -82 -40 -125.5t-114 -43.5t-114 43.5t-40 125.5zM308 156v388q0 124 -108 124t-108 -124v-388q0 -124 108 -124
t108 124z" />
    <glyph glyph-name="obreve" unicode="&#x14f;" horiz-adv-x="368" 
d="M91 674h33q3 -58 60 -58t61 58h32q-1 -45 -25.5 -69.5t-67.5 -24.5t-67 24.5t-26 69.5zM44 149v198q0 77 36 118t104 41t104 -41t36 -118v-198q0 -77 -36 -118t-104 -41t-104 41t-36 118zM279 145v206q0 115 -95 115t-95 -115v-206q0 -115 95 -115t95 115z" />
    <glyph glyph-name="Ohungarumlaut" unicode="&#x150;" 
d="M146 761h-40l71 120h54zM260 761h-40l71 120h54zM46 159v382q0 82 40 125.5t114 43.5t114 -43.5t40 -125.5v-382q0 -82 -40 -125.5t-114 -43.5t-114 43.5t-40 125.5zM308 156v388q0 124 -108 124t-108 -124v-388q0 -124 108 -124t108 124z" />
    <glyph glyph-name="ohungarumlaut" unicode="&#x151;" horiz-adv-x="368" 
d="M130 567h-40l71 120h54zM244 567h-40l71 120h54zM44 149v198q0 77 36 118t104 41t104 -41t36 -118v-198q0 -77 -36 -118t-104 -41t-104 41t-36 118zM279 145v206q0 115 -95 115t-95 -115v-206q0 -115 95 -115t95 115z" />
    <glyph glyph-name="OE" unicode="&#x152;" horiz-adv-x="603" 
d="M579 0h-380q-79 0 -116 40.5t-37 126.5v366q0 86 37 126.5t116 40.5h380v-42h-228v-272h189v-42h-189v-302h228v-42zM200 42h105v616h-105q-57 0 -82.5 -28.5t-25.5 -94.5v-370q0 -66 25.5 -94.5t82.5 -28.5z" />
    <glyph glyph-name="oe" unicode="&#x153;" horiz-adv-x="601" 
d="M423 506q66 0 102 -41.5t36 -117.5v-100h-236v-102q0 -115 95 -115q98 0 98 115v12h43v-8q0 -76 -36 -117.5t-102 -41.5q-93 0 -121 81q-28 -81 -121 -81q-66 0 -101 41t-35 118v198q0 77 35 118t101 41q93 0 121 -81q28 81 121 81zM280 145v206q0 115 -95 115t-95 -115
v-206q0 -115 95 -115t95 115zM325 351v-64h192v64q0 115 -97 115q-95 0 -95 -115z" />
    <glyph glyph-name="Racute" unicode="&#x154;" horiz-adv-x="398" 
d="M193 761h-40l71 120h54zM100 0h-46v700h144q81 0 117 -37.5t36 -120.5v-43q0 -121 -90 -143v-1q47 -10 68.5 -44.5t21.5 -98.5v-128q0 -54 9 -84h-47q-8 37 -8 84v130q0 64 -26.5 90.5t-89.5 26.5h-89v-331zM100 658v-284h87q61 0 89.5 27.5t28.5 89.5v47q0 64 -25 92
t-83 28h-97z" />
    <glyph glyph-name="racute" unicode="&#x155;" horiz-adv-x="256" 
d="M170 687h54l-85 -120h-40zM204 506q22 0 35 -6v-45q-14 7 -34 7q-106 0 -106 -170v-292h-45v496h38l1 -80q29 90 111 90z" />
    <glyph glyph-name="uni0156" unicode="&#x156;" horiz-adv-x="398" 
d="M100 0h-46v700h144q81 0 117 -37.5t36 -120.5v-43q0 -121 -90 -143v-1q47 -10 68.5 -44.5t21.5 -98.5v-128q0 -54 9 -84h-47q-8 37 -8 84v130q0 64 -26.5 90.5t-89.5 26.5h-89v-331zM100 658v-284h87q61 0 89.5 27.5t28.5 89.5v47q0 64 -25 92t-83 28h-97zM201 -179h-19
l25 52h-19v77h45v-73z" />
    <glyph glyph-name="uni0157" unicode="&#x157;" horiz-adv-x="256" 
d="M204 506q22 0 35 -6v-45q-14 7 -34 7q-106 0 -106 -170v-292h-45v496h38l1 -80q29 90 111 90zM73 -127h-19v77h45v-73l-32 -56h-19z" />
    <glyph glyph-name="Rcaron" unicode="&#x158;" horiz-adv-x="398" 
d="M218 761h-54l-73 120h40l60 -92l60 92h40zM100 0h-46v700h144q81 0 117 -37.5t36 -120.5v-43q0 -121 -90 -143v-1q47 -10 68.5 -44.5t21.5 -98.5v-128q0 -54 9 -84h-47q-8 37 -8 84v130q0 64 -26.5 90.5t-89.5 26.5h-89v-331zM100 658v-284h87q61 0 89.5 27.5t28.5 89.5
v47q0 64 -25 92t-83 28h-97z" />
    <glyph glyph-name="rcaron" unicode="&#x159;" horiz-adv-x="256" 
d="M237 687l-73 -120h-54l-73 120h40l60 -92l60 92h40zM204 506q22 0 35 -6v-45q-14 7 -34 7q-106 0 -106 -170v-292h-45v496h38l1 -80q29 90 111 90z" />
    <glyph glyph-name="Sacute" unicode="&#x15a;" horiz-adv-x="367" 
d="M185 761h-40l71 120h54zM183 -10q-72 0 -111 43t-39 120v38h44v-41q0 -57 28 -87.5t78 -30.5t78 30.5t28 87.5q0 54 -27 94q-26 41 -94 94q-76 58 -106 105q-29 47 -29 107q0 75 39.5 117.5t110.5 42.5t109.5 -42.5t38.5 -120.5v-27h-44v30q0 57 -27 87.5t-77 30.5
q-49 0 -76.5 -30t-27.5 -85q0 -49 27 -89q27 -39 97 -94q73 -57 103 -106q29 -47 29 -111q0 -77 -39.5 -120t-112.5 -43z" />
    <glyph glyph-name="sacute" unicode="&#x15b;" horiz-adv-x="336" 
d="M167 567h-40l71 120h54zM170 -10q-64 0 -100.5 35.5t-36.5 98.5v18h43v-19q0 -45 24.5 -69t67.5 -24t67.5 23.5t24.5 67.5q0 39 -23 61.5t-77 48.5q-53 25 -82 50q-40 34 -40 98q0 58 34.5 92.5t93.5 34.5q58 0 93.5 -35t35.5 -97v-9h-42v10q0 44 -23 67.5t-63 23.5
q-39 0 -62.5 -23t-23.5 -64q0 -43 32 -69q30 -22 69 -40q52 -25 82 -51q40 -33 40 -98q0 -62 -35.5 -96.5t-98.5 -34.5z" />
    <glyph glyph-name="Scircumflex" unicode="&#x15c;" horiz-adv-x="367" 
d="M123 761h-40l73 120h54l73 -120h-40l-60 92zM183 -10q-72 0 -111 43t-39 120v38h44v-41q0 -57 28 -87.5t78 -30.5t78 30.5t28 87.5q0 54 -27 94q-26 41 -94 94q-76 58 -106 105q-29 47 -29 107q0 75 39.5 117.5t110.5 42.5t109.5 -42.5t38.5 -120.5v-27h-44v30
q0 57 -27 87.5t-77 30.5q-49 0 -76.5 -30t-27.5 -85q0 -49 27 -89q27 -39 97 -94q73 -57 103 -106q29 -47 29 -111q0 -77 -39.5 -120t-112.5 -43z" />
    <glyph glyph-name="scircumflex" unicode="&#x15d;" horiz-adv-x="336" 
d="M105 567h-40l73 120h54l73 -120h-40l-60 92zM170 -10q-64 0 -100.5 35.5t-36.5 98.5v18h43v-19q0 -45 24.5 -69t67.5 -24t67.5 23.5t24.5 67.5q0 39 -23 61.5t-77 48.5q-53 25 -82 50q-40 34 -40 98q0 58 34.5 92.5t93.5 34.5q58 0 93.5 -35t35.5 -97v-9h-42v10
q0 44 -23 67.5t-63 23.5q-39 0 -62.5 -23t-23.5 -64q0 -43 32 -69q30 -22 69 -40q52 -25 82 -51q40 -33 40 -98q0 -62 -35.5 -96.5t-98.5 -34.5z" />
    <glyph glyph-name="Scedilla" unicode="&#x15e;" horiz-adv-x="367" 
d="M335 153q0 -73 -36 -115.5t-102 -47.5v-39q65 0 65 -49q0 -57 -82 -57q-81 0 -81 56v6h37v-7q0 -25 42 -25q47 0 47 26q0 24 -42 24h-14v65q-65 4 -100.5 46.5t-35.5 116.5v38h44v-41q0 -57 28 -87.5t78 -30.5t78 30.5t28 87.5q0 54 -27 94q-26 41 -94 94
q-76 58 -106 105q-29 47 -29 107q0 75 39.5 117.5t110.5 42.5t109.5 -42.5t38.5 -120.5v-27h-44v30q0 57 -27 87.5t-77 30.5q-49 0 -76.5 -30t-27.5 -85q0 -49 27 -89q27 -39 97 -94q73 -57 103 -106q29 -47 29 -111z" />
    <glyph glyph-name="scedilla" unicode="&#x15f;" horiz-adv-x="336" 
d="M304 121q0 -58 -32 -92.5t-90 -38.5v-39q65 0 65 -49q0 -57 -82 -57q-81 0 -81 56v6h37v-7q0 -25 42 -25q47 0 47 26q0 24 -42 24h-14v66q-57 4 -89 38.5t-32 94.5v18h43v-19q0 -45 24.5 -69t67.5 -24t67.5 23.5t24.5 67.5q0 39 -23 61.5t-77 48.5q-53 25 -82 50
q-40 34 -40 98q0 58 34.5 92.5t93.5 34.5q58 0 93.5 -35t35.5 -97v-9h-42v10q0 44 -23 67.5t-63 23.5q-39 0 -62.5 -23t-23.5 -64q0 -43 32 -69q30 -22 69 -40q52 -25 82 -51q40 -33 40 -98z" />
    <glyph glyph-name="Scaron" unicode="&#x160;" horiz-adv-x="367" 
d="M210 761h-54l-73 120h40l60 -92l60 92h40zM183 -10q-72 0 -111 43t-39 120v38h44v-41q0 -57 28 -87.5t78 -30.5t78 30.5t28 87.5q0 54 -27 94q-26 41 -94 94q-76 58 -106 105q-29 47 -29 107q0 75 39.5 117.5t110.5 42.5t109.5 -42.5t38.5 -120.5v-27h-44v30
q0 57 -27 87.5t-77 30.5q-49 0 -76.5 -30t-27.5 -85q0 -49 27 -89q27 -39 97 -94q73 -57 103 -106q29 -47 29 -111q0 -77 -39.5 -120t-112.5 -43z" />
    <glyph glyph-name="scaron" unicode="&#x161;" horiz-adv-x="336" 
d="M192 567h-54l-73 120h40l60 -92l60 92h40zM170 -10q-64 0 -100.5 35.5t-36.5 98.5v18h43v-19q0 -45 24.5 -69t67.5 -24t67.5 23.5t24.5 67.5q0 39 -23 61.5t-77 48.5q-53 25 -82 50q-40 34 -40 98q0 58 34.5 92.5t93.5 34.5q58 0 93.5 -35t35.5 -97v-9h-42v10
q0 44 -23 67.5t-63 23.5q-39 0 -62.5 -23t-23.5 -64q0 -43 32 -69q30 -22 69 -40q52 -25 82 -51q40 -33 40 -98q0 -62 -35.5 -96.5t-98.5 -34.5z" />
    <glyph glyph-name="uni0162" unicode="&#x162;" horiz-adv-x="354" 
d="M200 658v-658h-9v-49q65 0 65 -49q0 -57 -82 -57q-81 0 -81 56v6h37v-7q0 -25 42 -25q47 0 47 26q0 24 -42 24h-14v75h-9v658h-133v42h312v-42h-133z" />
    <glyph glyph-name="uni0163" unicode="&#x163;" horiz-adv-x="258" 
d="M236 496v-39h-105v-359q0 -37 13 -52.5t44 -15.5q28 0 48 10v-40q-21 -10 -54 -10q-16 0 -21 1v-40q65 0 65 -49q0 -57 -82 -57q-81 0 -81 56v6h37v-7q0 -25 42 -25q47 0 47 26q0 24 -42 24h-14v74q-47 23 -47 96v362h-66v39h67l6 152h38v-152h105z" />
    <glyph glyph-name="Tcaron" unicode="&#x164;" horiz-adv-x="354" 
d="M204 761h-54l-73 120h40l60 -92l60 92h40zM200 0h-46v658h-133v42h312v-42h-133v-658z" />
    <glyph glyph-name="tcaron" unicode="&#x165;" horiz-adv-x="258" 
d="M220 635l-27 -87h-20l20 83h-16v87h43v-83zM236 496v-39h-105v-359q0 -37 13 -52.5t44 -15.5q28 0 48 10v-40q-21 -10 -54 -10q-96 0 -96 105v362h-66v39h67l6 152h38v-152h105z" />
    <glyph glyph-name="Tbar" unicode="&#x166;" horiz-adv-x="354" 
d="M333 700v-42h-133v-272h92v-42h-92v-344h-46v344h-92v42h92v272h-133v42h312z" />
    <glyph glyph-name="tbar" unicode="&#x167;" horiz-adv-x="258" 
d="M236 496v-39h-105v-181h87v-32h-87v-146q0 -37 13 -52.5t44 -15.5q28 0 48 10v-40q-21 -10 -54 -10q-96 0 -96 105v149h-56v32h56v181h-66v39h67l6 152h38v-152h105z" />
    <glyph glyph-name="Utilde" unicode="&#x168;" horiz-adv-x="404" 
d="M121 779l-28 14q29 65 69 65q25 0 52 -21q21 -15 33 -15q23 0 41 42l28 -14q-29 -65 -69 -65q-26 0 -53 21q-19 15 -32 15q-24 0 -41 -42zM50 159v541h46v-544q0 -124 107 -124q106 0 106 124v544h45v-541q0 -82 -39 -125.5t-113 -43.5t-113 43.5t-39 125.5z" />
    <glyph glyph-name="utilde" unicode="&#x169;" horiz-adv-x="380" 
d="M148 627q-24 0 -41 -42l-28 14q29 65 69 65q25 0 52 -21q21 -15 33 -15q23 0 41 42l28 -14q-29 -65 -69 -65q-26 0 -53 21q-20 15 -32 15zM281 172v324h45v-496h-39l-1 72q-33 -82 -119 -82q-117 0 -117 142v364h45v-357q0 -109 82 -109q48 0 76 38t28 104z" />
    <glyph glyph-name="Umacron" unicode="&#x16a;" horiz-adv-x="404" 
d="M299 801h-194v41h194v-41zM50 159v541h46v-544q0 -124 107 -124q106 0 106 124v544h45v-541q0 -82 -39 -125.5t-113 -43.5t-113 43.5t-39 125.5z" />
    <glyph glyph-name="umacron" unicode="&#x16b;" horiz-adv-x="380" 
d="M91 648h194v-41h-194v41zM281 172v324h45v-496h-39l-1 72q-33 -82 -119 -82q-117 0 -117 142v364h45v-357q0 -109 82 -109q48 0 76 38t28 104z" />
    <glyph glyph-name="Ubreve" unicode="&#x16c;" horiz-adv-x="404" 
d="M109 868h33q3 -58 60 -58t61 58h32q-1 -45 -25.5 -69.5t-67.5 -24.5t-67 24.5t-26 69.5zM50 159v541h46v-544q0 -124 107 -124q106 0 106 124v544h45v-541q0 -82 -39 -125.5t-113 -43.5t-113 43.5t-39 125.5z" />
    <glyph glyph-name="ubreve" unicode="&#x16d;" horiz-adv-x="380" 
d="M95 674h33q3 -58 60 -58t61 58h32q-1 -45 -25.5 -69.5t-67.5 -24.5t-67 24.5t-26 69.5zM281 172v324h45v-496h-39l-1 72q-33 -82 -119 -82q-117 0 -117 142v364h45v-357q0 -109 82 -109q48 0 76 38t28 104z" />
    <glyph glyph-name="Uring" unicode="&#x16e;" horiz-adv-x="404" 
d="M132 831q0 30 20 50.5t50 20.5t50 -20.5t20 -50.5q0 -29 -20 -49.5t-50 -20.5t-50 20.5t-20 49.5zM174 803q11 -11 28 -11t28 11t11 28t-11 28q-11 12 -28 12t-28 -12q-11 -11 -11 -28t11 -28zM50 159v541h46v-544q0 -124 107 -124q106 0 106 124v544h45v-541
q0 -82 -39 -125.5t-113 -43.5t-113 43.5t-39 125.5z" />
    <glyph glyph-name="uring" unicode="&#x16f;" horiz-adv-x="380" 
d="M118 637q0 30 20 50.5t50 20.5t50 -20.5t20 -50.5q0 -29 -20 -49.5t-50 -20.5t-50 20.5t-20 49.5zM216 665q-11 12 -28 12t-28 -12q-11 -11 -11 -28t11 -28t28 -11t28 11t11 28t-11 28zM281 172v324h45v-496h-39l-1 72q-33 -82 -119 -82q-117 0 -117 142v364h45v-357
q0 -109 82 -109q48 0 76 38t28 104z" />
    <glyph glyph-name="Uhungarumlaut" unicode="&#x170;" horiz-adv-x="404" 
d="M148 761h-40l71 120h54zM262 761h-40l71 120h54zM50 159v541h46v-544q0 -124 107 -124q106 0 106 124v544h45v-541q0 -82 -39 -125.5t-113 -43.5t-113 43.5t-39 125.5z" />
    <glyph glyph-name="uhungarumlaut" unicode="&#x171;" horiz-adv-x="380" 
d="M165 687h54l-85 -120h-40zM333 687l-85 -120h-40l71 120h54zM281 172v324h45v-496h-39l-1 72q-33 -82 -119 -82q-117 0 -117 142v364h45v-357q0 -109 82 -109q48 0 76 38t28 104z" />
    <glyph glyph-name="Uogonek" unicode="&#x172;" horiz-adv-x="404" 
d="M309 156v544h45v-541q0 -140 -109 -165q-42 -32 -42 -75q0 -41 48 -41q22 0 43 12v-33q-27 -12 -54 -12q-74 2 -74 63q0 46 42 82h-6q-74 0 -113 43.5t-39 125.5v541h46v-544q0 -124 107 -124q106 0 106 124z" />
    <glyph glyph-name="uogonek" unicode="&#x173;" horiz-adv-x="380" 
d="M299 -122q22 0 43 12v-33q-27 -12 -54 -12q-74 2 -74 63q0 59 73 99l-1 65q-33 -82 -119 -82q-117 0 -117 142v364h45v-357q0 -109 82 -109q48 0 76 38t28 104v324h45v-496h-15q-60 -39 -60 -81q0 -41 48 -41z" />
    <glyph glyph-name="Wcircumflex" unicode="&#x174;" horiz-adv-x="558" 
d="M219 761h-40l73 120h54l73 -120h-40l-60 92zM190 0h-65l-100 700h45l91 -637l91 637h56l92 -637l91 637h42l-100 -700h-63l-90 610z" />
    <glyph glyph-name="wcircumflex" unicode="&#x175;" horiz-adv-x="527" 
d="M204 567h-40l73 120h54l73 -120h-40l-60 92zM181 0h-58l-98 496h45l86 -431l83 431h52l84 -431l85 431h42l-97 -496h-56l-84 411z" />
    <glyph glyph-name="Ycircumflex" unicode="&#x176;" horiz-adv-x="386" 
d="M133 761h-40l73 120h54l73 -120h-40l-60 92zM216 0h-46v316l-149 384h49l124 -323l125 323h46l-149 -384v-316z" />
    <glyph glyph-name="ycircumflex" unicode="&#x177;" horiz-adv-x="350" 
d="M235 567l-60 92l-60 -92h-40l73 120h54l73 -120h-40zM285 496h42l-116 -463l-26 -102q-13 -52 -36 -74t-66 -22q-29 0 -45 10v40q16 -10 41 -10q26 0 39 12.5t22 48.5l18 69l-136 491h46l114 -415z" />
    <glyph glyph-name="Ydieresis" unicode="&#x178;" horiz-adv-x="386" 
d="M160 771h-45v100h45v-100zM271 771h-45v100h45v-100zM216 0h-46v316l-149 384h49l124 -323l125 323h46l-149 -384v-316z" />
    <glyph glyph-name="Zacute" unicode="&#x179;" horiz-adv-x="351" 
d="M182 761h-40l71 120h54zM325 0h-300v41l250 617h-240v42h290v-41l-250 -617h250v-42z" />
    <glyph glyph-name="zacute" unicode="&#x17a;" horiz-adv-x="323" 
d="M168 567h-40l71 120h54zM294 0h-266v38l217 419h-207v39h256v-38l-217 -419h217v-39z" />
    <glyph glyph-name="Zdotaccent" unicode="&#x17b;" horiz-adv-x="351" 
d="M203 771h-45v100h45v-100zM325 0h-300v41l250 617h-240v42h290v-41l-250 -617h250v-42z" />
    <glyph glyph-name="zdotaccent" unicode="&#x17c;" horiz-adv-x="323" 
d="M189 577h-45v100h45v-100zM294 0h-266v38l217 419h-207v39h256v-38l-217 -419h217v-39z" />
    <glyph glyph-name="Zcaron" unicode="&#x17d;" horiz-adv-x="351" 
d="M207 761h-54l-73 120h40l60 -92l60 92h40zM325 0h-300v41l250 617h-240v42h290v-41l-250 -617h250v-42z" />
    <glyph glyph-name="zcaron" unicode="&#x17e;" horiz-adv-x="323" 
d="M193 567h-54l-73 120h40l60 -92l60 92h40zM294 0h-266v38l217 419h-207v39h256v-38l-217 -419h217v-39z" />
    <glyph glyph-name="florin" unicode="&#x192;" 
d="M267 359v-2q98 -23 98 -149v-23q0 -132 -104 -155v-85h-43v80h-8h-63v-80h-43v80h-76v42h47v566h-47v42h76v70h43v-70h54h17v70h43v-77q93 -22 93 -150v-15q0 -119 -87 -144zM308 494v19q0 64 -25 92t-83 28h-79v-257h69q61 0 89.5 28t28.5 90zM319 186v24q0 67 -29 95.5
t-98 28.5h-71v-267h89q58 0 83.5 28.5t25.5 90.5z" />
    <glyph glyph-name="AEacute" unicode="&#x1fc;" horiz-adv-x="587" 
d="M336 881h54l-85 -120h-40zM563 700v-42h-227v-271h188v-42h-188v-303h227v-42h-273v161h-169l-56 -161h-44l244 700h298zM290 645l-155 -443h155v443z" />
    <glyph glyph-name="aeacute" unicode="&#x1fd;" horiz-adv-x="587" 
d="M327 687h54l-85 -120h-40zM547 347v-100h-236v-102q0 -115 96 -115q97 0 97 115v12h43v-8q0 -77 -36 -118t-105 -41q-100 0 -130 87q-32 -87 -128 -87q-54 0 -85 32t-31 88t28.5 92t98.5 67t89 47q18 15 18 45v14q0 91 -86 91q-43 0 -68 -25t-25 -70v-11h-42v9
q0 65 35.5 101t96.5 36q91 0 114 -75q29 75 118 75q67 0 102.5 -41t35.5 -118zM406 466q-95 0 -95 -115v-64h192v64q0 115 -97 115zM157 30q50 0 79.5 38t29.5 104v117q-13 -20 -94 -56q-51 -22 -73 -50t-22 -69q0 -39 21 -61.5t59 -22.5z" />
    <glyph glyph-name="Oslashacute" unicode="&#x1fe;" 
d="M233 881h54l-85 -120h-40zM330 726l27 -12l-27 -69q24 -41 24 -104v-382q0 -82 -40 -125.5t-114 -43.5q-68 0 -109 38l-21 -54l-27 12l27 69q-24 40 -24 104v382q0 82 40 125.5t114 43.5q68 0 109 -38zM92 544v-388q0 -20 3 -36l195 503q-26 45 -90 45q-108 0 -108 -124z
M308 156v388q0 20 -3 36l-195 -503q26 -45 90 -45q108 0 108 124z" />
    <glyph glyph-name="oslashacute" unicode="&#x1ff;" horiz-adv-x="368" 
d="M217 687h54l-85 -120h-40zM300 526l24 -13l-28 -59q28 -37 28 -107v-198q0 -77 -36 -118t-104 -41q-58 0 -93 30l-23 -49l-24 13l27 58q-27 39 -27 107v198q0 77 36 118t104 41q59 0 92 -30zM89 351v-206q0 -32 7 -52l161 342q-25 31 -73 31q-95 0 -95 -115zM279 145v206
q0 32 -7 52l-161 -341q23 -32 73 -32q95 0 95 115z" />
    <glyph glyph-name="uni0218" unicode="&#x218;" horiz-adv-x="367" 
d="M183 -10q-72 0 -111 43t-39 120v38h44v-41q0 -57 28 -87.5t78 -30.5t78 30.5t28 87.5q0 54 -27 94q-26 41 -94 94q-76 58 -106 105q-29 47 -29 107q0 75 39.5 117.5t110.5 42.5t109.5 -42.5t38.5 -120.5v-27h-44v30q0 57 -27 87.5t-77 30.5q-49 0 -76.5 -30t-27.5 -85
q0 -49 27 -89q27 -39 97 -94q73 -57 103 -106q29 -47 29 -111q0 -77 -39.5 -120t-112.5 -43zM174 -179h-19l25 52h-19v77h45v-73z" />
    <glyph glyph-name="uni0219" unicode="&#x219;" horiz-adv-x="336" 
d="M170 -10q-64 0 -100.5 35.5t-36.5 98.5v18h43v-19q0 -45 24.5 -69t67.5 -24t67.5 23.5t24.5 67.5q0 39 -23 61.5t-77 48.5q-53 25 -82 50q-40 34 -40 98q0 58 34.5 92.5t93.5 34.5q58 0 93.5 -35t35.5 -97v-9h-42v10q0 44 -23 67.5t-63 23.5q-39 0 -62.5 -23t-23.5 -64
q0 -43 32 -69q30 -22 69 -40q52 -25 82 -51q40 -33 40 -98q0 -62 -35.5 -96.5t-98.5 -34.5zM159 -179h-19l25 52h-19v77h45v-73z" />
    <glyph glyph-name="uni021A" unicode="&#x21a;" horiz-adv-x="354" 
d="M200 0h-46v658h-133v42h312v-42h-133v-658zM168 -179h-19l25 52h-19v77h45v-73z" />
    <glyph glyph-name="uni021B" unicode="&#x21b;" horiz-adv-x="258" 
d="M236 496v-39h-105v-359q0 -37 13 -52.5t44 -15.5q28 0 48 10v-40q-21 -10 -54 -10q-96 0 -96 105v362h-66v39h67l6 152h38v-152h105zM144 -127h-19v77h45v-73l-32 -56h-19z" />
    <glyph glyph-name="uni0237" unicode="&#x237;" horiz-adv-x="153" 
d="M22 -165q-26 0 -42 10v40q19 -10 37 -10q20 0 28.5 10.5t8.5 38.5v572h45v-574q0 -87 -77 -87z" />
    <glyph glyph-name="uni02BC" unicode="&#x2bc;" horiz-adv-x="0" 
d="M-8 530h-20l22 82h-17v88h45v-84z" />
    <glyph glyph-name="circumflex" unicode="&#x2c6;" horiz-adv-x="500" 
d="M190 567h-40l73 120h54l73 -120h-40l-60 92z" />
    <glyph glyph-name="caron" unicode="&#x2c7;" horiz-adv-x="500" 
d="M277 567h-54l-73 120h40l60 -92l60 92h40z" />
    <glyph glyph-name="uni02C9" unicode="&#x2c9;" horiz-adv-x="500" 
d="M347 607h-194v41h194v-41z" />
    <glyph glyph-name="breve" unicode="&#x2d8;" horiz-adv-x="500" 
d="M157 674h33q3 -58 60 -58t61 58h32q-1 -45 -25.5 -69.5t-67.5 -24.5t-67 24.5t-26 69.5z" />
    <glyph glyph-name="dotaccent" unicode="&#x2d9;" horiz-adv-x="500" 
d="M273 577h-45v100h45v-100z" />
    <glyph glyph-name="ring" unicode="&#x2da;" horiz-adv-x="500" 
d="M180 637q0 30 20 50.5t50 20.5t50 -20.5t20 -50.5q0 -29 -20 -49.5t-50 -20.5t-50 20.5t-20 49.5zM222 609q11 -11 28 -11t28 11t11 28t-11 28q-11 12 -28 12t-28 -12q-11 -11 -11 -28t11 -28z" />
    <glyph glyph-name="ogonek" unicode="&#x2db;" horiz-adv-x="500" 
d="M261 -155q-74 2 -74 63q0 56 60 96h33q-56 -35 -56 -85q0 -41 48 -41q22 0 43 12v-33q-27 -12 -54 -12z" />
    <glyph glyph-name="tilde" unicode="&#x2dc;" horiz-adv-x="500" 
d="M169 585l-28 14q29 65 69 65q25 0 52 -21q21 -15 33 -15q23 0 41 42l28 -14q-29 -65 -69 -65q-26 0 -53 21q-19 15 -32 15q-24 0 -41 -42z" />
    <glyph glyph-name="hungarumlaut" unicode="&#x2dd;" horiz-adv-x="500" 
d="M196 567h-40l71 120h54zM310 567h-40l71 120h54z" />
    <glyph glyph-name="gravecomb" unicode="&#x300;" horiz-adv-x="0" 
d="M38 567h-40l-85 120h54z" />
    <glyph glyph-name="acutecomb" unicode="&#x301;" horiz-adv-x="0" 
d="M2 567h-40l71 120h54z" />
    <glyph glyph-name="uni0302" unicode="&#x302;" horiz-adv-x="0" 
d="M-60 567h-40l73 120h54l73 -120h-40l-60 92z" />
    <glyph glyph-name="tildecomb" unicode="&#x303;" horiz-adv-x="0" 
d="M-81 585l-28 14q29 65 69 65q25 0 52 -21q21 -15 33 -15q23 0 41 42l28 -14q-29 -65 -69 -65q-26 0 -53 21q-20 15 -32 15q-24 0 -41 -42z" />
    <glyph glyph-name="uni0304" unicode="&#x304;" horiz-adv-x="0" 
d="M97 607h-194v41h194v-41z" />
    <glyph glyph-name="uni0306" unicode="&#x306;" horiz-adv-x="0" 
d="M-93 674h33q3 -58 60 -58t61 58h32q-1 -45 -25.5 -69.5t-67.5 -24.5t-67 24.5t-26 69.5z" />
    <glyph glyph-name="uni0307" unicode="&#x307;" horiz-adv-x="0" 
d="M23 577h-45v100h45v-100z" />
    <glyph glyph-name="uni0308" unicode="&#x308;" horiz-adv-x="0" 
d="M-33 577h-45v100h45v-100zM78 577h-45v100h45v-100z" />
    <glyph glyph-name="uni030A" unicode="&#x30a;" horiz-adv-x="0" 
d="M-70 637q0 30 20 50.5t50 20.5t50 -20.5t20 -50.5q0 -29 -20 -49.5t-50 -20.5t-50 20.5t-20 49.5zM-28 609q11 -11 28 -11t28 11t11 28t-11 28q-11 12 -28 12t-28 -12q-11 -11 -11 -28t11 -28z" />
    <glyph glyph-name="uni030B" unicode="&#x30b;" horiz-adv-x="0" 
d="M-54 567h-40l71 120h54zM60 567h-40l71 120h54z" />
    <glyph glyph-name="uni030C" unicode="&#x30c;" horiz-adv-x="0" 
d="M27 567h-54l-73 120h40l60 -92l60 92h40z" />
    <glyph glyph-name="uni0312" unicode="&#x312;" horiz-adv-x="0" 
d="M22 577h-45v74l32 56h19l-25 -53h19v-77z" />
    <glyph glyph-name="uni0326" unicode="&#x326;" horiz-adv-x="0" 
d="M-9 -179h-19l25 52h-19v77h45v-73z" />
    <glyph glyph-name="uni0327" unicode="&#x327;" horiz-adv-x="0" 
d="M-3 -155q-81 0 -81 56v6h37v-7q0 -25 42 -25q47 0 47 26q0 24 -42 24h-14v80h28v-54q65 0 65 -49q0 -57 -82 -57z" />
    <glyph glyph-name="uni0328" unicode="&#x328;" horiz-adv-x="0" 
d="M11 -155q-74 2 -74 63q0 56 60 96h33q-56 -35 -56 -85q0 -41 48 -41q22 0 43 12v-33q-27 -12 -54 -12z" />
    <glyph glyph-name="uni0335" unicode="&#x335;" horiz-adv-x="0" 
d="M94 330h-188v40h188v-40z" />
    <glyph glyph-name="uni0336" unicode="&#x336;" horiz-adv-x="0" 
d="M196 331h-392v38h392v-38z" />
    <glyph glyph-name="uni0337" unicode="&#x337;" horiz-adv-x="0" 
d="M140 513l-256 -542l-24 13l256 542z" />
    <glyph glyph-name="uni0338" unicode="&#x338;" horiz-adv-x="0" 
d="M157 714l-287 -740l-27 12l287 740z" />
    <glyph glyph-name="uni0394" unicode="&#x394;" 
d="M377 0h-354l145 700h62zM197 637l-122 -596h246z" />
    <glyph glyph-name="uni03A9" unicode="&#x3a9;" horiz-adv-x="395" 
d="M175 0h-131v42h92l-2 2q-49 49 -70 106q-20 60 -20 148v243q0 82 39.5 125.5t113.5 43.5t114 -43.5t40 -125.5v-243q0 -88 -21 -147q-19 -57 -69 -107l-2 -2h92v-42h-132v42q48 48 67 101.5t19 137.5v263q0 124 -108 124q-107 0 -107 -124v-263q0 -84 19 -137.5
t66 -101.5v-42z" />
    <glyph glyph-name="uni03BC" unicode="&#x3bc;" horiz-adv-x="384" 
d="M285 172v324h45v-496h-39l-1 72q-33 -82 -119 -82q-43 0 -72 20v-165h-45v651h45v-357q0 -109 82 -109q48 0 76 38t28 104z" />
    <glyph glyph-name="pi" unicode="&#x3c0;" horiz-adv-x="438" 
d="M137 0h-45v457h-70v39h394v-39h-69v-457h-45v457h-165v-457z" />
    <glyph glyph-name="uni1E02" unicode="&#x1e02;" 
d="M212 771h-45v100h45v-100zM210 0h-156v700h146q81 0 117 -37.5t36 -120.5v-30q0 -115 -84 -142v-2q95 -24 95 -149v-59q0 -82 -37 -121t-117 -39zM100 658v-272h89q61 0 89.5 28t28.5 90v34q0 64 -25 92t-83 28h-99zM100 344v-302h110q57 0 82.5 28t25.5 91v59
q0 67 -29 95.5t-98 28.5h-91z" />
    <glyph glyph-name="uni1E03" unicode="&#x1e03;" horiz-adv-x="380" 
d="M54 871h45v-100h-45v100zM215 506q119 0 119 -142v-231q0 -143 -119 -143q-89 0 -122 88l-6 -78h-33v700h45v-268q36 74 116 74zM290 137v222q0 107 -85 107q-48 0 -77 -38.5t-29 -103.5v-152q0 -65 29 -103.5t77 -38.5q85 0 85 107z" />
    <glyph glyph-name="uni1E0A" unicode="&#x1e0a;" horiz-adv-x="405" 
d="M217 771h-45v100h45v-100zM206 0h-152v700h152q79 0 116 -40.5t37 -126.5v-366q0 -86 -37 -126.5t-116 -40.5zM100 658v-616h105q57 0 82.5 28.5t25.5 94.5v370q0 66 -25.5 94.5t-82.5 28.5h-105z" />
    <glyph glyph-name="uni1E0B" unicode="&#x1e0b;" horiz-adv-x="380" 
d="M281 871h45v-100h-45v100zM335 0h-41q-7 26 -8 77q-16 -41 -47.5 -64t-73.5 -23q-119 0 -119 143v231q0 142 119 142q80 0 116 -74v268h45v-573q0 -91 9 -127zM175 30q48 0 77 38.5t29 103.5v152q0 65 -29 103.5t-77 38.5q-84 0 -84 -107v-222q0 -107 84 -107z" />
    <glyph glyph-name="uni1E1E" unicode="&#x1e1e;" horiz-adv-x="340" 
d="M209 771h-45v100h45v-100zM100 0h-46v700h265v-42h-219v-281h180v-42h-180v-335z" />
    <glyph glyph-name="uni1E1F" unicode="&#x1e1f;" horiz-adv-x="259" 
d="M135 871h45v-100h-45v100zM192 670q-31 0 -44 -15.5t-13 -52.5v-106h105v-39h-105v-457h-45v457h-69v39h69v109q0 105 96 105q33 0 54 -10v-40q-20 10 -48 10z" />
    <glyph glyph-name="uni1E40" unicode="&#x1e40;" horiz-adv-x="516" 
d="M281 771h-45v100h45v-100zM97 0h-43v700h72l132 -611l132 611h72v-700h-46v637l-139 -637h-41l-139 637v-637z" />
    <glyph glyph-name="uni1E41" unicode="&#x1e41;" horiz-adv-x="591" 
d="M273 677h45v-100h-45v100zM429 506q112 0 112 -133v-373h-45v369q0 97 -77 97q-45 0 -72 -38.5t-27 -103.5v-324h-45v369q0 97 -77 97q-45 0 -72 -38.5t-27 -103.5v-324h-45v496h38l1 -72q33 82 115 82q87 0 106 -82q33 82 115 82z" />
    <glyph glyph-name="uni1E56" unicode="&#x1e56;" horiz-adv-x="381" 
d="M214 771h-45v100h45v-100zM100 0h-46v700h144q79 0 116 -40.5t37 -126.5v-51q0 -86 -37 -126t-116 -40h-98v-316zM100 658v-300h98q57 0 82 28t25 94v56q0 66 -25 94t-82 28h-98z" />
    <glyph glyph-name="uni1E57" unicode="&#x1e57;" horiz-adv-x="380" 
d="M172 677h45v-100h-45v100zM215 506q119 0 119 -142v-231q0 -143 -119 -143q-80 0 -116 74v-219h-45v651h38l1 -77q34 87 122 87zM289 137v222q0 107 -84 107q-48 0 -77 -38.5t-29 -103.5v-152q0 -65 29 -103.5t77 -38.5q84 0 84 107z" />
    <glyph glyph-name="uni1E60" unicode="&#x1e60;" horiz-adv-x="367" 
d="M206 771h-45v100h45v-100zM183 -10q-72 0 -111 43t-39 120v38h44v-41q0 -57 28 -87.5t78 -30.5t78 30.5t28 87.5q0 54 -27 94q-26 41 -94 94q-76 58 -106 105q-29 47 -29 107q0 75 39.5 117.5t110.5 42.5t109.5 -42.5t38.5 -120.5v-27h-44v30q0 57 -27 87.5t-77 30.5
q-49 0 -76.5 -30t-27.5 -85q0 -49 27 -89q27 -39 97 -94q73 -57 103 -106q29 -47 29 -111q0 -77 -39.5 -120t-112.5 -43z" />
    <glyph glyph-name="uni1E61" unicode="&#x1e61;" horiz-adv-x="336" 
d="M188 577h-45v100h45v-100zM170 -10q-64 0 -100.5 35.5t-36.5 98.5v18h43v-19q0 -45 24.5 -69t67.5 -24t67.5 23.5t24.5 67.5q0 39 -23 61.5t-77 48.5q-53 25 -82 50q-40 34 -40 98q0 58 34.5 92.5t93.5 34.5q58 0 93.5 -35t35.5 -97v-9h-42v10q0 44 -23 67.5t-63 23.5
q-39 0 -62.5 -23t-23.5 -64q0 -43 32 -69q30 -22 69 -40q52 -25 82 -51q40 -33 40 -98q0 -62 -35.5 -96.5t-98.5 -34.5z" />
    <glyph glyph-name="uni1E6A" unicode="&#x1e6a;" horiz-adv-x="354" 
d="M200 771h-45v100h45v-100zM200 0h-46v658h-133v42h312v-42h-133v-658z" />
    <glyph glyph-name="uni1E6B" unicode="&#x1e6b;" horiz-adv-x="258" 
d="M90 819h45v-100h-45v100zM236 496v-39h-105v-359q0 -37 13 -52.5t44 -15.5q28 0 48 10v-40q-21 -10 -54 -10q-96 0 -96 105v362h-66v39h67l6 152h38v-152h105z" />
    <glyph glyph-name="Wgrave" unicode="&#x1e80;" horiz-adv-x="558" 
d="M317 761h-40l-85 120h54zM190 0h-65l-100 700h45l91 -637l91 637h56l92 -637l91 637h42l-100 -700h-63l-90 610z" />
    <glyph glyph-name="wgrave" unicode="&#x1e81;" horiz-adv-x="527" 
d="M302 567h-40l-85 120h54zM181 0h-58l-98 496h45l86 -431l83 431h52l84 -431l85 431h42l-97 -496h-56l-84 411z" />
    <glyph glyph-name="Wacute" unicode="&#x1e82;" horiz-adv-x="558" 
d="M281 761h-40l71 120h54zM190 0h-65l-100 700h45l91 -637l91 637h56l92 -637l91 637h42l-100 -700h-63l-90 610z" />
    <glyph glyph-name="wacute" unicode="&#x1e83;" horiz-adv-x="527" 
d="M266 567h-40l71 120h54zM181 0h-58l-98 496h45l86 -431l83 431h52l84 -431l85 431h42l-97 -496h-56l-84 411z" />
    <glyph glyph-name="Wdieresis" unicode="&#x1e84;" horiz-adv-x="558" 
d="M246 771h-45v100h45v-100zM357 771h-45v100h45v-100zM190 0h-65l-100 700h45l91 -637l91 637h56l92 -637l91 637h42l-100 -700h-63l-90 610z" />
    <glyph glyph-name="wdieresis" unicode="&#x1e85;" horiz-adv-x="527" 
d="M231 577h-45v100h45v-100zM342 577h-45v100h45v-100zM181 0h-58l-98 496h45l86 -431l83 431h52l84 -431l85 431h42l-97 -496h-56l-84 411z" />
    <glyph glyph-name="uni1E9E" unicode="&#x1e9e;" horiz-adv-x="406" 
d="M361 658l-124 -246q71 -4 102.5 -44t31.5 -121v-80q0 -86 -37 -126.5t-116 -40.5h-33v42h33q57 0 82 28t25 94v85q0 66 -25 94t-82 28h-29v40l125 247h-214v-658h-46v700h307v-42z" />
    <glyph glyph-name="Ygrave" unicode="&#x1ef2;" horiz-adv-x="386" 
d="M231 761h-40l-85 120h54zM216 0h-46v316l-149 384h49l124 -323l125 323h46l-149 -384v-316z" />
    <glyph glyph-name="ygrave" unicode="&#x1ef3;" horiz-adv-x="350" 
d="M142 687l71 -120h-40l-85 120h54zM285 496h42l-116 -463l-26 -102q-13 -52 -36 -74t-66 -22q-29 0 -45 10v40q16 -10 41 -10q26 0 39 12.5t22 48.5l18 69l-136 491h46l114 -415z" />
    <glyph glyph-name="uni2002" unicode="&#x2002;" horiz-adv-x="300" 
 />
    <glyph glyph-name="uni2003" unicode="&#x2003;" horiz-adv-x="500" 
 />
    <glyph glyph-name="uni2007" unicode="&#x2007;" 
 />
    <glyph glyph-name="uni2008" unicode="&#x2008;" horiz-adv-x="166" 
 />
    <glyph glyph-name="uni200B" unicode="&#x200b;" horiz-adv-x="0" 
 />
    <glyph glyph-name="figuredash" unicode="&#x2012;" 
d="M400 282h-400v36h400v-36z" />
    <glyph glyph-name="endash" unicode="&#x2013;" horiz-adv-x="300" 
d="M300 282h-300v36h300v-36z" />
    <glyph glyph-name="emdash" unicode="&#x2014;" horiz-adv-x="500" 
d="M500 282h-500v36h500v-36z" />
    <glyph glyph-name="quoteleft" unicode="&#x2018;" horiz-adv-x="166" 
d="M94 703h22l-27 -96h18v-91h-48v87z" />
    <glyph glyph-name="quoteright" unicode="&#x2019;" horiz-adv-x="166" 
d="M72 513h-22l27 96h-18v91h48v-87z" />
    <glyph glyph-name="quotesinglbase" unicode="&#x201a;" horiz-adv-x="166" 
d="M72 -96h-22l27 96h-18v91h48v-87z" />
    <glyph glyph-name="quotedblleft" unicode="&#x201c;" horiz-adv-x="270" 
d="M94 700h22l-27 -96h18v-91h-48v87zM198 700h22l-27 -96h18v-91h-48v87z" />
    <glyph glyph-name="quotedblright" unicode="&#x201d;" horiz-adv-x="269" 
d="M72 513h-22l27 96h-18v91h48v-87zM175 513h-22l27 96h-18v91h48v-87z" />
    <glyph glyph-name="quotedblbase" unicode="&#x201e;" horiz-adv-x="269" 
d="M72 -96h-22l27 96h-18v91h48v-87zM175 -96h-22l27 96h-18v91h48v-87z" />
    <glyph glyph-name="dagger" unicode="&#x2020;" horiz-adv-x="422" 
d="M232 -97h-42v554h-155v40h155v203h42v-203h155v-40h-155v-554z" />
    <glyph glyph-name="daggerdbl" unicode="&#x2021;" horiz-adv-x="428" 
d="M235 -97h-42v225h-155v41h155v288h-155v40h155v203h42v-203h155v-40h-155v-288h155v-41h-155v-225z" />
    <glyph glyph-name="bullet" unicode="&#x2022;" horiz-adv-x="300" 
d="M185 265q-14 -14 -35 -14t-35 14t-14 35t14 35t35 14t35 -14t14 -35t-14 -35z" />
    <glyph glyph-name="ellipsis" unicode="&#x2026;" horiz-adv-x="500" 
d="M107 0h-48v91h48v-91zM274 0h-48v91h48v-91zM441 0h-48v91h48v-91z" />
    <glyph glyph-name="perthousand" unicode="&#x2030;" horiz-adv-x="829" 
d="M34 417v185q0 52 26 80.5t74 28.5t74 -28.5t26 -80.5v-185q0 -52 -26 -80.5t-74 -28.5t-74 28.5t-26 80.5zM170 0h-38l274 700h37zM196 414v191q0 72 -62 72t-62 -72v-191q0 -72 62 -72t62 72zM343 99v185q0 52 26 80.5t74 28.5t74 -28.5t26 -80.5v-185q0 -52 -26 -80.5
t-74 -28.5t-74 28.5t-26 80.5zM595 99v185q0 52 26 80.5t74 28.5t74 -28.5t26 -80.5v-185q0 -52 -26 -80.5t-74 -28.5t-74 28.5t-26 80.5zM505 96v191q0 72 -62 72t-62 -72v-191q0 -72 62 -72t62 72zM757 96v191q0 72 -62 72t-62 -72v-191q0 -72 62 -72t62 72z" />
    <glyph glyph-name="guilsinglleft" unicode="&#x2039;" horiz-adv-x="162" 
d="M124 208h-35l-53 92l53 90h35l-44 -90z" />
    <glyph glyph-name="guilsinglright" unicode="&#x203a;" horiz-adv-x="162" 
d="M73 208h-35l44 92l-44 90h35l53 -90z" />
    <glyph glyph-name="fraction" unicode="&#x2044;" horiz-adv-x="81" 
d="M-77 0h-38l274 700h37z" />
    <glyph glyph-name="uni2070" unicode="&#x2070;" horiz-adv-x="288" 
d="M44 450v246q0 52 26 80.5t74 28.5t74 -28.5t26 -80.5v-246q0 -52 -26 -80.5t-74 -28.5t-74 28.5t-26 80.5zM206 447v252q0 72 -62 72t-62 -72v-252q0 -72 62 -72t62 72z" />
    <glyph glyph-name="uni2074" unicode="&#x2074;" horiz-adv-x="288" 
d="M222 351h-38v93h-152v35l147 316h43v-317h37v-34h-37v-93zM184 726l-115 -248h115v248z" />
    <glyph glyph-name="uni2075" unicode="&#x2075;" horiz-adv-x="288" 
d="M146 341q-49 0 -74 29t-25 79v24h36v-26q0 -72 62 -72t62 72v93q0 73 -56 73q-50 0 -64 -53l-1 -8h-36l13 243h172v-34h-139l-8 -154q24 40 74 40q83 0 83 -104v-94q0 -51 -25.5 -79.5t-73.5 -28.5z" />
    <glyph glyph-name="uni2076" unicode="&#x2076;" horiz-adv-x="288" 
d="M47 450v245q0 110 100 110q48 0 73.5 -28t25.5 -81v-6h-36v9q0 72 -62 72q-63 0 -63 -78v-110q21 44 76 44q87 0 87 -102v-75q0 -52 -26.5 -80.5t-74.5 -28.5t-74 28.5t-26 80.5zM147 375q63 0 63 72v75q0 71 -60 71q-30 0 -47.5 -21.5t-17.5 -55.5v-69q0 -72 62 -72z
" />
    <glyph glyph-name="uni2077" unicode="&#x2077;" horiz-adv-x="288" 
d="M112 351h-40l132 410h-161v34h199v-34z" />
    <glyph glyph-name="uni2078" unicode="&#x2078;" horiz-adv-x="288" 
d="M143 341q-50 0 -76.5 28t-26.5 80v41q0 72 53 92v1q-50 20 -50 88v27q0 51 26 79t74 28q51 0 77 -28t26 -79v-27q0 -69 -51 -88v-1q54 -20 54 -92v-41q0 -52 -27 -80t-79 -28zM144 600q64 0 64 67v32q0 72 -64 72q-63 0 -63 -72v-32q0 -67 63 -67zM144 375q67 0 67 74v46
q0 71 -67 71q-66 0 -66 -71v-46q0 -74 66 -74z" />
    <glyph glyph-name="uni2079" unicode="&#x2079;" horiz-adv-x="288" 
d="M141 341q-48 0 -73.5 28t-25.5 81v6h36v-9q0 -72 62 -72q63 0 63 78v110q-21 -44 -76 -44q-87 0 -87 102v75q0 52 26.5 80.5t74.5 28.5t74 -28.5t26 -80.5v-245q0 -110 -100 -110zM138 553q30 0 47.5 21.5t17.5 55.5v69q0 72 -62 72q-63 0 -63 -72v-75q0 -71 60 -71z" />
    <glyph glyph-name="uni2080" unicode="&#x2080;" horiz-adv-x="288" 
d="M44 34v246q0 52 26 80.5t74 28.5t74 -28.5t26 -80.5v-246q0 -52 -26 -80.5t-74 -28.5t-74 28.5t-26 80.5zM206 31v252q0 72 -62 72t-62 -72v-252q0 -72 62 -72t62 72z" />
    <glyph glyph-name="uni2081" unicode="&#x2081;" horiz-adv-x="288" 
d="M187 -65h-38v377q-29 -21 -78 -24v30q67 3 89 61h27v-444z" />
    <glyph glyph-name="uni2082" unicode="&#x2082;" horiz-adv-x="288" 
d="M241 -65h-193v35q0 52 20 91.5t65 86.5q41 41 57.5 70t16.5 63q0 74 -61 74q-62 0 -62 -72v-32h-36v30q0 50 25 79t74 29q48 0 73 -28.5t25 -78.5q0 -40 -19.5 -75.5t-64.5 -82.5q-43 -44 -59.5 -75t-16.5 -72v-8h156v-34z" />
    <glyph glyph-name="uni2083" unicode="&#x2083;" horiz-adv-x="288" 
d="M140 -75q-99 0 -99 109v32h36v-35q0 -72 62 -72q63 0 63 76v43q0 72 -63 72h-28v34h30q28 0 44.5 18.5t16.5 51.5v25q0 76 -62 76t-62 -72v-24h-35v21q0 109 98 109q48 0 73.5 -28.5t25.5 -80.5v-20q0 -72 -54 -92v-1q54 -13 54 -91v-42q0 -109 -100 -109z" />
    <glyph glyph-name="uni2084" unicode="&#x2084;" horiz-adv-x="288" 
d="M222 -65h-38v93h-152v35l147 316h43v-317h37v-34h-37v-93zM184 310l-115 -248h115v248z" />
    <glyph glyph-name="uni2085" unicode="&#x2085;" horiz-adv-x="288" 
d="M146 -75q-49 0 -74 29t-25 79v24h36v-26q0 -72 62 -72t62 72v93q0 73 -56 73q-50 0 -64 -53l-1 -8h-36l13 243h172v-34h-139l-8 -154q24 40 74 40q83 0 83 -104v-94q0 -51 -25.5 -79.5t-73.5 -28.5z" />
    <glyph glyph-name="uni2086" unicode="&#x2086;" horiz-adv-x="288" 
d="M47 34v245q0 110 100 110q48 0 73.5 -28t25.5 -81v-6h-36v9q0 72 -62 72q-63 0 -63 -78v-110q21 44 76 44q87 0 87 -102v-75q0 -52 -26.5 -80.5t-74.5 -28.5t-74 28.5t-26 80.5zM147 -41q63 0 63 72v75q0 71 -60 71q-30 0 -47.5 -21.5t-17.5 -55.5v-69q0 -72 62 -72z" />
    <glyph glyph-name="uni2087" unicode="&#x2087;" horiz-adv-x="288" 
d="M112 -65h-40l132 410h-161v34h199v-34z" />
    <glyph glyph-name="uni2088" unicode="&#x2088;" horiz-adv-x="288" 
d="M143 -75q-50 0 -76.5 28t-26.5 80v41q0 72 53 92v1q-50 20 -50 88v27q0 51 26 79t74 28q51 0 77 -28t26 -79v-27q0 -69 -51 -88v-1q54 -20 54 -92v-41q0 -52 -27 -80t-79 -28zM144 184q64 0 64 67v32q0 72 -64 72q-63 0 -63 -72v-32q0 -67 63 -67zM144 -41q67 0 67 74v46
q0 71 -67 71q-66 0 -66 -71v-46q0 -74 66 -74z" />
    <glyph glyph-name="uni2089" unicode="&#x2089;" horiz-adv-x="288" 
d="M141 -75q-48 0 -73.5 28t-25.5 81v6h36v-9q0 -72 62 -72q63 0 63 78v110q-21 -44 -76 -44q-87 0 -87 102v75q0 52 26.5 80.5t74.5 28.5t74 -28.5t26 -80.5v-245q0 -110 -100 -110zM138 137q30 0 47.5 21.5t17.5 55.5v69q0 72 -62 72q-63 0 -63 -72v-75q0 -71 60 -71z" />
    <glyph glyph-name="Euro" unicode="&#x20ac;" 
d="M216 -10q-71 0 -110 43t-39 121v134h-40v36h40v77h-40v36h40v109q0 78 39 121t110 43q72 0 111 -43t39 -121v-43h-44v46q0 57 -27.5 88t-77.5 31q-49 0 -76.5 -31t-27.5 -88v-112h187v-36h-187v-77h187v-36h-187v-137q0 -57 27.5 -88t76.5 -31q50 0 77.5 31t27.5 88v68
h44v-65q0 -78 -39 -121t-111 -43z" />
    <glyph glyph-name="uni20B9" unicode="&#x20b9;" 
d="M38 700h328l-1 -42h-111q61 -31 66 -119h45v-42h-45q-3 -72 -47 -116.5t-115 -44.5h-63l267 -336h-59l-266 336v42h107q127 0 130 119h-237v42h237q-2 119 -130 119h-107z" />
    <glyph glyph-name="uni20BF" unicode="&#x20bf;" 
d="M267 359v-2q98 -23 98 -149v-23q0 -132 -104 -155v-85h-43v80h-8h-63v-80h-43v80h-76v42h47v566h-47v42h76v70h43v-70h54h17v70h43v-77q93 -22 93 -150v-15q0 -119 -87 -144zM308 494v19q0 64 -25 92t-83 28h-79v-257h69q61 0 89.5 28t28.5 90zM319 186v24q0 67 -29 95.5
t-98 28.5h-71v-267h89q58 0 83.5 28.5t25.5 90.5z" />
    <glyph glyph-name="uni2113" unicode="&#x2113;" horiz-adv-x="228" 
d="M150 -10q-96 0 -96 105v605h45v-600q0 -69 60 -69q27 0 46 10v-41q-21 -10 -55 -10z" />
    <glyph glyph-name="uni2116" unicode="&#x2116;" horiz-adv-x="657" 
d="M98 0h-44v700h68l169 -582v582h44v-700h-55l-182 626v-626zM410 400v145q0 55 26.5 85t75.5 30t75.5 -30t26.5 -85v-145q0 -55 -26.5 -85t-75.5 -30t-75.5 30t-26.5 85zM577 397v151q0 78 -65 78t-65 -78v-151q0 -78 65 -78t65 78zM611 188h-198v34h198v-34z" />
    <glyph glyph-name="uni2117" unicode="&#x2117;" horiz-adv-x="768" 
d="M633 92q-99 -102 -249 -102t-249 102q-99 104 -99 258q0 155 99 257q99 103 249 103t249 -103q99 -102 99 -257q0 -154 -99 -258zM162 119q88 -91 222 -91t221 91q88 91 88 231t-88 231q-87 91 -221 91t-222 -91q-87 -91 -87 -231t87 -231zM338 127h-40v428h105
q53 0 79 -25t26 -81v-38q0 -56 -26 -81t-79 -25h-65v-178zM338 517v-174h63q36 0 51.5 16.5t15.5 55.5v30q0 40 -16 56t-51 16h-63z" />
    <glyph glyph-name="uni2120" unicode="&#x2120;" horiz-adv-x="599" 
d="M32 425v18h35v-17q0 -58 61 -58q60 0 60 58q0 31 -16 48t-58 36q-43 19 -62.5 43t-19.5 62q0 42 25 66.5t69 24.5t68.5 -23.5t24.5 -65.5v-9h-35v8q4 37 -26.5 51.5t-61 -0.5t-27.5 -49q0 -28 16 -45.5t59 -36.5q42 -19 61.5 -44t19.5 -63q0 -44 -25.5 -68.5t-70.5 -24.5
t-71 23.5t-26 65.5zM307 344h-33v356h54l84 -289l83 289h55v-356h-36v307l-88 -307h-30l-89 307v-307z" />
    <glyph glyph-name="trademark" unicode="&#x2122;" horiz-adv-x="600" 
d="M143 344h-38v321h-87v35h211v-35h-86v-321zM309 344h-33v356h54l84 -289l83 289h55v-356h-36v307l-88 -307h-30l-89 307v-307z" />
    <glyph glyph-name="uni2126" unicode="&#x2126;" horiz-adv-x="395" 
d="M175 0h-131v42h92l-2 2q-49 49 -70 106q-20 60 -20 148v243q0 82 39.5 125.5t113.5 43.5t114 -43.5t40 -125.5v-243q0 -88 -21 -147q-19 -57 -69 -107l-2 -2h92v-42h-132v42q48 48 67 101.5t19 137.5v263q0 124 -108 124q-107 0 -107 -124v-263q0 -84 19 -137.5
t66 -101.5v-42z" />
    <glyph glyph-name="estimated" unicode="&#x212e;" horiz-adv-x="821" 
d="M413 -10q-157 0 -269 106q-111 107 -111 254q0 148 111 254q112 106 269 106q158 0 268 -106q112 -106 112 -254v-9h-613q-8 0 -8 -7v-193q0 -5 11 -21q36 -52 97.5 -80t134.5 -28q146 0 244 120h56q-54 -67 -133.5 -104.5t-168.5 -37.5zM180 361h469q7 0 7 7v196
q0 9 -12 22q-42 49 -102 75.5t-127 26.5q-126 0 -232 -106q-11 -11 -11 -22v-192q0 -7 8 -7z" />
    <glyph glyph-name="uni2153" unicode="&#x2153;" horiz-adv-x="657" 
d="M187 256h-38v377q-29 -21 -78 -24v30q67 3 89 61h27v-444zM211 0h-38l274 700h37zM509 -10q-99 0 -99 109v32h36v-35q0 -72 62 -72q63 0 63 76v43q0 72 -63 72h-28v34h30q28 0 44.5 18.5t16.5 51.5v25q0 76 -62 76t-62 -72v-24h-35v21q0 109 98 109q48 0 73.5 -28.5
t25.5 -80.5v-20q0 -73 -54 -92v-1q54 -14 54 -91v-42q0 -109 -100 -109z" />
    <glyph glyph-name="uni2154" unicode="&#x2154;" horiz-adv-x="658" 
d="M241 256h-193v35q0 52 20 91.5t65 86.5q41 41 57.5 70t16.5 63q0 74 -61 74q-62 0 -62 -72v-32h-36v30q0 50 25 79t74 29q48 0 73 -28.5t25 -78.5q0 -40 -19.5 -75.5t-64.5 -82.5q-43 -44 -59.5 -75t-16.5 -72v-8h156v-34zM211 0h-38l274 700h37zM509 -10q-99 0 -99 109
v32h36v-35q0 -72 62 -72q63 0 63 76v43q0 72 -63 72h-28v34h30q28 0 44.5 18.5t16.5 51.5v25q0 76 -62 76t-62 -72v-24h-35v21q0 109 98 109q48 0 73.5 -28.5t25.5 -80.5v-20q0 -73 -54 -92v-1q54 -14 54 -91v-42q0 -109 -100 -109z" />
    <glyph glyph-name="oneeighth" unicode="&#x215b;" horiz-adv-x="657" 
d="M187 256h-38v377q-29 -21 -78 -24v30q67 3 89 61h27v-444zM211 0h-38l274 700h37zM512 -10q-50 0 -76.5 28t-26.5 80v41q0 72 53 92v1q-50 20 -50 88v27q0 51 26 79t74 28q51 0 77 -28t26 -79v-27q0 -68 -51 -88v-1q54 -20 54 -92v-41q0 -52 -27 -80t-79 -28zM513 249
q64 0 64 67v32q0 72 -64 72q-63 0 -63 -72v-32q0 -67 63 -67zM513 24q67 0 67 74v46q0 71 -67 71q-66 0 -66 -71v-46q0 -74 66 -74z" />
    <glyph glyph-name="threeeighths" unicode="&#x215c;" horiz-adv-x="657" 
d="M140 246q-99 0 -99 109v32h36v-35q0 -72 62 -72q63 0 63 76v43q0 72 -63 72h-28v34h30q28 0 44.5 18.5t16.5 51.5v25q0 76 -62 76t-62 -72v-24h-35v21q0 109 98 109q48 0 73.5 -28.5t25.5 -80.5v-20q0 -73 -54 -92v-1q54 -14 54 -91v-42q0 -109 -100 -109zM211 0h-38
l274 700h37zM512 -10q-50 0 -76.5 28t-26.5 80v41q0 72 53 92v1q-50 20 -50 88v27q0 51 26 79t74 28q51 0 77 -28t26 -79v-27q0 -68 -51 -88v-1q54 -20 54 -92v-41q0 -52 -27 -80t-79 -28zM513 249q64 0 64 67v32q0 72 -64 72q-63 0 -63 -72v-32q0 -67 63 -67zM513 24
q67 0 67 74v46q0 71 -67 71q-66 0 -66 -71v-46q0 -74 66 -74z" />
    <glyph glyph-name="fiveeighths" unicode="&#x215d;" horiz-adv-x="657" 
d="M146 246q-49 0 -74 29t-25 79v24h36v-26q0 -72 62 -72t62 72v93q0 73 -56 73q-50 0 -64 -53l-1 -8h-36l13 243h172v-34h-139l-8 -154q24 40 74 40q83 0 83 -104v-94q0 -51 -25.5 -79.5t-73.5 -28.5zM211 0h-38l274 700h37zM512 -10q-50 0 -76.5 28t-26.5 80v41
q0 72 53 92v1q-50 20 -50 88v27q0 51 26 79t74 28q51 0 77 -28t26 -79v-27q0 -68 -51 -88v-1q54 -20 54 -92v-41q0 -52 -27 -80t-79 -28zM513 249q64 0 64 67v32q0 72 -64 72q-63 0 -63 -72v-32q0 -67 63 -67zM513 24q67 0 67 74v46q0 71 -67 71q-66 0 -66 -71v-46
q0 -74 66 -74z" />
    <glyph glyph-name="seveneighths" unicode="&#x215e;" horiz-adv-x="657" 
d="M112 256h-40l132 410h-161v34h199v-34zM211 0h-38l274 700h37zM512 -10q-50 0 -76.5 28t-26.5 80v41q0 72 53 92v1q-50 20 -50 88v27q0 51 26 79t74 28q51 0 77 -28t26 -79v-27q0 -68 -51 -88v-1q54 -20 54 -92v-41q0 -52 -27 -80t-79 -28zM513 249q64 0 64 67v32
q0 72 -64 72q-63 0 -63 -72v-32q0 -67 63 -67zM513 24q67 0 67 74v46q0 71 -67 71q-66 0 -66 -71v-46q0 -74 66 -74z" />
    <glyph glyph-name="partialdiff" unicode="&#x2202;" horiz-adv-x="415" 
d="M191 -10q-75 0 -114.5 39t-39.5 114q0 16 1 21l8 116q12 153 141 153q45 0 78.5 -21.5t48.5 -61.5l13 184q1 4 1 19q0 115 -106 115q-100 0 -110 -121l-1 -13h-44l1 12q15 164 154 164q152 0 152 -153q0 -18 -1 -23l-27 -380q-6 -80 -45.5 -122t-109.5 -42zM190 32
q101 0 110 121l8 101q3 62 -27 99t-86 37q-96 0 -103 -115l-8 -115q0 -2 -0.5 -8.5t-0.5 -7.5q0 -112 107 -112z" />
    <glyph glyph-name="emptyset" unicode="&#x2205;" horiz-adv-x="698" 
d="M141 100l-63 -65l-29 27l64 66q-77 91 -77 217q0 138 88 230q88 93 225 93q121 0 209 -78l62 65l29 -27l-64 -66q77 -91 77 -217q0 -138 -88 -230q-88 -93 -225 -93q-123 0 -208 78zM144 161l384 398q-72 69 -179 69q-117 0 -193 -81q-76 -79 -76 -202q0 -110 64 -184z
M349 62q115 0 192 80q77 82 77 203q0 111 -64 184l-384 -398q73 -69 179 -69z" />
    <glyph glyph-name="uni2206" unicode="&#x2206;" 
d="M377 0h-354l145 700h62zM197 637l-122 -596h246z" />
    <glyph glyph-name="product" unicode="&#x220f;" horiz-adv-x="465" 
d="M110 -155h-46v855h337v-855h-46v813h-245v-813z" />
    <glyph glyph-name="summation" unicode="&#x2211;" horiz-adv-x="408" 
d="M374 -155h-339v42l206 386l-206 385v42h339v-42h-287l204 -385l-204 -386h287v-42z" />
    <glyph glyph-name="minus" unicode="&#x2212;" 
d="M367 279h-334v42h334v-42z" />
    <glyph glyph-name="uni2215" unicode="&#x2215;" 
d="M69 0h-45l307 700h45z" />
    <glyph glyph-name="uni2219" unicode="&#x2219;" horiz-adv-x="152" 
d="M111 315h-70v70h70v-70z" />
    <glyph glyph-name="radical" unicode="&#x221a;" horiz-adv-x="459" 
d="M251 -65h-50l-87 394h-86v42h125l76 -353l159 682h43z" />
    <glyph glyph-name="infinity" unicode="&#x221e;" horiz-adv-x="633" 
d="M173 150q-62 0 -97.5 42.5t-35.5 109.5t35 107.5t97 40.5q45 0 77 -24.5t65 -83.5h3q53 108 144 108q62 0 97.5 -42.5t35.5 -109.5t-35 -107.5t-98 -40.5q-45 0 -76.5 24.5t-64.5 83.5h-3q-53 -108 -144 -108zM177 193q38 0 64 25t53 84q-34 61 -59 83q-25 23 -60 23
q-42 0 -66 -29t-24 -77q0 -49 25 -79t67 -30zM458 192q42 0 66.5 29t24.5 77q0 49 -25 79t-67 30q-36 0 -62.5 -24t-55.5 -85q34 -61 59 -84q25 -22 60 -22z" />
    <glyph glyph-name="integral" unicode="&#x222b;" 
d="M123 -170q-35 0 -56 10v44q19 -12 49 -12q61 0 61 72v695q0 111 99 111q35 0 56 -10v-43q-20 11 -48 11q-61 0 -61 -72v-695q0 -111 -100 -111z" />
    <glyph glyph-name="approxequal" unicode="&#x2248;" 
d="M53 321l-31 23q25 45 49 66t56 21q31 0 78 -32t69 -32t38 15t37 52l31 -23q-25 -45 -49.5 -66t-56.5 -21q-29 0 -78 32l-28 19q-23 13 -40 13q-22 0 -38.5 -15.5t-36.5 -51.5zM53 167l-31 23q25 45 49 66t56 21q31 0 78 -32t69 -32t38 15t37 52l31 -23q-25 -45 -49.5 -66
t-56.5 -21q-29 0 -78 32l-28 19q-23 13 -40 13q-22 0 -38.5 -15.5t-36.5 -51.5z" />
    <glyph glyph-name="notequal" unicode="&#x2260;" 
d="M95 94h-43l65 104h-74v42h98l76 120h-174v42h198l65 104h42l-64 -104h73v-42h-98l-76 -120h174v-42h-198z" />
    <glyph glyph-name="lessequal" unicode="&#x2264;" 
d="M343 251v-44l-294 121v39l294 121v-43l-238 -97zM343 120h-294v41h294v-41z" />
    <glyph glyph-name="greaterequal" unicode="&#x2265;" 
d="M351 328l-294 -121v44l238 97l-238 97v43l294 -121v-39zM351 120h-294v41h294v-41z" />
    <glyph glyph-name="lozenge" unicode="&#x25ca;" 
d="M211 -10h-21l-162 360l162 360h21l161 -360zM72 350l128 -293l128 293l-128 293z" />
    <glyph glyph-name="uniE0FF" unicode="&#xe0ff;" horiz-adv-x="564" 
 />
    <glyph glyph-name="uniEFFD" unicode="&#xeffd;" horiz-adv-x="564" 
 />
    <glyph glyph-name="uniF000" unicode="&#xf000;" horiz-adv-x="564" 
 />
    <glyph glyph-name="uniF8FF" unicode="&#xf8ff;" horiz-adv-x="634" 
d="M264 494h59v116h156v-116h132v-152h-132v-60q0 -110 -63 -174t-165 -64q-101 0 -165 62q-63 63 -63 163t65 162q65 63 176 63zM323 281v61h-60q-39 0 -61 -20q-21 -20 -21 -52t20 -52q23 -18 51 -20t51 21.5t20 61.5z" />
    <glyph glyph-name="_1" horiz-adv-x="0" 
 />
    <glyph glyph-name="CR.001" horiz-adv-x="333" 
 />
    <glyph glyph-name="NULL" horiz-adv-x="0" 
 />
    <glyph glyph-name="uni00A40301" horiz-adv-x="259" 
d="M175 761h-40l71 120h54zM73 -4q-31 0 -51 7v43q24 -8 46 -8q49 0 71.5 26t22.5 83v553h46v-552q0 -77 -33 -114.5t-102 -37.5z" />
    <glyph glyph-name="i.loclTRK" horiz-adv-x="153" 
d="M99 577h-45v100h45v-100zM99 0h-45v496h45v-496z" />
    <glyph glyph-name="germandbls.calt" horiz-adv-x="406" 
d="M361 658l-124 -246q71 -4 102.5 -44t31.5 -121v-80q0 -86 -37 -126.5t-116 -40.5h-33v42h33q57 0 82 28t25 94v85q0 66 -25 94t-82 28h-29v40l125 247h-214v-658h-46v700h307v-42z" />
    <glyph glyph-name="zero.tf" 
d="M199 -10q-74 0 -113.5 43.5t-39.5 125.5v382q0 82 39.5 125.5t113.5 43.5q75 0 115 -43.5t40 -125.5v-382q0 -82 -40 -125.5t-115 -43.5zM199 32q109 0 109 124v388q0 124 -109 124q-107 0 -107 -124v-388q0 -124 107 -124z" />
    <glyph glyph-name="one.tf" 
d="M272 0h-46v610q-38 -41 -125 -45v38q105 8 136 98h35v-701z" />
    <glyph glyph-name="two.tf" 
d="M349 0h-298v43q0 89 34 150q36 65 104 134q63 66 90 110q29 47 29 103q0 128 -105 128q-109 0 -109 -124v-50h-43v47q0 79 37.5 124t115.5 45q75 0 112.5 -45t37.5 -124q0 -63 -30 -117t-98 -123q-52 -54 -68 -74q-26 -31 -44 -76.5t-18 -93.5v-15h253v-42z" />
    <glyph glyph-name="three.tf" 
d="M196 -10q-77 0 -115 44t-38 124v48h44v-50q0 -124 108 -124t108 128v66q0 118 -105 118h-46v43h47q48 0 75.5 30.5t27.5 85.5v40q0 125 -106 125q-105 0 -105 -123v-36h-44v33q0 168 151 168q74 0 112 -43.5t38 -124.5v-31q0 -116 -86 -143v-1q87 -23 87 -141v-68
q0 -168 -153 -168z" />
    <glyph glyph-name="four.tf" 
d="M315 0h-46v155h-243v43l236 502h53v-503h60v-42h-60v-155zM269 618l-197 -421h197v421z" />
    <glyph glyph-name="five.tf" 
d="M201 -10q-77 0 -115 44.5t-38 124.5v40h44v-43q0 -124 109 -124q107 0 107 124v145q0 119 -97 119q-83 0 -113 -85l-1 -6h-43l19 371h266v-42h-225l-14 -260q40 64 124 64q64 0 97 -40.5t33 -117.5v-145q0 -169 -153 -169z" />
    <glyph glyph-name="six.tf" 
d="M50 159v380q0 171 153 171q74 0 113 -43t39 -126v-12h-44v15q0 124 -107 124q-108 0 -108 -131v-182q34 78 127 78q135 0 135 -163v-111q0 -82 -40 -125.5t-114 -43.5t-114 43.5t-40 125.5zM312 156v111q0 124 -101 124q-51 0 -83 -38.5t-32 -98.5v-98q0 -124 108 -124
t108 124z" />
    <glyph glyph-name="seven.tf" 
d="M142 0h-48l214 658h-264v42h310v-42z" />
    <glyph glyph-name="eight.tf" 
d="M41 158v68q0 114 87 141v1q-83 30 -83 140v37q0 80 39.5 122.5t115.5 42.5t115.5 -42.5t39.5 -122.5v-37q0 -110 -83 -140v-1q87 -27 87 -141v-68q0 -80 -40 -124t-119 -44t-119 44t-40 124zM309 500v46q0 122 -109 122t-109 -122v-46q0 -54 28 -83.5t81 -29.5t81 29.5
t28 83.5zM313 160v70q0 114 -113 114t-113 -114v-70q0 -128 113 -128t113 128z" />
    <glyph glyph-name="nine.tf" 
d="M197 -10q-74 0 -113 43t-39 126v12h44v-15q0 -124 107 -124q108 0 108 131v182q-34 -78 -127 -78q-135 0 -135 163v111q0 82 40 125.5t114 43.5t114 -43.5t40 -125.5v-380q0 -171 -153 -171zM189 309q51 0 83 38.5t32 98.5v98q0 124 -108 124t-108 -124v-111
q0 -124 101 -124z" />
    <glyph glyph-name="zero.dnom" horiz-adv-x="288" 
d="M44 99v246q0 52 26 80.5t74 28.5t74 -28.5t26 -80.5v-246q0 -52 -26 -80.5t-74 -28.5t-74 28.5t-26 80.5zM206 96v252q0 72 -62 72t-62 -72v-252q0 -72 62 -72t62 72z" />
    <glyph glyph-name="one.dnom" horiz-adv-x="288" 
d="M187 0h-38v377q-29 -21 -78 -24v30q67 3 89 61h27v-444z" />
    <glyph glyph-name="two.dnom" horiz-adv-x="288" 
d="M241 0h-193v35q0 52 20 91.5t65 86.5q41 41 57.5 70t16.5 63q0 74 -61 74q-62 0 -62 -72v-32h-36v30q0 50 25 79t74 29q48 0 73 -28.5t25 -78.5q0 -40 -19.5 -75.5t-64.5 -82.5q-43 -44 -59.5 -75t-16.5 -72v-8h156v-34z" />
    <glyph glyph-name="three.dnom" horiz-adv-x="288" 
d="M140 -10q-99 0 -99 109v32h36v-35q0 -72 62 -72q63 0 63 76v43q0 72 -63 72h-28v34h30q28 0 44.5 18.5t16.5 51.5v25q0 76 -62 76t-62 -72v-24h-35v21q0 109 98 109q48 0 73.5 -28.5t25.5 -80.5v-20q0 -73 -54 -92v-1q54 -14 54 -91v-42q0 -109 -100 -109z" />
    <glyph glyph-name="four.dnom" horiz-adv-x="288" 
d="M222 0h-38v93h-152v35l147 316h43v-317h37v-34h-37v-93zM184 375l-115 -248h115v248z" />
    <glyph glyph-name="five.dnom" horiz-adv-x="288" 
d="M146 -10q-49 0 -74 29t-25 79v24h36v-26q0 -72 62 -72t62 72v93q0 73 -56 73q-50 0 -64 -53l-1 -8h-36l13 243h172v-34h-139l-8 -154q24 40 74 40q83 0 83 -104v-94q0 -51 -25.5 -79.5t-73.5 -28.5z" />
    <glyph glyph-name="six.dnom" horiz-adv-x="288" 
d="M47 99v245q0 110 100 110q48 0 73.5 -28t25.5 -81v-6h-36v9q0 72 -62 72q-63 0 -63 -78v-110q21 44 76 44q87 0 87 -102v-75q0 -52 -26.5 -80.5t-74.5 -28.5t-74 28.5t-26 80.5zM147 24q63 0 63 72v75q0 71 -60 71q-30 0 -47.5 -21.5t-17.5 -55.5v-69q0 -72 62 -72z" />
    <glyph glyph-name="seven.dnom" horiz-adv-x="288" 
d="M112 0h-40l132 410h-161v34h199v-34z" />
    <glyph glyph-name="eight.dnom" horiz-adv-x="288" 
d="M143 -10q-50 0 -76.5 28t-26.5 80v41q0 72 53 92v1q-50 20 -50 88v27q0 51 26 79t74 28q51 0 77 -28t26 -79v-27q0 -68 -51 -88v-1q54 -20 54 -92v-41q0 -52 -27 -80t-79 -28zM144 249q64 0 64 67v32q0 72 -64 72q-63 0 -63 -72v-32q0 -67 63 -67zM144 24q67 0 67 74v46
q0 71 -67 71q-66 0 -66 -71v-46q0 -74 66 -74z" />
    <glyph glyph-name="nine.dnom" horiz-adv-x="288" 
d="M141 -10q-48 0 -73.5 28t-25.5 81v6h36v-9q0 -72 62 -72q63 0 63 78v110q-21 -44 -76 -44q-87 0 -87 102v75q0 52 26.5 80.5t74.5 28.5t74 -28.5t26 -80.5v-245q0 -110 -100 -110zM138 202q30 0 47.5 21.5t17.5 55.5v69q0 72 -62 72q-63 0 -63 -72v-75q0 -71 60 -71z" />
    <glyph glyph-name="zero.numr" horiz-adv-x="288" 
d="M44 355v246q0 52 26 80.5t74 28.5t74 -28.5t26 -80.5v-246q0 -52 -26 -80.5t-74 -28.5t-74 28.5t-26 80.5zM206 352v252q0 72 -62 72t-62 -72v-252q0 -72 62 -72t62 72z" />
    <glyph glyph-name="one.numr" horiz-adv-x="288" 
d="M187 256h-38v377q-29 -21 -78 -24v30q67 3 89 61h27v-444z" />
    <glyph glyph-name="two.numr" horiz-adv-x="288" 
d="M241 256h-193v35q0 52 20 91.5t65 86.5q41 41 57.5 70t16.5 63q0 74 -61 74q-62 0 -62 -72v-32h-36v30q0 50 25 79t74 29q48 0 73 -28.5t25 -78.5q0 -40 -19.5 -75.5t-64.5 -82.5q-43 -44 -59.5 -75t-16.5 -72v-8h156v-34z" />
    <glyph glyph-name="three.numr" horiz-adv-x="288" 
d="M140 246q-99 0 -99 109v32h36v-35q0 -72 62 -72q63 0 63 76v43q0 72 -63 72h-28v34h30q28 0 44.5 18.5t16.5 51.5v25q0 76 -62 76t-62 -72v-24h-35v21q0 109 98 109q48 0 73.5 -28.5t25.5 -80.5v-20q0 -73 -54 -92v-1q54 -14 54 -91v-42q0 -109 -100 -109z" />
    <glyph glyph-name="four.numr" horiz-adv-x="288" 
d="M222 256h-38v93h-152v35l147 316h43v-317h37v-34h-37v-93zM184 631l-115 -248h115v248z" />
    <glyph glyph-name="five.numr" horiz-adv-x="288" 
d="M146 246q-49 0 -74 29t-25 79v24h36v-26q0 -72 62 -72t62 72v93q0 73 -56 73q-50 0 -64 -53l-1 -8h-36l13 243h172v-34h-139l-8 -154q24 40 74 40q83 0 83 -104v-94q0 -51 -25.5 -79.5t-73.5 -28.5z" />
    <glyph glyph-name="six.numr" horiz-adv-x="288" 
d="M47 355v245q0 110 100 110q48 0 73.5 -28t25.5 -81v-6h-36v9q0 72 -62 72q-63 0 -63 -78v-110q21 44 76 44q87 0 87 -102v-75q0 -52 -26.5 -80.5t-74.5 -28.5t-74 28.5t-26 80.5zM147 280q63 0 63 72v75q0 71 -60 71q-30 0 -47.5 -21.5t-17.5 -55.5v-69q0 -72 62 -72z
" />
    <glyph glyph-name="seven.numr" horiz-adv-x="288" 
d="M112 256h-40l132 410h-161v34h199v-34z" />
    <glyph glyph-name="eight.numr" horiz-adv-x="288" 
d="M143 246q-50 0 -76.5 28t-26.5 80v41q0 72 53 92v1q-50 20 -50 88v27q0 51 26 79t74 28q51 0 77 -28t26 -79v-27q0 -68 -51 -88v-1q54 -19 54 -92v-41q0 -52 -27 -80t-79 -28zM144 505q64 0 64 67v32q0 72 -64 72q-63 0 -63 -72v-32q0 -67 63 -67zM144 280q67 0 67 74v46
q0 71 -67 71q-66 0 -66 -71v-46q0 -74 66 -74z" />
    <glyph glyph-name="nine.numr" horiz-adv-x="288" 
d="M141 246q-48 0 -73.5 28t-25.5 81v6h36v-9q0 -72 62 -72q63 0 63 78v110q-21 -44 -76 -44q-87 0 -87 102v75q0 52 26.5 80.5t74.5 28.5t74 -28.5t26 -80.5v-245q0 -110 -100 -110zM138 458q30 0 47.5 21.5t17.5 55.5v69q0 72 -62 72q-63 0 -63 -72v-75q0 -71 60 -71z" />
    <glyph glyph-name="caroncomb.alt" horiz-adv-x="0" 
d="M-5 530h-20l19 83h-16v87h44v-83z" />
    <glyph glyph-name="caron.alt" horiz-adv-x="500" 
d="M245 530h-20l19 83h-16v87h44v-83z" />
    </font>
</defs>
</svg>
