<svg xmlns="http://www.w3.org/2000/svg">
<defs>
<font id="BebasNeuePro-Italic" horiz-adv-x="400" >
  <font-face 
    font-family="Bebas Neue Pro"
    font-weight="400"
    font-style="italic"
    font-stretch="normal"
    units-per-em="1000"
    panose-1="2 11 5 6 2 2 2 12 2 1"
    ascent="811"
    descent="-189"
    x-height="503"
    cap-height="700"
    bbox="-221 -207 808 910"
    underline-thickness="60"
    underline-position="-200"
    slope="-12"
    unicode-range="U+000D-FB02"
  />
<missing-glyph horiz-adv-x="738" 
d="M75 0v700h630v-700h-630zM173 134h434v432h-434v-432zM189 550h114v-112h-114v112zM367 390h-32v16h-16v80h32v32h-32v32h16v-16h32v-16h16v16h-16v16h32v-16h16v16h16v-32h16v-16h-16v-32h-16v-16h-16v48h-32v-16h16v-32h-16v16h-32v-48h16v32h16v-16h16v16h16v-32h-32
v-32zM447 550h16v-32h-16v32zM479 550h112v-112h-112v112zM205 454h82v80h-82v-80zM495 454h80v80h-80v-80zM221 518h50v-48h-50v48zM511 518h48v-48h-48v48zM431 454v-32h-16v32h16zM463 438h-16v16h16v-16zM221 406v-16h17v-16h-33v16h-16v32h49v-16h-17zM303 422v-16h-16
v-16h-32v16h16v16h32zM447 390v-16h-16v48h16v-16h16v-16h-16zM463 390h16v16h-16v16h64v-16h-16v-16h16v16h16v-16h16v-16h-16v-16h-32v16h-32v-16h-16v32zM591 374h-16v16h-16v32h32v-48zM303 406h16v-32h-32v16h16v16zM399 406h16v-16h-16v16zM383 390v-16h-16v16h16z
M238 358v16h17v-16h-17zM287 358h32v-16h-64v16h16v16h16v-16zM335 326v48h16v-48h-16zM431 358h-16v16h16v-16zM189 358h16v-32h-16v32zM431 342h48v16h32v-32h48v-16h-48v-16h16v-32h16v-16h-16v-16h16v-16h32v-16h16v-16h-32v16h-32v-32h-32v-16h-16v16h-16v-16h-16v32
h-16v-32h-32v16h16v16h-16v-16h-32v16h16v32h-16v-16h-16v32h48v16h16v-32h-16v-16h32v48h16v16h-16v16h-16v-16h-16v32h16v16h16v-16h16v16h-16v32zM399 310v-16h-32v16h16v32h-16v16h32v-16h16v-32h-16zM591 310h-16v16h-16v16h16v16h16v-48zM255 294h-17v16h-17v16h17v16

<glyph glyph-name="fi" unicode="fi" horiz-adv-x="434" 
d="M301 503l-14 -64h-91l-93 -439h-77l94 439h-63l14 64h63l22 105q22 102 115 102q46 0 72 -16l-13 -64q-22 13 -51 13q-21 0 -32.5 -12t-17.5 -39l-19 -89h91zM380 575l22 108h76l-23 -108h-75zM333 0h-77l107 503h77z" />
    <glyph glyph-name="fl" unicode="fl" horiz-adv-x="434" 
d="M301 503l-14 -64h-91l-93 -439h-77l94 439h-63l14 64h63l22 105q22 102 115 102q46 0 72 -16l-13 -64q-22 13 -51 13q-21 0 -32.5 -12t-17.5 -39l-19 -89h91zM256 0l149 700h77l-149 -700h-77z" />
    <glyph glyph-name=".notdef" horiz-adv-x="738" 
d="M75 0v700h630v-700h-630zM173 134h434v432h-434v-432zM189 550h114v-112h-114v112zM367 390h-32v16h-16v80h32v32h-32v32h16v-16h32v-16h16v16h-16v16h32v-16h16v16h16v-32h16v-16h-16v-32h-16v-16h-16v48h-32v-16h16v-32h-16v16h-32v-48h16v32h16v-16h16v16h16v-32h-32
v-32zM447 550h16v-32h-16v32zM479 550h112v-112h-112v112zM205 454h82v80h-82v-80zM495 454h80v80h-80v-80zM221 518h50v-48h-50v48zM511 518h48v-48h-48v48zM431 454v-32h-16v32h16zM463 438h-16v16h16v-16zM221 406v-16h17v-16h-33v16h-16v32h49v-16h-17zM303 422v-16h-16
v-16h-32v16h16v16h32zM447 390v-16h-16v48h16v-16h16v-16h-16zM463 390h16v16h-16v16h64v-16h-16v-16h16v16h16v-16h16v-16h-16v-16h-32v16h-32v-16h-16v32zM591 374h-16v16h-16v32h32v-48zM303 406h16v-32h-32v16h16v16zM399 406h16v-16h-16v16zM383 390v-16h-16v16h16z
M238 358v16h17v-16h-17zM287 358h32v-16h-64v16h16v16h16v-16zM335 326v48h16v-48h-16zM431 358h-16v16h16v-16zM189 358h16v-32h-16v32zM431 342h48v16h32v-32h48v-16h-48v-16h16v-32h16v-16h-16v-16h16v-16h32v-16h16v-16h-32v16h-32v-32h-32v-16h-16v16h-16v-16h-16v32
h-16v-32h-32v16h16v16h-16v-16h-32v16h16v32h-16v-16h-16v32h48v16h16v-32h-16v-16h32v48h16v16h-16v16h-16v-16h-16v32h16v16h16v-16h16v16h-16v32zM399 310v-16h-32v16h16v32h-16v16h32v-16h16v-32h-16zM591 310h-16v16h-16v16h16v16h16v-48zM255 294h-17v16h-17v16h17v16
h17v-32h16v-32h-16v16zM319 326v-32h16v-32h-16v16h-32v16h16v16h-32v16h48zM351 326h16v-16h-16v16zM189 310h32v-16h-32v16zM335 310h16v-16h-16v16zM479 310h-16v-16h16v16zM238 278h-17v16h17v-16zM367 278h-16v16h16v-16zM559 294h16v-16h-16v16zM463 230h48v48h-48
v-48zM543 278h16v-16h-16v16zM559 230v16h16v32h16v-64h-16v16h-16zM189 262h114v-112h-114v112zM335 246v16h16v-32h-32v16h16zM383 246h-16v16h16v-16zM479 262h16v-16h-16v16zM205 166h82v80h-82v-80zM221 230h50v-48h-50v48zM447 198h16v16h-16v-16zM479 182h32v32h-32
v-32zM319 198h32v-32h16v-16h-48v48zM543 166v-16h-16v16h16zM591 150h-16v16h16v-16z" />
    <glyph glyph-name=".null" horiz-adv-x="0" 
 />
    <glyph glyph-name="nonmarkingreturn" horiz-adv-x="333" 
 />
    <glyph glyph-name="CR" unicode="&#xd;" horiz-adv-x="163" 
 />
    <glyph glyph-name="space" unicode=" " horiz-adv-x="163" 
 />
    <glyph glyph-name="exclam" unicode="!" horiz-adv-x="198" 
d="M113 176h-59l32 196l69 329h80l-70 -329zM85 0h-79l22 101h79z" />
    <glyph glyph-name="quotedbl" unicode="&#x22;" horiz-adv-x="290" 
d="M156 497h-42l24 203h80zM281 497h-43l25 203h80z" />
    <glyph glyph-name="numbersign" unicode="#" 
d="M62 0h-60l68 213h-57l17 53h57l65 208h-58l16 53h59l54 174h60l-54 -174h94l55 174h59l-54 -174h56l-17 -53h-55l-65 -208h55l-17 -53h-55l-68 -213h-59l67 213h-95zM212 474l-65 -208h95l64 208h-94z" />
    <glyph glyph-name="dollar" unicode="$" 
d="M339 745l-13 -62q94 -21 94 -119q0 -22 -6 -48l-5 -22l-73 7l6 26q3 15 3 26q0 65 -75 65q-42 0 -65.5 -30t-23.5 -77q0 -59 74 -136q91 -94 91 -172q0 -79 -45 -133q-44 -54 -119 -59l-13 -66h-65l15 71q-98 23 -98 121q0 24 5 47l10 43l73 -6l-10 -48q-2 -12 -2 -25
q0 -65 76 -65q44 0 68.5 31.5t24.5 81.5q0 57 -74 133q-92 92 -92 176q0 75 44 128q44 51 118 56l12 56h65z" />
    <glyph glyph-name="percent" unicode="%" horiz-adv-x="569" 
d="M161 324q-48 0 -74 22t-26 64q0 20 4 35l35 165q10 48 38 73.5t71 25.5q48 0 74 -22.5t26 -64.5q0 -19 -4 -34l-36 -165q-19 -99 -108 -99zM123 0h-55l421 700h55zM161 373q44 0 54 52l37 173q3 10 3 19q0 43 -47 43q-44 0 -54 -52l-36 -173q-3 -12 -3 -20q0 -42 46 -42z
M403 -11q-48 0 -74.5 22.5t-26.5 64.5q0 19 4 34l35 166q23 99 109 99q48 0 74 -23t26 -64q0 -19 -4 -34l-35 -166q-23 -99 -108 -99zM403 38q42 0 54 52l37 174q2 18 2 19q0 43 -47 43q-42 0 -54 -52l-36 -174q-2 -18 -2 -20q0 -42 46 -42z" />
    <glyph glyph-name="ampersand" unicode="&#x26;" horiz-adv-x="412" 
d="M162 454q0 -61 72 -61h183l-15 -69h-29l-40 -190q-21 -97 -18 -134h-66q-5 18 3 62q-45 -72 -126 -72q-57 0 -87 27.5t-30 80.5q0 22 6 49l16 75q24 109 116 138v2q-59 21 -59 97q0 23 5 48l11 50q34 153 167 153q71 0 111 -33.5t40 -96.5q0 -25 -8 -62h-74q7 35 7 53
q0 70 -75 70q-72 0 -92 -89l-14 -67q-4 -13 -4 -31zM257 142l39 182h-72q-92 0 -116 -108l-16 -70q-4 -12 -4 -29q0 -63 69 -63q34 0 61 23.5t39 64.5z" />
    <glyph glyph-name="quotesingle" unicode="'" horiz-adv-x="165" 
d="M156 497h-43l25 203h80z" />
    <glyph glyph-name="parenleft" unicode="(" horiz-adv-x="264" 
d="M155 -100h-27q-118 0 -118 95q0 24 5 51l110 515q15 73 53 106t115 33h32l-13 -60h-22q-75 0 -94 -85l-110 -515q-4 -23 -4 -33q0 -25 13 -36t45 -11h27z" />
    <glyph glyph-name="parenright" unicode=")" horiz-adv-x="264" 
d="M-9 -100h-31l13 60h21q77 0 95 86l110 515q4 15 4 33q0 46 -58 46h-27l13 60h25q120 0 120 -95q0 -21 -6 -50l-110 -515q-15 -74 -53 -107t-116 -33z" />
    <glyph glyph-name="asterisk" unicode="*" horiz-adv-x="407" 
d="M259 488l-98 -131l-48 38l115 115l-144 34l28 61l135 -59l8 154h64l-36 -154l149 58l12 -61l-154 -33l84 -115l-55 -38z" />
    <glyph glyph-name="plus" unicode="+" 
d="M241 128h-60v143h-140v60h140v141h60v-141h140v-60h-140v-143z" />
    <glyph glyph-name="comma" unicode="," horiz-adv-x="183" 
d="M7 -108h-39l58 108h-28l22 101h79l-19 -93z" />
    <glyph glyph-name="hyphen" unicode="-" horiz-adv-x="265" 
d="M239 268h-205l13 64h205z" />
    <glyph glyph-name="period" unicode="." horiz-adv-x="183" 
d="M78 0h-80l22 101h79z" />
    <glyph glyph-name="slash" unicode="/" horiz-adv-x="373" 
d="M10 -100h-72l446 800h72z" />
    <glyph glyph-name="zero" unicode="0" 
d="M170 -10q-73 0 -114 35.5t-41 101.5q0 24 6 51l80 377q33 155 170 155q73 0 114 -35.5t41 -100.5q0 -25 -6 -52l-80 -378q-31 -154 -170 -154zM175 61q68 0 86 87l82 387q4 15 4 33q0 71 -79 71q-70 0 -88 -87l-82 -387q-4 -15 -4 -32q0 -72 81 -72z" />
    <glyph glyph-name="one" unicode="1" horiz-adv-x="277" 
d="M169 0h-80l124 572q-52 -21 -125 -22l7 58q59 1 97.5 23t68.5 69h59z" />
    <glyph glyph-name="two" unicode="2" horiz-adv-x="369" 
d="M284 0h-312l17 79q18 81 60 140q44 59 121 117q75 58 109 98q37 43 47 94q5 25 5 40q0 71 -76 71q-72 0 -90 -87l-15 -72h-75l16 75q33 155 169 155q75 0 113 -35t38 -98q0 -24 -7 -55q-14 -64 -58 -120.5t-127 -120.5q-66 -50 -103 -92q-34 -40 -44 -92l-5 -26h232z" />
    <glyph glyph-name="three" unicode="3" horiz-adv-x="376" 
d="M155 -10q-77 0 -115.5 34.5t-38.5 98.5q0 24 6 54l8 37h75l-10 -49q-4 -15 -4 -33q0 -71 79 -71q70 0 91 94l16 74q4 17 4 38q0 63 -70 63h-44l15 71h41q42 0 71 25t38 73l7 35q4 13 4 32q0 73 -75 73q-67 0 -86 -85l-12 -50h-75l12 52q33 154 165 154q72 0 111.5 -34.5
t39.5 -97.5q0 -26 -6 -54l-4 -15q-26 -123 -114 -142v-1q61 -25 61 -100q0 -15 -5 -43l-17 -80q-35 -153 -168 -153z" />
    <glyph glyph-name="four" unicode="4" horiz-adv-x="398" 
d="M271 0h-80l30 141h-227l15 72l321 487h90l-104 -488h56l-15 -71h-56zM311 562l-227 -350h152z" />
    <glyph glyph-name="five" unicode="5" horiz-adv-x="381" 
d="M162 -10q-73 0 -113 35t-40 99q0 26 6 54l8 32h74l-9 -44q-4 -15 -4 -33q0 -72 80 -72q68 0 88 87l31 149q5 22 5 40q0 66 -69 66q-65 0 -96 -84h-75l103 381h278l-15 -71h-206l-59 -210q48 55 108 55q53 0 83 -31t30 -86q0 -33 -7 -62l-32 -150q-16 -75 -59.5 -115
t-109.5 -40z" />
    <glyph glyph-name="six" unicode="6" horiz-adv-x="392" 
d="M168 -10q-74 0 -114 35t-40 99q0 26 6 54l80 374q35 158 170 158q74 0 114 -34.5t40 -98.5q0 -23 -6 -52h-75q6 25 6 45q0 69 -80 69q-71 0 -92 -99l-33 -156q43 58 112 58q56 0 87 -30t31 -86q0 -23 -7 -58l-27 -124q-17 -75 -61 -114.5t-111 -39.5zM171 61q71 0 89 86
l26 121q4 15 4 35q0 68 -73 68q-36 0 -61 -25t-34 -67l-25 -115q-4 -15 -4 -34q0 -69 78 -69z" />
    <glyph glyph-name="seven" unicode="7" horiz-adv-x="356" 
d="M93 0h-87l330 629h-239l16 71h320l-15 -69z" />
    <glyph glyph-name="eight" unicode="8" horiz-adv-x="396" 
d="M165 -10q-71 0 -114 35.5t-43 100.5q0 24 6 51l13 64q24 108 109 132v2q-51 31 -51 97q0 15 5 47l9 41q33 150 175 150q70 0 111 -34t41 -97q0 -23 -6 -52l-8 -42q-22 -102 -105 -129v-1q55 -31 55 -102q0 -25 -4 -44l-15 -66q-33 -153 -178 -153zM238 396q74 0 93 82
l13 59q4 20 4 32q0 34 -21.5 52t-58.5 18q-73 0 -91 -85l-13 -59q-3 -15 -3 -29q0 -33 21 -51.5t56 -18.5zM171 61q74 0 96 94l15 69q3 16 3 30q0 36 -22 54.5t-60 18.5q-77 0 -97 -86l-14 -68q-4 -23 -4 -36q0 -37 22.5 -56.5t60.5 -19.5z" />
    <glyph glyph-name="nine" unicode="9" horiz-adv-x="393" 
d="M165 -11q-74 0 -114 34.5t-40 99.5q0 25 5 52h76q-6 -25 -6 -45q0 -69 79 -69q36 0 58.5 24t33.5 75l33 156q-40 -58 -111 -58q-56 0 -87 30t-31 86q0 31 7 58l27 124q16 75 60 114.5t111 39.5q75 0 114.5 -35t39.5 -99q0 -26 -6 -54l-80 -374q-34 -159 -169 -159z
M217 329q36 0 61 24.5t35 67.5l25 115q4 21 4 34q0 69 -79 69q-69 0 -89 -86l-26 -121q-4 -23 -4 -35q0 -68 73 -68z" />
    <glyph glyph-name="colon" unicode=":" horiz-adv-x="183" 
d="M159 381h-79l21 101h79zM78 0h-80l22 101h79z" />
    <glyph glyph-name="semicolon" unicode=";" horiz-adv-x="183" 
d="M160 381h-79l21 101h79zM7 -108h-39l58 108h-28l22 101h79l-19 -93z" />
    <glyph glyph-name="less" unicode="&#x3c;" 
d="M357 196v-62l-300 138v57l300 137v-62l-227 -104z" />
    <glyph glyph-name="equal" unicode="=" 
d="M371 351h-320v60h320v-60zM371 189h-320v60h320v-60z" />
    <glyph glyph-name="greater" unicode="&#x3e;" 
d="M365 272l-300 -138v62l227 104l-227 104v62l300 -137v-57z" />
    <glyph glyph-name="question" unicode="?" horiz-adv-x="362" 
d="M182 176h-68l9 43q15 77 97 159q47 47 69.5 82.5t31.5 77.5q4 15 4 32q0 69 -77 69q-68 0 -87 -88l-16 -71h-74l15 74q15 75 58 115.5t109 40.5q70 0 110.5 -34.5t40.5 -97.5q0 -23 -7 -54q-20 -92 -113 -176q-47 -45 -68 -74t-27 -63zM149 0h-79l21 101h79z" />
    <glyph glyph-name="at" unicode="@" horiz-adv-x="696" 
d="M490 499h72l-89 -277q-6 -16 -6 -30q0 -27 27 -27q37 0 73 56q37 54 58 126q21 71 21 123q0 84 -53 130.5t-151 46.5t-181 -71q-82 -72 -125 -176t-43 -217q0 -103 61.5 -157t176.5 -54q88 0 168 47l-19 -72q-70 -37 -153 -37q-139 0 -221 72q-82 70 -82 203
q0 131 53 251q52 120 151 197q98 77 216 77q126 0 195 -59t69 -170q0 -81 -29 -170q-28 -87 -83 -149q-54 -62 -117 -62q-78 0 -81 65q-44 -65 -108 -65q-43 0 -69 22.5t-26 63.5q0 24 11 62l45 145q37 114 125 114q76 0 96 -66zM321 160q63 0 94 100l26 82q5 25 5 37
q0 30 -15.5 47.5t-42.5 17.5q-47 0 -70 -68l-42 -133q-6 -19 -6 -37q0 -46 51 -46z" />
    <glyph glyph-name="A" unicode="A" horiz-adv-x="402" 
d="M-37 0l279 700h108l-19 -700h-79l5 149h-160l-57 -149h-77zM274 606l-150 -389h136z" />
    <glyph glyph-name="B" unicode="B" horiz-adv-x="404" 
d="M169 0h-175l149 700h150q137 0 137 -111q0 -23 -6 -52l-6 -29q-12 -62 -37.5 -95t-69.5 -43v-1q63 -24 63 -100q0 -23 -6 -50l-13 -59q-17 -84 -61 -122t-125 -38zM208 629l-49 -228h63q94 0 115 99l7 36q5 28 5 38q0 30 -16 42.5t-50 12.5h-75zM144 330l-55 -259h84
q85 0 104 97l13 59q5 32 5 43q0 33 -19 46.5t-62 13.5h-70z" />
    <glyph glyph-name="C" unicode="C" horiz-adv-x="382" 
d="M165 -10q-72 0 -111 34.5t-39 97.5q0 23 6 50l83 389q16 71 59 110t107 39q72 0 111 -34t39 -97q0 -24 -6 -51l-12 -57h-76l16 69q3 15 3 29q0 34 -20 52t-55 18q-69 0 -87 -82l-85 -397q-4 -13 -4 -30q0 -33 19.5 -51t55.5 -18q71 0 88 81l22 108h75l-23 -111
q-32 -149 -166 -149z" />
    <glyph glyph-name="D" unicode="D" horiz-adv-x="408" 
d="M164 0h-170l149 700h154q136 0 136 -119q0 -24 -6 -54l-77 -360q-18 -87 -62 -127t-124 -40zM208 629l-119 -558h76q83 0 106 99l78 367q4 17 4 38q0 29 -15 41.5t-49 12.5h-81z" />
    <glyph glyph-name="E" unicode="E" horiz-adv-x="356" 
d="M281 0h-287l149 700h287l-15 -71h-207l-49 -228h168l-15 -71h-168l-55 -259h207z" />
    <glyph glyph-name="F" unicode="F" horiz-adv-x="342" 
d="M74 0h-80l149 700h278l-15 -71h-198l-51 -238h159l-15 -71h-159z" />
    <glyph glyph-name="G" unicode="G" horiz-adv-x="393" 
d="M169 -10q-73 0 -113.5 34t-40.5 99q0 27 6 55l80 378q34 154 168 154q75 0 114 -34.5t39 -98.5q0 -25 -6 -54l-8 -42h-76l12 55q4 21 4 34q0 70 -78 70q-70 0 -89 -87l-84 -389q-4 -21 -4 -34q0 -69 78 -69q70 0 90 86l36 167h-79l15 71h154l-51 -240q-32 -155 -167 -155
z" />
    <glyph glyph-name="H" unicode="H" horiz-adv-x="419" 
d="M74 0h-80l149 700h80l-64 -299h165l64 299h79l-149 -700h-79l70 330h-165z" />
    <glyph glyph-name="I" unicode="I" horiz-adv-x="175" 
d="M74 0h-80l149 700h80z" />
    <glyph glyph-name="J" unicode="J" horiz-adv-x="261" 
d="M39 -4q-49 0 -76 13l15 70q27 -11 55 -11q67 0 83 79l117 553h80l-119 -559q-30 -145 -155 -145z" />
    <glyph glyph-name="K" unicode="K" horiz-adv-x="408" 
d="M399 700h87l-203 -266l55 -434h-79l-43 345l-95 -124l-47 -221h-80l149 700h80l-72 -336z" />
    <glyph glyph-name="L" unicode="L" horiz-adv-x="342" 
d="M272 0h-278l149 700h80l-134 -629h198z" />
    <glyph glyph-name="M" unicode="M" horiz-adv-x="527" 
d="M65 0h-71l149 700h113l-16 -559l221 559h116l-149 -700h-77l125 584l-235 -584h-65l14 584z" />
    <glyph glyph-name="N" unicode="N" horiz-adv-x="425" 
d="M67 0h-73l149 700h98l52 -500l107 500h73l-149 -700h-79l-57 569z" />
    <glyph glyph-name="O" unicode="O" 
d="M170 -10q-73 0 -114 35.5t-41 101.5q0 24 6 51l80 377q33 155 170 155q73 0 114 -35.5t41 -100.5q0 -25 -6 -52l-80 -378q-31 -154 -170 -154zM175 61q68 0 86 87l82 387q4 15 4 33q0 71 -79 71q-70 0 -88 -87l-82 -387q-4 -15 -4 -32q0 -72 81 -72z" />
    <glyph glyph-name="P" unicode="P" horiz-adv-x="385" 
d="M74 0h-80l149 700h152q131 0 131 -117q0 -25 -6 -55l-13 -61q-19 -87 -63.5 -126.5t-127.5 -39.5h-78zM208 629l-55 -257h70q45 0 69.5 23t34.5 74l15 69q4 17 4 36q0 30 -15 42.5t-48 12.5h-75z" />
    <glyph glyph-name="Q" unicode="Q" 
d="M420 522l-80 -378q-15 -74 -57 -113q3 -15 10 -20t26 -5h25l-15 -71h-23q-72 0 -79 63q-29 -8 -57 -8q-73 0 -114 35.5t-41 101.5q0 24 6 51l80 377q33 155 170 155q73 0 114 -35.5t41 -100.5q0 -25 -6 -52zM94 133q0 -72 81 -72q68 0 86 87l82 387q4 15 4 33
q0 71 -79 71q-70 0 -88 -87l-82 -387q-4 -15 -4 -32z" />
    <glyph glyph-name="R" unicode="R" horiz-adv-x="402" 
d="M74 0h-80l149 700h152q131 0 131 -113q0 -24 -6 -54l-8 -38q-14 -65 -40.5 -99.5t-72.5 -45.5v-1q59 -15 59 -88q0 -27 -7 -54l-26 -125q-10 -47 -10 -68q0 -11 1 -14h-77q-1 5 -1 20q0 27 9 68l27 129q6 26 6 44q0 30 -17.5 42.5t-56.5 12.5h-65zM208 629l-52 -242h58
q49 0 76.5 23t39.5 76l11 50q5 30 5 40q0 53 -65 53h-73z" />
    <glyph glyph-name="S" unicode="S" horiz-adv-x="369" 
d="M146 -10q-144 0 -144 128q0 30 7 57l5 24h75l-8 -37q-4 -21 -4 -34q0 -67 75 -67q46 0 70.5 34.5t24.5 88.5q0 69 -72 146q-88 94 -88 186q0 86 48 140t129 54q70 0 106.5 -32t36.5 -93q0 -22 -8 -59l-3 -13h-75l6 25q4 15 4 36q0 65 -73 65q-44 0 -68 -32t-24 -82
q0 -68 72 -146q88 -94 88 -188q0 -89 -48 -145t-132 -56z" />
    <glyph glyph-name="T" unicode="T" horiz-adv-x="361" 
d="M167 0h-80l134 629h-124l15 71h328l-16 -71h-124z" />
    <glyph glyph-name="U" unicode="U" horiz-adv-x="403" 
d="M172 -10q-72 0 -112.5 34.5t-40.5 99.5q0 26 6 54l111 522h80l-115 -536q-4 -21 -4 -32q0 -71 80 -71q66 0 86 86l118 553h77l-119 -555q-33 -155 -167 -155z" />
    <glyph glyph-name="V" unicode="V" horiz-adv-x="388" 
d="M196 0h-108l25 700h79l-27 -594l226 594h75z" />
    <glyph glyph-name="W" unicode="W" horiz-adv-x="558" 
d="M158 0h-106l64 700h75l-57 -592l198 592h88l-54 -592l196 592h71l-233 -700h-101l45 546z" />
    <glyph glyph-name="X" unicode="X" 
d="M43 0h-81l216 363l-59 337h78l43 -257l152 257h82l-208 -347l64 -353h-79l-46 274z" />
    <glyph glyph-name="Y" unicode="Y" horiz-adv-x="393" 
d="M182 0h-80l66 307l-57 393h80l36 -292l164 292h82l-225 -393z" />
    <glyph glyph-name="Z" unicode="Z" horiz-adv-x="355" 
d="M279 0h-312l14 70l342 559h-212l16 71h301l-14 -69l-341 -560h221z" />
    <glyph glyph-name="bracketleft" unicode="[" horiz-adv-x="264" 
d="M156 -100h-167l170 800h167l-13 -60h-94l-145 -680h95z" />
    <glyph glyph-name="backslash" unicode="\" horiz-adv-x="373" 
d="M282 -100h-64l-106 800h64z" />
    <glyph glyph-name="bracketright" unicode="]" horiz-adv-x="264" 
d="M127 -100h-168l13 60h95l144 680h-94l13 60h167z" />
    <glyph glyph-name="asciicircum" unicode="^" 
d="M135 431h-69l143 269h57l142 -269h-68l-103 193z" />
    <glyph glyph-name="underscore" unicode="_" horiz-adv-x="300" 
d="M225 -103h-300l10 51h301z" />
    <glyph glyph-name="grave" unicode="`" horiz-adv-x="500" 
d="M364 565h-58l-69 128h84z" />
    <glyph glyph-name="a" unicode="a" horiz-adv-x="367" 
d="M215 513q65 0 100 -29t35 -86q0 -22 -6 -51l-46 -222q-18 -81 -16 -125h-72q-2 19 5 56q-41 -66 -116 -66q-48 0 -77 29.5t-29 77.5q0 71 40 113.5t123 69.5q62 20 84 32q20 11 26 31l5 24q3 13 3 25q0 56 -62 56q-63 0 -76 -70l-4 -22h-73l6 26q14 63 53 97t97 34z
M131 56q69 0 94 87l25 120q-14 -14 -83 -39q-94 -31 -94 -113q0 -55 58 -55z" />
    <glyph glyph-name="b" unicode="b" horiz-adv-x="385" 
d="M269 513q51 0 79 -27t28 -77q0 -21 -7 -52l-49 -235q-28 -132 -131 -132q-45 0 -75 24t-37 67l-29 -81h-56l149 700h77l-50 -236q40 49 101 49zM245 134l47 223q4 15 4 33q0 56 -57 56q-34 0 -59.5 -25.5t-36.5 -74.5l-36 -170l1 1q-5 -22 -5 -40q0 -38 18.5 -59
t51.5 -21q55 0 72 77z" />
    <glyph glyph-name="c" unicode="c" horiz-adv-x="359" 
d="M153 -10q-68 0 -105 31.5t-37 91.5q0 24 6 51l44 206q15 69 55 106t101 37q66 0 102.5 -31t36.5 -90q0 -24 -6 -53l-2 -8h-74l5 23q4 15 4 33q0 59 -66 59q-61 0 -78 -77l-47 -220q-4 -15 -4 -33q0 -59 66 -59q61 0 78 77l6 27h73l-5 -27q-30 -144 -153 -144z" />
    <glyph glyph-name="d" unicode="d" horiz-adv-x="384" 
d="M358 700h77l-122 -575q-18 -81 -16 -125h-72q-2 16 5 59q-42 -69 -114 -69q-51 0 -79 27t-28 77q0 23 6 53l50 235q27 131 130 131q83 0 107 -71zM146 57q33 0 57.5 24t36.5 70l40 187q0 6 0.5 12.5t1 10.5t0.5 6q0 38 -19 58.5t-52 20.5q-56 0 -72 -76l-47 -224
q-4 -21 -4 -33q0 -56 58 -56z" />
    <glyph glyph-name="e" unicode="e" horiz-adv-x="370" 
d="M218 513q69 0 106.5 -33t37.5 -93q0 -24 -6 -51l-20 -96h-226l-18 -85q-4 -23 -4 -34q0 -64 71 -64q63 0 81 82l5 22h74l-5 -22q-15 -72 -55.5 -110.5t-102.5 -38.5q-69 0 -106.5 33.5t-37.5 93.5q0 25 6 53l42 197q31 146 158 146zM137 366l-14 -64h151l10 49q4 21 4 31
q0 64 -71 64q-63 0 -80 -80z" />
    <glyph glyph-name="f" unicode="f" horiz-adv-x="262" 
d="M279 643q-21 0 -32.5 -12t-17.5 -39l-19 -89h91l-14 -64h-91l-93 -439h-77l94 439h-63l14 64h63l22 105q22 102 115 102q46 0 72 -16l-13 -64q-22 13 -51 13z" />
    <glyph glyph-name="g" unicode="g" horiz-adv-x="382" 
d="M306 425l18 78h66l-113 -535q-15 -67 -52.5 -100t-105.5 -33t-104.5 28.5t-36.5 81.5q0 1 0.5 4t1 8.5t0.5 10.5h73q-1 -3 -1 -14q0 -56 67 -56q35 0 54.5 17.5t27.5 56.5l20 97q-41 -50 -100 -50q-51 0 -79 26.5t-28 77.5q0 23 6 53l44 206q29 131 130 131
q45 0 74.5 -23t37.5 -65zM246 186l31 147q3 18 3 33q0 38 -18.5 59t-51.5 21q-55 0 -72 -77l-41 -196q-4 -15 -4 -33q0 -56 58 -56q33 0 58.5 27t36.5 75z" />
    <glyph glyph-name="h" unicode="h" horiz-adv-x="385" 
d="M267 513q49 0 77 -26t28 -76q0 -27 -7 -54l-76 -357h-77l75 352q5 25 5 37q0 57 -56 57q-31 0 -55.5 -23.5t-35.5 -67.5l-75 -355h-76l148 700h76l-49 -234q39 47 98 47z" />
    <glyph glyph-name="i" unicode="i" horiz-adv-x="172" 
d="M193 575h-75l22 108h76zM71 0h-77l107 503h77z" />
    <glyph glyph-name="j" unicode="j" horiz-adv-x="171" 
d="M192 575h-75l22 108h76zM-105 -149l14 62q16 -11 36 -11q15 0 22.5 8t12.5 28l121 565h77l-123 -579q-20 -89 -97 -89q-41 0 -63 16z" />
    <glyph glyph-name="k" unicode="k" horiz-adv-x="383" 
d="M326 503h90l-170 -193l67 -310h-77l-51 239l-83 -94l-31 -145h-77l149 700h77l-92 -433z" />
    <glyph glyph-name="l" unicode="l" horiz-adv-x="172" 
d="M71 0h-77l149 700h77z" />
    <glyph glyph-name="m" unicode="m" horiz-adv-x="592" 
d="M478 513q49 0 76 -26t27 -75q0 -25 -6 -55l-76 -357h-77l75 352q4 19 4 38q0 56 -53 56q-64 0 -88 -86q-1 -1 -1 -3l-76 -357h-77l75 352q5 30 5 38q0 56 -54 56q-33 0 -57 -26t-34 -74l-74 -346h-77l107 503h65l-11 -58q42 68 112 68q86 0 101 -74q41 74 114 74z" />
    <glyph glyph-name="n" unicode="n" horiz-adv-x="385" 
d="M267 513q49 0 77 -26t28 -76q0 -27 -7 -54l-76 -357h-77l75 352q5 25 5 37q0 57 -56 57q-34 0 -58.5 -26t-34.5 -74l-74 -346h-77l107 503h65l-11 -57q43 67 114 67z" />
    <glyph glyph-name="o" unicode="o" horiz-adv-x="371" 
d="M153 -10q-66 0 -104 33.5t-38 93.5q0 23 6 50l43 201q31 145 158 145q66 0 104 -33.5t38 -93.5q0 -26 -5 -49l-44 -201q-31 -146 -158 -146zM155 57q62 0 80 80l46 214q4 15 4 32q0 63 -69 63q-62 0 -79 -80l-47 -214q-4 -20 -4 -32q0 -63 69 -63z" />
    <glyph glyph-name="p" unicode="p" horiz-adv-x="384" 
d="M268 513q51 0 79 -27t28 -77q0 -21 -7 -52l-49 -235q-29 -132 -131 -132q-81 0 -106 69l-46 -214h-77l140 658h65l-10 -57q42 67 114 67zM244 134l47 223q4 15 4 33q0 56 -57 56q-65 0 -91 -81l-40 -188q0 -2 -1 -3l-1 -8q-3 -16 -3 -29q0 -38 18.5 -59t51.5 -21
q55 0 72 77z" />
    <glyph glyph-name="q" unicode="q" horiz-adv-x="384" 
d="M308 424l28 79h56l-140 -658h-78l41 192q-46 -54 -113 -46q-117 11 -86 156l49 235q30 141 148 131q82 -11 95 -89zM138 55q31 -3 57 17.5t41 61.5l43 205q8 46 -8 74t-50 32q-64 7 -81 -76l-48 -225q-17 -85 46 -89z" />
    <glyph glyph-name="r" unicode="r" horiz-adv-x="266" 
d="M263 513q28 0 44 -10l-15 -73q-16 9 -43 9q-81 0 -111 -115l-69 -324h-77l107 503h65l-14 -75q40 85 113 85z" />
    <glyph glyph-name="s" unicode="s" horiz-adv-x="339" 
d="M128 -10q-58 0 -93.5 30t-35.5 83q0 15 5 40l2 9h73l-4 -15q-3 -15 -3 -26q0 -27 17 -41t45 -14q37 0 58.5 23.5t21.5 56.5q0 28 -16 47.5t-52 42.5q-27 18 -45 32q-16 14 -30.5 42.5t-14.5 58.5q0 66 43 109q43 45 112 45q55 0 88.5 -29.5t33.5 -80.5q0 -15 -5 -40h-71
q4 21 4 32q0 24 -15 38t-40 14q-33 0 -54 -22.5t-21 -54.5q0 -26 16.5 -46.5t52.5 -43.5q40 -27 61 -49q30 -30 30 -84q0 -64 -44 -111q-43 -46 -119 -46z" />
    <glyph glyph-name="t" unicode="t" horiz-adv-x="266" 
d="M286 439h-91l-70 -329l-2 -18q0 -35 43 -35q16 0 38 8l-9 -67q-24 -8 -56 -8q-45 0 -70 22.5t-25 63.5q0 17 4 32l71 331h-63l14 64h64l39 145h67l-31 -145h91z" />
    <glyph glyph-name="u" unicode="u" horiz-adv-x="385" 
d="M242 157l74 346h77l-107 -503h-65l11 57q-43 -67 -114 -67q-49 0 -77 26t-28 76q0 28 7 55l76 356h77l-75 -352q-5 -25 -5 -37q0 -57 56 -57q33 0 58 26.5t35 73.5z" />
    <glyph glyph-name="v" unicode="v" horiz-adv-x="358" 
d="M175 0h-97l-6 503h76v-402l171 402h75z" />
    <glyph glyph-name="w" unicode="w" horiz-adv-x="534" 
d="M151 0h-98l21 503h73l-16 -399l152 399h79l-18 -399l154 399h71l-193 -503h-93l12 363z" />
    <glyph glyph-name="x" unicode="x" horiz-adv-x="367" 
d="M44 0h-82l180 263l-65 240h78l45 -177l117 177h82l-172 -249l69 -254h-78l-48 192z" />
    <glyph glyph-name="y" unicode="y" horiz-adv-x="362" 
d="M323 503h75l-261 -575q-24 -49 -51.5 -71t-69.5 -22q-47 0 -70 17l14 63q20 -13 50 -13q20 0 32.5 10t23.5 34l26 55l-22 502h75l10 -381z" />
    <glyph glyph-name="z" unicode="z" horiz-adv-x="328" 
d="M249 0h-279l12 63l273 376h-182l14 64h269l-13 -63l-272 -375h192z" />
    <glyph glyph-name="braceleft" unicode="{" horiz-adv-x="264" 
d="M162 -100h-42q-40 0 -63 19.5t-23 57.5q0 11 4 34l40 188q5 25 5 35q0 20 -12 28t-39 8l7 61q37 0 55.5 17t27.5 58l40 190q23 104 122 104h48l-13 -61h-14q-34 0 -51 -17t-26 -58l-36 -173q-9 -40 -26.5 -61.5t-49.5 -29.5l-6 -1q45 -13 45 -64q0 -18 -4 -33l-36 -172
q-5 -25 -5 -36q0 -18 10.5 -25.5t35.5 -7.5h19z" />
    <glyph glyph-name="bar" unicode="|" horiz-adv-x="300" 
d="M203 -200h-66v1001h66v-1001z" />
    <glyph glyph-name="braceright" unicode="}" horiz-adv-x="264" 
d="M0 -100h-47l13 61h13q34 0 51.5 17t26.5 58l37 172q8 41 25.5 62.5t49.5 29.5l6 1q-45 14 -45 64q0 14 3 32l37 173q11 30 2.5 51t-43.5 18h-19l13 61h42q86 0 86 -78q0 -17 -4 -32l-40 -190q-5 -25 -5 -33q0 -21 12 -28.5t40 -7.5l-8 -61q-37 0 -55.5 -17.5t-28.5 -59.5
l-39 -188q-23 -105 -123 -105z" />
    <glyph glyph-name="asciitilde" unicode="~" 
d="M72 235l-44 33q28 50 53.5 72t59.5 22q32 0 76 -31q47 -30 64 -30q19 0 33 13.5t37 50.5l44 -33q-29 -50 -54.5 -72t-59.5 -22q-30 0 -76 31q-44 29 -63 30q-19 0 -33 -13.5t-37 -50.5z" />
    <glyph glyph-name="uni00A0" unicode="&#xa0;" horiz-adv-x="163" 
 />
    <glyph glyph-name="exclamdown" unicode="&#xa1;" horiz-adv-x="198" 
d="M171 403h-79l21 100h79zM43 -198h-80l70 330l53 196h58l-31 -196z" />
    <glyph glyph-name="cent" unicode="&#xa2;" 
d="M333 710l-15 -68q97 -22 97 -124q0 -24 -6 -51l-4 -17h-74l6 29q3 17 3 29q0 33 -20 51t-55 18q-69 0 -87 -81l-60 -274q-3 -16 -3 -30q0 -33 19.5 -51t55.5 -18q33 0 56.5 21.5t31.5 60.5l13 65h76l-15 -69q-15 -69 -56 -108t-103 -41l-15 -72h-64l16 79q-95 26 -95 125
q0 23 6 50l58 266q15 68 55.5 106.5t100.5 41.5l14 62h64z" />
    <glyph glyph-name="sterling" unicode="&#xa3;" 
d="M306 0h-319l12 69q51 28 88 73.5t48 95.5q4 16 4 28h-92l13 62h77q-4 19 -13 52q-18 71 -18 116q0 95 46 154q46 60 133 60q68 0 105.5 -36.5t37.5 -100.5q0 -27 -10 -68h-74q9 48 9 61q0 34 -18 53.5t-53 19.5q-51 0 -74.5 -40t-23.5 -108q0 -43 12 -98q11 -51 13 -65
h137l-13 -62h-122q-1 -18 -5 -35q-17 -80 -113 -160h228z" />
    <glyph glyph-name="currency" unicode="&#xa4;" 
d="M323 282l56 -53l-37 -37l-52 57q-32 -21 -69 -21t-69 21l-52 -57l-37 37l56 53q-21 31 -21 68t21 68l-56 53l37 37l52 -56q32 21 69 21t69 -21l52 56l37 -37l-56 -53q20 -29 20 -68t-20 -68zM286 350q0 29 -18 47.5t-47 18.5t-47.5 -18.5t-18.5 -47.5t18.5 -47t47.5 -18
t47 18.5t18 46.5z" />
    <glyph glyph-name="yen" unicode="&#xa5;" 
d="M396 700h81l-218 -380h99l-11 -54h-104l-19 -87h104l-11 -55h-104l-27 -124h-79l27 124h-101l11 55h101l19 87h-101l11 54h97l-54 380h79l36 -292z" />
    <glyph glyph-name="brokenbar" unicode="&#xa6;" horiz-adv-x="300" 
d="M203 400h-66v400h66v-400zM203 -200h-66v400h66v-400z" />
    <glyph glyph-name="section" unicode="&#xa7;" horiz-adv-x="415" 
d="M424 548h-72q3 18 3 30q0 30 -20 47.5t-53 17.5q-39 0 -62.5 -22.5t-23.5 -61.5q0 -30 19 -51t69 -53q30 -19 55 -38q22 -17 39 -47t17 -64q0 -59 -34 -98.5t-93 -50.5q48 -45 48 -107q0 -71 -45 -114t-118 -43q-66 0 -105 35t-39 94q0 16 3 34h72q-3 -18 -3 -30
q0 -30 20 -48t53 -18q39 0 62.5 22.5t23.5 61.5q0 22 -14 42l-7 10.5t-8 9t-8 7.5t-10.5 8t-11 7.5t-14 9.5t-15.5 10q-51 33 -76 58q-35 36 -35 91q0 60 33.5 99t93.5 51q-48 44 -48 106q0 71 45 114t118 43q66 0 105 -35t39 -94q0 -15 -3 -33zM317 297q0 23 -15 44
q-12 18 -28 31q-9 7 -45 31l-3 2h-2q-47 0 -76 -28t-29 -70q0 -22 14 -44q14 -19 29 -31q9 -7 45 -31l3 -2h2q47 0 76 28t29 70z" />
    <glyph glyph-name="dieresis" unicode="&#xa8;" horiz-adv-x="500" 
d="M291 575h-70l23 108h70zM417 575h-70l23 108h70z" />
    <glyph glyph-name="copyright" unicode="&#xa9;" horiz-adv-x="754" 
d="M647 92q-99 -102 -249 -102t-249 102q-99 104 -99 258q0 155 99 257q99 103 249 103t249 -103q99 -102 99 -257q0 -154 -99 -258zM398 44q127 0 210 86q83 88 83 220q0 133 -83 219q-82 87 -210 87q-127 0 -210 -86q-82 -85 -82 -220t82 -220q83 -86 210 -86zM395 131
q-110 0 -110 119v199q0 121 110 121q109 0 109 -121v-31h-55v35q0 63 -53 63t-53 -63v-206q0 -62 53 -62t53 62v51h55v-48q0 -57 -27.5 -88t-81.5 -31z" />
    <glyph glyph-name="ordfeminine" unicode="&#xaa;" horiz-adv-x="281" 
d="M218 710q46 0 71.5 -21.5t25.5 -61.5q0 -14 -4 -37l-33 -153q-15 -72 -15 -95h-47q0 12 3 39q-31 -46 -82 -46q-37 0 -57.5 19.5t-20.5 52.5q0 97 119 132q40 13 55.5 21t20.5 19l5 26q2 16 2 17q0 41 -45 41q-44 0 -55 -50l-2 -8h-51l2 11q10 44 38 69t70 25zM158 381
q46 0 66 57l18 87q-9 -9 -59 -26q-67 -24 -67 -80q0 -38 42 -38zM234 228h-206l11 49h205z" />
    <glyph glyph-name="guillemotleft" unicode="&#xab;" horiz-adv-x="305" 
d="M137 196h-56l-43 104l85 100h59l-77 -105zM263 196h-56l-42 104l84 100h59l-76 -105z" />
    <glyph glyph-name="logicalnot" unicode="&#xac;" 
d="M370 165h-60v143h-280v59h340v-202z" />
    <glyph glyph-name="uni00AD" unicode="&#xad;" horiz-adv-x="265" 
d="M239 268h-205l13 64h205z" />
    <glyph glyph-name="registered" unicode="&#xae;" horiz-adv-x="754" 
d="M647 92q-99 -102 -249 -102t-249 102q-99 104 -99 258q0 155 99 257q99 103 249 103t249 -103q99 -102 99 -257q0 -154 -99 -258zM398 44q127 0 210 86q83 88 83 220q0 133 -83 219q-82 87 -210 87q-127 0 -210 -86q-82 -85 -82 -220t82 -220q83 -86 210 -86zM352 136
h-58v428h110q55 0 82 -26.5t27 -82.5v-13q0 -74 -55 -93v-1q55 -15 55 -91v-62q0 -39 9 -59h-60q-7 20 -7 60v58q0 36 -14 50t-49 14h-40v-182zM352 510v-138h42q32 0 46.5 14t14.5 47v16q0 32 -12.5 46.5t-41.5 14.5h-49z" />
    <glyph glyph-name="overscore" unicode="&#xaf;" horiz-adv-x="500" 
d="M430 600h-212l13 59h212z" />
    <glyph glyph-name="degree" unicode="&#xb0;" 
d="M356 511q-34 -34 -83 -34t-83 34q-33 35 -33 83q0 49 33 82q34 34 83 34t83 -34q34 -33 34 -82t-34 -83zM231 551q17 -17 42 -17t42 17q18 18 18 43t-18 42q-17 18 -42 18t-42 -18q-17 -17 -17 -42t17 -43z" />
    <glyph glyph-name="plusminus" unicode="&#xb1;" 
d="M371 113h-320v59h130v127h-130v60h130v130h60v-130h130v-60h-130v-127h130v-59z" />
    <glyph glyph-name="uni00B2" unicode="&#xb2;" horiz-adv-x="283" 
d="M261 351h-199l12 57q11 50 36 85t76 74q46 34 68.5 62t30.5 63q2 10 2 22q0 42 -44 42q-43 0 -55 -52l-9 -42h-51l9 44q23 99 108 99q48 0 73 -22.5t25 -62.5q0 -18 -4 -33q-10 -42 -37.5 -77t-81.5 -77q-45 -34 -64 -58.5t-26 -56.5l-4 -18h146z" />
    <glyph glyph-name="uni00B3" unicode="&#xb3;" horiz-adv-x="284" 
d="M175 341q-99 0 -99 84q0 21 4 36l6 25h52l-8 -34q-2 -18 -2 -20q0 -42 46 -42q42 0 55 57l11 51q3 15 3 25q0 36 -41 36h-29l10 48h26q52 0 67 62l4 20q4 11 4 25q0 42 -47 42q-42 0 -54 -51l-7 -32h-51l7 33q22 99 108 99q98 0 98 -84q0 -19 -4 -34l-3 -15
q-15 -75 -71 -89v-2q36 -17 36 -63q0 -13 -4 -30l-9 -48q-19 -99 -108 -99z" />
    <glyph glyph-name="acute" unicode="&#xb4;" horiz-adv-x="500" 
d="M331 565h-65l98 128h91z" />
    <glyph glyph-name="uni00B5" unicode="&#xb5;" horiz-adv-x="388" 
d="M247 154l74 349h77l-106 -503h-66l10 56q-42 -66 -112 -66q-29 0 -54 11l-33 -156h-76l140 658h77l-75 -352q-4 -17 -4 -37q0 -57 55 -57q33 0 57.5 25t35.5 72z" />
    <glyph glyph-name="paragraph" unicode="&#xb6;" horiz-adv-x="448" 
d="M176 -97h-61l88 401q-127 1 -127 112q0 23 6 53l14 64q35 167 196 167h193l-170 -797h-61l157 738h-78z" />
    <glyph glyph-name="middot" unicode="&#xb7;" horiz-adv-x="183" 
d="M131 250h-79l21 100h79z" />
    <glyph glyph-name="cedilla" unicode="&#xb8;" horiz-adv-x="500" 
d="M168 -155q-81 0 -81 49q0 2 2 18h56q-3 -7 -3 -14q0 -18 30 -18q19 0 30 9.5t11 25.5q0 19 -32 19h-12l16 76h38l-14 -54q59 0 59 -44q0 -38 -24.5 -52.5t-75.5 -14.5z" />
    <glyph glyph-name="uni00B9" unicode="&#xb9;" horiz-adv-x="284" 
d="M214 351h-56l77 357q-34 -10 -76 -11l2 40q72 2 109 58h38z" />
    <glyph glyph-name="ordmasculine" unicode="&#xba;" horiz-adv-x="281" 
d="M175 334q-48 0 -74.5 24t-26.5 67q0 20 4 35l31 146q20 104 114 104q48 0 74.5 -24t26.5 -67q0 -20 -4 -35l-31 -146q-23 -104 -114 -104zM177 383q46 0 57 56l34 155l2 22q0 46 -51 46q-45 0 -56 -57l-33 -155q0 -3 -0.5 -7t-1 -6.5t-0.5 -5v-3.5q0 -45 49 -45zM238 229
h-205l11 48h205z" />
    <glyph glyph-name="guillemotright" unicode="&#xbb;" horiz-adv-x="305" 
d="M77 196h-60l77 105l-32 99h56l43 -104zM203 196h-60l78 105l-33 99h56l44 -104z" />
    <glyph glyph-name="onequarter" unicode="&#xbc;" horiz-adv-x="654" 
d="M166 0h-55l421 700h55zM194 256h-56l77 357q-34 -10 -76 -11l2 40q72 2 109 58h38zM541 0h-55l18 87h-141l9 49l203 308h60l-66 -309h35l-10 -48h-35zM563 349l-139 -214h91z" />
    <glyph glyph-name="onehalf" unicode="&#xbd;" horiz-adv-x="654" 
d="M166 0h-55l421 700h55zM194 256h-56l77 357q-34 -10 -76 -11l2 40q72 2 109 58h38zM558 0h-199l12 57q11 50 36 85t76 74q48 37 69.5 64t28.5 61q3 12 3 22q0 42 -44 42q-45 0 -55 -52l-9 -42h-52l10 44q22 99 108 99q47 0 72 -22.5t25 -62.5q0 -18 -4 -33
q-17 -78 -118 -154q-45 -34 -64 -58.5t-26 -56.5l-4 -18h145z" />
    <glyph glyph-name="threequarters" unicode="&#xbe;" horiz-adv-x="654" 
d="M154 246q-48 0 -73 22t-25 62q0 21 4 36l5 25h52l-7 -34q-3 -11 -3 -20q0 -42 46 -42q44 0 55 57l11 51q3 15 3 25q0 36 -41 36h-29l11 48h26q52 0 66 62l5 20q3 14 3 25q0 42 -47 42q-42 0 -53 -51l-7 -32h-51l7 33q20 99 107 99q99 0 99 -84q0 -13 -4 -34l-3 -15
q-15 -76 -72 -89v-2q36 -15 36 -63q0 -15 -3 -30l-10 -48q-20 -99 -108 -99zM166 0h-55l421 700h55zM541 0h-55l18 87h-141l9 49l203 308h60l-66 -309h35l-10 -48h-35zM563 349l-139 -214h91z" />
    <glyph glyph-name="questiondown" unicode="&#xbf;" horiz-adv-x="362" 
d="M270 403h-79l21 100h79zM108 -207q-71 0 -111 34.5t-40 97.5q0 25 6 54q19 89 114 177q46 43 67 73t28 64l7 35h68l-9 -44q-15 -76 -97 -158q-47 -49 -69.5 -84t-31.5 -77q-4 -15 -4 -32q0 -69 77 -69q68 0 87 88l16 72h74l-15 -75q-15 -75 -58 -115.5t-109 -40.5z" />
    <glyph glyph-name="Agrave" unicode="&#xc0;" horiz-adv-x="402" 
d="M311 880l43 -128h-58l-69 128h84zM40 0h-77l279 700h108l-19 -700h-79l5 149h-160zM274 606l-150 -389h136z" />
    <glyph glyph-name="Aacute" unicode="&#xc1;" horiz-adv-x="402" 
d="M354 880h91l-124 -128h-65zM40 0h-77l279 700h108l-19 -700h-79l5 149h-160zM274 606l-150 -389h136z" />
    <glyph glyph-name="Acircumflex" unicode="&#xc2;" horiz-adv-x="402" 
d="M294 880h79l50 -128h-58l-37 84l-74 -84h-65zM40 0h-77l279 700h108l-19 -700h-79l5 149h-160zM274 606l-150 -389h136z" />
    <glyph glyph-name="Atilde" unicode="&#xc3;" horiz-adv-x="402" 
d="M410 870l39 -29q-44 -71 -86 -71q-26 0 -54 23q-14 13 -26 13q-28 0 -50 -43l-39 29q44 71 87 71q27 0 53 -23q16 -13 27 -13q25 0 49 43zM40 0h-77l279 700h108l-19 -700h-79l5 149h-160zM274 606l-150 -389h136z" />
    <glyph glyph-name="Adieresis" unicode="&#xc4;" horiz-adv-x="402" 
d="M234 870h70l-23 -108h-70zM337 762l23 108h70l-23 -108h-70zM40 0h-77l279 700h108l-19 -700h-79l5 149h-160zM274 606l-150 -389h136z" />
    <glyph glyph-name="Aring" unicode="&#xc5;" horiz-adv-x="402" 
d="M330 910q33 0 53.5 -20t20.5 -50q0 -37 -26 -62.5t-62 -25.5q-32 0 -53 20t-21 50q0 37 26 62.5t62 25.5zM319 794q17 0 29 12t12 30q0 14 -9 23.5t-24 9.5q-16 0 -28 -12.5t-12 -30.5q0 -14 9 -23t23 -9zM40 0h-77l279 700h108l-19 -700h-79l5 149h-160zM274 606
l-150 -389h136z" />
    <glyph glyph-name="AE" unicode="&#xc6;" horiz-adv-x="583" 
d="M658 700l-16 -71h-206l-48 -228h167l-15 -71h-167l-56 -259h207l-15 -71h-287l32 149h-138l-77 -149h-78l366 700h331zM151 217h117l82 384z" />
    <glyph glyph-name="Ccedilla" unicode="&#xc7;" horiz-adv-x="382" 
d="M270 710q72 0 111 -34t39 -97q0 -24 -6 -51l-12 -57h-76l16 69q3 15 3 29q0 34 -20 52t-55 18q-69 0 -87 -82l-85 -397q-4 -13 -4 -30q0 -33 19.5 -51t55.5 -18q71 0 88 81l22 108h75l-23 -111q-32 -149 -166 -149h-4l-9 -34q59 0 59 -44q0 -38 -24.5 -52.5t-75.5 -14.5
q-81 0 -81 49q0 2 2 18h56q-3 -8 -3 -14q0 -18 30 -18q19 0 30 9.5t11 25.5q0 19 -32 19h-12l12 59q-109 19 -109 129q0 23 6 50l83 389q16 71 59 110t107 39z" />
    <glyph glyph-name="Egrave" unicode="&#xc8;" horiz-adv-x="356" 
d="M345 752h-58l-69 128h84zM281 0h-287l149 700h287l-15 -71h-207l-49 -228h168l-15 -71h-168l-55 -259h207z" />
    <glyph glyph-name="Eacute" unicode="&#xc9;" horiz-adv-x="356" 
d="M311 752h-65l98 128h91zM281 0h-287l149 700h287l-15 -71h-207l-49 -228h168l-15 -71h-168l-55 -259h207z" />
    <glyph glyph-name="Ecircumflex" unicode="&#xca;" horiz-adv-x="356" 
d="M245 752h-65l105 128h79l50 -128h-58l-37 84zM281 0h-287l149 700h287l-15 -71h-207l-49 -228h168l-15 -71h-168l-55 -259h207z" />
    <glyph glyph-name="Edieresis" unicode="&#xcb;" horiz-adv-x="356" 
d="M272 762h-70l23 108h70zM398 762h-70l23 108h70zM281 0h-287l149 700h287l-15 -71h-207l-49 -228h168l-15 -71h-168l-55 -259h207z" />
    <glyph glyph-name="Igrave" unicode="&#xcc;" horiz-adv-x="175" 
d="M240 752h-58l-69 128h84zM74 0h-80l149 700h80z" />
    <glyph glyph-name="Iacute" unicode="&#xcd;" horiz-adv-x="175" 
d="M207 752h-65l98 128h91zM74 0h-80l149 700h80z" />
    <glyph glyph-name="Icircumflex" unicode="&#xce;" horiz-adv-x="175" 
d="M140 752h-65l105 128h79l50 -128h-58l-37 84zM74 0h-80l149 700h80z" />
    <glyph glyph-name="Idieresis" unicode="&#xcf;" horiz-adv-x="175" 
d="M167 762h-70l23 108h70zM293 762h-70l23 108h70zM74 0h-80l149 700h80z" />
    <glyph glyph-name="Eth" unicode="&#xd0;" horiz-adv-x="422" 
d="M158 700h154q136 0 136 -119q0 -22 -7 -54l-76 -360q-18 -87 -62 -127t-124 -40h-170l71 332h-48l14 67h48zM285 170l78 367q5 28 5 38q0 29 -15.5 41.5t-48.5 12.5h-82l-49 -230h74l-14 -67h-74l-55 -261h76q82 0 105 99z" />
    <glyph glyph-name="Ntilde" unicode="&#xd1;" horiz-adv-x="425" 
d="M245 763l-39 29q44 71 87 71q27 0 53 -23q16 -13 27 -13q25 0 49 43l39 -29q-44 -71 -86 -71q-26 0 -54 23q-14 13 -26 13q-28 0 -50 -43zM67 0h-73l149 700h98l52 -500l107 500h73l-149 -700h-79l-57 569z" />
    <glyph glyph-name="Ograve" unicode="&#xd2;" 
d="M354 752h-58l-69 128h84zM170 -10q-73 0 -114 35.5t-41 101.5q0 24 6 51l80 377q33 155 170 155q73 0 114 -35.5t41 -100.5q0 -25 -6 -52l-80 -378q-31 -154 -170 -154zM175 61q68 0 86 87l82 387q4 15 4 33q0 71 -79 71q-70 0 -88 -87l-82 -387q-4 -15 -4 -32
q0 -72 81 -72z" />
    <glyph glyph-name="Oacute" unicode="&#xd3;" 
d="M321 752h-65l98 128h91zM170 -10q-73 0 -114 35.5t-41 101.5q0 24 6 51l80 377q33 155 170 155q73 0 114 -35.5t41 -100.5q0 -25 -6 -52l-80 -378q-31 -154 -170 -154zM175 61q68 0 86 87l82 387q4 15 4 33q0 71 -79 71q-70 0 -88 -87l-82 -387q-4 -15 -4 -32
q0 -72 81 -72z" />
    <glyph glyph-name="Ocircumflex" unicode="&#xd4;" 
d="M254 752h-65l105 128h79l50 -128h-58l-37 84zM170 -10q-73 0 -114 35.5t-41 101.5q0 24 6 51l80 377q33 155 170 155q73 0 114 -35.5t41 -100.5q0 -25 -6 -52l-80 -378q-31 -154 -170 -154zM175 61q68 0 86 87l82 387q4 15 4 33q0 71 -79 71q-70 0 -88 -87l-82 -387
q-4 -15 -4 -32q0 -72 81 -72z" />
    <glyph glyph-name="Otilde" unicode="&#xd5;" 
d="M233 763l-39 29q44 71 87 71q27 0 53 -23q16 -13 27 -13q25 0 49 43l39 -29q-44 -71 -86 -71q-26 0 -54 23q-14 13 -26 13q-28 0 -50 -43zM170 -10q-73 0 -114 35.5t-41 101.5q0 24 6 51l80 377q33 155 170 155q73 0 114 -35.5t41 -100.5q0 -25 -6 -52l-80 -378
q-31 -154 -170 -154zM175 61q68 0 86 87l82 387q4 15 4 33q0 71 -79 71q-70 0 -88 -87l-82 -387q-4 -15 -4 -32q0 -72 81 -72z" />
    <glyph glyph-name="Odieresis" unicode="&#xd6;" 
d="M281 762h-70l23 108h70zM407 762h-70l23 108h70zM170 -10q-73 0 -114 35.5t-41 101.5q0 24 6 51l80 377q33 155 170 155q73 0 114 -35.5t41 -100.5q0 -25 -6 -52l-80 -378q-31 -154 -170 -154zM175 61q68 0 86 87l82 387q4 15 4 33q0 71 -79 71q-70 0 -88 -87l-82 -387
q-4 -15 -4 -32q0 -72 81 -72z" />
    <glyph glyph-name="multiply" unicode="&#xd7;" 
d="M212 260l-115 -117l-40 41l114 116l-114 116l41 41l114 -116l114 117l40 -41l-114 -117l114 -116l-40 -41z" />
    <glyph glyph-name="Oslash" unicode="&#xd8;" 
d="M425 729l38 -25l-46 -76q9 -24 9 -54q0 -25 -6 -52l-80 -378q-31 -154 -170 -154q-76 0 -117 38l-35 -57l-39 25l46 75q-10 21 -10 56q0 24 6 51l80 377q33 155 170 155q79 0 119 -39zM180 552l-73 -346l236 389q-14 44 -75 44q-70 0 -88 -87zM261 148l73 343l-236 -387
q15 -43 77 -43q68 0 86 87z" />
    <glyph glyph-name="Ugrave" unicode="&#xd9;" horiz-adv-x="403" 
d="M355 752h-58l-69 128h84zM172 -10q-72 0 -112.5 34.5t-40.5 99.5q0 26 6 54l111 522h80l-115 -536q-4 -21 -4 -32q0 -71 80 -71q66 0 86 86l118 553h77l-119 -555q-33 -155 -167 -155z" />
    <glyph glyph-name="Uacute" unicode="&#xda;" horiz-adv-x="403" 
d="M322 752h-65l98 128h91zM172 -10q-72 0 -112.5 34.5t-40.5 99.5q0 26 6 54l111 522h80l-115 -536q-4 -21 -4 -32q0 -71 80 -71q66 0 86 86l118 553h77l-119 -555q-33 -155 -167 -155z" />
    <glyph glyph-name="Ucircumflex" unicode="&#xdb;" horiz-adv-x="403" 
d="M255 752h-65l105 128h79l50 -128h-58l-37 84zM172 -10q-72 0 -112.5 34.5t-40.5 99.5q0 26 6 54l111 522h80l-115 -536q-4 -21 -4 -32q0 -71 80 -71q66 0 86 86l118 553h77l-119 -555q-33 -155 -167 -155z" />
    <glyph glyph-name="Udieresis" unicode="&#xdc;" horiz-adv-x="403" 
d="M282 762h-70l23 108h70zM408 762h-70l23 108h70zM172 -10q-72 0 -112.5 34.5t-40.5 99.5q0 26 6 54l111 522h80l-115 -536q-4 -21 -4 -32q0 -71 80 -71q66 0 86 86l118 553h77l-119 -555q-33 -155 -167 -155z" />
    <glyph glyph-name="Yacute" unicode="&#xdd;" horiz-adv-x="393" 
d="M315 752h-65l98 128h91zM182 0h-80l66 307l-57 393h80l36 -292l164 292h82l-225 -393z" />
    <glyph glyph-name="Thorn" unicode="&#xde;" horiz-adv-x="385" 
d="M74 0h-80l149 700h80l-22 -105l72 -1q131 0 131 -117q0 -28 -7 -55l-13 -61q-18 -87 -63 -126.5t-128 -39.5h-78zM185 523l-54 -257h70q44 0 68.5 22.5t35.5 74.5l14 69q5 25 5 36q0 55 -63 55h-76z" />
    <glyph glyph-name="germandbls" unicode="&#xdf;" horiz-adv-x="393" 
d="M201 -11q-41 0 -73 17l14 65q23 -14 53 -14q36 0 58 26t22 63q0 28 -32 65q-44 50 -44 102q0 33 11 63q10 28 20 42t34 42l29 37q29 39 29 92q0 54 -59 54q-57 0 -74 -75l-120 -568h-77l121 572q29 138 152 138q61 0 97.5 -30t36.5 -86q0 -39 -12 -72q-12 -32 -24 -48
q-10 -15 -33 -40q-6 -6 -27 -31q-26 -35 -26 -77q0 -38 36 -78q39 -46 39 -90q0 -70 -42 -120q-42 -49 -109 -49z" />
    <glyph glyph-name="agrave" unicode="&#xe0;" horiz-adv-x="367" 
d="M250 693l43 -128h-58l-69 128h84zM215 513q65 0 100 -29t35 -86q0 -22 -6 -51l-46 -222q-18 -81 -16 -125h-72q-2 19 5 56q-41 -66 -116 -66q-48 0 -77 29.5t-29 77.5q0 71 40 113.5t123 69.5q62 20 84 32q20 11 26 31l5 24q3 13 3 25q0 56 -62 56q-63 0 -76 -70l-4 -22
h-73l6 26q14 63 53 97t97 34zM131 56q69 0 94 87l25 120q-14 -14 -83 -39q-94 -31 -94 -113q0 -55 58 -55z" />
    <glyph glyph-name="aacute" unicode="&#xe1;" horiz-adv-x="367" 
d="M293 693h91l-124 -128h-65zM215 513q65 0 100 -29t35 -86q0 -22 -6 -51l-46 -222q-18 -81 -16 -125h-72q-2 19 5 56q-41 -66 -116 -66q-48 0 -77 29.5t-29 77.5q0 71 40 113.5t123 69.5q62 20 84 32q20 11 26 31l5 24q3 13 3 25q0 56 -62 56q-63 0 -76 -70l-4 -22h-73
l6 26q14 63 53 97t97 34zM131 56q69 0 94 87l25 120q-14 -14 -83 -39q-94 -31 -94 -113q0 -55 58 -55z" />
    <glyph glyph-name="acircumflex" unicode="&#xe2;" horiz-adv-x="367" 
d="M304 565l-37 84l-74 -84h-65l105 128h79l50 -128h-58zM215 513q65 0 100 -29t35 -86q0 -22 -6 -51l-46 -222q-18 -81 -16 -125h-72q-2 19 5 56q-41 -66 -116 -66q-48 0 -77 29.5t-29 77.5q0 71 40 113.5t123 69.5q62 20 84 32q20 11 26 31l5 24q3 13 3 25q0 56 -62 56
q-63 0 -76 -70l-4 -22h-73l6 26q14 63 53 97t97 34zM131 56q69 0 94 87l25 120q-14 -14 -83 -39q-94 -31 -94 -113q0 -55 58 -55z" />
    <glyph glyph-name="atilde" unicode="&#xe3;" horiz-adv-x="367" 
d="M349 683l39 -29q-44 -71 -86 -71q-26 0 -54 23q-14 13 -26 13q-28 0 -50 -43l-39 29q44 71 87 71q27 0 53 -23q16 -13 27 -13q25 0 49 43zM215 513q65 0 100 -29t35 -86q0 -22 -6 -51l-46 -222q-18 -81 -16 -125h-72q-2 19 5 56q-41 -66 -116 -66q-48 0 -77 29.5
t-29 77.5q0 71 40 113.5t123 69.5q62 20 84 32q20 11 26 31l5 24q3 13 3 25q0 56 -62 56q-63 0 -76 -70l-4 -22h-73l6 26q14 63 53 97t97 34zM131 56q69 0 94 87l25 120q-14 -14 -83 -39q-94 -31 -94 -113q0 -55 58 -55z" />
    <glyph glyph-name="adieresis" unicode="&#xe4;" horiz-adv-x="367" 
d="M173 683h70l-23 -108h-70zM299 683h70l-23 -108h-70zM215 513q65 0 100 -29t35 -86q0 -22 -6 -51l-46 -222q-18 -81 -16 -125h-72q-2 19 5 56q-41 -66 -116 -66q-48 0 -77 29.5t-29 77.5q0 71 40 113.5t123 69.5q62 20 84 32q20 11 26 31l5 24q3 13 3 25q0 56 -62 56
q-63 0 -76 -70l-4 -22h-73l6 26q14 63 53 97t97 34zM131 56q69 0 94 87l25 120q-14 -14 -83 -39q-94 -31 -94 -113q0 -55 58 -55z" />
    <glyph glyph-name="aring" unicode="&#xe5;" horiz-adv-x="367" 
d="M255 565q-32 0 -53 20t-21 50q0 37 26 62.5t62 25.5q33 0 53.5 -20t20.5 -50q0 -37 -26 -62.5t-62 -25.5zM266 682q-16 0 -28 -12.5t-12 -30.5q0 -14 9 -23t23 -9q18 0 29.5 11.5t11.5 30.5q0 14 -9 23.5t-24 9.5zM215 513q65 0 100 -29t35 -86q0 -22 -6 -51l-46 -222
q-18 -81 -16 -125h-72q-2 19 5 56q-41 -66 -116 -66q-48 0 -77 29.5t-29 77.5q0 71 40 113.5t123 69.5q62 20 84 32q20 11 26 31l5 24q3 13 3 25q0 56 -62 56q-63 0 -76 -70l-4 -22h-73l6 26q14 63 53 97t97 34zM131 56q69 0 94 87l25 120q-14 -14 -83 -39q-94 -31 -94 -113
q0 -55 58 -55z" />
    <glyph glyph-name="ae" unicode="&#xe6;" horiz-adv-x="578" 
d="M437 513q63 0 99 -33t36 -93q0 -24 -6 -51l-21 -96h-225l-18 -85q-4 -15 -4 -34q0 -64 70 -64q64 0 82 82l4 22h74l-4 -22q-15 -72 -56 -110.5t-103 -38.5q-113 0 -138 85q-42 -85 -127 -85q-50 0 -79 29.5t-29 78.5q0 70 40 113.5t123 68.5q69 23 87 34q21 13 25 37v-5
l4 21q3 13 3 25q0 56 -62 56q-63 0 -76 -70l-5 -22h-73l6 26q14 63 53 97t97 34q88 0 109 -64q40 64 114 64zM483 302l10 49q4 15 4 31q0 64 -70 64q-63 0 -80 -80l-12 -56l-2 -8h150zM130 56q36 0 60.5 26t34.5 74l3 14l20 92q-16 -15 -82 -38q-94 -31 -94 -112
q0 -56 58 -56z" />
    <glyph glyph-name="ccedilla" unicode="&#xe7;" horiz-adv-x="359" 
d="M217 513q66 0 102.5 -31t36.5 -90q0 -24 -6 -53l-2 -8h-74l5 23q4 15 4 33q0 59 -66 59q-61 0 -78 -77l-47 -220q-4 -15 -4 -33q0 -59 66 -59q61 0 78 77l6 27h73l-5 -27q-30 -144 -153 -144h-5l-9 -34q59 0 59 -44q0 -38 -24.5 -52.5t-75.5 -14.5q-81 0 -81 49q0 2 2 18
h56q-3 -8 -3 -14q0 -18 30 -18q19 0 30 9.5t11 25.5q0 19 -32 19h-12l13 59q-101 20 -101 120q0 24 6 51l44 206q15 69 55 106t101 37z" />
    <glyph glyph-name="egrave" unicode="&#xe8;" horiz-adv-x="370" 
d="M257 693l43 -128h-58l-69 128h84zM218 513q69 0 106.5 -33t37.5 -93q0 -24 -6 -51l-20 -96h-226l-18 -85q-4 -23 -4 -34q0 -64 71 -64q63 0 81 82l5 22h74l-5 -22q-15 -72 -55.5 -110.5t-102.5 -38.5q-69 0 -106.5 33.5t-37.5 93.5q0 25 6 53l42 197q31 146 158 146z
M137 366l-14 -64h151l10 49q4 21 4 31q0 64 -71 64q-63 0 -80 -80z" />
    <glyph glyph-name="eacute" unicode="&#xe9;" horiz-adv-x="370" 
d="M300 693h91l-124 -128h-65zM218 513q69 0 106.5 -33t37.5 -93q0 -24 -6 -51l-20 -96h-226l-18 -85q-4 -23 -4 -34q0 -64 71 -64q63 0 81 82l5 22h74l-5 -22q-15 -72 -55.5 -110.5t-102.5 -38.5q-69 0 -106.5 33.5t-37.5 93.5q0 25 6 53l42 197q31 146 158 146zM137 366
l-14 -64h151l10 49q4 21 4 31q0 64 -71 64q-63 0 -80 -80z" />
    <glyph glyph-name="ecircumflex" unicode="&#xea;" horiz-adv-x="370" 
d="M311 565l-37 84l-74 -84h-65l105 128h79l50 -128h-58zM218 513q69 0 106.5 -33t37.5 -93q0 -24 -6 -51l-20 -96h-226l-18 -85q-4 -23 -4 -34q0 -64 71 -64q63 0 81 82l5 22h74l-5 -22q-15 -72 -55.5 -110.5t-102.5 -38.5q-69 0 -106.5 33.5t-37.5 93.5q0 25 6 53l42 197
q31 146 158 146zM137 366l-14 -64h151l10 49q4 21 4 31q0 64 -71 64q-63 0 -80 -80z" />
    <glyph glyph-name="edieresis" unicode="&#xeb;" horiz-adv-x="370" 
d="M180 683h70l-23 -108h-70zM306 683h70l-23 -108h-70zM218 513q69 0 106.5 -33t37.5 -93q0 -24 -6 -51l-20 -96h-226l-18 -85q-4 -23 -4 -34q0 -64 71 -64q63 0 81 82l5 22h74l-5 -22q-15 -72 -55.5 -110.5t-102.5 -38.5q-69 0 -106.5 33.5t-37.5 93.5q0 25 6 53l42 197
q31 146 158 146zM137 366l-14 -64h151l10 49q4 21 4 31q0 64 -71 64q-63 0 -80 -80z" />
    <glyph glyph-name="igrave" unicode="&#xec;" horiz-adv-x="172" 
d="M200 565h-58l-69 128h84zM71 0h-77l107 503h77z" />
    <glyph glyph-name="iacute" unicode="&#xed;" horiz-adv-x="172" 
d="M167 565h-65l98 128h91zM71 0h-77l107 503h77z" />
    <glyph glyph-name="icircumflex" unicode="&#xee;" horiz-adv-x="172" 
d="M100 565h-65l105 128h79l50 -128h-58l-37 84zM71 0h-77l107 503h77z" />
    <glyph glyph-name="idieresis" unicode="&#xef;" horiz-adv-x="172" 
d="M127 575h-70l23 108h70zM253 575h-70l23 108h70zM71 0h-77l107 503h77z" />
    <glyph glyph-name="eth" unicode="&#xf0;" horiz-adv-x="374" 
d="M363 700h70l-104 -83q38 -65 38 -161q0 -63 -16 -134l-39 -186q-31 -146 -159 -146q-66 0 -104 33.5t-38 93.5q0 23 6 50l39 179q28 132 130 132q81 0 105 -68q4 19 4 49q0 59 -23 113l-70 -56h-69l118 95q-31 48 -88 89h91q28 -19 51 -47zM235 137l36 171q1 5 1 21
q0 38 -18.5 59t-51.5 21q-55 0 -72 -77l-39 -180q-4 -15 -4 -32q0 -63 68 -63q62 0 80 80z" />
    <glyph glyph-name="ntilde" unicode="&#xf1;" horiz-adv-x="385" 
d="M236 619q-28 0 -50 -43l-39 29q44 71 87 71q27 0 53 -23q16 -13 27 -13q25 0 49 43l39 -29q-44 -71 -86 -71q-26 0 -54 23q-14 13 -26 13zM267 513q49 0 77 -26t28 -76q0 -27 -7 -54l-76 -357h-77l75 352q5 25 5 37q0 57 -56 57q-34 0 -58.5 -26t-34.5 -74l-74 -346h-77
l107 503h65l-11 -57q43 67 114 67z" />
    <glyph glyph-name="ograve" unicode="&#xf2;" horiz-adv-x="371" 
d="M300 565h-58l-69 128h84zM153 -10q-66 0 -104 33.5t-38 93.5q0 23 6 50l43 201q31 145 158 145q66 0 104 -33.5t38 -93.5q0 -26 -5 -49l-44 -201q-31 -146 -158 -146zM155 57q62 0 80 80l46 214q4 15 4 32q0 63 -69 63q-62 0 -79 -80l-47 -214q-4 -20 -4 -32
q0 -63 69 -63z" />
    <glyph glyph-name="oacute" unicode="&#xf3;" horiz-adv-x="371" 
d="M267 565h-65l98 128h91zM153 -10q-66 0 -104 33.5t-38 93.5q0 23 6 50l43 201q31 145 158 145q66 0 104 -33.5t38 -93.5q0 -26 -5 -49l-44 -201q-31 -146 -158 -146zM155 57q62 0 80 80l46 214q4 15 4 32q0 63 -69 63q-62 0 -79 -80l-47 -214q-4 -20 -4 -32q0 -63 69 -63
z" />
    <glyph glyph-name="ocircumflex" unicode="&#xf4;" horiz-adv-x="371" 
d="M200 565h-65l105 128h79l50 -128h-58l-37 84zM153 -10q-66 0 -104 33.5t-38 93.5q0 23 6 50l43 201q31 145 158 145q66 0 104 -33.5t38 -93.5q0 -26 -5 -49l-44 -201q-31 -146 -158 -146zM155 57q62 0 80 80l46 214q4 15 4 32q0 63 -69 63q-62 0 -79 -80l-47 -214
q-4 -20 -4 -32q0 -63 69 -63z" />
    <glyph glyph-name="otilde" unicode="&#xf5;" horiz-adv-x="371" 
d="M179 576l-39 29q44 71 87 71q27 0 53 -23q16 -13 27 -13q25 0 49 43l39 -29q-44 -71 -86 -71q-26 0 -54 23q-14 13 -26 13q-28 0 -50 -43zM153 -10q-66 0 -104 33.5t-38 93.5q0 23 6 50l43 201q31 145 158 145q66 0 104 -33.5t38 -93.5q0 -26 -5 -49l-44 -201
q-31 -146 -158 -146zM155 57q62 0 80 80l46 214q4 15 4 32q0 63 -69 63q-62 0 -79 -80l-47 -214q-4 -20 -4 -32q0 -63 69 -63z" />
    <glyph glyph-name="odieresis" unicode="&#xf6;" horiz-adv-x="371" 
d="M227 575h-70l23 108h70zM353 575h-70l23 108h70zM153 -10q-66 0 -104 33.5t-38 93.5q0 23 6 50l43 201q31 145 158 145q66 0 104 -33.5t38 -93.5q0 -26 -5 -49l-44 -201q-31 -146 -158 -146zM155 57q62 0 80 80l46 214q4 15 4 32q0 63 -69 63q-62 0 -79 -80l-47 -214
q-4 -20 -4 -32q0 -63 69 -63z" />
    <glyph glyph-name="divide" unicode="&#xf7;" 
d="M249 396h-80v98h80v-98zM379 270h-340v60h340v-60zM249 106h-80v99h80v-99z" />
    <glyph glyph-name="oslash" unicode="&#xf8;" horiz-adv-x="371" 
d="M354 535l33 -25l-41 -60q14 -30 14 -64q0 -26 -5 -49l-44 -201q-31 -146 -158 -146q-63 0 -99 30l-35 -51l-34 25l41 59q-15 27 -15 64q0 23 6 50l43 201q31 145 158 145q64 0 100 -30zM137 366l-47 -214v-3l-1 -3l187 274q-17 26 -60 26q-62 0 -79 -80zM235 137l46 214
q0 1 0.5 3l0.5 2l-186 -274q16 -25 59 -25q62 0 80 80z" />
    <glyph glyph-name="ugrave" unicode="&#xf9;" horiz-adv-x="385" 
d="M262 693l43 -128h-58l-69 128h84zM242 157l74 346h77l-107 -503h-65l11 57q-43 -67 -114 -67q-49 0 -77 26t-28 76q0 28 7 55l76 356h77l-75 -352q-5 -25 -5 -37q0 -57 56 -57q33 0 58 26.5t35 73.5z" />
    <glyph glyph-name="uacute" unicode="&#xfa;" horiz-adv-x="385" 
d="M305 693h91l-124 -128h-65zM242 157l74 346h77l-107 -503h-65l11 57q-43 -67 -114 -67q-49 0 -77 26t-28 76q0 28 7 55l76 356h77l-75 -352q-5 -25 -5 -37q0 -57 56 -57q33 0 58 26.5t35 73.5z" />
    <glyph glyph-name="ucircumflex" unicode="&#xfb;" horiz-adv-x="385" 
d="M316 565l-37 84l-74 -84h-65l105 128h79l50 -128h-58zM242 157l74 346h77l-107 -503h-65l11 57q-43 -67 -114 -67q-49 0 -77 26t-28 76q0 28 7 55l76 356h77l-75 -352q-5 -25 -5 -37q0 -57 56 -57q33 0 58 26.5t35 73.5z" />
    <glyph glyph-name="udieresis" unicode="&#xfc;" horiz-adv-x="385" 
d="M185 683h70l-23 -108h-70zM311 683h70l-23 -108h-70zM242 157l74 346h77l-107 -503h-65l11 57q-43 -67 -114 -67q-49 0 -77 26t-28 76q0 28 7 55l76 356h77l-75 -352q-5 -25 -5 -37q0 -57 56 -57q33 0 58 26.5t35 73.5z" />
    <glyph glyph-name="yacute" unicode="&#xfd;" horiz-adv-x="362" 
d="M258 565h-65l98 128h91zM323 503h75l-261 -575q-24 -49 -51.5 -71t-69.5 -22q-47 0 -70 17l14 63q20 -13 50 -13q20 0 32.5 10t23.5 34l26 55l-22 502h75l10 -381z" />
    <glyph glyph-name="thorn" unicode="&#xfe;" horiz-adv-x="384" 
d="M268 513q51 0 79 -27t28 -77q0 -23 -6 -52l-50 -235q-29 -132 -130 -132q-81 0 -106 69l-46 -214h-78l183 855h77l-50 -234q42 47 99 47zM245 134l47 223q4 21 4 33q0 56 -58 56q-66 0 -91 -84l-42 -199q-2 -14 -2 -26q0 -38 18.5 -59t51.5 -21q55 0 72 77z" />
    <glyph glyph-name="ydieresis" unicode="&#xff;" horiz-adv-x="362" 
d="M218 575h-70l23 108h70zM344 575h-70l23 108h70zM323 503h75l-261 -575q-24 -49 -51.5 -71t-69.5 -22q-47 0 -70 17l14 63q20 -13 50 -13q20 0 32.5 10t23.5 34l26 55l-22 502h75l10 -381z" />
    <glyph glyph-name="Amacron" unicode="&#x100;" horiz-adv-x="402" 
d="M208 787l13 59h212l-13 -59h-212zM40 0h-77l279 700h108l-19 -700h-79l5 149h-160zM274 606l-150 -389h136z" />
    <glyph glyph-name="amacron" unicode="&#x101;" horiz-adv-x="367" 
d="M147 600l13 59h212l-13 -59h-212zM215 513q65 0 100 -29t35 -86q0 -22 -6 -51l-46 -222q-18 -81 -16 -125h-72q-2 19 5 56q-41 -66 -116 -66q-48 0 -77 29.5t-29 77.5q0 71 40 113.5t123 69.5q62 20 84 32q20 11 26 31l5 24q3 13 3 25q0 56 -62 56q-63 0 -76 -70l-4 -22
h-73l6 26q14 63 53 97t97 34zM131 56q69 0 94 87l25 120q-14 -14 -83 -39q-94 -31 -94 -113q0 -55 58 -55z" />
    <glyph glyph-name="Abreve" unicode="&#x102;" horiz-adv-x="402" 
d="M390 869h47q-21 -106 -120 -106q-44 0 -67.5 21.5t-23.5 61.5q0 1 2 23h47q-1 -3 -1 -11q0 -42 45 -42q53 0 71 53zM40 0h-77l279 700h108l-19 -700h-79l5 149h-160zM274 606l-150 -389h136z" />
    <glyph glyph-name="abreve" unicode="&#x103;" horiz-adv-x="367" 
d="M256 576q-44 0 -67.5 21.5t-23.5 61.5q0 1 2 23h47q-1 -3 -1 -11q0 -42 45 -42q53 0 71 53h47q-21 -106 -120 -106zM215 513q65 0 100 -29t35 -86q0 -22 -6 -51l-46 -222q-18 -81 -16 -125h-72q-2 19 5 56q-41 -66 -116 -66q-48 0 -77 29.5t-29 77.5q0 71 40 113.5
t123 69.5q62 20 84 32q20 11 26 31l5 24q3 13 3 25q0 56 -62 56q-63 0 -76 -70l-4 -22h-73l6 26q14 63 53 97t97 34zM131 56q69 0 94 87l25 120q-14 -14 -83 -39q-94 -31 -94 -113q0 -55 58 -55z" />
    <glyph glyph-name="Aogonek" unicode="&#x104;" horiz-adv-x="402" 
d="M331 0h-23q-68 -39 -68 -85q0 -23 32 -23q24 0 43 10l-5 -47q-21 -10 -56 -10q-76 0 -76 56q0 62 76 99h-2l5 149h-160l-57 -149h-77l279 700h108zM274 606l-150 -389h136z" />
    <glyph glyph-name="aogonek" unicode="&#x105;" horiz-adv-x="367" 
d="M215 513q65 0 100 -29t35 -86q0 -22 -6 -51l-46 -222q-18 -81 -16 -125h-29q-66 -42 -66 -85q0 -23 32 -23q19 0 43 10l-5 -47q-23 -10 -56 -10q-77 0 -77 53q0 64 86 106q-1 7 5 52q-41 -66 -116 -66q-48 0 -77 29.5t-29 77.5q0 71 40 113.5t123 69.5q62 20 84 32
q20 11 26 31l5 24q3 13 3 25q0 56 -62 56q-63 0 -76 -70l-4 -22h-73l6 26q14 63 53 97t97 34zM131 56q69 0 94 87l25 120q-14 -14 -83 -39q-94 -31 -94 -113q0 -55 58 -55z" />
    <glyph glyph-name="Cacute" unicode="&#x106;" horiz-adv-x="382" 
d="M316 752h-65l98 128h91zM165 -10q-72 0 -111 34.5t-39 97.5q0 23 6 50l83 389q16 71 59 110t107 39q72 0 111 -34t39 -97q0 -24 -6 -51l-12 -57h-76l16 69q3 15 3 29q0 34 -20 52t-55 18q-69 0 -87 -82l-85 -397q-4 -13 -4 -30q0 -33 19.5 -51t55.5 -18q71 0 88 81
l22 108h75l-23 -111q-32 -149 -166 -149z" />
    <glyph glyph-name="cacute" unicode="&#x107;" horiz-adv-x="359" 
d="M264 565h-65l98 128h91zM153 -10q-68 0 -105 31.5t-37 91.5q0 24 6 51l44 206q15 69 55 106t101 37q66 0 102.5 -31t36.5 -90q0 -24 -6 -53l-2 -8h-74l5 23q4 15 4 33q0 59 -66 59q-61 0 -78 -77l-47 -220q-4 -15 -4 -33q0 -59 66 -59q61 0 78 77l6 27h73l-5 -27
q-30 -144 -153 -144z" />
    <glyph glyph-name="Ccircumflex" unicode="&#x108;" horiz-adv-x="382" 
d="M249 752h-65l105 128h79l50 -128h-58l-37 84zM165 -10q-72 0 -111 34.5t-39 97.5q0 23 6 50l83 389q16 71 59 110t107 39q72 0 111 -34t39 -97q0 -24 -6 -51l-12 -57h-76l16 69q3 15 3 29q0 34 -20 52t-55 18q-69 0 -87 -82l-85 -397q-4 -13 -4 -30q0 -33 19.5 -51
t55.5 -18q71 0 88 81l22 108h75l-23 -111q-32 -149 -166 -149z" />
    <glyph glyph-name="ccircumflex" unicode="&#x109;" horiz-adv-x="359" 
d="M197 565h-65l105 128h79l50 -128h-58l-37 84zM153 -10q-68 0 -105 31.5t-37 91.5q0 24 6 51l44 206q15 69 55 106t101 37q66 0 102.5 -31t36.5 -90q0 -24 -6 -53l-2 -8h-74l5 23q4 15 4 33q0 59 -66 59q-61 0 -78 -77l-47 -220q-4 -15 -4 -33q0 -59 66 -59q61 0 78 77
l6 27h73l-5 -27q-30 -144 -153 -144z" />
    <glyph glyph-name="Cdotaccent" unicode="&#x10a;" horiz-adv-x="382" 
d="M342 762h-75l22 108h76zM165 -10q-72 0 -111 34.5t-39 97.5q0 23 6 50l83 389q16 71 59 110t107 39q72 0 111 -34t39 -97q0 -24 -6 -51l-12 -57h-76l16 69q3 15 3 29q0 34 -20 52t-55 18q-69 0 -87 -82l-85 -397q-4 -13 -4 -30q0 -33 19.5 -51t55.5 -18q71 0 88 81
l22 108h75l-23 -111q-32 -149 -166 -149z" />
    <glyph glyph-name="cdotaccent" unicode="&#x10b;" horiz-adv-x="359" 
d="M290 575h-75l22 108h76zM153 -10q-68 0 -105 31.5t-37 91.5q0 24 6 51l44 206q15 69 55 106t101 37q66 0 102.5 -31t36.5 -90q0 -24 -6 -53l-2 -8h-74l5 23q4 15 4 33q0 59 -66 59q-61 0 -78 -77l-47 -220q-4 -15 -4 -33q0 -59 66 -59q61 0 78 77l6 27h73l-5 -27
q-30 -144 -153 -144z" />
    <glyph glyph-name="Ccaron" unicode="&#x10c;" horiz-adv-x="382" 
d="M342 752h-79l-50 128h58l36 -84l75 84h65zM165 -10q-72 0 -111 34.5t-39 97.5q0 23 6 50l83 389q16 71 59 110t107 39q72 0 111 -34t39 -97q0 -24 -6 -51l-12 -57h-76l16 69q3 15 3 29q0 34 -20 52t-55 18q-69 0 -87 -82l-85 -397q-4 -13 -4 -30q0 -33 19.5 -51t55.5 -18
q71 0 88 81l22 108h75l-23 -111q-32 -149 -166 -149z" />
    <glyph glyph-name="ccaron" unicode="&#x10d;" horiz-adv-x="359" 
d="M290 565h-79l-50 128h58l36 -84l75 84h65zM153 -10q-68 0 -105 31.5t-37 91.5q0 24 6 51l44 206q15 69 55 106t101 37q66 0 102.5 -31t36.5 -90q0 -24 -6 -53l-2 -8h-74l5 23q4 15 4 33q0 59 -66 59q-61 0 -78 -77l-47 -220q-4 -15 -4 -33q0 -59 66 -59q61 0 78 77l6 27
h73l-5 -27q-30 -144 -153 -144z" />
    <glyph glyph-name="Dcaron" unicode="&#x10e;" horiz-adv-x="408" 
d="M341 752h-79l-50 128h58l36 -84l75 84h65zM164 0h-170l149 700h154q136 0 136 -119q0 -24 -6 -54l-77 -360q-18 -87 -62 -127t-124 -40zM208 629l-119 -558h76q83 0 106 99l78 367q4 17 4 38q0 29 -15 41.5t-49 12.5h-81z" />
    <glyph glyph-name="dcaron" unicode="&#x10f;" horiz-adv-x="440" 
d="M358 700h77l-122 -575q-18 -81 -16 -125h-72q-2 16 5 59q-42 -69 -114 -69q-51 0 -79 27t-28 77q0 23 6 53l50 235q27 131 130 131q83 0 107 -71zM449 606l21 94h72l-18 -87l-58 -101h-34l44 94h-27zM146 57q33 0 57.5 24t36.5 70l40 187q0 6 0.5 12.5t1 10.5t0.5 6
q0 38 -19 58.5t-52 20.5q-56 0 -72 -76l-47 -224q-4 -21 -4 -33q0 -56 58 -56z" />
    <glyph glyph-name="Dcroat" unicode="&#x110;" horiz-adv-x="422" 
d="M158 700h154q136 0 136 -119q0 -22 -7 -54l-76 -360q-18 -87 -62 -127t-124 -40h-170l71 332h-48l14 67h48zM285 170l78 367q5 28 5 38q0 29 -15.5 41.5t-48.5 12.5h-82l-49 -230h74l-14 -67h-74l-55 -261h76q82 0 105 99z" />
    <glyph glyph-name="dslash" unicode="&#x111;" horiz-adv-x="384" 
d="M420 628h45l-14 -58h-44l-94 -445q-18 -81 -16 -125h-72q-2 16 5 59q-42 -69 -114 -69q-51 0 -79 27t-28 77q0 23 6 53l50 235q27 131 130 131q83 0 107 -71l28 128h-81l15 58h78l16 72h77zM146 57q33 0 57.5 24t36.5 70l40 187q0 6 0.5 12.5t1 10.5t0.5 6q0 38 -19 58.5
t-52 20.5q-56 0 -72 -76l-47 -224q-4 -21 -4 -33q0 -56 58 -56z" />
    <glyph glyph-name="Emacron" unicode="&#x112;" horiz-adv-x="356" 
d="M411 787h-212l13 59h212zM281 0h-287l149 700h287l-15 -71h-207l-49 -228h168l-15 -71h-168l-55 -259h207z" />
    <glyph glyph-name="emacron" unicode="&#x113;" horiz-adv-x="370" 
d="M154 600l13 59h212l-13 -59h-212zM218 513q69 0 106.5 -33t37.5 -93q0 -24 -6 -51l-20 -96h-226l-18 -85q-4 -23 -4 -34q0 -64 71 -64q63 0 81 82l5 22h74l-5 -22q-15 -72 -55.5 -110.5t-102.5 -38.5q-69 0 -106.5 33.5t-37.5 93.5q0 25 6 53l42 197q31 146 158 146z
M137 366l-14 -64h151l10 49q4 21 4 31q0 64 -71 64q-63 0 -80 -80z" />
    <glyph glyph-name="Ebreve" unicode="&#x114;" horiz-adv-x="356" 
d="M308 763q-44 0 -67.5 21.5t-23.5 61.5q0 1 2 23h47q-1 -3 -1 -11q0 -42 45 -42q53 0 71 53h47q-21 -106 -120 -106zM281 0h-287l149 700h287l-15 -71h-207l-49 -228h168l-15 -71h-168l-55 -259h207z" />
    <glyph glyph-name="ebreve" unicode="&#x115;" horiz-adv-x="370" 
d="M263 576q-44 0 -67.5 21.5t-23.5 61.5q0 1 2 23h47q-1 -3 -1 -11q0 -42 45 -42q53 0 71 53h47q-21 -106 -120 -106zM218 513q69 0 106.5 -33t37.5 -93q0 -24 -6 -51l-20 -96h-226l-18 -85q-4 -23 -4 -34q0 -64 71 -64q63 0 81 82l5 22h74l-5 -22q-15 -72 -55.5 -110.5
t-102.5 -38.5q-69 0 -106.5 33.5t-37.5 93.5q0 25 6 53l42 197q31 146 158 146zM137 366l-14 -64h151l10 49q4 21 4 31q0 64 -71 64q-63 0 -80 -80z" />
    <glyph glyph-name="Edotaccent" unicode="&#x116;" horiz-adv-x="356" 
d="M338 762h-75l22 108h76zM281 0h-287l149 700h287l-15 -71h-207l-49 -228h168l-15 -71h-168l-55 -259h207z" />
    <glyph glyph-name="edotaccent" unicode="&#x117;" horiz-adv-x="370" 
d="M240 683h76l-23 -108h-75zM218 513q69 0 106.5 -33t37.5 -93q0 -24 -6 -51l-20 -96h-226l-18 -85q-4 -23 -4 -34q0 -64 71 -64q63 0 81 82l5 22h74l-5 -22q-15 -72 -55.5 -110.5t-102.5 -38.5q-69 0 -106.5 33.5t-37.5 93.5q0 25 6 53l42 197q31 146 158 146zM137 366
l-14 -64h151l10 49q4 21 4 31q0 64 -71 64q-63 0 -80 -80z" />
    <glyph glyph-name="Eogonek" unicode="&#x118;" horiz-adv-x="356" 
d="M430 700l-15 -71h-207l-49 -228h168l-15 -71h-168l-55 -259h207l-15 -71h-35q-27 -16 -45 -39.5t-18 -44.5q0 -24 32 -24q19 0 43 10l-5 -47q-23 -10 -56 -10q-77 0 -77 56q0 59 75 99h-201l149 700h287z" />
    <glyph glyph-name="eogonek" unicode="&#x119;" horiz-adv-x="370" 
d="M218 513q69 0 106.5 -33t37.5 -93q0 -24 -6 -51l-20 -96h-226l-18 -85q-4 -23 -4 -34q0 -64 71 -64q63 0 81 82l5 22h74l-5 -22q-21 -101 -90 -134q-55 -46 -55 -90q0 -23 32 -23q19 0 43 10l-5 -47q-23 -10 -56 -10q-77 0 -77 53q0 52 55 92h-5q-69 0 -106.5 33.5
t-37.5 93.5q0 25 6 53l42 197q31 146 158 146zM137 366l-14 -64h151l10 49q4 21 4 31q0 64 -71 64q-63 0 -80 -80z" />
    <glyph glyph-name="Ecaron" unicode="&#x11a;" horiz-adv-x="356" 
d="M338 752h-79l-50 128h58l36 -84l75 84h65zM281 0h-287l149 700h287l-15 -71h-207l-49 -228h168l-15 -71h-168l-55 -259h207z" />
    <glyph glyph-name="ecaron" unicode="&#x11b;" horiz-adv-x="370" 
d="M398 693l-105 -128h-79l-50 128h58l36 -84l75 84h65zM218 513q69 0 106.5 -33t37.5 -93q0 -24 -6 -51l-20 -96h-226l-18 -85q-4 -23 -4 -34q0 -64 71 -64q63 0 81 82l5 22h74l-5 -22q-15 -72 -55.5 -110.5t-102.5 -38.5q-69 0 -106.5 33.5t-37.5 93.5q0 25 6 53l42 197
q31 146 158 146zM137 366l-14 -64h151l10 49q4 21 4 31q0 64 -71 64q-63 0 -80 -80z" />
    <glyph glyph-name="Gcircumflex" unicode="&#x11c;" horiz-adv-x="393" 
d="M250 752h-65l105 128h79l50 -128h-58l-37 84zM169 -10q-73 0 -113.5 34t-40.5 99q0 27 6 55l80 378q34 154 168 154q75 0 114 -34.5t39 -98.5q0 -25 -6 -54l-8 -42h-76l12 55q4 21 4 34q0 70 -78 70q-70 0 -89 -87l-84 -389q-4 -21 -4 -34q0 -69 78 -69q70 0 90 86
l36 167h-79l15 71h154l-51 -240q-32 -155 -167 -155z" />
    <glyph glyph-name="gcircumflex" unicode="&#x11d;" horiz-adv-x="382" 
d="M306 565l-37 84l-74 -84h-65l105 128h79l50 -128h-58zM306 425l18 78h66l-113 -535q-15 -67 -52.5 -100t-105.5 -33t-104.5 28.5t-36.5 81.5q0 1 0.5 4t1 8.5t0.5 10.5h73q-1 -3 -1 -14q0 -56 67 -56q35 0 54.5 17.5t27.5 56.5l20 97q-41 -50 -100 -50q-51 0 -79 26.5
t-28 77.5q0 23 6 53l44 206q29 131 130 131q45 0 74.5 -23t37.5 -65zM246 186l31 147q3 18 3 33q0 38 -18.5 59t-51.5 21q-55 0 -72 -77l-41 -196q-4 -15 -4 -33q0 -56 58 -56q33 0 58.5 27t36.5 75z" />
    <glyph glyph-name="Gbreve" unicode="&#x11e;" horiz-adv-x="393" 
d="M313 763q-44 0 -67.5 21.5t-23.5 61.5q0 1 2 23h47q-1 -3 -1 -11q0 -42 45 -42q53 0 71 53h47q-21 -106 -120 -106zM169 -10q-73 0 -113.5 34t-40.5 99q0 27 6 55l80 378q34 154 168 154q75 0 114 -34.5t39 -98.5q0 -25 -6 -54l-8 -42h-76l12 55q4 21 4 34q0 70 -78 70
q-70 0 -89 -87l-84 -389q-4 -21 -4 -34q0 -69 78 -69q70 0 90 86l36 167h-79l15 71h154l-51 -240q-32 -155 -167 -155z" />
    <glyph glyph-name="gbreve" unicode="&#x11f;" horiz-adv-x="382" 
d="M258 576q-44 0 -67.5 21.5t-23.5 61.5q0 1 2 23h47q-1 -3 -1 -11q0 -42 45 -42q53 0 71 53h47q-21 -106 -120 -106zM306 425l18 78h66l-113 -535q-15 -67 -52.5 -100t-105.5 -33t-104.5 28.5t-36.5 81.5q0 1 0.5 4t1 8.5t0.5 10.5h73q-1 -3 -1 -14q0 -56 67 -56
q35 0 54.5 17.5t27.5 56.5l20 97q-41 -50 -100 -50q-51 0 -79 26.5t-28 77.5q0 23 6 53l44 206q29 131 130 131q45 0 74.5 -23t37.5 -65zM246 186l31 147q3 18 3 33q0 38 -18.5 59t-51.5 21q-55 0 -72 -77l-41 -196q-4 -15 -4 -33q0 -56 58 -56q33 0 58.5 27t36.5 75z" />
    <glyph glyph-name="Gdotaccent" unicode="&#x120;" horiz-adv-x="393" 
d="M343 762h-75l22 108h76zM169 -10q-73 0 -113.5 34t-40.5 99q0 27 6 55l80 378q34 154 168 154q75 0 114 -34.5t39 -98.5q0 -25 -6 -54l-8 -42h-76l12 55q4 21 4 34q0 70 -78 70q-70 0 -89 -87l-84 -389q-4 -21 -4 -34q0 -69 78 -69q70 0 90 86l36 167h-79l15 71h154
l-51 -240q-32 -155 -167 -155z" />
    <glyph glyph-name="gdotaccent" unicode="&#x121;" horiz-adv-x="382" 
d="M235 683h76l-23 -108h-75zM306 425l18 78h66l-113 -535q-15 -67 -52.5 -100t-105.5 -33t-104.5 28.5t-36.5 81.5q0 1 0.5 4t1 8.5t0.5 10.5h73q-1 -3 -1 -14q0 -56 67 -56q35 0 54.5 17.5t27.5 56.5l20 97q-41 -50 -100 -50q-51 0 -79 26.5t-28 77.5q0 23 6 53l44 206
q29 131 130 131q45 0 74.5 -23t37.5 -65zM246 186l31 147q3 18 3 33q0 38 -18.5 59t-51.5 21q-55 0 -72 -77l-41 -196q-4 -15 -4 -33q0 -56 58 -56q33 0 58.5 27t36.5 75z" />
    <glyph glyph-name="uni0122" unicode="&#x122;" horiz-adv-x="393" 
d="M169 -10q-73 0 -113.5 34t-40.5 99q0 27 6 55l80 378q34 154 168 154q75 0 114 -34.5t39 -98.5q0 -25 -6 -54l-8 -42h-76l12 55q4 21 4 34q0 70 -78 70q-70 0 -89 -87l-84 -389q-4 -21 -4 -34q0 -69 78 -69q70 0 90 86l36 167h-79l15 71h154l-51 -240q-32 -155 -167 -155
zM100 -184h-31l44 53h-34l19 84h75l-15 -77z" />
    <glyph glyph-name="uni0123" unicode="&#x123;" horiz-adv-x="382" 
d="M272 660h33l-17 -85h-76l16 78l53 60h31zM306 425l18 78h66l-113 -535q-15 -67 -52.5 -100t-105.5 -33t-104.5 28.5t-36.5 81.5q0 1 0.5 4t1 8.5t0.5 10.5h73q-1 -3 -1 -14q0 -56 67 -56q35 0 54.5 17.5t27.5 56.5l20 97q-41 -50 -100 -50q-51 0 -79 26.5t-28 77.5
q0 23 6 53l44 206q29 131 130 131q45 0 74.5 -23t37.5 -65zM246 186l31 147q3 18 3 33q0 38 -18.5 59t-51.5 21q-55 0 -72 -77l-41 -196q-4 -15 -4 -33q0 -56 58 -56q33 0 58.5 27t36.5 75z" />
    <glyph glyph-name="Hcircumflex" unicode="&#x124;" horiz-adv-x="419" 
d="M263 752h-65l105 128h79l50 -128h-58l-37 84zM74 0h-80l149 700h80l-64 -299h165l64 299h79l-149 -700h-79l70 330h-165z" />
    <glyph glyph-name="hcircumflex" unicode="&#x125;" horiz-adv-x="385" 
d="M250 752l-37 84l-74 -84h-65l105 128h79l50 -128h-58zM267 513q49 0 77 -26t28 -76q0 -27 -7 -54l-76 -357h-77l75 352q5 25 5 37q0 57 -56 57q-31 0 -55.5 -23.5t-35.5 -67.5l-75 -355h-76l148 700h76l-49 -234q39 47 98 47z" />
    <glyph glyph-name="Hbar" unicode="&#x126;" horiz-adv-x="438" 
d="M453 583h39l-13 -64h-40l-110 -519h-80l70 330h-165l-70 -330h-79l110 519h-42l14 64h42l25 117h79l-25 -117h165l25 117h80zM169 401h165l25 118h-165z" />
    <glyph glyph-name="hbar" unicode="&#x127;" horiz-adv-x="385" 
d="M267 513q49 0 77 -26t28 -76q0 -27 -7 -54l-76 -357h-77l75 352q5 25 5 37q0 57 -56 57q-31 0 -55.5 -23.5t-35.5 -67.5l-75 -355h-76l121 570h-48l15 58h45l15 72h76l-15 -72h80l-14 -58h-78l-22 -104q39 47 98 47z" />
    <glyph glyph-name="Itilde" unicode="&#x128;" horiz-adv-x="175" 
d="M119 763l-39 29q44 71 87 71q27 0 53 -23q16 -13 27 -13q25 0 49 43l39 -29q-44 -71 -86 -71q-26 0 -54 23q-14 13 -26 13q-28 0 -50 -43zM74 0h-80l149 700h80z" />
    <glyph glyph-name="itilde" unicode="&#x129;" horiz-adv-x="172" 
d="M79 576l-39 29q44 71 87 71q27 0 53 -23q16 -13 27 -13q25 0 49 43l39 -29q-44 -71 -86 -71q-26 0 -54 23q-14 13 -26 13q-28 0 -50 -43zM71 0h-77l107 503h77z" />
    <glyph glyph-name="Imacron" unicode="&#x12a;" horiz-adv-x="175" 
d="M306 787h-212l13 59h212zM74 0h-80l149 700h80z" />
    <glyph glyph-name="imacron" unicode="&#x12b;" horiz-adv-x="172" 
d="M266 600h-212l13 59h212zM71 0h-77l107 503h77z" />
    <glyph glyph-name="Ibreve" unicode="&#x12c;" horiz-adv-x="175" 
d="M203 763q-44 0 -67.5 21.5t-23.5 61.5q0 1 2 23h47q-1 -3 -1 -11q0 -42 45 -42q53 0 71 53h47q-21 -106 -120 -106zM74 0h-80l149 700h80z" />
    <glyph glyph-name="ibreve" unicode="&#x12d;" horiz-adv-x="172" 
d="M163 576q-44 0 -67.5 21.5t-23.5 61.5q0 1 2 23h47q-1 -3 -1 -11q0 -42 45 -42q53 0 71 53h47q-21 -106 -120 -106zM71 0h-77l107 503h77z" />
    <glyph glyph-name="Iogonek" unicode="&#x12e;" horiz-adv-x="175" 
d="M3 -85q0 -23 32 -23q19 0 43 10l-5 -47q-23 -10 -56 -10q-78 0 -78 53q0 60 72 102h-17l149 700h80l-149 -700h-15q-25 -17 -40.5 -40.5t-15.5 -44.5z" />
    <glyph glyph-name="iogonek" unicode="&#x12f;" horiz-adv-x="172" 
d="M118 575l22 108h76l-23 -108h-75zM71 0h-13q-25 -17 -40.5 -40.5t-15.5 -44.5q0 -23 32 -23q19 0 43 10l-5 -47q-23 -10 -56 -10q-78 0 -78 53q0 60 72 102h-16l107 503h77z" />
    <glyph glyph-name="Idot" unicode="&#x130;" horiz-adv-x="175" 
d="M233 762h-75l22 108h76zM74 0h-80l149 700h80z" />
    <glyph glyph-name="dotlessi" unicode="&#x131;" horiz-adv-x="172" 
d="M71 0h-77l107 503h77z" />
    <glyph glyph-name="IJ" unicode="&#x132;" horiz-adv-x="435" 
d="M74 0h-80l149 700h80zM214 -4q-48 0 -75 13l15 70q27 -11 54 -11q67 0 83 79l117 553h80l-119 -559q-30 -145 -155 -145z" />
    <glyph glyph-name="ij" unicode="&#x133;" horiz-adv-x="343" 
d="M193 575h-75l22 108h76zM364 575h-75l22 108h76zM71 0h-77l107 503h77zM68 -149l13 62q17 -11 36 -11q27 0 35 36l121 565h77l-123 -579q-20 -89 -97 -89q-40 0 -62 16z" />
    <glyph glyph-name="Jcircumflex" unicode="&#x134;" horiz-adv-x="261" 
d="M221 752h-65l105 128h79l50 -128h-58l-37 84zM39 -4q-49 0 -76 13l15 70q27 -11 55 -11q67 0 83 79l117 553h80l-119 -559q-30 -145 -155 -145z" />
    <glyph glyph-name="jcircumflex" unicode="&#x135;" horiz-adv-x="171" 
d="M99 565h-65l105 128h79l50 -128h-58l-37 84zM-105 -149l14 62q16 -11 36 -11q15 0 22.5 8t12.5 28l121 565h77l-123 -579q-20 -89 -97 -89q-41 0 -63 16z" />
    <glyph glyph-name="uni0136" unicode="&#x136;" horiz-adv-x="408" 
d="M399 700h87l-203 -266l55 -434h-79l-43 345l-95 -124l-47 -221h-80l149 700h80l-72 -336zM131 -131h-34l19 84h75l-15 -77l-58 -60h-31z" />
    <glyph glyph-name="uni0137" unicode="&#x137;" horiz-adv-x="383" 
d="M326 503h90l-170 -193l67 -310h-77l-51 239l-83 -94l-31 -145h-77l149 700h77l-92 -433zM119 -131h-34l19 84h75l-15 -77l-58 -60h-31z" />
    <glyph glyph-name="kgreenlandic" unicode="&#x138;" horiz-adv-x="382" 
d="M326 503h90l-170 -193l67 -310h-77l-51 239l-83 -93l-31 -146h-77l108 503h77l-50 -235z" />
    <glyph glyph-name="Lacute" unicode="&#x139;" horiz-adv-x="342" 
d="M217 752h-65l98 128h91zM272 0h-278l149 700h80l-134 -629h198z" />
    <glyph glyph-name="lacute" unicode="&#x13a;" horiz-adv-x="172" 
d="M206 752h-65l98 128h91zM71 0h-77l149 700h77z" />
    <glyph glyph-name="uni013B" unicode="&#x13b;" horiz-adv-x="342" 
d="M272 0h-278l149 700h80l-134 -629h198zM90 -184h-31l44 53h-34l19 84h75l-15 -77z" />
    <glyph glyph-name="uni013C" unicode="&#x13c;" horiz-adv-x="172" 
d="M71 0h-77l149 700h77zM-12 -184h-31l44 53h-34l18 84h76l-15 -77z" />
    <glyph glyph-name="Lcaron" unicode="&#x13d;" horiz-adv-x="342" 
d="M272 0h-278l149 700h80l-134 -629h198zM305 512h-34l44 94h-27l21 94h72l-18 -87z" />
    <glyph glyph-name="lcaron" unicode="&#x13e;" horiz-adv-x="227" 
d="M71 0h-77l149 700h77zM253 512h-34l44 94h-27l21 94h72l-18 -87z" />
    <glyph glyph-name="Ldot" unicode="&#x13f;" horiz-adv-x="341" 
d="M272 0h-278l149 700h80l-134 -629h198zM311 331h-76l21 97h75z" />
    <glyph glyph-name="ldot" unicode="&#x140;" horiz-adv-x="252" 
d="M71 0h-77l149 700h77zM251 300h-79l21 100h79z" />
    <glyph glyph-name="Lslash" unicode="&#x141;" horiz-adv-x="367" 
d="M341 506l-20 -94l-165 -143l-42 -198h198l-15 -71h-278l39 183l-67 -58l20 93l67 58l90 424h80l-72 -338z" />
    <glyph glyph-name="lslash" unicode="&#x142;" horiz-adv-x="217" 
d="M188 457l67 57l-18 -87l-67 -58l-79 -369h-77l61 288l-57 -49l18 87l58 50l69 324h77z" />
    <glyph glyph-name="Nacute" unicode="&#x143;" horiz-adv-x="425" 
d="M333 752h-65l98 128h91zM67 0h-73l149 700h98l52 -500l107 500h73l-149 -700h-79l-57 569z" />
    <glyph glyph-name="nacute" unicode="&#x144;" horiz-adv-x="385" 
d="M307 693h91l-124 -128h-65zM267 513q49 0 77 -26t28 -76q0 -27 -7 -54l-76 -357h-77l75 352q5 25 5 37q0 57 -56 57q-34 0 -58.5 -26t-34.5 -74l-74 -346h-77l107 503h65l-11 -57q43 67 114 67z" />
    <glyph glyph-name="uni0145" unicode="&#x145;" horiz-adv-x="425" 
d="M67 0h-73l149 700h98l52 -500l107 500h73l-149 -700h-79l-57 569zM115 -184h-31l44 53h-34l19 84h75l-15 -77z" />
    <glyph glyph-name="uni0146" unicode="&#x146;" horiz-adv-x="385" 
d="M267 513q49 0 77 -26t28 -76q0 -27 -7 -54l-76 -357h-77l75 352q5 25 5 37q0 57 -56 57q-34 0 -58.5 -26t-34.5 -74l-74 -346h-77l107 503h65l-11 -57q43 67 114 67zM108 -131h-34l19 84h75l-15 -77l-58 -60h-31z" />
    <glyph glyph-name="Ncaron" unicode="&#x147;" horiz-adv-x="425" 
d="M359 752h-79l-50 128h58l36 -84l75 84h65zM67 0h-73l149 700h98l52 -500l107 500h73l-149 -700h-79l-57 569z" />
    <glyph glyph-name="ncaron" unicode="&#x148;" horiz-adv-x="385" 
d="M405 693l-105 -128h-79l-50 128h58l36 -84l75 84h65zM267 513q49 0 77 -26t28 -76q0 -27 -7 -54l-76 -357h-77l75 352q5 25 5 37q0 57 -56 57q-34 0 -58.5 -26t-34.5 -74l-74 -346h-77l107 503h65l-11 -57q43 67 114 67z" />
    <glyph glyph-name="napostrophe" unicode="&#x149;" horiz-adv-x="385" 
d="M125 611l-61 -99h-33l44 91h-29l21 97h76zM267 513q49 0 77 -26t28 -76q0 -27 -7 -54l-76 -357h-77l75 352q5 25 5 37q0 57 -56 57q-34 0 -58.5 -26t-34.5 -74l-74 -346h-77l107 503h65l-11 -57q43 67 114 67z" />
    <glyph glyph-name="Eng" unicode="&#x14a;" horiz-adv-x="425" 
d="M165 -165q-44 0 -76 12l14 64q23 -12 56 -12q63 0 81 80q9 39 11 61l-1 21l-60 514l-123 -575h-73l149 700h98l55 -485l104 485h73l-154 -720q-16 -74 -53.5 -109.5t-100.5 -35.5z" />
    <glyph glyph-name="eng" unicode="&#x14b;" horiz-adv-x="386" 
d="M267 513q49 0 77 -26t28 -76q0 -27 -7 -54l-89 -421q-23 -101 -114 -101q-45 0 -73 16l13 64q22 -13 50 -13q21 0 32.5 12t17.5 39l85 399q5 25 5 37q0 57 -56 57q-34 0 -58.5 -26t-34.5 -74l-74 -346h-77l107 503h65l-11 -57q43 67 114 67z" />
    <glyph glyph-name="Omacron" unicode="&#x14c;" 
d="M420 787h-212l13 59h212zM170 -10q-73 0 -114 35.5t-41 101.5q0 24 6 51l80 377q33 155 170 155q73 0 114 -35.5t41 -100.5q0 -25 -6 -52l-80 -378q-31 -154 -170 -154zM175 61q68 0 86 87l82 387q4 15 4 33q0 71 -79 71q-70 0 -88 -87l-82 -387q-4 -15 -4 -32
q0 -72 81 -72z" />
    <glyph glyph-name="omacron" unicode="&#x14d;" horiz-adv-x="371" 
d="M366 600h-212l13 59h212zM153 -10q-66 0 -104 33.5t-38 93.5q0 23 6 50l43 201q31 145 158 145q66 0 104 -33.5t38 -93.5q0 -26 -5 -49l-44 -201q-31 -146 -158 -146zM155 57q62 0 80 80l46 214q4 15 4 32q0 63 -69 63q-62 0 -79 -80l-47 -214q-4 -20 -4 -32
q0 -63 69 -63z" />
    <glyph glyph-name="Obreve" unicode="&#x14e;" 
d="M317 763q-44 0 -67.5 21.5t-23.5 61.5q0 1 2 23h47q-1 -3 -1 -11q0 -42 45 -42q53 0 71 53h47q-21 -106 -120 -106zM170 -10q-73 0 -114 35.5t-41 101.5q0 24 6 51l80 377q33 155 170 155q73 0 114 -35.5t41 -100.5q0 -25 -6 -52l-80 -378q-31 -154 -170 -154zM175 61
q68 0 86 87l82 387q4 15 4 33q0 71 -79 71q-70 0 -88 -87l-82 -387q-4 -15 -4 -32q0 -72 81 -72z" />
    <glyph glyph-name="obreve" unicode="&#x14f;" horiz-adv-x="371" 
d="M263 576q-44 0 -67.5 21.5t-23.5 61.5q0 1 2 23h47q-1 -3 -1 -11q0 -42 45 -42q53 0 71 53h47q-21 -106 -120 -106zM153 -10q-66 0 -104 33.5t-38 93.5q0 23 6 50l43 201q31 145 158 145q66 0 104 -33.5t38 -93.5q0 -26 -5 -49l-44 -201q-31 -146 -158 -146zM155 57
q62 0 80 80l46 214q4 15 4 32q0 63 -69 63q-62 0 -79 -80l-47 -214q-4 -20 -4 -32q0 -63 69 -63z" />
    <glyph glyph-name="Ohungarumlaut" unicode="&#x150;" 
d="M254 752h-60l98 128h86zM386 752h-61l98 128h86zM170 -10q-73 0 -114 35.5t-41 101.5q0 24 6 51l80 377q33 155 170 155q73 0 114 -35.5t41 -100.5q0 -25 -6 -52l-80 -378q-31 -154 -170 -154zM175 61q68 0 86 87l82 387q4 15 4 33q0 71 -79 71q-70 0 -88 -87l-82 -387
q-4 -15 -4 -32q0 -72 81 -72z" />
    <glyph glyph-name="ohungarumlaut" unicode="&#x151;" horiz-adv-x="371" 
d="M200 565h-60l98 128h86zM332 565h-61l98 128h86zM153 -10q-66 0 -104 33.5t-38 93.5q0 23 6 50l43 201q31 145 158 145q66 0 104 -33.5t38 -93.5q0 -26 -5 -49l-44 -201q-31 -146 -158 -146zM155 57q62 0 80 80l46 214q4 15 4 32q0 63 -69 63q-62 0 -79 -80l-47 -214
q-4 -20 -4 -32q0 -63 69 -63z" />
    <glyph glyph-name="OE" unicode="&#x152;" horiz-adv-x="588" 
d="M514 0h-366q-131 0 -131 117q0 26 6 56l77 360q18 87 64 127t127 40h372l-16 -71h-207l-49 -228h169l-15 -71h-169l-55 -259h208zM161 71h81l118 558h-75q-85 0 -106 -98l-78 -367q-5 -28 -5 -39q0 -29 15.5 -41.5t49.5 -12.5z" />
    <glyph glyph-name="oe" unicode="&#x153;" horiz-adv-x="592" 
d="M446 513q67 0 103.5 -32t36.5 -92q0 -25 -6 -53l-20 -96h-226l-18 -85q-4 -23 -4 -34q0 -64 71 -64q63 0 81 82l5 22h74l-5 -22q-32 -149 -155 -149q-97 0 -121 65q-38 -65 -112 -65q-66 0 -102.5 32.5t-36.5 92.5q0 23 6 52l43 201q31 145 155 145q93 0 118 -64
q37 64 113 64zM235 137l46 214q4 15 4 32q0 63 -69 63q-62 0 -79 -80l-47 -214q-4 -20 -4 -32q0 -63 69 -63q62 0 80 80zM361 366l-14 -64h151l10 49q4 21 4 31q0 64 -71 64q-63 0 -80 -80z" />
    <glyph glyph-name="Racute" unicode="&#x154;" horiz-adv-x="402" 
d="M311 752h-65l98 128h91zM74 0h-80l149 700h152q131 0 131 -113q0 -24 -6 -54l-8 -38q-14 -65 -40.5 -99.5t-72.5 -45.5v-1q59 -15 59 -88q0 -27 -7 -54l-26 -125q-10 -47 -10 -68q0 -11 1 -14h-77q-1 5 -1 20q0 27 9 68l27 129q6 26 6 44q0 30 -17.5 42.5t-56.5 12.5h-65
zM208 629l-52 -242h58q49 0 76.5 23t39.5 76l11 50q5 30 5 40q0 53 -65 53h-73z" />
    <glyph glyph-name="racute" unicode="&#x155;" horiz-adv-x="266" 
d="M256 693h91l-124 -128h-65zM164 503l-14 -75q40 85 113 85q28 0 44 -10l-15 -73q-16 9 -43 9q-81 0 -111 -115l-69 -324h-77l107 503h65z" />
    <glyph glyph-name="uni0156" unicode="&#x156;" horiz-adv-x="402" 
d="M74 0h-80l149 700h152q131 0 131 -113q0 -24 -6 -54l-8 -38q-14 -65 -40.5 -99.5t-72.5 -45.5v-1q59 -15 59 -88q0 -27 -7 -54l-26 -125q-10 -47 -10 -68q0 -11 1 -14h-77q-1 5 -1 20q0 27 9 68l27 129q6 26 6 44q0 30 -17.5 42.5t-56.5 12.5h-65zM208 629l-52 -242h58
q49 0 76.5 23t39.5 76l11 50q5 30 5 40q0 53 -65 53h-73zM111 -184h-31l44 53h-34l19 84h75l-15 -77z" />
    <glyph glyph-name="uni0157" unicode="&#x157;" horiz-adv-x="266" 
d="M263 513q28 0 44 -10l-15 -73q-16 9 -43 9q-81 0 -111 -115l-69 -324h-77l107 503h65l-14 -75q40 85 113 85zM0 -131h-34l18 84h76l-15 -77l-58 -60h-31z" />
    <glyph glyph-name="Rcaron" unicode="&#x158;" horiz-adv-x="402" 
d="M338 752h-79l-50 128h58l36 -84l75 84h65zM74 0h-80l149 700h152q131 0 131 -113q0 -24 -6 -54l-8 -38q-14 -65 -40.5 -99.5t-72.5 -45.5v-1q59 -15 59 -88q0 -27 -7 -54l-26 -125q-10 -47 -10 -68q0 -11 1 -14h-77q-1 5 -1 20q0 27 9 68l27 129q6 26 6 44
q0 30 -17.5 42.5t-56.5 12.5h-65zM208 629l-52 -242h58q49 0 76.5 23t39.5 76l11 50q5 30 5 40q0 53 -65 53h-73z" />
    <glyph glyph-name="rcaron" unicode="&#x159;" horiz-adv-x="266" 
d="M354 693l-105 -128h-79l-50 128h58l36 -84l75 84h65zM164 503l-14 -75q40 85 113 85q28 0 44 -10l-15 -73q-16 9 -43 9q-81 0 -111 -115l-69 -324h-77l107 503h65z" />
    <glyph glyph-name="Sacute" unicode="&#x15a;" horiz-adv-x="369" 
d="M303 745h-65l98 128h91zM146 -10q-144 0 -144 128q0 30 7 57l5 24h75l-8 -37q-4 -21 -4 -34q0 -67 75 -67q46 0 70.5 34.5t24.5 88.5q0 69 -72 146q-88 94 -88 186q0 86 48 140t129 54q70 0 106.5 -32t36.5 -93q0 -22 -8 -59l-3 -13h-75l6 25q4 15 4 36q0 65 -73 65
q-44 0 -68 -32t-24 -82q0 -68 72 -146q88 -94 88 -188q0 -89 -48 -145t-132 -56z" />
    <glyph glyph-name="sacute" unicode="&#x15b;" horiz-adv-x="339" 
d="M248 565h-65l98 128h91zM128 -10q-58 0 -93.5 30t-35.5 83q0 15 5 40l2 9h73l-4 -15q-3 -15 -3 -26q0 -27 17 -41t45 -14q37 0 58.5 23.5t21.5 56.5q0 28 -16 47.5t-52 42.5q-27 18 -45 32q-16 14 -30.5 42.5t-14.5 58.5q0 66 43 109q43 45 112 45q55 0 88.5 -29.5
t33.5 -80.5q0 -15 -5 -40h-71q4 21 4 32q0 24 -15 38t-40 14q-33 0 -54 -22.5t-21 -54.5q0 -26 16.5 -46.5t52.5 -43.5q40 -27 61 -49q30 -30 30 -84q0 -64 -44 -111q-43 -46 -119 -46z" />
    <glyph glyph-name="Scircumflex" unicode="&#x15c;" horiz-adv-x="369" 
d="M236 745h-65l105 128h79l50 -128h-58l-37 84zM146 -10q-144 0 -144 128q0 30 7 57l5 24h75l-8 -37q-4 -21 -4 -34q0 -67 75 -67q46 0 70.5 34.5t24.5 88.5q0 69 -72 146q-88 94 -88 186q0 86 48 140t129 54q70 0 106.5 -32t36.5 -93q0 -22 -8 -59l-3 -13h-75l6 25
q4 15 4 36q0 65 -73 65q-44 0 -68 -32t-24 -82q0 -68 72 -146q88 -94 88 -188q0 -89 -48 -145t-132 -56z" />
    <glyph glyph-name="scircumflex" unicode="&#x15d;" horiz-adv-x="339" 
d="M181 565h-65l105 128h79l50 -128h-58l-37 84zM128 -10q-58 0 -93.5 30t-35.5 83q0 15 5 40l2 9h73l-4 -15q-3 -15 -3 -26q0 -27 17 -41t45 -14q37 0 58.5 23.5t21.5 56.5q0 28 -16 47.5t-52 42.5q-27 18 -45 32q-16 14 -30.5 42.5t-14.5 58.5q0 66 43 109q43 45 112 45
q55 0 88.5 -29.5t33.5 -80.5q0 -15 -5 -40h-71q4 21 4 32q0 24 -15 38t-40 14q-33 0 -54 -22.5t-21 -54.5q0 -26 16.5 -46.5t52.5 -43.5q40 -27 61 -49q30 -30 30 -84q0 -64 -44 -111q-43 -46 -119 -46z" />
    <glyph glyph-name="Scedilla" unicode="&#x15e;" horiz-adv-x="369" 
d="M264 710q70 0 106.5 -32t36.5 -93q0 -22 -8 -59l-3 -13h-75l6 25q4 15 4 36q0 65 -73 65q-44 0 -68 -32t-24 -82q0 -68 72 -146q88 -94 88 -188q0 -89 -48 -145t-131 -56l-8 -30q59 0 59 -44q0 -38 -24.5 -52.5t-75.5 -14.5q-81 0 -81 49q0 2 2 18h56q-3 -7 -3 -14
q0 -18 30 -18q19 0 30 9.5t11 25.5q0 19 -32 19h-12l11 54q-108 15 -108 126q0 30 7 57l5 24h75l-8 -37q-4 -21 -4 -34q0 -67 75 -67q46 0 70.5 34.5t24.5 88.5q0 69 -72 146q-88 94 -88 186q0 86 48 140t129 54z" />
    <glyph glyph-name="scedilla" unicode="&#x15f;" horiz-adv-x="339" 
d="M328 363h-71q4 21 4 32q0 24 -15 38t-40 14q-33 0 -54 -22.5t-21 -54.5q0 -26 16.5 -46.5t52.5 -43.5q40 -27 61 -49q30 -30 30 -84q0 -64 -43 -110q-41 -45 -115 -47l-9 -34q59 0 59 -44q0 -38 -24.5 -52.5t-75.5 -14.5q-81 0 -81 49q0 2 2 18h56q-3 -8 -3 -14
q0 -18 30 -18q19 0 30 9.5t11 25.5q0 19 -32 19h-12l12 59q-45 7 -71 36t-26 74q0 15 5 40l2 9h73l-4 -15q-3 -15 -3 -26q0 -27 17 -41t45 -14q37 0 58.5 23.5t21.5 56.5q0 28 -16 47.5t-52 42.5q-27 18 -45 32q-16 14 -30.5 42.5t-14.5 58.5q0 66 43 109q43 45 112 45
q55 0 88.5 -29.5t33.5 -80.5q0 -15 -5 -40z" />
    <glyph glyph-name="Scaron" unicode="&#x160;" horiz-adv-x="369" 
d="M329 745h-79l-50 128h58l36 -84l75 84h65zM146 -10q-144 0 -144 128q0 30 7 57l5 24h75l-8 -37q-4 -21 -4 -34q0 -67 75 -67q46 0 70.5 34.5t24.5 88.5q0 69 -72 146q-88 94 -88 186q0 86 48 140t129 54q70 0 106.5 -32t36.5 -93q0 -22 -8 -59l-3 -13h-75l6 25q4 15 4 36
q0 65 -73 65q-44 0 -68 -32t-24 -82q0 -68 72 -146q88 -94 88 -188q0 -89 -48 -145t-132 -56z" />
    <glyph glyph-name="scaron" unicode="&#x161;" horiz-adv-x="339" 
d="M274 565h-79l-50 128h58l36 -84l75 84h65zM128 -10q-58 0 -93.5 30t-35.5 83q0 15 5 40l2 9h73l-4 -15q-3 -15 -3 -26q0 -27 17 -41t45 -14q37 0 58.5 23.5t21.5 56.5q0 28 -16 47.5t-52 42.5q-27 18 -45 32q-16 14 -30.5 42.5t-14.5 58.5q0 66 43 109q43 45 112 45
q55 0 88.5 -29.5t33.5 -80.5q0 -15 -5 -40h-71q4 21 4 32q0 24 -15 38t-40 14q-33 0 -54 -22.5t-21 -54.5q0 -26 16.5 -46.5t52.5 -43.5q40 -27 61 -49q30 -30 30 -84q0 -64 -44 -111q-43 -46 -119 -46z" />
    <glyph glyph-name="uni0162" unicode="&#x162;" horiz-adv-x="361" 
d="M97 629l15 71h328l-16 -71h-124l-133 -629h-22l-11 -44q59 0 59 -44q0 -38 -24.5 -52.5t-75.5 -14.5q-81 0 -81 49q0 2 2 18h56q-3 -8 -3 -14q0 -18 30 -18q19 0 30 9.5t11 25.5q0 19 -32 19h-12l14 66h-21l134 629h-124z" />
    <glyph glyph-name="uni0163" unicode="&#x163;" horiz-adv-x="266" 
d="M286 439h-91l-70 -329l-2 -18q0 -35 43 -35q16 0 38 8l-9 -67q-24 -8 -56 -8q-4 0 -22 2l-9 -36q59 0 59 -44q0 -38 -24.5 -52.5t-75.5 -14.5q-81 0 -81 49q0 10 2 18h56q-3 -8 -3 -14q0 -18 30 -18q19 0 30 9.5t11 25.5q0 19 -32 19h-12l15 69q-39 23 -39 73q0 17 4 32
l71 331h-63l14 64h64l39 145h67l-31 -145h91z" />
    <glyph glyph-name="Tcaron" unicode="&#x164;" horiz-adv-x="361" 
d="M327 752h-79l-50 128h58l36 -84l75 84h65zM167 0h-80l134 629h-124l15 71h328l-16 -71h-124z" />
    <glyph glyph-name="tcaron" unicode="&#x165;" horiz-adv-x="276" 
d="M265 640l20 94h73l-18 -87l-58 -101h-34l44 94h-27zM173 648h67l-31 -145h91l-14 -64h-91l-70 -329l-2 -18q0 -35 43 -35q16 0 38 8l-9 -67q-24 -8 -56 -8q-45 0 -70 22.5t-25 63.5q0 17 4 32l71 331h-63l14 64h64z" />
    <glyph glyph-name="Tbar" unicode="&#x166;" horiz-adv-x="359" 
d="M440 700l-16 -71h-124l-48 -228h82l-15 -71h-82l-70 -330h-80l70 330h-84l15 71h84l49 228h-124l15 71h328z" />
    <glyph glyph-name="tbar" unicode="&#x167;" horiz-adv-x="266" 
d="M300 503l-14 -64h-91l-32 -152h74l-14 -54h-72l-26 -123l-2 -18q0 -35 43 -35q16 0 38 8l-9 -67q-24 -8 -56 -8q-45 0 -70 22.5t-25 63.5q0 17 4 32l27 125h-54l15 54h50l33 152h-63l14 64h64l39 145h67l-31 -145h91z" />
    <glyph glyph-name="Utilde" unicode="&#x168;" horiz-adv-x="403" 
d="M234 763l-39 29q44 71 87 71q27 0 53 -23q16 -13 27 -13q25 0 49 43l39 -29q-44 -71 -86 -71q-26 0 -54 23q-14 13 -26 13q-28 0 -50 -43zM172 -10q-72 0 -112.5 34.5t-40.5 99.5q0 26 6 54l111 522h80l-115 -536q-4 -21 -4 -32q0 -71 80 -71q66 0 86 86l118 553h77
l-119 -555q-33 -155 -167 -155z" />
    <glyph glyph-name="utilde" unicode="&#x169;" horiz-adv-x="385" 
d="M234 619q-28 0 -50 -43l-39 29q44 71 87 71q27 0 53 -23q16 -13 27 -13q25 0 49 43l39 -29q-44 -71 -86 -71q-26 0 -54 23q-14 13 -26 13zM242 157l74 346h77l-107 -503h-65l11 57q-43 -67 -114 -67q-49 0 -77 26t-28 76q0 28 7 55l76 356h77l-75 -352q-5 -25 -5 -37
q0 -57 56 -57q33 0 58 26.5t35 73.5z" />
    <glyph glyph-name="Umacron" unicode="&#x16a;" horiz-adv-x="403" 
d="M421 787h-212l13 59h212zM172 -10q-72 0 -112.5 34.5t-40.5 99.5q0 26 6 54l111 522h80l-115 -536q-4 -21 -4 -32q0 -71 80 -71q66 0 86 86l118 553h77l-119 -555q-33 -155 -167 -155z" />
    <glyph glyph-name="umacron" unicode="&#x16b;" horiz-adv-x="385" 
d="M172 659h212l-13 -59h-212zM242 157l74 346h77l-107 -503h-65l11 57q-43 -67 -114 -67q-49 0 -77 26t-28 76q0 28 7 55l76 356h77l-75 -352q-5 -25 -5 -37q0 -57 56 -57q33 0 58 26.5t35 73.5z" />
    <glyph glyph-name="Ubreve" unicode="&#x16c;" horiz-adv-x="403" 
d="M318 763q-44 0 -67.5 21.5t-23.5 61.5q0 1 2 23h47q-1 -3 -1 -11q0 -42 45 -42q53 0 71 53h47q-21 -106 -120 -106zM172 -10q-72 0 -112.5 34.5t-40.5 99.5q0 26 6 54l111 522h80l-115 -536q-4 -21 -4 -32q0 -71 80 -71q66 0 86 86l118 553h77l-119 -555
q-33 -155 -167 -155z" />
    <glyph glyph-name="ubreve" unicode="&#x16d;" horiz-adv-x="385" 
d="M268 576q-44 0 -67.5 21.5t-23.5 61.5q0 1 2 23h47q-1 -3 -1 -11q0 -42 45 -42q53 0 71 53h47q-21 -106 -120 -106zM242 157l74 346h77l-107 -503h-65l11 57q-43 -67 -114 -67q-49 0 -77 26t-28 76q0 28 7 55l76 356h77l-75 -352q-5 -25 -5 -37q0 -57 56 -57
q33 0 58 26.5t35 73.5z" />
    <glyph glyph-name="Uring" unicode="&#x16e;" horiz-adv-x="403" 
d="M317 752q-32 0 -53 20t-21 50q0 37 26 62.5t62 25.5q33 0 53.5 -20t20.5 -50q0 -37 -26 -62.5t-62 -25.5zM320 794q18 0 29.5 12t11.5 30q0 14 -9 23.5t-24 9.5q-16 0 -28 -12.5t-12 -30.5q0 -14 9 -23t23 -9zM172 -10q-72 0 -112.5 34.5t-40.5 99.5q0 26 6 54l111 522
h80l-115 -536q-4 -21 -4 -32q0 -71 80 -71q66 0 86 86l118 553h77l-119 -555q-33 -155 -167 -155z" />
    <glyph glyph-name="uring" unicode="&#x16f;" horiz-adv-x="385" 
d="M267 565q-32 0 -53 20t-21 50q0 37 26 62.5t62 25.5q33 0 53.5 -20t20.5 -50q0 -37 -26 -62.5t-62 -25.5zM278 682q-16 0 -28 -12.5t-12 -30.5q0 -14 9 -23t23 -9q18 0 29.5 11.5t11.5 30.5q0 14 -9 23.5t-24 9.5zM242 157l74 346h77l-107 -503h-65l11 57
q-43 -67 -114 -67q-49 0 -77 26t-28 76q0 28 7 55l76 356h77l-75 -352q-5 -25 -5 -37q0 -57 56 -57q33 0 58 26.5t35 73.5z" />
    <glyph glyph-name="Uhungarumlaut" unicode="&#x170;" horiz-adv-x="403" 
d="M255 752h-60l98 128h86zM387 752h-61l98 128h86zM172 -10q-72 0 -112.5 34.5t-40.5 99.5q0 26 6 54l111 522h80l-115 -536q-4 -21 -4 -32q0 -71 80 -71q66 0 86 86l118 553h77l-119 -555q-33 -155 -167 -155z" />
    <glyph glyph-name="uhungarumlaut" unicode="&#x171;" horiz-adv-x="385" 
d="M243 693h86l-124 -128h-60zM460 693l-123 -128h-61l98 128h86zM242 157l74 346h77l-107 -503h-65l11 57q-43 -67 -114 -67q-49 0 -77 26t-28 76q0 28 7 55l76 356h77l-75 -352q-5 -25 -5 -37q0 -57 56 -57q33 0 58 26.5t35 73.5z" />
    <glyph glyph-name="Uogonek" unicode="&#x172;" horiz-adv-x="403" 
d="M263 147l118 553h77l-119 -555q-28 -139 -142 -153q-50 -38 -50 -76q0 -24 32 -24q19 0 43 10l-5 -47q-23 -10 -56 -10q-77 0 -77 56q0 54 60 90q-60 7 -92.5 40.5t-32.5 92.5q0 26 6 54l111 522h80l-115 -536q-4 -21 -4 -32q0 -71 80 -71q66 0 86 86z" />
    <glyph glyph-name="uogonek" unicode="&#x173;" horiz-adv-x="385" 
d="M286 0h-26q-66 -42 -66 -85q0 -23 32 -23q19 0 43 10l-5 -47q-23 -10 -56 -10q-77 0 -77 53q0 67 91 109l10 50q-43 -67 -114 -67q-49 0 -77 26t-28 76q0 28 7 55l76 356h77l-75 -352q-5 -25 -5 -37q0 -57 56 -57q33 0 58 26.5t35 73.5l74 346h77z" />
    <glyph glyph-name="Wcircumflex" unicode="&#x174;" horiz-adv-x="558" 
d="M333 752h-65l105 128h79l50 -128h-58l-37 84zM158 0h-106l64 700h75l-57 -592l198 592h88l-54 -592l196 592h71l-233 -700h-101l45 546z" />
    <glyph glyph-name="wcircumflex" unicode="&#x175;" horiz-adv-x="534" 
d="M282 565h-65l105 128h79l50 -128h-58l-37 84zM151 0h-98l21 503h73l-16 -399l152 399h79l-18 -399l154 399h71l-193 -503h-93l12 363z" />
    <glyph glyph-name="Ycircumflex" unicode="&#x176;" horiz-adv-x="393" 
d="M248 752h-65l105 128h79l50 -128h-58l-37 84zM182 0h-80l66 307l-57 393h80l36 -292l164 292h82l-225 -393z" />
    <glyph glyph-name="ycircumflex" unicode="&#x177;" horiz-adv-x="362" 
d="M191 565h-65l105 128h79l50 -128h-58l-37 84zM323 503h75l-261 -575q-24 -49 -51.5 -71t-69.5 -22q-47 0 -70 17l14 63q20 -13 50 -13q20 0 32.5 10t23.5 34l26 55l-22 502h75l10 -381z" />
    <glyph glyph-name="Ydieresis" unicode="&#x178;" horiz-adv-x="393" 
d="M275 762h-70l23 108h70zM401 762h-70l23 108h70zM182 0h-80l66 307l-57 393h80l36 -292l164 292h82l-225 -393z" />
    <glyph glyph-name="Zacute" unicode="&#x179;" horiz-adv-x="355" 
d="M302 752h-65l98 128h91zM279 0h-312l14 70l342 559h-212l16 71h301l-14 -69l-341 -560h221z" />
    <glyph glyph-name="zacute" unicode="&#x17a;" horiz-adv-x="328" 
d="M249 565h-65l98 128h91zM249 0h-279l12 63l273 376h-182l14 64h269l-13 -63l-272 -375h192z" />
    <glyph glyph-name="Zdotaccent" unicode="&#x17b;" horiz-adv-x="355" 
d="M328 762h-75l22 108h76zM279 0h-312l14 70l342 559h-212l16 71h301l-14 -69l-341 -560h221z" />
    <glyph glyph-name="zdotaccent" unicode="&#x17c;" horiz-adv-x="328" 
d="M275 575h-75l22 108h76zM249 0h-279l12 63l273 376h-182l14 64h269l-13 -63l-272 -375h192z" />
    <glyph glyph-name="Zcaron" unicode="&#x17d;" horiz-adv-x="355" 
d="M328 752h-79l-50 128h58l36 -84l75 84h65zM279 0h-312l14 70l342 559h-212l16 71h301l-14 -69l-341 -560h221z" />
    <glyph glyph-name="zcaron" unicode="&#x17e;" horiz-adv-x="328" 
d="M275 565h-79l-50 128h58l36 -84l75 84h65zM249 0h-279l12 63l273 376h-182l14 64h269l-13 -63l-272 -375h192z" />
    <glyph glyph-name="florin" unicode="&#x192;" 
d="M371 745l-17 -78q70 -22 70 -99q0 -21 -7 -52l-3 -15q-12 -62 -37.5 -96t-70.5 -46v-2q63 -25 63 -100q0 -23 -6 -49l-5 -23q-28 -133 -139 -155l-18 -85h-52l17 80h-65l-17 -80h-52l17 80h-74l15 71h44l108 508h-43l15 71h73l15 70h52l-15 -70h51h14l15 70h52zM334 490
l5 21q5 28 5 40q0 53 -65 53h-59l-45 -213h43q95 0 116 99zM282 193l5 25q6 26 6 43q0 32 -19 45.5t-61 13.5h-53l-48 -224h63q88 0 107 97z" />
    <glyph glyph-name="AEacute" unicode="&#x1fc;" horiz-adv-x="583" 
d="M449 880h91l-124 -128h-65zM658 700l-16 -71h-206l-48 -228h167l-15 -71h-167l-56 -259h207l-15 -71h-287l32 149h-138l-77 -149h-78l366 700h331zM151 217h117l82 384z" />
    <glyph glyph-name="aeacute" unicode="&#x1fd;" horiz-adv-x="578" 
d="M408 693h91l-124 -128h-65zM437 513q63 0 99 -33t36 -93q0 -24 -6 -51l-21 -96h-225l-18 -85q-4 -15 -4 -34q0 -64 70 -64q64 0 82 82l4 22h74l-4 -22q-15 -72 -56 -110.5t-103 -38.5q-113 0 -138 85q-42 -85 -127 -85q-50 0 -79 29.5t-29 78.5q0 70 40 113.5t123 68.5
q69 23 87 34q21 13 25 37v-5l4 21q3 13 3 25q0 56 -62 56q-63 0 -76 -70l-5 -22h-73l6 26q14 63 53 97t97 34q88 0 109 -64q40 64 114 64zM483 302l10 49q4 15 4 31q0 64 -70 64q-63 0 -80 -80l-12 -56l-2 -8h150zM130 56q36 0 60.5 26t34.5 74l3 14l20 92q-16 -15 -82 -38
q-94 -31 -94 -112q0 -56 58 -56z" />
    <glyph glyph-name="Oslashacute" unicode="&#x1fe;" 
d="M354 880h91l-124 -128h-65zM425 729l38 -25l-46 -76q9 -24 9 -54q0 -25 -6 -52l-80 -378q-31 -154 -170 -154q-76 0 -117 38l-35 -57l-39 25l46 75q-10 21 -10 56q0 24 6 51l80 377q33 155 170 155q79 0 119 -39zM180 552l-73 -346l236 389q-14 44 -75 44q-70 0 -88 -87z
M261 148l73 343l-236 -387q15 -43 77 -43q68 0 86 87z" />
    <glyph glyph-name="oslashacute" unicode="&#x1ff;" horiz-adv-x="371" 
d="M300 693h91l-124 -128h-65zM318 483l36 52l33 -25l-41 -60q14 -30 14 -64q0 -26 -5 -49l-44 -201q-31 -146 -158 -146q-63 0 -99 30l-35 -51l-34 25l41 59q-15 27 -15 64q0 23 6 50l43 201q31 145 158 145q64 0 100 -30zM137 366l-47 -214v-3l-1 -3l187 274
q-17 26 -60 26q-62 0 -79 -80zM235 137l46 214q0 1 0.5 3l0.5 2l-186 -274q16 -25 59 -25q62 0 80 80z" />
    <glyph glyph-name="uni0218" unicode="&#x218;" horiz-adv-x="369" 
d="M146 -10q-144 0 -144 128q0 30 7 57l5 24h75l-8 -37q-4 -21 -4 -34q0 -67 75 -67q46 0 70.5 34.5t24.5 88.5q0 69 -72 146q-88 94 -88 186q0 86 48 140t129 54q70 0 106.5 -32t36.5 -93q0 -22 -8 -59l-3 -13h-75l6 25q4 15 4 36q0 65 -73 65q-44 0 -68 -32t-24 -82
q0 -68 72 -146q88 -94 88 -188q0 -89 -48 -145t-132 -56zM87 -180h-31l44 53h-34l19 84h75l-15 -77z" />
    <glyph glyph-name="uni0219" unicode="&#x219;" horiz-adv-x="339" 
d="M128 -10q-58 0 -93.5 30t-35.5 83q0 15 5 40l2 9h73l-4 -15q-3 -15 -3 -26q0 -27 17 -41t45 -14q37 0 58.5 23.5t21.5 56.5q0 28 -16 47.5t-52 42.5q-27 18 -45 32q-16 14 -30.5 42.5t-14.5 58.5q0 66 43 109q43 45 112 45q55 0 88.5 -29.5t33.5 -80.5q0 -15 -5 -40h-71
q4 21 4 32q0 24 -15 38t-40 14q-33 0 -54 -22.5t-21 -54.5q0 -26 16.5 -46.5t52.5 -43.5q40 -27 61 -49q30 -30 30 -84q0 -64 -44 -111q-43 -46 -119 -46zM72 -184h-31l44 53h-34l19 84h75l-15 -77z" />
    <glyph glyph-name="uni021A" unicode="&#x21a;" horiz-adv-x="361" 
d="M167 0h-80l134 629h-124l15 71h328l-16 -71h-124zM82 -184h-31l44 53h-34l19 84h75l-15 -77z" />
    <glyph glyph-name="uni021B" unicode="&#x21b;" horiz-adv-x="266" 
d="M286 439h-91l-70 -329l-2 -18q0 -35 43 -35q16 0 38 8l-9 -67q-24 -8 -56 -8q-45 0 -70 22.5t-25 63.5q0 17 4 32l71 331h-63l14 64h64l39 145h67l-31 -145h91zM69 -131h-34l19 84h75l-15 -77l-58 -60h-31z" />
    <glyph glyph-name="uni0237" unicode="&#x237;" horiz-adv-x="171" 
d="M-105 -149l14 62q16 -11 36 -11q15 0 22.5 8t12.5 28l121 565h77l-123 -579q-20 -89 -97 -89q-41 0 -63 16z" />
    <glyph glyph-name="uni02BC" unicode="&#x2bc;" horiz-adv-x="0" 
d="M55 512h-34l45 91h-29l21 97h75l-18 -89z" />
    <glyph glyph-name="circumflex" unicode="&#x2c6;" horiz-adv-x="500" 
d="M264 565h-65l105 128h79l50 -128h-58l-37 84z" />
    <glyph glyph-name="caron" unicode="&#x2c7;" horiz-adv-x="500" 
d="M357 565h-79l-50 128h58l36 -84l75 84h65z" />
    <glyph glyph-name="uni02C9" unicode="&#x2c9;" horiz-adv-x="500" 
d="M430 600h-212l13 59h212z" />
    <glyph glyph-name="breve" unicode="&#x2d8;" horiz-adv-x="500" 
d="M327 576q-44 0 -67.5 21.5t-23.5 61.5q0 1 2 23h47q-1 -3 -1 -11q0 -42 45 -42q53 0 71 53h47q-21 -106 -120 -106z" />
    <glyph glyph-name="dotaccent" unicode="&#x2d9;" horiz-adv-x="500" 
d="M357 575h-75l22 108h76z" />
    <glyph glyph-name="ring" unicode="&#x2da;" horiz-adv-x="500" 
d="M326 565q-32 0 -53 20t-21 50q0 37 26 62.5t62 25.5q33 0 53.5 -20t20.5 -50q0 -37 -26 -62.5t-62 -25.5zM329 607q17 0 29 11.5t12 30.5q0 14 -9 23.5t-24 9.5q-16 0 -28 -12.5t-12 -30.5q0 -14 9 -23t23 -9z" />
    <glyph glyph-name="ogonek" unicode="&#x2db;" horiz-adv-x="500" 
d="M184 -155q-77 0 -77 56q0 61 86 105l43 -4q-28 -16 -47 -40.5t-19 -45.5q0 -24 32 -24q19 0 43 10l-5 -47q-23 -10 -56 -10z" />
    <glyph glyph-name="tilde" unicode="&#x2dc;" horiz-adv-x="500" 
d="M243 576l-39 29q44 71 87 71q27 0 53 -23q16 -13 27 -13q25 0 49 43l39 -29q-44 -71 -86 -71q-26 0 -54 23q-14 13 -26 13q-28 0 -50 -43z" />
    <glyph glyph-name="hungarumlaut" unicode="&#x2dd;" horiz-adv-x="500" 
d="M264 565h-60l98 128h86zM396 565h-61l98 128h86z" />
    <glyph glyph-name="gravecomb" unicode="&#x300;" horiz-adv-x="0" 
d="M114 565h-58l-69 128h84z" />
    <glyph glyph-name="acutecomb" unicode="&#x301;" horiz-adv-x="0" 
d="M81 565h-65l98 128h91z" />
    <glyph glyph-name="uni0302" unicode="&#x302;" horiz-adv-x="0" 
d="M14 565h-66l106 128h79l50 -128h-58l-37 84z" />
    <glyph glyph-name="tildecomb" unicode="&#x303;" horiz-adv-x="0" 
d="M-7 576l-39 29q44 71 87 71q27 0 53 -23q16 -13 27 -13q25 0 49 43l39 -29q-44 -71 -86 -71q-26 0 -54 23q-14 13 -26 13q-28 0 -50 -43z" />
    <glyph glyph-name="uni0304" unicode="&#x304;" horiz-adv-x="0" 
d="M180 600h-212l12 59h213z" />
    <glyph glyph-name="uni0306" unicode="&#x306;" horiz-adv-x="0" 
d="M77 576q-45 0 -68.5 22t-23.5 61q0 1 2 23h48q-1 -3 -1 -11q0 -42 45 -42q53 0 71 53h47q-21 -106 -120 -106z" />
    <glyph glyph-name="uni0307" unicode="&#x307;" horiz-adv-x="0" 
d="M107 575h-75l22 108h76z" />
    <glyph glyph-name="uni0308" unicode="&#x308;" horiz-adv-x="0" 
d="M41 575h-70l22 108h71zM167 575h-70l23 108h70z" />
    <glyph glyph-name="uni030A" unicode="&#x30a;" horiz-adv-x="0" 
d="M76 565q-32 0 -53 20t-21 50q0 37 26 62.5t62 25.5q33 0 53.5 -20t20.5 -50q0 -37 -26 -62.5t-62 -25.5zM79 607q17 0 29 11.5t12 30.5q0 14 -9 23.5t-24 9.5q-16 0 -28 -12.5t-12 -30.5q0 -14 9 -23t23 -9z" />
    <glyph glyph-name="uni030B" unicode="&#x30b;" horiz-adv-x="0" 
d="M14 565h-61l99 128h86zM146 565h-61l98 128h86z" />
    <glyph glyph-name="uni030C" unicode="&#x30c;" horiz-adv-x="0" 
d="M107 565h-79l-50 128h58l36 -84l75 84h65z" />
    <glyph glyph-name="uni0312" unicode="&#x312;" horiz-adv-x="0" 
d="M107 575h-76l16 78l53 60h31l-40 -53h33z" />
    <glyph glyph-name="uni0326" unicode="&#x326;" horiz-adv-x="0" 
d="M-98 -184h-31l44 53h-34l18 84h76l-16 -77z" />
    <glyph glyph-name="uni0327" unicode="&#x327;" horiz-adv-x="0" 
d="M-87 -155q-81 0 -81 49q0 10 2 18h55l-2 -14q0 -18 29 -18q19 0 30.5 9.5t11.5 25.5q0 19 -32 19h-13l16 76h39l-14 -54q59 0 59 -44q0 -38 -24.5 -52.5t-75.5 -14.5z" />
    <glyph glyph-name="uni0328" unicode="&#x328;" horiz-adv-x="0" 
d="M-67 -155q-37 0 -57 15t-20 41q0 61 86 105l43 -4q-29 -18 -47.5 -41.5t-18.5 -44.5q0 -24 33 -24q19 0 42 10l-4 -47q-23 -10 -57 -10z" />
    <glyph glyph-name="uni0335" unicode="&#x335;" horiz-adv-x="0" 
d="M115 317h-202l14 67h202z" />
    <glyph glyph-name="uni0336" unicode="&#x336;" horiz-adv-x="0" 
d="M217 318h-406l14 64h406z" />
    <glyph glyph-name="uni0337" unicode="&#x337;" horiz-adv-x="0" 
d="M201 510l-369 -541l-33 25l369 541z" />
    <glyph glyph-name="uni0338" unicode="&#x338;" horiz-adv-x="0" 
d="M263 704l-446 -733l-38 25l446 733z" />
    <glyph glyph-name="uni0394" unicode="&#x394;" horiz-adv-x="401" 
d="M-37 0l279 700h107l-18 -700h-368zM274 608l-209 -540h189z" />
    <glyph glyph-name="uni03A9" unicode="&#x3a9;" horiz-adv-x="397" 
d="M270 710q73 0 113.5 -35t40.5 -100q0 -25 -6 -54l-43 -206q-17 -83 -50 -140q-30 -53 -87 -104h82l-15 -71h-141l14 74q46 46 71 94.5t41 120.5l52 245q4 23 4 34q0 71 -79 71q-70 0 -89 -88l-57 -268q-13 -65 -13 -104q0 -58 31 -110l-13 -69h-142l15 71h88l1 4
q-49 65 -49 148q0 45 11 98l50 234q16 75 60 115t110 40z" />
    <glyph glyph-name="uni03BC" unicode="&#x3bc;" horiz-adv-x="388" 
d="M247 154l74 349h77l-106 -503h-66l10 56q-42 -66 -112 -66q-29 0 -54 11l-33 -156h-76l140 658h77l-75 -352q-4 -17 -4 -37q0 -57 55 -57q33 0 57.5 25t35.5 72z" />
    <glyph glyph-name="pi" unicode="&#x3c0;" horiz-adv-x="438" 
d="M104 0h-76l93 439h-64l14 64h403l-14 -64h-63l-93 -439h-76l93 439h-124z" />
    <glyph glyph-name="uni1E02" unicode="&#x1e02;" horiz-adv-x="404" 
d="M337 762h-75l22 108h76zM169 0h-175l149 700h150q137 0 137 -111q0 -23 -6 -52l-6 -29q-12 -62 -37.5 -95t-69.5 -43v-1q63 -24 63 -100q0 -23 -6 -50l-13 -59q-17 -84 -61 -122t-125 -38zM208 629l-49 -228h63q94 0 115 99l7 36q5 28 5 38q0 30 -16 42.5t-50 12.5h-75z
M144 330l-55 -259h84q85 0 104 97l13 59q5 32 5 43q0 33 -19 46.5t-62 13.5h-70z" />
    <glyph glyph-name="uni1E03" unicode="&#x1e03;" horiz-adv-x="385" 
d="M179 870h76l-23 -108h-75zM269 513q51 0 79 -27t28 -77q0 -21 -7 -52l-49 -235q-28 -132 -131 -132q-45 0 -75 24t-37 67l-29 -81h-56l149 700h77l-50 -236q40 49 101 49zM245 134l47 223q4 15 4 33q0 56 -57 56q-34 0 -59.5 -25.5t-36.5 -74.5l-36 -170l1 1
q-5 -22 -5 -40q0 -38 18.5 -59t51.5 -21q55 0 72 77z" />
    <glyph glyph-name="uni1E0A" unicode="&#x1e0a;" horiz-adv-x="408" 
d="M341 762h-75l22 108h76zM164 0h-170l149 700h154q136 0 136 -119q0 -24 -6 -54l-77 -360q-18 -87 -62 -127t-124 -40zM208 629l-119 -558h76q83 0 106 99l78 367q4 17 4 38q0 29 -15 41.5t-49 12.5h-81z" />
    <glyph glyph-name="uni1E0B" unicode="&#x1e0b;" horiz-adv-x="384" 
d="M370 762l22 108h76l-23 -108h-75zM302 442l56 258h77l-122 -575q-18 -81 -16 -125h-72q-2 16 5 59q-42 -69 -114 -69q-51 0 -79 27t-28 77q0 23 6 53l50 235q27 131 130 131q83 0 107 -71zM146 57q33 0 57.5 24t36.5 70l40 187q0 6 0.5 12.5t1 10.5t0.5 6q0 38 -19 58.5
t-52 20.5q-56 0 -72 -76l-47 -224q-4 -21 -4 -33q0 -56 58 -56z" />
    <glyph glyph-name="uni1E1E" unicode="&#x1e1e;" horiz-adv-x="342" 
d="M333 762h-75l22 108h76zM74 0h-80l149 700h278l-15 -71h-198l-51 -238h159l-15 -71h-159z" />
    <glyph glyph-name="uni1E1F" unicode="&#x1e1f;" horiz-adv-x="262" 
d="M249 870h76l-23 -108h-75zM279 643q-21 0 -32.5 -12t-17.5 -39l-19 -89h91l-14 -64h-91l-93 -439h-77l94 439h-63l14 64h63l22 105q22 102 115 102q46 0 72 -16l-13 -64q-22 13 -51 13z" />
    <glyph glyph-name="uni1E40" unicode="&#x1e40;" horiz-adv-x="527" 
d="M410 762h-75l22 108h76zM65 0h-71l149 700h113l-16 -559l221 559h116l-149 -700h-77l125 584l-235 -584h-65l14 584z" />
    <glyph glyph-name="uni1E41" unicode="&#x1e41;" horiz-adv-x="592" 
d="M350 683h76l-23 -108h-75zM478 513q49 0 76 -26t27 -75q0 -25 -6 -55l-76 -357h-77l75 352q4 19 4 38q0 56 -53 56q-64 0 -88 -86q-1 -1 -1 -3l-76 -357h-77l75 352q5 30 5 38q0 56 -54 56q-33 0 -57 -26t-34 -74l-74 -346h-77l107 503h65l-11 -58q42 68 112 68
q86 0 101 -74q41 74 114 74z" />
    <glyph glyph-name="uni1E56" unicode="&#x1e56;" horiz-adv-x="385" 
d="M338 762h-75l22 108h76zM74 0h-80l149 700h152q131 0 131 -117q0 -25 -6 -55l-13 -61q-19 -87 -63.5 -126.5t-127.5 -39.5h-78zM208 629l-55 -257h70q45 0 69.5 23t34.5 74l15 69q4 17 4 36q0 30 -15 42.5t-48 12.5h-75z" />
    <glyph glyph-name="uni1E57" unicode="&#x1e57;" horiz-adv-x="384" 
d="M250 683h76l-23 -108h-75zM268 513q51 0 79 -27t28 -77q0 -21 -7 -52l-49 -235q-29 -132 -131 -132q-81 0 -106 69l-46 -214h-77l140 658h65l-10 -57q42 67 114 67zM244 134l47 223q4 15 4 33q0 56 -57 56q-65 0 -91 -81l-40 -188q0 -2 -1 -3l-1 -8q-3 -16 -3 -29
q0 -38 18.5 -59t51.5 -21q55 0 72 77z" />
    <glyph glyph-name="uni1E60" unicode="&#x1e60;" horiz-adv-x="369" 
d="M329 755h-75l22 108h76zM146 -10q-144 0 -144 128q0 30 7 57l5 24h75l-8 -37q-4 -21 -4 -34q0 -67 75 -67q46 0 70.5 34.5t24.5 88.5q0 69 -72 146q-88 94 -88 186q0 86 48 140t129 54q70 0 106.5 -32t36.5 -93q0 -22 -8 -59l-3 -13h-75l6 25q4 15 4 36q0 65 -73 65
q-44 0 -68 -32t-24 -82q0 -68 72 -146q88 -94 88 -188q0 -89 -48 -145t-132 -56z" />
    <glyph glyph-name="uni1E61" unicode="&#x1e61;" horiz-adv-x="339" 
d="M274 575h-75l22 108h76zM128 -10q-58 0 -93.5 30t-35.5 83q0 15 5 40l2 9h73l-4 -15q-3 -15 -3 -26q0 -27 17 -41t45 -14q37 0 58.5 23.5t21.5 56.5q0 28 -16 47.5t-52 42.5q-27 18 -45 32q-16 14 -30.5 42.5t-14.5 58.5q0 66 43 109q43 45 112 45q55 0 88.5 -29.5
t33.5 -80.5q0 -15 -5 -40h-71q4 21 4 32q0 24 -15 38t-40 14q-33 0 -54 -22.5t-21 -54.5q0 -26 16.5 -46.5t52.5 -43.5q40 -27 61 -49q30 -30 30 -84q0 -64 -44 -111q-43 -46 -119 -46z" />
    <glyph glyph-name="uni1E6A" unicode="&#x1e6a;" horiz-adv-x="361" 
d="M327 762h-75l22 108h76zM167 0h-80l134 629h-124l15 71h328l-16 -71h-124z" />
    <glyph glyph-name="uni1E6B" unicode="&#x1e6b;" horiz-adv-x="266" 
d="M204 818h76l-23 -108h-75zM286 439h-91l-70 -329l-2 -18q0 -35 43 -35q16 0 38 8l-9 -67q-24 -8 -56 -8q-45 0 -70 22.5t-25 63.5q0 17 4 32l71 331h-63l14 64h64l39 145h67l-31 -145h91z" />
    <glyph glyph-name="Wgrave" unicode="&#x1e80;" horiz-adv-x="558" 
d="M433 752h-58l-69 128h84zM158 0h-106l64 700h75l-57 -592l198 592h88l-54 -592l196 592h71l-233 -700h-101l45 546z" />
    <glyph glyph-name="wgrave" unicode="&#x1e81;" horiz-adv-x="534" 
d="M382 565h-58l-69 128h84zM151 0h-98l21 503h73l-16 -399l152 399h79l-18 -399l154 399h71l-193 -503h-93l12 363z" />
    <glyph glyph-name="Wacute" unicode="&#x1e82;" horiz-adv-x="558" 
d="M400 752h-65l98 128h91zM158 0h-106l64 700h75l-57 -592l198 592h88l-54 -592l196 592h71l-233 -700h-101l45 546z" />
    <glyph glyph-name="wacute" unicode="&#x1e83;" horiz-adv-x="534" 
d="M349 565h-65l98 128h91zM151 0h-98l21 503h73l-16 -399l152 399h79l-18 -399l154 399h71l-193 -503h-93l12 363z" />
    <glyph glyph-name="Wdieresis" unicode="&#x1e84;" horiz-adv-x="558" 
d="M360 762h-70l23 108h70zM486 762h-70l23 108h70zM158 0h-106l64 700h75l-57 -592l198 592h88l-54 -592l196 592h71l-233 -700h-101l45 546z" />
    <glyph glyph-name="wdieresis" unicode="&#x1e85;" horiz-adv-x="534" 
d="M309 575h-70l23 108h70zM435 575h-70l23 108h70zM151 0h-98l21 503h73l-16 -399l152 399h79l-18 -399l154 399h71l-193 -503h-93l12 363z" />
    <glyph glyph-name="uni1E9E" unicode="&#x1e9e;" horiz-adv-x="410" 
d="M143 700h323l-15 -72l-144 -215q78 -21 78 -109q0 -27 -6 -57l-17 -80q-17 -87 -61.5 -127t-124.5 -40h-38l15 71h30q41 0 64.5 22.5t34.5 74.5l19 89q4 15 4 34q0 57 -67 57h-24l13 67l145 214h-164l-134 -629h-80z" />
    <glyph glyph-name="Ygrave" unicode="&#x1ef2;" horiz-adv-x="393" 
d="M348 752h-58l-69 128h84zM182 0h-80l66 307l-57 393h80l36 -292l164 292h82l-225 -393z" />
    <glyph glyph-name="ygrave" unicode="&#x1ef3;" horiz-adv-x="362" 
d="M291 565h-58l-69 128h84zM323 503h75l-261 -575q-24 -49 -51.5 -71t-69.5 -22q-47 0 -70 17l14 63q20 -13 50 -13q20 0 32.5 10t23.5 34l26 55l-22 502h75l10 -381z" />
    <glyph glyph-name="uni2002" unicode="&#x2002;" horiz-adv-x="300" 
 />
    <glyph glyph-name="uni2003" unicode="&#x2003;" horiz-adv-x="500" 
 />
    <glyph glyph-name="uni2007" unicode="&#x2007;" 
 />
    <glyph glyph-name="uni2008" unicode="&#x2008;" horiz-adv-x="183" 
 />
    <glyph glyph-name="uni200B" unicode="&#x200b;" horiz-adv-x="0" 
 />
    <glyph glyph-name="figuredash" unicode="&#x2012;" 
d="M404 271h-400l13 58h400z" />
    <glyph glyph-name="endash" unicode="&#x2013;" horiz-adv-x="300" 
d="M304 271h-300l13 58h300z" />
    <glyph glyph-name="emdash" unicode="&#x2014;" horiz-adv-x="500" 
d="M504 271h-500l13 58h500z" />
    <glyph glyph-name="quoteleft" unicode="&#x2018;" horiz-adv-x="183" 
d="M177 702h38l-58 -108h28l-22 -101h-79l19 93z" />
    <glyph glyph-name="quoteright" unicode="&#x2019;" horiz-adv-x="183" 
d="M154 492h-39l58 108h-27l21 100h79l-19 -93z" />
    <glyph glyph-name="quotesinglbase" unicode="&#x201a;" horiz-adv-x="183" 
d="M7 -108h-39l58 108h-28l22 101h79l-19 -93z" />
    <glyph glyph-name="quotedblleft" unicode="&#x201c;" horiz-adv-x="309" 
d="M177 700h38l-58 -108h28l-22 -100h-79l19 93zM303 700h38l-58 -108h28l-22 -100h-79l19 93z" />
    <glyph glyph-name="quotedblright" unicode="&#x201d;" horiz-adv-x="309" 
d="M153 492h-38l58 108h-28l22 100h79l-19 -93zM279 492h-39l58 108h-27l21 100h79l-19 -93z" />
    <glyph glyph-name="quotedblbase" unicode="&#x201e;" horiz-adv-x="309" 
d="M7 -108h-39l58 108h-28l22 101h79l-19 -93zM132 -108h-38l58 108h-28l22 101h79l-19 -93z" />
    <glyph glyph-name="dagger" unicode="&#x2020;" horiz-adv-x="411" 
d="M167 -97h-71l114 535h-142l15 68h141l42 194h71l-42 -194h142l-15 -68h-141z" />
    <glyph glyph-name="daggerdbl" unicode="&#x2021;" horiz-adv-x="420" 
d="M172 -97h-71l43 206h-141l14 68h142l55 261h-141l14 68h142l41 194h71l-41 -194h141l-14 -68h-142l-55 -261h141l-14 -68h-142z" />
    <glyph glyph-name="bullet" unicode="&#x2022;" horiz-adv-x="300" 
d="M155 237q-26 0 -42.5 15.5t-16.5 39.5q0 30 21 49.5t51 19.5q25 0 41 -15.5t16 -39.5q0 -29 -21 -49t-49 -20z" />
    <glyph glyph-name="ellipsis" unicode="&#x2026;" horiz-adv-x="500" 
d="M69 0h-79l22 101h79zM236 0h-79l22 101h79zM403 0h-79l22 101h79z" />
    <glyph glyph-name="perthousand" unicode="&#x2030;" horiz-adv-x="823" 
d="M161 324q-48 0 -74 22t-26 64q0 20 4 35l35 165q10 48 38 73.5t71 25.5q48 0 74 -22.5t26 -64.5q0 -19 -4 -34l-36 -165q-19 -99 -108 -99zM123 0h-55l421 700h55zM161 373q44 0 54 52l37 173q3 10 3 19q0 43 -47 43q-44 0 -54 -52l-36 -173q-3 -12 -3 -20q0 -42 46 -42z
M403 -11q-48 0 -74.5 22.5t-26.5 64.5q0 19 4 34l35 166q23 99 109 99q48 0 74 -23t26 -64q0 -19 -4 -34l-35 -166q-23 -99 -108 -99zM657 -11q-48 0 -74.5 22.5t-26.5 64.5q0 19 4 34l35 166q23 99 109 99q48 0 74 -23t26 -64q0 -19 -4 -34l-35 -166q-23 -99 -108 -99z
M403 38q42 0 54 52l37 174q2 18 2 19q0 43 -47 43q-42 0 -54 -52l-36 -174q-2 -18 -2 -20q0 -42 46 -42zM657 38q42 0 54 52l37 174q2 18 2 19q0 43 -47 43q-42 0 -54 -52l-36 -174q-2 -18 -2 -20q0 -42 46 -42z" />
    <glyph glyph-name="guilsinglleft" unicode="&#x2039;" horiz-adv-x="179" 
d="M137 196h-56l-43 104l85 100h59l-77 -105z" />
    <glyph glyph-name="guilsinglright" unicode="&#x203a;" horiz-adv-x="179" 
d="M77 196h-60l77 105l-32 99h56l43 -104z" />
    <glyph glyph-name="fraction" unicode="&#x2044;" horiz-adv-x="87" 
d="M-118 0h-56l422 700h55z" />
    <glyph glyph-name="uni2070" unicode="&#x2070;" horiz-adv-x="283" 
d="M178 341q-48 0 -74.5 22.5t-26.5 64.5q0 19 4 34l52 244q23 99 109 99q48 0 74 -22.5t26 -64.5q0 -19 -4 -34l-52 -244q-22 -99 -108 -99zM178 390q42 0 54 52l54 252q2 18 2 19q0 43 -47 43q-42 0 -54 -52l-53 -252q-2 -18 -2 -20q0 -42 46 -42z" />
    <glyph glyph-name="uni2074" unicode="&#x2074;" horiz-adv-x="284" 
d="M245 351h-55l18 87h-141l9 49l203 308h60l-66 -309h35l-10 -48h-35zM267 700l-139 -214h91z" />
    <glyph glyph-name="uni2075" unicode="&#x2075;" horiz-adv-x="284" 
d="M179 341q-97 0 -97 86q0 13 4 34l3 15h51l-4 -24q-3 -10 -3 -19q0 -43 47 -43q43 0 53 52l20 99q3 12 3 21q0 41 -43 41q-39 0 -53 -45l-4 -12h-51l65 249h181l-11 -48h-132l-33 -127q23 32 65 32q73 0 73 -73q0 -22 -4 -37l-22 -102q-21 -99 -108 -99z" />
    <glyph glyph-name="uni2076" unicode="&#x2076;" horiz-adv-x="282" 
d="M179 341q-48 0 -73.5 22.5t-25.5 64.5q0 19 4 34l52 243q22 100 110 100q99 0 99 -87q0 -14 -3 -29h-53q3 15 3 27q0 40 -46 40q-45 0 -57 -59l-22 -100q25 33 68 33q36 0 56 -19t20 -54q0 -11 -5 -36l-17 -81q-24 -99 -110 -99zM181 390q43 0 53 52l17 77q0 4 0.5 9t1 8
t0.5 4q0 41 -45 41q-44 0 -56 -54l-15 -75q-2 -10 -2 -20q0 -42 46 -42z" />
    <glyph glyph-name="uni2077" unicode="&#x2077;" horiz-adv-x="283" 
d="M144 351h-60l208 396h-149l11 48h204l-9 -47z" />
    <glyph glyph-name="uni2078" unicode="&#x2078;" horiz-adv-x="283" 
d="M73 430q0 19 4 32l8 40q16 70 68 86v1q-31 19 -31 60q0 11 4 31l5 27q23 98 114 98q45 0 71.5 -22.5t26.5 -63.5q0 -16 -3 -34l-6 -26q-12 -65 -65 -82v-1q35 -20 35 -65q0 -11 -4 -32l-9 -39q-21 -99 -113 -99q-48 0 -76.5 23.5t-28.5 65.5zM222 607q46 0 57 51l7 35
q3 11 3 19q0 44 -48 44q-44 0 -56 -53l-6 -35q-3 -10 -3 -18q0 -43 46 -43zM180 390q47 0 58 56l10 48q0 4 0.5 9t1 8t0.5 4q0 45 -51 45q-48 0 -58 -55l-10 -48q-3 -12 -3 -22q0 -45 52 -45z" />
    <glyph glyph-name="uni2079" unicode="&#x2079;" horiz-adv-x="282" 
d="M173 341q-99 0 -99 87q0 14 3 30h53q-3 -16 -3 -27q0 -41 46 -41q43 0 57 60l22 100q-27 -34 -68 -34q-36 0 -56 19t-20 55q0 10 5 35l17 81q22 99 110 99q48 0 73.5 -22.5t25.5 -63.5q0 -19 -4 -34l-52 -243q-23 -101 -110 -101zM211 565q43 0 56 54l15 76q2 10 2 20
q0 41 -46 41q-42 0 -53 -51l-17 -78q-2 -18 -2 -21q0 -41 45 -41z" />
    <glyph glyph-name="uni2080" unicode="&#x2080;" horiz-adv-x="283" 
d="M89 -75q-48 0 -74.5 22.5t-26.5 64.5q0 19 4 34l53 244q23 99 109 99q48 0 74 -22.5t26 -64.5q0 -19 -4 -34l-53 -244q-23 -99 -108 -99zM89 -26q44 0 54 52l54 252q3 10 3 19q0 43 -47 43q-44 0 -54 -52l-53 -252q-3 -11 -3 -20q0 -42 46 -42z" />
    <glyph glyph-name="uni2081" unicode="&#x2081;" horiz-adv-x="283" 
d="M125 -65h-55l77 357q-33 -10 -77 -11l3 40q71 2 108 58h38z" />
    <glyph glyph-name="uni2082" unicode="&#x2082;" horiz-adv-x="284" 
d="M173 -65h-199l12 56q11 50 36 85.5t76 74.5q46 34 68.5 62t30.5 63q2 10 2 22q0 42 -44 42q-43 0 -55 -52l-9 -42h-51l9 44q23 99 108 99q48 0 73 -22.5t25 -62.5q0 -18 -4 -33q-10 -42 -37.5 -77t-81.5 -77q-45 -34 -64 -58.5t-26 -56.5l-4 -19h146z" />
    <glyph glyph-name="uni2083" unicode="&#x2083;" horiz-adv-x="284" 
d="M86 -75q-99 0 -99 84q0 21 4 36l6 25h52l-7 -34q-3 -11 -3 -20q0 -42 46 -42q45 0 55 57l11 51q3 15 3 25q0 36 -41 36h-29l11 48h26q52 0 66 62l5 20q3 13 3 25q0 42 -47 42q-43 0 -53 -51l-7 -32h-51l7 33q20 99 107 99q99 0 99 -84q0 -13 -4 -34l-3 -15
q-15 -76 -72 -89v-2q36 -15 36 -63q0 -15 -3 -30l-10 -48q-20 -99 -108 -99z" />
    <glyph glyph-name="uni2084" unicode="&#x2084;" horiz-adv-x="284" 
d="M156 -65h-55l19 87h-142l9 49l203 308h61l-66 -309h35l-10 -48h-35zM178 284l-139 -214h91z" />
    <glyph glyph-name="uni2085" unicode="&#x2085;" horiz-adv-x="283" 
d="M90 -75q-48 0 -73 22.5t-25 63.5q0 13 4 34l3 15h52l-4 -24q-3 -11 -3 -19q0 -43 47 -43q43 0 53 52l20 99q3 12 3 21q0 41 -43 41q-40 0 -53 -45l-4 -12h-51l65 249h181l-11 -48h-132l-33 -127q23 32 65 32q73 0 73 -73q0 -22 -4 -37l-22 -102q-21 -99 -108 -99z" />
    <glyph glyph-name="uni2086" unicode="&#x2086;" horiz-adv-x="283" 
d="M91 -75q-48 0 -74 22.5t-26 64.5q0 19 4 34l53 243q22 100 110 100q99 0 99 -87q0 -14 -3 -29h-53q3 15 3 27q0 40 -46 40q-45 0 -57 -59l-22 -100q25 33 68 33q36 0 56 -19t20 -54q0 -11 -5 -36l-17 -81q-23 -99 -110 -99zM93 -26q43 0 53 52l17 77q0 4 0.5 9t1 8t0.5 4
q0 41 -45 41q-44 0 -56 -54l-15 -75q-2 -10 -2 -20q0 -42 46 -42z" />
    <glyph glyph-name="uni2087" unicode="&#x2087;" horiz-adv-x="283" 
d="M56 -65h-61l208 396h-148l10 48h205l-10 -47z" />
    <glyph glyph-name="uni2088" unicode="&#x2088;" horiz-adv-x="283" 
d="M-15 14q0 15 3 32l9 40q16 70 68 86v1q-31 19 -31 60q0 11 4 31l5 27q23 98 114 98q45 0 71.5 -22.5t26.5 -63.5q0 -16 -3 -34l-6 -26q-12 -65 -65 -82v-1q35 -20 35 -65q0 -11 -4 -32l-9 -39q-21 -99 -113 -99q-48 0 -76.5 23.5t-28.5 65.5zM134 191q46 0 57 51l7 35
q3 11 3 19q0 44 -48 44q-44 0 -56 -53l-6 -35q-3 -10 -3 -18q0 -43 46 -43zM92 -26q47 0 58 56l10 48q0 4 0.5 9t1 8t0.5 4q0 45 -51 45q-48 0 -58 -55l-10 -48q-3 -12 -3 -22q0 -45 52 -45z" />
    <glyph glyph-name="uni2089" unicode="&#x2089;" horiz-adv-x="283" 
d="M85 -75q-99 0 -99 87q0 14 3 30h53q-3 -16 -3 -27q0 -41 46 -41q44 0 57 60l22 100q-27 -34 -68 -34q-36 0 -56 19t-20 55q0 10 5 35l17 81q22 99 110 99q48 0 73.5 -22.5t25.5 -63.5q0 -19 -4 -34l-52 -243q-21 -101 -110 -101zM123 149q43 0 56 54l15 76q2 10 2 20
q0 41 -46 41q-42 0 -53 -51l-17 -78q-2 -18 -2 -21q0 -41 45 -41z" />
    <glyph glyph-name="Euro" unicode="&#x20ac;" 
d="M184 -10q-72 0 -110.5 34.5t-38.5 97.5q0 24 6 53l24 109h-32l9 46h33l15 66h-33l9 45h31l25 115q15 73 58 113.5t108 40.5q72 0 110.5 -34t38.5 -97q0 -30 -7 -55l-5 -22h-74l7 34q3 18 3 32q0 71 -74 71q-69 0 -87 -86l-23 -112h171l-9 -45h-171l-15 -66h172l-10 -46
h-171l-26 -122q-4 -15 -4 -32q0 -33 19.5 -51t55.5 -18q68 0 86 84l17 77h75l-17 -79q-16 -74 -58.5 -113.5t-107.5 -39.5z" />
    <glyph glyph-name="uni20B9" unicode="&#x20b9;" 
d="M129 700h336l-14 -63h-113q39 -35 36 -93h57l-13 -63h-50q-12 -71 -59.5 -113.5t-111.5 -42.5h-61l180 -325h-86l-180 325l12 63h109q107 0 120 93h-209l13 63h203q4 49 -18.5 71t-76.5 22h-88z" />
    <glyph glyph-name="uni20BF" unicode="&#x20bf;" 
d="M371 745l-17 -78q70 -22 70 -99q0 -21 -7 -52l-3 -15q-12 -62 -37.5 -96t-70.5 -46v-2q63 -25 63 -100q0 -23 -6 -49l-5 -23q-28 -133 -139 -155l-18 -85h-52l17 80h-65l-17 -80h-52l17 80h-74l15 71h44l108 508h-43l15 71h73l15 70h52l-15 -70h51h14l15 70h52zM334 490
l5 21q5 28 5 40q0 53 -65 53h-59l-45 -213h43q95 0 116 99zM282 193l5 25q6 26 6 43q0 32 -19 45.5t-61 13.5h-53l-48 -224h63q88 0 107 97z" />
    <glyph glyph-name="uni2113" unicode="&#x2113;" horiz-adv-x="232" 
d="M108 -10q-45 0 -70 21.5t-25 62.5q0 19 4 34l126 592h75l-125 -589q-3 -11 -3 -20q0 -33 37 -33q24 0 45 9l-9 -69q-24 -8 -55 -8z" />
    <glyph glyph-name="uni2116" unicode="&#x2116;" horiz-adv-x="659" 
d="M65 0h-71l149 700h102l18 -500l107 500h71l-149 -700h-82l-23 569zM540 285q-48 0 -74.5 24t-26.5 67q0 20 4 35l31 146q20 104 114 104q48 0 74.5 -24t26.5 -67q0 -20 -4 -35l-31 -146q-23 -104 -114 -104zM542 334q46 0 57 56l34 155l2 22q0 46 -51 46q-46 0 -56 -57
l-33 -155q0 -3 -0.5 -7t-1 -6.5t-0.5 -5v-3.5q0 -45 49 -45zM603 180h-205l11 48h205z" />
    <glyph glyph-name="uni2117" unicode="&#x2117;" horiz-adv-x="754" 
d="M647 92q-99 -102 -249 -102t-249 102q-99 104 -99 258q0 155 99 257q99 103 249 103t249 -103q99 -102 99 -257q0 -154 -99 -258zM398 44q127 0 210 86q83 88 83 220q0 133 -83 219q-82 87 -210 87q-127 0 -210 -86q-82 -85 -82 -220t82 -220q83 -86 210 -86zM367 127
h-58v428h110q109 0 109 -109v-39q0 -109 -109 -109h-52v-171zM367 501v-149h49q28 0 41 14t13 47v27q0 33 -13 47t-41 14h-49z" />
    <glyph glyph-name="uni2120" unicode="&#x2120;" horiz-adv-x="597" 
d="M87 426v20h51v-19q0 -46 47 -46t47 46q0 27 -14.5 42.5t-52.5 35.5q-42 20 -60 45t-18 63q0 42 25.5 67.5t70.5 25.5q46 0 71 -23.5t25 -65.5v-10h-51v9q0 45 -43 45q-20 0 -32 -11.5t-12 -32.5q0 -24 14 -39t54 -36q42 -22 59 -47t17 -63q0 -45 -26 -70.5t-73 -25.5
t-73 23.5t-26 66.5zM377 344h-47v356h78l64 -257l63 257h79v-356h-51v289l-72 -289h-41l-73 289v-289z" />
    <glyph glyph-name="trademark" unicode="&#x2122;" horiz-adv-x="599" 
d="M208 344h-54v307h-80v49h213v-49h-79v-307zM379 344h-47v356h78l64 -257l63 257h79v-356h-51v289l-72 -289h-41l-73 289v-289z" />
    <glyph glyph-name="uni2126" unicode="&#x2126;" horiz-adv-x="397" 
d="M270 710q73 0 113.5 -35t40.5 -100q0 -25 -6 -54l-43 -206q-17 -83 -50 -140q-30 -53 -87 -104h82l-15 -71h-141l14 74q46 46 71 94.5t41 120.5l52 245q4 23 4 34q0 71 -79 71q-70 0 -89 -88l-57 -268q-13 -65 -13 -104q0 -58 31 -110l-13 -69h-142l15 71h88l1 4
q-49 65 -49 148q0 45 11 98l50 234q16 75 60 115t110 40z" />
    <glyph glyph-name="estimated" unicode="&#x212e;" horiz-adv-x="821" 
d="M428 -10q-157 0 -269 106q-111 107 -111 254q0 148 111 254q112 106 269 106q158 0 268 -106q112 -106 112 -254v-9h-613q-8 0 -8 -7v-193q0 -5 11 -21q36 -52 97.5 -80t134.5 -28q146 0 244 120h56q-54 -67 -133.5 -104.5t-168.5 -37.5zM195 361h469q7 0 7 7v196
q0 9 -12 22q-42 49 -102 75.5t-127 26.5q-126 0 -232 -106q-11 -11 -11 -22v-192q0 -7 8 -7z" />
    <glyph glyph-name="uni2153" unicode="&#x2153;" horiz-adv-x="654" 
d="M166 0h-55l421 700h55zM194 256h-56l77 357q-34 -10 -76 -11l2 40q72 2 109 58h38zM471 -10q-99 0 -99 84q0 21 4 36l6 25h52l-8 -34q-2 -18 -2 -20q0 -42 46 -42q41 0 55 57l11 51q3 15 3 25q0 36 -41 36h-29l10 48h26q52 0 67 62l4 20q4 11 4 25q0 42 -47 42
q-42 0 -54 -51l-7 -32h-51l7 33q22 99 108 99q98 0 98 -84q0 -19 -4 -34l-3 -15q-15 -75 -71 -89v-2q36 -16 36 -63q0 -13 -4 -30l-9 -48q-19 -99 -108 -99z" />
    <glyph glyph-name="uni2154" unicode="&#x2154;" horiz-adv-x="654" 
d="M241 256h-199l12 57q11 50 36 85t76 74q46 34 68.5 62t30.5 63q2 10 2 22q0 42 -44 42q-43 0 -55 -52l-9 -42h-51l9 44q23 99 108 99q48 0 73 -22.5t25 -62.5q0 -18 -4 -33q-10 -42 -37.5 -77t-81.5 -77q-45 -34 -64 -58.5t-26 -56.5l-4 -18h146zM166 0h-55l421 700h55z
M471 -10q-99 0 -99 84q0 21 4 36l6 25h52l-8 -34q-2 -18 -2 -20q0 -42 46 -42q41 0 55 57l11 51q3 15 3 25q0 36 -41 36h-29l10 48h26q52 0 67 62l4 20q4 11 4 25q0 42 -47 42q-42 0 -54 -51l-7 -32h-51l7 33q22 99 108 99q98 0 98 -84q0 -19 -4 -34l-3 -15q-15 -75 -71 -89
v-2q36 -16 36 -63q0 -13 -4 -30l-9 -48q-19 -99 -108 -99z" />
    <glyph glyph-name="oneeighth" unicode="&#x215b;" horiz-adv-x="654" 
d="M166 0h-55l421 700h55zM194 256h-56l77 357q-34 -10 -76 -11l2 40q72 2 109 58h38zM370 79q0 19 4 32l8 40q16 70 68 86v1q-31 19 -31 60q0 11 4 31l5 27q23 98 114 98q45 0 71.5 -22.5t26.5 -63.5q0 -16 -3 -34l-6 -26q-12 -65 -65 -82v-1q35 -20 35 -65q0 -11 -4 -32
l-9 -39q-21 -99 -113 -99q-48 0 -76.5 23.5t-28.5 65.5zM519 256q47 0 57 51l7 35q3 11 3 19q0 44 -48 44q-44 0 -56 -53l-6 -35q-3 -11 -3 -18q0 -43 46 -43zM477 39q47 0 58 56l10 48q0 4 0.5 9t1 8t0.5 4q0 45 -51 45q-48 0 -58 -55l-10 -48q-3 -12 -3 -22q0 -45 52 -45z
" />
    <glyph glyph-name="threeeighths" unicode="&#x215c;" horiz-adv-x="654" 
d="M154 246q-48 0 -73 22t-25 62q0 21 4 36l5 25h52l-7 -34q-3 -11 -3 -20q0 -42 46 -42q44 0 55 57l11 51q3 15 3 25q0 36 -41 36h-29l11 48h26q52 0 66 62l5 20q3 14 3 25q0 42 -47 42q-42 0 -53 -51l-7 -32h-51l7 33q20 99 107 99q99 0 99 -84q0 -13 -4 -34l-3 -15
q-15 -76 -72 -89v-2q36 -15 36 -63q0 -15 -3 -30l-10 -48q-20 -99 -108 -99zM166 0h-55l421 700h55zM370 79q0 19 4 32l8 40q16 70 68 86v1q-31 19 -31 60q0 11 4 31l5 27q23 98 114 98q45 0 71.5 -22.5t26.5 -63.5q0 -16 -3 -34l-6 -26q-12 -65 -65 -82v-1q35 -20 35 -65
q0 -11 -4 -32l-9 -39q-21 -99 -113 -99q-48 0 -76.5 23.5t-28.5 65.5zM519 256q47 0 57 51l7 35q3 11 3 19q0 44 -48 44q-44 0 -56 -53l-6 -35q-3 -11 -3 -18q0 -43 46 -43zM477 39q47 0 58 56l10 48q0 4 0.5 9t1 8t0.5 4q0 45 -51 45q-48 0 -58 -55l-10 -48q-3 -12 -3 -22
q0 -45 52 -45z" />
    <glyph glyph-name="fiveeighths" unicode="&#x215d;" horiz-adv-x="654" 
d="M159 246q-48 0 -73 22.5t-25 63.5q0 13 4 34l3 15h52l-5 -24q-2 -18 -2 -19q0 -43 47 -43q43 0 53 52l20 99q0 4 0.5 9t1 8t0.5 4q0 41 -43 41q-38 0 -53 -45l-4 -12h-51l66 249h180l-10 -48h-132l-33 -127q23 32 64 32q73 0 73 -73q0 -22 -4 -37l-21 -102
q-21 -99 -108 -99zM166 0h-55l421 700h55zM370 79q0 19 4 32l8 40q16 70 68 86v1q-31 19 -31 60q0 11 4 31l5 27q23 98 114 98q45 0 71.5 -22.5t26.5 -63.5q0 -16 -3 -34l-6 -26q-12 -65 -65 -82v-1q35 -20 35 -65q0 -11 -4 -32l-9 -39q-21 -99 -113 -99q-48 0 -76.5 23.5
t-28.5 65.5zM519 256q47 0 57 51l7 35q3 11 3 19q0 44 -48 44q-44 0 -56 -53l-6 -35q-3 -11 -3 -18q0 -43 46 -43zM477 39q47 0 58 56l10 48q0 4 0.5 9t1 8t0.5 4q0 45 -51 45q-48 0 -58 -55l-10 -48q-3 -12 -3 -22q0 -45 52 -45z" />
    <glyph glyph-name="seveneighths" unicode="&#x215e;" horiz-adv-x="653" 
d="M124 256h-60l208 396h-149l11 48h204l-9 -47zM165 0h-55l421 700h55zM369 79q0 19 4 32l8 40q16 70 68 86v1q-31 19 -31 60q0 11 4 31l5 27q23 98 114 98q45 0 71.5 -22.5t26.5 -63.5q0 -16 -3 -34l-6 -26q-12 -65 -65 -82v-1q35 -20 35 -65q0 -11 -4 -32l-9 -39
q-21 -99 -113 -99q-48 0 -76.5 23.5t-28.5 65.5zM518 256q46 0 57 51l7 35q3 11 3 19q0 44 -48 44q-44 0 -56 -53l-6 -35q-3 -11 -3 -18q0 -43 46 -43zM476 39q47 0 58 56l10 48q0 4 0.5 9t1 8t0.5 4q0 45 -51 45q-48 0 -58 -55l-10 -48q-3 -12 -3 -22q0 -45 52 -45z" />
    <glyph glyph-name="partialdiff" unicode="&#x2202;" horiz-adv-x="413" 
d="M205 -10q-78 0 -119 40.5t-41 116.5q0 16 1 21l9 121q10 154 134 154q86 0 115 -74l11 159q1 4 1 19q0 93 -82 93q-77 0 -85 -95l-1 -15h-74l1 13q14 167 160 167q159 0 159 -158q0 -18 -1 -24l-26 -370q-6 -82 -47.5 -125t-114.5 -43zM205 61q78 0 84 94l8 112
q3 49 -18.5 76.5t-65.5 27.5q-74 0 -81 -91l-8 -120v-12q0 -87 81 -87z" />
    <glyph glyph-name="emptyset" unicode="&#x2205;" horiz-adv-x="685" 
d="M164 91l-60 -62l-48 44l62 65q-69 86 -69 207q0 139 88 230q89 93 225 93q114 0 199 -69l59 63l49 -45l-63 -65q69 -86 69 -207q0 -137 -89 -231q-89 -92 -224 -92q-112 0 -198 69zM170 193l341 355q-64 53 -149 53q-103 0 -170 -73q-68 -73 -68 -183q0 -90 46 -152z
M362 89q104 0 171 72q68 74 68 184q0 88 -47 153l-341 -355q65 -54 149 -54z" />
    <glyph glyph-name="uni2206" unicode="&#x2206;" horiz-adv-x="401" 
d="M-37 0l279 700h107l-18 -700h-368zM274 608l-209 -540h189z" />
    <glyph glyph-name="product" unicode="&#x220f;" horiz-adv-x="465" 
d="M155 -155h-78v855h352v-855h-78v784h-196v-784z" />
    <glyph glyph-name="summation" unicode="&#x2211;" horiz-adv-x="410" 
d="M411 -155h-351v70l195 359l-195 356v70h351v-71h-265l192 -356l-192 -357h265v-71z" />
    <glyph glyph-name="minus" unicode="&#x2212;" 
d="M381 270h-340v60h340v-60z" />
    <glyph glyph-name="uni2215" unicode="&#x2215;" 
d="M33 0h-67l444 700h66z" />
    <glyph glyph-name="uni2219" unicode="&#x2219;" horiz-adv-x="186" 
d="M162 301h-99v99h99v-99z" />
    <glyph glyph-name="radical" unicode="&#x221a;" horiz-adv-x="466" 
d="M286 -65h-81l-85 385h-76v60h138l70 -330l152 650h63z" />
    <glyph glyph-name="infinity" unicode="&#x221e;" horiz-adv-x="637" 
d="M184 141q-69 0 -106 46q-36 47 -36 115q0 69 37.5 113.5t103.5 44.5q45 0 77 -23t65 -77h3q55 100 145 100q69 0 105 -47q37 -46 37 -114q0 -70 -37 -114t-104 -44q-45 0 -77 23t-65 77h-4q-52 -100 -144 -100zM189 203q35 0 58 22t48 79q-31 55 -53 75t-54 20
q-37 0 -59 -27t-22 -70q0 -44 22 -71.5t60 -27.5zM468 201q37 0 59.5 27.5t22.5 70.5q0 44 -22 71.5t-60 27.5q-33 0 -55 -21t-53 -80q36 -59 55 -77q20 -19 53 -19z" />
    <glyph glyph-name="integral" unicode="&#x222b;" 
d="M132 -170q-38 0 -61 10v72q19 -12 47 -12q53 0 53 61v663q0 126 116 126q38 0 61 -10v-71q-20 11 -46 11q-53 0 -53 -61v-663q0 -62 -30 -94t-87 -32z" />
    <glyph glyph-name="approxequal" unicode="&#x2248;" 
d="M82 317l-44 33q28 50 53.5 72t59.5 22q32 0 76 -31q47 -30 64 -30q19 0 33 13.5t37 50.5l44 -33q-29 -50 -54.5 -72t-59.5 -22q-30 0 -76 31q-44 29 -63 30q-19 0 -33 -13.5t-37 -50.5zM82 154l-44 33q28 50 53.5 72t59.5 22q32 0 76 -31q47 -30 64 -30q19 0 33 13.5
t37 50.5l44 -33q-29 -50 -54.5 -72t-59.5 -22q-30 0 -76 31q-44 29 -63 30q-19 0 -33 -13.5t-37 -50.5z" />
    <glyph glyph-name="notequal" unicode="&#x2260;" 
d="M116 92h-61l59 97h-63v60h98l63 102h-161v60h196l59 97h60l-58 -97h63v-60h-99l-63 -102h162v-60h-197z" />
    <glyph glyph-name="lessequal" unicode="&#x2264;" 
d="M357 266v-62l-300 114v57l300 114v-62l-218 -80zM357 112h-300v60h300v-60z" />
    <glyph glyph-name="greaterequal" unicode="&#x2265;" 
d="M365 318l-300 -114v62l218 81l-218 80v62l300 -114v-57zM365 112h-300v60h300v-60z" />
    <glyph glyph-name="lozenge" unicode="&#x25ca;" 
d="M237 -10h-28l-162 360l162 360h28l162 -360zM114 350l109 -254l109 254l-109 255z" />
    <glyph glyph-name="uniE0FF" unicode="&#xe0ff;" horiz-adv-x="532" 
 />
    <glyph glyph-name="uniEFFD" unicode="&#xeffd;" horiz-adv-x="532" 
 />
    <glyph glyph-name="uniF000" unicode="&#xf000;" horiz-adv-x="532" 
 />
    <glyph glyph-name="uniF8FF" unicode="&#xf8ff;" horiz-adv-x="634" 
d="M284 494h59v116h156v-116h132v-152h-132v-60q0 -110 -63 -174t-165 -64q-101 0 -165 62q-63 63 -63 163t65 162q64 63 176 63zM343 281v61h-60q-39 0 -61 -20q-21 -20 -21 -52t20 -52q23 -18 51 -20t51 21.5t20 61.5z" />
    <glyph glyph-name="_1" horiz-adv-x="0" 
 />
    <glyph glyph-name="CR.001" horiz-adv-x="333" 
 />
    <glyph glyph-name="NULL" horiz-adv-x="0" 
 />
    <glyph glyph-name="uni00A40301" horiz-adv-x="261" 
d="M288 752h-65l98 128h91zM39 -4q-49 0 -76 13l15 70q27 -11 55 -11q67 0 83 79l117 553h80l-119 -559q-30 -145 -155 -145z" />
    <glyph glyph-name="i.loclTRK" horiz-adv-x="172" 
d="M193 575h-75l22 108h76zM71 0h-77l107 503h77z" />
    <glyph glyph-name="germandbls.calt" horiz-adv-x="410" 
d="M143 700h323l-15 -72l-144 -215q78 -21 78 -109q0 -27 -6 -57l-17 -80q-17 -87 -61.5 -127t-124.5 -40h-38l15 71h30q41 0 64.5 22.5t34.5 74.5l19 89q4 15 4 34q0 57 -67 57h-24l13 67l145 214h-164l-134 -629h-80z" />
    <glyph glyph-name="zero.tf" 
d="M170 -10q-73 0 -114 35.5t-41 101.5q0 24 6 51l80 377q33 155 170 155q73 0 114 -35.5t41 -100.5q0 -25 -6 -52l-80 -378q-31 -154 -170 -154zM175 61q68 0 86 87l82 387q4 15 4 33q0 71 -79 71q-70 0 -88 -87l-82 -387q-4 -15 -4 -32q0 -72 81 -72z" />
    <glyph glyph-name="one.tf" 
d="M235 0h-80l124 572q-52 -21 -124 -22l7 58q110 1 165 92h59z" />
    <glyph glyph-name="two.tf" 
d="M300 0h-312l18 79q16 80 59 140q44 59 121 117q75 58 109 98q37 43 47 94q5 25 5 40q0 71 -76 71q-72 0 -90 -87l-15 -72h-75l16 75q33 155 169 155q75 0 113 -35t38 -98q0 -24 -7 -55q-14 -64 -58 -120.5t-127 -120.5q-66 -50 -103 -92q-34 -40 -44 -92l-5 -26h232z" />
    <glyph glyph-name="three.tf" 
d="M167 -10q-77 0 -115.5 34.5t-38.5 98.5q0 24 6 54l8 37h75l-10 -49q-4 -15 -4 -33q0 -71 79 -71q70 0 91 94l16 74q4 17 4 38q0 63 -70 63h-44l15 71h41q42 0 71 25t38 73l7 35q4 13 4 32q0 73 -75 73q-67 0 -86 -85l-12 -50h-75l12 52q33 154 165 154q72 0 111.5 -34.5
t39.5 -97.5q0 -26 -6 -54l-4 -15q-26 -123 -114 -142v-1q61 -25 61 -100q0 -15 -5 -43l-17 -80q-35 -153 -168 -153z" />
    <glyph glyph-name="four.tf" 
d="M273 0h-80l30 141h-227l15 72l321 487h90l-104 -488h56l-15 -71h-56zM313 562l-228 -350h153z" />
    <glyph glyph-name="five.tf" 
d="M172 -10q-73 0 -113 35t-40 99q0 26 6 54l8 32h74l-9 -44q-4 -15 -4 -33q0 -72 80 -72q68 0 88 87l31 149q5 22 5 40q0 66 -69 66q-65 0 -96 -84h-75l103 381h278l-15 -71h-206l-59 -210q48 55 108 55q53 0 83 -31t30 -86q0 -33 -7 -62l-32 -150q-16 -75 -59.5 -115
t-109.5 -40z" />
    <glyph glyph-name="six.tf" 
d="M172 -10q-74 0 -114 35t-40 99q0 26 6 54l80 374q35 158 170 158q74 0 114 -34.5t40 -98.5q0 -23 -6 -52h-75q6 25 6 45q0 69 -80 69q-71 0 -92 -99l-33 -156q43 58 112 58q56 0 87 -30t31 -86q0 -23 -7 -58l-27 -124q-17 -75 -61 -114.5t-111 -39.5zM175 61q71 0 89 86
l26 121q4 15 4 35q0 68 -73 68q-36 0 -61 -25t-34 -67l-25 -115q-4 -15 -4 -34q0 -69 78 -69z" />
    <glyph glyph-name="seven.tf" 
d="M115 0h-87l330 629h-239l16 71h320l-15 -69z" />
    <glyph glyph-name="eight.tf" 
d="M167 -10q-71 0 -114 35.5t-43 100.5q0 24 6 51l13 64q24 108 109 132v2q-51 31 -51 97q0 15 5 47l9 41q33 150 175 150q70 0 111 -34t41 -97q0 -23 -6 -52l-8 -42q-22 -102 -105 -129v-1q55 -31 55 -102q0 -25 -4 -44l-15 -66q-33 -153 -178 -153zM240 396q74 0 93 82
l13 59q4 20 4 32q0 34 -21.5 52t-58.5 18q-73 0 -91 -85l-13 -59q-3 -15 -3 -29q0 -33 21 -51.5t56 -18.5zM173 61q74 0 96 94l15 69q3 16 3 30q0 36 -22 54.5t-60 18.5q-77 0 -97 -86l-14 -68q-4 -23 -4 -36q0 -37 22.5 -56.5t60.5 -19.5z" />
    <glyph glyph-name="nine.tf" 
d="M169 -11q-74 0 -114 34.5t-40 99.5q0 25 5 52h76q-6 -25 -6 -45q0 -69 79 -69q36 0 58.5 24t33.5 75l33 156q-40 -58 -111 -58q-56 0 -87 30t-31 86q0 31 7 58l27 124q16 75 60 114.5t111 39.5q75 0 114.5 -35t39.5 -99q0 -26 -6 -54l-80 -374q-34 -159 -169 -159z
M221 329q36 0 61 24.5t35 67.5l25 115q4 21 4 34q0 69 -79 69q-69 0 -89 -86l-26 -121q-4 -23 -4 -35q0 -68 73 -68z" />
    <glyph glyph-name="zero.dnom" horiz-adv-x="283" 
d="M103 -10q-48 0 -74 22.5t-26 64.5q0 19 4 34l52 244q23 99 109 99q48 0 74 -22.5t26 -64.5q0 -19 -4 -34l-53 -244q-23 -99 -108 -99zM103 39q44 0 54 52l54 252q3 11 3 19q0 43 -47 43q-44 0 -54 -52l-53 -252q-3 -11 -3 -20q0 -42 46 -42z" />
    <glyph glyph-name="one.dnom" horiz-adv-x="283" 
d="M139 0h-55l77 357q-33 -10 -77 -11l3 40q71 2 108 58h38z" />
    <glyph glyph-name="two.dnom" horiz-adv-x="283" 
d="M187 0h-200l12 57q12 50 37.5 84.5t75.5 74.5q48 37 69.5 64t28.5 61q3 12 3 22q0 42 -44 42q-45 0 -55 -52l-9 -42h-52l10 44q23 99 108 99q47 0 72 -22.5t25 -62.5q0 -18 -4 -33q-17 -78 -118 -154q-45 -34 -64 -58.5t-26 -56.5l-4 -18h145z" />
    <glyph glyph-name="three.dnom" horiz-adv-x="283" 
d="M100 -10q-99 0 -99 84q0 21 4 36l6 25h52l-8 -34q-2 -18 -2 -20q0 -42 46 -42q41 0 55 57l11 51q3 15 3 25q0 36 -41 36h-29l10 48h26q52 0 67 62l4 20q4 11 4 25q0 42 -47 42q-42 0 -54 -51l-7 -32h-51l7 33q23 99 108 99q98 0 98 -84q0 -19 -4 -34l-3 -15
q-15 -75 -71 -89v-2q36 -16 36 -63q0 -13 -4 -30l-9 -48q-20 -99 -108 -99z" />
    <glyph glyph-name="four.dnom" horiz-adv-x="283" 
d="M170 0h-55l18 87h-142l10 49l203 308h60l-66 -309h35l-10 -48h-35zM192 349l-139 -214h91z" />
    <glyph glyph-name="five.dnom" horiz-adv-x="283" 
d="M104 -10q-97 0 -97 86q0 13 4 34l3 15h51l-4 -24q-3 -11 -3 -19q0 -43 47 -43q43 0 53 52l20 99q3 12 3 21q0 41 -43 41q-40 0 -53 -45l-4 -12h-51l65 249h181l-11 -48h-132l-33 -127q23 32 65 32q73 0 73 -73q0 -22 -4 -37l-22 -102q-21 -99 -108 -99z" />
    <glyph glyph-name="six.dnom" horiz-adv-x="283" 
d="M105 -10q-48 0 -73.5 22.5t-25.5 64.5q0 19 4 34l52 243q22 100 110 100q99 0 99 -87q0 -14 -3 -29h-53q3 15 3 27q0 40 -46 40q-45 0 -57 -59l-22 -100q26 33 68 33q36 0 56 -19t20 -54q0 -11 -5 -36l-17 -81q-24 -99 -110 -99zM107 39q43 0 53 52l17 77q0 4 0.5 9t1 8
t0.5 4q0 41 -45 41q-44 0 -56 -54l-15 -75q-2 -10 -2 -20q0 -42 46 -42z" />
    <glyph glyph-name="seven.dnom" horiz-adv-x="283" 
d="M69 0h-60l208 396h-149l11 48h204l-9 -47z" />
    <glyph glyph-name="eight.dnom" horiz-adv-x="283" 
d="M-1 79q0 19 4 32l8 40q16 70 68 86v1q-31 19 -31 60q0 11 4 31l5 27q23 98 114 98q45 0 71.5 -22.5t26.5 -63.5q0 -16 -3 -34l-6 -26q-12 -65 -65 -82v-1q35 -20 35 -65q0 -11 -4 -32l-9 -39q-21 -99 -113 -99q-48 0 -76.5 23.5t-28.5 65.5zM148 256q46 0 57 51l7 35
q3 10 3 19q0 44 -48 44q-44 0 -56 -53l-6 -35q-3 -11 -3 -18q0 -43 46 -43zM106 39q47 0 58 56l10 48q0 4 0.5 9t1 8t0.5 4q0 45 -51 45q-48 0 -58 -55l-10 -48q-3 -12 -3 -22q0 -45 52 -45z" />
    <glyph glyph-name="nine.dnom" horiz-adv-x="283" 
d="M99 -10q-99 0 -99 87q0 13 3 30h53q-3 -17 -3 -27q0 -41 46 -41q43 0 57 60l22 100q-27 -34 -68 -34q-36 0 -56 19t-20 55q0 10 5 35l17 81q22 99 110 99q48 0 73.5 -22.5t25.5 -63.5q0 -19 -4 -34l-52 -243q-23 -101 -110 -101zM137 214q43 0 56 54l15 76q2 10 2 20
q0 41 -46 41q-42 0 -53 -51l-17 -78q-2 -18 -2 -21q0 -41 45 -41z" />
    <glyph glyph-name="zero.numr" horiz-adv-x="283" 
d="M157 246q-48 0 -74 22.5t-26 64.5q0 19 4 34l52 244q23 99 109 99q48 0 74 -22.5t26 -64.5q0 -19 -4 -34l-53 -244q-23 -99 -108 -99zM157 295q44 0 54 52l54 252q3 11 3 19q0 43 -47 43q-44 0 -54 -52l-53 -252q-3 -11 -3 -20q0 -42 46 -42z" />
    <glyph glyph-name="one.numr" horiz-adv-x="284" 
d="M194 256h-56l77 357q-34 -10 -76 -11l2 40q72 2 109 58h38z" />
    <glyph glyph-name="two.numr" horiz-adv-x="284" 
d="M241 256h-199l12 57q11 50 36 85t76 74q46 34 68.5 62t30.5 63q2 10 2 22q0 42 -44 42q-43 0 -55 -52l-9 -42h-51l9 44q23 99 108 99q48 0 73 -22.5t25 -62.5q0 -18 -4 -33q-10 -42 -37.5 -77t-81.5 -77q-45 -34 -64 -58.5t-26 -56.5l-4 -18h146z" />
    <glyph glyph-name="three.numr" horiz-adv-x="284" 
d="M154 246q-48 0 -73 22t-25 62q0 21 4 36l5 25h52l-7 -34q-3 -11 -3 -20q0 -42 46 -42q44 0 55 57l11 51q3 15 3 25q0 36 -41 36h-29l11 48h26q52 0 66 62l5 20q3 14 3 25q0 42 -47 42q-42 0 -53 -51l-7 -32h-51l7 33q20 99 107 99q99 0 99 -84q0 -13 -4 -34l-3 -15
q-15 -76 -72 -89v-2q36 -15 36 -63q0 -15 -3 -30l-10 -48q-20 -99 -108 -99z" />
    <glyph glyph-name="four.numr" horiz-adv-x="284" 
d="M225 256h-55l18 87h-141l9 49l203 308h60l-66 -309h35l-10 -48h-35zM247 605l-139 -214h91z" />
    <glyph glyph-name="five.numr" horiz-adv-x="284" 
d="M159 246q-48 0 -73 22.5t-25 63.5q0 13 4 34l3 15h52l-5 -24q-2 -18 -2 -19q0 -43 47 -43q43 0 53 52l20 99q0 4 0.5 9t1 8t0.5 4q0 41 -43 41q-38 0 -53 -45l-4 -12h-51l66 249h180l-10 -48h-132l-33 -127q23 32 64 32q73 0 73 -73q0 -22 -4 -37l-21 -102
q-21 -99 -108 -99z" />
    <glyph glyph-name="six.numr" horiz-adv-x="282" 
d="M159 246q-48 0 -73.5 22.5t-25.5 64.5q0 19 4 34l52 243q22 100 110 100q99 0 99 -87q0 -14 -3 -29h-53q3 15 3 27q0 40 -46 40q-45 0 -57 -59l-22 -100q25 33 68 33q36 0 56 -19t20 -54q0 -11 -5 -36l-17 -81q-24 -99 -110 -99zM161 295q43 0 53 52l17 77q0 4 0.5 9t1 8
t0.5 4q0 41 -45 41q-44 0 -56 -54l-15 -75q-2 -10 -2 -20q0 -42 46 -42z" />
    <glyph glyph-name="seven.numr" horiz-adv-x="283" 
d="M124 256h-60l208 396h-149l11 48h204l-9 -47z" />
    <glyph glyph-name="eight.numr" horiz-adv-x="283" 
d="M53 335q0 19 4 32l8 40q16 70 68 86v1q-31 19 -31 60q0 11 4 31l5 27q23 98 114 98q45 0 71.5 -22.5t26.5 -63.5q0 -16 -3 -34l-6 -26q-12 -65 -65 -82v-1q35 -20 35 -65q0 -11 -4 -32l-9 -39q-21 -99 -113 -99q-48 0 -76.5 23.5t-28.5 65.5zM202 512q46 0 57 51l7 35
q3 10 3 19q0 44 -48 44q-44 0 -56 -53l-6 -35q-3 -11 -3 -18q0 -43 46 -43zM160 295q47 0 58 56l10 48q0 4 0.5 9t1 8t0.5 4q0 45 -51 45q-48 0 -58 -55l-10 -48q-3 -12 -3 -22q0 -45 52 -45z" />
    <glyph glyph-name="nine.numr" horiz-adv-x="282" 
d="M153 246q-99 0 -99 87q0 13 3 30h53q-3 -17 -3 -27q0 -41 46 -41q43 0 57 60l22 100q-27 -34 -68 -34q-36 0 -56 19t-20 55q0 10 5 35l17 81q22 99 110 99q48 0 73.5 -22.5t25.5 -63.5q0 -19 -4 -34l-52 -243q-23 -101 -110 -101zM191 470q43 0 56 54l15 76q2 10 2 20
q0 41 -46 41q-42 0 -53 -51l-17 -78q-2 -18 -2 -21q0 -41 45 -41z" />
    <glyph glyph-name="caroncomb.alt" horiz-adv-x="0" 
d="M56 512h-34l44 94h-27l21 94h72l-18 -87z" />
    <glyph glyph-name="caron.alt" horiz-adv-x="500" 
d="M306 512h-34l44 94h-27l21 94h72l-18 -87z" />
    </font>
</defs>
</svg>
