<svg xmlns="http://www.w3.org/2000/svg">
<defs>
<font id="BebasNeuePro-BookItalic" horiz-adv-x="400" >
  <font-face 
    font-family="Bebas Neue Pro Book"
    font-weight="350"
    font-style="italic"
    font-stretch="normal"
    units-per-em="1000"
    panose-1="2 11 4 6 2 2 2 12 2 1"
    ascent="811"
    descent="-189"
    x-height="496"
    cap-height="700"
    bbox="-212 -214 808 902"
    underline-thickness="40"
    underline-position="-160"
    slope="-12"
    unicode-range="U+000D-FB02"
  />
<missing-glyph horiz-adv-x="738" 
d="M75 0v700h630v-700h-630zM173 134h434v432h-434v-432zM189 550h114v-112h-114v112zM367 390h-32v16h-16v80h32v32h-32v32h16v-16h32v-16h16v16h-16v16h32v-16h16v16h16v-32h16v-16h-16v-32h-16v-16h-16v48h-32v-16h16v-32h-16v16h-32v-48h16v32h16v-16h16v16h16v-32h-32
v-32zM447 550h16v-32h-16v32zM479 550h112v-112h-112v112zM205 454h82v80h-82v-80zM495 454h80v80h-80v-80zM221 518h50v-48h-50v48zM511 518h48v-48h-48v48zM431 454v-32h-16v32h16zM463 438h-16v16h16v-16zM221 406v-16h17v-16h-33v16h-16v32h49v-16h-17zM303 422v-16h-16
v-16h-32v16h16v16h32zM447 390v-16h-16v48h16v-16h16v-16h-16zM463 390h16v16h-16v16h64v-16h-16v-16h16v16h16v-16h16v-16h-16v-16h-32v16h-32v-16h-16v32zM591 374h-16v16h-16v32h32v-48zM303 406h16v-32h-32v16h16v16zM399 406h16v-16h-16v16zM383 390v-16h-16v16h16z
M238 358v16h17v-16h-17zM287 358h32v-16h-64v16h16v16h16v-16zM335 326v48h16v-48h-16zM431 358h-16v16h16v-16zM189 358h16v-32h-16v32zM431 342h48v16h32v-32h48v-16h-48v-16h16v-32h16v-16h-16v-16h16v-16h32v-16h16v-16h-32v16h-32v-32h-32v-16h-16v16h-16v-16h-16v32
h-16v-32h-32v16h16v16h-16v-16h-32v16h16v32h-16v-16h-16v32h48v16h16v-32h-16v-16h32v48h16v16h-16v16h-16v-16h-16v32h16v16h16v-16h16v16h-16v32zM399 310v-16h-32v16h16v32h-16v16h32v-16h16v-32h-16zM591 310h-16v16h-16v16h16v16h16v-48zM255 294h-17v16h-17v16h17v16

<glyph glyph-name="fi" unicode="fi" horiz-adv-x="413" 
d="M293 496l-9 -39h-104l-98 -457h-46l98 457h-69l9 39h68l26 120q21 94 102 94q42 0 67 -16l-8 -39q-27 15 -58 15q-25 0 -38.5 -14.5t-20.5 -46.5l-24 -113h105zM383 577l21 100h45l-21 -100h-45zM306 0h-46l106 496h46z" />
    <glyph glyph-name="fl" unicode="fl" horiz-adv-x="413" 
d="M293 496l-9 -39h-104l-98 -457h-46l98 457h-69l9 39h68l26 120q21 94 102 94q42 0 67 -16l-8 -39q-27 15 -58 15q-25 0 -38.5 -14.5t-20.5 -46.5l-24 -113h105zM260 0l149 700h46l-149 -700h-46z" />
    <glyph glyph-name=".notdef" horiz-adv-x="738" 
d="M75 0v700h630v-700h-630zM173 134h434v432h-434v-432zM189 550h114v-112h-114v112zM367 390h-32v16h-16v80h32v32h-32v32h16v-16h32v-16h16v16h-16v16h32v-16h16v16h16v-32h16v-16h-16v-32h-16v-16h-16v48h-32v-16h16v-32h-16v16h-32v-48h16v32h16v-16h16v16h16v-32h-32
v-32zM447 550h16v-32h-16v32zM479 550h112v-112h-112v112zM205 454h82v80h-82v-80zM495 454h80v80h-80v-80zM221 518h50v-48h-50v48zM511 518h48v-48h-48v48zM431 454v-32h-16v32h16zM463 438h-16v16h16v-16zM221 406v-16h17v-16h-33v16h-16v32h49v-16h-17zM303 422v-16h-16
v-16h-32v16h16v16h32zM447 390v-16h-16v48h16v-16h16v-16h-16zM463 390h16v16h-16v16h64v-16h-16v-16h16v16h16v-16h16v-16h-16v-16h-32v16h-32v-16h-16v32zM591 374h-16v16h-16v32h32v-48zM303 406h16v-32h-32v16h16v16zM399 406h16v-16h-16v16zM383 390v-16h-16v16h16z
M238 358v16h17v-16h-17zM287 358h32v-16h-64v16h16v16h16v-16zM335 326v48h16v-48h-16zM431 358h-16v16h16v-16zM189 358h16v-32h-16v32zM431 342h48v16h32v-32h48v-16h-48v-16h16v-32h16v-16h-16v-16h16v-16h32v-16h16v-16h-32v16h-32v-32h-32v-16h-16v16h-16v-16h-16v32
h-16v-32h-32v16h16v16h-16v-16h-32v16h16v32h-16v-16h-16v32h48v16h16v-32h-16v-16h32v48h16v16h-16v16h-16v-16h-16v32h16v16h16v-16h16v16h-16v32zM399 310v-16h-32v16h16v32h-16v16h32v-16h16v-32h-16zM591 310h-16v16h-16v16h16v16h16v-48zM255 294h-17v16h-17v16h17v16
h17v-32h16v-32h-16v16zM319 326v-32h16v-32h-16v16h-32v16h16v16h-32v16h48zM351 326h16v-16h-16v16zM189 310h32v-16h-32v16zM335 310h16v-16h-16v16zM479 310h-16v-16h16v16zM238 278h-17v16h17v-16zM367 278h-16v16h16v-16zM559 294h16v-16h-16v16zM463 230h48v48h-48
v-48zM543 278h16v-16h-16v16zM559 230v16h16v32h16v-64h-16v16h-16zM189 262h114v-112h-114v112zM335 246v16h16v-32h-32v16h16zM383 246h-16v16h16v-16zM479 262h16v-16h-16v16zM205 166h82v80h-82v-80zM221 230h50v-48h-50v48zM447 198h16v16h-16v-16zM479 182h32v32h-32
v-32zM319 198h32v-32h16v-16h-48v48zM543 166v-16h-16v16h16zM591 150h-16v16h16v-16z" />
    <glyph glyph-name=".null" horiz-adv-x="0" 
 />
    <glyph glyph-name="nonmarkingreturn" horiz-adv-x="333" 
 />
    <glyph glyph-name="CR" unicode="&#xd;" horiz-adv-x="166" 
 />
    <glyph glyph-name="space" unicode=" " horiz-adv-x="166" 
 />
    <glyph glyph-name="exclam" unicode="!" horiz-adv-x="182" 
d="M92 166h-35l30 169l77 366h47l-77 -366zM62 0h-48l20 91h48z" />
    <glyph glyph-name="quotedbl" unicode="&#x22;" horiz-adv-x="255" 
d="M148 519h-26l27 181h48zM249 519h-26l27 181h48z" />
    <glyph glyph-name="numbersign" unicode="#" 
d="M53 0h-39l70 222h-64l11 35h65l71 226h-65l10 35h66l57 183h39l-56 -183h115l58 183h39l-57 -183h60l-11 -35h-60l-71 -226h59l-10 -35h-60l-71 -222h-39l70 222h-116zM206 483l-71 -226h117l70 226h-116z" />
    <glyph glyph-name="dollar" unicode="$" 
d="M328 745l-13 -60q99 -19 99 -117q0 -16 -5 -44l-5 -23l-43 4l5 26q3 17 3 30q0 67 -63 82l-60 -281q50 -50 71.5 -88.5t21.5 -79.5q0 -78 -46 -130q-46 -51 -121 -53l-14 -66h-39l14 69q-51 8 -78.5 39t-27.5 79q0 22 5 44l9 39l44 -3l-9 -44q-3 -16 -3 -30q0 -70 69 -82
l61 285q-51 51 -73 90.5t-22 81.5q0 76 46 125q46 51 120 51h3l12 56h39zM214 395l54 252q-52 -1 -82 -39t-30 -92q0 -56 58 -121zM291 190q0 54 -56 118l-55 -255q52 3 81.5 41t29.5 96z" />
    <glyph glyph-name="percent" unicode="%" horiz-adv-x="577" 
d="M164 322q-97 0 -97 85q0 19 4 34l36 171q10 47 37.5 72.5t68.5 25.5q47 0 72 -22.5t25 -62.5q0 -19 -4 -34l-36 -171q-20 -98 -106 -98zM119 0h-39l423 700h38zM164 357q55 0 68 64l37 177q3 14 3 24q0 53 -59 53q-55 0 -68 -64l-36 -177q-3 -14 -3 -25q0 -52 58 -52z
M407 -11q-97 0 -97 85q0 19 4 34l36 171q10 47 37.5 72.5t68.5 25.5q47 0 72 -22.5t25 -62.5q0 -19 -4 -34l-36 -171q-20 -98 -106 -98zM407 24q55 0 68 64l37 177q3 13 3 24q0 53 -59 53q-55 0 -68 -64l-36 -177q-3 -13 -3 -25q0 -52 58 -52z" />
    <glyph glyph-name="ampersand" unicode="&#x26;" horiz-adv-x="409" 
d="M407 525h-43q6 30 6 52q0 92 -98 92q-91 0 -116 -112l-14 -64q-4 -15 -4 -34q0 -79 87 -79h182l-9 -41h-29l-46 -215q-19 -91 -17 -124h-40q-2 26 6 65q-48 -75 -133 -75q-121 0 -121 109q0 15 5 45l16 78q24 112 118 137v2q-62 21 -62 99q0 23 5 45l12 55
q33 150 160 150q67 0 105 -32.5t38 -91.5q0 -24 -8 -61zM323 339h-104q-52 0 -87 -31t-48 -90l-16 -73q-4 -15 -4 -36q0 -80 86 -80q43 0 78.5 29.5t51.5 79.5z" />
    <glyph glyph-name="quotesingle" unicode="'" horiz-adv-x="154" 
d="M148 519h-27l28 181h48z" />
    <glyph glyph-name="parenleft" unicode="(" horiz-adv-x="256" 
d="M146 -100h-24q-109 0 -109 91q0 23 5 46l113 530q15 68 51 100.5t106 32.5h28l-8 -38h-21q-89 0 -112 -99l-113 -530q-4 -15 -4 -36q0 -30 16.5 -44.5t54.5 -14.5h25z" />
    <glyph glyph-name="parenright" unicode=")" horiz-adv-x="256" 
d="M-11 -100h-26l8 38h20q92 0 113 99l113 530q4 17 4 36q0 59 -72 59h-24l8 38h22q112 0 112 -91q0 -21 -6 -46l-113 -530q-15 -68 -51.5 -100.5t-107.5 -32.5z" />
    <glyph glyph-name="asterisk" unicode="*" horiz-adv-x="389" 
d="M254 513l-98 -126l-30 22l109 118l-140 36l17 37l135 -51l13 151h39l-29 -151l147 49l7 -37l-150 -34l76 -117l-33 -23z" />
    <glyph glyph-name="plus" unicode="+" 
d="M232 131h-42v149h-146v41h146v148h42v-148h146v-41h-146v-149z" />
    <glyph glyph-name="comma" unicode="," horiz-adv-x="166" 
d="M-1 -96h-23l48 96h-18l20 91h48l-18 -87z" />
    <glyph glyph-name="hyphen" unicode="-" horiz-adv-x="260" 
d="M232 281h-190l8 38h190z" />
    <glyph glyph-name="period" unicode="." horiz-adv-x="166" 
d="M54 0h-48l20 91h48z" />
    <glyph glyph-name="slash" unicode="/" horiz-adv-x="359" 
d="M-10 -100h-43l446 800h43z" />
    <glyph glyph-name="zero" unicode="0" 
d="M169 -10q-71 0 -109.5 34.5t-38.5 97.5q0 24 6 52l82 384q33 152 163 152q72 0 110.5 -34.5t38.5 -97.5q0 -24 -6 -52l-81 -385q-31 -151 -165 -151zM173 32q91 0 114 111l83 391q5 28 5 41q0 93 -104 93q-93 0 -115 -112l-84 -390q-5 -28 -5 -41q0 -93 106 -93z" />
    <glyph glyph-name="one" unicode="1" horiz-adv-x="262" 
d="M148 0h-47l131 609q-45 -39 -134 -44l5 38q104 8 158 97h37z" />
    <glyph glyph-name="two" unicode="2" horiz-adv-x="367" 
d="M279 0h-301l14 62q20 88 66 147q48 59 131 122q79 60 115.5 102t47.5 96q5 30 5 45q0 94 -99 94q-94 0 -118 -113l-13 -61h-44l14 63q33 153 164 153q72 0 107.5 -34.5t35.5 -96.5q0 -25 -6 -54q-14 -61 -56 -112t-124 -115q-79 -61 -122 -110t-56 -117l-6 -29h254z" />
    <glyph glyph-name="three" unicode="3" horiz-adv-x="378" 
d="M155 -10q-74 0 -111 34t-37 96q0 24 6 53l7 33h45l-9 -40q-5 -28 -5 -42q0 -92 104 -92q92 0 118 116l17 80q4 17 4 38q0 78 -85 78h-48l10 43h45q51 0 86.5 31t45.5 87l5 27q4 17 4 40q0 96 -100 96q-87 0 -113 -111l-11 -48h-45l11 49q33 152 160 152q71 0 108.5 -35
t37.5 -96q0 -25 -6 -52l-4 -18q-27 -123 -117 -142v-1q63 -22 63 -100q0 -14 -5 -42l-18 -83q-31 -151 -163 -151z" />
    <glyph glyph-name="four" unicode="4" horiz-adv-x="396" 
d="M261 0h-47l33 155h-243l9 43l342 502h55l-107 -503h60l-9 -42h-60zM346 618l-286 -421h196z" />
    <glyph glyph-name="five" unicode="5" horiz-adv-x="379" 
d="M161 -10q-70 0 -109 33.5t-39 96.5q0 26 6 54l6 25h44l-7 -32q-5 -25 -5 -41q0 -46 28 -70t77 -24q91 0 115 112l30 143q5 25 5 48q0 86 -90 86q-39 0 -67 -22t-52 -70h-45l100 371h266l-9 -42h-223l-71 -254q53 59 120 59q57 0 88.5 -31t31.5 -88q0 -30 -7 -59l-30 -143
q-32 -152 -163 -152z" />
    <glyph glyph-name="six" unicode="6" horiz-adv-x="392" 
d="M168 -10q-72 0 -109.5 33.5t-37.5 96.5q0 24 6 53l82 383q34 154 163 154q70 0 108 -33.5t38 -96.5q0 -26 -5 -51h-45q6 27 6 48q0 91 -102 91q-92 0 -118 -119l-38 -181q44 65 124 65q60 0 93 -31t33 -88q0 -25 -7 -57l-25 -116q-32 -151 -166 -151zM170 32
q93 0 117 111l25 116q5 30 5 44q0 88 -93 88q-47 0 -82 -33.5t-47 -88.5l-23 -104q-5 -28 -5 -42q0 -91 103 -91z" />
    <glyph glyph-name="seven" unicode="7" horiz-adv-x="356" 
d="M68 0h-52l354 658h-261l9 42h310l-9 -42z" />
    <glyph glyph-name="eight" unicode="8" horiz-adv-x="396" 
d="M165 -10q-69 0 -109.5 35t-40.5 98q0 24 6 51l13 67q24 110 116 130v1q-58 30 -58 102q0 14 5 44l10 44q33 148 168 148q69 0 107.5 -33t38.5 -95q0 -24 -6 -52l-9 -44q-24 -108 -112 -130h-1q63 -28 63 -105q0 -24 -4 -41l-15 -69q-31 -151 -172 -151zM240 382
q96 0 118 100l12 54q5 25 5 41q0 43 -27.5 67t-74.5 24q-97 0 -120 -110l-12 -53q-4 -21 -4 -35q0 -43 28 -65.5t75 -22.5zM168 32q98 0 124 116l15 70q3 16 3 32q0 46 -29.5 68.5t-79.5 22.5q-97 0 -120 -101l-14 -69q-5 -28 -5 -43q0 -47 28.5 -71.5t77.5 -24.5z" />
    <glyph glyph-name="nine" unicode="9" horiz-adv-x="392" 
d="M164 -10q-70 0 -108 33.5t-38 96.5q0 26 5 51h45q-6 -27 -6 -48q0 -91 102 -91q92 0 118 119l38 181q-44 -65 -124 -65q-60 0 -93 31t-33 88q0 25 7 57l25 116q32 151 166 151q72 0 109.5 -33.5t37.5 -96.5q0 -24 -6 -53l-82 -383q-34 -154 -163 -154zM212 309
q47 0 82 33.5t47 88.5l23 104q5 28 5 42q0 91 -103 91q-93 0 -117 -111l-25 -116q-5 -30 -5 -44q0 -88 93 -88z" />
    <glyph glyph-name="colon" unicode=":" horiz-adv-x="166" 
d="M135 381h-48l20 91h48zM54 0h-48l20 91h48z" />
    <glyph glyph-name="semicolon" unicode=";" horiz-adv-x="166" 
d="M136 381h-48l20 91h48zM-1 -96h-23l48 96h-18l20 91h48l-18 -87z" />
    <glyph glyph-name="less" unicode="&#x3c;" 
d="M356 181v-44l-294 143v40l294 143v-44l-244 -119z" />
    <glyph glyph-name="equal" unicode="=" 
d="M368 360h-314v42h314v-42zM368 198h-314v42h314v-42z" />
    <glyph glyph-name="greater" unicode="&#x3e;" 
d="M361 280l-294 -143v44l244 119l-244 119v44l294 -143v-40z" />
    <glyph glyph-name="question" unicode="?" horiz-adv-x="363" 
d="M167 166h-41l8 41q8 36 25 66q19 33 35 52q24 26 50 52q48 48 72 83t33 79q4 17 4 39q0 90 -99 90q-89 0 -116 -113l-14 -61h-44l14 63q34 153 163 153q68 0 105.5 -32.5t37.5 -94.5q0 -25 -6 -52q-18 -87 -114 -175l-49 -49q-45 -45 -57 -105zM133 0h-48l20 91h48z" />
    <glyph glyph-name="at" unicode="@" horiz-adv-x="699" 
d="M449 710q123 0 189.5 -59.5t66.5 -168.5q0 -77 -29 -167q-29 -88 -80 -151q-52 -63 -111 -63q-72 0 -72 66v1q-45 -67 -113 -67q-43 0 -68.5 21.5t-25.5 61.5q0 25 10 58l48 156q34 109 121 109q85 0 102 -74l21 67h45l-90 -279q-7 -20 -7 -39q0 -40 36 -40q44 0 84 60
q42 62 64 137q24 77 24 137q0 91 -56.5 142t-160.5 51q-106 0 -193 -75q-87 -74 -134 -187q-46 -111 -46 -231q0 -109 64.5 -167.5t187.5 -58.5q88 0 159 43l-11 -47q-69 -36 -148 -36q-137 0 -216 69t-79 196q0 134 52 254q52 121 151 202q97 79 215 79zM315 140
q38 0 68.5 30t48.5 89l23 73q10 30 10 54q0 37 -19 59.5t-54 22.5q-60 0 -86 -81l-46 -146q-8 -27 -8 -44q0 -57 63 -57z" />
    <glyph glyph-name="A" unicode="A" horiz-adv-x="401" 
d="M-30 0l294 700h63l-2 -700h-47v161h-195l-67 -161h-46zM280 634l-180 -432h179z" />
    <glyph glyph-name="B" unicode="B" horiz-adv-x="401" 
d="M165 0h-164l149 700h139q68 0 100.5 -26t32.5 -81q0 -24 -6 -54l-6 -29q-26 -120 -114 -142v-1q68 -21 68 -100q0 -23 -6 -52l-12 -57q-17 -83 -59.5 -120.5t-121.5 -37.5zM188 658l-58 -272h87q63 0 97.5 28.5t47.5 91.5l7 34q6 28 6 48q0 37 -21 53.5t-67 16.5h-99z
M121 344l-64 -302h108q57 0 89.5 29t45.5 92l12 57q6 27 6 48q0 40 -25 58t-80 18h-92z" />
    <glyph glyph-name="C" unicode="C" horiz-adv-x="383" 
d="M164 -10q-68 0 -105 34t-37 94q0 25 5 48l86 399q15 69 57 107t103 38q69 0 106.5 -34t37.5 -94q0 -22 -6 -48l-13 -57h-45l15 63q4 15 4 34q0 44 -26 69t-72 25q-43 0 -73.5 -27.5t-41.5 -78.5l-86 -403q-4 -15 -4 -37q0 -43 25 -66.5t72 -23.5q43 0 74 27.5t41 77.5
l22 106h45l-23 -109q-31 -144 -161 -144z" />
    <glyph glyph-name="D" unicode="D" horiz-adv-x="406" 
d="M161 0h-160l149 700h146q131 0 131 -113q0 -21 -7 -56l-78 -366q-18 -87 -60.5 -126t-120.5 -39zM188 658l-131 -616h103q57 0 89.5 29.5t46.5 95.5l78 370q6 28 6 50q0 38 -20.5 54.5t-65.5 16.5h-106z" />
    <glyph glyph-name="E" unicode="E" horiz-adv-x="352" 
d="M275 0h-274l149 700h274l-9 -42h-227l-58 -272h188l-9 -42h-188l-64 -302h227z" />
    <glyph glyph-name="F" unicode="F" horiz-adv-x="340" 
d="M48 0h-47l149 700h265l-9 -42h-218l-60 -281h179l-9 -42h-179z" />
    <glyph glyph-name="G" unicode="G" horiz-adv-x="394" 
d="M168 -10q-72 0 -109.5 33.5t-37.5 95.5q0 25 6 54l82 386q33 151 163 151q72 0 109.5 -33.5t37.5 -96.5q0 -24 -6 -53l-8 -40h-45l10 48q5 28 5 42q0 91 -103 91q-92 0 -116 -111l-84 -392q-5 -30 -5 -43q0 -90 103 -90q92 0 117 111l40 189h-101l9 43h146l-49 -234
q-31 -151 -164 -151z" />
    <glyph glyph-name="H" unicode="H" horiz-adv-x="416" 
d="M48 0h-47l149 700h47l-67 -314h214l67 314h47l-149 -700h-47l73 344h-214z" />
    <glyph glyph-name="I" unicode="I" horiz-adv-x="155" 
d="M48 0h-47l149 700h47z" />
    <glyph glyph-name="J" unicode="J" horiz-adv-x="260" 
d="M43 -4q-46 0 -73 13l9 42q27 -13 63 -13q77 0 98 98l119 564h47l-120 -568q-28 -136 -143 -136z" />
    <glyph glyph-name="K" unicode="K" horiz-adv-x="402" 
d="M421 700h54l-217 -267l69 -433h-47l-61 384l-121 -148l-50 -236h-47l149 700h47l-81 -379z" />
    <glyph glyph-name="L" unicode="L" horiz-adv-x="340" 
d="M266 0h-265l149 700h47l-140 -658h218z" />
    <glyph glyph-name="M" unicode="M" horiz-adv-x="516" 
d="M45 0h-44l149 700h72l2 -611l262 611h73l-149 -700h-47l136 637l-274 -637h-40l-4 637z" />
    <glyph glyph-name="N" unicode="N" horiz-adv-x="422" 
d="M46 0h-45l149 700h63l82 -582l124 582h45l-149 -700h-49l-86 626z" />
    <glyph glyph-name="O" unicode="O" 
d="M169 -10q-71 0 -109.5 34.5t-38.5 97.5q0 24 6 52l82 384q33 152 163 152q72 0 110.5 -34.5t38.5 -97.5q0 -24 -6 -52l-81 -385q-31 -151 -165 -151zM173 32q91 0 114 111l83 391q5 28 5 41q0 93 -104 93q-93 0 -115 -112l-84 -390q-5 -28 -5 -41q0 -93 106 -93z" />
    <glyph glyph-name="P" unicode="P" horiz-adv-x="381" 
d="M48 0h-47l149 700h143q126 0 126 -110q0 -30 -7 -59l-11 -51q-19 -87 -62 -125.5t-124 -38.5h-100zM188 658l-64 -300h95q58 0 89.5 29t45.5 95l12 56q6 27 6 48q0 38 -20.5 55t-65.5 17h-98z" />
    <glyph glyph-name="Q" unicode="Q" 
d="M272 710q72 0 110.5 -34.5t38.5 -97.5q0 -24 -6 -52l-81 -385q-18 -87 -72 -125q2 -22 12 -30.5t34 -8.5h23l-9 -42h-17q-73 0 -80 63q-29 -8 -56 -8q-71 0 -109.5 34.5t-38.5 97.5q0 24 6 52l82 384q33 152 163 152zM287 143l83 391q5 28 5 41q0 93 -104 93
q-93 0 -115 -112l-84 -390q-5 -28 -5 -41q0 -93 106 -93q91 0 114 111z" />
    <glyph glyph-name="R" unicode="R" horiz-adv-x="398" 
d="M48 0h-47l149 700h142q127 0 127 -106q0 -24 -6 -54l-9 -43q-14 -67 -42.5 -101.5t-78.5 -45.5v-1q66 -12 66 -89q0 -23 -6 -50l-27 -128q-10 -47 -10 -73v-9h-45v14q1 34 9 72l27 130q6 26 6 45q0 38 -22 54t-73 16h-89zM188 658l-60 -284h83q63 0 97 27.5t48 91.5
l10 47q6 27 6 47q0 71 -87 71h-97z" />
    <glyph glyph-name="S" unicode="S" horiz-adv-x="367" 
d="M143 -10q-65 0 -100.5 32t-35.5 93q0 25 6 53l5 24h45l-7 -31q-5 -28 -5 -41q0 -88 97 -88q57 0 90 43q33 44 33 104q0 77 -83 160q-94 94 -94 184q0 83 47 135t125 52q65 0 100 -31.5t35 -90.5q0 -28 -7 -55l-3 -13h-45l5 20q6 24 6 43q0 41 -25 63t-71 22
q-55 0 -87.5 -38.5t-32.5 -99.5q0 -78 84 -162q93 -94 93 -184q0 -84 -47 -140q-46 -54 -128 -54z" />
    <glyph glyph-name="T" unicode="T" horiz-adv-x="355" 
d="M148 0h-47l140 658h-133l9 42h313l-9 -42h-133z" />
    <glyph glyph-name="U" unicode="U" horiz-adv-x="404" 
d="M172 -10q-69 0 -108 34t-39 96q0 24 6 53l112 527h47l-114 -534q-5 -28 -5 -41q0 -45 28 -69t76 -24q89 0 113 111l119 557h46l-119 -558q-32 -152 -162 -152z" />
    <glyph glyph-name="V" unicode="V" horiz-adv-x="394" 
d="M179 0h-65l5 700h47l-7 -638l263 638h45z" />
    <glyph glyph-name="W" unicode="W" horiz-adv-x="558" 
d="M138 0h-66l49 700h45l-46 -637l227 637h56l-44 -637l226 637h44l-247 -700h-64l39 610z" />
    <glyph glyph-name="X" unicode="X" horiz-adv-x="395" 
d="M18 0h-49l225 359l-69 341h46l59 -294l184 294h50l-218 -345l74 -355h-47l-63 309z" />
    <glyph glyph-name="Y" unicode="Y" horiz-adv-x="389" 
d="M164 0h-47l68 316l-67 384h47l54 -323l194 323h50l-231 -384z" />
    <glyph glyph-name="Z" unicode="Z" horiz-adv-x="351" 
d="M272 0h-300l9 41l378 617h-237l9 42h290l-8 -41l-378 -617h246z" />
    <glyph glyph-name="bracketleft" unicode="[" horiz-adv-x="256" 
d="M148 -100h-156l170 800h156l-8 -38h-111l-154 -724h111z" />
    <glyph glyph-name="backslash" unicode="\" horiz-adv-x="358" 
d="M262 -100h-38l-106 800h38z" />
    <glyph glyph-name="bracketright" unicode="]" horiz-adv-x="256" 
d="M117 -100h-156l8 38h111l154 724h-111l8 38h156z" />
    <glyph glyph-name="asciicircum" unicode="^" 
d="M123 431h-47l142 269h40l142 -269h-47l-115 217z" />
    <glyph glyph-name="underscore" unicode="_" horiz-adv-x="300" 
d="M228 -93h-300l6 32h300z" />
    <glyph glyph-name="grave" unicode="`" horiz-adv-x="500" 
d="M354 567h-38l-59 120h52z" />
    <glyph glyph-name="a" unicode="a" horiz-adv-x="362" 
d="M213 506q60 0 94 -28t34 -81q0 -13 -5 -41l-51 -240q-17 -78 -15 -116h-44q-1 13 7 62q-47 -72 -126 -72q-50 0 -78.5 28t-28.5 76q0 70 39.5 110.5t123.5 65.5q76 22 97 36q22 13 28 43v-3l4 20q3 14 3 27q0 34 -21.5 53.5t-60.5 19.5t-65.5 -22t-34.5 -63l-4 -21h-44
l5 23q13 59 50.5 91t92.5 32zM246 145l28 135q-15 -20 -106 -47q-121 -34 -121 -134q0 -69 74 -69q43 0 76 30.5t49 84.5z" />
    <glyph glyph-name="b" unicode="b" horiz-adv-x="381" 
d="M255 506q52 0 81 -27t29 -77q0 -22 -6 -49l-49 -234q-27 -129 -130 -129q-49 0 -81 26t-40 73l-26 -89h-34l149 700h47l-54 -255q45 61 114 61zM266 127l47 226q5 28 5 40q0 36 -20.5 54.5t-55.5 18.5q-43 0 -77 -34.5t-47 -93.5l-33 -156q-5 -22 -5 -46q0 -49 25 -77.5
t67 -28.5q75 0 94 97z" />
    <glyph glyph-name="c" unicode="c" horiz-adv-x="355" 
d="M151 -10q-133 0 -133 118q0 24 6 52l44 205q28 141 148 141q63 0 97 -29.5t34 -86.5q0 -26 -6 -54h-44l2 9q5 30 5 42q0 39 -23 59t-64 20q-79 0 -102 -102l-46 -213q-5 -28 -5 -42q0 -79 88 -79q79 0 102 101l5 26h43l-5 -26q-29 -141 -146 -141z" />
    <glyph glyph-name="d" unicode="d" horiz-adv-x="380" 
d="M379 700h47l-125 -584q-17 -78 -15 -116h-44q-1 14 7 63q-48 -73 -123 -73q-52 0 -81 27t-29 77q0 22 6 49l49 234q27 129 130 129q45 0 76 -22.5t42 -62.5zM262 153l37 173q2 32 2 34q0 49 -25 77.5t-67 28.5q-75 0 -94 -97l-47 -226q-5 -28 -5 -40q0 -36 20.5 -54.5
t55.5 -18.5q42 0 75.5 33t47.5 90z" />
    <glyph glyph-name="e" unicode="e" horiz-adv-x="366" 
d="M218 506q66 0 100.5 -31.5t34.5 -89.5q0 -23 -6 -52l-19 -86h-240l-19 -91q-5 -28 -5 -42q0 -84 89 -84q85 0 107 106l4 21h45l-4 -21q-32 -146 -152 -146q-65 0 -99.5 32t-34.5 90q0 24 6 53l42 198q30 143 151 143zM113 362l-16 -75h195l12 55q5 28 5 40
q0 41 -24.5 62.5t-67.5 21.5q-81 0 -104 -104z" />
    <glyph glyph-name="f" unicode="f" horiz-adv-x="259" 
d="M271 670q-25 0 -38.5 -14.5t-20.5 -46.5l-24 -113h105l-9 -39h-104l-98 -457h-46l98 457h-69l9 39h68l26 120q21 94 102 94q42 0 67 -16l-8 -39q-27 15 -58 15z" />
    <glyph glyph-name="g" unicode="g" horiz-adv-x="378" 
d="M321 411l19 85h39l-113 -534q-25 -127 -152 -127q-62 0 -95.5 27.5t-33.5 77.5q0 8 2 22h43q-1 -4 -1 -16q0 -71 87 -71q45 0 70 21.5t35 68.5l23 111q-45 -61 -114 -61q-53 0 -81.5 26.5t-28.5 77.5q0 22 6 49l44 209q27 129 130 129q48 0 80 -25t41 -70zM143 55
q42 0 75.5 33t47.5 90l33 156q1 6 1 26q0 49 -25 77.5t-67 28.5q-75 0 -94 -97l-42 -201q-5 -28 -5 -40q0 -35 20.5 -54t55.5 -19z" />
    <glyph glyph-name="h" unicode="h" horiz-adv-x="380" 
d="M252 506q52 0 80 -26t28 -76q0 -23 -6 -52l-75 -352h-46l74 349q5 30 5 43q0 74 -72 74q-40 0 -71.5 -29t-47.5 -82l-74 -355h-45l147 700h45l-53 -251q43 57 111 57z" />
    <glyph glyph-name="i" unicode="i" horiz-adv-x="154" 
d="M169 577h-45l21 100h45zM47 0h-46l106 496h46z" />
    <glyph glyph-name="j" unicode="j" horiz-adv-x="153" 
d="M169 577h-45l21 100h45zM-106 -149l9 38q20 -14 40 -14q17 0 26.5 10.5t14.5 35.5l122 575h46l-123 -582q-16 -79 -82 -79q-34 0 -53 16z" />
    <glyph glyph-name="k" unicode="k" horiz-adv-x="372" 
d="M343 496h54l-178 -191l78 -305h-47l-68 266l-102 -109l-33 -157h-46l149 700h46l-100 -472z" />
    <glyph glyph-name="l" unicode="l" horiz-adv-x="154" 
d="M47 0h-46l149 700h46z" />
    <glyph glyph-name="m" unicode="m" horiz-adv-x="591" 
d="M471 506q50 0 77 -26t27 -75q0 -24 -6 -53l-75 -352h-46l74 349q5 27 5 44q0 73 -68 73q-42 0 -74 -34.5t-45 -94.5l-72 -337h-46l74 349q6 28 6 44q0 73 -69 73q-40 0 -71.5 -33t-45.5 -90l-73 -343h-46l106 496h39l-13 -63q43 73 117 73q93 0 103 -82q43 82 122 82z
" />
    <glyph glyph-name="n" unicode="n" horiz-adv-x="380" 
d="M252 506q52 0 80 -26t28 -76q0 -23 -6 -52l-75 -352h-46l74 349q5 30 5 43q0 74 -72 74q-42 0 -75 -33t-47 -90l-73 -343h-46l106 496h39l-13 -62q45 72 121 72z" />
    <glyph glyph-name="o" unicode="o" horiz-adv-x="368" 
d="M150 -10q-62 0 -97.5 32t-35.5 90q0 23 6 50l43 201q32 143 152 143q62 0 97.5 -32t35.5 -90q0 -23 -6 -50l-43 -201q-32 -143 -152 -143zM152 30q81 0 104 104l45 208q5 28 5 41q0 83 -90 83q-81 0 -104 -104l-45 -208q-5 -28 -5 -41q0 -83 90 -83z" />
    <glyph glyph-name="p" unicode="p" horiz-adv-x="380" 
d="M254 506q52 0 81 -27t29 -77q0 -22 -6 -49l-49 -234q-27 -129 -130 -129q-45 0 -76 22.5t-42 62.5l-49 -230h-46l139 651h39l-13 -64q47 74 123 74zM265 127l47 226q5 28 5 40q0 36 -20.5 54.5t-55.5 18.5q-41 0 -73.5 -31t-47.5 -86l-36 -167l-2 -10q-3 -18 -3 -36
q0 -49 25 -77.5t67 -28.5q75 0 94 97z" />
    <glyph glyph-name="q" unicode="q" horiz-adv-x="380" 
d="M322 409l25 87h34l-139 -651h-47l43 203q-52 -66 -128 -57q-118 13 -88 152l49 234q30 140 148 128q86 -8 103 -96zM129 29q42 -4 76.5 24.5t51.5 82.5l43 198q7 56 -15 91t-64 40q-84 9 -106 -96l-47 -226q-22 -105 61 -114z" />
    <glyph glyph-name="r" unicode="r" horiz-adv-x="258" 
d="M246 506q28 0 47 -11l-9 -44q-17 11 -47 11q-89 0 -123 -139l-69 -323h-46l106 496h39l-14 -70q41 80 116 80z" />
    <glyph glyph-name="s" unicode="s" horiz-adv-x="336" 
d="M127 -10q-55 0 -89 27.5t-34 78.5q0 21 4 36l2 10h43l-3 -14q-3 -15 -3 -27q0 -35 23 -53t61 -18q48 0 76 29t28 71q0 33 -18.5 55.5t-58.5 46.5l-36 23q-8 6 -28 24q-32 32 -32 82q0 59 41 102q42 43 108 43q53 0 83.5 -28.5t30.5 -77.5q0 -20 -4 -35h-43q4 20 4 31
q0 32 -20 51t-55 19q-43 0 -71.5 -28.5t-28.5 -69.5q0 -32 18.5 -54t59.5 -45q40 -25 63 -48q33 -29 33 -84q0 -61 -42 -104t-112 -43z" />
    <glyph glyph-name="t" unicode="t" horiz-adv-x="259" 
d="M281 457h-104l-77 -361q-3 -14 -3 -23q0 -43 49 -43q24 0 45 10l-5 -41q-22 -9 -55 -9q-37 0 -58.5 20.5t-21.5 56.5q0 13 3 30l77 360h-67l9 39h67l38 152h39l-32 -152h105z" />
    <glyph glyph-name="u" unicode="u" horiz-adv-x="380" 
d="M262 153l73 343h46l-106 -496h-39l13 62q-45 -72 -121 -72q-52 0 -80 26t-28 76q0 24 6 52l75 352h46l-74 -349q-5 -30 -5 -43q0 -74 72 -74q42 0 75 33t47 90z" />
    <glyph glyph-name="v" unicode="v" horiz-adv-x="354" 
d="M155 0h-60l-19 496h45l16 -437l201 437h46z" />
    <glyph glyph-name="w" unicode="w" horiz-adv-x="527" 
d="M130 0h-59l7 496h44l-6 -431l175 431h52l-8 -431l177 431h44l-203 -496h-55l3 411z" />
    <glyph glyph-name="x" unicode="x" horiz-adv-x="358" 
d="M20 0h-49l183 256l-72 240h46l60 -203l144 203h49l-176 -244l76 -252h-47l-62 216z" />
    <glyph glyph-name="y" unicode="y" horiz-adv-x="357" 
d="M342 496h45l-278 -581q-39 -80 -104 -80q-41 0 -58 16l8 39q20 -15 49 -15q37 0 61 50l42 87l-32 484h44l26 -413z" />
    <glyph glyph-name="z" unicode="z" horiz-adv-x="323" 
d="M241 0h-266l8 38l302 419h-203l9 39h256l-8 -38l-302 -419h213z" />
    <glyph glyph-name="braceleft" unicode="{" horiz-adv-x="256" 
d="M150 -100h-31q-78 0 -78 68q0 13 5 38l39 187q6 27 6 44q0 24 -12 33.5t-39 9.5l5 40q36 0 55.5 20t30.5 68l40 190q12 53 39 77.5t75 24.5h35l-9 -41h-15q-37 0 -55.5 -18.5t-29.5 -66.5l-37 -177q-10 -45 -27 -67t-48 -30l-4 -1q41 -11 41 -61q0 -12 -5 -42l-37 -174
q-5 -32 -5 -41q0 -22 11.5 -31t39.5 -9h19z" />
    <glyph glyph-name="bar" unicode="|" horiz-adv-x="300" 
d="M191 -200h-42v1001h42v-1001z" />
    <glyph glyph-name="braceright" unicode="}" horiz-adv-x="256" 
d="M-7 -100h-34l9 41h14q37 0 56 19t30 66l37 174q10 47 27 69.5t48 29.5l4 1q-41 12 -41 61q0 23 4 40l38 177q6 24 6 41q0 22 -12.5 31t-40.5 9h-18l9 41h30q79 0 79 -70q0 -21 -4 -36l-41 -190q-5 -30 -5 -40q0 -24 12 -34t40 -10l-6 -40q-37 0 -56.5 -20.5t-30.5 -70.5
l-39 -187q-12 -55 -40 -78.5t-75 -23.5z" />
    <glyph glyph-name="asciitilde" unicode="~" 
d="M64 243l-31 23q25 45 49 66t56 21q31 0 78 -32t69 -32t38 15t37 52l31 -23q-25 -45 -49.5 -66t-56.5 -21q-29 0 -78 32l-28 19q-23 13 -40 13q-22 0 -38.5 -15.5t-36.5 -51.5z" />
    <glyph glyph-name="uni00A0" unicode="&#xa0;" horiz-adv-x="166" 
 />
    <glyph glyph-name="exclamdown" unicode="&#xa1;" horiz-adv-x="182" 
d="M148 405h-48l20 91h48zM18 -205h-47l77 366l42 169h35l-30 -169z" />
    <glyph glyph-name="cent" unicode="&#xa2;" 
d="M321 710l-14 -65q104 -18 104 -124q0 -23 -6 -48l-3 -15h-44l5 21q5 25 5 36q0 35 -18.5 58t-51.5 30l-108 -510q43 1 72.5 28.5t39.5 77.5l13 62h44l-14 -65q-14 -68 -56.5 -106.5t-104.5 -38.5h-3l-15 -71h-39l16 75q-49 10 -75.5 42t-26.5 82q0 23 6 49l61 276
q15 69 56.5 106.5t103.5 37.5h1l13 62h39zM89 185q0 -71 63 -88l108 509q-40 -3 -68 -30.5t-38 -74.5l-61 -280q-4 -15 -4 -36z" />
    <glyph glyph-name="sterling" unicode="&#xa3;" 
d="M302 0h-310l8 41q119 90 141 188q4 17 4 32h-90l8 40h81q-3 20 -18 80q-15 63 -15 107q0 95 44 159q45 63 134 63q65 0 99.5 -36.5t34.5 -97.5q0 -22 -8 -59h-43q7 34 7 54q0 44 -24 70.5t-70 26.5q-66 0 -98 -53q-30 -53 -30 -130q0 -42 14 -103q15 -65 16 -81h149
l-8 -40h-140q0 -22 -4 -37q-16 -81 -129 -182h256z" />
    <glyph glyph-name="currency" unicode="&#xa4;" 
d="M314 280l54 -52l-25 -25l-52 54q-31 -23 -70 -23t-70 23l-52 -54l-25 25l54 52q-23 29 -23 70t23 70l-54 52l25 25l52 -54q31 23 70 23t70 -23l52 54l25 -25l-54 -52q23 -29 23 -70t-23 -70zM165 294q22 -22 56 -22t56 22t22 56t-22 56t-56 22t-56 -22t-22 -56t22 -56z
" />
    <glyph glyph-name="yen" unicode="&#xa5;" 
d="M420 700h49l-231 -383h116l-9 -40h-116l-21 -101h116l-9 -40h-116l-29 -136h-47l29 136h-113l9 40h113l21 101h-113l9 40h113l-66 383h46l54 -324z" />
    <glyph glyph-name="brokenbar" unicode="&#xa6;" horiz-adv-x="300" 
d="M191 400h-42v400h42v-400zM191 -200h-42v400h42v-400z" />
    <glyph glyph-name="section" unicode="&#xa7;" horiz-adv-x="416" 
d="M420 557h-41l2 30q0 38 -28 60.5t-68 22.5q-49 0 -79.5 -28t-30.5 -76q0 -35 21.5 -58.5t76.5 -56.5q38 -23 45 -29q18 -12 34 -28q37 -33 37 -91q0 -60 -39 -98.5t-107 -46.5q66 -47 66 -116q0 -68 -43 -108.5t-115 -40.5q-61 0 -97.5 34t-36.5 90q0 3 2 29h41
q0 -6 -0.5 -13t-1 -11t-0.5 -6q0 -38 28 -60.5t68 -22.5q49 0 79.5 28t30.5 76q0 35 -21.5 58.5t-76.5 56.5l-46 28q-17 13 -34 29q-36 33 -36 91q0 60 39 98.5t107 46.5q-66 47 -66 116q0 68 43 108.5t115 40.5q61 0 97.5 -34t36.5 -90q0 -3 -2 -29zM342 298q0 28 -17 51
t-31 33t-51 33q-1 0 -1 0.5t-1 0.5h-13q-57 0 -94 -31.5t-37 -79.5q0 -29 16 -51q15 -21 31 -33q18 -13 52 -33h1l1 -1h13q57 0 94 31.5t37 79.5z" />
    <glyph glyph-name="dieresis" unicode="&#xa8;" horiz-adv-x="500" 
d="M287 577h-45l21 100h45zM398 577h-45l21 100h45z" />
    <glyph glyph-name="copyright" unicode="&#xa9;" horiz-adv-x="768" 
d="M655 92q-99 -102 -249 -102t-249 102q-99 104 -99 258q0 155 99 257q99 103 249 103t249 -103q99 -102 99 -257q0 -154 -99 -258zM184 119q88 -91 222 -91t221 91q88 91 88 231t-88 231q-87 91 -221 91t-222 -91q-87 -91 -87 -231t87 -231zM297 248v203q0 118 106 118
t106 -118v-25h-38v28q0 78 -67 78t-67 -78v-208q0 -77 67 -77t67 77v41h38v-39q0 -117 -106 -117t-106 117z" />
    <glyph glyph-name="ordfeminine" unicode="&#xaa;" horiz-adv-x="285" 
d="M222 710q45 0 69 -21.5t24 -59.5q0 -12 -4 -32l-35 -163q-14 -70 -14 -91h-33q0 13 3 39q-32 -47 -87 -47q-38 0 -59 19.5t-21 52.5q0 51 29.5 81t91.5 48q44 12 61 21.5t22 22.5l6 27q2 16 2 18q0 24 -15 37.5t-42 13.5q-55 0 -68 -59l-2 -7h-35l1 10q10 43 38 66.5
t68 23.5zM157 369q63 0 83 73l20 95q-14 -14 -73 -32q-82 -25 -82 -91q0 -21 14 -33t38 -12zM235 237h-199l7 34h199z" />
    <glyph glyph-name="guillemotleft" unicode="&#xab;" horiz-adv-x="266" 
d="M115 208h-34l-34 92l72 90h36l-68 -94zM219 208h-34l-33 92l71 90h36l-67 -94z" />
    <glyph glyph-name="logicalnot" unicode="&#xac;" 
d="M366 165h-41v149h-293v41h334v-190z" />
    <glyph glyph-name="uni00AD" unicode="&#xad;" horiz-adv-x="260" 
d="M232 281h-190l8 38h190z" />
    <glyph glyph-name="registered" unicode="&#xae;" horiz-adv-x="768" 
d="M655 92q-99 -102 -249 -102t-249 102q-99 104 -99 258q0 155 99 257q99 103 249 103t249 -103q99 -102 99 -257q0 -154 -99 -258zM184 119q88 -91 222 -91t221 91q88 91 88 231t-88 231q-87 91 -221 91t-222 -91q-87 -91 -87 -231t87 -231zM347 136h-40v428h104
q54 0 80 -24.5t26 -81.5v-17q0 -77 -58 -93v-1q58 -10 58 -89v-64q0 -40 9 -58h-42q-7 18 -7 59v61q0 39 -17.5 55t-61.5 16h-51v-191zM347 526v-162h53q41 0 59 15.5t18 55.5v19q0 37 -15 54.5t-53 17.5h-62z" />
    <glyph glyph-name="overscore" unicode="&#xaf;" horiz-adv-x="500" 
d="M423 607h-194l9 41h194z" />
    <glyph glyph-name="degree" unicode="&#xb0;" 
d="M351 529q-31 -31 -75 -31t-75 31t-31 75t31 75t75 31t75 -31t31 -75t-31 -75zM229 556q19 -19 47 -19t47 19q19 20 19 48t-19 47q-19 20 -47 20t-47 -20q-19 -19 -19 -47t19 -48z" />
    <glyph glyph-name="plusminus" unicode="&#xb1;" 
d="M368 121h-314v41h136v139h-136v41h136v141h42v-141h136v-41h-136v-139h136v-41z" />
    <glyph glyph-name="uni00B2" unicode="&#xb2;" horiz-adv-x="288" 
d="M263 351h-195l11 49q12 52 40 89t82 77q47 34 70 62.5t31 63.5q3 14 3 26q0 52 -56 52q-55 0 -69 -63l-9 -40h-36l9 41q22 97 107 97q46 0 69.5 -22t23.5 -61q0 -18 -4 -33q-17 -74 -116 -150q-50 -37 -74 -67t-33 -69l-4 -18h158z" />
    <glyph glyph-name="uni00B3" unicode="&#xb3;" horiz-adv-x="289" 
d="M176 341q-47 0 -71.5 22t-24.5 61q0 20 4 35l5 23h37l-6 -29q-3 -13 -3 -25q0 -52 58 -52q56 0 69 67l11 53q3 15 3 26q0 44 -48 44h-30l7 34h29q60 0 76 72l4 17q4 13 4 29q0 52 -58 52q-55 0 -68 -64l-7 -31h-36l7 32q21 98 105 98q96 0 96 -82q0 -13 -4 -34l-3 -15
q-16 -78 -73 -91v-1q37 -12 37 -62q0 -15 -3 -30l-11 -52q-21 -97 -106 -97z" />
    <glyph glyph-name="acute" unicode="&#xb4;" horiz-adv-x="500" 
d="M321 567h-42l97 120h56z" />
    <glyph glyph-name="uni00B5" unicode="&#xb5;" horiz-adv-x="384" 
d="M268 153l73 343h46l-106 -496h-39l13 62q-45 -72 -121 -72q-57 0 -83 32l-38 -177h-45l139 651h46l-74 -349q-5 -30 -5 -43q0 -74 72 -74q42 0 75 33t47 90z" />
    <glyph glyph-name="paragraph" unicode="&#xb6;" horiz-adv-x="444" 
d="M168 -97h-40l86 400q-130 3 -130 112q0 23 6 52l14 68q34 165 197 165h173l-169 -797h-40l161 758h-97z" />
    <glyph glyph-name="middot" unicode="&#xb7;" horiz-adv-x="166" 
d="M108 254h-48l20 91h48z" />
    <glyph glyph-name="cedilla" unicode="&#xb8;" horiz-adv-x="500" 
d="M168 -155q-71 0 -71 46q0 8 2 16h37q-2 -8 -2 -11q0 -21 39 -21q51 0 51 31q0 19 -36 19h-16l17 80h28l-13 -54q56 0 56 -44q0 -34 -23 -48t-69 -14z" />
    <glyph glyph-name="uni00B9" unicode="&#xb9;" horiz-adv-x="288" 
d="M209 351h-40l82 375q-28 -19 -83 -22l3 30q69 3 103 61h30z" />
    <glyph glyph-name="ordmasculine" unicode="&#xba;" horiz-adv-x="284" 
d="M176 335q-46 0 -71 23.5t-25 65.5q0 20 4 35l31 148q21 103 111 103q46 0 71 -23.5t25 -65.5q0 -20 -4 -35l-31 -148q-21 -103 -111 -103zM177 369q59 0 72 70l33 153q3 15 3 27q0 27 -16 42t-45 15q-58 0 -71 -70l-33 -153q-3 -15 -3 -27q0 -57 60 -57zM239 238h-198
l7 34h198z" />
    <glyph glyph-name="guillemotright" unicode="&#xbb;" horiz-adv-x="267" 
d="M66 208h-36l67 94l-27 88h34l33 -92zM170 208h-36l68 94l-28 88h34l34 -92z" />
    <glyph glyph-name="onequarter" unicode="&#xbc;" horiz-adv-x="657" 
d="M159 0h-39l423 700h38zM189 256h-40l82 375q-28 -19 -83 -22l3 30q69 3 103 61h30zM538 0h-39l20 93h-151l7 35l214 316h44l-68 -317h37l-7 -34h-37zM581 375l-168 -248h113z" />
    <glyph glyph-name="onehalf" unicode="&#xbd;" horiz-adv-x="657" 
d="M159 0h-39l423 700h38zM189 256h-40l82 375q-28 -19 -83 -22l3 30q69 3 103 61h30zM557 0h-195l11 49q12 52 40 89t82 77q47 34 70 62.5t31 63.5q3 14 3 26q0 52 -56 52q-55 0 -69 -63l-9 -40h-36l9 41q22 97 107 97q46 0 69.5 -22t23.5 -61q0 -18 -4 -33
q-17 -74 -116 -150q-50 -37 -74 -67t-33 -69l-4 -18h158z" />
    <glyph glyph-name="threequarters" unicode="&#xbe;" horiz-adv-x="658" 
d="M156 246q-47 0 -71.5 22t-24.5 61q0 20 4 35l5 23h37l-6 -29q-3 -14 -3 -25q0 -52 58 -52q56 0 69 67l11 53q3 15 3 26q0 44 -48 44h-30l7 34h29q59 0 76 72l4 17q4 13 4 29q0 52 -58 52q-55 0 -68 -64l-7 -31h-36l7 32q21 98 105 98q96 0 96 -82q0 -13 -4 -34l-3 -15
q-16 -78 -73 -91v-1q37 -12 37 -62q0 -15 -3 -30l-11 -52q-21 -97 -106 -97zM160 0h-39l423 700h38zM539 0h-39l20 93h-151l7 35l214 316h44l-68 -317h37l-7 -34h-37zM582 375l-168 -248h113z" />
    <glyph glyph-name="questiondown" unicode="&#xbf;" horiz-adv-x="363" 
d="M257 405h-48l20 91h48zM105 -214q-68 0 -105.5 32.5t-37.5 94.5q0 25 6 52q19 86 114 175l49 48q46 48 57 106l7 36h41l-8 -41q-8 -35 -25 -67q-17 -30 -35 -51q-11 -13 -50 -52q-46 -46 -71 -82q-24 -34 -34 -80q-4 -17 -4 -39q0 -90 99 -90q89 0 116 113l14 61h44
l-14 -63q-35 -153 -163 -153z" />
    <glyph glyph-name="Agrave" unicode="&#xc0;" horiz-adv-x="401" 
d="M300 881l45 -120h-38l-59 120h52zM16 0h-46l294 700h63l-2 -700h-47v161h-195zM280 634l-180 -432h179z" />
    <glyph glyph-name="Aacute" unicode="&#xc1;" horiz-adv-x="401" 
d="M367 881h56l-111 -120h-42zM16 0h-46l294 700h63l-2 -700h-47v161h-195zM280 634l-180 -432h179z" />
    <glyph glyph-name="Acircumflex" unicode="&#xc2;" horiz-adv-x="401" 
d="M307 881h54l47 -120h-38l-39 92l-81 -92h-42zM16 0h-46l294 700h63l-2 -700h-47v161h-195zM280 634l-180 -432h179z" />
    <glyph glyph-name="Atilde" unicode="&#xc3;" horiz-adv-x="401" 
d="M413 866l27 -18q-38 -63 -75 -63q-29 0 -52 22q-17 14 -28 14q-26 0 -50 -44l-27 18q38 63 76 63q28 0 51 -22q17 -14 28 -14q26 0 50 44zM16 0h-46l294 700h63l-2 -700h-47v161h-195zM280 634l-180 -432h179z" />
    <glyph glyph-name="Adieresis" unicode="&#xc4;" horiz-adv-x="401" 
d="M254 871h45l-21 -100h-45zM344 771l21 100h45l-21 -100h-45zM16 0h-46l294 700h63l-2 -700h-47v161h-195zM280 634l-180 -432h179z" />
    <glyph glyph-name="Aring" unicode="&#xc5;" horiz-adv-x="401" 
d="M329 902q30 0 48 -17.5t18 -45.5q0 -33 -23 -55.5t-55 -22.5q-29 0 -47.5 17.5t-18.5 44.5q0 33 22.5 56t55.5 23zM319 791q18 0 31 12.5t13 32.5q0 16 -9.5 26t-25.5 10q-18 0 -31 -13t-13 -33q0 -16 9.5 -25.5t25.5 -9.5zM16 0h-46l294 700h63l-2 -700h-47v161h-195z
M280 634l-180 -432h179z" />
    <glyph glyph-name="AE" unicode="&#xc6;" horiz-adv-x="588" 
d="M660 700l-9 -42h-226l-57 -271h187l-9 -42h-187l-65 -303h226l-9 -42h-273l34 161h-168l-90 -161h-46l393 700h299zM127 202h154l94 441z" />
    <glyph glyph-name="Ccedilla" unicode="&#xc7;" horiz-adv-x="383" 
d="M273 710q69 0 106.5 -34t37.5 -94q0 -22 -6 -48l-13 -57h-45l15 63q4 15 4 34q0 44 -26 69t-72 25q-43 0 -73.5 -27.5t-41.5 -78.5l-86 -403q-4 -15 -4 -37q0 -43 25 -66.5t72 -23.5q43 0 74 27.5t41 77.5l22 106h45l-23 -109q-31 -144 -161 -144h-9l-9 -39q56 0 56 -44
q0 -34 -23 -48t-69 -14q-71 0 -71 46q0 8 2 16h37q-2 -8 -2 -11q0 -21 39 -21q51 0 51 31q0 19 -36 19h-16l14 68q-51 8 -78.5 41t-27.5 84q0 25 5 48l86 399q15 69 57 107t103 38z" />
    <glyph glyph-name="Egrave" unicode="&#xc8;" horiz-adv-x="352" 
d="M336 761h-38l-59 120h52zM275 0h-274l149 700h274l-9 -42h-227l-58 -272h188l-9 -42h-188l-64 -302h227z" />
    <glyph glyph-name="Eacute" unicode="&#xc9;" horiz-adv-x="352" 
d="M303 761h-42l97 120h56zM275 0h-274l149 700h274l-9 -42h-227l-58 -272h188l-9 -42h-188l-64 -302h227z" />
    <glyph glyph-name="Ecircumflex" unicode="&#xca;" horiz-adv-x="352" 
d="M241 761h-42l99 120h54l47 -120h-38l-39 92zM275 0h-274l149 700h274l-9 -42h-227l-58 -272h188l-9 -42h-188l-64 -302h227z" />
    <glyph glyph-name="Edieresis" unicode="&#xcb;" horiz-adv-x="352" 
d="M269 771h-45l21 100h45zM380 771h-45l21 100h45zM275 0h-274l149 700h274l-9 -42h-227l-58 -272h188l-9 -42h-188l-64 -302h227z" />
    <glyph glyph-name="Igrave" unicode="&#xcc;" horiz-adv-x="155" 
d="M222 761h-38l-59 120h52zM48 0h-47l149 700h47z" />
    <glyph glyph-name="Iacute" unicode="&#xcd;" horiz-adv-x="155" 
d="M189 761h-42l97 120h56zM48 0h-47l149 700h47z" />
    <glyph glyph-name="Icircumflex" unicode="&#xce;" horiz-adv-x="155" 
d="M127 761h-42l99 120h54l47 -120h-38l-39 92zM48 0h-47l149 700h47z" />
    <glyph glyph-name="Idieresis" unicode="&#xcf;" horiz-adv-x="155" 
d="M155 771h-45l21 100h45zM266 771h-45l21 100h45zM48 0h-47l149 700h47z" />
    <glyph glyph-name="Eth" unicode="&#xd0;" horiz-adv-x="417" 
d="M162 700h146q131 0 131 -113q0 -21 -7 -56l-78 -366q-18 -87 -60.5 -126t-120.5 -39h-160l73 345h-47l9 40h47zM308 167l78 370q6 28 6 50q0 38 -20.5 54.5t-65.5 16.5h-106l-58 -273h94l-8 -40h-95l-64 -303h103q57 0 89.5 29.5t46.5 95.5z" />
    <glyph glyph-name="Ntilde" unicode="&#xd1;" horiz-adv-x="422" 
d="M246 777l-27 18q37 63 76 63q28 0 51 -22q17 -14 28 -14q26 0 50 44l27 -18q-37 -63 -75 -63q-29 0 -52 22q-17 14 -28 14q-26 0 -50 -44zM46 0h-45l149 700h63l82 -582l124 582h45l-149 -700h-49l-86 626z" />
    <glyph glyph-name="Ograve" unicode="&#xd2;" 
d="M345 761h-38l-59 120h52zM169 -10q-71 0 -109.5 34.5t-38.5 97.5q0 24 6 52l82 384q33 152 163 152q72 0 110.5 -34.5t38.5 -97.5q0 -24 -6 -52l-81 -385q-31 -151 -165 -151zM173 32q91 0 114 111l83 391q5 28 5 41q0 93 -104 93q-93 0 -115 -112l-84 -390
q-5 -28 -5 -41q0 -93 106 -93z" />
    <glyph glyph-name="Oacute" unicode="&#xd3;" 
d="M312 761h-42l97 120h56zM169 -10q-71 0 -109.5 34.5t-38.5 97.5q0 24 6 52l82 384q33 152 163 152q72 0 110.5 -34.5t38.5 -97.5q0 -24 -6 -52l-81 -385q-31 -151 -165 -151zM173 32q91 0 114 111l83 391q5 28 5 41q0 93 -104 93q-93 0 -115 -112l-84 -390q-5 -28 -5 -41
q0 -93 106 -93z" />
    <glyph glyph-name="Ocircumflex" unicode="&#xd4;" 
d="M250 761h-42l99 120h54l47 -120h-38l-39 92zM169 -10q-71 0 -109.5 34.5t-38.5 97.5q0 24 6 52l82 384q33 152 163 152q72 0 110.5 -34.5t38.5 -97.5q0 -24 -6 -52l-81 -385q-31 -151 -165 -151zM173 32q91 0 114 111l83 391q5 28 5 41q0 93 -104 93q-93 0 -115 -112
l-84 -390q-5 -28 -5 -41q0 -93 106 -93z" />
    <glyph glyph-name="Otilde" unicode="&#xd5;" 
d="M235 777l-27 18q38 63 76 63q28 0 51 -22q17 -14 28 -14q26 0 50 44l27 -18q-38 -63 -75 -63q-29 0 -52 22q-17 14 -28 14q-26 0 -50 -44zM169 -10q-71 0 -109.5 34.5t-38.5 97.5q0 24 6 52l82 384q33 152 163 152q72 0 110.5 -34.5t38.5 -97.5q0 -24 -6 -52l-81 -385
q-31 -151 -165 -151zM173 32q91 0 114 111l83 391q5 28 5 41q0 93 -104 93q-93 0 -115 -112l-84 -390q-5 -28 -5 -41q0 -93 106 -93z" />
    <glyph glyph-name="Odieresis" unicode="&#xd6;" 
d="M278 771h-45l21 100h45zM389 771h-45l21 100h45zM169 -10q-71 0 -109.5 34.5t-38.5 97.5q0 24 6 52l82 384q33 152 163 152q72 0 110.5 -34.5t38.5 -97.5q0 -24 -6 -52l-81 -385q-31 -151 -165 -151zM173 32q91 0 114 111l83 391q5 28 5 41q0 93 -104 93q-93 0 -115 -112
l-84 -390q-5 -28 -5 -41q0 -93 106 -93z" />
    <glyph glyph-name="multiply" unicode="&#xd7;" 
d="M211 272l-122 -124l-28 29l122 123l-122 123l29 28l121 -123l122 124l28 -29l-122 -123l122 -123l-28 -29z" />
    <glyph glyph-name="Oslash" unicode="&#xd8;" 
d="M432 728l23 -16l-45 -75q11 -28 11 -59q0 -24 -6 -52l-81 -385q-31 -151 -165 -151q-81 0 -119 45l-38 -63l-24 16l44 74q-11 28 -11 60q0 24 6 52l82 384q33 152 163 152q85 0 122 -46zM67 125v-5l299 499q-22 49 -95 49q-93 0 -115 -112l-84 -390q-5 -28 -5 -41z
M375 575v3l-299 -499q23 -47 97 -47q91 0 114 111l83 391q5 28 5 41z" />
    <glyph glyph-name="Ugrave" unicode="&#xd9;" horiz-adv-x="404" 
d="M347 761h-38l-59 120h52zM172 -10q-69 0 -108 34t-39 96q0 24 6 53l112 527h47l-114 -534q-5 -28 -5 -41q0 -45 28 -69t76 -24q89 0 113 111l119 557h46l-119 -558q-32 -152 -162 -152z" />
    <glyph glyph-name="Uacute" unicode="&#xda;" horiz-adv-x="404" 
d="M314 761h-42l97 120h56zM172 -10q-69 0 -108 34t-39 96q0 24 6 53l112 527h47l-114 -534q-5 -28 -5 -41q0 -45 28 -69t76 -24q89 0 113 111l119 557h46l-119 -558q-32 -152 -162 -152z" />
    <glyph glyph-name="Ucircumflex" unicode="&#xdb;" horiz-adv-x="404" 
d="M252 761h-42l99 120h54l47 -120h-38l-39 92zM172 -10q-69 0 -108 34t-39 96q0 24 6 53l112 527h47l-114 -534q-5 -28 -5 -41q0 -45 28 -69t76 -24q89 0 113 111l119 557h46l-119 -558q-32 -152 -162 -152z" />
    <glyph glyph-name="Udieresis" unicode="&#xdc;" horiz-adv-x="404" 
d="M280 771h-45l21 100h45zM391 771h-45l21 100h45zM172 -10q-69 0 -108 34t-39 96q0 24 6 53l112 527h47l-114 -534q-5 -28 -5 -41q0 -45 28 -69t76 -24q89 0 113 111l119 557h46l-119 -558q-32 -152 -162 -152z" />
    <glyph glyph-name="Yacute" unicode="&#xdd;" horiz-adv-x="389" 
d="M305 761h-42l97 120h56zM164 0h-47l68 316l-67 384h47l54 -323l194 323h50l-231 -384z" />
    <glyph glyph-name="Thorn" unicode="&#xde;" horiz-adv-x="382" 
d="M48 0h-47l149 700h47l-24 -112l96 -1q126 -1 126 -110q0 -30 -7 -59l-11 -51q-19 -87 -62 -125.5t-124 -38.5h-100zM164 545l-64 -300h95q58 0 89.5 29t45.5 95l12 56q6 27 6 48q0 38 -20.5 55t-65.5 17h-98z" />
    <glyph glyph-name="germandbls" unicode="&#xdf;" horiz-adv-x="390" 
d="M196 -11q-39 0 -75 17l9 42q22 -18 65 -18q45 0 73 32t28 79q-2 27 -11 41.5t-30 35.5q-19 19 -25 26q-25 30 -25 78q0 33 11 63q8 19 17 33t15.5 21t26.5 28q23 23 33 36q33 37 33 97q0 34 -21.5 52t-56.5 18q-75 0 -96 -97l-122 -573h-46l123 576q27 134 144 134
q55 0 88 -29t33 -79q0 -41 -13 -71q-12 -32 -25 -46q-16 -18 -36 -38q-17 -17 -31 -33q-30 -35 -30 -84q0 -21 7 -36q10 -23 36 -49q21 -23 23 -26q24 -28 24 -70q0 -67 -41 -114q-40 -46 -105 -46z" />
    <glyph glyph-name="agrave" unicode="&#xe0;" horiz-adv-x="362" 
d="M236 687l45 -120h-38l-59 120h52zM213 506q60 0 94 -28t34 -81q0 -13 -5 -41l-51 -240q-17 -78 -15 -116h-44q-1 13 7 62q-47 -72 -126 -72q-50 0 -78.5 28t-28.5 76q0 70 39.5 110.5t123.5 65.5q76 22 97 36q22 13 28 43v-3l4 20q3 14 3 27q0 34 -21.5 53.5t-60.5 19.5
t-65.5 -22t-34.5 -63l-4 -21h-44l5 23q13 59 50.5 91t92.5 32zM246 145l28 135q-15 -20 -106 -47q-121 -34 -121 -134q0 -69 74 -69q43 0 76 30.5t49 84.5z" />
    <glyph glyph-name="aacute" unicode="&#xe1;" horiz-adv-x="362" 
d="M303 687h56l-111 -120h-42zM213 506q60 0 94 -28t34 -81q0 -13 -5 -41l-51 -240q-17 -78 -15 -116h-44q-1 13 7 62q-47 -72 -126 -72q-50 0 -78.5 28t-28.5 76q0 70 39.5 110.5t123.5 65.5q76 22 97 36q22 13 28 43v-3l4 20q3 14 3 27q0 34 -21.5 53.5t-60.5 19.5
t-65.5 -22t-34.5 -63l-4 -21h-44l5 23q13 59 50.5 91t92.5 32zM246 145l28 135q-15 -20 -106 -47q-121 -34 -121 -134q0 -69 74 -69q43 0 76 30.5t49 84.5z" />
    <glyph glyph-name="acircumflex" unicode="&#xe2;" horiz-adv-x="362" 
d="M306 567l-39 92l-81 -92h-42l99 120h54l47 -120h-38zM213 506q60 0 94 -28t34 -81q0 -13 -5 -41l-51 -240q-17 -78 -15 -116h-44q-1 13 7 62q-47 -72 -126 -72q-50 0 -78.5 28t-28.5 76q0 70 39.5 110.5t123.5 65.5q76 22 97 36q22 13 28 43v-3l4 20q3 14 3 27
q0 34 -21.5 53.5t-60.5 19.5t-65.5 -22t-34.5 -63l-4 -21h-44l5 23q13 59 50.5 91t92.5 32zM246 145l28 135q-15 -20 -106 -47q-121 -34 -121 -134q0 -69 74 -69q43 0 76 30.5t49 84.5z" />
    <glyph glyph-name="atilde" unicode="&#xe3;" horiz-adv-x="362" 
d="M349 672l27 -18q-38 -63 -75 -63q-29 0 -52 22q-17 14 -28 14q-26 0 -50 -44l-27 18q37 63 76 63q28 0 51 -22q17 -14 28 -14q26 0 50 44zM213 506q60 0 94 -28t34 -81q0 -13 -5 -41l-51 -240q-17 -78 -15 -116h-44q-1 13 7 62q-47 -72 -126 -72q-50 0 -78.5 28t-28.5 76
q0 70 39.5 110.5t123.5 65.5q76 22 97 36q22 13 28 43v-3l4 20q3 14 3 27q0 34 -21.5 53.5t-60.5 19.5t-65.5 -22t-34.5 -63l-4 -21h-44l5 23q13 59 50.5 91t92.5 32zM246 145l28 135q-15 -20 -106 -47q-121 -34 -121 -134q0 -69 74 -69q43 0 76 30.5t49 84.5z" />
    <glyph glyph-name="adieresis" unicode="&#xe4;" horiz-adv-x="362" 
d="M190 677h45l-21 -100h-45zM301 677h45l-21 -100h-45zM213 506q60 0 94 -28t34 -81q0 -13 -5 -41l-51 -240q-17 -78 -15 -116h-44q-1 13 7 62q-47 -72 -126 -72q-50 0 -78.5 28t-28.5 76q0 70 39.5 110.5t123.5 65.5q76 22 97 36q22 13 28 43v-3l4 20q3 14 3 27
q0 34 -21.5 53.5t-60.5 19.5t-65.5 -22t-34.5 -63l-4 -21h-44l5 23q13 59 50.5 91t92.5 32zM246 145l28 135q-15 -20 -106 -47q-121 -34 -121 -134q0 -69 74 -69q43 0 76 30.5t49 84.5z" />
    <glyph glyph-name="aring" unicode="&#xe5;" horiz-adv-x="362" 
d="M253 567q-29 0 -47.5 17.5t-18.5 44.5q0 33 22.5 56t55.5 23q30 0 48 -17.5t18 -45.5q0 -33 -23 -55.5t-55 -22.5zM264 678q-18 0 -31 -13t-13 -33q0 -16 9.5 -25.5t25.5 -9.5q18 0 31 12.5t13 32.5q0 16 -9.5 26t-25.5 10zM213 506q60 0 94 -28t34 -81q0 -13 -5 -41
l-51 -240q-17 -78 -15 -116h-44q-1 13 7 62q-47 -72 -126 -72q-50 0 -78.5 28t-28.5 76q0 70 39.5 110.5t123.5 65.5q76 22 97 36q22 13 28 43v-3l4 20q3 14 3 27q0 34 -21.5 53.5t-60.5 19.5t-65.5 -22t-34.5 -63l-4 -21h-44l5 23q13 59 50.5 91t92.5 32zM246 145l28 135
q-15 -20 -106 -47q-121 -34 -121 -134q0 -69 74 -69q43 0 76 30.5t49 84.5z" />
    <glyph glyph-name="ae" unicode="&#xe6;" horiz-adv-x="587" 
d="M447 506q63 0 96 -32t33 -90q0 -24 -6 -51l-19 -86h-239l-20 -91q-5 -28 -5 -42q0 -84 89 -84q85 0 107 106l4 21h45l-4 -21q-32 -146 -152 -146q-111 0 -130 85q-46 -85 -135 -85q-51 0 -81 29t-30 77q0 69 39.5 109t123.5 65q76 22 97 36q22 13 28 43v-3l4 20
q3 14 3 27q0 34 -21.5 53.5t-60.5 19.5t-65.5 -22t-34.5 -63l-4 -21h-44l5 23q13 59 50.5 91t92.5 32q95 0 112 -75q39 75 122 75zM515 287l12 55q5 28 5 40q0 41 -24.5 62.5t-67.5 21.5q-81 0 -104 -104l-15 -72l-1 -3h195zM121 30q44 0 77 32t47 89l3 14l24 113
q-15 -18 -104 -45q-121 -34 -121 -134q0 -69 74 -69z" />
    <glyph glyph-name="ccedilla" unicode="&#xe7;" horiz-adv-x="355" 
d="M341 336h-44l2 9q5 30 5 42q0 39 -23 59t-64 20q-79 0 -102 -102l-46 -213q-5 -28 -5 -42q0 -79 88 -79q79 0 102 101l5 26h43l-5 -26q-29 -141 -146 -141h-9l-9 -39q56 0 56 -44q0 -34 -23 -48t-69 -14q-71 0 -71 46q0 8 2 16h37q-2 -8 -2 -11q0 -21 39 -21q51 0 51 31
q0 19 -36 19h-16l14 68q-97 16 -97 115q0 24 6 52l44 205q28 141 148 141q63 0 97 -29.5t34 -86.5q0 -26 -6 -54z" />
    <glyph glyph-name="egrave" unicode="&#xe8;" horiz-adv-x="366" 
d="M243 687l45 -120h-38l-59 120h52zM218 506q66 0 100.5 -31.5t34.5 -89.5q0 -23 -6 -52l-19 -86h-240l-19 -91q-5 -28 -5 -42q0 -84 89 -84q85 0 107 106l4 21h45l-4 -21q-32 -146 -152 -146q-65 0 -99.5 32t-34.5 90q0 24 6 53l42 198q30 143 151 143zM113 362l-16 -75
h195l12 55q5 28 5 40q0 41 -24.5 62.5t-67.5 21.5q-81 0 -104 -104z" />
    <glyph glyph-name="eacute" unicode="&#xe9;" horiz-adv-x="366" 
d="M310 687h56l-111 -120h-42zM218 506q66 0 100.5 -31.5t34.5 -89.5q0 -23 -6 -52l-19 -86h-240l-19 -91q-5 -28 -5 -42q0 -84 89 -84q85 0 107 106l4 21h45l-4 -21q-32 -146 -152 -146q-65 0 -99.5 32t-34.5 90q0 24 6 53l42 198q30 143 151 143zM113 362l-16 -75h195
l12 55q5 28 5 40q0 41 -24.5 62.5t-67.5 21.5q-81 0 -104 -104z" />
    <glyph glyph-name="ecircumflex" unicode="&#xea;" horiz-adv-x="366" 
d="M313 567l-39 92l-81 -92h-42l99 120h54l47 -120h-38zM218 506q66 0 100.5 -31.5t34.5 -89.5q0 -23 -6 -52l-19 -86h-240l-19 -91q-5 -28 -5 -42q0 -84 89 -84q85 0 107 106l4 21h45l-4 -21q-32 -146 -152 -146q-65 0 -99.5 32t-34.5 90q0 24 6 53l42 198q30 143 151 143z
M113 362l-16 -75h195l12 55q5 28 5 40q0 41 -24.5 62.5t-67.5 21.5q-81 0 -104 -104z" />
    <glyph glyph-name="edieresis" unicode="&#xeb;" horiz-adv-x="366" 
d="M197 677h45l-21 -100h-45zM308 677h45l-21 -100h-45zM218 506q66 0 100.5 -31.5t34.5 -89.5q0 -23 -6 -52l-19 -86h-240l-19 -91q-5 -28 -5 -42q0 -84 89 -84q85 0 107 106l4 21h45l-4 -21q-32 -146 -152 -146q-65 0 -99.5 32t-34.5 90q0 24 6 53l42 198q30 143 151 143z
M113 362l-16 -75h195l12 55q5 28 5 40q0 41 -24.5 62.5t-67.5 21.5q-81 0 -104 -104z" />
    <glyph glyph-name="igrave" unicode="&#xec;" horiz-adv-x="154" 
d="M180 567h-38l-59 120h52zM47 0h-46l106 496h46z" />
    <glyph glyph-name="iacute" unicode="&#xed;" horiz-adv-x="154" 
d="M147 567h-42l97 120h56zM47 0h-46l106 496h46z" />
    <glyph glyph-name="icircumflex" unicode="&#xee;" horiz-adv-x="154" 
d="M85 567h-42l99 120h54l47 -120h-38l-39 92zM47 0h-46l106 496h46z" />
    <glyph glyph-name="idieresis" unicode="&#xef;" horiz-adv-x="154" 
d="M113 577h-45l21 100h45zM224 577h-45l21 100h45zM47 0h-46l106 496h46z" />
    <glyph glyph-name="eth" unicode="&#xf0;" horiz-adv-x="372" 
d="M377 700h48l-104 -83q39 -67 39 -162q0 -53 -12 -106l-46 -216q-32 -143 -152 -143q-63 0 -98 32t-35 89q0 24 6 51l41 186q28 129 130 129q45 0 75.5 -22.5t41.5 -62.5q7 38 7 70q0 72 -30 129l-94 -75h-48l126 101q-35 49 -94 83h60q37 -21 66 -58zM152 30
q81 0 104 104l35 164q3 16 3 31q0 50 -25 78.5t-68 28.5q-71 0 -93 -97l-41 -185q-5 -28 -5 -41q0 -83 90 -83z" />
    <glyph glyph-name="ntilde" unicode="&#xf1;" horiz-adv-x="380" 
d="M234 627q-26 0 -50 -44l-27 18q37 63 76 63q28 0 51 -22q17 -14 28 -14q26 0 50 44l27 -18q-37 -63 -75 -63q-29 0 -52 22q-17 14 -28 14zM252 506q52 0 80 -26t28 -76q0 -23 -6 -52l-75 -352h-46l74 349q5 30 5 43q0 74 -72 74q-42 0 -75 -33t-47 -90l-73 -343h-46
l106 496h39l-13 -62q45 72 121 72z" />
    <glyph glyph-name="ograve" unicode="&#xf2;" horiz-adv-x="368" 
d="M288 567h-38l-59 120h52zM150 -10q-62 0 -97.5 32t-35.5 90q0 23 6 50l43 201q32 143 152 143q62 0 97.5 -32t35.5 -90q0 -23 -6 -50l-43 -201q-32 -143 -152 -143zM152 30q81 0 104 104l45 208q5 28 5 41q0 83 -90 83q-81 0 -104 -104l-45 -208q-5 -28 -5 -41
q0 -83 90 -83z" />
    <glyph glyph-name="oacute" unicode="&#xf3;" horiz-adv-x="368" 
d="M255 567h-42l97 120h56zM150 -10q-62 0 -97.5 32t-35.5 90q0 23 6 50l43 201q32 143 152 143q62 0 97.5 -32t35.5 -90q0 -23 -6 -50l-43 -201q-32 -143 -152 -143zM152 30q81 0 104 104l45 208q5 28 5 41q0 83 -90 83q-81 0 -104 -104l-45 -208q-5 -28 -5 -41
q0 -83 90 -83z" />
    <glyph glyph-name="ocircumflex" unicode="&#xf4;" horiz-adv-x="368" 
d="M193 567h-42l99 120h54l47 -120h-38l-39 92zM150 -10q-62 0 -97.5 32t-35.5 90q0 23 6 50l43 201q32 143 152 143q62 0 97.5 -32t35.5 -90q0 -23 -6 -50l-43 -201q-32 -143 -152 -143zM152 30q81 0 104 104l45 208q5 28 5 41q0 83 -90 83q-81 0 -104 -104l-45 -208
q-5 -28 -5 -41q0 -83 90 -83z" />
    <glyph glyph-name="otilde" unicode="&#xf5;" horiz-adv-x="368" 
d="M178 583l-27 18q37 63 76 63q28 0 51 -22q17 -14 28 -14q26 0 50 44l27 -18q-37 -63 -75 -63q-29 0 -52 22q-17 14 -28 14q-26 0 -50 -44zM150 -10q-62 0 -97.5 32t-35.5 90q0 23 6 50l43 201q32 143 152 143q62 0 97.5 -32t35.5 -90q0 -23 -6 -50l-43 -201
q-32 -143 -152 -143zM152 30q81 0 104 104l45 208q5 28 5 41q0 83 -90 83q-81 0 -104 -104l-45 -208q-5 -28 -5 -41q0 -83 90 -83z" />
    <glyph glyph-name="odieresis" unicode="&#xf6;" horiz-adv-x="368" 
d="M221 577h-45l21 100h45zM332 577h-45l21 100h45zM150 -10q-62 0 -97.5 32t-35.5 90q0 23 6 50l43 201q32 143 152 143q62 0 97.5 -32t35.5 -90q0 -23 -6 -50l-43 -201q-32 -143 -152 -143zM152 30q81 0 104 104l45 208q5 28 5 41q0 83 -90 83q-81 0 -104 -104l-45 -208
q-5 -28 -5 -41q0 -83 90 -83z" />
    <glyph glyph-name="divide" unicode="&#xf7;" 
d="M236 392h-54v91h54v-91zM376 279h-334v42h334v-42zM236 117h-54v91h54v-91z" />
    <glyph glyph-name="oslash" unicode="&#xf8;" horiz-adv-x="368" 
d="M359 528l21 -16l-44 -64q15 -27 15 -64q0 -23 -6 -50l-43 -201q-32 -143 -152 -143q-68 0 -102 37l-39 -57l-21 16l43 63q-14 30 -14 63q0 23 6 50l43 201q32 143 152 143q66 0 101 -36zM62 113q0 -14 1 -17l230 336q-22 34 -77 34q-81 0 -104 -104l-45 -208
q-5 -28 -5 -41zM306 383q0 15 -1 19l-231 -337q23 -35 78 -35q81 0 104 104l45 208q5 28 5 41z" />
    <glyph glyph-name="ugrave" unicode="&#xf9;" horiz-adv-x="380" 
d="M247 687l45 -120h-38l-59 120h52zM262 153l73 343h46l-106 -496h-39l13 62q-45 -72 -121 -72q-52 0 -80 26t-28 76q0 24 6 52l75 352h46l-74 -349q-5 -30 -5 -43q0 -74 72 -74q42 0 75 33t47 90z" />
    <glyph glyph-name="uacute" unicode="&#xfa;" horiz-adv-x="380" 
d="M314 687h56l-111 -120h-42zM262 153l73 343h46l-106 -496h-39l13 62q-45 -72 -121 -72q-52 0 -80 26t-28 76q0 24 6 52l75 352h46l-74 -349q-5 -30 -5 -43q0 -74 72 -74q42 0 75 33t47 90z" />
    <glyph glyph-name="ucircumflex" unicode="&#xfb;" horiz-adv-x="380" 
d="M317 567l-39 92l-81 -92h-42l99 120h54l47 -120h-38zM262 153l73 343h46l-106 -496h-39l13 62q-45 -72 -121 -72q-52 0 -80 26t-28 76q0 24 6 52l75 352h46l-74 -349q-5 -30 -5 -43q0 -74 72 -74q42 0 75 33t47 90z" />
    <glyph glyph-name="udieresis" unicode="&#xfc;" horiz-adv-x="380" 
d="M201 677h45l-21 -100h-45zM312 677h45l-21 -100h-45zM262 153l73 343h46l-106 -496h-39l13 62q-45 -72 -121 -72q-52 0 -80 26t-28 76q0 24 6 52l75 352h46l-74 -349q-5 -30 -5 -43q0 -74 72 -74q42 0 75 33t47 90z" />
    <glyph glyph-name="yacute" unicode="&#xfd;" horiz-adv-x="357" 
d="M245 567h-42l97 120h56zM342 496h45l-278 -581q-39 -80 -104 -80q-41 0 -58 16l8 39q20 -15 49 -15q37 0 61 50l42 87l-32 484h44l26 -413z" />
    <glyph glyph-name="thorn" unicode="&#xfe;" horiz-adv-x="380" 
d="M255 506q52 0 81 -27t29 -77q0 -22 -6 -49l-49 -234q-27 -129 -130 -129q-45 0 -76 22.5t-42 62.5l-49 -230h-46l182 855h46l-54 -255q45 61 114 61zM266 127l47 226q5 28 5 40q0 36 -20.5 54.5t-55.5 18.5q-43 0 -77 -34.5t-47 -93.5l-33 -156q-5 -22 -5 -46
q0 -49 25 -77.5t67 -28.5q75 0 94 97z" />
    <glyph glyph-name="ydieresis" unicode="&#xff;" horiz-adv-x="357" 
d="M211 577h-45l21 100h45zM322 577h-45l21 100h45zM342 496h45l-278 -581q-39 -80 -104 -80q-41 0 -58 16l8 39q20 -15 49 -15q37 0 61 50l42 87l-32 484h44l26 -413z" />
    <glyph glyph-name="Amacron" unicode="&#x100;" horiz-adv-x="401" 
d="M220 801l9 41h194l-9 -41h-194zM16 0h-46l294 700h63l-2 -700h-47v161h-195zM280 634l-180 -432h179z" />
    <glyph glyph-name="amacron" unicode="&#x101;" horiz-adv-x="362" 
d="M156 607l9 41h194l-9 -41h-194zM213 506q60 0 94 -28t34 -81q0 -13 -5 -41l-51 -240q-17 -78 -15 -116h-44q-1 13 7 62q-47 -72 -126 -72q-50 0 -78.5 28t-28.5 76q0 70 39.5 110.5t123.5 65.5q76 22 97 36q22 13 28 43v-3l4 20q3 14 3 27q0 34 -21.5 53.5t-60.5 19.5
t-65.5 -22t-34.5 -63l-4 -21h-44l5 23q13 59 50.5 91t92.5 32zM246 145l28 135q-15 -20 -106 -47q-121 -34 -121 -134q0 -69 74 -69q43 0 76 30.5t49 84.5z" />
    <glyph glyph-name="Abreve" unicode="&#x102;" horiz-adv-x="401" 
d="M393 868h31q-19 -94 -107 -94q-39 0 -59.5 19.5t-20.5 53.5q0 3 2 21h32q-1 -3 -1 -15q0 -43 48 -43q59 0 75 58zM16 0h-46l294 700h63l-2 -700h-47v161h-195zM280 634l-180 -432h179z" />
    <glyph glyph-name="abreve" unicode="&#x103;" horiz-adv-x="362" 
d="M253 580q-39 0 -59.5 19.5t-20.5 53.5q0 3 2 21h32q-1 -3 -1 -15q0 -43 48 -43q59 0 75 58h31q-19 -94 -107 -94zM213 506q60 0 94 -28t34 -81q0 -13 -5 -41l-51 -240q-17 -78 -15 -116h-44q-1 13 7 62q-47 -72 -126 -72q-50 0 -78.5 28t-28.5 76q0 70 39.5 110.5
t123.5 65.5q76 22 97 36q22 13 28 43v-3l4 20q3 14 3 27q0 34 -21.5 53.5t-60.5 19.5t-65.5 -22t-34.5 -63l-4 -21h-44l5 23q13 59 50.5 91t92.5 32zM246 145l28 135q-15 -20 -106 -47q-121 -34 -121 -134q0 -69 74 -69q43 0 76 30.5t49 84.5z" />
    <glyph glyph-name="Aogonek" unicode="&#x104;" horiz-adv-x="401" 
d="M325 0h-13q-36 -16 -59.5 -42t-23.5 -53t37 -27q23 0 48 13l-5 -35q-24 -11 -54 -11q-31 0 -47.5 14t-16.5 39q0 69 87 107v156h-195l-67 -161h-46l294 700h63zM280 634l-180 -432h179z" />
    <glyph glyph-name="aogonek" unicode="&#x105;" horiz-adv-x="362" 
d="M213 506q60 0 94 -28t34 -81q0 -13 -5 -41l-51 -240q-17 -78 -15 -116h-16q-83 -47 -83 -95q0 -27 38 -27q23 0 48 13l-5 -35q-27 -11 -54 -11q-65 0 -65 50q0 67 93 113q0 19 7 54q-47 -72 -126 -72q-50 0 -78.5 28t-28.5 76q0 70 39.5 110.5t123.5 65.5q76 22 97 36
q22 13 28 43v-3l4 20q3 14 3 27q0 34 -21.5 53.5t-60.5 19.5t-65.5 -22t-34.5 -63l-4 -21h-44l5 23q13 59 50.5 91t92.5 32zM246 145l28 135q-15 -20 -106 -47q-121 -34 -121 -134q0 -69 74 -69q43 0 76 30.5t49 84.5z" />
    <glyph glyph-name="Cacute" unicode="&#x106;" horiz-adv-x="383" 
d="M308 761h-42l97 120h56zM164 -10q-68 0 -105 34t-37 94q0 25 5 48l86 399q15 69 57 107t103 38q69 0 106.5 -34t37.5 -94q0 -22 -6 -48l-13 -57h-45l15 63q4 15 4 34q0 44 -26 69t-72 25q-43 0 -73.5 -27.5t-41.5 -78.5l-86 -403q-4 -15 -4 -37q0 -43 25 -66.5t72 -23.5
q43 0 74 27.5t41 77.5l22 106h45l-23 -109q-31 -144 -161 -144z" />
    <glyph glyph-name="cacute" unicode="&#x107;" horiz-adv-x="355" 
d="M253 567h-42l97 120h56zM151 -10q-133 0 -133 118q0 24 6 52l44 205q28 141 148 141q63 0 97 -29.5t34 -86.5q0 -26 -6 -54h-44l2 9q5 30 5 42q0 39 -23 59t-64 20q-79 0 -102 -102l-46 -213q-5 -28 -5 -42q0 -79 88 -79q79 0 102 101l5 26h43l-5 -26q-29 -141 -146 -141
z" />
    <glyph glyph-name="Ccircumflex" unicode="&#x108;" horiz-adv-x="383" 
d="M246 761h-42l99 120h54l47 -120h-38l-39 92zM164 -10q-68 0 -105 34t-37 94q0 25 5 48l86 399q15 69 57 107t103 38q69 0 106.5 -34t37.5 -94q0 -22 -6 -48l-13 -57h-45l15 63q4 15 4 34q0 44 -26 69t-72 25q-43 0 -73.5 -27.5t-41.5 -78.5l-86 -403q-4 -15 -4 -37
q0 -43 25 -66.5t72 -23.5q43 0 74 27.5t41 77.5l22 106h45l-23 -109q-31 -144 -161 -144z" />
    <glyph glyph-name="ccircumflex" unicode="&#x109;" horiz-adv-x="355" 
d="M191 567h-42l99 120h54l47 -120h-38l-39 92zM151 -10q-133 0 -133 118q0 24 6 52l44 205q28 141 148 141q63 0 97 -29.5t34 -86.5q0 -26 -6 -54h-44l2 9q5 30 5 42q0 39 -23 59t-64 20q-79 0 -102 -102l-46 -213q-5 -28 -5 -42q0 -79 88 -79q79 0 102 101l5 26h43l-5 -26
q-29 -141 -146 -141z" />
    <glyph glyph-name="Cdotaccent" unicode="&#x10a;" horiz-adv-x="383" 
d="M330 771h-45l21 100h45zM164 -10q-68 0 -105 34t-37 94q0 25 5 48l86 399q15 69 57 107t103 38q69 0 106.5 -34t37.5 -94q0 -22 -6 -48l-13 -57h-45l15 63q4 15 4 34q0 44 -26 69t-72 25q-43 0 -73.5 -27.5t-41.5 -78.5l-86 -403q-4 -15 -4 -37q0 -43 25 -66.5t72 -23.5
q43 0 74 27.5t41 77.5l22 106h45l-23 -109q-31 -144 -161 -144z" />
    <glyph glyph-name="cdotaccent" unicode="&#x10b;" horiz-adv-x="355" 
d="M275 577h-45l21 100h45zM151 -10q-133 0 -133 118q0 24 6 52l44 205q28 141 148 141q63 0 97 -29.5t34 -86.5q0 -26 -6 -54h-44l2 9q5 30 5 42q0 39 -23 59t-64 20q-79 0 -102 -102l-46 -213q-5 -28 -5 -42q0 -79 88 -79q79 0 102 101l5 26h43l-5 -26q-29 -141 -146 -141
z" />
    <glyph glyph-name="Ccaron" unicode="&#x10c;" horiz-adv-x="383" 
d="M332 761h-54l-47 120h37l39 -92l81 92h43zM164 -10q-68 0 -105 34t-37 94q0 25 5 48l86 399q15 69 57 107t103 38q69 0 106.5 -34t37.5 -94q0 -22 -6 -48l-13 -57h-45l15 63q4 15 4 34q0 44 -26 69t-72 25q-43 0 -73.5 -27.5t-41.5 -78.5l-86 -403q-4 -15 -4 -37
q0 -43 25 -66.5t72 -23.5q43 0 74 27.5t41 77.5l22 106h45l-23 -109q-31 -144 -161 -144z" />
    <glyph glyph-name="ccaron" unicode="&#x10d;" horiz-adv-x="355" 
d="M277 567h-54l-47 120h37l39 -92l81 92h43zM151 -10q-133 0 -133 118q0 24 6 52l44 205q28 141 148 141q63 0 97 -29.5t34 -86.5q0 -26 -6 -54h-44l2 9q5 30 5 42q0 39 -23 59t-64 20q-79 0 -102 -102l-46 -213q-5 -28 -5 -42q0 -79 88 -79q79 0 102 101l5 26h43l-5 -26
q-29 -141 -146 -141z" />
    <glyph glyph-name="Dcaron" unicode="&#x10e;" horiz-adv-x="406" 
d="M330 761h-54l-47 120h37l39 -92l81 92h43zM161 0h-160l149 700h146q131 0 131 -113q0 -21 -7 -56l-78 -366q-18 -87 -60.5 -126t-120.5 -39zM188 658l-131 -616h103q57 0 89.5 29.5t46.5 95.5l78 370q6 28 6 50q0 38 -20.5 54.5t-65.5 16.5h-106z" />
    <glyph glyph-name="dcaron" unicode="&#x10f;" horiz-adv-x="412" 
d="M319 421l60 279h47l-125 -584q-17 -78 -15 -116h-44q-1 14 7 63q-48 -73 -123 -73q-52 0 -81 27t-29 77q0 22 6 49l49 234q27 129 130 129q45 0 76 -22.5t42 -62.5zM450 613l19 87h43l-17 -83l-46 -87h-21l37 83h-15zM262 153l37 173q2 32 2 34q0 49 -25 77.5t-67 28.5
q-75 0 -94 -97l-47 -226q-5 -28 -5 -40q0 -36 20.5 -54.5t55.5 -18.5q42 0 75.5 33t47.5 90z" />
    <glyph glyph-name="Dcroat" unicode="&#x110;" horiz-adv-x="417" 
d="M162 700h146q131 0 131 -113q0 -21 -7 -56l-78 -366q-18 -87 -60.5 -126t-120.5 -39h-160l73 345h-47l9 40h47zM308 167l78 370q6 28 6 50q0 38 -20.5 54.5t-65.5 16.5h-106l-58 -273h94l-8 -40h-95l-64 -303h103q57 0 89.5 29.5t46.5 95.5z" />
    <glyph glyph-name="dslash" unicode="&#x111;" horiz-adv-x="380" 
d="M408 616h49l-8 -37h-49l-99 -463q-17 -78 -15 -116h-44q-1 14 7 63q-48 -73 -123 -73q-52 0 -81 27t-29 77q0 22 6 49l49 234q27 129 130 129q45 0 76 -22.5t42 -62.5l34 158h-93l9 37h92l18 84h47zM262 153l37 173q2 32 2 34q0 49 -25 77.5t-67 28.5q-75 0 -94 -97
l-47 -226q-5 -28 -5 -40q0 -36 20.5 -54.5t55.5 -18.5q42 0 75.5 33t47.5 90z" />
    <glyph glyph-name="Emacron" unicode="&#x112;" horiz-adv-x="352" 
d="M405 801h-194l9 41h194zM275 0h-274l149 700h274l-9 -42h-227l-58 -272h188l-9 -42h-188l-64 -302h227z" />
    <glyph glyph-name="emacron" unicode="&#x113;" horiz-adv-x="366" 
d="M163 607l9 41h194l-9 -41h-194zM218 506q66 0 100.5 -31.5t34.5 -89.5q0 -23 -6 -52l-19 -86h-240l-19 -91q-5 -28 -5 -42q0 -84 89 -84q85 0 107 106l4 21h45l-4 -21q-32 -146 -152 -146q-65 0 -99.5 32t-34.5 90q0 24 6 53l42 198q30 143 151 143zM113 362l-16 -75h195
l12 55q5 28 5 40q0 41 -24.5 62.5t-67.5 21.5q-81 0 -104 -104z" />
    <glyph glyph-name="Ebreve" unicode="&#x114;" horiz-adv-x="352" 
d="M308 774q-39 0 -59.5 19.5t-20.5 53.5q0 3 2 21h32q-1 -3 -1 -15q0 -43 48 -43q59 0 75 58h31q-19 -94 -107 -94zM275 0h-274l149 700h274l-9 -42h-227l-58 -272h188l-9 -42h-188l-64 -302h227z" />
    <glyph glyph-name="ebreve" unicode="&#x115;" horiz-adv-x="366" 
d="M260 580q-39 0 -59.5 19.5t-20.5 53.5q0 3 2 21h32q-1 -3 -1 -15q0 -43 48 -43q59 0 75 58h31q-19 -94 -107 -94zM218 506q66 0 100.5 -31.5t34.5 -89.5q0 -23 -6 -52l-19 -86h-240l-19 -91q-5 -28 -5 -42q0 -84 89 -84q85 0 107 106l4 21h45l-4 -21q-32 -146 -152 -146
q-65 0 -99.5 32t-34.5 90q0 24 6 53l42 198q30 143 151 143zM113 362l-16 -75h195l12 55q5 28 5 40q0 41 -24.5 62.5t-67.5 21.5q-81 0 -104 -104z" />
    <glyph glyph-name="Edotaccent" unicode="&#x116;" horiz-adv-x="352" 
d="M325 771h-45l21 100h45zM275 0h-274l149 700h274l-9 -42h-227l-58 -272h188l-9 -42h-188l-64 -302h227z" />
    <glyph glyph-name="edotaccent" unicode="&#x117;" horiz-adv-x="366" 
d="M253 677h45l-21 -100h-45zM218 506q66 0 100.5 -31.5t34.5 -89.5q0 -23 -6 -52l-19 -86h-240l-19 -91q-5 -28 -5 -42q0 -84 89 -84q85 0 107 106l4 21h45l-4 -21q-32 -146 -152 -146q-65 0 -99.5 32t-34.5 90q0 24 6 53l42 198q30 143 151 143zM113 362l-16 -75h195
l12 55q5 28 5 40q0 41 -24.5 62.5t-67.5 21.5q-81 0 -104 -104z" />
    <glyph glyph-name="Eogonek" unicode="&#x118;" horiz-adv-x="352" 
d="M424 700l-9 -42h-227l-58 -272h188l-9 -42h-188l-64 -302h227l-9 -42h-37q-33 -18 -53 -44t-20 -51q0 -27 38 -27q23 0 48 13l-5 -35q-27 -11 -54 -11q-30 0 -47.5 14.5t-17.5 38.5q0 57 72 102h-198l149 700h274z" />
    <glyph glyph-name="eogonek" unicode="&#x119;" horiz-adv-x="366" 
d="M218 506q66 0 100.5 -31.5t34.5 -89.5q0 -23 -6 -52l-19 -86h-240l-19 -91q-5 -28 -5 -42q0 -84 89 -84q85 0 107 106l4 21h45l-4 -21q-23 -107 -97 -136q-60 -48 -60 -95q0 -27 38 -27q23 0 48 13l-5 -35q-27 -11 -54 -11q-65 0 -65 50q0 51 53 95h-10q-65 0 -99.5 32
t-34.5 90q0 24 6 53l42 198q30 143 151 143zM113 362l-16 -75h195l12 55q5 28 5 40q0 41 -24.5 62.5t-67.5 21.5q-81 0 -104 -104z" />
    <glyph glyph-name="Ecaron" unicode="&#x11a;" horiz-adv-x="352" 
d="M327 761h-54l-47 120h37l39 -92l81 92h43zM275 0h-274l149 700h274l-9 -42h-227l-58 -272h188l-9 -42h-188l-64 -302h227z" />
    <glyph glyph-name="ecaron" unicode="&#x11b;" horiz-adv-x="366" 
d="M378 687l-99 -120h-54l-47 120h37l39 -92l81 92h43zM218 506q66 0 100.5 -31.5t34.5 -89.5q0 -23 -6 -52l-19 -86h-240l-19 -91q-5 -28 -5 -42q0 -84 89 -84q85 0 107 106l4 21h45l-4 -21q-32 -146 -152 -146q-65 0 -99.5 32t-34.5 90q0 24 6 53l42 198q30 143 151 143z
M113 362l-16 -75h195l12 55q5 28 5 40q0 41 -24.5 62.5t-67.5 21.5q-81 0 -104 -104z" />
    <glyph glyph-name="Gcircumflex" unicode="&#x11c;" horiz-adv-x="394" 
d="M247 761h-42l99 120h54l47 -120h-38l-39 92zM168 -10q-72 0 -109.5 33.5t-37.5 95.5q0 25 6 54l82 386q33 151 163 151q72 0 109.5 -33.5t37.5 -96.5q0 -24 -6 -53l-8 -40h-45l10 48q5 28 5 42q0 91 -103 91q-92 0 -116 -111l-84 -392q-5 -30 -5 -43q0 -90 103 -90
q92 0 117 111l40 189h-101l9 43h146l-49 -234q-31 -151 -164 -151z" />
    <glyph glyph-name="gcircumflex" unicode="&#x11d;" horiz-adv-x="378" 
d="M308 567l-39 92l-81 -92h-42l99 120h54l47 -120h-38zM321 411l19 85h39l-113 -534q-25 -127 -152 -127q-62 0 -95.5 27.5t-33.5 77.5q0 8 2 22h43q-1 -4 -1 -16q0 -71 87 -71q45 0 70 21.5t35 68.5l23 111q-45 -61 -114 -61q-53 0 -81.5 26.5t-28.5 77.5q0 22 6 49
l44 209q27 129 130 129q48 0 80 -25t41 -70zM143 55q42 0 75.5 33t47.5 90l33 156q1 6 1 26q0 49 -25 77.5t-67 28.5q-75 0 -94 -97l-42 -201q-5 -28 -5 -40q0 -35 20.5 -54t55.5 -19z" />
    <glyph glyph-name="Gbreve" unicode="&#x11e;" horiz-adv-x="394" 
d="M314 774q-39 0 -59.5 19.5t-20.5 53.5q0 3 2 21h32q-1 -3 -1 -15q0 -43 48 -43q59 0 75 58h31q-19 -94 -107 -94zM168 -10q-72 0 -109.5 33.5t-37.5 95.5q0 25 6 54l82 386q33 151 163 151q72 0 109.5 -33.5t37.5 -96.5q0 -24 -6 -53l-8 -40h-45l10 48q5 28 5 42
q0 91 -103 91q-92 0 -116 -111l-84 -392q-5 -30 -5 -43q0 -90 103 -90q92 0 117 111l40 189h-101l9 43h146l-49 -234q-31 -151 -164 -151z" />
    <glyph glyph-name="gbreve" unicode="&#x11f;" horiz-adv-x="378" 
d="M255 580q-39 0 -59.5 19.5t-20.5 53.5q0 3 2 21h32q-1 -3 -1 -15q0 -43 48 -43q59 0 75 58h31q-19 -94 -107 -94zM321 411l19 85h39l-113 -534q-25 -127 -152 -127q-62 0 -95.5 27.5t-33.5 77.5q0 8 2 22h43q-1 -4 -1 -16q0 -71 87 -71q45 0 70 21.5t35 68.5l23 111
q-45 -61 -114 -61q-53 0 -81.5 26.5t-28.5 77.5q0 22 6 49l44 209q27 129 130 129q48 0 80 -25t41 -70zM143 55q42 0 75.5 33t47.5 90l33 156q1 6 1 26q0 49 -25 77.5t-67 28.5q-75 0 -94 -97l-42 -201q-5 -28 -5 -40q0 -35 20.5 -54t55.5 -19z" />
    <glyph glyph-name="Gdotaccent" unicode="&#x120;" horiz-adv-x="394" 
d="M331 771h-45l21 100h45zM168 -10q-72 0 -109.5 33.5t-37.5 95.5q0 25 6 54l82 386q33 151 163 151q72 0 109.5 -33.5t37.5 -96.5q0 -24 -6 -53l-8 -40h-45l10 48q5 28 5 42q0 91 -103 91q-92 0 -116 -111l-84 -392q-5 -30 -5 -43q0 -90 103 -90q92 0 117 111l40 189h-101
l9 43h146l-49 -234q-31 -151 -164 -151z" />
    <glyph glyph-name="gdotaccent" unicode="&#x121;" horiz-adv-x="378" 
d="M248 677h45l-21 -100h-45zM321 411l19 85h39l-113 -534q-25 -127 -152 -127q-62 0 -95.5 27.5t-33.5 77.5q0 8 2 22h43q-1 -4 -1 -16q0 -71 87 -71q45 0 70 21.5t35 68.5l23 111q-45 -61 -114 -61q-53 0 -81.5 26.5t-28.5 77.5q0 22 6 49l44 209q27 129 130 129
q48 0 80 -25t41 -70zM143 55q42 0 75.5 33t47.5 90l33 156q1 6 1 26q0 49 -25 77.5t-67 28.5q-75 0 -94 -97l-42 -201q-5 -28 -5 -40q0 -35 20.5 -54t55.5 -19z" />
    <glyph glyph-name="uni0122" unicode="&#x122;" horiz-adv-x="394" 
d="M168 -10q-72 0 -109.5 33.5t-37.5 95.5q0 25 6 54l82 386q33 151 163 151q72 0 109.5 -33.5t37.5 -96.5q0 -24 -6 -53l-8 -40h-45l10 48q5 28 5 42q0 91 -103 91q-92 0 -116 -111l-84 -392q-5 -30 -5 -43q0 -90 103 -90q92 0 117 111l40 189h-101l9 43h146l-49 -234
q-31 -151 -164 -151zM99 -179h-20l36 52h-19l17 77h45l-15 -73z" />
    <glyph glyph-name="uni0123" unicode="&#x123;" horiz-adv-x="378" 
d="M269 654h18l-16 -77h-45l15 74l44 56h20zM321 411l19 85h39l-113 -534q-25 -127 -152 -127q-62 0 -95.5 27.5t-33.5 77.5q0 8 2 22h43q-1 -4 -1 -16q0 -71 87 -71q45 0 70 21.5t35 68.5l23 111q-45 -61 -114 -61q-53 0 -81.5 26.5t-28.5 77.5q0 22 6 49l44 209
q27 129 130 129q48 0 80 -25t41 -70zM143 55q42 0 75.5 33t47.5 90l33 156q1 6 1 26q0 49 -25 77.5t-67 28.5q-75 0 -94 -97l-42 -201q-5 -28 -5 -40q0 -35 20.5 -54t55.5 -19z" />
    <glyph glyph-name="Hcircumflex" unicode="&#x124;" horiz-adv-x="416" 
d="M258 761h-42l99 120h54l47 -120h-38l-39 92zM48 0h-47l149 700h47l-67 -314h214l67 314h47l-149 -700h-47l73 344h-214z" />
    <glyph glyph-name="hcircumflex" unicode="&#x125;" horiz-adv-x="380" 
d="M246 761l-39 92l-81 -92h-42l99 120h54l47 -120h-38zM252 506q52 0 80 -26t28 -76q0 -23 -6 -52l-75 -352h-46l74 349q5 30 5 43q0 74 -72 74q-40 0 -71.5 -29t-47.5 -82l-74 -355h-45l147 700h45l-53 -251q43 57 111 57z" />
    <glyph glyph-name="Hbar" unicode="&#x126;" horiz-adv-x="434" 
d="M439 562h41l-8 -38h-41l-112 -524h-47l73 344h-214l-73 -344h-47l112 524h-44l9 38h43l29 138h47l-29 -138h214l29 138h47zM140 386h214l29 138h-214z" />
    <glyph glyph-name="hbar" unicode="&#x127;" horiz-adv-x="380" 
d="M252 506q52 0 80 -26t28 -76q0 -23 -6 -52l-75 -352h-46l74 349q5 30 5 43q0 74 -72 74q-40 0 -71.5 -29t-47.5 -82l-74 -355h-45l122 579h-54l9 37h52l18 84h45l-18 -84h91l-8 -37h-90l-28 -130q43 57 111 57z" />
    <glyph glyph-name="Itilde" unicode="&#x128;" horiz-adv-x="155" 
d="M112 777l-27 18q37 63 76 63q28 0 51 -22q17 -14 28 -14q26 0 50 44l27 -18q-37 -63 -75 -63q-29 0 -52 22q-17 14 -28 14q-26 0 -50 -44zM48 0h-47l149 700h47z" />
    <glyph glyph-name="itilde" unicode="&#x129;" horiz-adv-x="154" 
d="M70 583l-27 18q38 63 76 63q28 0 51 -22q17 -14 28 -14q26 0 50 44l27 -18q-37 -63 -75 -63q-29 0 -52 22q-17 14 -28 14q-26 0 -50 -44zM47 0h-46l106 496h46z" />
    <glyph glyph-name="Imacron" unicode="&#x12a;" horiz-adv-x="155" 
d="M291 801h-194l9 41h194zM48 0h-47l149 700h47z" />
    <glyph glyph-name="imacron" unicode="&#x12b;" horiz-adv-x="154" 
d="M249 607h-194l9 41h194zM47 0h-46l106 496h46z" />
    <glyph glyph-name="Ibreve" unicode="&#x12c;" horiz-adv-x="155" 
d="M194 774q-39 0 -59.5 19.5t-20.5 53.5q0 3 2 21h32q-1 -3 -1 -15q0 -43 48 -43q59 0 75 58h31q-19 -94 -107 -94zM48 0h-47l149 700h47z" />
    <glyph glyph-name="ibreve" unicode="&#x12d;" horiz-adv-x="154" 
d="M152 580q-39 0 -59.5 19.5t-20.5 53.5q0 3 2 21h32q-1 -3 -1 -15q0 -43 48 -43q59 0 75 58h31q-19 -94 -107 -94zM47 0h-46l106 496h46z" />
    <glyph glyph-name="Iogonek" unicode="&#x12e;" horiz-adv-x="155" 
d="M-27 -95q0 -27 38 -27q23 0 48 13l-5 -35q-27 -11 -54 -11q-65 0 -65 50q0 55 72 105h-6l149 700h47l-149 -700h-4q-31 -18 -51 -44.5t-20 -50.5z" />
    <glyph glyph-name="iogonek" unicode="&#x12f;" horiz-adv-x="154" 
d="M124 577l21 100h45l-21 -100h-45zM47 0h-4q-31 -18 -51 -44.5t-20 -50.5q0 -27 38 -27q23 0 48 13l-5 -35q-27 -11 -54 -11q-65 0 -65 50q0 55 72 105h-5l106 496h46z" />
    <glyph glyph-name="Idot" unicode="&#x130;" horiz-adv-x="155" 
d="M211 771h-45l21 100h45zM48 0h-47l149 700h47z" />
    <glyph glyph-name="dotlessi" unicode="&#x131;" horiz-adv-x="154" 
d="M47 0h-46l106 496h46z" />
    <glyph glyph-name="IJ" unicode="&#x132;" horiz-adv-x="415" 
d="M48 0h-47l149 700h47zM198 -4q-46 0 -73 13l9 42q27 -13 63 -13q77 0 98 98l119 564h47l-120 -568q-28 -136 -143 -136z" />
    <glyph glyph-name="ij" unicode="&#x133;" horiz-adv-x="307" 
d="M169 577h-45l21 100h45zM323 577h-45l21 100h45zM47 0h-46l106 496h46zM48 -149l9 38q20 -14 40 -14q17 0 26.5 10.5t14.5 35.5l122 575h46l-123 -582q-16 -79 -82 -79q-34 0 -53 16z" />
    <glyph glyph-name="Jcircumflex" unicode="&#x134;" horiz-adv-x="260" 
d="M223 761h-42l99 120h54l47 -120h-38l-39 92zM43 -4q-46 0 -73 13l9 42q27 -13 63 -13q77 0 98 98l119 564h47l-120 -568q-28 -136 -143 -136z" />
    <glyph glyph-name="jcircumflex" unicode="&#x135;" horiz-adv-x="153" 
d="M85 567h-42l99 120h54l47 -120h-38l-39 92zM-106 -149l9 38q20 -14 40 -14q17 0 26.5 10.5t14.5 35.5l122 575h46l-123 -582q-16 -79 -82 -79q-34 0 -53 16z" />
    <glyph glyph-name="uni0136" unicode="&#x136;" horiz-adv-x="402" 
d="M421 700h54l-217 -267l69 -433h-47l-61 384l-121 -148l-50 -236h-47l149 700h47l-81 -379zM132 -127h-19l17 77h45l-15 -73l-44 -56h-20z" />
    <glyph glyph-name="uni0137" unicode="&#x137;" horiz-adv-x="372" 
d="M343 496h54l-178 -191l78 -305h-47l-68 266l-102 -109l-33 -157h-46l149 700h46l-100 -472zM117 -127h-19l17 77h45l-15 -73l-44 -56h-20z" />
    <glyph glyph-name="kgreenlandic" unicode="&#x138;" horiz-adv-x="370" 
d="M343 496h54l-178 -191l78 -305h-47l-68 266l-101 -109l-34 -157h-46l106 496h46l-57 -267z" />
    <glyph glyph-name="Lacute" unicode="&#x139;" horiz-adv-x="340" 
d="M199 761h-42l97 120h56zM266 0h-265l149 700h47l-140 -658h218z" />
    <glyph glyph-name="lacute" unicode="&#x13a;" horiz-adv-x="154" 
d="M188 761h-42l97 120h56zM47 0h-46l149 700h46z" />
    <glyph glyph-name="uni013B" unicode="&#x13b;" horiz-adv-x="340" 
d="M266 0h-265l149 700h47l-140 -658h218zM90 -179h-20l36 52h-19l17 77h45l-15 -73z" />
    <glyph glyph-name="uni013C" unicode="&#x13c;" horiz-adv-x="154" 
d="M47 0h-46l149 700h46zM-23 -179h-20l36 52h-19l17 77h45l-15 -73z" />
    <glyph glyph-name="Lcaron" unicode="&#x13d;" horiz-adv-x="340" 
d="M266 0h-265l149 700h47l-140 -658h218zM292 530h-21l37 83h-15l19 87h43l-17 -83z" />
    <glyph glyph-name="lcaron" unicode="&#x13e;" horiz-adv-x="184" 
d="M47 0h-46l149 700h46zM221 530h-21l37 83h-15l19 87h43l-17 -83z" />
    <glyph glyph-name="Ldot" unicode="&#x13f;" horiz-adv-x="339" 
d="M266 0h-265l149 700h47l-140 -658h218zM284 324h-45l19 88h44z" />
    <glyph glyph-name="ldot" unicode="&#x140;" horiz-adv-x="204" 
d="M47 0h-46l149 700h46zM203 304h-48l20 91h48z" />
    <glyph glyph-name="Lslash" unicode="&#x141;" horiz-adv-x="366" 
d="M330 487l-12 -58l-186 -162l-48 -225h218l-9 -42h-265l46 217l-72 -63l12 57l72 63l91 426h47l-80 -375z" />
    <glyph glyph-name="lslash" unicode="&#x142;" horiz-adv-x="211" 
d="M171 445l73 62l-11 -54l-74 -62l-83 -391h-46l73 344l-71 -60l11 54l72 60l64 302h46z" />
    <glyph glyph-name="Nacute" unicode="&#x143;" horiz-adv-x="422" 
d="M323 761h-42l97 120h56zM46 0h-45l149 700h63l82 -582l124 582h45l-149 -700h-49l-86 626z" />
    <glyph glyph-name="nacute" unicode="&#x144;" horiz-adv-x="380" 
d="M316 687h56l-111 -120h-42zM252 506q52 0 80 -26t28 -76q0 -23 -6 -52l-75 -352h-46l74 349q5 30 5 43q0 74 -72 74q-42 0 -75 -33t-47 -90l-73 -343h-46l106 496h39l-13 -62q45 72 121 72z" />
    <glyph glyph-name="uni0145" unicode="&#x145;" horiz-adv-x="422" 
d="M46 0h-45l149 700h63l82 -582l124 582h45l-149 -700h-49l-86 626zM112 -179h-20l36 52h-19l17 77h45l-15 -73z" />
    <glyph glyph-name="uni0146" unicode="&#x146;" horiz-adv-x="380" 
d="M252 506q52 0 80 -26t28 -76q0 -23 -6 -52l-75 -352h-46l74 349q5 30 5 43q0 74 -72 74q-42 0 -75 -33t-47 -90l-73 -343h-46l106 496h39l-13 -62q45 72 121 72zM107 -127h-19l17 77h45l-15 -73l-44 -56h-20z" />
    <glyph glyph-name="Ncaron" unicode="&#x147;" horiz-adv-x="422" 
d="M347 761h-54l-47 120h37l39 -92l81 92h43zM46 0h-45l149 700h63l82 -582l124 582h45l-149 -700h-49l-86 626z" />
    <glyph glyph-name="ncaron" unicode="&#x148;" horiz-adv-x="380" 
d="M384 687l-99 -120h-54l-47 120h37l39 -92l81 92h43zM252 506q52 0 80 -26t28 -76q0 -23 -6 -52l-75 -352h-46l74 349q5 30 5 43q0 74 -72 74q-42 0 -75 -33t-47 -90l-73 -343h-46l106 496h39l-13 -62q45 72 121 72z" />
    <glyph glyph-name="napostrophe" unicode="&#x149;" horiz-adv-x="380" 
d="M120 616l-49 -86h-20l39 82h-17l19 88h45zM252 506q52 0 80 -26t28 -76q0 -23 -6 -52l-75 -352h-46l74 349q5 30 5 43q0 74 -72 74q-42 0 -75 -33t-47 -90l-73 -343h-46l106 496h39l-13 -62q45 72 121 72z" />
    <glyph glyph-name="Eng" unicode="&#x14a;" horiz-adv-x="422" 
d="M166 -165q-40 0 -73 14l9 39q26 -14 64 -14q75 0 96 99q9 33 9 49q0 10 -1 13l-90 591l-134 -626h-45l149 700h63l85 -568l121 568h45l-155 -727q-29 -138 -143 -138z" />
    <glyph glyph-name="eng" unicode="&#x14b;" horiz-adv-x="380" 
d="M252 506q52 0 80 -26t28 -76q0 -23 -6 -52l-90 -423q-21 -94 -101 -94q-39 0 -67 17l8 39q25 -16 56 -16q24 0 38 14.5t22 47.5l87 412q5 30 5 43q0 74 -72 74q-42 0 -75 -33t-47 -90l-73 -343h-46l106 496h39l-13 -62q45 72 121 72z" />
    <glyph glyph-name="Omacron" unicode="&#x14c;" 
d="M414 801h-194l9 41h194zM169 -10q-71 0 -109.5 34.5t-38.5 97.5q0 24 6 52l82 384q33 152 163 152q72 0 110.5 -34.5t38.5 -97.5q0 -24 -6 -52l-81 -385q-31 -151 -165 -151zM173 32q91 0 114 111l83 391q5 28 5 41q0 93 -104 93q-93 0 -115 -112l-84 -390q-5 -28 -5 -41
q0 -93 106 -93z" />
    <glyph glyph-name="omacron" unicode="&#x14d;" horiz-adv-x="368" 
d="M357 607h-194l9 41h194zM150 -10q-62 0 -97.5 32t-35.5 90q0 23 6 50l43 201q32 143 152 143q62 0 97.5 -32t35.5 -90q0 -23 -6 -50l-43 -201q-32 -143 -152 -143zM152 30q81 0 104 104l45 208q5 28 5 41q0 83 -90 83q-81 0 -104 -104l-45 -208q-5 -28 -5 -41
q0 -83 90 -83z" />
    <glyph glyph-name="Obreve" unicode="&#x14e;" 
d="M317 774q-39 0 -59.5 19.5t-20.5 53.5q0 3 2 21h32q-1 -3 -1 -15q0 -43 48 -43q59 0 75 58h31q-19 -94 -107 -94zM169 -10q-71 0 -109.5 34.5t-38.5 97.5q0 24 6 52l82 384q33 152 163 152q72 0 110.5 -34.5t38.5 -97.5q0 -24 -6 -52l-81 -385q-31 -151 -165 -151z
M173 32q91 0 114 111l83 391q5 28 5 41q0 93 -104 93q-93 0 -115 -112l-84 -390q-5 -28 -5 -41q0 -93 106 -93z" />
    <glyph glyph-name="obreve" unicode="&#x14f;" horiz-adv-x="368" 
d="M260 580q-39 0 -59.5 19.5t-20.5 53.5q0 3 2 21h32q-1 -3 -1 -15q0 -43 48 -43q59 0 75 58h31q-19 -94 -107 -94zM150 -10q-62 0 -97.5 32t-35.5 90q0 23 6 50l43 201q32 143 152 143q62 0 97.5 -32t35.5 -90q0 -23 -6 -50l-43 -201q-32 -143 -152 -143zM152 30
q81 0 104 104l45 208q5 28 5 41q0 83 -90 83q-81 0 -104 -104l-45 -208q-5 -28 -5 -41q0 -83 90 -83z" />
    <glyph glyph-name="Ohungarumlaut" unicode="&#x150;" 
d="M256 761h-42l97 120h56zM370 761h-42l97 120h56zM169 -10q-71 0 -109.5 34.5t-38.5 97.5q0 24 6 52l82 384q33 152 163 152q72 0 110.5 -34.5t38.5 -97.5q0 -24 -6 -52l-81 -385q-31 -151 -165 -151zM173 32q91 0 114 111l83 391q5 28 5 41q0 93 -104 93q-93 0 -115 -112
l-84 -390q-5 -28 -5 -41q0 -93 106 -93z" />
    <glyph glyph-name="ohungarumlaut" unicode="&#x151;" horiz-adv-x="368" 
d="M199 567h-42l97 120h56zM313 567h-42l97 120h56zM150 -10q-62 0 -97.5 32t-35.5 90q0 23 6 50l43 201q32 143 152 143q62 0 97.5 -32t35.5 -90q0 -23 -6 -50l-43 -201q-32 -143 -152 -143zM152 30q81 0 104 104l45 208q5 28 5 41q0 83 -90 83q-81 0 -104 -104l-45 -208
q-5 -28 -5 -41q0 -83 90 -83z" />
    <glyph glyph-name="OE" unicode="&#x152;" horiz-adv-x="603" 
d="M526 0h-378q-126 0 -126 110q0 30 7 59l78 366q18 87 62 126t124 39h382l-9 -42h-227l-58 -272h188l-9 -42h-188l-64 -302h227zM156 42h105l131 616h-102q-57 0 -89.5 -29.5t-46.5 -95.5l-79 -370q-6 -29 -6 -50q0 -38 21 -54.5t66 -16.5z" />
    <glyph glyph-name="oe" unicode="&#x153;" horiz-adv-x="601" 
d="M458 506q65 0 99 -31t34 -89q0 -24 -6 -53l-19 -86h-240l-19 -91q-5 -28 -5 -42q0 -84 89 -84q85 0 107 106l4 21h45l-4 -21q-32 -146 -150 -146q-103 0 -123 81q-38 -81 -122 -81q-62 0 -96.5 31.5t-34.5 89.5q0 23 6 51l43 201q32 143 150 143q101 0 120 -79
q39 79 122 79zM152 30q81 0 104 104l45 208q5 28 5 41q0 83 -90 83q-81 0 -104 -104l-45 -208q-5 -28 -5 -41q0 -83 90 -83zM351 362l-16 -75h195l12 55q5 28 5 40q0 41 -24.5 62.5t-67.5 21.5q-81 0 -104 -104z" />
    <glyph glyph-name="Racute" unicode="&#x154;" horiz-adv-x="398" 
d="M303 761h-42l97 120h56zM48 0h-47l149 700h142q127 0 127 -106q0 -24 -6 -54l-9 -43q-14 -67 -42.5 -101.5t-78.5 -45.5v-1q66 -12 66 -89q0 -23 -6 -50l-27 -128q-10 -47 -10 -73v-9h-45v14q1 34 9 72l27 130q6 26 6 45q0 38 -22 54t-73 16h-89zM188 658l-60 -284h83
q63 0 97 27.5t48 91.5l10 47q6 27 6 47q0 71 -87 71h-97z" />
    <glyph glyph-name="racute" unicode="&#x155;" horiz-adv-x="258" 
d="M263 687h56l-111 -120h-42zM144 496l-14 -70q41 80 116 80q28 0 47 -11l-9 -44q-17 11 -47 11q-89 0 -123 -139l-69 -323h-46l106 496h39z" />
    <glyph glyph-name="uni0156" unicode="&#x156;" horiz-adv-x="398" 
d="M48 0h-47l149 700h142q127 0 127 -106q0 -24 -6 -54l-9 -43q-14 -67 -42.5 -101.5t-78.5 -45.5v-1q66 -12 66 -89q0 -23 -6 -50l-27 -128q-10 -47 -10 -73v-9h-45v14q1 34 9 72l27 130q6 26 6 45q0 38 -22 54t-73 16h-89zM188 658l-60 -284h83q63 0 97 27.5t48 91.5
l10 47q6 27 6 47q0 71 -87 71h-97zM111 -179h-20l36 52h-19l17 77h45l-15 -73z" />
    <glyph glyph-name="uni0157" unicode="&#x157;" horiz-adv-x="258" 
d="M246 506q28 0 47 -11l-9 -44q-17 11 -47 11q-89 0 -123 -139l-69 -323h-46l106 496h39l-14 -70q41 80 116 80zM-7 -127h-19l17 77h45l-15 -73l-44 -56h-20z" />
    <glyph glyph-name="Rcaron" unicode="&#x158;" horiz-adv-x="398" 
d="M327 761h-54l-47 120h37l39 -92l81 92h43zM48 0h-47l149 700h142q127 0 127 -106q0 -24 -6 -54l-9 -43q-14 -67 -42.5 -101.5t-78.5 -45.5v-1q66 -12 66 -89q0 -23 -6 -50l-27 -128q-10 -47 -10 -73v-9h-45v14q1 34 9 72l27 130q6 26 6 45q0 38 -22 54t-73 16h-89z
M188 658l-60 -284h83q63 0 97 27.5t48 91.5l10 47q6 27 6 47q0 71 -87 71h-97z" />
    <glyph glyph-name="rcaron" unicode="&#x159;" horiz-adv-x="258" 
d="M331 687l-99 -120h-54l-47 120h37l39 -92l81 92h43zM144 496l-14 -70q41 80 116 80q28 0 47 -11l-9 -44q-17 11 -47 11q-89 0 -123 -139l-69 -323h-46l106 496h39z" />
    <glyph glyph-name="Sacute" unicode="&#x15a;" horiz-adv-x="367" 
d="M293 754h-42l97 120h56zM143 -10q-65 0 -100.5 32t-35.5 93q0 25 6 53l5 24h45l-7 -31q-5 -28 -5 -41q0 -88 97 -88q57 0 90 43q33 44 33 104q0 77 -83 160q-94 94 -94 184q0 83 47 135t125 52q65 0 100 -31.5t35 -90.5q0 -28 -7 -55l-3 -13h-45l5 20q6 24 6 43
q0 41 -25 63t-71 22q-55 0 -87.5 -38.5t-32.5 -99.5q0 -78 84 -162q93 -94 93 -184q0 -84 -47 -140q-46 -54 -128 -54z" />
    <glyph glyph-name="sacute" unicode="&#x15b;" horiz-adv-x="336" 
d="M236 567h-42l97 120h56zM127 -10q-55 0 -89 27.5t-34 78.5q0 21 4 36l2 10h43l-3 -14q-3 -15 -3 -27q0 -35 23 -53t61 -18q48 0 76 29t28 71q0 33 -18.5 55.5t-58.5 46.5l-36 23q-8 6 -28 24q-32 32 -32 82q0 59 41 102q42 43 108 43q53 0 83.5 -28.5t30.5 -77.5
q0 -20 -4 -35h-43q4 20 4 31q0 32 -20 51t-55 19q-43 0 -71.5 -28.5t-28.5 -69.5q0 -32 18.5 -54t59.5 -45q40 -25 63 -48q33 -29 33 -84q0 -61 -42 -104t-112 -43z" />
    <glyph glyph-name="Scircumflex" unicode="&#x15c;" horiz-adv-x="367" 
d="M231 754h-42l99 120h54l47 -120h-38l-39 92zM143 -10q-65 0 -100.5 32t-35.5 93q0 25 6 53l5 24h45l-7 -31q-5 -28 -5 -41q0 -88 97 -88q57 0 90 43q33 44 33 104q0 77 -83 160q-94 94 -94 184q0 83 47 135t125 52q65 0 100 -31.5t35 -90.5q0 -28 -7 -55l-3 -13h-45l5 20
q6 24 6 43q0 41 -25 63t-71 22q-55 0 -87.5 -38.5t-32.5 -99.5q0 -78 84 -162q93 -94 93 -184q0 -84 -47 -140q-46 -54 -128 -54z" />
    <glyph glyph-name="scircumflex" unicode="&#x15d;" horiz-adv-x="336" 
d="M174 567h-42l99 120h54l47 -120h-38l-39 92zM127 -10q-55 0 -89 27.5t-34 78.5q0 21 4 36l2 10h43l-3 -14q-3 -15 -3 -27q0 -35 23 -53t61 -18q48 0 76 29t28 71q0 33 -18.5 55.5t-58.5 46.5l-36 23q-8 6 -28 24q-32 32 -32 82q0 59 41 102q42 43 108 43q53 0 83.5 -28.5
t30.5 -77.5q0 -20 -4 -35h-43q4 20 4 31q0 32 -20 51t-55 19q-43 0 -71.5 -28.5t-28.5 -69.5q0 -32 18.5 -54t59.5 -45q40 -25 63 -48q33 -29 33 -84q0 -61 -42 -104t-112 -43z" />
    <glyph glyph-name="Scedilla" unicode="&#x15e;" horiz-adv-x="367" 
d="M266 710q65 0 100 -31.5t35 -90.5q0 -28 -7 -55l-3 -13h-45l5 20q6 24 6 43q0 41 -25 63t-71 22q-55 0 -87.5 -38.5t-32.5 -99.5q0 -78 84 -162q93 -94 93 -184q0 -84 -47 -140q-46 -54 -128 -54h-2l-8 -35q56 0 56 -44q0 -34 -23 -48t-69 -14q-71 0 -71 46q0 8 2 16h37
q-2 -8 -2 -11q0 -21 39 -21q51 0 51 31q0 19 -36 19h-16l13 63q-107 14 -107 123q0 25 6 53l5 24h45l-7 -31q-5 -28 -5 -41q0 -88 97 -88q57 0 90 43q33 44 33 104q0 77 -83 160q-94 94 -94 184q0 83 47 135t125 52z" />
    <glyph glyph-name="scedilla" unicode="&#x15f;" horiz-adv-x="336" 
d="M321 365h-43q4 20 4 31q0 32 -20 51t-55 19q-43 0 -71.5 -28.5t-28.5 -69.5q0 -32 18.5 -54t59.5 -45q40 -25 63 -48q33 -29 33 -84q0 -61 -42 -104t-112 -43l-9 -39q56 0 56 -44q0 -34 -23 -48t-69 -14q-71 0 -71 46q0 8 2 16h37q-2 -8 -2 -11q0 -21 39 -21q51 0 51 31
q0 19 -36 19h-16l14 67q-44 6 -70 33t-26 71q0 21 4 36l2 10h43l-3 -14q-3 -15 -3 -27q0 -35 23 -53t61 -18q48 0 76 29t28 71q0 33 -18.5 55.5t-58.5 46.5l-36 23q-8 6 -28 24q-32 32 -32 82q0 59 41 102q42 43 108 43q53 0 83.5 -28.5t30.5 -77.5q0 -20 -4 -35z" />
    <glyph glyph-name="Scaron" unicode="&#x160;" horiz-adv-x="367" 
d="M317 754h-54l-47 120h37l39 -92l81 92h43zM143 -10q-65 0 -100.5 32t-35.5 93q0 25 6 53l5 24h45l-7 -31q-5 -28 -5 -41q0 -88 97 -88q57 0 90 43q33 44 33 104q0 77 -83 160q-94 94 -94 184q0 83 47 135t125 52q65 0 100 -31.5t35 -90.5q0 -28 -7 -55l-3 -13h-45l5 20
q6 24 6 43q0 41 -25 63t-71 22q-55 0 -87.5 -38.5t-32.5 -99.5q0 -78 84 -162q93 -94 93 -184q0 -84 -47 -140q-46 -54 -128 -54z" />
    <glyph glyph-name="scaron" unicode="&#x161;" horiz-adv-x="336" 
d="M260 567h-54l-47 120h37l39 -92l81 92h43zM127 -10q-55 0 -89 27.5t-34 78.5q0 21 4 36l2 10h43l-3 -14q-3 -15 -3 -27q0 -35 23 -53t61 -18q48 0 76 29t28 71q0 33 -18.5 55.5t-58.5 46.5l-36 23q-8 6 -28 24q-32 32 -32 82q0 59 41 102q42 43 108 43q53 0 83.5 -28.5
t30.5 -77.5q0 -20 -4 -35h-43q4 20 4 31q0 32 -20 51t-55 19q-43 0 -71.5 -28.5t-28.5 -69.5q0 -32 18.5 -54t59.5 -45q40 -25 63 -48q33 -29 33 -84q0 -61 -42 -104t-112 -43z" />
    <glyph glyph-name="uni0162" unicode="&#x162;" horiz-adv-x="355" 
d="M108 658l9 42h313l-9 -42h-133l-140 -658h-10l-12 -49q56 0 56 -44q0 -34 -23 -48t-69 -14q-71 0 -71 46q0 8 2 16h37q-2 -8 -2 -11q0 -21 39 -21q51 0 51 31q0 19 -36 19h-16l16 75h-9l140 658h-133z" />
    <glyph glyph-name="uni0163" unicode="&#x163;" horiz-adv-x="259" 
d="M281 457h-104l-77 -361q-3 -14 -3 -23q0 -43 49 -43q24 0 45 10l-5 -41q-22 -9 -55 -9q-13 0 -25 3l-10 -42q56 0 56 -44q0 -34 -23 -48t-69 -14q-71 0 -71 46q0 8 2 16h37q-2 -8 -2 -11q0 -21 39 -21q51 0 51 31q0 19 -36 19h-16l17 78q-30 21 -30 64q0 13 3 30l77 360
h-67l9 39h67l38 152h39l-32 -152h105z" />
    <glyph glyph-name="Tcaron" unicode="&#x164;" horiz-adv-x="355" 
d="M313 761h-54l-47 120h37l39 -92l81 92h43zM148 0h-47l140 658h-133l9 42h313l-9 -42h-133z" />
    <glyph glyph-name="tcaron" unicode="&#x165;" horiz-adv-x="258" 
d="M255 631l19 87h43l-17 -83l-46 -87h-21l37 83h-15zM178 648h39l-32 -152h105l-9 -39h-104l-77 -361q-3 -14 -3 -23q0 -43 49 -43q24 0 45 10l-5 -41q-22 -9 -55 -9q-37 0 -58.5 20.5t-21.5 56.5q0 13 3 30l77 360h-67l9 39h67z" />
    <glyph glyph-name="Tbar" unicode="&#x166;" horiz-adv-x="354" 
d="M430 700l-9 -42h-133l-58 -272h91l-9 -42h-91l-73 -344h-47l73 344h-92l9 42h92l58 272h-133l9 42h313z" />
    <glyph glyph-name="tbar" unicode="&#x167;" horiz-adv-x="259" 
d="M290 496l-9 -39h-104l-39 -181h87l-8 -32h-86l-31 -148q-3 -14 -3 -23q0 -43 49 -43q24 0 45 10l-5 -41q-22 -9 -55 -9q-37 0 -58.5 20.5t-21.5 56.5q0 13 3 30l31 147h-57l9 32h55l39 181h-67l9 39h67l38 152h39l-32 -152h105z" />
    <glyph glyph-name="Utilde" unicode="&#x168;" horiz-adv-x="404" 
d="M237 777l-27 18q38 63 76 63q28 0 51 -22q17 -14 28 -14q26 0 50 44l27 -18q-38 -63 -75 -63q-29 0 -52 22q-17 14 -28 14q-26 0 -50 -44zM172 -10q-69 0 -108 34t-39 96q0 24 6 53l112 527h47l-114 -534q-5 -28 -5 -41q0 -45 28 -69t76 -24q89 0 113 111l119 557h46
l-119 -558q-32 -152 -162 -152z" />
    <glyph glyph-name="utilde" unicode="&#x169;" horiz-adv-x="380" 
d="M232 627q-26 0 -50 -44l-27 18q37 63 76 63q28 0 51 -22q17 -14 28 -14q26 0 50 44l27 -18q-37 -63 -75 -63q-29 0 -52 22q-17 14 -28 14zM262 153l73 343h46l-106 -496h-39l13 62q-45 -72 -121 -72q-52 0 -80 26t-28 76q0 24 6 52l75 352h46l-74 -349q-5 -30 -5 -43
q0 -74 72 -74q42 0 75 33t47 90z" />
    <glyph glyph-name="Umacron" unicode="&#x16a;" horiz-adv-x="404" 
d="M416 801h-194l9 41h194zM172 -10q-69 0 -108 34t-39 96q0 24 6 53l112 527h47l-114 -534q-5 -28 -5 -41q0 -45 28 -69t76 -24q89 0 113 111l119 557h46l-119 -558q-32 -152 -162 -152z" />
    <glyph glyph-name="umacron" unicode="&#x16b;" horiz-adv-x="380" 
d="M176 648h194l-9 -41h-194zM262 153l73 343h46l-106 -496h-39l13 62q-45 -72 -121 -72q-52 0 -80 26t-28 76q0 24 6 52l75 352h46l-74 -349q-5 -30 -5 -43q0 -74 72 -74q42 0 75 33t47 90z" />
    <glyph glyph-name="Ubreve" unicode="&#x16c;" horiz-adv-x="404" 
d="M319 774q-39 0 -59.5 19.5t-20.5 53.5q0 3 2 21h32q-1 -3 -1 -15q0 -43 48 -43q59 0 75 58h31q-19 -94 -107 -94zM172 -10q-69 0 -108 34t-39 96q0 24 6 53l112 527h47l-114 -534q-5 -28 -5 -41q0 -45 28 -69t76 -24q89 0 113 111l119 557h46l-119 -558
q-32 -152 -162 -152z" />
    <glyph glyph-name="ubreve" unicode="&#x16d;" horiz-adv-x="380" 
d="M264 580q-39 0 -59.5 19.5t-20.5 53.5q0 3 2 21h32q-1 -3 -1 -15q0 -43 48 -43q59 0 75 58h31q-19 -94 -107 -94zM262 153l73 343h46l-106 -496h-39l13 62q-45 -72 -121 -72q-52 0 -80 26t-28 76q0 24 6 52l75 352h46l-74 -349q-5 -30 -5 -43q0 -74 72 -74q42 0 75 33
t47 90z" />
    <glyph glyph-name="Uring" unicode="&#x16e;" horiz-adv-x="404" 
d="M319 761q-29 0 -47.5 17.5t-18.5 44.5q0 33 22.5 56t55.5 23q30 0 48 -17.5t18 -45.5q0 -33 -23 -55.5t-55 -22.5zM321 791q18 0 31 12.5t13 32.5q0 16 -9.5 26t-25.5 10q-18 0 -31 -13t-13 -33q0 -16 9.5 -25.5t25.5 -9.5zM172 -10q-69 0 -108 34t-39 96q0 24 6 53
l112 527h47l-114 -534q-5 -28 -5 -41q0 -45 28 -69t76 -24q89 0 113 111l119 557h46l-119 -558q-32 -152 -162 -152z" />
    <glyph glyph-name="uring" unicode="&#x16f;" horiz-adv-x="380" 
d="M264 567q-29 0 -47.5 17.5t-18.5 44.5q0 33 23 56t55 23q30 0 48 -17.5t18 -45.5q0 -33 -23 -55.5t-55 -22.5zM275 678q-18 0 -31 -13t-13 -33q0 -16 9.5 -25.5t25.5 -9.5q18 0 31 12.5t13 32.5q0 16 -9.5 26t-25.5 10zM262 153l73 343h46l-106 -496h-39l13 62
q-45 -72 -121 -72q-52 0 -80 26t-28 76q0 24 6 52l75 352h46l-74 -349q-5 -30 -5 -43q0 -74 72 -74q42 0 75 33t47 90z" />
    <glyph glyph-name="Uhungarumlaut" unicode="&#x170;" horiz-adv-x="404" 
d="M258 761h-42l97 120h56zM372 761h-42l97 120h56zM172 -10q-69 0 -108 34t-39 96q0 24 6 53l112 527h47l-114 -534q-5 -28 -5 -41q0 -45 28 -69t76 -24q89 0 113 111l119 557h46l-119 -558q-32 -152 -162 -152z" />
    <glyph glyph-name="uhungarumlaut" unicode="&#x171;" horiz-adv-x="380" 
d="M258 687h56l-111 -120h-42zM428 687l-111 -120h-42l97 120h56zM262 153l73 343h46l-106 -496h-39l13 62q-45 -72 -121 -72q-52 0 -80 26t-28 76q0 24 6 52l75 352h46l-74 -349q-5 -30 -5 -43q0 -74 72 -74q42 0 75 33t47 90z" />
    <glyph glyph-name="Uogonek" unicode="&#x172;" horiz-adv-x="404" 
d="M288 143l119 557h46l-119 -558q-31 -142 -145 -151q-58 -40 -58 -86q0 -27 38 -27q23 0 48 13l-5 -35q-27 -11 -54 -11q-30 0 -47.5 14.5t-17.5 38.5q0 51 58 93q-60 5 -93 38.5t-33 90.5q0 24 6 53l112 527h47l-114 -534q-5 -28 -5 -41q0 -45 28 -69t76 -24
q89 0 113 111z" />
    <glyph glyph-name="uogonek" unicode="&#x173;" horiz-adv-x="380" 
d="M275 0h-13q-83 -47 -83 -95q0 -27 38 -27q23 0 48 13l-5 -35q-27 -11 -54 -11q-65 0 -65 50q0 67 93 113l3 -1l12 55q-45 -72 -121 -72q-52 0 -80 26t-28 76q0 24 6 52l75 352h46l-74 -349q-5 -30 -5 -43q0 -74 72 -74q42 0 75 33t47 90l73 343h46z" />
    <glyph glyph-name="Wcircumflex" unicode="&#x174;" horiz-adv-x="558" 
d="M329 761h-42l99 120h54l47 -120h-38l-39 92zM138 0h-66l49 700h45l-46 -637l227 637h56l-44 -637l226 637h44l-247 -700h-64l39 610z" />
    <glyph glyph-name="wcircumflex" unicode="&#x175;" horiz-adv-x="527" 
d="M273 567h-42l99 120h54l47 -120h-38l-39 92zM130 0h-59l7 496h44l-6 -431l175 431h52l-8 -431l177 431h44l-203 -496h-55l3 411z" />
    <glyph glyph-name="Ycircumflex" unicode="&#x176;" horiz-adv-x="389" 
d="M243 761h-42l99 120h54l47 -120h-38l-39 92zM164 0h-47l68 316l-67 384h47l54 -323l194 323h50l-231 -384z" />
    <glyph glyph-name="ycircumflex" unicode="&#x177;" horiz-adv-x="357" 
d="M183 567h-42l99 120h54l47 -120h-38l-39 92zM342 496h45l-278 -581q-39 -80 -104 -80q-41 0 -58 16l8 39q20 -15 49 -15q37 0 61 50l42 87l-32 484h44l26 -413z" />
    <glyph glyph-name="Ydieresis" unicode="&#x178;" horiz-adv-x="389" 
d="M271 771h-45l21 100h45zM382 771h-45l21 100h45zM164 0h-47l68 316l-67 384h47l54 -323l194 323h50l-231 -384z" />
    <glyph glyph-name="Zacute" unicode="&#x179;" horiz-adv-x="351" 
d="M292 761h-42l97 120h56zM272 0h-300l9 41l378 617h-237l9 42h290l-8 -41l-378 -617h246z" />
    <glyph glyph-name="zacute" unicode="&#x17a;" horiz-adv-x="323" 
d="M237 567h-42l97 120h56zM241 0h-266l8 38l302 419h-203l9 39h256l-8 -38l-302 -419h213z" />
    <glyph glyph-name="Zdotaccent" unicode="&#x17b;" horiz-adv-x="351" 
d="M314 771h-45l21 100h45zM272 0h-300l9 41l378 617h-237l9 42h290l-8 -41l-378 -617h246z" />
    <glyph glyph-name="zdotaccent" unicode="&#x17c;" horiz-adv-x="323" 
d="M259 577h-45l21 100h45zM241 0h-266l8 38l302 419h-203l9 39h256l-8 -38l-302 -419h213z" />
    <glyph glyph-name="Zcaron" unicode="&#x17d;" horiz-adv-x="351" 
d="M316 761h-54l-47 120h37l39 -92l81 92h43zM272 0h-300l9 41l378 617h-237l9 42h290l-8 -41l-378 -617h246z" />
    <glyph glyph-name="zcaron" unicode="&#x17e;" horiz-adv-x="323" 
d="M261 567h-54l-47 120h37l39 -92l81 92h43zM241 0h-266l8 38l302 419h-203l9 39h256l-8 -38l-302 -419h213z" />
    <glyph glyph-name="florin" unicode="&#x192;" 
d="M367 745l-16 -77q67 -21 67 -96q0 -21 -7 -56l-3 -15q-26 -127 -117 -144v-1q71 -24 71 -100q0 -23 -6 -50l-5 -23q-28 -132 -136 -154l-18 -84h-43l17 80h-7h-64l-17 -80h-43l17 80h-76l9 42h47l120 566h-47l9 42h76l15 70h43l-15 -70h52q15 0 19 -1l15 71h43zM361 496
l4 19q6 27 6 48q0 37 -21 53.5t-66 16.5h-81l-55 -257h68q120 0 145 120zM317 259q0 40 -25 57.5t-80 17.5h-73l-56 -267h87q58 0 90.5 29.5t45.5 91.5l5 24q6 27 6 47z" />
    <glyph glyph-name="AEacute" unicode="&#x1fc;" horiz-adv-x="588" 
d="M470 881h56l-111 -120h-42zM660 700l-9 -42h-226l-57 -271h187l-9 -42h-187l-65 -303h226l-9 -42h-273l34 161h-168l-90 -161h-46l393 700h299zM127 202h154l94 441z" />
    <glyph glyph-name="aeacute" unicode="&#x1fd;" horiz-adv-x="587" 
d="M420 687h56l-111 -120h-42zM447 506q63 0 96 -32t33 -90q0 -24 -6 -51l-19 -86h-239l-20 -91q-5 -28 -5 -42q0 -84 89 -84q85 0 107 106l4 21h45l-4 -21q-32 -146 -152 -146q-111 0 -130 85q-46 -85 -135 -85q-51 0 -81 29t-30 77q0 69 39.5 109t123.5 65q76 22 97 36
q22 13 28 43v-3l4 20q3 14 3 27q0 34 -21.5 53.5t-60.5 19.5t-65.5 -22t-34.5 -63l-4 -21h-44l5 23q13 59 50.5 91t92.5 32q95 0 112 -75q39 75 122 75zM515 287l12 55q5 28 5 40q0 41 -24.5 62.5t-67.5 21.5q-81 0 -104 -104l-15 -72l-1 -3h195zM121 30q44 0 77 32t47 89
l3 14l24 113q-15 -18 -104 -45q-121 -34 -121 -134q0 -69 74 -69z" />
    <glyph glyph-name="Oslashacute" unicode="&#x1fe;" 
d="M367 881h56l-111 -120h-42zM432 728l23 -16l-45 -75q11 -28 11 -59q0 -24 -6 -52l-81 -385q-31 -151 -165 -151q-81 0 -119 45l-38 -63l-24 16l44 74q-11 28 -11 60q0 24 6 52l82 384q33 152 163 152q85 0 122 -46zM67 125v-5l299 499q-22 49 -95 49q-93 0 -115 -112
l-84 -390q-5 -28 -5 -41zM375 575v3l-299 -499q23 -47 97 -47q91 0 114 111l83 391q5 28 5 41z" />
    <glyph glyph-name="oslashacute" unicode="&#x1ff;" horiz-adv-x="368" 
d="M310 687h56l-111 -120h-42zM359 528l21 -16l-44 -64q15 -27 15 -64q0 -23 -6 -50l-43 -201q-32 -143 -152 -143q-68 0 -102 37l-39 -57l-21 16l43 63q-14 30 -14 63q0 23 6 50l43 201q32 143 152 143q66 0 101 -36zM62 113q0 -14 1 -17l230 336q-22 34 -77 34
q-81 0 -104 -104l-45 -208q-5 -28 -5 -41zM306 383q0 15 -1 19l-231 -337q23 -35 78 -35q81 0 104 104l45 208q5 28 5 41z" />
    <glyph glyph-name="uni0218" unicode="&#x218;" horiz-adv-x="367" 
d="M143 -10q-65 0 -100.5 32t-35.5 93q0 25 6 53l5 24h45l-7 -31q-5 -28 -5 -41q0 -88 97 -88q57 0 90 43q33 44 33 104q0 77 -83 160q-94 94 -94 184q0 83 47 135t125 52q65 0 100 -31.5t35 -90.5q0 -28 -7 -55l-3 -13h-45l5 20q6 24 6 43q0 41 -25 63t-71 22
q-55 0 -87.5 -38.5t-32.5 -99.5q0 -78 84 -162q93 -94 93 -184q0 -84 -47 -140q-46 -54 -128 -54zM85 -175h-20l36 52h-19l17 77h45l-15 -73z" />
    <glyph glyph-name="uni0219" unicode="&#x219;" horiz-adv-x="336" 
d="M127 -10q-55 0 -89 27.5t-34 78.5q0 21 4 36l2 10h43l-3 -14q-3 -15 -3 -27q0 -35 23 -53t61 -18q48 0 76 29t28 71q0 33 -18.5 55.5t-58.5 46.5l-36 23q-8 6 -28 24q-32 32 -32 82q0 59 41 102q42 43 108 43q53 0 83.5 -28.5t30.5 -77.5q0 -20 -4 -35h-43q4 20 4 31
q0 32 -20 51t-55 19q-43 0 -71.5 -28.5t-28.5 -69.5q0 -32 18.5 -54t59.5 -45q40 -25 63 -48q33 -29 33 -84q0 -61 -42 -104t-112 -43zM70 -179h-20l36 52h-19l17 77h45l-15 -73z" />
    <glyph glyph-name="uni021A" unicode="&#x21a;" horiz-adv-x="355" 
d="M148 0h-47l140 658h-133l9 42h313l-9 -42h-133zM78 -179h-20l36 52h-19l17 77h45l-15 -73z" />
    <glyph glyph-name="uni021B" unicode="&#x21b;" horiz-adv-x="259" 
d="M281 457h-104l-77 -361q-3 -14 -3 -23q0 -43 49 -43q24 0 45 10l-5 -41q-22 -9 -55 -9q-37 0 -58.5 20.5t-21.5 56.5q0 13 3 30l77 360h-67l9 39h67l38 152h39l-32 -152h105zM64 -127h-19l17 77h45l-15 -73l-44 -56h-20z" />
    <glyph glyph-name="uni0237" unicode="&#x237;" horiz-adv-x="153" 
d="M-106 -149l9 38q20 -14 40 -14q17 0 26.5 10.5t14.5 35.5l122 575h46l-123 -582q-16 -79 -82 -79q-34 0 -53 16z" />
    <glyph glyph-name="uni02BC" unicode="&#x2bc;" horiz-adv-x="0" 
d="M52 530h-20l39 82h-17l19 88h45l-17 -84z" />
    <glyph glyph-name="circumflex" unicode="&#x2c6;" horiz-adv-x="500" 
d="M259 567h-42l99 120h54l47 -120h-38l-39 92z" />
    <glyph glyph-name="caron" unicode="&#x2c7;" horiz-adv-x="500" 
d="M345 567h-54l-47 120h37l39 -92l81 92h43z" />
    <glyph glyph-name="uni02C9" unicode="&#x2c9;" horiz-adv-x="500" 
d="M423 607h-194l9 41h194z" />
    <glyph glyph-name="breve" unicode="&#x2d8;" horiz-adv-x="500" 
d="M326 580q-39 0 -59.5 19.5t-20.5 53.5q0 3 2 21h32q-1 -3 -1 -15q0 -43 48 -43q59 0 75 58h31q-19 -94 -107 -94z" />
    <glyph glyph-name="dotaccent" unicode="&#x2d9;" horiz-adv-x="500" 
d="M343 577h-45l21 100h45z" />
    <glyph glyph-name="ring" unicode="&#x2da;" horiz-adv-x="500" 
d="M326 567q-29 0 -47.5 17.5t-18.5 44.5q0 33 23 56t55 23q30 0 48 -17.5t18 -45.5q0 -33 -23 -55.5t-55 -22.5zM328 597q18 0 31 12.5t13 32.5q0 16 -9.5 26t-25.5 10q-18 0 -31 -13t-13 -33q0 -16 9.5 -25.5t25.5 -9.5z" />
    <glyph glyph-name="ogonek" unicode="&#x2db;" horiz-adv-x="500" 
d="M179 -155q-30 0 -47.5 14.5t-17.5 38.5q0 60 80 107l36 -2q-35 -19 -56.5 -45.5t-21.5 -52.5q0 -27 38 -27q23 0 48 13l-5 -35q-27 -11 -54 -11z" />
    <glyph glyph-name="tilde" unicode="&#x2dc;" horiz-adv-x="500" 
d="M244 583l-27 18q37 63 76 63q28 0 51 -22q17 -14 28 -14q26 0 50 44l27 -18q-37 -63 -75 -63q-29 0 -52 22q-17 14 -28 14q-26 0 -50 -44z" />
    <glyph glyph-name="hungarumlaut" unicode="&#x2dd;" horiz-adv-x="500" 
d="M265 567h-42l97 120h56zM379 567h-42l97 120h56z" />
    <glyph glyph-name="gravecomb" unicode="&#x300;" horiz-adv-x="0" 
d="M104 567h-38l-59 120h52z" />
    <glyph glyph-name="acutecomb" unicode="&#x301;" horiz-adv-x="0" 
d="M71 567h-42l97 120h56z" />
    <glyph glyph-name="uni0302" unicode="&#x302;" horiz-adv-x="0" 
d="M9 567h-42l99 120h54l47 -120h-38l-39 92z" />
    <glyph glyph-name="tildecomb" unicode="&#x303;" horiz-adv-x="0" 
d="M-6 583l-27 18q37 63 76 63q28 0 51 -22q17 -14 28 -14q26 0 50 44l27 -18q-37 -63 -75 -63q-29 0 -52 22q-17 14 -28 14q-26 0 -50 -44z" />
    <glyph glyph-name="uni0304" unicode="&#x304;" horiz-adv-x="0" 
d="M173 607h-194l9 41h194z" />
    <glyph glyph-name="uni0306" unicode="&#x306;" horiz-adv-x="0" 
d="M76 580q-39 0 -59.5 19.5t-20.5 53.5q0 3 2 21h32q-1 -3 -1 -15q0 -43 48 -43q59 0 75 58h31q-19 -94 -107 -94z" />
    <glyph glyph-name="uni0307" unicode="&#x307;" horiz-adv-x="0" 
d="M93 577h-45l21 100h45z" />
    <glyph glyph-name="uni0308" unicode="&#x308;" horiz-adv-x="0" 
d="M37 577h-45l21 100h45zM148 577h-45l21 100h45z" />
    <glyph glyph-name="uni030A" unicode="&#x30a;" horiz-adv-x="0" 
d="M76 567q-29 0 -47.5 17.5t-18.5 44.5q0 33 23 56t55 23q30 0 48 -17.5t18 -45.5q0 -33 -23 -55.5t-55 -22.5zM78 597q18 0 31 12.5t13 32.5q0 16 -9.5 26t-25.5 10q-18 0 -31 -13t-13 -33q0 -16 9.5 -25.5t25.5 -9.5z" />
    <glyph glyph-name="uni030B" unicode="&#x30b;" horiz-adv-x="0" 
d="M15 567h-42l97 120h56zM129 567h-42l97 120h56z" />
    <glyph glyph-name="uni030C" unicode="&#x30c;" horiz-adv-x="0" 
d="M95 567h-54l-47 120h37l39 -92l81 92h43z" />
    <glyph glyph-name="uni0312" unicode="&#x312;" horiz-adv-x="0" 
d="M92 577h-45l15 74l44 56h20l-36 -53h18z" />
    <glyph glyph-name="uni0326" unicode="&#x326;" horiz-adv-x="0" 
d="M-99 -179h-20l36 52h-19l17 77h45l-15 -73z" />
    <glyph glyph-name="uni0327" unicode="&#x327;" horiz-adv-x="0" 
d="M-87 -155q-71 0 -71 46q0 8 2 16h37q-2 -8 -2 -11q0 -21 39 -21q51 0 51 31q0 19 -36 19h-16l17 80h28l-13 -54q56 0 56 -44q0 -34 -23 -48t-69 -14z" />
    <glyph glyph-name="uni0328" unicode="&#x328;" horiz-adv-x="0" 
d="M-71 -155q-30 0 -47.5 14.5t-17.5 38.5q0 60 80 107l36 -2q-35 -19 -56.5 -45.5t-21.5 -52.5q0 -27 38 -27q23 0 48 13l-5 -35q-27 -11 -54 -11z" />
    <glyph glyph-name="uni0335" unicode="&#x335;" horiz-adv-x="0" 
d="M112 330h-189l9 40h188z" />
    <glyph glyph-name="uni0336" unicode="&#x336;" horiz-adv-x="0" 
d="M214 331h-393l9 38h392z" />
    <glyph glyph-name="uni0337" unicode="&#x337;" horiz-adv-x="0" 
d="M196 512l-371 -542l-21 16l371 542z" />
    <glyph glyph-name="uni0338" unicode="&#x338;" horiz-adv-x="0" 
d="M255 712l-443 -740l-24 16l444 740z" />
    <glyph glyph-name="uni0394" unicode="&#x394;" horiz-adv-x="401" 
d="M-30 0l294 700h63l-2 -700h-355zM280 634l-247 -593h245z" />
    <glyph glyph-name="uni03A9" unicode="&#x3a9;" horiz-adv-x="395" 
d="M122 0h-131l9 42h93l-1 3q-52 64 -52 152q0 44 12 103l55 258q32 152 165 152q70 0 108 -34.5t38 -96.5q0 -25 -6 -53l-48 -230q-18 -88 -52 -146q-35 -58 -93 -107l-3 -1h91l-9 -42h-132l8 43q59 49 91 103.5t49 136.5l53 251q5 28 5 41q0 45 -26.5 69t-75.5 24
q-93 0 -117 -112l-59 -277q-12 -57 -12 -99q0 -76 48 -139z" />
    <glyph glyph-name="uni03BC" unicode="&#x3bc;" horiz-adv-x="384" 
d="M268 153l73 343h46l-106 -496h-39l13 62q-45 -72 -121 -72q-57 0 -83 32l-38 -177h-45l139 651h46l-74 -349q-5 -30 -5 -43q0 -74 72 -74q42 0 75 33t47 90z" />
    <glyph glyph-name="pi" unicode="&#x3c0;" horiz-adv-x="438" 
d="M84 0h-45l97 457h-70l9 39h394l-9 -39h-69l-97 -457h-45l97 457h-165z" />
    <glyph glyph-name="uni1E02" unicode="&#x1e02;" horiz-adv-x="401" 
d="M323 771h-45l21 100h45zM165 0h-164l149 700h139q68 0 100.5 -26t32.5 -81q0 -24 -6 -54l-6 -29q-26 -120 -114 -142v-1q68 -21 68 -100q0 -23 -6 -52l-12 -57q-17 -83 -59.5 -120.5t-121.5 -37.5zM188 658l-58 -272h87q63 0 97.5 28.5t47.5 91.5l7 34q6 28 6 48
q0 37 -21 53.5t-67 16.5h-99zM121 344l-64 -302h108q57 0 89.5 29t45.5 92l12 57q6 27 6 48q0 40 -25 58t-80 18h-92z" />
    <glyph glyph-name="uni1E03" unicode="&#x1e03;" horiz-adv-x="381" 
d="M186 871h45l-21 -100h-45zM255 506q52 0 81 -27t29 -77q0 -22 -6 -49l-49 -234q-27 -129 -130 -129q-49 0 -81 26t-40 73l-26 -89h-34l149 700h47l-54 -255q45 61 114 61zM266 127l47 226q5 28 5 40q0 36 -20.5 54.5t-55.5 18.5q-43 0 -77 -34.5t-47 -93.5l-33 -156
q-5 -22 -5 -46q0 -49 25 -77.5t67 -28.5q75 0 94 97z" />
    <glyph glyph-name="uni1E0A" unicode="&#x1e0a;" horiz-adv-x="406" 
d="M328 771h-45l21 100h45zM161 0h-160l149 700h146q131 0 131 -113q0 -21 -7 -56l-78 -366q-18 -87 -60.5 -126t-120.5 -39zM188 658l-131 -616h103q57 0 89.5 29.5t46.5 95.5l78 370q6 28 6 50q0 38 -20.5 54.5t-65.5 16.5h-106z" />
    <glyph glyph-name="uni1E0B" unicode="&#x1e0b;" horiz-adv-x="380" 
d="M392 771l21 100h45l-21 -100h-45zM319 421l60 279h47l-125 -584q-17 -78 -15 -116h-44q-1 14 7 63q-48 -73 -123 -73q-52 0 -81 27t-29 77q0 22 6 49l49 234q27 129 130 129q45 0 76 -22.5t42 -62.5zM262 153l37 173q2 32 2 34q0 49 -25 77.5t-67 28.5q-75 0 -94 -97
l-47 -226q-5 -28 -5 -40q0 -36 20.5 -54.5t55.5 -18.5q42 0 75.5 33t47.5 90z" />
    <glyph glyph-name="uni1E1E" unicode="&#x1e1e;" horiz-adv-x="340" 
d="M320 771h-45l21 100h45zM48 0h-47l149 700h265l-9 -42h-218l-60 -281h179l-9 -42h-179z" />
    <glyph glyph-name="uni1E1F" unicode="&#x1e1f;" horiz-adv-x="259" 
d="M267 871h45l-21 -100h-45zM271 670q-25 0 -38.5 -14.5t-20.5 -46.5l-24 -113h105l-9 -39h-104l-98 -457h-46l98 457h-69l9 39h68l26 120q21 94 102 94q42 0 67 -16l-8 -39q-27 15 -58 15z" />
    <glyph glyph-name="uni1E40" unicode="&#x1e40;" horiz-adv-x="516" 
d="M392 771h-45l21 100h45zM45 0h-44l149 700h72l2 -611l262 611h73l-149 -700h-47l136 637l-274 -637h-40l-4 637z" />
    <glyph glyph-name="uni1E41" unicode="&#x1e41;" horiz-adv-x="591" 
d="M366 677h45l-21 -100h-45zM471 506q50 0 77 -26t27 -75q0 -24 -6 -53l-75 -352h-46l74 349q5 27 5 44q0 73 -68 73q-42 0 -74 -34.5t-45 -94.5l-72 -337h-46l74 349q6 28 6 44q0 73 -69 73q-40 0 -71.5 -33t-45.5 -90l-73 -343h-46l106 496h39l-13 -63q43 73 117 73
q93 0 103 -82q43 82 122 82z" />
    <glyph glyph-name="uni1E56" unicode="&#x1e56;" horiz-adv-x="381" 
d="M325 771h-45l21 100h45zM48 0h-47l149 700h143q126 0 126 -110q0 -30 -7 -59l-11 -51q-19 -87 -62 -125.5t-124 -38.5h-100zM188 658l-64 -300h95q58 0 89.5 29t45.5 95l12 56q6 27 6 48q0 38 -20.5 55t-65.5 17h-98z" />
    <glyph glyph-name="uni1E57" unicode="&#x1e57;" horiz-adv-x="380" 
d="M263 677h45l-21 -100h-45zM254 506q52 0 81 -27t29 -77q0 -22 -6 -49l-49 -234q-27 -129 -130 -129q-45 0 -76 22.5t-42 62.5l-49 -230h-46l139 651h39l-13 -64q47 74 123 74zM265 127l47 226q5 28 5 40q0 36 -20.5 54.5t-55.5 18.5q-41 0 -73.5 -31t-47.5 -86l-36 -167
l-2 -10q-3 -18 -3 -36q0 -49 25 -77.5t67 -28.5q75 0 94 97z" />
    <glyph glyph-name="uni1E60" unicode="&#x1e60;" horiz-adv-x="367" 
d="M315 764h-45l21 100h45zM143 -10q-65 0 -100.5 32t-35.5 93q0 25 6 53l5 24h45l-7 -31q-5 -28 -5 -41q0 -88 97 -88q57 0 90 43q33 44 33 104q0 77 -83 160q-94 94 -94 184q0 83 47 135t125 52q65 0 100 -31.5t35 -90.5q0 -28 -7 -55l-3 -13h-45l5 20q6 24 6 43
q0 41 -25 63t-71 22q-55 0 -87.5 -38.5t-32.5 -99.5q0 -78 84 -162q93 -94 93 -184q0 -84 -47 -140q-46 -54 -128 -54z" />
    <glyph glyph-name="uni1E61" unicode="&#x1e61;" horiz-adv-x="336" 
d="M258 577h-45l21 100h45zM127 -10q-55 0 -89 27.5t-34 78.5q0 21 4 36l2 10h43l-3 -14q-3 -15 -3 -27q0 -35 23 -53t61 -18q48 0 76 29t28 71q0 33 -18.5 55.5t-58.5 46.5l-36 23q-8 6 -28 24q-32 32 -32 82q0 59 41 102q42 43 108 43q53 0 83.5 -28.5t30.5 -77.5
q0 -20 -4 -35h-43q4 20 4 31q0 32 -20 51t-55 19q-43 0 -71.5 -28.5t-28.5 -69.5q0 -32 18.5 -54t59.5 -45q40 -25 63 -48q33 -29 33 -84q0 -61 -42 -104t-112 -43z" />
    <glyph glyph-name="uni1E6A" unicode="&#x1e6a;" horiz-adv-x="355" 
d="M311 771h-45l21 100h45zM148 0h-47l140 658h-133l9 42h313l-9 -42h-133z" />
    <glyph glyph-name="uni1E6B" unicode="&#x1e6b;" horiz-adv-x="259" 
d="M211 819h45l-21 -100h-45zM281 457h-104l-77 -361q-3 -14 -3 -23q0 -43 49 -43q24 0 45 10l-5 -41q-22 -9 -55 -9q-37 0 -58.5 20.5t-21.5 56.5q0 13 3 30l77 360h-67l9 39h67l38 152h39l-32 -152h105z" />
    <glyph glyph-name="Wgrave" unicode="&#x1e80;" horiz-adv-x="558" 
d="M424 761h-38l-59 120h52zM138 0h-66l49 700h45l-46 -637l227 637h56l-44 -637l226 637h44l-247 -700h-64l39 610z" />
    <glyph glyph-name="wgrave" unicode="&#x1e81;" horiz-adv-x="527" 
d="M368 567h-38l-59 120h52zM130 0h-59l7 496h44l-6 -431l175 431h52l-8 -431l177 431h44l-203 -496h-55l3 411z" />
    <glyph glyph-name="Wacute" unicode="&#x1e82;" horiz-adv-x="558" 
d="M391 761h-42l97 120h56zM138 0h-66l49 700h45l-46 -637l227 637h56l-44 -637l226 637h44l-247 -700h-64l39 610z" />
    <glyph glyph-name="wacute" unicode="&#x1e83;" horiz-adv-x="527" 
d="M335 567h-42l97 120h56zM130 0h-59l7 496h44l-6 -431l175 431h52l-8 -431l177 431h44l-203 -496h-55l3 411z" />
    <glyph glyph-name="Wdieresis" unicode="&#x1e84;" horiz-adv-x="558" 
d="M357 771h-45l21 100h45zM468 771h-45l21 100h45zM138 0h-66l49 700h45l-46 -637l227 637h56l-44 -637l226 637h44l-247 -700h-64l39 610z" />
    <glyph glyph-name="wdieresis" unicode="&#x1e85;" horiz-adv-x="527" 
d="M301 577h-45l21 100h45zM412 577h-45l21 100h45zM130 0h-59l7 496h44l-6 -431l175 431h52l-8 -431l177 431h44l-203 -496h-55l3 411z" />
    <glyph glyph-name="uni1E9E" unicode="&#x1e9e;" horiz-adv-x="407" 
d="M150 700h308l-8 -42l-177 -246q105 -10 105 -109q0 -23 -7 -58l-17 -80q-18 -87 -60.5 -126t-120.5 -39h-40l9 42h35q56 0 86 29t44 95l18 85q5 23 5 45q0 75 -90 75h-24l8 40l178 247h-214l-140 -658h-47z" />
    <glyph glyph-name="Ygrave" unicode="&#x1ef2;" horiz-adv-x="389" 
d="M338 761h-38l-59 120h52zM164 0h-47l68 316l-67 384h47l54 -323l194 323h50l-231 -384z" />
    <glyph glyph-name="ygrave" unicode="&#x1ef3;" horiz-adv-x="357" 
d="M278 567h-38l-59 120h52zM342 496h45l-278 -581q-39 -80 -104 -80q-41 0 -58 16l8 39q20 -15 49 -15q37 0 61 50l42 87l-32 484h44l26 -413z" />
    <glyph glyph-name="uni2002" unicode="&#x2002;" horiz-adv-x="300" 
 />
    <glyph glyph-name="uni2003" unicode="&#x2003;" horiz-adv-x="500" 
 />
    <glyph glyph-name="uni2007" unicode="&#x2007;" 
 />
    <glyph glyph-name="uni2008" unicode="&#x2008;" horiz-adv-x="166" 
 />
    <glyph glyph-name="uni200B" unicode="&#x200b;" horiz-adv-x="0" 
 />
    <glyph glyph-name="figuredash" unicode="&#x2012;" 
d="M407 282h-400l8 36h400z" />
    <glyph glyph-name="endash" unicode="&#x2013;" horiz-adv-x="300" 
d="M307 282h-300l8 36h300z" />
    <glyph glyph-name="emdash" unicode="&#x2014;" horiz-adv-x="500" 
d="M507 282h-500l8 36h500z" />
    <glyph glyph-name="quoteleft" unicode="&#x2018;" horiz-adv-x="166" 
d="M167 703h23l-48 -96h18l-20 -91h-48l18 87z" />
    <glyph glyph-name="quoteright" unicode="&#x2019;" horiz-adv-x="166" 
d="M152 513h-23l48 96h-18l20 91h48l-18 -87z" />
    <glyph glyph-name="quotesinglbase" unicode="&#x201a;" horiz-adv-x="166" 
d="M-1 -96h-23l48 96h-18l20 91h48l-18 -87z" />
    <glyph glyph-name="quotedblleft" unicode="&#x201c;" horiz-adv-x="270" 
d="M167 700h23l-48 -96h18l-20 -91h-48l18 87zM271 700h23l-48 -96h18l-20 -91h-48l18 87z" />
    <glyph glyph-name="quotedblright" unicode="&#x201d;" horiz-adv-x="269" 
d="M151 513h-23l48 96h-18l20 91h48l-18 -87zM254 513h-23l48 96h-18l20 91h48l-18 -87z" />
    <glyph glyph-name="quotedblbase" unicode="&#x201e;" horiz-adv-x="269" 
d="M-1 -96h-23l48 96h-18l20 91h48l-18 -87zM102 -96h-23l48 96h-18l20 91h48l-18 -87z" />
    <glyph glyph-name="dagger" unicode="&#x2020;" horiz-adv-x="422" 
d="M159 -97h-42l117 554h-155l9 40h155l43 203h42l-43 -203h155l-9 -40h-155z" />
    <glyph glyph-name="daggerdbl" unicode="&#x2021;" horiz-adv-x="428" 
d="M162 -97h-42l47 225h-155l9 41h155l61 288h-155l9 40h155l43 203h42l-43 -203h155l-9 -40h-155l-61 -288h155l-9 -41h-155z" />
    <glyph glyph-name="bullet" unicode="&#x2022;" horiz-adv-x="300" 
d="M156 251q-20 0 -32.5 12t-12.5 30q0 23 16.5 38.5t38.5 15.5q21 0 33 -12t12 -31q0 -23 -16 -38t-39 -15z" />
    <glyph glyph-name="ellipsis" unicode="&#x2026;" horiz-adv-x="500" 
d="M54 0h-48l20 91h48zM221 0h-48l20 91h48zM388 0h-48l20 91h48z" />
    <glyph glyph-name="perthousand" unicode="&#x2030;" horiz-adv-x="829" 
d="M164 322q-97 0 -97 85q0 19 4 34l36 171q10 47 37.5 72.5t68.5 25.5q47 0 72 -22.5t25 -62.5q0 -19 -4 -34l-36 -171q-20 -98 -106 -98zM119 0h-39l423 700h38zM164 357q55 0 68 64l37 177q3 14 3 24q0 53 -59 53q-55 0 -68 -64l-36 -177q-3 -14 -3 -25q0 -52 58 -52z
M407 -11q-97 0 -97 85q0 19 4 34l36 171q10 47 37.5 72.5t68.5 25.5q47 0 72 -22.5t25 -62.5q0 -19 -4 -34l-36 -171q-20 -98 -106 -98zM659 -11q-97 0 -97 85q0 19 4 34l36 171q10 47 37.5 72.5t68.5 25.5q47 0 72 -22.5t25 -62.5q0 -19 -4 -34l-36 -171q-20 -98 -106 -98z
M407 24q55 0 68 64l37 177q3 13 3 24q0 53 -59 53q-55 0 -68 -64l-36 -177q-3 -13 -3 -25q0 -52 58 -52zM659 24q55 0 68 64l37 177q3 13 3 24q0 53 -59 53q-55 0 -68 -64l-36 -177q-3 -13 -3 -25q0 -52 58 -52z" />
    <glyph glyph-name="guilsinglleft" unicode="&#x2039;" horiz-adv-x="162" 
d="M115 208h-34l-34 92l72 90h36l-68 -94z" />
    <glyph glyph-name="guilsinglright" unicode="&#x203a;" horiz-adv-x="162" 
d="M66 208h-36l67 94l-27 88h34l33 -92z" />
    <glyph glyph-name="fraction" unicode="&#x2044;" horiz-adv-x="81" 
d="M-129 0h-39l423 700h38z" />
    <glyph glyph-name="uni2070" unicode="&#x2070;" horiz-adv-x="287" 
d="M179 341q-97 0 -97 85q0 19 4 34l53 247q23 98 106 98q47 0 72 -22.5t25 -62.5q0 -19 -4 -34l-53 -247q-23 -98 -106 -98zM179 376q55 0 68 64l54 253q3 13 3 24q0 53 -59 53q-55 0 -68 -64l-53 -253q-3 -13 -3 -25q0 -52 58 -52z" />
    <glyph glyph-name="uni2074" unicode="&#x2074;" horiz-adv-x="288" 
d="M244 351h-39l20 93h-151l7 35l214 316h44l-68 -317h37l-7 -34h-37zM287 726l-168 -248h113z" />
    <glyph glyph-name="uni2075" unicode="&#x2075;" horiz-adv-x="289" 
d="M181 341q-47 0 -71 22.5t-24 61.5q0 13 4 34l3 14h37l-4 -19q-3 -12 -3 -24q0 -54 59 -54q53 0 67 65l20 94q3 15 3 27q0 51 -51 51q-45 0 -67 -48l-6 -13h-35l64 243h175l-8 -34h-140l-39 -148q27 34 71 34q76 0 76 -74q0 -22 -4 -37l-21 -98q-21 -97 -106 -97z" />
    <glyph glyph-name="uni2076" unicode="&#x2076;" horiz-adv-x="287" 
d="M182 341q-97 0 -97 85q0 19 4 34l54 247q21 98 108 98q94 0 94 -85q0 -14 -3 -30h-37q3 16 3 29q0 51 -58 51q-56 0 -70 -69l-24 -111q27 37 73 37q37 0 59 -20.5t22 -56.5q0 -19 -4 -34l-17 -77q-23 -98 -107 -98zM182 376q53 0 68 64l17 75q3 14 3 26q0 51 -56 51
q-27 0 -46 -19t-26 -50l-15 -70q-3 -13 -3 -25q0 -52 58 -52z" />
    <glyph glyph-name="uni2077" unicode="&#x2077;" horiz-adv-x="288" 
d="M135 351h-43l219 410h-159l8 34h199l-7 -34z" />
    <glyph glyph-name="uni2078" unicode="&#x2078;" horiz-adv-x="288" 
d="M79 427q0 18 4 33l9 43q15 72 72 85v1q-35 18 -35 61q0 10 4 30l5 29q20 96 110 96q43 0 69.5 -22t26.5 -60q0 -14 -4 -35l-6 -29q-14 -67 -69 -81v-1q39 -18 39 -65q0 -11 -4 -31l-9 -43q-21 -97 -111 -97q-46 0 -73.5 22.5t-27.5 63.5zM226 599q56 0 70 60l7 34
q3 13 3 24q0 53 -60 53q-57 0 -70 -64l-6 -34q-3 -12 -3 -22q0 -25 16.5 -38t42.5 -13zM181 376q59 0 72 66l10 48q3 14 3 24q0 53 -65 53q-58 0 -70 -63l-10 -48q-3 -14 -3 -25q0 -55 63 -55z" />
    <glyph glyph-name="uni2079" unicode="&#x2079;" horiz-adv-x="287" 
d="M173 341q-94 0 -94 85q0 14 3 30h37q-3 -16 -3 -29q0 -51 58 -51q56 0 70 69l24 111q-27 -37 -73 -37q-37 0 -59 20.5t-22 56.5q0 19 4 34l17 77q23 98 107 98q97 0 97 -85q0 -19 -4 -34l-54 -247q-21 -98 -108 -98zM210 554q27 0 46 19t26 50l15 70q3 13 3 25
q0 52 -58 52q-53 0 -68 -64l-17 -75q-3 -13 -3 -26q0 -51 56 -51z" />
    <glyph glyph-name="uni2080" unicode="&#x2080;" horiz-adv-x="287" 
d="M91 -75q-97 0 -97 85q0 19 4 34l53 247q23 98 106 98q47 0 72 -22.5t25 -62.5q0 -19 -4 -34l-53 -247q-23 -98 -106 -98zM91 -40q55 0 68 64l54 253q3 13 3 24q0 53 -59 53q-55 0 -68 -64l-53 -253q-3 -14 -3 -25q0 -52 58 -52z" />
    <glyph glyph-name="uni2081" unicode="&#x2081;" horiz-adv-x="288" 
d="M121 -65h-40l82 375q-28 -19 -83 -22l3 30q69 3 103 61h30z" />
    <glyph glyph-name="uni2082" unicode="&#x2082;" horiz-adv-x="289" 
d="M175 -65h-195l11 49q12 52 40 89t82 77q47 34 70 62.5t31 63.5q3 13 3 26q0 52 -56 52q-55 0 -69 -63l-9 -40h-36l9 41q22 97 107 97q46 0 69.5 -22t23.5 -61q0 -18 -4 -33q-17 -74 -116 -150q-50 -37 -74 -67t-33 -69l-4 -18h158z" />
    <glyph glyph-name="uni2083" unicode="&#x2083;" horiz-adv-x="289" 
d="M88 -75q-47 0 -71.5 22t-24.5 61q0 20 4 35l5 23h37l-6 -29q-3 -14 -3 -25q0 -52 58 -52q56 0 69 67l11 53q3 15 3 26q0 44 -48 44h-30l7 34h29q60 0 76 72l4 17q4 13 4 29q0 52 -58 52q-55 0 -68 -64l-7 -31h-36l7 32q21 98 105 98q96 0 96 -82q0 -13 -4 -34l-3 -15
q-16 -78 -73 -91v-1q37 -12 37 -62q0 -15 -3 -30l-11 -52q-21 -97 -106 -97z" />
    <glyph glyph-name="uni2084" unicode="&#x2084;" horiz-adv-x="289" 
d="M156 -65h-39l20 93h-151l7 35l214 316h44l-68 -317h37l-7 -34h-37zM199 310l-168 -248h113z" />
    <glyph glyph-name="uni2085" unicode="&#x2085;" horiz-adv-x="288" 
d="M92 -75q-47 0 -71 22.5t-24 61.5q0 13 4 34l3 14h37l-4 -19q-3 -12 -3 -24q0 -54 59 -54q53 0 67 65l20 94q3 15 3 27q0 51 -51 51q-44 0 -67 -48l-6 -13h-35l64 243h175l-8 -34h-140l-39 -148q27 34 71 34q76 0 76 -74q0 -22 -4 -37l-21 -98q-21 -97 -106 -97z" />
    <glyph glyph-name="uni2086" unicode="&#x2086;" horiz-adv-x="288" 
d="M94 -75q-97 0 -97 85q0 19 4 34l54 247q21 98 108 98q94 0 94 -85q0 -14 -3 -30h-37q3 16 3 29q0 51 -58 51q-56 0 -70 -69l-24 -111q27 37 73 37q37 0 59 -20.5t22 -56.5q0 -19 -4 -34l-17 -77q-23 -98 -107 -98zM94 -40q53 0 68 64l17 75q3 13 3 26q0 51 -56 51
q-27 0 -46 -19t-26 -50l-15 -70q-3 -14 -3 -25q0 -52 58 -52z" />
    <glyph glyph-name="uni2087" unicode="&#x2087;" horiz-adv-x="288" 
d="M47 -65h-43l219 410h-159l8 34h199l-7 -34z" />
    <glyph glyph-name="uni2088" unicode="&#x2088;" horiz-adv-x="288" 
d="M-9 11q0 18 4 33l9 43q15 72 72 85v1q-35 18 -35 61q0 10 4 30l5 29q20 96 110 96q43 0 69.5 -22t26.5 -60q0 -14 -4 -35l-6 -29q-14 -67 -69 -81v-1q39 -18 39 -65q0 -11 -4 -31l-9 -43q-21 -97 -111 -97q-46 0 -73.5 22.5t-27.5 63.5zM138 183q56 0 70 60l7 34
q3 13 3 24q0 53 -60 53q-57 0 -70 -64l-6 -34q-3 -12 -3 -22q0 -25 16.5 -38t42.5 -13zM93 -40q59 0 72 66l10 48q3 14 3 24q0 53 -65 53q-58 0 -70 -63l-10 -48q-3 -13 -3 -25q0 -55 63 -55z" />
    <glyph glyph-name="uni2089" unicode="&#x2089;" horiz-adv-x="287" 
d="M85 -75q-94 0 -94 85q0 14 3 30h37q-3 -16 -3 -29q0 -51 58 -51q56 0 70 69l24 111q-27 -37 -73 -37q-37 0 -59 20.5t-22 56.5q0 19 4 34l17 77q23 98 107 98q97 0 97 -85q0 -19 -4 -34l-54 -247q-21 -98 -108 -98zM122 138q27 0 46 19t26 50l15 70q3 13 3 25
q0 52 -58 52q-53 0 -68 -64l-17 -75q-3 -13 -3 -26q0 -51 56 -51z" />
    <glyph glyph-name="Euro" unicode="&#x20ac;" 
d="M184 -10q-68 0 -105 34t-37 94q0 23 6 50l26 120h-38l7 36h38l17 77h-38l7 36h37l27 124q15 70 57 109.5t104 39.5q68 0 105 -34.5t37 -95.5q0 -23 -6 -50l-6 -27h-44l7 34q4 15 4 36q0 45 -25.5 70t-72.5 25q-43 0 -73 -28.5t-41 -80.5l-26 -122h189l-7 -36h-189
l-17 -77h189l-7 -36h-189l-27 -127q-4 -15 -4 -37q0 -44 26 -68t72 -24q43 0 73 28t41 79l17 80h45l-18 -82q-15 -70 -56.5 -108.5t-104.5 -38.5z" />
    <glyph glyph-name="uni20B9" unicode="&#x20b9;" 
d="M134 700h328l-10 -42h-129q28 -16 42.5 -48t11.5 -71h50l-9 -42h-45q-11 -73 -59 -117t-119 -44h-88l202 -336h-53l-200 336l9 42h117q63 0 100 31t45 88h-237l9 42h233q11 119 -116 119h-92z" />
    <glyph glyph-name="uni20BF" unicode="&#x20bf;" 
d="M367 745l-16 -77q67 -21 67 -96q0 -21 -7 -56l-3 -15q-26 -127 -117 -144v-1q71 -24 71 -100q0 -23 -6 -50l-5 -23q-28 -132 -136 -154l-18 -84h-43l17 80h-7h-64l-17 -80h-43l17 80h-76l9 42h47l120 566h-47l9 42h76l15 70h43l-15 -70h52q15 0 19 -1l15 71h43zM361 496
l4 19q6 27 6 48q0 37 -21 53.5t-66 16.5h-81l-55 -257h68q120 0 145 120zM317 259q0 40 -25 57.5t-80 17.5h-73l-56 -267h87q58 0 90.5 29.5t45.5 91.5l5 24q6 27 6 47z" />
    <glyph glyph-name="uni2113" unicode="&#x2113;" horiz-adv-x="228" 
d="M99 -10q-38 0 -59.5 19.5t-21.5 56.5q0 11 4 31l128 603h45l-128 -602q-3 -12 -3 -23q0 -44 46 -44q26 0 50 11l-6 -43q-22 -9 -55 -9z" />
    <glyph glyph-name="uni2116" unicode="&#x2116;" horiz-adv-x="657" 
d="M45 0h-44l149 700h68l45 -582l124 582h44l-149 -700h-54l-49 626zM536 286q-46 0 -71 23.5t-25 65.5q0 20 4 35l31 148q21 103 111 103q46 0 71 -23.5t25 -65.5q0 -20 -4 -35l-31 -148q-21 -103 -111 -103zM537 320q59 0 72 70l33 153q3 15 3 27q0 27 -16 42t-45 15
q-58 0 -71 -70l-33 -153q-3 -15 -3 -27q0 -57 60 -57zM599 189h-198l7 34h198z" />
    <glyph glyph-name="uni2117" unicode="&#x2117;" horiz-adv-x="768" 
d="M655 92q-99 -102 -249 -102t-249 102q-99 104 -99 258q0 155 99 257q99 103 249 103t249 -103q99 -102 99 -257q0 -154 -99 -258zM184 119q88 -91 222 -91t221 91q88 91 88 231t-88 231q-87 91 -221 91t-222 -91q-87 -91 -87 -231t87 -231zM360 127h-40v428h105
q53 0 79 -25t26 -81v-38q0 -56 -26 -81t-79 -25h-65v-178zM360 517v-174h63q36 0 51.5 16.5t15.5 55.5v30q0 40 -16 56t-51 16h-63z" />
    <glyph glyph-name="uni2120" unicode="&#x2120;" horiz-adv-x="599" 
d="M92 425v18h35v-17q0 -58 61 -58q60 0 60 58q0 31 -16 48t-58 36q-43 19 -62.5 43t-19.5 62q0 42 25 66.5t69 24.5t68.5 -23.5t24.5 -65.5v-9h-35v8q4 37 -26.5 51.5t-61 -0.5t-27.5 -49q0 -28 16 -45.5t59 -36.5q42 -19 61.5 -44t19.5 -63q0 -44 -25.5 -68.5t-70.5 -24.5
t-71 23.5t-26 65.5zM367 344h-33v356h54l84 -289l83 289h55v-356h-36v307l-88 -307h-30l-89 307v-307z" />
    <glyph glyph-name="trademark" unicode="&#x2122;" horiz-adv-x="600" 
d="M203 344h-38v321h-87v35h211v-35h-86v-321zM369 344h-33v356h54l84 -289l83 289h55v-356h-36v307l-88 -307h-30l-89 307v-307z" />
    <glyph glyph-name="uni2126" unicode="&#x2126;" horiz-adv-x="395" 
d="M122 0h-131l9 42h93l-1 3q-52 64 -52 152q0 44 12 103l55 258q32 152 165 152q70 0 108 -34.5t38 -96.5q0 -25 -6 -53l-48 -230q-18 -88 -52 -146q-35 -58 -93 -107l-3 -1h91l-9 -42h-132l8 43q59 49 91 103.5t49 136.5l53 251q5 28 5 41q0 45 -26.5 69t-75.5 24
q-93 0 -117 -112l-59 -277q-12 -57 -12 -99q0 -76 48 -139z" />
    <glyph glyph-name="estimated" unicode="&#x212e;" horiz-adv-x="821" 
d="M428 -10q-157 0 -269 106q-111 107 -111 254q0 148 111 254q112 106 269 106q158 0 268 -106q112 -106 112 -254v-9h-613q-8 0 -8 -7v-193q0 -5 11 -21q36 -52 97.5 -80t134.5 -28q146 0 244 120h56q-54 -67 -133.5 -104.5t-168.5 -37.5zM195 361h469q7 0 7 7v196
q0 9 -12 22q-42 49 -102 75.5t-127 26.5q-126 0 -232 -106q-11 -11 -11 -22v-192q0 -7 8 -7z" />
    <glyph glyph-name="uni2153" unicode="&#x2153;" horiz-adv-x="657" 
d="M159 0h-39l423 700h38zM189 256h-40l82 375q-28 -19 -83 -22l3 30q69 3 103 61h30zM470 -10q-47 0 -71.5 22t-24.5 61q0 20 4 35l5 23h37l-6 -29q-3 -13 -3 -25q0 -52 58 -52q56 0 69 67l11 53q3 15 3 26q0 44 -48 44h-30l7 34h29q60 0 76 72l4 17q4 13 4 29q0 52 -58 52
q-55 0 -68 -64l-7 -31h-36l7 32q21 98 105 98q96 0 96 -82q0 -13 -4 -34l-3 -15q-16 -78 -73 -91v-1q37 -12 37 -62q0 -15 -3 -30l-11 -52q-21 -97 -106 -97z" />
    <glyph glyph-name="uni2154" unicode="&#x2154;" horiz-adv-x="658" 
d="M243 256h-195l11 49q12 52 40 89t82 77q47 34 70 62.5t31 63.5q3 13 3 26q0 52 -56 52q-55 0 -69 -63l-9 -40h-36l9 41q22 97 107 97q46 0 69.5 -22t23.5 -61q0 -18 -4 -33q-17 -74 -116 -150q-50 -37 -74 -67t-33 -69l-4 -18h158zM160 0h-39l423 700h38zM471 -10
q-47 0 -71.5 22t-24.5 61q0 20 4 35l5 23h37l-6 -29q-3 -13 -3 -25q0 -52 58 -52q56 0 69 67l11 53q3 15 3 26q0 44 -48 44h-30l7 34h29q59 0 76 72l4 17q4 13 4 29q0 52 -58 52q-55 0 -68 -64l-7 -31h-36l7 32q21 98 105 98q96 0 96 -82q0 -13 -4 -34l-3 -15
q-16 -78 -73 -91v-1q37 -12 37 -62q0 -15 -3 -30l-11 -52q-21 -97 -106 -97z" />
    <glyph glyph-name="oneeighth" unicode="&#x215b;" horiz-adv-x="657" 
d="M159 0h-39l423 700h38zM189 256h-40l82 375q-28 -19 -83 -22l3 30q69 3 103 61h30zM374 76q0 18 4 33l9 43q15 72 72 85v1q-35 18 -35 61q0 10 4 30l5 29q19 96 110 96q43 0 69.5 -22t26.5 -60q0 -14 -4 -35l-6 -29q-13 -68 -69 -81v-1q39 -18 39 -65q0 -11 -4 -31
l-9 -43q-21 -97 -111 -97q-46 0 -73.5 22.5t-27.5 63.5zM521 248q57 0 70 60l7 34q3 14 3 24q0 53 -60 53q-57 0 -70 -64l-6 -34q-3 -12 -3 -22q0 -25 16.5 -38t42.5 -13zM476 25q58 0 72 66l10 48q3 13 3 24q0 53 -65 53q-58 0 -70 -63l-10 -48q-3 -14 -3 -25q0 -55 63 -55
z" />
    <glyph glyph-name="threeeighths" unicode="&#x215c;" horiz-adv-x="658" 
d="M156 246q-47 0 -71.5 22t-24.5 61q0 20 4 35l5 23h37l-6 -29q-3 -14 -3 -25q0 -52 58 -52q56 0 69 67l11 53q3 15 3 26q0 44 -48 44h-30l7 34h29q59 0 76 72l4 17q4 13 4 29q0 52 -58 52q-55 0 -68 -64l-7 -31h-36l7 32q21 98 105 98q96 0 96 -82q0 -13 -4 -34l-3 -15
q-16 -78 -73 -91v-1q37 -12 37 -62q0 -15 -3 -30l-11 -52q-21 -97 -106 -97zM160 0h-39l423 700h38zM375 76q0 18 4 33l9 43q15 72 72 85v1q-35 18 -35 61q0 10 4 30l5 29q20 96 110 96q43 0 69.5 -22t26.5 -60q0 -14 -4 -35l-6 -29q-14 -68 -69 -81v-1q39 -18 39 -65
q0 -11 -4 -31l-9 -43q-21 -97 -111 -97q-46 0 -73.5 22.5t-27.5 63.5zM522 248q56 0 70 60l7 34q3 14 3 24q0 53 -60 53q-57 0 -70 -64l-6 -34q-3 -12 -3 -22q0 -25 16.5 -38t42.5 -13zM477 25q59 0 72 66l10 48q3 13 3 24q0 53 -65 53q-58 0 -70 -63l-10 -48q-3 -14 -3 -25
q0 -55 63 -55z" />
    <glyph glyph-name="fiveeighths" unicode="&#x215d;" horiz-adv-x="658" 
d="M161 246q-47 0 -71 22.5t-24 61.5q0 13 4 34l3 14h37l-4 -19q-3 -12 -3 -24q0 -54 59 -54q53 0 67 65l20 94q3 15 3 27q0 51 -51 51q-45 0 -67 -48l-6 -13h-35l64 243h175l-8 -34h-140l-39 -148q27 34 71 34q76 0 76 -74q0 -22 -4 -37l-21 -98q-21 -97 -106 -97zM160 0
h-39l423 700h38zM375 76q0 18 4 33l9 43q15 72 72 85v1q-35 18 -35 61q0 10 4 30l5 29q20 96 110 96q43 0 69.5 -22t26.5 -60q0 -14 -4 -35l-6 -29q-14 -68 -69 -81v-1q39 -18 39 -65q0 -11 -4 -31l-9 -43q-21 -97 -111 -97q-46 0 -73.5 22.5t-27.5 63.5zM522 248
q56 0 70 60l7 34q3 14 3 24q0 53 -60 53q-57 0 -70 -64l-6 -34q-3 -12 -3 -22q0 -25 16.5 -38t42.5 -13zM477 25q59 0 72 66l10 48q3 13 3 24q0 53 -65 53q-58 0 -70 -63l-10 -48q-3 -14 -3 -25q0 -55 63 -55z" />
    <glyph glyph-name="seveneighths" unicode="&#x215e;" horiz-adv-x="657" 
d="M115 256h-43l219 410h-159l8 34h199l-7 -34zM159 0h-39l423 700h38zM374 76q0 18 4 33l9 43q15 72 72 85v1q-35 18 -35 61q0 10 4 30l5 29q19 96 110 96q43 0 69.5 -22t26.5 -60q0 -14 -4 -35l-6 -29q-13 -68 -69 -81v-1q39 -18 39 -65q0 -11 -4 -31l-9 -43
q-21 -97 -111 -97q-46 0 -73.5 22.5t-27.5 63.5zM521 248q57 0 70 60l7 34q3 14 3 24q0 53 -60 53q-57 0 -70 -64l-6 -34q-3 -12 -3 -22q0 -25 16.5 -38t42.5 -13zM476 25q58 0 72 66l10 48q3 13 3 24q0 53 -65 53q-58 0 -70 -63l-10 -48q-3 -14 -3 -25q0 -55 63 -55z" />
    <glyph glyph-name="partialdiff" unicode="&#x2202;" horiz-adv-x="415" 
d="M206 -10q-76 0 -115 39t-39 114q0 16 1 21l8 116q12 153 141 153q45 0 78.5 -21.5t48.5 -61.5l13 184q1 4 1 19q0 115 -106 115q-100 0 -110 -121l-1 -13h-44l1 12q15 164 154 164q152 0 152 -153q0 -18 -1 -23l-27 -380q-6 -80 -45.5 -122t-109.5 -42zM205 32
q101 0 110 121l8 101q3 62 -27 99t-86 37q-96 0 -103 -115l-8 -115q0 -2 -0.5 -8.5t-0.5 -7.5q0 -112 107 -112z" />
    <glyph glyph-name="emptyset" unicode="&#x2205;" horiz-adv-x="698" 
d="M161 100l-63 -65l-29 27l64 66q-77 91 -77 217q0 138 88 230q88 93 225 93q121 0 209 -78l62 65l29 -27l-64 -66q77 -91 77 -217q0 -138 -88 -230q-88 -93 -225 -93q-123 0 -208 78zM164 161l384 398q-72 69 -179 69q-116 0 -193 -81q-76 -79 -76 -202q0 -110 64 -184z
M369 62q115 0 192 80q77 82 77 203q0 111 -64 184l-384 -398q74 -69 179 -69z" />
    <glyph glyph-name="uni2206" unicode="&#x2206;" horiz-adv-x="401" 
d="M-30 0l294 700h63l-2 -700h-355zM280 634l-247 -593h245z" />
    <glyph glyph-name="product" unicode="&#x220f;" horiz-adv-x="465" 
d="M130 -155h-46v855h337v-855h-46v813h-245v-813z" />
    <glyph glyph-name="summation" unicode="&#x2211;" horiz-adv-x="408" 
d="M404 -155h-339v42l206 386l-206 385v42h339v-42h-287l204 -385l-204 -386h287v-42z" />
    <glyph glyph-name="minus" unicode="&#x2212;" 
d="M378 279h-334v42h334v-42z" />
    <glyph glyph-name="uni2215" unicode="&#x2215;" 
d="M17 0h-46l456 700h46z" />
    <glyph glyph-name="uni2219" unicode="&#x2219;" horiz-adv-x="152" 
d="M130 315h-70v70h70v-70z" />
    <glyph glyph-name="radical" unicode="&#x221a;" horiz-adv-x="459" 
d="M273 -65h-50l-87 394h-86v42h125l76 -353l159 682h43z" />
    <glyph glyph-name="infinity" unicode="&#x221e;" horiz-adv-x="633" 
d="M183 150q-62 0 -97.5 42.5t-35.5 109.5t35 107.5t97 40.5q45 0 77 -24.5t65 -83.5h3q53 108 144 108q62 0 97.5 -42.5t35.5 -109.5t-35 -107.5t-98 -40.5q-45 0 -76.5 24.5t-64.5 83.5h-3q-53 -108 -144 -108zM187 193q38 0 64 25t53 84q-34 61 -59 83q-25 23 -60 23
q-42 0 -66 -29t-24 -77q0 -49 25 -79t67 -30zM468 192q42 0 66.5 29t24.5 77q0 49 -25 79t-67 30q-36 0 -62.5 -24t-55.5 -85q34 -61 59 -84q25 -22 60 -22z" />
    <glyph glyph-name="integral" unicode="&#x222b;" 
d="M133 -170q-35 0 -56 10v44q19 -12 49 -12q61 0 61 72v695q0 111 99 111q35 0 56 -10v-43q-20 11 -48 11q-61 0 -61 -72v-695q0 -111 -100 -111z" />
    <glyph glyph-name="approxequal" unicode="&#x2248;" 
d="M75 321l-31 23q25 45 49 66t56 21q31 0 78 -32t69 -32t38 15t37 52l31 -23q-25 -45 -49.5 -66t-56.5 -21q-29 0 -78 32l-28 19q-23 13 -40 13q-22 0 -38.5 -15.5t-36.5 -51.5zM75 167l-31 23q25 45 49 66t56 21q31 0 78 -32t69 -32t38 15t37 52l31 -23q-25 -45 -49.5 -66
t-56.5 -21q-29 0 -78 32l-28 19q-23 13 -40 13q-22 0 -38.5 -15.5t-36.5 -51.5z" />
    <glyph glyph-name="notequal" unicode="&#x2260;" 
d="M106 94h-43l65 104h-74v42h98l76 120h-174v42h198l65 104h42l-64 -104h73v-42h-98l-76 -120h174v-42h-198z" />
    <glyph glyph-name="lessequal" unicode="&#x2264;" 
d="M354 251v-44l-294 121v39l294 121v-43l-238 -97zM354 120h-294v41h294v-41z" />
    <glyph glyph-name="greaterequal" unicode="&#x2265;" 
d="M362 328l-294 -121v44l238 97l-238 97v43l294 -121v-39zM362 120h-294v41h294v-41z" />
    <glyph glyph-name="lozenge" unicode="&#x25ca;" 
d="M236 -10h-21l-162 360l162 360h21l161 -360zM97 350l128 -293l128 293l-128 293z" />
    <glyph glyph-name="uniE0FF" unicode="&#xe0ff;" horiz-adv-x="564" 
 />
    <glyph glyph-name="uniEFFD" unicode="&#xeffd;" horiz-adv-x="564" 
 />
    <glyph glyph-name="uniF000" unicode="&#xf000;" horiz-adv-x="564" 
 />
    <glyph glyph-name="uniF8FF" unicode="&#xf8ff;" horiz-adv-x="634" 
d="M284 494h59v116h156v-116h132v-152h-132v-60q0 -110 -63 -174t-165 -64q-101 0 -165 62q-63 63 -63 163t65 162q64 63 176 63zM343 281v61h-60q-39 0 -61 -20q-21 -20 -21 -52t20 -52q23 -18 51 -20t51 21.5t20 61.5z" />
    <glyph glyph-name="_1" horiz-adv-x="0" 
 />
    <glyph glyph-name="CR.001" horiz-adv-x="333" 
 />
    <glyph glyph-name="NULL" horiz-adv-x="0" 
 />
    <glyph glyph-name="uni00A40301" horiz-adv-x="260" 
d="M285 761h-42l97 120h56zM43 -4q-46 0 -73 13l9 42q27 -13 63 -13q77 0 98 98l119 564h47l-120 -568q-28 -136 -143 -136z" />
    <glyph glyph-name="i.loclTRK" horiz-adv-x="154" 
d="M169 577h-45l21 100h45zM47 0h-46l106 496h46z" />
    <glyph glyph-name="germandbls.calt" horiz-adv-x="407" 
d="M150 700h308l-8 -42l-177 -246q105 -10 105 -109q0 -23 -7 -58l-17 -80q-18 -87 -60.5 -126t-120.5 -39h-40l9 42h35q56 0 86 29t44 95l18 85q5 23 5 45q0 75 -90 75h-24l8 40l178 247h-214l-140 -658h-47z" />
    <glyph glyph-name="zero.tf" 
d="M169 -10q-71 0 -109.5 34.5t-38.5 97.5q0 24 6 52l82 384q33 152 163 152q72 0 110.5 -34.5t38.5 -97.5q0 -24 -6 -52l-81 -385q-31 -151 -165 -151zM173 32q91 0 114 111l83 391q5 28 5 41q0 93 -104 93q-93 0 -115 -112l-84 -390q-5 -28 -5 -41q0 -93 106 -93z" />
    <glyph glyph-name="one.tf" 
d="M219 0h-47l131 609q-45 -39 -134 -44l5 38q104 8 158 97h37z" />
    <glyph glyph-name="two.tf" 
d="M296 0h-301l14 62q19 88 66 147q48 59 131 122q79 60 115.5 102t47.5 96q5 30 5 45q0 94 -99 94q-94 0 -118 -113l-13 -61h-44l14 63q33 153 164 153q72 0 107.5 -34.5t35.5 -96.5q0 -25 -6 -54q-14 -61 -56 -112t-124 -115q-79 -61 -122 -110t-56 -117l-6 -29h254z" />
    <glyph glyph-name="three.tf" 
d="M166 -10q-74 0 -111 34t-37 96q0 24 6 53l7 33h45l-9 -40q-5 -28 -5 -42q0 -92 104 -92q92 0 118 116l17 80q4 17 4 38q0 78 -85 78h-48l10 43h45q51 0 86.5 31t45.5 87l5 27q4 17 4 40q0 96 -100 96q-88 0 -113 -111l-11 -48h-45l11 49q33 152 160 152q71 0 108.5 -35
t37.5 -96q0 -25 -6 -52l-4 -18q-27 -123 -117 -142v-1q63 -22 63 -100q0 -14 -5 -42l-18 -83q-31 -151 -163 -151z" />
    <glyph glyph-name="four.tf" 
d="M263 0h-47l33 155h-243l9 43l342 502h55l-107 -503h60l-9 -42h-60zM348 618l-286 -421h196z" />
    <glyph glyph-name="five.tf" 
d="M172 -10q-70 0 -109 33.5t-39 96.5q0 26 6 54l6 25h44l-7 -32q-5 -25 -5 -41q0 -46 28 -70t77 -24q91 0 115 112l30 143q5 25 5 48q0 86 -90 86q-39 0 -67 -22t-52 -70h-45l100 371h266l-9 -42h-223l-71 -254q53 59 120 59q57 0 88.5 -31t31.5 -88q0 -30 -7 -59l-30 -143
q-32 -152 -163 -152z" />
    <glyph glyph-name="six.tf" 
d="M172 -10q-72 0 -109.5 33.5t-37.5 96.5q0 24 6 53l82 383q34 154 163 154q70 0 108 -33.5t38 -96.5q0 -26 -5 -51h-45q6 27 6 48q0 91 -102 91q-92 0 -118 -119l-38 -181q44 65 124 65q60 0 93 -31t33 -88q0 -25 -7 -57l-25 -116q-32 -151 -166 -151zM174 32
q93 0 117 111l25 116q5 30 5 44q0 88 -93 88q-47 0 -82 -33.5t-47 -88.5l-23 -104q-5 -28 -5 -42q0 -91 103 -91z" />
    <glyph glyph-name="seven.tf" 
d="M90 0h-52l354 658h-261l9 42h310l-9 -42z" />
    <glyph glyph-name="eight.tf" 
d="M167 -10q-69 0 -109.5 35t-40.5 98q0 24 6 51l13 67q24 110 116 130v1q-58 30 -58 102q0 14 5 44l10 44q33 148 168 148q69 0 107.5 -33t38.5 -95q0 -24 -6 -52l-9 -44q-24 -108 -112 -130h-1q63 -28 63 -105q0 -24 -4 -41l-15 -69q-31 -151 -172 -151zM242 382
q96 0 118 100l12 54q5 25 5 41q0 43 -27.5 67t-74.5 24q-97 0 -120 -110l-12 -53q-4 -21 -4 -35q0 -43 28 -65.5t75 -22.5zM170 32q98 0 124 116l15 70q3 16 3 32q0 46 -29.5 68.5t-79.5 22.5q-97 0 -120 -101l-14 -69q-5 -28 -5 -43q0 -47 28.5 -71.5t77.5 -24.5z" />
    <glyph glyph-name="nine.tf" 
d="M168 -10q-70 0 -108 33.5t-38 96.5q0 26 5 51h45q-6 -27 -6 -48q0 -91 102 -91q92 0 118 119l38 181q-44 -65 -124 -65q-60 0 -93 31t-33 88q0 25 7 57l25 116q32 151 166 151q72 0 109.5 -33.5t37.5 -96.5q0 -24 -6 -53l-82 -383q-34 -154 -163 -154zM216 309
q47 0 82 33.5t47 88.5l23 104q5 28 5 42q0 91 -103 91q-93 0 -117 -111l-25 -116q-5 -30 -5 -44q0 -88 93 -88z" />
    <glyph glyph-name="zero.dnom" horiz-adv-x="288" 
d="M105 -10q-97 0 -97 85q0 19 4 34l53 247q23 98 106 98q47 0 72 -22.5t25 -62.5q0 -19 -4 -34l-53 -247q-23 -98 -106 -98zM105 25q55 0 68 64l54 253q3 14 3 24q0 53 -59 53q-55 0 -68 -64l-53 -253q-3 -14 -3 -25q0 -52 58 -52z" />
    <glyph glyph-name="one.dnom" horiz-adv-x="288" 
d="M135 0h-40l82 375q-28 -19 -83 -22l3 30q69 3 103 61h30z" />
    <glyph glyph-name="two.dnom" horiz-adv-x="288" 
d="M188 0h-195l11 49q12 52 40 89t82 77q47 34 70 62.5t31 63.5q3 13 3 26q0 52 -56 52t-69 -63l-9 -40h-36l9 41q22 97 107 97q46 0 69.5 -22t23.5 -61q0 -18 -4 -33q-17 -74 -116 -150q-50 -37 -74 -67t-33 -69l-4 -18h158z" />
    <glyph glyph-name="three.dnom" horiz-adv-x="288" 
d="M101 -10q-47 0 -71.5 22t-24.5 61q0 20 4 35l5 23h37l-6 -29q-3 -14 -3 -25q0 -52 58 -52q56 0 69 67l11 53q3 15 3 26q0 44 -48 44h-30l7 34h29q59 0 76 72l4 17q4 13 4 29q0 52 -58 52q-55 0 -68 -64l-7 -31h-36l7 32q21 98 105 98q96 0 96 -82q0 -13 -4 -34l-3 -15
q-16 -78 -73 -91v-1q37 -12 37 -62q0 -15 -3 -30l-11 -52q-21 -97 -106 -97z" />
    <glyph glyph-name="four.dnom" horiz-adv-x="288" 
d="M169 0h-39l20 93h-151l7 35l214 316h44l-68 -317h37l-7 -34h-37zM212 375l-168 -248h113z" />
    <glyph glyph-name="five.dnom" horiz-adv-x="288" 
d="M106 -10q-47 0 -71 22.5t-24 61.5q0 13 4 34l3 14h37l-4 -19q-3 -12 -3 -24q0 -54 59 -54q53 0 67 65l20 94q3 15 3 27q0 51 -51 51q-44 0 -67 -48l-6 -13h-35l64 243h175l-8 -34h-140l-39 -148q27 34 71 34q76 0 76 -74q0 -22 -4 -37l-21 -98q-21 -97 -106 -97z" />
    <glyph glyph-name="six.dnom" horiz-adv-x="288" 
d="M108 -10q-97 0 -97 85q0 19 4 34l54 247q21 98 108 98q94 0 94 -85q0 -13 -3 -30h-37q3 16 3 29q0 51 -58 51q-56 0 -70 -69l-24 -111q27 37 73 37q37 0 59 -20.5t22 -56.5q0 -19 -4 -34l-17 -77q-23 -98 -107 -98zM108 25q53 0 68 64l17 75q3 14 3 26q0 51 -56 51
q-27 0 -46 -19t-26 -50l-15 -70q-3 -14 -3 -25q0 -52 58 -52z" />
    <glyph glyph-name="seven.dnom" horiz-adv-x="288" 
d="M60 0h-43l219 410h-159l8 34h199l-7 -34z" />
    <glyph glyph-name="eight.dnom" horiz-adv-x="288" 
d="M5 76q0 18 4 33l9 43q15 72 72 85v1q-35 18 -35 61q0 10 4 30l5 29q20 96 110 96q43 0 69.5 -22t26.5 -60q0 -14 -4 -35l-6 -29q-14 -68 -69 -81v-1q39 -18 39 -65q0 -11 -4 -31l-9 -43q-21 -97 -111 -97q-46 0 -73.5 22.5t-27.5 63.5zM152 248q56 0 70 60l7 34
q3 14 3 24q0 53 -60 53q-57 0 -70 -64l-6 -34q-3 -12 -3 -22q0 -25 16.5 -38t42.5 -13zM107 25q59 0 72 66l10 48q3 13 3 24q0 53 -65 53q-58 0 -70 -63l-10 -48q-3 -13 -3 -25q0 -55 63 -55z" />
    <glyph glyph-name="nine.dnom" horiz-adv-x="288" 
d="M99 -10q-94 0 -94 85q0 13 3 30h37q-3 -17 -3 -29q0 -51 58 -51q56 0 70 69l24 111q-27 -37 -73 -37q-37 0 -59 20.5t-22 56.5q0 19 4 34l17 77q23 98 107 98q97 0 97 -85q0 -19 -4 -34l-54 -247q-21 -98 -108 -98zM136 203q27 0 46 19t26 50l15 70q3 14 3 25
q0 52 -58 52q-53 0 -68 -64l-17 -75q-3 -14 -3 -26q0 -51 56 -51z" />
    <glyph glyph-name="zero.numr" horiz-adv-x="287" 
d="M159 246q-97 0 -97 85q0 19 4 34l53 247q23 98 106 98q47 0 72 -22.5t25 -62.5q0 -19 -4 -34l-53 -247q-23 -98 -106 -98zM159 281q55 0 68 64l54 253q3 14 3 24q0 53 -59 53q-55 0 -68 -64l-53 -253q-3 -14 -3 -25q0 -52 58 -52z" />
    <glyph glyph-name="one.numr" horiz-adv-x="288" 
d="M189 256h-40l82 375q-28 -19 -83 -22l3 30q69 3 103 61h30z" />
    <glyph glyph-name="two.numr" horiz-adv-x="289" 
d="M243 256h-195l11 49q12 52 40 89t82 77q47 34 70 62.5t31 63.5q3 13 3 26q0 52 -56 52q-55 0 -69 -63l-9 -40h-36l9 41q22 97 107 97q46 0 69.5 -22t23.5 -61q0 -18 -4 -33q-17 -74 -116 -150q-50 -37 -74 -67t-33 -69l-4 -18h158z" />
    <glyph glyph-name="three.numr" horiz-adv-x="289" 
d="M156 246q-47 0 -71.5 22t-24.5 61q0 20 4 35l5 23h37l-6 -29q-3 -14 -3 -25q0 -52 58 -52q56 0 69 67l11 53q3 15 3 26q0 44 -48 44h-30l7 34h29q59 0 76 72l4 17q4 13 4 29q0 52 -58 52q-55 0 -68 -64l-7 -31h-36l7 32q21 98 105 98q96 0 96 -82q0 -13 -4 -34l-3 -15
q-16 -78 -73 -91v-1q37 -12 37 -62q0 -15 -3 -30l-11 -52q-21 -97 -106 -97z" />
    <glyph glyph-name="four.numr" horiz-adv-x="289" 
d="M224 256h-39l20 93h-151l7 35l214 316h44l-68 -317h37l-7 -34h-37zM267 631l-168 -248h113z" />
    <glyph glyph-name="five.numr" horiz-adv-x="289" 
d="M161 246q-47 0 -71 22.5t-24 61.5q0 13 4 34l3 14h37l-4 -19q-3 -12 -3 -24q0 -54 59 -54q53 0 67 65l20 94q3 15 3 27q0 51 -51 51q-45 0 -67 -48l-6 -13h-35l64 243h175l-8 -34h-140l-39 -148q27 34 71 34q76 0 76 -74q0 -22 -4 -37l-21 -98q-21 -97 -106 -97z" />
    <glyph glyph-name="six.numr" horiz-adv-x="287" 
d="M162 246q-97 0 -97 85q0 19 4 34l54 247q21 98 108 98q94 0 94 -85q0 -13 -3 -30h-37q3 17 3 29q0 51 -58 51q-56 0 -70 -69l-24 -111q27 37 73 37q37 0 59 -20.5t22 -56.5q0 -19 -4 -34l-17 -77q-23 -98 -107 -98zM162 281q53 0 68 64l17 75q3 13 3 26q0 51 -56 51
q-27 0 -46 -19t-26 -50l-15 -70q-3 -14 -3 -25q0 -52 58 -52z" />
    <glyph glyph-name="seven.numr" horiz-adv-x="288" 
d="M115 256h-43l219 410h-159l8 34h199l-7 -34z" />
    <glyph glyph-name="eight.numr" horiz-adv-x="288" 
d="M59 332q0 18 4 33l9 43q15 72 72 85v1q-35 18 -35 61q0 10 4 30l5 29q20 96 110 96q43 0 69.5 -22t26.5 -60q0 -14 -4 -35l-6 -29q-14 -68 -69 -81v-1q39 -18 39 -65q0 -11 -4 -31l-9 -43q-21 -97 -111 -97q-46 0 -73.5 22.5t-27.5 63.5zM206 504q56 0 70 60l7 34
q3 14 3 24q0 53 -60 53q-57 0 -70 -64l-6 -34q-3 -12 -3 -22q0 -25 16.5 -38t42.5 -13zM161 281q59 0 72 66l10 48q3 13 3 24q0 53 -65 53q-58 0 -70 -63l-10 -48q-3 -13 -3 -25q0 -55 63 -55z" />
    <glyph glyph-name="nine.numr" horiz-adv-x="287" 
d="M153 246q-94 0 -94 85q0 13 3 30h37q-3 -17 -3 -29q0 -51 58 -51q56 0 70 69l24 111q-27 -37 -73 -37q-37 0 -59 20.5t-22 56.5q0 19 4 34l17 77q23 98 107 98q97 0 97 -85q0 -19 -4 -34l-54 -247q-21 -98 -108 -98zM190 459q27 0 46 19t26 50l15 70q3 14 3 25
q0 52 -58 52q-53 0 -68 -64l-17 -75q-3 -14 -3 -26q0 -51 56 -51z" />
    <glyph glyph-name="caroncomb.alt" horiz-adv-x="0" 
d="M55 530h-21l37 83h-15l19 87h43l-17 -83z" />
    <glyph glyph-name="caron.alt" horiz-adv-x="500" 
d="M305 530h-21l37 83h-15l19 87h43l-17 -83z" />
    </font>
</defs>
</svg>
