<?xml version="1.0" standalone="no"?>
<!DOCTYPE svg PUBLIC "-//W3C//DTD SVG 20010904//EN"
 "http://www.w3.org/TR/2001/REC-SVG-20010904/DTD/svg10.dtd">
<svg version="1.0" xmlns="http://www.w3.org/2000/svg"
 width="960.000000pt" height="960.000000pt" viewBox="0 0 960.000000 960.000000"
 preserveAspectRatio="xMidYMid meet">
<metadata>
Created by potrace 1.11, written by Peter Selinger 2001-2013
</metadata>
<g transform="translate(0.000000,960.000000) scale(0.100000,-0.100000)"
fill="#000000" stroke="none">
<path d="M2898 9455 c-2 -1 -30 -5 -63 -9 -33 -3 -80 -8 -105 -12 -25 -3 -56
-7 -70 -8 -14 -2 -34 -6 -45 -9 -11 -3 -38 -8 -60 -12 -22 -3 -64 -12 -95 -20
-53 -13 -68 -17 -135 -30 -16 -3 -43 -10 -60 -15 -35 -12 -146 -43 -160 -46
-19 -3 -160 -46 -167 -50 -4 -3 -5 -11 -2 -18 3 -9 25 -14 67 -14 80 -1 94 -3
242 -45 26 -8 107 -55 178 -103 43 -30 81 -54 84 -54 6 0 89 -67 123 -100 88
-85 188 -278 205 -395 1 -11 7 -36 13 -56 9 -34 9 -256 -1 -309 -2 -14 -8 -49
-12 -79 -3 -30 -9 -63 -12 -75 -12 -52 -12 -274 1 -328 7 -32 12 -58 9 -58 -2
0 1 -9 7 -20 9 -17 8 -20 -8 -20 -11 0 -25 -7 -32 -15 -7 -8 -18 -15 -26 -15
-7 0 -17 -6 -21 -13 -4 -6 -21 -19 -36 -27 -16 -8 -40 -26 -54 -40 -15 -14
-23 -19 -18 -11 5 8 -8 1 -28 -15 -20 -16 -37 -33 -37 -37 0 -5 -4 -5 -10 -2
-5 3 -10 1 -10 -4 0 -6 -6 -10 -12 -9 -7 2 -12 -3 -10 -9 3 -16 3 -16 -49 2
-65 23 -252 55 -364 61 -231 14 -390 1 -630 -51 -54 -11 -224 -67 -245 -80
-16 -10 0 -33 23 -33 31 0 46 -5 97 -32 25 -13 49 -23 53 -22 5 1 6 -2 2 -8
-3 -5 -2 -10 2 -10 14 0 117 -103 135 -136 30 -53 48 -116 84 -289 5 -26 27
-128 30 -137 1 -5 2 -9 4 -10 1 -2 4 -16 6 -32 3 -16 9 -37 14 -46 6 -12 3
-20 -12 -29 -11 -7 -18 -15 -15 -18 3 -2 -1 -12 -10 -21 -31 -35 -104 -144
-91 -136 7 4 1 -5 -14 -20 -15 -16 -25 -32 -22 -37 3 -5 1 -9 -5 -9 -5 0 -22
-25 -37 -55 -16 -30 -32 -55 -37 -55 -4 0 -5 -5 -2 -10 4 -7 -22 -8 -77 -4
-144 11 -256 5 -397 -22 -128 -24 -236 -58 -383 -121 -42 -19 -41 -34 5 -51
37 -14 73 -45 103 -87 26 -36 35 -74 48 -205 35 -337 65 -470 141 -622 34 -67
78 -135 96 -148 6 -4 5 -45 -1 -45 -4 0 -13 -82 -13 -112 0 -18 -3 -33 -6 -33
-4 0 -7 -15 -8 -32 -1 -18 -4 -58 -7 -88 -25 -252 -22 -597 9 -838 3 -17 6
-47 8 -65 3 -17 8 -54 13 -82 4 -27 9 -54 9 -60 1 -5 3 -12 4 -15 2 -3 4 -14
6 -25 4 -27 13 -78 26 -142 6 -29 10 -55 10 -58 0 -2 6 -23 14 -45 8 -22 12
-40 9 -40 -2 0 3 -17 11 -37 9 -21 16 -39 16 -40 -1 -2 -1 -4 0 -5 0 -2 2 -10
4 -18 8 -42 59 -197 67 -207 6 -7 8 -13 4 -13 -4 0 0 -13 9 -30 8 -16 16 -33
16 -37 3 -16 11 -39 21 -57 5 -10 11 -28 14 -39 2 -11 7 -23 11 -26 5 -3 9
-13 11 -21 2 -8 10 -31 20 -50 9 -19 15 -38 14 -42 -1 -5 3 -8 9 -8 5 0 8 -4
4 -9 -3 -5 0 -15 7 -23 7 -7 14 -20 16 -28 2 -8 8 -17 13 -18 5 -2 7 -7 4 -12
-3 -5 0 -14 7 -22 7 -7 14 -20 16 -28 2 -8 9 -18 15 -22 7 -4 9 -8 4 -8 -4 0
8 -28 28 -63 19 -34 38 -70 41 -79 4 -10 11 -18 16 -18 5 0 6 -5 3 -10 -3 -6
1 -13 9 -16 9 -3 14 -10 11 -14 -3 -5 0 -14 7 -22 7 -7 21 -29 32 -48 10 -19
25 -40 33 -47 8 -6 14 -14 13 -18 -1 -4 7 -17 18 -30 11 -13 18 -25 16 -28 -2
-2 7 -16 20 -30 14 -15 23 -27 20 -27 -5 0 38 -60 61 -86 6 -6 17 -22 25 -34
47 -69 88 -119 94 -113 3 3 6 0 6 -9 0 -8 10 -24 23 -35 31 -28 57 -61 57 -73
0 -6 7 -10 15 -10 8 0 14 -6 13 -12 -2 -7 3 -12 10 -10 6 1 12 -4 12 -11 0 -8
18 -30 41 -50 22 -21 38 -37 34 -37 -4 0 11 -15 33 -33 23 -17 41 -37 41 -44
1 -6 5 -13 10 -15 5 -2 36 -28 68 -58 74 -68 122 -110 127 -110 2 0 20 -15 39
-33 46 -43 77 -68 77 -61 0 3 12 -8 26 -23 14 -15 22 -21 18 -13 -4 8 6 0 23
-17 17 -18 36 -33 42 -33 5 0 19 -10 31 -22 11 -12 20 -19 20 -15 0 4 9 -1 19
-11 23 -21 68 -52 78 -54 5 -1 17 -10 27 -20 11 -10 32 -24 48 -30 15 -7 28
-16 28 -20 0 -5 9 -8 21 -8 11 0 18 -4 15 -8 -2 -4 10 -14 27 -22 18 -7 38
-20 45 -27 8 -7 17 -11 22 -8 5 3 10 2 12 -3 1 -4 31 -24 66 -45 35 -20 60
-31 56 -24 -4 6 2 4 13 -6 11 -9 25 -17 31 -17 7 0 12 -5 12 -11 0 -6 7 -9 15
-5 8 3 15 2 15 -2 0 -7 90 -52 107 -54 5 0 17 -7 28 -14 11 -8 27 -14 36 -14
10 0 19 -5 21 -10 2 -6 13 -12 26 -13 12 0 22 -5 22 -9 0 -4 9 -8 19 -8 11 0
23 -5 26 -10 4 -6 11 -8 16 -5 5 4 9 1 9 -5 0 -6 4 -9 9 -5 5 3 13 0 16 -6 4
-5 13 -8 21 -5 8 3 14 1 14 -5 0 -6 4 -7 10 -4 5 3 10 1 10 -4 0 -6 3 -10 8
-9 12 2 66 -14 80 -25 6 -5 12 -6 12 -3 0 4 9 2 21 -4 11 -6 28 -13 37 -15 21
-5 60 -16 180 -49 51 -14 107 -28 125 -31 18 -3 41 -9 52 -12 20 -6 54 -13 90
-17 11 -2 29 -5 40 -9 11 -3 43 -9 70 -12 28 -4 61 -9 75 -11 104 -15 140 -18
310 -30 118 -9 377 -8 490 0 148 11 308 29 365 41 17 3 44 8 62 10 18 3 65 12
105 21 40 8 83 17 95 20 12 2 33 8 47 14 13 5 26 6 29 4 3 -3 18 1 35 10 16 8
32 13 34 10 3 -2 18 1 34 7 16 7 36 13 44 14 8 1 22 4 30 7 8 4 58 20 110 37
52 17 104 35 115 40 11 5 58 24 105 42 47 18 96 39 110 46 14 7 31 13 38 13 6
0 12 5 12 11 0 5 4 8 9 5 5 -3 21 4 37 16 15 13 24 16 19 8 -7 -12 -5 -12 11
1 10 8 38 24 61 34 24 10 43 22 43 27 0 4 3 7 8 6 14 -4 52 13 52 23 0 6 4 8
10 4 5 -3 18 2 28 12 10 10 25 19 33 21 7 2 17 8 20 14 3 5 10 9 15 9 5 -1 16
4 25 11 8 7 36 24 62 37 26 13 47 28 47 33 0 5 5 6 10 3 6 -3 10 -1 10 4 0 6
6 11 13 11 6 0 24 10 39 23 16 12 58 42 95 67 36 25 77 55 90 67 12 12 23 19
23 16 0 -4 9 3 20 15 12 12 25 22 31 22 6 0 7 5 4 10 -4 6 -3 10 2 9 21 -4 33
2 33 17 0 8 4 13 10 9 5 -3 17 6 26 20 9 14 21 25 28 25 6 0 46 33 88 73 43
41 80 71 83 69 3 -3 5 -1 5 4 0 6 7 19 16 30 8 10 13 12 9 4 -4 -8 3 -4 14 10
11 14 21 29 21 33 0 5 3 7 8 5 4 -2 21 11 39 29 17 18 30 33 28 33 -2 0 18 21
43 48 73 73 132 146 132 160 0 7 5 10 10 7 6 -3 10 -2 10 3 0 8 14 27 64 82 7
8 21 29 32 45 10 17 24 34 31 38 8 5 11 12 8 17 -3 4 2 11 11 14 8 3 13 10 10
15 -3 5 1 12 10 15 9 4 14 9 10 13 -3 3 3 12 14 20 11 8 20 21 20 29 0 8 5 14
10 14 6 0 10 6 10 14 0 7 7 19 15 26 9 7 14 15 11 17 -2 2 7 16 20 30 13 14
21 29 18 34 -3 5 0 9 6 9 6 0 15 12 20 26 6 14 24 46 42 71 17 25 25 42 17 37
-8 -4 1 11 19 34 19 23 31 42 27 42 -4 0 0 11 9 25 9 14 13 25 9 25 -5 0 0 5
10 11 9 5 17 19 17 29 0 10 5 22 10 25 6 4 8 11 5 16 -4 5 -3 9 2 9 9 0 69
131 65 142 -1 5 2 8 8 8 5 0 10 4 10 9 0 5 5 22 12 38 6 15 12 30 13 33 0 3 6
15 13 28 7 12 10 22 6 22 -3 0 -1 6 5 13 6 8 12 22 14 33 2 10 8 30 14 44 30
75 52 140 47 140 -4 0 -1 6 5 13 6 8 8 17 4 20 -3 4 -1 7 5 7 6 0 9 9 7 20 -2
11 0 20 4 20 4 0 8 6 9 13 0 6 8 39 17 72 9 33 18 69 20 80 2 11 7 31 12 45 5
14 9 32 8 40 -1 8 2 20 6 25 4 6 10 32 13 59 4 27 9 53 12 57 3 5 7 25 10 46
2 21 7 52 9 68 3 17 7 48 10 70 2 22 6 51 9 65 21 112 34 531 22 705 -10 138
-20 241 -31 305 -8 52 -11 70 -19 125 -3 22 -8 51 -11 65 -11 49 -17 75 -20
95 -5 28 -13 60 -15 60 -1 0 -3 9 -5 20 -2 11 -6 34 -10 50 -4 17 -8 37 -10
45 -2 8 -4 16 -5 18 -2 1 -4 7 -5 12 -1 6 -4 13 -5 18 -1 4 -3 12 -5 17 -1 6
-3 13 -5 18 -1 4 -3 10 -4 15 -6 29 -30 109 -36 117 -4 6 -10 22 -14 37 -3 15
-11 40 -18 55 -6 15 -12 31 -13 36 -2 4 -4 9 -5 12 -1 3 -3 8 -4 13 -12 47
-31 92 -39 92 -5 0 -7 7 -3 15 3 8 1 15 -5 15 -6 0 -8 4 -4 9 3 5 0 15 -7 23
-7 7 -14 20 -16 28 -4 20 -73 171 -86 189 -6 7 -11 20 -12 28 -2 8 -9 22 -18
31 -8 10 -15 19 -15 22 0 17 -22 60 -31 60 -5 0 -9 3 -8 8 4 11 -26 72 -34 72
-5 0 -8 7 -8 15 0 8 -5 15 -11 15 -5 0 -8 4 -4 9 3 6 -2 14 -11 19 -9 5 -15
13 -14 18 2 13 -116 195 -150 231 -10 12 -17 23 -15 25 3 2 -12 22 -33 44 -20
21 -36 40 -34 42 5 5 -79 112 -88 112 -6 0 -10 7 -10 15 0 7 -6 18 -12 22 -7
4 -18 17 -25 28 -6 11 -16 19 -22 18 -6 -2 -11 3 -11 10 0 6 -15 26 -33 42
-18 17 -34 35 -36 40 -8 19 -175 184 -182 179 -4 -2 -11 1 -15 7 -5 8 -3 9 7
4 12 -8 12 -6 0 8 -7 9 -17 14 -22 11 -5 -3 -9 2 -9 10 0 9 -5 16 -11 16 -6 0
-22 14 -36 30 -13 17 -30 27 -35 23 -6 -3 -8 -1 -5 4 4 6 -1 17 -10 24 -14 12
-16 12 -9 -1 5 -8 -6 1 -23 20 -18 19 -29 28 -25 20 4 -8 -11 3 -33 25 -46 47
-83 77 -83 69 0 -3 -17 11 -37 30 -21 20 -45 36 -54 36 -9 0 -24 11 -33 25 -9
14 -21 23 -26 20 -6 -4 -10 -1 -10 4 0 6 -6 11 -14 11 -8 0 -17 7 -20 16 -3 8
-10 12 -16 9 -5 -3 -10 -1 -10 4 0 6 -6 11 -14 11 -8 0 -17 7 -20 16 -4 9 -9
14 -12 11 -4 -3 -15 3 -27 13 -11 11 -24 17 -29 14 -4 -3 -8 -1 -8 4 0 10 -81
58 -92 54 -5 -1 -8 1 -8 6 0 4 -17 16 -37 27 -21 10 -47 26 -57 35 -17 13 -18
13 -11 0 4 -8 -4 -4 -18 9 -15 14 -27 20 -27 15 0 -5 -4 -4 -8 1 -7 11 -64 38
-71 35 -2 -1 -7 2 -10 7 -8 11 -113 59 -123 56 -4 -2 -8 2 -8 7 0 5 -3 9 -7 8
-5 -1 -18 3 -29 10 -12 6 -24 8 -28 5 -3 -3 -6 -2 -6 4 0 10 -28 23 -55 27 -5
1 -20 7 -31 14 -12 6 -24 8 -28 5 -3 -3 -6 -2 -6 4 0 5 -6 10 -12 10 -7 1 -38
11 -68 23 -30 12 -59 22 -65 23 -5 2 -16 6 -22 10 -7 5 -13 6 -13 3 0 -3 -24
4 -52 15 -29 11 -54 20 -55 20 -2 -1 -4 -1 -5 0 -2 0 -10 2 -18 4 -8 2 -24 6
-35 9 -134 35 -216 56 -245 60 -19 3 -53 10 -75 16 -22 5 -41 9 -42 10 -2 0
-4 1 -5 1 -2 1 -16 3 -33 5 -16 1 -45 5 -63 8 -18 3 -52 8 -75 12 -41 6 -72
10 -171 18 -27 3 -52 8 -55 13 -4 4 -18 46 -30 93 -13 47 -27 94 -31 105 -9
21 -18 50 -21 63 -1 4 -17 52 -37 107 -37 107 -84 206 -126 268 -14 21 -26 40
-26 42 0 22 -165 184 -241 238 -65 46 -244 143 -304 165 -192 69 -260 93 -278
97 -12 2 -62 15 -112 29 -92 25 -128 34 -179 41 -15 2 -37 7 -47 10 -11 4 -32
8 -47 10 -15 2 -40 6 -57 9 -188 30 -282 38 -522 41 -111 1 -203 1 -205 0z"/>
</g>
</svg>
