<?xml version="1.0" encoding="utf-8"?>
<!-- Generator: Adobe Illustrator 24.0.3, SVG Export Plug-In . SVG Version: 6.00 Build 0)  -->
<svg version="1.1" id="Layer_1" xmlns="http://www.w3.org/2000/svg" xmlns:xlink="http://www.w3.org/1999/xlink" x="0px" y="0px"
	 viewBox="0 0 415.25 501.21" style="enable-background:new 0 0 415.25 501.21;" xml:space="preserve">
<path d="M246.89,210.23h-78.52c-2.4,0-4.36,1.97-4.36,4.37v43.35l16.39-16.41c2.99-2.98,7.84-2.98,10.82,0l5.51,5.51l20.76-20.78
	c2.98-2.98,7.83-2.98,10.81,0l22.94,22.96V214.6C251.24,212.2,249.29,210.23,246.89,210.23z M177.09,232.04
	c-4.81,0-8.72-3.91-8.72-8.72c0-4.83,3.91-8.72,8.72-8.72c4.83,0,8.72,3.89,8.72,8.72C185.81,228.13,181.92,232.04,177.09,232.04z"
	/>
<path d="M404.34,0H10.91C4.88,0,0,4.89,0,10.91V490.3c0,6.03,4.88,10.91,10.91,10.91h393.43c6.03,0,10.91-4.88,10.91-10.91V10.91
	C415.25,4.89,410.37,0,404.34,0z M259.98,266.93c0,7.22-5.88,13.1-13.09,13.1h-78.52c-6.44,0-11.78-4.69-12.86-10.82
	c-0.18-0.5-0.21-1.03-0.15-1.55c-0.01-0.25-0.07-0.48-0.07-0.73V214.6c0-7.21,5.87-13.09,13.08-13.09h78.52
	c7.21,0,13.09,5.88,13.09,13.09V266.93z"/>
<path d="M246.89,210.23h-78.52c-2.4,0-4.36,1.97-4.36,4.37v43.35l16.39-16.41c2.99-2.98,7.84-2.98,10.82,0l5.51,5.51l20.76-20.78
	c2.98-2.98,7.83-2.98,10.81,0l22.94,22.96V214.6C251.24,212.2,249.29,210.23,246.89,210.23z M177.09,232.04
	c-4.81,0-8.72-3.91-8.72-8.72c0-4.83,3.91-8.72,8.72-8.72c4.83,0,8.72,3.89,8.72,8.72C185.81,228.13,181.92,232.04,177.09,232.04z"
	/>
</svg>
