<?xml version="1.0" encoding="utf-8"?>
<!-- Generator: Adobe Illustrator 24.0.3, SVG Export Plug-In . SVG Version: 6.00 Build 0)  -->
<svg version="1.1" id="Layer_1" xmlns="http://www.w3.org/2000/svg" xmlns:xlink="http://www.w3.org/1999/xlink" x="0px" y="0px"
	 viewBox="0 0 537.23 90.42" style="enable-background:new 0 0 537.23 90.42;" xml:space="preserve">
<path d="M387.33,23.44H11.72C5.25,23.44,0,18.19,0,11.72v0C0,5.25,5.25,0,11.72,0l375.61,0c6.47,0,11.72,5.25,11.72,11.72v0
	C399.05,18.19,393.8,23.44,387.33,23.44z"/>
<path d="M388.7,90.42h-85.35c-6.47,0-11.72-5.25-11.72-11.72v0c0-6.47,5.25-11.72,11.72-11.72h85.35c6.47,0,11.72,5.25,11.72,11.72
	v0C400.42,85.17,395.18,90.42,388.7,90.42z"/>
<path d="M73.01,90.42H11.72C5.25,90.42,0,85.17,0,78.7v0c0-6.47,5.25-11.72,11.72-11.72h61.29c6.47,0,11.72,5.25,11.72,11.72v0
	C84.73,85.17,79.48,90.42,73.01,90.42z"/>
<path d="M262.6,90.42H110.79c-6.47,0-11.72-5.25-11.72-11.72v0c0-6.47,5.25-11.72,11.72-11.72H262.6c6.47,0,11.72,5.25,11.72,11.72
	v0C274.33,85.17,269.08,90.42,262.6,90.42z"/>
<path d="M525.51,23.44H421.28c-6.47,0-11.72-5.25-11.72-11.72v0c0-6.47,5.25-11.72,11.72-11.72l104.23,0
	c6.47,0,11.72,5.25,11.72,11.72v0C537.23,18.19,531.98,23.44,525.51,23.44z"/>
<path d="M287.96,56.93H202.6c-6.47,0-11.72-5.25-11.72-11.72v0c0-6.47,5.25-11.72,11.72-11.72h85.35c6.47,0,11.72,5.25,11.72,11.72
	v0C299.68,51.68,294.43,56.93,287.96,56.93z"/>
<path d="M163.53,56.93H11.72C5.25,56.93,0,51.68,0,45.21v0c0-6.47,5.25-11.72,11.72-11.72h151.81c6.47,0,11.72,5.25,11.72,11.72v0
	C175.26,51.68,170.01,56.93,163.53,56.93z"/>
<path d="M436.32,56.93H332.09c-6.47,0-11.72-5.25-11.72-11.72v0c0-6.47,5.25-11.72,11.72-11.72h104.23
	c6.47,0,11.72,5.25,11.72,11.72v0C448.04,51.68,442.79,56.93,436.32,56.93z"/>
</svg>
