<?xml version="1.0" encoding="utf-8"?>
<!-- Generator: Adobe Illustrator 24.0.3, SVG Export Plug-In . SVG Version: 6.00 Build 0)  -->
<svg version="1.1" id="Layer_1" xmlns="http://www.w3.org/2000/svg" xmlns:xlink="http://www.w3.org/1999/xlink" x="0px" y="0px"
	 viewBox="0 0 530.68 129.12" style="enable-background:new 0 0 530.68 129.12;" xml:space="preserve">
<path d="M191.02,32.37H17.25c-8.94,0-16.19-7.25-16.19-16.19v0C1.07,7.25,8.32,0,17.25,0l173.77,0c8.94,0,16.19,7.25,16.19,16.19v0
	C207.21,25.13,199.96,32.37,191.02,32.37z"/>
<path d="M318.65,32.37h-86.51c-8.94,0-16.19-7.25-16.19-16.19v0C215.95,7.25,223.2,0,232.14,0l86.51,0
	c8.94,0,16.19,7.25,16.19,16.19v0C334.84,25.13,327.59,32.37,318.65,32.37z"/>
<path d="M514.49,78.7H17.25c-8.94,0-16.19-7.25-16.19-16.19v0c0-8.94,7.25-16.19,16.19-16.19h497.24c8.94,0,16.19,7.25,16.19,16.19
	v0C530.68,71.45,523.43,78.7,514.49,78.7z"/>
<path d="M76.62,129.12H15.33c-6.47,0-11.72-5.25-11.72-11.72v0c0-6.47,5.25-11.72,11.72-11.72h61.29c6.47,0,11.72,5.25,11.72,11.72
	v0C88.34,123.87,83.09,129.12,76.62,129.12z"/>
<path d="M416.58,129.12h-61.29c-6.47,0-11.72-5.25-11.72-11.72v0c0-6.47,5.25-11.72,11.72-11.72h61.29
	c6.47,0,11.72,5.25,11.72,11.72v0C428.3,123.87,423.05,129.12,416.58,129.12z"/>
<path d="M316.72,129.12h-61.29c-6.47,0-11.72-5.25-11.72-11.72v0c0-6.47,5.25-11.72,11.72-11.72h61.29
	c6.47,0,11.72,5.25,11.72,11.72v0C328.44,123.87,323.2,129.12,316.72,129.12z"/>
<path d="M219.54,129.12H111.33c-6.47,0-11.72-5.25-11.72-11.72v0c0-6.47,5.25-11.72,11.72-11.72h108.21
	c6.47,0,11.72,5.25,11.72,11.72v0C231.26,123.87,226.01,129.12,219.54,129.12z"/>
</svg>
