<?xml version="1.0" encoding="utf-8"?>
<!-- Generator: Adobe Illustrator 24.0.3, SVG Export Plug-In . SVG Version: 6.00 Build 0)  -->
<svg version="1.1" id="Layer_1" xmlns="http://www.w3.org/2000/svg" xmlns:xlink="http://www.w3.org/1999/xlink" x="0px" y="0px"
	 viewBox="0 0 108.79 108.8" style="enable-background:new 0 0 108.79 108.8;" xml:space="preserve">
<g>
	<path d="M71.86,40.81H36.93c-1.07,0-1.94,0.88-1.94,1.95v19.29l7.29-7.3c1.33-1.33,3.49-1.33,4.82,0l2.45,2.45l9.23-9.25
		c1.33-1.32,3.49-1.32,4.82,0l10.2,10.21v-15.4C73.8,41.69,72.93,40.81,71.86,40.81z M40.81,50.52c-2.14,0-3.88-1.74-3.88-3.88
		c0-2.15,1.74-3.88,3.88-3.88c2.15,0,3.88,1.73,3.88,3.88C44.69,48.78,42.96,50.52,40.81,50.52z"/>
	<path d="M97.88,0H10.91C4.88,0,0,4.89,0,10.92v86.96c0,6.03,4.88,10.92,10.91,10.92h86.97c6.03,0,10.91-4.89,10.91-10.92V10.92
		C108.79,4.89,103.91,0,97.88,0z M77.69,66.04c0,3.21-2.62,5.83-5.83,5.83H36.93c-2.87,0-5.24-2.09-5.72-4.81
		c-0.08-0.23-0.1-0.46-0.07-0.7c-0.01-0.11-0.03-0.21-0.03-0.32V42.76c0-3.21,2.61-5.83,5.82-5.83h34.93c3.21,0,5.83,2.62,5.83,5.83
		V66.04z"/>
	<path d="M71.86,40.81H36.93c-1.07,0-1.94,0.88-1.94,1.95v19.29l7.29-7.3c1.33-1.33,3.49-1.33,4.82,0l2.45,2.45l9.23-9.25
		c1.33-1.32,3.49-1.32,4.82,0l10.2,10.21v-15.4C73.8,41.69,72.93,40.81,71.86,40.81z M40.81,50.52c-2.14,0-3.88-1.74-3.88-3.88
		c0-2.15,1.74-3.88,3.88-3.88c2.15,0,3.88,1.73,3.88,3.88C44.69,48.78,42.96,50.52,40.81,50.52z"/>
	<path d="M97.88,0H10.91C4.88,0,0,4.89,0,10.92v86.96c0,6.03,4.88,10.92,10.91,10.92h86.97c6.03,0,10.91-4.89,10.91-10.92V10.92
		C108.79,4.89,103.91,0,97.88,0z M77.69,66.04c0,3.21-2.62,5.83-5.83,5.83H36.93c-2.87,0-5.24-2.09-5.72-4.81
		c-0.08-0.23-0.1-0.46-0.07-0.7c-0.01-0.11-0.03-0.21-0.03-0.32V42.76c0-3.21,2.61-5.83,5.82-5.83h34.93c3.21,0,5.83,2.62,5.83,5.83
		V66.04z"/>
</g>
</svg>
