<?xml version="1.0" encoding="utf-8"?>
<!-- Generator: Adobe Illustrator 24.0.3, SVG Export Plug-In . SVG Version: 6.00 Build 0)  -->
<svg version="1.1" id="Layer_1" xmlns="http://www.w3.org/2000/svg" xmlns:xlink="http://www.w3.org/1999/xlink" x="0px" y="0px"
	 viewBox="0 0 212.26 209.17" style="enable-background:new 0 0 212.26 209.17;" xml:space="preserve">
<path d="M207.07,161.94H5.19c-2.87,0-5.19-2.32-5.19-5.19V5.19C0,2.32,2.32,0,5.19,0h201.88c2.87,0,5.19,2.32,5.19,5.19v151.55
	C212.26,159.61,209.93,161.94,207.07,161.94z"/>
<path d="M207.94,185.55H4.32c-2.39,0-4.32-1.93-4.32-4.32l0-6.47c0-2.39,1.93-4.32,4.32-4.32h203.62c2.39,0,4.32,1.93,4.32,4.32
	v6.47C212.26,183.62,210.32,185.55,207.94,185.55z"/>
<path d="M44.62,209.17H5.17c-2.85,0-5.17-2.31-5.17-5.17l0-4.78c0-2.85,2.31-5.17,5.17-5.17h39.45c2.85,0,5.17,2.31,5.17,5.17v4.78
	C49.79,206.86,47.48,209.17,44.62,209.17z"/>
<path d="M83.82,209.17H61.5c-2.85,0-5.16-2.31-5.16-5.16v-4.79c0-2.85,2.31-5.16,5.16-5.16h22.32c2.85,0,5.16,2.31,5.16,5.16v4.79
	C88.99,206.86,86.67,209.17,83.82,209.17z"/>
<path d="M136.66,209.17h-36.2c-2.65,0-4.79-2.15-4.79-4.79v-5.53c0-2.65,2.15-4.79,4.79-4.79h36.2c2.65,0,4.79,2.15,4.79,4.79v5.53
	C141.45,207.03,139.31,209.17,136.66,209.17z"/>
</svg>
