<?xml version="1.0" encoding="utf-8"?>
<!-- Generator: Adobe Illustrator 24.0.3, SVG Export Plug-In . SVG Version: 6.00 Build 0)  -->
<svg version="1.1" id="Layer_1" xmlns="http://www.w3.org/2000/svg" xmlns:xlink="http://www.w3.org/1999/xlink" x="0px" y="0px"
	 viewBox="0 0 302.58 50.94" style="enable-background:new 0 0 302.58 50.94;" xml:space="preserve">
<path d="M298.26,21.55H4.32C1.93,21.55,0,19.61,0,17.23L0,4.32C0,1.93,1.93,0,4.32,0l293.94,0c2.39,0,4.32,1.93,4.32,4.32v12.91
	C302.58,19.61,300.65,21.55,298.26,21.55z"/>
<path d="M171.37,50.94H48.61c-2.39,0-4.32-1.93-4.32-4.32V33.72c0-2.39,1.93-4.32,4.32-4.32h122.76c2.39,0,4.32,1.93,4.32,4.32
	v12.91C175.7,49.01,173.76,50.94,171.37,50.94z"/>
<path d="M247.67,50.94h-54.38c-2.39,0-4.32-1.93-4.32-4.32V33.72c0-2.39,1.93-4.32,4.32-4.32h54.38c2.39,0,4.32,1.93,4.32,4.32
	v12.91C251.99,49.01,250.06,50.94,247.67,50.94z"/>
</svg>
