<?xml version="1.0" encoding="utf-8"?>
<!-- Generator: Adobe Illustrator 24.0.3, SVG Export Plug-In . SVG Version: 6.00 Build 0)  -->
<svg version="1.1" id="Layer_1" xmlns="http://www.w3.org/2000/svg" xmlns:xlink="http://www.w3.org/1999/xlink" x="0px" y="0px"
	 viewBox="0 0 431.48 202.74" style="enable-background:new 0 0 431.48 202.74;" xml:space="preserve">
<path d="M244.05,79.35h-56.62c-1.73,0-3.14,1.42-3.14,3.15v31.26l11.82-11.83c2.15-2.15,5.65-2.15,7.8,0l3.97,3.97l14.97-14.98
	c2.15-2.15,5.65-2.15,7.8,0l16.54,16.55V82.5C247.19,80.77,245.78,79.35,244.05,79.35z M193.72,95.08c-3.47,0-6.29-2.82-6.29-6.29
	c0-3.48,2.82-6.29,6.29-6.29c3.48,0,6.29,2.81,6.29,6.29C200.01,92.26,197.2,95.08,193.72,95.08z"/>
<path d="M426.29,0H5.19C2.32,0,0,2.32,0,5.19v192.36c0,2.87,2.32,5.19,5.19,5.19h421.1c2.87,0,5.19-2.32,5.19-5.19V5.19
	C431.48,2.32,429.16,0,426.29,0z M253.49,120.24c0,5.2-4.24,9.44-9.44,9.44h-56.62c-4.64,0-8.49-3.38-9.27-7.8
	c-0.13-0.36-0.15-0.74-0.11-1.12c-0.01-0.18-0.05-0.34-0.05-0.52V82.5c0-5.2,4.23-9.44,9.43-9.44h56.62c5.2,0,9.44,4.24,9.44,9.44
	V120.24z"/>
</svg>
