<?xml version="1.0" encoding="utf-8"?>
<!-- Generator: Adobe Illustrator 24.0.3, SVG Export Plug-In . SVG Version: 6.00 Build 0)  -->
<svg version="1.1" id="Layer_1" xmlns="http://www.w3.org/2000/svg" xmlns:xlink="http://www.w3.org/1999/xlink" x="0px" y="0px"
	 viewBox="0 0 296.34 88.18" style="enable-background:new 0 0 296.34 88.18;" xml:space="preserve">
<path d="M293.03,13.67H34.18c-1.83,0-3.31-1.48-3.31-3.31V3.31c0-1.83,1.48-3.31,3.31-3.31l258.85,0c1.83,0,3.31,1.48,3.31,3.31
	v7.04C296.34,12.18,294.85,13.67,293.03,13.67z"/>
<path d="M81.89,88.18H4.3c-1.83,0-3.31-1.48-3.31-3.31v-7.04c0-1.83,1.48-3.31,3.31-3.31h77.59c1.83,0,3.31,1.48,3.31,3.31v7.04
	C85.2,86.7,83.72,88.18,81.89,88.18z"/>
<path d="M293.03,88.18H246.8c-1.83,0-3.31-1.48-3.31-3.31v-7.04c0-1.83,1.48-3.31,3.31-3.31h46.23c1.83,0,3.31,1.48,3.31,3.31v7.04
	C296.34,86.7,294.85,88.18,293.03,88.18z"/>
<path d="M229.8,88.18H97.4c-1.83,0-3.31-1.48-3.31-3.31v-7.04c0-1.83,1.48-3.31,3.31-3.31h132.4c1.83,0,3.31,1.48,3.31,3.31v7.04
	C233.11,86.7,231.63,88.18,229.8,88.18z"/>
<path d="M136.7,38.5H4.3c-1.83,0-3.31-1.48-3.31-3.31l0-7.04c0-1.83,1.48-3.31,3.31-3.31h132.4c1.83,0,3.31,1.48,3.31,3.31v7.04
	C140.01,37.02,138.52,38.5,136.7,38.5z"/>
<path d="M293.03,38.5H157.24c-1.83,0-3.31-1.48-3.31-3.31v-7.04c0-1.83,1.48-3.31,3.31-3.31h135.78c1.83,0,3.31,1.48,3.31,3.31v7.04
	C296.34,37.02,294.85,38.5,293.03,38.5z"/>
<path d="M293.03,63.34H183.38c-1.83,0-3.31-1.48-3.31-3.31v-7.04c0-1.83,1.48-3.31,3.31-3.31h109.65c1.83,0,3.31,1.48,3.31,3.31
	v7.04C296.34,61.86,294.85,63.34,293.03,63.34z"/>
<path d="M110.98,63.34H3.31C1.48,63.34,0,61.86,0,60.03l0-7.04c0-1.83,1.48-3.31,3.31-3.31h107.67c1.83,0,3.31,1.48,3.31,3.31v7.04
	C114.29,61.86,112.81,63.34,110.98,63.34z"/>
<path d="M166.57,63.34h-39.35c-1.83,0-3.31-1.48-3.31-3.31v-7.04c0-1.83,1.48-3.31,3.31-3.31h39.35c1.83,0,3.31,1.48,3.31,3.31v7.04
	C169.88,61.86,168.39,63.34,166.57,63.34z"/>
</svg>
