<?xml version="1.0" encoding="utf-8"?>
<!-- Generator: Adobe Illustrator 24.0.3, SVG Export Plug-In . SVG Version: 6.00 Build 0)  -->
<svg version="1.1" id="Layer_1" xmlns="http://www.w3.org/2000/svg" xmlns:xlink="http://www.w3.org/1999/xlink" x="0px" y="0px"
	 viewBox="0 0 145.51 37.4" style="enable-background:new 0 0 145.51 37.4;" xml:space="preserve">
<path d="M142.2,17.21H49.39c-1.83,0-3.31-1.48-3.31-3.31V6.85c0-1.83,1.48-3.31,3.31-3.31h92.81c1.83,0,3.31,1.48,3.31,3.31v7.04
	C145.51,15.73,144.03,17.21,142.2,17.21z"/>
<path d="M92.15,32.93H49.12c-1.68,0-3.04-1.36-3.04-3.04v-4.15c0-1.68,1.36-3.04,3.04-3.04h43.03c1.68,0,3.04,1.36,3.04,3.04v4.15
	C95.19,31.57,93.83,32.93,92.15,32.93z"/>
<circle cx="18.7" cy="18.7" r="18.7"/>
</svg>
