<?xml version="1.0" encoding="iso-8859-1"?>
<!-- Generator: Adobe Illustrator 19.0.0, SVG Export Plug-In . SVG Version: 6.00 Build 0)  -->
<svg version="1.1" id="Layer_1" xmlns="http://www.w3.org/2000/svg" xmlns:xlink="http://www.w3.org/1999/xlink" x="0px" y="0px"
	 viewBox="0 0 496 496" style="enable-background:new 0 0 496 496;" xml:space="preserve">
<g>
	<g>
		<g>
			<path d="M416,96h80V80h-96v80h-80v80h-80v80h-80v80H80v80H0v16h96v-80h80v-80h64.408c-0.192,1.32-0.408,2.632-0.408,4v84.112
				c0,6.248,1.176,12.368,3.504,18.184l10.136,25.344c1.568,3.92,2.36,8.04,2.36,12.248V496h16v-16.112
				c0-6.248-1.176-12.368-3.504-18.184L258.36,436.36c-1.568-3.92-2.36-8.04-2.36-12.248V340c0-6.616,5.384-12,12-12
				c6.616,0,12,5.384,12,12v4h16v-20c0-6.616,5.384-12,12-12c6.616,0,12,5.384,12,12v20h16v-20c0-6.616,5.384-12,12-12
				c6.616,0,12,5.384,12,12v20h16V188c0-6.616,5.384-12,12-12c6.616,0,12,5.384,12,12v188h16v-48h5.576
				c5.24,0,10.304,1.528,14.656,4.44C443.6,337.352,448,345.568,448,354.424v76.608c0,8.816-3.432,17.088-9.656,23.312
				C429.096,463.584,424,475.88,424,488.968V496h16v-7.032c0-8.816,3.432-17.088,9.656-23.312
				c9.248-9.24,14.344-21.536,14.344-34.624v-76.608c0-14.216-7.064-27.416-18.888-35.296c-6.984-4.664-15.128-7.128-23.536-7.128
				H416V188c0-4.312-1.064-8.352-2.808-12H416V96z M360,188v110.704c-3.64-1.736-7.704-2.704-12-2.704
				c-7.832,0-14.912,3.224-20,8.424c-5.088-5.2-12.168-8.424-20-8.424c-12.44,0-23.008,8.152-26.648,19.392
				c-3.968-2.16-8.52-3.392-13.352-3.392c-4.312,0-8.352,1.064-12,2.808V256h80v-80h26.808C361.064,179.648,360,183.688,360,188z"/>
			<path d="M32,344c17.648,0,32-14.352,32-32c0-10.984-5.568-20.688-14.024-26.448l51.952-111.328
				C105.112,175.288,108.456,176,112,176c14.688,0,26.96-9.992,30.712-23.504l98.272,7.016C244.392,173.528,256.952,184,272,184
				c17.648,0,32-14.352,32-32c0-5.336-1.432-10.288-3.752-14.712l114.256-78.552C419.544,62.04,425.536,64,432,64
				c17.648,0,32-14.352,32-32S449.648,0,432,0s-32,14.352-32,32c0,5.336,1.432,10.288,3.752,14.712l-114.256,78.552
				C284.456,121.96,278.464,120,272,120c-14.688,0-26.96,9.992-30.712,23.504l-98.272-7.024C139.608,122.472,127.048,112,112,112
				c-17.648,0-32,14.352-32,32c0,8.256,3.232,15.72,8.384,21.408L34.776,280.28C33.848,280.2,32.952,280,32,280
				c-17.648,0-32,14.352-32,32S14.352,344,32,344z M432,16c8.824,0,16,7.176,16,16s-7.176,16-16,16c-8.824,0-16-7.176-16-16
				S423.176,16,432,16z M272,136c8.824,0,16,7.176,16,16c0,8.824-7.176,16-16,16c-8.824,0-16-7.176-16-16
				C256,143.176,263.176,136,272,136z M112,128c8.824,0,16,7.176,16,16c0,8.824-7.176,16-16,16c-8.824,0-16-7.176-16-16
				C96,135.176,103.176,128,112,128z M32,296c8.824,0,16,7.176,16,16c0,8.824-7.176,16-16,16s-16-7.176-16-16
				C16,303.176,23.176,296,32,296z"/>
		</g>
	</g>
</g>
<g>
</g>
<g>
</g>
<g>
</g>
<g>
</g>
<g>
</g>
<g>
</g>
<g>
</g>
<g>
</g>
<g>
</g>
<g>
</g>
<g>
</g>
<g>
</g>
<g>
</g>
<g>
</g>
<g>
</g>
</svg>
