<?xml version="1.0" encoding="iso-8859-1"?>
<!-- Generator: Adobe Illustrator 19.0.0, SVG Export Plug-In . SVG Version: 6.00 Build 0)  -->
<svg version="1.1" id="Layer_1" xmlns="http://www.w3.org/2000/svg" xmlns:xlink="http://www.w3.org/1999/xlink" x="0px" y="0px"
	 viewBox="0 0 496 496" style="enable-background:new 0 0 496 496;" xml:space="preserve">
<g>
	<g>
		<g>
			<path d="M80,0v48h16v98.104C68.44,153.24,48,178.248,48,208c0,19.12,8.472,36.264,21.808,48H56c-30.872,0-56,25.12-56,56v112
				c0,17.648,14.352,32,32,32c5.856,0,11.272-1.696,16-4.448V496h16v-56h96v56h16v-44.448c4.728,2.752,10.144,4.448,16,4.448
				c17.648,0,32-14.352,32-32V312c0-2.72-0.264-5.376-0.64-8H280v65.472c-9.288,3.312-16,12.112-16,22.528c0,13.232,10.768,24,24,24
				s24-10.768,24-24c0-10.416-6.712-19.216-16-22.528V304h184V48h16V0H80z M64,208c0-26.472,21.528-48,48-48s48,21.528,48,48
				s-21.528,48-48,48S64,234.472,64,208z M127.352,272L112,291.192L96.648,272H127.352z M208,424c0,8.824-7.176,16-16,16
				c-8.824,0-16-7.176-16-16V304h-16v120H64V304H48v120c0,8.824-7.176,16-16,16s-16-7.176-16-16V312c0-22.056,17.944-40,40-40
				h20.152L112,316.808L147.848,272H168c22.056,0,40,17.944,40,40V424z M288,400c-4.416,0-8-3.592-8-8c0-4.408,3.584-8,8-8
				c4.416,0,8,3.592,8,8C296,396.408,292.416,400,288,400z M464,288H218.52c-9.008-18.888-28.24-32-50.52-32h-13.808
				C167.528,244.264,176,227.12,176,208c0-35.288-28.712-64-64-64V48h352V288z M480,32H96V16h384V32z"/>
			<rect x="104" y="472" width="16" height="24"/>
			<path d="M216,248c13.232,0,24-10.768,24-24c0-3.968-1.064-7.664-2.776-10.96l41.184-47.064c2.944,1.288,6.176,2.024,9.592,2.024
				c5.984,0,11.392-2.28,15.6-5.912l34.288,28.576C336.672,193.536,336,196.688,336,200c0,13.232,10.768,24,24,24s24-10.768,24-24
				c0-4.52-1.328-8.704-3.512-12.312l40.024-60.04c1.152,0.168,2.296,0.352,3.488,0.352c13.232,0,24-10.768,24-24s-10.768-24-24-24
				s-24,10.768-24,24c0,6.216,2.432,11.832,6.32,16.096l-38.264,57.392C365.528,176.584,362.84,176,360,176
				c-4.072,0-7.848,1.112-11.208,2.912L311.6,147.92c0.216-1.28,0.4-2.576,0.4-3.92c0-13.232-10.768-24-24-24s-24,10.768-24,24
				c0,3.968,1.064,7.664,2.776,10.96l-41.184,47.064C222.648,200.736,219.416,200,216,200c-13.232,0-24,10.768-24,24
				S202.768,248,216,248z M424,96c4.416,0,8,3.592,8,8s-3.584,8-8,8c-4.416,0-8-3.592-8-8S419.584,96,424,96z M360,192
				c4.416,0,8,3.592,8,8s-3.584,8-8,8c-4.416,0-8-3.592-8-8S355.584,192,360,192z M288,136c4.416,0,8,3.592,8,8s-3.584,8-8,8
				c-4.416,0-8-3.592-8-8S283.584,136,288,136z M216,216c4.416,0,8,3.592,8,8s-3.584,8-8,8s-8-3.592-8-8S211.584,216,216,216z"/>
			<rect x="128" y="64" width="16" height="16"/>
			<rect x="160" y="64" width="16" height="16"/>
			<rect x="192" y="64" width="16" height="16"/>
		</g>
	</g>
</g>
<g>
</g>
<g>
</g>
<g>
</g>
<g>
</g>
<g>
</g>
<g>
</g>
<g>
</g>
<g>
</g>
<g>
</g>
<g>
</g>
<g>
</g>
<g>
</g>
<g>
</g>
<g>
</g>
<g>
</g>
</svg>
