<?xml version="1.0" encoding="iso-8859-1"?>
<!-- Generator: Adobe Illustrator 19.0.0, SVG Export Plug-In . SVG Version: 6.00 Build 0)  -->
<svg version="1.1" id="Layer_1" xmlns="http://www.w3.org/2000/svg" xmlns:xlink="http://www.w3.org/1999/xlink" x="0px" y="0px"
	 viewBox="0 0 496 496" style="enable-background:new 0 0 496 496;" xml:space="preserve">
<g>
	<g>
		<g>
			<path d="M432,80v-8c0-17.648-14.352-32-32-32s-32,14.352-32,32v8H128v-8c0-17.648-14.352-32-32-32S64,54.352,64,72v8H0v376h496
				V80H432z M384,72c0-8.824,7.176-16,16-16c8.824,0,16,7.176,16,16v32c0,8.824-7.176,16-16,16c-8.824,0-16-7.176-16-16V72z M80,72
				c0-8.824,7.176-16,16-16s16,7.176,16,16v32c0,8.824-7.176,16-16,16s-16-7.176-16-16V72z M136.408,440
				c4.128-58.024,52.536-104,111.592-104c59.056,0,107.464,45.976,111.592,104H136.408z M448,440h-72.408
				C371.432,373.152,315.88,320,248,320s-123.432,53.152-127.592,120H48v-32h28.496l1.592-5.92
				c3.92-14.536,9.744-28.576,17.32-41.736l3.056-5.312l-20.168-20.176l56.568-56.56l20.168,20.168l5.312-3.064
				c13.136-7.56,27.176-13.392,41.736-17.312l5.92-1.584V248h80v28.504l5.92,1.592c14.56,3.92,28.6,9.752,41.736,17.312l5.312,3.064
				l20.168-20.168l56.568,56.56l-20.168,20.168l3.056,5.312c7.568,13.16,13.4,27.192,17.32,41.736l1.592,5.92H448V440z M480,440h-16
				v-48h-32.336c-3.6-11.824-8.36-23.296-14.216-34.248l22.888-22.888l-79.192-79.184l-22.888,22.88
				c-10.944-5.84-22.424-10.608-34.248-14.208V232H192v32.344c-11.832,3.6-23.304,8.368-34.248,14.208l-22.888-22.88l-79.192,79.184
				l22.888,22.888c-5.856,10.96-10.616,22.432-14.224,34.256H32v48H16V160h464V440z M480,144H16V96h48v8c0,17.648,14.352,32,32,32
				s32-14.352,32-32v-8h240v8c0,17.648,14.352,32,32,32s32-14.352,32-32v-8h48V144z"/>
			<rect x="160" y="408" width="16" height="16"/>
			<rect x="192" y="408" width="16" height="16"/>
			<rect x="224" y="408" width="16" height="16"/>
			<rect x="256" y="408" width="16" height="16"/>
			<rect x="288" y="408" width="16" height="16"/>
			<rect x="320" y="408" width="16" height="16"/>
		</g>
	</g>
</g>
<g>
</g>
<g>
</g>
<g>
</g>
<g>
</g>
<g>
</g>
<g>
</g>
<g>
</g>
<g>
</g>
<g>
</g>
<g>
</g>
<g>
</g>
<g>
</g>
<g>
</g>
<g>
</g>
<g>
</g>
</svg>
