<?xml version="1.0" encoding="iso-8859-1"?>
<!-- Generator: Adobe Illustrator 19.0.0, SVG Export Plug-In . SVG Version: 6.00 Build 0)  -->
<svg version="1.1" id="Layer_1" xmlns="http://www.w3.org/2000/svg" xmlns:xlink="http://www.w3.org/1999/xlink" x="0px" y="0px"
	 viewBox="0 0 496 496" style="enable-background:new 0 0 496 496;" xml:space="preserve">
<g>
	<g>
		<g>
			<path d="M320,344h-21.56c22.672-15.936,37.56-42.24,37.56-72v-1.76l8.928-2.232C358.512,264.616,368,252.464,368,238.464
				c0-16.8-13.664-30.464-30.464-30.464H336v-16h-16v80c0,39.704-32.304,72-72,72s-72-32.296-72-72v-80h-16v16h-1.536
				c-16.8,0-30.464,13.664-30.464,30.464c0,14,9.488,26.16,23.072,29.544L160,270.24V272c0,29.76,14.888,56.064,37.56,72H176
				c-30.88,0-56,25.128-56,56v96h16v-96c0-22.056,17.944-40,40-40h20.32L248,420.288L299.68,360H320c22.056,0,40,17.944,40,40v96h16
				v-96C376,369.128,350.88,344,320,344z M336,224h1.536c7.976,0,14.464,6.488,14.464,14.464c0,6.648-4.504,12.416-10.96,14.032
				l-5.04,1.256V224z M160,253.752l-5.04-1.256c-6.456-1.624-10.96-7.384-10.96-14.032c0-7.976,6.488-14.464,14.464-14.464H160
				V253.752z M248,395.712L217.392,360h61.216L248,395.712z"/>
			<rect x="312" y="408" width="16" height="88"/>
			<rect x="168" y="408" width="16" height="88"/>
			<rect x="240" y="432" width="16" height="16"/>
			<rect x="240" y="464" width="16" height="16"/>
			<path d="M354.824,144.496L307.744,88H188.256l-47.08,56.496L248,251.312L354.824,144.496z M227.104,152h41.872l-20.968,62.728
				L227.104,152z M266.312,210.376L285.768,152h38.92L266.312,210.376z M305.688,110.52L326.92,136h-33.976L305.688,110.52z
				 M291.048,104l-12.04,24.088L262.944,104H291.048z M265.056,136h-34.112L248,110.424L265.056,136z M233.056,104l-16.104,24.144
				L204.928,104H233.056z M190.312,110.52L203.056,136H169.08L190.312,110.52z M171.312,152h38.92l19.456,58.376L171.312,152z"/>
			<rect x="240" width="16" height="48"/>
			<rect x="147.997" y="36.384" transform="matrix(0.5 0.866 -0.866 0.5 124.4334 -126.7605)" width="47.999" height="16"/>
			<rect x="92.357" y="91.984" transform="matrix(0.866 0.5 -0.5 0.866 65.5827 -44.7833)" width="47.999" height="16"/>
			<rect x="72" y="168" width="48" height="16"/>
			<rect x="376" y="168" width="48" height="16"/>
			<rect x="371.609" y="76.017" transform="matrix(0.4999 0.8661 -0.8661 0.4999 276.4685 -278.7553)" width="16" height="48.001"/>
			<rect x="315.956" y="20.389" transform="matrix(0.8661 0.4999 -0.4999 0.8661 65.5719 -155.999)" width="16" height="48.001"/>
		</g>
	</g>
</g>
<g>
</g>
<g>
</g>
<g>
</g>
<g>
</g>
<g>
</g>
<g>
</g>
<g>
</g>
<g>
</g>
<g>
</g>
<g>
</g>
<g>
</g>
<g>
</g>
<g>
</g>
<g>
</g>
<g>
</g>
</svg>
