<?xml version="1.0" encoding="iso-8859-1"?>
<!-- Generator: Adobe Illustrator 19.0.0, SVG Export Plug-In . SVG Version: 6.00 Build 0)  -->
<svg version="1.1" id="Layer_1" xmlns="http://www.w3.org/2000/svg" xmlns:xlink="http://www.w3.org/1999/xlink" x="0px" y="0px"
	 viewBox="0 0 496 496" style="enable-background:new 0 0 496 496;" xml:space="preserve">
<g>
	<g>
		<g>
			<path d="M248,2.876L0,201.284v291.84h496v-291.84L248,2.876z M248,23.372l227.192,181.752l-67.928,54.344
				c0.448-4.816,0.736-9.608,0.736-14.344c0-88.224-71.776-160-160-160s-160,71.776-160,160c0,4.736,0.288,9.528,0.736,14.344
				l-67.928-54.344L248,23.372z M344,245.124c0,52.936-43.064,96-96,96c-52.936,0-96-43.064-96-96h-16
				c0,29.584,11.608,56.44,30.408,76.48l-59.32-47.456c-2.016-9.784-3.088-19.544-3.088-29.024c0-79.4,64.6-144,144-144
				s144,64.6,144,144c0,9.48-1.072,19.24-3.088,29.024l-59.32,47.456c18.8-20.04,30.408-46.896,30.408-76.48H344z M304.576,341.62
				L248,386.884l-56.576-45.264c16.624,9.784,35.928,15.504,56.576,15.504S287.952,351.404,304.576,341.62z M16,221.772
				l157.096,125.672L16,468.836V221.772z M31.432,477.124l154.52-119.4L248,407.364l62.048-49.64l154.52,119.4H31.432z M480,468.836
				L322.904,347.444L480,221.772V468.836z"/>
			<path d="M184,165.124c-17.648,0-32,14.352-32,32s14.352,32,32,32s32-14.352,32-32S201.648,165.124,184,165.124z M184,213.124
				c-8.824,0-16-7.176-16-16c0-8.824,7.176-16,16-16c8.824,0,16,7.176,16,16C200,205.948,192.824,213.124,184,213.124z"/>
			<path d="M312,165.124c-17.648,0-32,14.352-32,32s14.352,32,32,32s32-14.352,32-32S329.648,165.124,312,165.124z M312,213.124
				c-8.824,0-16-7.176-16-16c0-8.824,7.176-16,16-16c8.824,0,16,7.176,16,16C328,205.948,320.824,213.124,312,213.124z"/>
			<rect x="240" y="429.124" width="16" height="16"/>
			<rect x="272" y="429.124" width="16" height="16"/>
			<rect x="208" y="429.124" width="16" height="16"/>
		</g>
	</g>
</g>
<g>
</g>
<g>
</g>
<g>
</g>
<g>
</g>
<g>
</g>
<g>
</g>
<g>
</g>
<g>
</g>
<g>
</g>
<g>
</g>
<g>
</g>
<g>
</g>
<g>
</g>
<g>
</g>
<g>
</g>
</svg>
