<?xml version="1.0" encoding="iso-8859-1"?>
<!-- Generator: Adobe Illustrator 19.0.0, SVG Export Plug-In . SVG Version: 6.00 Build 0)  -->
<svg version="1.1" id="Layer_1" xmlns="http://www.w3.org/2000/svg" xmlns:xlink="http://www.w3.org/1999/xlink" x="0px" y="0px"
	 viewBox="0 0 496 496" style="enable-background:new 0 0 496 496;" xml:space="preserve">
<g>
	<g>
		<g>
			<path d="M248,0C111.256,0,0,111.256,0,248s111.256,248,248,248s248-111.256,248-248S384.744,0,248,0z M248,16
				c122.528,0,223.112,95.496,231.384,215.96C457.696,200.496,388.488,120,248,120S38.304,200.496,16.616,231.96
				C24.888,111.496,125.472,16,248,16z M136,248c0-61.76,50.24-112,112-112s112,50.24,112,112s-50.24,112-112,112
				S136,309.76,136,248z M172.168,350.88C78.432,327.104,34.864,263.872,25.224,248c9.64-15.872,53.208-79.104,146.944-102.88
				C140.6,168.456,120,205.816,120,248S140.6,327.544,172.168,350.88z M376,248c0-42.184-20.6-79.544-52.168-102.88
				c93.736,23.776,137.304,87.008,146.944,102.88c-9.64,15.872-53.208,79.104-146.944,102.88C355.4,327.544,376,290.184,376,248z
				 M248,480c-122.528,0-223.112-95.496-231.384-215.96C38.304,295.504,107.512,376,248,376s209.696-80.496,231.384-111.96
				C471.112,384.504,370.528,480,248,480z"/>
			<path d="M288,248c0-22.056-17.944-40-40-40c-22.056,0-40,17.944-40,40c0,22.056,17.944,40,40,40C270.056,288,288,270.056,288,248
				z M224,248c0-13.232,10.768-24,24-24s24,10.768,24,24s-10.768,24-24,24S224,261.232,224,248z"/>
			<path d="M256,344v-16.408c8.784-0.872,17.112-3.232,24.832-6.72l8.24,14.264l13.856-8l-8.256-14.296
				c6.992-5.048,13.12-11.176,18.168-18.168l14.296,8.256l8-13.856l-14.264-8.24c3.488-7.72,5.848-16.056,6.72-24.832H344v-16
				h-16.408c-0.872-8.784-3.232-17.112-6.72-24.832l14.264-8.24l-8-13.856l-14.296,8.256c-5.048-6.992-11.176-13.12-18.168-18.168
				l8.256-14.296l-13.856-8l-8.24,14.264c-7.72-3.488-16.056-5.848-24.832-6.72V152h-16v16.408
				c-8.784,0.872-17.112,3.232-24.832,6.72l-8.24-14.264l-13.856,8l8.256,14.296c-6.992,5.048-13.12,11.176-18.168,18.168
				l-14.296-8.256l-8,13.856l14.264,8.24c-3.488,7.72-5.848,16.056-6.72,24.832H152v16h16.408c0.872,8.784,3.232,17.112,6.72,24.832
				l-14.264,8.24l8,13.856l14.296-8.256c5.048,6.992,11.176,13.12,18.168,18.168l-8.256,14.296l13.856,8l8.24-14.264
				c7.72,3.488,16.056,5.848,24.832,6.72V344H256z M184,248c0-35.288,28.712-64,64-64c35.288,0,64,28.712,64,64
				c0,35.288-28.712,64-64,64C212.712,312,184,283.288,184,248z"/>
		</g>
	</g>
</g>
<g>
</g>
<g>
</g>
<g>
</g>
<g>
</g>
<g>
</g>
<g>
</g>
<g>
</g>
<g>
</g>
<g>
</g>
<g>
</g>
<g>
</g>
<g>
</g>
<g>
</g>
<g>
</g>
<g>
</g>
</svg>
