<?xml version="1.0" encoding="iso-8859-1"?>
<!-- Generator: Adobe Illustrator 19.0.0, SVG Export Plug-In . SVG Version: 6.00 Build 0)  -->
<svg version="1.1" id="Layer_1" xmlns="http://www.w3.org/2000/svg" xmlns:xlink="http://www.w3.org/1999/xlink" x="0px" y="0px"
	 viewBox="0 0 496 496" style="enable-background:new 0 0 496 496;" xml:space="preserve">
<g>
	<g>
		<g>
			<path d="M410.912,385.104L321.504,368H313.4c42.84-24,73.312-64.6,77.936-114.776c24.8-11.888,40.672-36.488,40.672-64.312
				v-9.504C432,164.304,419.704,152,404.584,152c-4.232,0-8.48,1-12.264,2.896l-0.32,0.16V144H104v11.056l-0.32-0.16
				C99.888,153,95.648,152,91.416,152C76.296,152,64,164.304,64,179.416v9.504c0,27.824,15.88,52.48,40.672,64.376
				C109.288,303.36,139.64,344,182.344,368H176l-90.912,17.168C35.792,394.56,0,437.808,0,488v8h496v-8
				C496,437.808,460.208,394.496,410.912,385.104z M392,172.952l7.48-3.744c1.576-0.792,3.344-1.208,5.104-1.208
				c6.296,0,11.416,5.12,11.416,11.416v9.504c0,18.608-9.184,35.376-24,45.608V172.952z M104,234.52
				c-14.816-10.224-24-26.992-24-45.6v-9.504C80,173.12,85.12,168,91.416,168c1.768,0,3.528,0.416,5.112,1.208l7.472,3.736V234.52z
				 M120,240v-80h256v80c0,70.576-57.424,128-128,128S120,310.576,120,240z M16.36,480c3.52-39.048,32.6-71.664,71.728-79.112
				l84.112-16.024L233.352,480H16.36z M190.648,384h114.704L248,473.216L190.648,384z M262.648,480.008V480l61.152-95.128
				l84.112,16.024c39.128,7.448,68.2,40.064,71.728,79.112H262.648z"/>
			<path d="M164.336,128c14.616,0,28.728-5.304,39.728-14.928L248,74.632l43.936,38.44c11,9.624,25.112,14.928,39.728,14.928
				C364.928,128,392,100.936,392,67.664v-7.328C392,27.064,364.928,0,331.664,0c-14.616,0-28.728,5.304-39.728,14.928L248,53.368
				l-43.936-38.44C193.064,5.304,178.952,0,164.336,0C131.072,0,104,27.064,104,60.336v7.328C104,100.936,131.072,128,164.336,128z
				 M302.472,26.968C310.552,19.896,320.92,16,331.664,16C356.112,16,376,35.888,376,60.336v7.328
				C376,92.112,356.112,112,331.664,112c-10.744,0-21.112-3.896-29.192-10.968L260.152,64L302.472,26.968z M120,60.336
				C120,35.888,139.888,16,164.336,16c10.744,0,21.112,3.896,29.192,10.968L235.848,64l-42.32,37.032
				C185.448,108.104,175.08,112,164.336,112C139.888,112,120,92.112,120,67.664V60.336z"/>
			<rect x="64" width="16" height="16"/>
			<rect x="48" y="16" width="16" height="16"/>
			<rect x="80" y="16" width="16" height="16"/>
			<rect x="64" y="32" width="16" height="16"/>
			<rect x="424" width="16" height="16"/>
			<rect x="408" y="16" width="16" height="16"/>
			<rect x="440" y="16" width="16" height="16"/>
			<rect x="424" y="32" width="16" height="16"/>
			<rect x="464" y="88" width="16" height="16"/>
			<rect x="448" y="104" width="16" height="16"/>
			<rect x="480" y="104" width="16" height="16"/>
			<rect x="464" y="120" width="16" height="16"/>
			<rect x="32" y="72" width="16" height="16"/>
			<rect x="16" y="88" width="16" height="16"/>
			<rect x="48" y="88" width="16" height="16"/>
			<rect x="32" y="104" width="16" height="16"/>
			<path d="M328,96c17.648,0,32-14.352,32-32s-14.352-32-32-32s-32,14.352-32,32S310.352,96,328,96z M328,48c8.824,0,16,7.176,16,16
				s-7.176,16-16,16c-8.824,0-16-7.176-16-16S319.176,48,328,48z"/>
			<path d="M168,96c17.648,0,32-14.352,32-32s-14.352-32-32-32s-32,14.352-32,32S150.352,96,168,96z M168,48c8.824,0,16,7.176,16,16
				s-7.176,16-16,16c-8.824,0-16-7.176-16-16S159.176,48,168,48z"/>
		</g>
	</g>
</g>
<g>
</g>
<g>
</g>
<g>
</g>
<g>
</g>
<g>
</g>
<g>
</g>
<g>
</g>
<g>
</g>
<g>
</g>
<g>
</g>
<g>
</g>
<g>
</g>
<g>
</g>
<g>
</g>
<g>
</g>
</svg>
