<?xml version="1.0" encoding="iso-8859-1"?>
<!-- Generator: Adobe Illustrator 19.0.0, SVG Export Plug-In . SVG Version: 6.00 Build 0)  -->
<svg version="1.1" id="Layer_1" xmlns="http://www.w3.org/2000/svg" xmlns:xlink="http://www.w3.org/1999/xlink" x="0px" y="0px"
	 viewBox="0 0 496 496" style="enable-background:new 0 0 496 496;" xml:space="preserve">
<g>
	<g>
		<g>
			<path d="M462.072,199.312C447.632,151.872,404.616,120,355.032,120h-2.544C336.336,77.968,295.656,48,248,48
				s-88.336,29.968-104.488,72h-2.544c-49.584,0-92.6,31.872-107.04,79.312L0.344,309.672L0,496h8c22.592,0,42.792-10.464,56-26.792
				V480h8c22.592,0,42.792-10.464,56-26.792V464h8c39.704,0,72-32.304,72-72v-24h-16v24c0,28.168-20.896,51.536-48,55.432V400h-16v8
				c0,28.168-20.896,51.536-48,55.432V416H64v8c0,28.168-20.896,51.536-48,55.432v-166.24l33.24-109.224
				c12.136-39.896,47.896-66.88,89.392-67.872C136.944,143.808,136,151.792,136,160c0,33.28,14.52,64.288,40,85.672V256h-16v16h16
				v16h-16v16h16v32h16v16h16v-16h80v16h16v-16h16v-32h16v-16h-16v-16h16v-16h-16v-10.328c25.48-21.392,40-52.392,40-85.672
				c0-8.208-0.944-16.192-2.632-23.904c41.496,0.984,77.248,27.968,89.392,67.872L480,313.192v166.24
				c-27.104-3.896-48-27.264-48-55.432v-8h-16v47.432c-27.104-3.896-48-27.264-48-55.432v-8h-16v47.432
				c-27.104-3.896-48-27.264-48-55.432v-24h-16v24c0,39.696,32.296,72,72,72h8v-10.792C381.208,469.536,401.408,480,424,480h8
				v-10.792C445.208,485.536,465.408,496,488,496h8V312L462.072,199.312z M304,320H192v-16h112V320z M304,288H192v-16h112V288z
				 M307.072,235.568l-3.072,2.4V256h-48v-56.808c18.232-3.72,32-19.872,32-39.192c0-22.056-17.944-40-40-40
				c-22.056,0-40,17.944-40,40c0,19.312,13.768,35.472,32,39.192V256h-48v-18.032l-3.072-2.4C165.464,217.184,152,189.64,152,160
				c0-52.936,43.064-96,96-96c52.936,0,96,43.064,96,96C344,189.64,330.536,217.184,307.072,235.568z M248,184
				c-13.232,0-24-10.768-24-24s10.768-24,24-24s24,10.768,24,24S261.232,184,248,184z"/>
			<polygon points="432,400 432,310.552 407.496,245.192 392.504,250.808 416,313.448 416,400 			"/>
			<rect x="352" y="272" width="16" height="112"/>
			<polygon points="64,400 80,400 80,313.448 103.496,250.808 88.504,245.192 64,310.552 			"/>
			<rect x="128" y="272" width="16" height="112"/>
			<rect x="224" y="352" width="16" height="112"/>
			<rect x="224" y="480" width="16" height="16"/>
			<rect x="256" y="352" width="16" height="96"/>
			<rect x="256" y="464" width="16" height="16"/>
			<rect x="240" width="16" height="32"/>
			<rect x="160" y="27.303" transform="matrix(0.5 0.866 -0.866 0.5 118.5705 -134.7686)" width="31.999" height="16"/>
			<rect x="107.284" y="79.985" transform="matrix(0.866 0.5 -0.5 0.866 60.5109 -49.8551)" width="31.999" height="16"/>
			<rect x="364.71" y="72.015" transform="matrix(0.4999 0.8661 -0.8661 0.4999 262.6241 -278.7822)" width="16" height="32"/>
			<rect x="311.987" y="19.319" transform="matrix(0.8661 0.4999 -0.4999 0.8661 60.5054 -155.2288)" width="16" height="32"/>
		</g>
	</g>
</g>
<g>
</g>
<g>
</g>
<g>
</g>
<g>
</g>
<g>
</g>
<g>
</g>
<g>
</g>
<g>
</g>
<g>
</g>
<g>
</g>
<g>
</g>
<g>
</g>
<g>
</g>
<g>
</g>
<g>
</g>
</svg>
