<?xml version="1.0" encoding="iso-8859-1"?>
<!-- Generator: Adobe Illustrator 19.0.0, SVG Export Plug-In . SVG Version: 6.00 Build 0)  -->
<svg version="1.1" id="Layer_1" xmlns="http://www.w3.org/2000/svg" xmlns:xlink="http://www.w3.org/1999/xlink" x="0px" y="0px"
	 viewBox="0 0 496 496" style="enable-background:new 0 0 496 496;" xml:space="preserve">
<g>
	<g>
		<g>
			<path d="M280,144c0-17.648-14.352-32-32-32s-32,14.352-32,32s14.352,32,32,32S280,161.648,280,144z M248,160
				c-8.824,0-16-7.176-16-16c0-8.824,7.176-16,16-16c8.824,0,16,7.176,16,16C264,152.824,256.824,160,248,160z"/>
			<rect x="240" width="16" height="24"/>
			<rect x="146.696" y="20.444" transform="matrix(0.3826 0.9239 -0.9239 0.3826 123.2452 -127.545)" width="20.72" height="16"/>
			<rect x="163.786" y="55.345" transform="matrix(-0.9238 0.3828 -0.3828 -0.9238 354.9912 57.3869)" width="16" height="17.336"/>
			<rect x="69.648" y="71.847" transform="matrix(-0.7073 -0.7069 0.7069 -0.7073 79.8811 192.769)" width="20.4" height="16"/>
			<rect x="94.186" y="107.056" transform="matrix(-0.7071 -0.7071 0.7071 -0.7071 115.0592 277.771)" width="41.744" height="16"/>
			<rect x="15.861" y="160.532" transform="matrix(0.9239 0.3827 -0.3827 0.9239 68.7723 -8.671)" width="80.642" height="16"/>
			
				<rect x="115.129" y="200.714" transform="matrix(-0.9239 -0.3827 0.3827 -0.9239 214.7294 460.1409)" width="76.002" height="16"/>
			<rect y="240" width="32" height="16"/>
			<rect x="48" y="240" width="72" height="16"/>
			<rect x="136" y="240" width="48" height="16"/>
			<rect x="15.868" y="319.72" transform="matrix(-0.9239 0.3827 -0.3827 -0.9239 232.2848 609.2357)" width="79.362" height="16"/>
			<rect x="105.631" y="281.205" transform="matrix(0.9239 -0.3827 0.3827 0.9239 -99.3668 78.8695)" width="85.866" height="16"/>
			<rect x="69.593" y="407.939" transform="matrix(0.7072 -0.707 0.707 0.7072 -270.6232 178.4041)" width="20.984" height="16"/>
			
				<rect x="87.934" y="355.514" transform="matrix(-0.7071 0.7071 -0.7071 -0.7071 483.2577 526.8565)" width="89.159" height="16"/>
			<rect x="181.488" y="290.858" transform="matrix(0.7071 0.7071 -0.7071 0.7071 272.2151 -44.2218)" width="16" height="31.248"/>
			
				<rect x="155.983" y="422.211" transform="matrix(-0.9238 -0.3828 0.3828 -0.9238 142.9154 929.9699)" width="16" height="57.11"/>
			
				<rect x="183.259" y="360.78" transform="matrix(-0.9238 -0.3828 0.3828 -0.9238 220.5897 813.7731)" width="16" height="48.319"/>
			<rect x="240" y="472" width="16" height="24"/>
			<rect x="384.403" y="399.207" transform="matrix(-0.7072 -0.707 0.707 -0.7072 407.3024 983.09)" width="45.624" height="16"/>
			<path d="M360,348.688V344h-4.688l-12.568-12.568l-11.312,11.312l1.256,1.256H296v32h-16V205.64c5.176,1.552,10.576,2.36,16,2.36
				c30.88,0,56-25.128,56-56c0-28.168-24-51.536-48-55.432c0-0.184,0-0.384,0-0.568c0-30.872-25.12-56-56-56s-56,25.128-56,56
				c0,0.184,0,0.384,0,0.568c-24,3.888-48,27.264-48,55.432c0,30.872,25.12,56,56,56c5.424,0,10.824-0.808,16-2.36V456h64v-32h16v32
				h29.496l10.016,24.184l14.784-6.128L342.816,456H360v-48h-16v-16h16v-20.688l11.792,11.792l11.312-11.312L360,348.688z M344,376
				h-16v48h16v16h-32v-32h-48v32h-32V179.64l-12.008,6.96c-6.096,3.528-13.008,5.392-19.992,5.392c-22.056,0-40-17.952-40-40.008
				c0-22.04,17.904-39.984,40.408-39.984c0.016,0,0.048,0,0.064,0l9.784,0.328l-1.64-9.632C208.2,100.272,208,98.08,208,96
				c0-22.056,17.944-40,40-40c22.056,0,40,17.944,40,40c0,2.08-0.2,4.272-0.616,6.696L286.52,112H296c22.056,0,40,17.944,40,40
				c0,22.056-17.944,40-40,40c-6.984,0-13.896-1.864-19.992-5.4L264,179.64V392h48v-32h32V376z"/>
			<rect x="289.612" y="301.724" transform="matrix(-0.7072 -0.707 0.707 -0.7072 309.7989 747.7458)" width="40.24" height="16"/>
			
				<rect x="371.538" y="313.872" transform="matrix(-0.9239 -0.3827 0.3827 -0.9239 697.2006 782.4287)" width="109.763" height="16"/>
			<rect x="305.88" y="275.234" transform="matrix(0.9239 0.3827 -0.3827 0.9239 133.7492 -105.9211)" width="54.481" height="16"/>
			<rect x="416" y="240" width="80" height="16"/>
			<rect x="312" y="240" width="88" height="16"/>
			
				<rect x="458.494" y="145.995" transform="matrix(-0.3792 -0.9253 0.9253 -0.3792 497.6803 648.8377)" width="16" height="22.952"/>
			
				<rect x="358.093" y="176.416" transform="matrix(0.9254 -0.3791 0.3791 0.9254 -40.0067 165.6388)" width="85.083" height="16.001"/>
			<rect x="318.016" y="195.519" transform="matrix(0.379 0.9254 -0.9254 0.379 401.3983 -168.1919)" width="16" height="38.92"/>
			<rect x="399.687" y="66.153" transform="matrix(0.7071 0.7071 -0.7071 0.7071 181.8668 -262.4068)" width="16" height="44.352"/>
			<rect x="359.995" y="116.664" transform="matrix(0.7071 0.7071 -0.7071 0.7071 198.276 -222.7286)" width="16" height="22.624"/>
			
				<rect x="323.459" y="16.496" transform="matrix(0.9185 0.3955 -0.3955 0.9185 44.9884 -127.3844)" width="16.001" height="57.858"/>
			<rect x="392" y="480" width="16" height="16"/>
			<rect x="408" y="464" width="16" height="16"/>
			<rect x="392" y="448" width="16" height="16"/>
			<rect x="376" y="464" width="16" height="16"/>
			<rect x="448" y="400" width="16" height="16"/>
			<rect x="464" y="384" width="16" height="16"/>
			<rect x="448" y="368" width="16" height="16"/>
			<rect x="432" y="384" width="16" height="16"/>
			<rect x="448" y="48" width="16" height="16"/>
			<rect x="464" y="32" width="16" height="16"/>
			<rect x="448" y="16" width="16" height="16"/>
			<rect x="432" y="32" width="16" height="16"/>
			<rect x="104" y="464" width="16" height="16"/>
			<rect x="120" y="448" width="16" height="16"/>
			<rect x="104" y="432" width="16" height="16"/>
			<rect x="88" y="448" width="16" height="16"/>
			<rect x="16" y="400" width="16" height="16"/>
			<rect x="32" y="384" width="16" height="16"/>
			<rect x="16" y="368" width="16" height="16"/>
			<rect y="384" width="16" height="16"/>
			<rect x="32" y="120" width="16" height="16"/>
			<rect x="48" y="104" width="16" height="16"/>
			<rect x="32" y="88" width="16" height="16"/>
			<rect x="16" y="104" width="16" height="16"/>
			<rect x="80" y="32" width="16" height="16"/>
			<rect x="96" y="16" width="16" height="16"/>
			<rect x="80" width="16" height="16"/>
			<rect x="64" y="16" width="16" height="16"/>
		</g>
	</g>
</g>
<g>
</g>
<g>
</g>
<g>
</g>
<g>
</g>
<g>
</g>
<g>
</g>
<g>
</g>
<g>
</g>
<g>
</g>
<g>
</g>
<g>
</g>
<g>
</g>
<g>
</g>
<g>
</g>
<g>
</g>
</svg>
