<?xml version="1.0" encoding="iso-8859-1"?>
<!-- Generator: Adobe Illustrator 19.0.0, SVG Export Plug-In . SVG Version: 6.00 Build 0)  -->
<svg version="1.1" id="Layer_1" xmlns="http://www.w3.org/2000/svg" xmlns:xlink="http://www.w3.org/1999/xlink" x="0px" y="0px"
	 viewBox="0 0 496 496" style="enable-background:new 0 0 496 496;" xml:space="preserve">
<g>
	<g>
		<g>
			<rect x="304" y="136" width="16" height="16"/>
			<rect x="176" y="136" width="16" height="16"/>
			<path d="M455.832,32.824C444.584,12.744,423.144,0,400,0c-24.888,0-46.832,14.416-57.352,35.712C316.392,12.648,283.264,0,248,0
				c-71.288,0-131.72,53.088-142.16,122.632C100.112,120.944,94.128,120,88,120c-30.416,0-56.464,21.512-62.592,50.832
				C10.208,176.76,0,191.352,0,208c0,22.056,17.944,40,40,40h96c3.88,0,7.64-0.512,11.264-1.392c1.576,1.552,3.12,3.152,4.736,4.608
				V256h-16v16h16v16h-16v16h16v32h16v48h-32v16h12.688l-11.72,11.72c-5.784,5.784-8.968,13.472-8.968,21.656
				c0,14.872,10.672,27.28,24.752,30.032C156.24,481.928,172.48,496,192,496h112c19.52,0,35.76-14.072,39.248-32.592
				c14.08-2.752,24.752-15.16,24.752-30.032c0-8.176-3.184-15.872-8.968-21.656L347.312,400H360v-16h-32v-48h16v-32h16v-16h-16v-16
				h16v-16h-16v-4.784C374.552,223.856,392,185,392,144c0-5.208-0.44-10.544-1.08-16H448c26.472,0,48-21.528,48-48
				C496,56.496,478.704,36.592,455.832,32.824z M136,232H40c-13.232,0-24-10.768-24-24c0-11.072,7.552-20.624,18.368-23.24
				l5.368-1.296l0.688-5.488C43.424,154.048,63.872,136,88,136c18.496,0,35.536,10.856,43.432,27.664l2.008,4.264l4.696,0.32
				C154.88,169.376,168,183.32,168,200C168,217.648,153.648,232,136,232z M161.376,448h-2.752C150.56,448,144,441.44,144,433.376
				c0-3.848,1.56-7.624,4.28-10.344l11.72-11.72l11.72,11.72c2.72,2.72,4.28,6.488,4.28,10.344C176,441.44,169.44,448,161.376,448z
				 M304,480H192c-10.824,0-19.896-7.248-22.872-17.12c13.12-3.456,22.872-15.32,22.872-29.504c0-8.176-3.184-15.872-8.968-21.656
				L171.312,400h153.376l-11.72,11.72c-5.784,5.784-8.968,13.472-8.968,21.656c0,14.192,9.752,26.048,22.872,29.504
				C323.896,472.752,314.824,480,304,480z M184,384v-48h128v48H184z M336,411.312l11.72,11.72c2.72,2.72,4.28,6.488,4.28,10.344
				c0,8.064-6.56,14.624-14.624,14.624h-2.752C326.56,448,320,441.44,320,433.376c0-3.848,1.56-7.624,4.28-10.344L336,411.312z
				 M328,320H168v-16h160V320z M328,288H168v-16h160V288z M330.824,241.496L328,243.888V256h-72v-72.808
				c18.232-3.72,32-19.872,32-39.192c0-22.056-17.944-40-40-40c-22.056,0-40,17.944-40,40c0,19.312,13.768,35.472,32,39.192V256h-72
				v-12.12l-2.824-2.4c-0.696-0.592-1.344-1.32-2.04-1.936C175.728,230.888,184,216.4,184,200c0-23.504-17.296-43.408-40.168-47.176
				c-5.48-9.776-13.4-17.768-22.728-23.44C128.432,65.432,183.144,16,248,16c33.152,0,64.16,12.632,88.08,35.472
				C321.648,57.72,312,71.856,312,88c0,22.056,17.944,40,40,40h22.792c0.72,5.504,1.208,10.848,1.208,16
				C376,181.536,359.528,217.08,330.824,241.496z M248,168c-13.232,0-24-10.768-24-24s10.768-24,24-24s24,10.768,24,24
				S261.232,168,248,168z M448,112h-96c-13.232,0-24-10.768-24-24c0-11.072,7.552-20.624,18.368-23.24l5.368-1.296l0.688-5.488
				C355.424,34.048,375.872,16,400,16c18.496,0,35.536,10.856,43.432,27.664l2.008,4.264l4.696,0.32C466.88,49.376,480,63.32,480,80
				C480,97.648,465.648,112,448,112z"/>
		</g>
	</g>
</g>
<g>
</g>
<g>
</g>
<g>
</g>
<g>
</g>
<g>
</g>
<g>
</g>
<g>
</g>
<g>
</g>
<g>
</g>
<g>
</g>
<g>
</g>
<g>
</g>
<g>
</g>
<g>
</g>
<g>
</g>
</svg>
