<?xml version="1.0" encoding="iso-8859-1"?>
<!-- Generator: Adobe Illustrator 19.0.0, SVG Export Plug-In . SVG Version: 6.00 Build 0)  -->
<svg version="1.1" id="Layer_1" xmlns="http://www.w3.org/2000/svg" xmlns:xlink="http://www.w3.org/1999/xlink" x="0px" y="0px"
	 viewBox="0 0 496 496" style="enable-background:new 0 0 496 496;" xml:space="preserve">
<g>
	<g>
		<g>
			<path d="M448,0h-64v80H256v16h128v320h64c17.648,0,32,14.352,32,32s-14.352,32-32,32H16V96h128V80H0v416h448
				c26.472,0,48-21.528,48-48V48C496,21.528,474.472,0,448,0z M480,412.256C471.504,404.64,460.28,400,448,400h-48V16h48
				c17.648,0,32,14.352,32,32V412.256z"/>
			<path d="M368,168v-48h-48v16h-96v16h96v16h16v240h-16v16h-96v-16h-16v-16h40v-32h16v-16h-16v-16h16v-16h-16v-0.008
				c20.12-15.096,32-38.696,32-63.992c0-44.112-35.888-80-80-80s-80,35.888-80,80c0,25.288,11.88,48.896,32,63.992V312h-16v16h16v16
				h-16v16h16v32h40v16h-16v16H80v-16H64V168h16v-16h96v-16H80v-16H32v48h16v240H32v48h48v-16h96v16h48v-16h96v16h48v-48h-16V168
				H368z M48,136h16v16H48V136z M64,440H48v-16h16V440z M232,344h-64v-16h64V344z M136,248c0-35.288,28.712-64,64-64
				c35.288,0,64,28.712,64,64c0,21.392-10.64,41.288-28.448,53.208L232,303.592V312h-24v-33.136c13.76-3.576,24-16,24-30.864
				c0-17.648-14.352-32-32-32s-32,14.352-32,32c0,14.864,10.24,27.288,24,30.864V312h-24v-8.408l-3.552-2.384
				C146.64,289.288,136,269.392,136,248z M200,264c-8.824,0-16-7.176-16-16c0-8.824,7.176-16,16-16c8.824,0,16,7.176,16,16
				C216,256.824,208.824,264,200,264z M168,376v-16h64v16H168z M208,440h-16v-16h16V440z M352,440h-16v-16h16V440z M336,152v-16h16
				v16H336z"/>
			<path d="M188,136h4v16h16v-16h4c15.44,0,28-12.56,28-28s-12.56-28-28-28h-24c-6.616,0-12-5.384-12-12c0-6.616,5.384-12,12-12h24
				c6.616,0,12,5.384,12,12v4h16v-4c0-15.44-12.56-28-28-28h-4V24h-16v16h-4c-15.44,0-28,12.56-28,28s12.56,28,28,28h24
				c6.616,0,12,5.384,12,12c0,6.616-5.384,12-12,12h-24c-6.616,0-12-5.384-12-12v-4h-16v4C160,123.44,172.56,136,188,136z"/>
		</g>
	</g>
</g>
<g>
</g>
<g>
</g>
<g>
</g>
<g>
</g>
<g>
</g>
<g>
</g>
<g>
</g>
<g>
</g>
<g>
</g>
<g>
</g>
<g>
</g>
<g>
</g>
<g>
</g>
<g>
</g>
<g>
</g>
</svg>
