<?xml version="1.0" encoding="iso-8859-1"?>
<!-- Generator: Adobe Illustrator 19.0.0, SVG Export Plug-In . SVG Version: 6.00 Build 0)  -->
<svg version="1.1" id="Layer_1" xmlns="http://www.w3.org/2000/svg" xmlns:xlink="http://www.w3.org/1999/xlink" x="0px" y="0px"
	 viewBox="0 0 496 496" style="enable-background:new 0 0 496 496;" xml:space="preserve">
<g>
	<g>
		<g>
			<path d="M464,304h-64v-64H272v-48h64c17.648,0,32-14.352,32-32V64h48V32c0-17.648-14.352-32-32-32H272c-17.648,0-32,14.352-32,32
				v96h-48v32c0,17.648,14.352,32,32,32h32v48H112v64H80c-17.648,0-32,14.352-32,32v96H0v32c0,17.648,14.352,32,32,32h112
				c17.648,0,32-14.352,32-32v-96h48v-32c0-17.648-14.352-32-32-32h-64v-48h256v48h-32c-17.648,0-32,14.352-32,32v96h-48v32
				c0,17.648,14.352,32,32,32h112c17.648,0,32-14.352,32-32v-96h48v-32C496,318.352,481.648,304,464,304z M368,32
				c0-8.824,7.176-16,16-16c8.824,0,16,7.176,16,16v16h-32V32z M176,336c0-8.824,7.176-16,16-16c8.824,0,16,7.176,16,16v16h-32V336z
				 M32,480c-8.824,0-16-7.176-16-16v-16h96v16c0,5.824,1.56,11.288,4.296,16H32z M164.448,320c-2.752,4.728-4.448,10.144-4.448,16
				v128c0,8.824-7.176,16-16,16c-8.824,0-16-7.176-16-16v-32H64v-96c0-8.824,7.176-16,16-16H164.448z M256,32
				c0-8.824,7.176-16,16-16h84.448C353.696,20.728,352,26.144,352,32v128c0,8.824-7.176,16-16,16c-8.824,0-16-7.176-16-16v-32h-64
				V32z M224,176c-8.824,0-16-7.176-16-16v-16h96v16c0,5.824,1.56,11.288,4.296,16H224z M304,480c-8.824,0-16-7.176-16-16v-16h96v16
				c0,5.824,1.56,11.288,4.296,16H304z M432,336v128c0,8.824-7.176,16-16,16c-8.824,0-16-7.176-16-16v-32h-64v-96
				c0-8.824,7.176-16,16-16h84.448C433.696,324.728,432,330.144,432,336z M480,352h-32v-16c0-8.824,7.176-16,16-16
				c8.824,0,16,7.176,16,16V352z"/>
			<rect x="352" y="336" width="64" height="16"/>
			<rect x="352" y="368" width="64" height="16"/>
			<rect x="352" y="400" width="32" height="16"/>
			<rect x="400" y="400" width="16" height="16"/>
			<rect x="80" y="336" width="64" height="16"/>
			<rect x="80" y="368" width="64" height="16"/>
			<rect x="80" y="400" width="32" height="16"/>
			<rect x="128" y="400" width="16" height="16"/>
			<rect x="272" y="32" width="64" height="16"/>
			<rect x="272" y="64" width="64" height="16"/>
			<rect x="272" y="96" width="32" height="16"/>
			<rect x="320" y="96" width="16" height="16"/>
		</g>
	</g>
</g>
<g>
</g>
<g>
</g>
<g>
</g>
<g>
</g>
<g>
</g>
<g>
</g>
<g>
</g>
<g>
</g>
<g>
</g>
<g>
</g>
<g>
</g>
<g>
</g>
<g>
</g>
<g>
</g>
<g>
</g>
</svg>
