<?xml version="1.0" encoding="iso-8859-1"?>
<!-- Generator: Adobe Illustrator 19.0.0, SVG Export Plug-In . SVG Version: 6.00 Build 0)  -->
<svg version="1.1" id="Layer_1" xmlns="http://www.w3.org/2000/svg" xmlns:xlink="http://www.w3.org/1999/xlink" x="0px" y="0px"
	 viewBox="0 0 496 496" style="enable-background:new 0 0 496 496;" xml:space="preserve">
<g>
	<g>
		<g>
			<path d="M0,0v64h16v336h224v49.472c-9.288,3.312-16,12.112-16,22.528c0,13.232,10.768,24,24,24s24-10.768,24-24
				c0-10.416-6.712-19.216-16-22.528V400h224V64h16V0H0z M248,480c-4.416,0-8-3.584-8-8c0-4.416,3.584-8,8-8s8,3.584,8,8
				C256,476.416,252.416,480,248,480z M464,384H32V64h432V384z M480,48H16V16h464V48z"/>
			<path d="M248,368c79.4,0,144-64.6,144-144S327.4,80,248,80s-144,64.6-144,144S168.6,368,248,368z M256,96.408
				C320.184,100.4,371.6,151.816,375.592,216H256V96.408z M240,96.408V232h135.592C371.432,298.848,315.88,352,248,352
				c-70.576,0-128-57.424-128-128C120,156.12,173.152,100.568,240,96.408z"/>
			<rect x="432" y="96" width="16" height="16"/>
			<rect x="400" y="96" width="16" height="16"/>
			<rect x="368" y="96" width="16" height="16"/>
		</g>
	</g>
</g>
<g>
</g>
<g>
</g>
<g>
</g>
<g>
</g>
<g>
</g>
<g>
</g>
<g>
</g>
<g>
</g>
<g>
</g>
<g>
</g>
<g>
</g>
<g>
</g>
<g>
</g>
<g>
</g>
<g>
</g>
</svg>
