<?xml version="1.0" encoding="iso-8859-1"?>
<!-- Generator: Adobe Illustrator 19.0.0, SVG Export Plug-In . SVG Version: 6.00 Build 0)  -->
<svg version="1.1" id="Layer_1" xmlns="http://www.w3.org/2000/svg" xmlns:xlink="http://www.w3.org/1999/xlink" x="0px" y="0px"
	 viewBox="0 0 496 496" style="enable-background:new 0 0 496 496;" xml:space="preserve">
<g>
	<g>
		<g>
			<path d="M328,136c0-44.112-35.888-80-80-80s-80,35.888-80,80s35.888,80,80,80S328,180.112,328,136z M184,136
				c0-35.288,28.712-64,64-64c35.288,0,64,28.712,64,64c0,35.288-28.712,64-64,64C212.712,200,184,171.288,184,136z"/>
			<rect x="240" y="232" width="16" height="16"/>
			<rect x="240" y="264" width="16" height="16"/>
			<rect x="240" y="296" width="16" height="16"/>
			<path d="M456,395.568v-32.28c23.424-9.52,40-32.488,40-59.288c0-17.56-7.08-34.008-19.616-46.048
				c2.4-5.768,3.616-11.784,3.616-17.952c0-26.472-21.528-48-48-48s-48,21.528-48,48c0,6.168,1.216,12.184,3.616,17.952
				C375.08,269.992,368,286.44,368,304c0,26.8,16.576,49.768,40,59.288v18.904c-29.528-6.328-70.592-12.912-122.216-13.96
				l78.976-153.024C377.344,190.832,384,163.44,384,136C384,61.008,322.992,0,248,0S112,61.008,112,136
				c0,27.44,6.656,54.832,19.232,79.208l78.976,153.024c-51.616,1.048-92.68,7.624-122.208,13.96v-18.904
				c23.424-9.52,40-32.488,40-59.288c0-17.56-7.08-34.008-19.616-46.048c2.4-5.768,3.616-11.784,3.616-17.952
				c0-26.472-21.528-48-48-48s-48,21.528-48,48c0,6.168,1.216,12.184,3.616,17.952C7.08,269.992,0,286.44,0,304
				c0,26.8,16.576,49.768,40,59.288v32.28C13.568,405.752,0,417.976,0,432c0,42.016,124.76,64,248,64s248-21.984,248-64
				C496,417.976,482.432,405.752,456,395.568z M384,304c0-14.816,6.728-28.576,18.448-37.768l5.48-4.288l-3.488-6.016
				c-2.944-5.08-4.44-10.44-4.44-15.928c0-17.648,14.352-32,32-32s32,14.352,32,32c0,5.488-1.496,10.848-4.44,15.928l-3.488,6.016
				l5.48,4.288C473.272,275.424,480,289.184,480,304c0,26.472-21.528,48-48,48S384,330.472,384,304z M145.456,207.872
				C134.032,185.752,128,160.896,128,136c0-66.168,53.832-120,120-120s120,53.832,120,120c0,24.896-6.032,49.752-17.456,71.872
				L248,406.56L145.456,207.872z M16,304c0-14.816,6.728-28.576,18.448-37.768l5.48-4.288l-3.488-6.016
				C33.496,250.848,32,245.488,32,240c0-17.648,14.352-32,32-32s32,14.352,32,32c0,5.488-1.496,10.848-4.44,15.928l-3.488,6.016
				l5.48,4.288C105.272,275.424,112,289.184,112,304c0,26.472-21.528,48-48,48S16,330.472,16,304z M248,480
				c-143.736,0-232-27.96-232-48c0-4.576,6.616-11.704,24-19.216V432h16v-64.552c2.624,0.328,5.288,0.552,8,0.552
				s5.376-0.224,8-0.552V432h16v-33.48c30.328-6.688,73.072-13.968,130.4-14.432L248,441.44l29.6-57.352
				c57.328,0.464,100.072,7.744,130.4,14.432V432h16v-64.552c2.624,0.328,5.288,0.552,8,0.552c2.712,0,5.376-0.224,8-0.552V432h16
				v-19.216c17.384,7.504,24,14.632,24,19.216C480,452.04,391.736,480,248,480z"/>
		</g>
	</g>
</g>
<g>
</g>
<g>
</g>
<g>
</g>
<g>
</g>
<g>
</g>
<g>
</g>
<g>
</g>
<g>
</g>
<g>
</g>
<g>
</g>
<g>
</g>
<g>
</g>
<g>
</g>
<g>
</g>
<g>
</g>
</svg>
