<?xml version="1.0" encoding="iso-8859-1"?>
<!-- Generator: Adobe Illustrator 19.0.0, SVG Export Plug-In . SVG Version: 6.00 Build 0)  -->
<svg version="1.1" id="Layer_1" xmlns="http://www.w3.org/2000/svg" xmlns:xlink="http://www.w3.org/1999/xlink" x="0px" y="0px"
	 viewBox="0 0 496 496" style="enable-background:new 0 0 496 496;" xml:space="preserve">
<g>
	<g>
		<path d="M384,128C384,57.424,326.576,0,256,0S128,57.424,128,128c0,61.432,44.264,114.104,104,125.488v13.216
			c-3.64-1.736-7.712-2.704-12-2.704c-7.832,0-14.912,3.224-20,8.424c-5.088-5.2-12.168-8.424-20-8.424
			c-12.44,0-23.008,8.152-26.648,19.392c-3.968-2.16-8.52-3.392-13.352-3.392c-15.44,0-28,12.56-28,28v84.112
			c0,6.256,1.176,12.384,3.504,18.184l10.144,25.344c1.552,3.912,2.352,8.032,2.352,12.248V496h16v-48.112
			c0-6.256-1.176-12.384-3.504-18.184l-10.144-25.344c-1.552-3.912-2.352-8.032-2.352-12.248V308c0-6.616,5.384-12,12-12
			c6.616,0,12,5.384,12,12v4h16v-20c0-6.616,5.384-12,12-12c6.616,0,12,5.384,12,12v20h16v-20c0-6.616,5.384-12,12-12
			c6.616,0,12,5.384,12,12v20h16V156c0-6.616,5.384-12,12-12c6.616,0,12,5.384,12,12v188h16v-48h5.576
			c5.232,0,10.304,1.528,14.656,4.44C315.6,305.344,320,313.56,320,322.424v76.608c0,8.68-3.52,17.168-9.656,23.312
			C301.096,431.592,296,443.888,296,456.968V496h16v-39.032c0-8.68,3.52-17.168,9.656-23.312
			c9.248-9.248,14.344-21.544,14.344-34.624v-76.608c0-14.216-7.064-27.416-18.888-35.296c-6.984-4.664-15.128-7.128-23.536-7.128
			H288v-28.16C343.976,237.392,384,186.4,384,128z M232,237.232C181.24,226.128,144,180.72,144,128c0-61.76,50.24-112,112-112
			s112,50.24,112,112c0,49.728-33.104,93.392-80,107.352v-72.888L353.104,128L192,42.712v170.576l40-21.184V237.232z
			 M285.904,145.472C281.736,135.24,271.712,128,260,128c-15.44,0-28,12.56-28,28v18.008l-24,12.704V69.288L318.896,128
			L285.904,145.472z"/>
	</g>
</g>
<g>
</g>
<g>
</g>
<g>
</g>
<g>
</g>
<g>
</g>
<g>
</g>
<g>
</g>
<g>
</g>
<g>
</g>
<g>
</g>
<g>
</g>
<g>
</g>
<g>
</g>
<g>
</g>
<g>
</g>
</svg>
