<?xml version="1.0" encoding="iso-8859-1"?>
<!-- Generator: Adobe Illustrator 19.0.0, SVG Export Plug-In . SVG Version: 6.00 Build 0)  -->
<svg version="1.1" id="Layer_1" xmlns="http://www.w3.org/2000/svg" xmlns:xlink="http://www.w3.org/1999/xlink" x="0px" y="0px"
	 viewBox="0 0 496 496" style="enable-background:new 0 0 496 496;" xml:space="preserve">
<g>
	<g>
		<g>
			<path d="M456,0H40C17.944,0,0,17.944,0,40v224c0,22.056,17.944,40,40,40h44.176C76.496,315.448,72,329.208,72,344
				c0,39.704,32.304,72,72,72s72-32.296,72-72c0-14.792-4.496-28.552-12.176-40H456c22.056,0,40-17.944,40-40V40
				C496,17.944,478.056,0,456,0z M48,288h-8c-13.232,0-24-10.768-24-24V40c0-13.232,10.768-24,24-24h8V288z M144,400
				c-30.88,0-56-25.128-56-56s25.12-56,56-56s56,25.128,56,56S174.88,400,144,400z M416,288H189.152
				c-12.36-9.984-28.056-16-45.152-16s-32.792,6.016-45.152,16H64V16h352V288z M480,264c0,13.232-10.768,24-24,24h-24V16h24
				c13.232,0,24,10.768,24,24V264z"/>
			<rect x="448" y="112" width="16" height="80"/>
			<path d="M344,352c-39.696,0-72,32.296-72,72c0,39.704,32.304,72,72,72s72-32.296,72-72C416,384.296,383.696,352,344,352z
				 M344,480c-30.88,0-56-25.128-56-56s25.12-56,56-56s56,25.128,56,56S374.88,480,344,480z"/>
			<polygon points="371.2,385.6 344,406 316.8,385.6 307.2,398.4 330.664,416 312,416 312,432 336,432 336,440 312,440 312,456 
				336,456 336,464 352,464 352,456 376,456 376,440 352,440 352,432 376,432 376,416 357.336,416 380.8,398.4 			"/>
			<path d="M128.808,336H112v16h16c0,8.824-7.176,16-16,16v16h56v-16h-28.296c2.736-4.712,4.296-10.176,4.296-16h16v-16h-14.528
				c3.312-9.288,12.112-16,22.528-16v-16C148.688,304,132.528,317.768,128.808,336z"/>
			<path d="M168,184c0,39.704,32.304,72,72,72s72-32.296,72-72c0-11.304-2.624-22.136-7.56-32H376v-16H104v16h71.56
				C170.624,161.864,168,172.696,168,184z M194.304,152H228c-11.024,0-20,8.968-20,20s8.976,20,20,20h24c2.208,0,4,1.8,4,4
				s-1.792,4-4,4h-24c-2.208,0-4-1.8-4-4v-4h-16v4c0,11.032,8.976,20,20,20h4v16h16v-16h4c11.024,0,20-8.968,20-20s-8.976-20-20-20
				h-24c-2.208,0-4-1.8-4-4s1.792-4,4-4h24c2.208,0,4,1.8,4,4v4h16v-4c0-11.032-8.976-20-20-20h33.696
				c6.64,9.44,10.304,20.376,10.304,32c0,30.872-25.12,56-56,56s-56-25.128-56-56C184,172.376,187.664,161.44,194.304,152z"/>
			<rect x="104" y="104" width="16" height="16"/>
			<rect x="136" y="104" width="16" height="16"/>
			<rect x="168" y="104" width="16" height="16"/>
			<rect x="200" y="104" width="16" height="16"/>
			<rect x="232" y="104" width="16" height="16"/>
			<rect x="264" y="104" width="16" height="16"/>
			<rect x="296" y="104" width="16" height="16"/>
			<rect x="328" y="104" width="16" height="16"/>
			<rect x="360" y="104" width="16" height="16"/>
		</g>
	</g>
</g>
<g>
</g>
<g>
</g>
<g>
</g>
<g>
</g>
<g>
</g>
<g>
</g>
<g>
</g>
<g>
</g>
<g>
</g>
<g>
</g>
<g>
</g>
<g>
</g>
<g>
</g>
<g>
</g>
<g>
</g>
</svg>
