<?xml version="1.0" encoding="iso-8859-1"?>
<!-- Generator: Adobe Illustrator 19.0.0, SVG Export Plug-In . SVG Version: 6.00 Build 0)  -->
<svg version="1.1" id="Layer_1" xmlns="http://www.w3.org/2000/svg" xmlns:xlink="http://www.w3.org/1999/xlink" x="0px" y="0px"
	 viewBox="0 0 496 496" style="enable-background:new 0 0 496 496;" xml:space="preserve">
<g>
	<g>
		<g>
			<path d="M247.985,120c14.872,0,27.288-10.24,30.864-24h33.136v-8c0-30.88-25.128-56-56-56V0h-16v32c-30.872,0-56,25.12-56,56v8
				h33.136C220.697,109.76,233.113,120,247.985,120z M247.985,104c-5.896,0-11-3.24-13.776-8h27.552
				C258.985,100.76,253.881,104,247.985,104z M239.985,48h16c19.32,0,35.48,13.768,39.192,32h-94.384
				C204.505,61.768,220.665,48,239.985,48z"/>
			
				<rect x="-41.749" y="300.004" transform="matrix(0.3162 -0.9487 0.9487 0.3162 -191.0136 350.9914)" width="379.443" height="15.992"/>
			
				<rect x="339.975" y="118.308" transform="matrix(0.9486 -0.3165 0.3165 0.9486 -79.6024 125.9666)" width="15.992" height="379.443"/>
			<path d="M247.985,304c-52.936,0-96,43.064-96,96c0,52.936,43.064,96,96,96c52.936,0,96-43.064,96-96
				C343.985,347.064,300.921,304,247.985,304z M247.985,480c-44.112,0-80-35.888-80-80s35.888-80,80-80s80,35.888,80,80
				S292.097,480,247.985,480z"/>
			<path d="M259.985,352h-4v-16h-16v16h-4c-15.44,0-28,12.56-28,28s12.56,28,28,28h24c6.616,0,12,5.384,12,12
				c0,6.616-5.384,12-12,12h-24c-6.616,0-12-5.384-12-12v-4h-16v4c0,15.44,12.56,28,28,28h4v16h16v-16h4c15.44,0,28-12.56,28-28
				s-12.56-28-28-28h-24c-6.616,0-12-5.384-12-12c0-6.616,5.384-12,12-12h24c6.616,0,12,5.384,12,12v4h16v-4
				C287.985,364.56,275.425,352,259.985,352z"/>
			<rect x="239.985" y="272" width="16" height="16"/>
			<rect x="239.985" y="240" width="16" height="16"/>
			<rect x="239.985" y="208" width="16" height="16"/>
		</g>
	</g>
</g>
<g>
</g>
<g>
</g>
<g>
</g>
<g>
</g>
<g>
</g>
<g>
</g>
<g>
</g>
<g>
</g>
<g>
</g>
<g>
</g>
<g>
</g>
<g>
</g>
<g>
</g>
<g>
</g>
<g>
</g>
</svg>
