<?xml version="1.0" encoding="iso-8859-1"?>
<!-- Generator: Adobe Illustrator 19.0.0, SVG Export Plug-In . SVG Version: 6.00 Build 0)  -->
<svg version="1.1" id="Layer_1" xmlns="http://www.w3.org/2000/svg" xmlns:xlink="http://www.w3.org/1999/xlink" x="0px" y="0px"
	 viewBox="0 0 496 496" style="enable-background:new 0 0 496 496;" xml:space="preserve">
<g>
	<g>
		<g>
			<path d="M144,256c0-39.704-32.296-72-72-72S0,216.296,0,256s32.296,72,72,72S144,295.704,144,256z M72,312
				c-30.872,0-56-25.128-56-56s25.128-56,56-56s56,25.128,56,56S102.872,312,72,312z"/>
			<path d="M424,224c-39.704,0-72,32.296-72,72c0,39.704,32.296,72,72,72c39.704,0,72-32.296,72-72C496,256.296,463.704,224,424,224
				z M424,352c-30.872,0-56-25.128-56-56s25.128-56,56-56s56,25.128,56,56S454.872,352,424,352z"/>
			<path d="M84,224h-4v-16H64v16h-4c-11.032,0-20,8.968-20,20s8.968,20,20,20h24c2.2,0,4,1.8,4,4s-1.8,4-4,4H60c-2.2,0-4-1.8-4-4v-4
				H40v4c0,11.032,8.968,20,20,20h4v16h16v-16h4c11.032,0,20-8.968,20-20c0-11.032-8.968-20-20-20H60c-2.2,0-4-1.8-4-4s1.8-4,4-4h24
				c2.2,0,4,1.8,4,4v4h16v-4C104,232.968,95.032,224,84,224z"/>
			<path d="M184,352c-39.704,0-72,32.296-72,72c0,39.704,32.296,72,72,72s72-32.296,72-72C256,384.296,223.704,352,184,352z
				 M184,480c-30.872,0-56-25.128-56-56s25.128-56,56-56s56,25.128,56,56S214.872,480,184,480z"/>
			<polygon points="211.2,385.6 184,406 156.8,385.6 147.2,398.4 170.672,416 152,416 152,432 176,432 176,440 152,440 152,456 
				176,456 176,464 192,464 192,456 216,456 216,440 192,440 192,432 216,432 216,416 197.328,416 220.8,398.4 			"/>
			<path d="M408.808,288H392v16h16c0,8.824-7.176,16-16,16v16h56v-16h-28.296c2.736-4.712,4.296-10.176,4.296-16h16v-16h-14.528
				c3.312-9.288,12.112-16,22.528-16v-16C428.688,256,412.528,269.768,408.808,288z"/>
			<path d="M288,89.136V0h-16v89.136c-13.768,3.576-24,15.992-24,30.864s10.232,27.288,24,30.864V276c0,15.44-12.56,28-28,28
				s-28-12.56-28-28v-20l19.2,14.4l9.592-12.8L200,224v52c0,24.256,19.744,44,44,44s44-19.744,44-44V150.864
				c13.768-3.576,24-15.992,24-30.864S301.768,92.712,288,89.136z M280,136c-8.824,0-16-7.176-16-16c0-8.824,7.176-16,16-16
				c8.824,0,16,7.176,16,16S288.824,136,280,136z"/>
		</g>
	</g>
</g>
<g>
</g>
<g>
</g>
<g>
</g>
<g>
</g>
<g>
</g>
<g>
</g>
<g>
</g>
<g>
</g>
<g>
</g>
<g>
</g>
<g>
</g>
<g>
</g>
<g>
</g>
<g>
</g>
<g>
</g>
</svg>
