<?xml version="1.0" encoding="iso-8859-1"?>
<!-- Generator: Adobe Illustrator 19.0.0, SVG Export Plug-In . SVG Version: 6.00 Build 0)  -->
<svg version="1.1" id="Layer_1" xmlns="http://www.w3.org/2000/svg" xmlns:xlink="http://www.w3.org/1999/xlink" x="0px" y="0px"
	 viewBox="0 0 496 496" style="enable-background:new 0 0 496 496;" xml:space="preserve">
<g>
	<g>
		<g>
			<path d="M128,224c57.344,0,104-46.656,104-104V0h-64v120c0,22.056-17.944,40-40,40c-22.056,0-40-17.944-40-40V0H24v120
				C24,177.344,70.656,224,128,224z M40,16h32v104c0,30.88,25.12,56,56,56s56-25.12,56-56V16h32v104c0,48.52-39.48,88-88,88
				s-88-39.48-88-88V16z"/>
			<path d="M312,160h80c44.112,0,80-35.888,80-80S436.112,0,392,0H248v224h64V160z M296,208h-32V16h128c35.288,0,64,28.712,64,64
				s-28.712,64-64,64h-96V208z"/>
			<path d="M424,80c0-17.648-14.352-32-32-32h-96v64h96C409.648,112,424,97.648,424,80z M312,64h80c8.824,0,16,7.176,16,16
				s-7.176,16-16,16h-80V64z"/>
			<polygon points="112,237.368 26.704,312 72,312 72,496 88,496 88,296 69.296,296 112,258.632 154.704,296 136,296 136,480 
				152,480 152,312 197.296,312 			"/>
			<rect x="104" y="312" width="16" height="152"/>
			<rect x="104" y="480" width="16" height="16"/>
			<polygon points="408,173.368 322.704,248 368,248 368,432 384,432 384,232 365.296,232 408,194.632 450.704,232 432,232 432,496 
				448,496 448,248 493.296,248 			"/>
			<rect x="400" y="328" width="16" height="120"/>
			<rect x="400" y="464" width="16" height="16"/>
			<rect x="368" y="448" width="16" height="16"/>
			<polygon points="178.704,360 224,360 224,480 240,480 240,344 221.296,344 264,306.632 306.704,344 288,344 288,480 304,480 
				304,360 349.296,360 264,285.368 			"/>
			<rect x="256" y="360" width="16" height="104"/>
			<rect x="256" y="480" width="16" height="16"/>
			<rect x="480" y="264" width="16" height="200"/>
			<rect x="480" y="480" width="16" height="16"/>
			<rect y="328" width="16" height="120"/>
			<rect y="464" width="16" height="16"/>
		</g>
	</g>
</g>
<g>
</g>
<g>
</g>
<g>
</g>
<g>
</g>
<g>
</g>
<g>
</g>
<g>
</g>
<g>
</g>
<g>
</g>
<g>
</g>
<g>
</g>
<g>
</g>
<g>
</g>
<g>
</g>
<g>
</g>
</svg>
