<?xml version="1.0" encoding="iso-8859-1"?>
<!-- Generator: Adobe Illustrator 19.0.0, SVG Export Plug-In . SVG Version: 6.00 Build 0)  -->
<svg version="1.1" id="Layer_1" xmlns="http://www.w3.org/2000/svg" xmlns:xlink="http://www.w3.org/1999/xlink" x="0px" y="0px"
	 viewBox="0 0 496 496" style="enable-background:new 0 0 496 496;" xml:space="preserve">
<g>
	<g>
		<g>
			<path d="M456,64h-24V0h-80v64H40C17.944,64,0,81.944,0,104v288c0,22.056,17.944,40,40,40h80v48H88v16h320v-16h-32v-48h80
				c22.056,0,40-17.944,40-40V104C496,81.944,478.056,64,456,64z M368,16h48v320h-48V16z M360,480H136v-48h224V480z M480,392
				c0,13.232-10.768,24-24,24H40c-13.232,0-24-10.768-24-24v-8h464V392z M480,368H16V104c0-13.232,10.768-24,24-24h312v256h-16V128
				h-80v208h-16V96h-80v240h-16V208H64v128H32v16h432v-16h-32V80h24c13.232,0,24,10.768,24,24V368z M320,144v192h-48V144H320z
				 M224,112v224h-48V112H224z M128,224v112H80V224H128z"/>
			<rect x="384" y="304" width="16" height="16"/>
			<rect x="384" y="272" width="16" height="16"/>
			<rect x="384" y="240" width="16" height="16"/>
			<rect x="288" y="304" width="16" height="16"/>
			<rect x="288" y="272" width="16" height="16"/>
			<rect x="288" y="240" width="16" height="16"/>
			<rect x="192" y="304" width="16" height="16"/>
			<rect x="192" y="272" width="16" height="16"/>
			<rect x="192" y="240" width="16" height="16"/>
			<rect x="96" y="304" width="16" height="16"/>
			<rect x="96" y="272" width="16" height="16"/>
			<rect x="192" y="208" width="16" height="16"/>
			<rect x="384" y="208" width="16" height="16"/>
			<rect x="384" y="176" width="16" height="16"/>
			<rect x="384" y="144" width="16" height="16"/>
			<rect x="384" y="112" width="16" height="16"/>
		</g>
	</g>
</g>
<g>
</g>
<g>
</g>
<g>
</g>
<g>
</g>
<g>
</g>
<g>
</g>
<g>
</g>
<g>
</g>
<g>
</g>
<g>
</g>
<g>
</g>
<g>
</g>
<g>
</g>
<g>
</g>
<g>
</g>
</svg>
