<?xml version="1.0" encoding="iso-8859-1"?>
<!-- Generator: Adobe Illustrator 19.0.0, SVG Export Plug-In . SVG Version: 6.00 Build 0)  -->
<svg version="1.1" id="Layer_1" xmlns="http://www.w3.org/2000/svg" xmlns:xlink="http://www.w3.org/1999/xlink" x="0px" y="0px"
	 viewBox="0 0 496 496" style="enable-background:new 0 0 496 496;" xml:space="preserve">
<g>
	<g>
		<g>
			<path d="M120,312c-35.288,0-64,28.712-64,64c0,35.288,28.712,64,64,64s64-28.712,64-64C184,340.712,155.288,312,120,312z
				 M120,424c-26.472,0-48-21.528-48-48s21.528-48,48-48s48,21.528,48,48S146.472,424,120,424z"/>
			<path d="M496,152V88h-21.144c-1.696-5.264-3.816-10.376-6.32-15.28l14.944-14.944l-45.256-45.248L423.28,27.472
				c-4.904-2.52-10.016-4.632-15.28-6.328V0h-64v21.144c-5.264,1.704-10.376,3.816-15.28,6.328l-14.944-14.944l-19.52,19.52
				c-144.184,0.944-261.264,118.024-262.208,262.2l-19.528,19.52l14.944,14.944c-2.504,4.912-4.624,10.024-6.32,15.288H0v64h21.144
				c1.696,5.264,3.816,10.376,6.32,15.28L12.52,438.224l45.256,45.248l14.944-14.944c4.904,2.512,10.016,4.624,15.28,6.328V496h64
				v-21.144c5.264-1.704,10.376-3.816,15.28-6.328l14.944,14.944l19.52-19.52c144.176-0.944,261.264-118.024,262.208-262.208
				l19.528-19.52l-14.944-14.944c2.504-4.904,4.624-10.016,6.32-15.28H496z M277.536,48.76l-9.016,9.016l14.944,14.944
				c-2.504,4.904-4.624,10.016-6.32,15.28H256v24.408C178.584,116.456,116.464,178.576,112.408,256H88v21.144
				c-5.264,1.704-10.376,3.816-15.28,6.328l-14.944-14.944l-9.016,9.016C57.792,155.488,155.488,57.792,277.536,48.76z
				 M285.488,199.2l-86.296,86.288l-16.968-16.968l-14.944,14.944c-4.904-2.512-10.016-4.624-15.28-6.328V256h-23.592
				c4.008-68.6,58.984-123.576,127.592-127.592V152h21.144c1.696,5.264,3.816,10.376,6.32,15.28l-14.944,14.944L285.488,199.2z
				 M367.592,240C363.584,308.6,308.616,363.576,240,367.592V344h-21.144c-1.696-5.264-3.816-10.376-6.32-15.28l14.944-14.944
				L210.512,296.8l86.296-86.296l16.968,16.968l14.944-14.944c4.904,2.512,10.016,4.624,15.28,6.328V240H367.592z M205.112,398
				c-2.056,7.976-5.208,15.584-9.36,22.616l-3.16,5.344l12.264,12.264l-22.632,22.624l-12.264-12.256l-5.336,3.152
				c-7.04,4.16-14.648,7.304-22.624,9.36l-6,1.552V480h-32v-17.344l-6-1.552c-7.976-2.056-15.584-5.2-22.624-9.36l-5.336-3.152
				l-12.264,12.256l-22.632-22.624l12.264-12.264l-3.16-5.344c-4.152-7.032-7.304-14.64-9.36-22.616l-1.544-6H16v-32h17.344l1.544-6
				c2.056-7.976,5.208-15.584,9.36-22.616l3.16-5.344l-12.264-12.264l22.632-22.624l12.264,12.256l5.336-3.152
				c7.04-4.16,14.648-7.304,22.624-9.36l6-1.552V272h32v17.344l6,1.552c7.976,2.056,15.584,5.2,22.624,9.36l5.336,3.152
				l12.264-12.256l22.632,22.624l-12.264,12.264l3.16,5.344c4.152,7.032,7.304,14.64,9.36,22.616l1.544,6H224v32h-17.344
				L205.112,398z M218.464,447.24l9.016-9.016l-14.944-14.944c2.504-4.904,4.624-10.016,6.32-15.28H240v-24.408
				c77.416-4.048,139.536-66.168,143.592-143.592H408v-21.144c5.264-1.704,10.376-3.816,15.28-6.328l14.944,14.944l9.016-9.016
				C438.208,340.512,340.512,438.208,218.464,447.24z M462.656,136l-1.544,6c-2.056,7.976-5.208,15.584-9.36,22.616l-3.16,5.344
				l12.264,12.264l-22.632,22.624l-12.264-12.256l-5.336,3.152c-7.04,4.16-14.648,7.304-22.624,9.36l-6,1.552V224h-32v-17.344
				l-6-1.552c-7.976-2.056-15.584-5.2-22.624-9.36l-5.336-3.152l-12.264,12.256l-22.632-22.624l12.264-12.264l-3.16-5.344
				c-4.152-7.032-7.304-14.64-9.36-22.616l-1.544-6H272v-32h17.344l1.544-6c2.056-7.976,5.208-15.584,9.36-22.616l3.16-5.344
				l-12.264-12.264l22.632-22.624l12.264,12.256l5.336-3.152c7.04-4.16,14.648-7.304,22.624-9.36l6-1.552V16h32v17.344l6,1.552
				c7.976,2.056,15.584,5.2,22.624,9.36l5.336,3.152l12.264-12.256l22.632,22.624L448.592,70.04l3.16,5.344
				c4.152,7.032,7.304,14.64,9.36,22.616l1.544,6H480v32H462.656z"/>
			<path d="M376,56c-35.288,0-64,28.712-64,64c0,35.288,28.712,64,64,64c35.288,0,64-28.712,64-64C440,84.712,411.288,56,376,56z
				 M376,168c-26.472,0-48-21.528-48-48s21.528-48,48-48s48,21.528,48,48S402.472,168,376,168z"/>
			<rect x="240" y="284.685" transform="matrix(-0.7071 -0.7071 0.7071 -0.7071 214.0612 680.6606)" width="16" height="22.624"/>
			
				<rect x="287.992" y="236.667" transform="matrix(-0.7071 -0.7071 0.7071 -0.7071 329.9421 632.625)" width="16" height="22.624"/>
			
				<rect x="263.992" y="260.688" transform="matrix(-0.7071 -0.7071 0.7071 -0.7071 271.9863 656.6604)" width="16" height="22.624"/>
			
				<rect x="192.014" y="236.685" transform="matrix(-0.7071 -0.7071 0.7071 -0.7071 166.0858 564.7885)" width="16" height="22.624"/>
			
				<rect x="240.014" y="188.667" transform="matrix(-0.7071 -0.7071 0.7071 -0.7071 281.9804 516.7585)" width="16" height="22.624"/>
			
				<rect x="216.014" y="212.688" transform="matrix(-0.7071 -0.7071 0.7071 -0.7071 224.0246 540.794)" width="16" height="22.624"/>
		</g>
	</g>
</g>
<g>
</g>
<g>
</g>
<g>
</g>
<g>
</g>
<g>
</g>
<g>
</g>
<g>
</g>
<g>
</g>
<g>
</g>
<g>
</g>
<g>
</g>
<g>
</g>
<g>
</g>
<g>
</g>
<g>
</g>
</svg>
