<?xml version="1.0" encoding="iso-8859-1"?>
<!-- Generator: Adobe Illustrator 19.0.0, SVG Export Plug-In . SVG Version: 6.00 Build 0)  -->
<svg version="1.1" id="Layer_1" xmlns="http://www.w3.org/2000/svg" xmlns:xlink="http://www.w3.org/1999/xlink" x="0px" y="0px"
	 viewBox="0 0 496 496" style="enable-background:new 0 0 496 496;" xml:space="preserve">
<g>
	<g>
		<g>
			<path d="M155.464,175.28l-20.6,20.6l45.256,45.256l20.6-20.6c4.912,2.504,10.016,4.624,15.28,6.32V256h64v-29.144
				c5.264-1.696,10.368-3.816,15.28-6.32l20.6,20.6l45.256-45.256l-20.6-20.6c2.504-4.912,4.624-10.016,6.32-15.28H376V96h-29.144
				c-1.696-5.264-3.816-10.368-6.32-15.28l20.6-20.6L315.88,14.864l-20.6,20.6c-4.912-2.504-10.016-4.624-15.28-6.32V0h-64v29.144
				c-5.264,1.696-10.368,3.816-15.28,6.32l-20.6-20.6L134.864,60.12l20.6,20.6c-2.504,4.912-4.624,10.016-6.32,15.28H120v64h29.144
				C150.84,165.264,152.96,170.368,155.464,175.28z M136,112h25.344l1.544-6c2.056-7.976,5.208-15.584,9.36-22.624l3.152-5.336
				l-17.92-17.92l22.632-22.632l17.92,17.92l5.336-3.152c7.04-4.16,14.648-7.304,22.624-9.36L232,41.344V16h32v25.344l6,1.544
				c7.976,2.056,15.584,5.208,22.624,9.36l5.336,3.152l17.92-17.92l22.632,22.632l-17.92,17.92l3.152,5.336
				c4.16,7.04,7.304,14.648,9.36,22.624l1.552,6.008H360v32h-25.344l-1.544,6c-2.056,7.976-5.208,15.584-9.36,22.624l-3.152,5.336
				l17.92,17.92l-22.632,22.632l-17.92-17.92l-5.336,3.152c-7.04,4.16-14.648,7.304-22.624,9.36L264,214.656V240h-32v-25.344
				l-6-1.544c-7.976-2.056-15.584-5.208-22.624-9.36l-5.336-3.152l-17.92,17.92l-22.632-22.632l17.92-17.92l-3.152-5.336
				c-4.16-7.04-7.304-14.648-9.36-22.624L161.344,144H136V112z"/>
			<path d="M248,184c30.88,0,56-25.12,56-56s-25.12-56-56-56s-56,25.12-56,56S217.12,184,248,184z M248,88c22.056,0,40,17.944,40,40
				c0,22.056-17.944,40-40,40c-22.056,0-40-17.944-40-40C208,105.944,225.944,88,248,88z"/>
			<path d="M456,272V141.192L419.84,96H392v192H104V96H76.16L40,141.192V272H0v128h104v-16h88v112h16V368H104v-64h288v64H288v128h16
				V384h88v16h104V272H456z M88,384H16v-96h40V146.808L83.84,112H88V384z M480,384h-72V112h4.16L440,146.808V288h40V384z"/>
			<rect x="240" y="480" width="16" height="16"/>
			<rect x="240" y="448" width="16" height="16"/>
			<rect x="240" y="416" width="16" height="16"/>
			<rect x="240" y="384" width="16" height="16"/>
			<rect x="240" y="352" width="16" height="16"/>
			<rect x="240" y="320" width="16" height="16"/>
		</g>
	</g>
</g>
<g>
</g>
<g>
</g>
<g>
</g>
<g>
</g>
<g>
</g>
<g>
</g>
<g>
</g>
<g>
</g>
<g>
</g>
<g>
</g>
<g>
</g>
<g>
</g>
<g>
</g>
<g>
</g>
<g>
</g>
</svg>
