<?xml version="1.0" encoding="iso-8859-1"?>
<!-- Generator: Adobe Illustrator 19.0.0, SVG Export Plug-In . SVG Version: 6.00 Build 0)  -->
<svg version="1.1" id="Layer_1" xmlns="http://www.w3.org/2000/svg" xmlns:xlink="http://www.w3.org/1999/xlink" x="0px" y="0px"
	 viewBox="0 0 496 496" style="enable-background:new 0 0 496 496;" xml:space="preserve">
<g>
	<g>
		<g>
			<path d="M456,192h-68.2c2.672-7.52,4.2-15.576,4.2-24v-8h-56c-24.912,0-46.896,12.72-59.824,32H248v-48.472
				C283.944,139.536,312,109,312,72c0-39.704-32.296-72-72-72c-39.704,0-72,32.296-72,72c0,37,28.056,67.536,64,71.528V192h-28.176
				c-12.936-19.28-34.92-32-59.824-32H88v8c0,8.424,1.528,16.48,4.2,24H40c-22.056,0-40,17.944-40,40v224c0,22.056,17.944,40,40,40
				h416c22.056,0,40-17.944,40-40V232C496,209.944,478.056,192,456,192z M336,176h39.432c-3.888,27.104-27.264,48-55.432,48h-39.432
				C284.464,196.896,307.832,176,336,176z M268.2,208c-2.296,6.472-3.68,13.352-4.024,20.512L248,244.688V208H268.2z M184,72
				c0-30.872,25.128-56,56-56s56,25.128,56,56s-25.128,56-56,56S184,102.872,184,72z M232,208v36.688l-16.176-16.176
				c-0.344-7.16-1.728-14.04-4.024-20.512H232z M144,176c28.168,0,51.536,20.896,55.432,48H160c-28.168,0-51.536-20.896-55.432-48
				H144z M48,480h-8c-13.232,0-24-10.768-24-24V232c0-13.232,10.768-24,24-24h8V480z M416,480H64V208h36.176
				c12.928,19.28,34.912,32,59.824,32h44.688L232,267.312V336H104v16h272v-16H248v-68.688L275.312,240H320
				c24.912,0,46.896-12.72,59.824-32H416V480z M480,456c0,13.232-10.768,24-24,24h-24V208h24c13.232,0,24,10.768,24,24V456z"/>
			<rect x="448" y="304" width="16" height="80"/>
			<rect x="104" y="368" width="16" height="16"/>
			<rect x="136" y="368" width="16" height="16"/>
			<rect x="168" y="368" width="16" height="16"/>
			<rect x="200" y="368" width="16" height="16"/>
			<rect x="232" y="368" width="16" height="16"/>
			<rect x="264" y="368" width="16" height="16"/>
			<rect x="296" y="368" width="16" height="16"/>
			<rect x="328" y="368" width="16" height="16"/>
			<rect x="360" y="368" width="16" height="16"/>
			<path d="M248,120v-16h4c11.032,0,20-8.968,20-20s-8.968-20-20-20h-24c-2.2,0-4-1.8-4-4s1.8-4,4-4h24c2.2,0,4,1.8,4,4v4h16v-4
				c0-11.032-8.968-20-20-20h-4V24h-16v16h-4c-11.032,0-20,8.968-20,20s8.968,20,20,20h24c2.2,0,4,1.8,4,4s-1.8,4-4,4h-24
				c-2.2,0-4-1.8-4-4v-4h-16v4c0,11.032,8.968,20,20,20h4v16H248z"/>
		</g>
	</g>
</g>
<g>
</g>
<g>
</g>
<g>
</g>
<g>
</g>
<g>
</g>
<g>
</g>
<g>
</g>
<g>
</g>
<g>
</g>
<g>
</g>
<g>
</g>
<g>
</g>
<g>
</g>
<g>
</g>
<g>
</g>
</svg>
