<?xml version="1.0" encoding="iso-8859-1"?>
<!-- Generator: Adobe Illustrator 19.0.0, SVG Export Plug-In . SVG Version: 6.00 Build 0)  -->
<svg version="1.1" id="Layer_1" xmlns="http://www.w3.org/2000/svg" xmlns:xlink="http://www.w3.org/1999/xlink" x="0px" y="0px"
	 viewBox="0 0 496 496" style="enable-background:new 0 0 496 496;" xml:space="preserve">
<g>
	<g>
		<g>
			<path d="M360,0H136c-22.056,0-40,17.944-40,40v416c0,22.056,17.944,40,40,40h224c22.056,0,40-17.944,40-40V40
				C400,17.944,382.056,0,360,0z M384,456c0,13.232-10.768,24-24,24H136c-13.232,0-24-10.768-24-24v-24h272V456z M384,416H112V64
				h272V416z M384,48H112v-8c0-13.232,10.768-24,24-24h224c13.232,0,24,10.768,24,24V48z"/>
			<rect x="208" y="448" width="80" height="16"/>
			<path d="M328,288h40V80H128v208h40H328z M312,272h-16v-40h-16v40h-64v-40h-16v40h-16v-40c0-13.232,10.768-24,24-24h80
				c13.232,0,24,10.768,24,24V272z M216,160c0-17.648,14.352-32,32-32s32,14.352,32,32s-14.352,32-32,32S216,177.648,216,160z
				 M144,96h208v176h-24v-40c0-22.056-17.944-40-40-40h-4.32c7.632-8.504,12.32-19.696,12.32-32c0-26.472-21.528-48-48-48
				s-48,21.528-48,48c0,12.304,4.688,23.496,12.32,32H208c-22.056,0-40,17.944-40,40v40h-24V96z"/>
			<path d="M160,400c17.648,0,32-14.352,32-32s-14.352-32-32-32s-32,14.352-32,32S142.352,400,160,400z M160,352
				c8.824,0,16,7.176,16,16c0,8.824-7.176,16-16,16c-8.824,0-16-7.176-16-16C144,359.176,151.176,352,160,352z"/>
			<path d="M248,336c-17.648,0-32,14.352-32,32s14.352,32,32,32s32-14.352,32-32S265.648,336,248,336z M248,384
				c-8.824,0-16-7.176-16-16c0-8.824,7.176-16,16-16c8.824,0,16,7.176,16,16C264,376.824,256.824,384,248,384z"/>
			<path d="M336,336c-17.648,0-32,14.352-32,32s14.352,32,32,32s32-14.352,32-32S353.648,336,336,336z M336,384
				c-8.824,0-16-7.176-16-16c0-8.824,7.176-16,16-16c8.824,0,16,7.176,16,16C352,376.824,344.824,384,336,384z"/>
			<rect x="128" y="304" width="240" height="16"/>
			<rect x="320" y="112" width="16" height="16"/>
			<rect x="160" y="112" width="16" height="16"/>
		</g>
	</g>
</g>
<g>
</g>
<g>
</g>
<g>
</g>
<g>
</g>
<g>
</g>
<g>
</g>
<g>
</g>
<g>
</g>
<g>
</g>
<g>
</g>
<g>
</g>
<g>
</g>
<g>
</g>
<g>
</g>
<g>
</g>
</svg>
