<?xml version="1.0" encoding="iso-8859-1"?>
<!-- Generator: Adobe Illustrator 19.0.0, SVG Export Plug-In . SVG Version: 6.00 Build 0)  -->
<svg version="1.1" id="Layer_1" xmlns="http://www.w3.org/2000/svg" xmlns:xlink="http://www.w3.org/1999/xlink" x="0px" y="0px"
	 viewBox="0 0 496 496" style="enable-background:new 0 0 496 496;" xml:space="preserve">
<g>
	<g>
		<g>
			<rect x="112" y="448" width="80" height="16"/>
			<path d="M464,120.824V56c0-17.648-14.352-32-32-32c-16.168,0-29.432,12.096-31.56,27.688c-8.184,5.824-38.2,24.696-96.44,35.856
				V40c0-22.056-17.944-40-40-40H40C17.944,0,0,17.944,0,40v416c0,22.056,17.944,40,40,40h224c22.056,0,40-17.944,40-40V264.456
				c58.24,11.152,88.256,30.024,96.44,35.856C402.568,315.904,415.832,328,432,328c17.648,0,32-14.352,32-32v-64.824
				C483.536,219.8,496,198.76,496,176S483.536,132.2,464,120.824z M16,40c0-13.232,10.768-24,24-24h224c13.232,0,24,10.768,24,24v8
				H16V40z M288,456c0,13.232-10.768,24-24,24H40c-13.232,0-24-10.768-24-24v-24h272V456z M288,416H16V64h272v26.296
				C265.176,93.768,238.624,96,208,96h-8h-72c-22.056,0-40,17.944-40,40v80c0,19.312,13.768,35.472,32,39.192v111.264
				c0,14.08,11.464,25.544,25.552,25.544h52.896C212.536,392,224,380.536,224,366.456v-1.808c0-11.016-7.016-20.752-17.472-24.232
				c-3.904-1.304-6.528-4.944-6.528-9.064V256h8c30.624,0,57.176,2.232,80,5.704V416z M201.472,355.584
				c3.904,1.304,6.528,4.944,6.528,9.064v1.808c0,5.264-4.288,9.544-9.552,9.544h-52.896c-5.264,0-9.552-4.28-9.552-9.544V256h48
				v75.352C184,342.368,191.016,352.104,201.472,355.584z M128,240c-13.232,0-24-10.768-24-24v-80c0-13.232,10.768-24,24-24h72v40
				v48v40H128z M400,280.936c-23.728-14.048-80.88-39.624-184-40.888V200v-48v-40.048c103.12-1.264,160.272-26.84,184-40.888
				V280.936z M448,296c0,8.824-7.176,16-16,16c-8.824,0-16-7.176-16-16V56c0-8.824,7.176-16,16-16c8.824,0,16,7.176,16,16V296z
				 M464,211.664v-71.328c9.984,8.984,16,21.936,16,35.664C480,189.728,473.984,202.68,464,211.664z"/>
			<rect x="120" y="136" width="64" height="16"/>
			<rect x="120" y="168" width="64" height="16"/>
			<rect x="120" y="200" width="64" height="16"/>
		</g>
	</g>
</g>
<g>
</g>
<g>
</g>
<g>
</g>
<g>
</g>
<g>
</g>
<g>
</g>
<g>
</g>
<g>
</g>
<g>
</g>
<g>
</g>
<g>
</g>
<g>
</g>
<g>
</g>
<g>
</g>
<g>
</g>
</svg>
