<?xml version="1.0" encoding="iso-8859-1"?>
<!-- Generator: Adobe Illustrator 19.0.0, SVG Export Plug-In . SVG Version: 6.00 Build 0)  -->
<svg version="1.1" id="Layer_1" xmlns="http://www.w3.org/2000/svg" xmlns:xlink="http://www.w3.org/1999/xlink" x="0px" y="0px"
	 viewBox="0 0 496 496" style="enable-background:new 0 0 496 496;" xml:space="preserve">
<g>
	<g>
		<g>
			<rect x="208" y="448" width="80" height="16"/>
			<path d="M375.104,147.68l1.912-3.68l-1.912-3.68C373.824,137.848,342.72,80,248,80s-125.824,57.848-127.104,60.32l-1.912,3.68
				l1.912,3.68C122.176,150.152,153.28,208,248,208S373.824,150.152,375.104,147.68z M296.584,102.448
				c37.928,10.928,56.088,32.784,62.032,41.552c-5.968,8.792-24.128,30.632-62.032,41.552C306.168,174.36,312,159.856,312,144
				S306.168,113.64,296.584,102.448z M199.416,185.552c-37.928-10.928-56.088-32.784-62.032-41.552
				c5.968-8.792,24.128-30.632,62.032-41.552C189.832,113.64,184,128.144,184,144S189.832,174.36,199.416,185.552z M200,144
				c0-26.472,21.528-48,48-48s48,21.528,48,48s-21.528,48-48,48S200,170.472,200,144z"/>
			<path d="M176,384h144V240H176V384z M203.312,368L248,323.312L292.688,368H203.312z M304,356.688L259.312,312L304,267.312V356.688
				z M292.688,256L248,300.688L203.312,256H292.688z M192,267.312L236.688,312L192,356.688V267.312z"/>
			<path d="M400,240V40c0-22.056-17.944-40-40-40H136c-22.056,0-40,17.944-40,40v200H0v144h96v72c0,22.056,17.944,40,40,40h224
				c22.056,0,40-17.944,40-40v-72h96V240H400z M468.688,256L424,300.688L379.312,256H468.688z M412.688,312L368,356.688v-89.376
				L412.688,312z M112,40c0-13.232,10.768-24,24-24h224c13.232,0,24,10.768,24,24v8H112V40z M116.688,256L72,300.688L27.312,256
				H116.688z M128,267.312v89.376L83.312,312L128,267.312z M16,267.312L60.688,312L16,356.688V267.312z M27.312,368L72,323.312
				L116.688,368H27.312z M384,456c0,13.232-10.768,24-24,24H136c-13.232,0-24-10.768-24-24v-24h272V456z M384,416H112v-32h32V240
				h-32V64h272v176h-32v144h32V416z M379.312,368L424,323.312L468.688,368H379.312z M480,356.688L435.312,312L480,267.312V356.688z"
				/>
			<rect x="416" y="400" width="16" height="16"/>
			<rect x="448" y="400" width="16" height="16"/>
			<rect x="480" y="400" width="16" height="16"/>
			<rect y="400" width="16" height="16"/>
			<rect x="32" y="400" width="16" height="16"/>
			<rect x="64" y="400" width="16" height="16"/>
		</g>
	</g>
</g>
<g>
</g>
<g>
</g>
<g>
</g>
<g>
</g>
<g>
</g>
<g>
</g>
<g>
</g>
<g>
</g>
<g>
</g>
<g>
</g>
<g>
</g>
<g>
</g>
<g>
</g>
<g>
</g>
<g>
</g>
</svg>
