<?xml version="1.0" encoding="iso-8859-1"?>
<!-- Generator: Adobe Illustrator 19.0.0, SVG Export Plug-In . SVG Version: 6.00 Build 0)  -->
<svg version="1.1" id="Layer_1" xmlns="http://www.w3.org/2000/svg" xmlns:xlink="http://www.w3.org/1999/xlink" x="0px" y="0px"
	 viewBox="0 0 496 496" style="enable-background:new 0 0 496 496;" xml:space="preserve">
<g>
	<g>
		<g>
			<rect x="208" y="448" width="80" height="16"/>
			<path d="M478.752,216.968C484.888,204.04,488,190.272,488,176c0-50.232-38.808-91.504-88-95.592V40c0-22.056-17.944-40-40-40H136
				c-22.056,0-40,17.944-40,40v176.408C46.808,220.496,8,261.76,8,312c0,14.272,3.112,28.048,9.248,40.968L5.8,410.192
				l57.232-11.448c10.488,4.984,21.552,7.864,32.968,8.808V456c0,22.056,17.944,40,40,40h224c22.056,0,40-17.944,40-40V271.56
				c11.416-0.952,22.48-3.832,32.968-8.808l57.232,11.44L478.752,216.968z M112,40c0-13.232,10.768-24,24-24h224
				c13.232,0,24,10.768,24,24v8H112V40z M112,64h272v16.408c-34.712,2.88-64.168,24.304-78.544,54.32
				C287.848,125.08,268.176,120,248,120c-58.968,0-108.352,42.792-118.056,99.664c-5.784-1.632-11.776-2.744-17.944-3.256V64z
				 M145.216,225.432C152.336,174.624,195.848,136,248,136c18.224,0,35.96,4.808,51.712,13.872C297.352,158.192,296,166.936,296,176
				c0,37.64,21.832,70.2,53.44,85.92C339.232,309.8,297.52,344,248,344c-17.44,0-34.632-4.488-49.92-12.92
				c1.256-6.168,1.92-12.544,1.92-19.08C200,273.832,177.552,240.888,145.216,225.432z M104,392c-12.664,0-24.848-2.944-36.24-8.752
				l-2.48-1.264l-39.08,7.824l7.816-39.088l-1.264-2.48C26.944,336.856,24,324.664,24,312c0-44.112,35.888-80,80-80s80,35.888,80,80
				S148.112,392,104,392z M384,456c0,13.232-10.768,24-24,24H136c-13.232,0-24-10.768-24-24v-24h272V456z M384,416H112v-8.408
				c37.2-3.088,68.376-27.448,81.4-60.872C210.272,355.4,229.008,360,248,360c56.24,0,103.792-38.184,116.536-92.056
				c6.248,1.872,12.76,3.088,19.464,3.648V416z M469.8,253.8l-39.08-7.816l-2.48,1.264C416.848,253.056,404.664,256,392,256
				c-44.112,0-80-35.888-80-80s35.888-80,80-80s80,35.888,80,80c0,12.664-2.944,24.848-8.752,36.24l-1.264,2.48L469.8,253.8z"/>
			<path d="M248,288c26.472,0,48-21.528,48-48s-21.528-48-48-48s-48,21.528-48,48S221.528,288,248,288z M248,208
				c17.648,0,32,14.352,32,32s-14.352,32-32,32s-32-14.352-32-32S230.352,208,248,208z"/>
			<rect x="384" y="168" width="16" height="16"/>
			<rect x="416" y="168" width="16" height="16"/>
			<rect x="352" y="168" width="16" height="16"/>
			<rect x="96" y="304" width="16" height="16"/>
			<rect x="128" y="304" width="16" height="16"/>
			<rect x="64" y="304" width="16" height="16"/>
		</g>
	</g>
</g>
<g>
</g>
<g>
</g>
<g>
</g>
<g>
</g>
<g>
</g>
<g>
</g>
<g>
</g>
<g>
</g>
<g>
</g>
<g>
</g>
<g>
</g>
<g>
</g>
<g>
</g>
<g>
</g>
<g>
</g>
</svg>
