<?xml version="1.0" encoding="iso-8859-1"?>
<!-- Generator: Adobe Illustrator 19.0.0, SVG Export Plug-In . SVG Version: 6.00 Build 0)  -->
<svg version="1.1" id="Layer_1" xmlns="http://www.w3.org/2000/svg" xmlns:xlink="http://www.w3.org/1999/xlink" x="0px" y="0px"
	 viewBox="0 0 496 496" style="enable-background:new 0 0 496 496;" xml:space="preserve">
<g>
	<g>
		<g>
			<path d="M431.872,106.744C429.128,47.416,380,0,320,0c-31.016,0-60.232,12.688-81.368,35.072C223.104,22.72,203.992,16,184,16
				c-46.12,0-84.064,35.656-87.696,81.192C41.76,104.904,0,152.248,0,208c0,51.408,35.416,96.368,84.856,108.68
				C96.992,351.84,130.504,376,168,376c20.92,0,40.72-7.256,56.544-20.584c11.08,10.504,24.304,18.4,38.856,23.216
				c-2.496,30.064-15.384,58.032-36.664,79.312L188.688,496H208c81.024,0,148.72-59.928,158.72-139.904
				c10.992-10.248,19.656-22.728,25.352-36.48C449.856,315.432,496,266.456,496,208C496,164.416,471,125.232,431.872,106.744z
				 M386.28,303.88l-5.52,0.128l-1.832,5.208c-4.992,14.152-13.664,26.936-25.088,36.96l-2.344,2.064l-0.328,3.104
				C344.136,417.68,293.12,469.272,228.8,478.52l9.256-9.264c25.6-25.6,40.416-59.76,41.704-96.2l0.224-6.4l-6.184-1.624
				c-16.656-4.368-31.528-13.408-43.024-26.12l-5.672-6.272l-5.952,6.008C205.512,352.416,187.344,360,168,360
				c-31.984,0-60.448-21.504-69.192-52.288l-1.328-4.68l-4.768-0.976C48.256,293,16,253.44,16,208
				c0-49.832,38.928-91.832,88.632-95.624l7.368-0.96V104c0-39.696,32.296-72,72-72c18.632,0,36.328,7.144,49.832,20.12l6.256,6.008
				l5.488-6.728C263.92,28.904,291.048,16,320,16c52.936,0,96,43.064,96,96v5.336l4.92,2.048C456.816,134.352,480,169.136,480,208
				C480,259.656,437.96,302.664,386.28,303.88z"/>
			<path d="M336,160c0-48.52-39.48-88-88-88c-48.52,0-88,39.48-88,88c0,26.488,11.608,50.96,32,67.768V232h-16v16h16v16h-16v16h16
				v32h112v-32h16v-16h-16v-16h16v-16h-16v-4.232C324.392,210.96,336,186.488,336,160z M288,296h-80v-16h80V296z M288,264h-80v-16
				h80V264z M291.184,217.504L288,219.896V232h-32v-41.136c13.768-3.576,24-16,24-30.864c0-17.648-14.352-32-32-32s-32,14.352-32,32
				c0,14.864,10.232,27.288,24,30.864V232h-32v-12.104l-3.184-2.4C186.504,203.72,176,182.76,176,160c0-39.696,32.296-72,72-72
				s72,32.304,72,72C320,182.76,309.496,203.72,291.184,217.504z M248,176c-8.824,0-16-7.176-16-16c0-8.824,7.176-16,16-16
				c8.824,0,16,7.176,16,16C264,168.824,256.824,176,248,176z"/>
			<rect x="344" y="184" width="16" height="16"/>
			<rect x="376" y="184" width="16" height="16"/>
			<rect x="408" y="184" width="16" height="16"/>
			<rect x="72" y="184" width="16" height="16"/>
			<rect x="104" y="184" width="16" height="16"/>
			<rect x="136" y="184" width="16" height="16"/>
		</g>
	</g>
</g>
<g>
</g>
<g>
</g>
<g>
</g>
<g>
</g>
<g>
</g>
<g>
</g>
<g>
</g>
<g>
</g>
<g>
</g>
<g>
</g>
<g>
</g>
<g>
</g>
<g>
</g>
<g>
</g>
<g>
</g>
</svg>
