<?xml version="1.0" encoding="iso-8859-1"?>
<!-- Generator: Adobe Illustrator 19.0.0, SVG Export Plug-In . SVG Version: 6.00 Build 0)  -->
<svg version="1.1" id="Layer_1" xmlns="http://www.w3.org/2000/svg" xmlns:xlink="http://www.w3.org/1999/xlink" x="0px" y="0px"
	 viewBox="0 0 496 496" style="enable-background:new 0 0 496 496;" xml:space="preserve">
<g>
	<g>
		<g>
			<path d="M456,189.316h-79.968c-6.536-10.496-14.912-19.928-25.016-27.784L320,137.404v-31.488
				c0-25.568-11.032-49.888-30.28-66.728L248,2.684l-41.72,36.504C187.032,56.028,176,80.348,176,105.916v31.488l-31.016,24.128
				c-10.104,7.856-18.48,17.288-25.016,27.784H40c-22.056,0-40,17.944-40,40v224c0,22.056,17.944,40,40,40h416
				c22.056,0,40-17.944,40-40v-224C496,207.26,478.056,189.316,456,189.316z M320,157.668l21.2,16.488
				c19.992,15.552,32.28,38.24,34.456,63.16H320V157.668z M192,105.916c0-20.96,9.04-40.888,24.816-54.68L248,23.948l31.184,27.288
				C294.96,65.028,304,84.956,304,105.916v131.4H192V105.916z M287.904,253.316c-0.52,30.976-15.208,59.752-39.904,78.208
				c-24.696-18.456-39.376-47.232-39.904-78.208H287.904z M154.8,174.156l21.2-16.488v79.648h-55.656
				C122.52,212.404,134.808,189.716,154.8,174.156z M48,477.316h-8c-13.232,0-24-10.768-24-24v-224c0-13.232,10.768-24,24-24h8
				V477.316z M416,477.316H64v-272h47.92c-5.08,12.512-7.92,26-7.92,40v8h72h8h8.104c0.552,38.152,19.648,73.448,51.456,94.656
				l4.44,2.96l4.44-2.96c31.816-21.208,50.904-56.504,51.456-94.656H312h8h72v-8c0-14-2.84-27.488-7.92-40H416V477.316z
				 M480,453.316c0,13.232-10.768,24-24,24h-24v-272h24c13.232,0,24,10.768,24,24V453.316z"/>
			<rect x="448" y="301.316" width="16" height="80"/>
			<path d="M248,69.316c-22.056,0-40,17.944-40,40c0,22.056,17.944,40,40,40c22.056,0,40-17.944,40-40
				C288,87.26,270.056,69.316,248,69.316z M248,133.316c-13.232,0-24-10.768-24-24s10.768-24,24-24s24,10.768,24,24
				S261.232,133.316,248,133.316z"/>
			<rect x="240" y="365.316" width="16" height="64"/>
			<rect x="240" y="445.316" width="16" height="16"/>
			<rect x="272" y="429.316" width="16" height="16"/>
			<rect x="272" y="341.316" width="16" height="72"/>
			<rect x="208" y="341.316" width="16" height="56"/>
			<rect x="208" y="413.316" width="16" height="16"/>
			<rect x="304" y="413.316" width="16" height="16"/>
			<rect x="304" y="293.316" width="16" height="104"/>
			<rect x="176" y="397.316" width="16" height="16"/>
			<rect x="176" y="293.316" width="16" height="88"/>
		</g>
	</g>
</g>
<g>
</g>
<g>
</g>
<g>
</g>
<g>
</g>
<g>
</g>
<g>
</g>
<g>
</g>
<g>
</g>
<g>
</g>
<g>
</g>
<g>
</g>
<g>
</g>
<g>
</g>
<g>
</g>
<g>
</g>
</svg>
