<?xml version="1.0" encoding="iso-8859-1"?>
<!-- Generator: Adobe Illustrator 19.0.0, SVG Export Plug-In . SVG Version: 6.00 Build 0)  -->
<svg version="1.1" id="Layer_1" xmlns="http://www.w3.org/2000/svg" xmlns:xlink="http://www.w3.org/1999/xlink" x="0px" y="0px"
	 viewBox="0 0 497.344 497.344" style="enable-background:new 0 0 497.344 497.344;" xml:space="preserve">
<g>
	<g>
		<g>
			<path d="M339.283,223.448c-9.52-7.072-22.088-8.128-32.816-2.736c-10.976,5.528-17.8,16.552-17.8,28.768v0.016
				c0,10.064,4.76,19.448,13.056,25.728c22.504,17.032,35.568,44.016,34.92,72.168c-1.048,45.608-38.96,84.128-84.52,85.864
				c-24.216,0.992-47.088-7.792-64.48-24.528c-17.4-16.736-26.976-39.256-26.976-63.4c0-27.784,12.768-53.352,35.024-70.168
				c8.248-6.224,12.976-15.568,12.976-25.648c0-12.184-6.76-23.12-17.632-28.536c-11.032-5.504-24.056-4.264-33.944,3.208
				c-41.992,31.704-64.36,82-59.84,134.552c6.168,71.808,62.552,129.68,134.056,137.624c5.912,0.664,11.792,0.984,17.616,0.984
				c37.472,0,72.84-13.44,101.088-38.728c32.184-28.816,50.656-70.112,50.656-113.288
				C400.667,296.856,378.291,252.432,339.283,223.448z M339.339,446.696c-29.208,26.136-66.944,38.104-106.272,33.768
				c-63.936-7.104-114.36-58.872-119.88-123.096c-4.04-47.032,15.976-92.048,53.544-120.424c2.984-2.248,6.416-3.392,9.88-3.392
				c2.464,0,4.944,0.576,7.288,1.744c5.496,2.728,8.768,8.048,8.768,14.216c0,5.008-2.416,9.704-6.616,12.88
				c-26.296,19.864-41.384,50.096-41.384,82.936c0,28.528,11.32,55.144,31.88,74.936c20.544,19.784,47.584,30.064,76.176,28.992
				c53.848-2.064,98.672-47.592,99.912-101.496c0.76-33.28-14.672-65.168-41.264-85.288c-4.256-3.232-6.704-7.968-6.704-12.992
				c0-6.232,3.36-11.64,8.992-14.472c5.36-2.688,11.376-2.208,16.08,1.288c34.904,25.928,54.928,65.672,54.928,109.032
				C384.667,383.968,368.147,420.912,339.339,446.696z"/>
			<path d="M208.667,201.328h80h8h56v-64h-8c-11.944,0-23.04-6.44-28.96-16.808l-19.04-33.312V64.664
				c0-22.128-11.784-42.936-30.752-54.312L248.667,0l-17.248,10.344c-18.968,11.376-30.752,32.192-30.752,54.32v22.544l-19.04,33.32
				c-5.92,10.36-17.016,16.8-28.96,16.8h-8v64h56H208.667z M296.667,119.448l5.152,9.016c7.424,12.992,20.336,21.816,34.848,24.208
				v32.656h-40V119.448z M216.667,64.664c0-16.536,8.808-32.088,22.984-40.592l9.016-5.416l9.016,5.408
				c14.176,8.504,22.984,24.064,22.984,40.6v120.664h-64V64.664z M160.667,152.672c14.512-2.392,27.432-11.216,34.848-24.208
				l5.152-9.016v65.88h-40V152.672z"/>
			<path d="M216.667,217.328v128c0,17.648,14.352,32,32,32s32-14.352,32-32v-128h-16v128c0,8.824-7.176,16-16,16
				c-8.824,0-16-7.176-16-16v-128H216.667z"/>
			<rect x="240.667" y="89.328" width="16" height="16"/>
			<rect x="240.667" y="121.328" width="16" height="16"/>
			<rect x="240.667" y="153.328" width="16" height="16"/>
		</g>
	</g>
</g>
<g>
</g>
<g>
</g>
<g>
</g>
<g>
</g>
<g>
</g>
<g>
</g>
<g>
</g>
<g>
</g>
<g>
</g>
<g>
</g>
<g>
</g>
<g>
</g>
<g>
</g>
<g>
</g>
<g>
</g>
</svg>
