<?xml version="1.0" encoding="iso-8859-1"?>
<!-- Generator: Adobe Illustrator 19.0.0, SVG Export Plug-In . SVG Version: 6.00 Build 0)  -->
<svg version="1.1" id="Layer_1" xmlns="http://www.w3.org/2000/svg" xmlns:xlink="http://www.w3.org/1999/xlink" x="0px" y="0px"
	 viewBox="0 0 496 496" style="enable-background:new 0 0 496 496;" xml:space="preserve">
<g>
	<g>
		<g>
			<path d="M376,0c-59.008,0-109.216,37.848-128,90.488C229.216,37.848,179.008,0,120,0H48v8c0,74.992,61.008,136,136,136h56v72h-64
				v32h-16v16h16v16h-16v16h16v2.328c-25.472,21.384-40,52.384-40,85.672c0,61.76,50.24,112,112,112s112-50.24,112-112
				c0-33.288-14.528-64.288-40-85.672V296h16v-16h-16v-16h16v-16h-16v-32h-64v-72h56c74.992,0,136-61.008,136-136V0H376z M184,128
				C120.52,128,68.4,78.448,64.264,16H120c63.48,0,115.6,49.552,119.736,112H184z M192,264h112v16H192V264z M344,384
				c0,52.936-43.064,96-96,96c-52.936,0-96-43.064-96-96c0-29.648,13.464-57.184,36.928-75.56l3.072-2.4V296h48v48.808
				c-18.232,3.72-32,19.872-32,39.192c0,22.056,17.944,40,40,40s40-17.944,40-40c0-19.312-13.768-35.472-32-39.192V296h48v10.04
				l3.072,2.4C330.536,326.816,344,354.352,344,384z M248,360c13.232,0,24,10.768,24,24s-10.768,24-24,24s-24-10.768-24-24
				S234.768,360,248,360z M304,232v16H192v-16H304z M312,128h-55.736C260.4,65.552,312.52,16,376,16h55.736
				C427.6,78.448,375.48,128,312,128z"/>
			<rect x="272" y="184" width="16" height="16"/>
			<rect x="304" y="184" width="16" height="16"/>
			<rect x="208" y="184" width="16" height="16"/>
			<rect x="176" y="184" width="16" height="16"/>
		</g>
	</g>
</g>
<g>
</g>
<g>
</g>
<g>
</g>
<g>
</g>
<g>
</g>
<g>
</g>
<g>
</g>
<g>
</g>
<g>
</g>
<g>
</g>
<g>
</g>
<g>
</g>
<g>
</g>
<g>
</g>
<g>
</g>
</svg>
