<?xml version="1.0" encoding="iso-8859-1"?>
<!-- Generator: Adobe Illustrator 19.0.0, SVG Export Plug-In . SVG Version: 6.00 Build 0)  -->
<svg version="1.1" id="Layer_1" xmlns="http://www.w3.org/2000/svg" xmlns:xlink="http://www.w3.org/1999/xlink" x="0px" y="0px"
	 viewBox="0 0 496.296 496.296" style="enable-background:new 0 0 496.296 496.296;" xml:space="preserve">
<g>
	<g>
		<g>
			<path d="M457.924,406.432l-46.704-28.016c-7.496-4.496-12.616-12.016-14.048-20.64L381.3,262.552
				c-3.24-19.472-18.304-34.232-37.152-37.536V123.512c0-57.304-38.608-107.856-93.896-122.936L248.148,0l-2.104,0.576
				c-55.288,15.072-93.896,65.632-93.896,122.936v101.496c-18.848,3.304-33.912,18.064-37.152,37.536l-15.872,95.224
				c-1.44,8.624-6.56,16.144-14.048,20.64l-46.704,28.016c-13.712,8.232-22.224,23.272-22.224,39.256v50.616h136h8h176h8h136V445.68
				C480.148,429.696,471.636,414.656,457.924,406.432z M152.148,448.296h-88v16h88v16h-120v-16h16v-16h-16v-2.616
				c0-10.4,5.536-20.176,14.456-25.528l46.704-28.016c11.512-6.912,19.392-18.48,21.6-31.728l15.872-95.224
				c1.944-11.672,10.456-20.648,21.368-23.68V448.296z M240.148,480.296h-16V426.72l16-24V480.296z M272.148,480.296h-16V402.72
				l16,24V480.296z M328.148,480.296h-40v-58.424l-32-48v-37.576h-16v37.576l-32,48v58.424h-40V123.512
				c0-49.376,32.784-93.024,80-106.904c47.216,13.88,80,57.52,80,106.904V480.296z M464.148,448.296h-16v16h16v16h-120v-16h88v-16
				h-88v-206.8c10.912,3.032,19.424,12.008,21.368,23.68l15.872,95.224c2.208,13.248,10.08,24.816,21.6,31.728l46.704,28.016
				c8.92,5.36,14.456,15.144,14.456,25.536V448.296z"/>
			<path d="M184.148,123.024v45.272h128v-45.272l-64-27.432L184.148,123.024z M296.148,152.296h-96v-18.728l48-20.568l48,20.568
				V152.296z"/>
			<rect x="240.148" y="304.296" width="16" height="16"/>
		</g>
	</g>
</g>
<g>
</g>
<g>
</g>
<g>
</g>
<g>
</g>
<g>
</g>
<g>
</g>
<g>
</g>
<g>
</g>
<g>
</g>
<g>
</g>
<g>
</g>
<g>
</g>
<g>
</g>
<g>
</g>
<g>
</g>
</svg>
