<?xml version="1.0" encoding="iso-8859-1"?>
<!-- Generator: Adobe Illustrator 19.0.0, SVG Export Plug-In . SVG Version: 6.00 Build 0)  -->
<svg version="1.1" id="Layer_1" xmlns="http://www.w3.org/2000/svg" xmlns:xlink="http://www.w3.org/1999/xlink" x="0px" y="0px"
	 viewBox="0 0 496 496" style="enable-background:new 0 0 496 496;" xml:space="preserve">
<g>
	<g>
		<g>
			<path d="M248,120c-70.576,0-128,57.424-128,128s57.424,128,128,128s128-57.424,128-128S318.576,120,248,120z M248,360
				c-61.76,0-112-50.24-112-112s50.24-112,112-112s112,50.24,112,112S309.76,360,248,360z"/>
			<path d="M264,176h-8v-24h-16v24h-8c-22.056,0-40,17.944-40,40c0,22.056,17.944,40,40,40h32c13.232,0,24,10.768,24,24
				s-10.768,24-24,24h-32c-13.232,0-24-10.768-24-24v-8h-16v8c0,22.056,17.944,40,40,40h8v24h16v-24h8c22.056,0,40-17.944,40-40
				c0-22.056-17.944-40-40-40h-32c-13.232,0-24-10.768-24-24s10.768-24,24-24h32c13.232,0,24,10.768,24,24v8h16v-8
				C304,193.944,286.056,176,264,176z"/>
			<rect x="320" y="240" width="16" height="16"/>
			<rect x="160" y="240" width="16" height="16"/>
			<rect x="240" y="80" width="16" height="24"/>
			<rect x="240" y="32" width="16" height="32"/>
			<rect x="240" width="16" height="16"/>
			<rect x="181.796" y="99.418" transform="matrix(-0.9238 0.3828 -0.3828 -0.9238 406.2847 134.1511)" width="16" height="16.16"/>
			<rect x="130.221" y="45.153" transform="matrix(0.3826 0.9239 -0.9239 0.3826 152.3913 -121.7437)" width="74.135" height="16"/>
			
				<rect x="132.319" y="132.025" transform="matrix(-0.7071 0.7071 -0.7071 -0.7071 338.7593 140.3156)" width="16" height="16.584"/>
			
				<rect x="110.908" y="111.169" transform="matrix(-0.7071 0.7071 -0.7071 -0.7071 287.0703 118.9099)" width="16" height="15.48"/>
			<rect x="66.461" y="79.56" transform="matrix(0.7071 0.7071 -0.7071 0.7071 87.5591 -36.2664)" width="42.192" height="16"/>
			<rect x="94.97" y="174.897" transform="matrix(0.3828 -0.9238 0.9238 0.3828 -110.0466 211.1044)" width="16" height="26.031"/>
			<rect x="43.724" y="162.57" transform="matrix(0.9239 0.3827 -0.3827 0.9239 69.9256 -10.3922)" width="34.721" height="16"/>
			<rect x="18.321" y="147.88" transform="matrix(0.9238 0.3828 -0.3828 0.9238 61.6231 2.072)" width="14.568" height="16"/>
			<rect x="88" y="240" width="16" height="16"/>
			<rect x="48" y="240" width="24" height="16"/>
			<rect y="240" width="32" height="16"/>
			
				<rect x="81.066" y="301.857" transform="matrix(-0.9239 0.3826 -0.3826 -0.9239 308.3924 558.3843)" width="35.215" height="16"/>
			<rect x="16.854" y="324.684" transform="matrix(0.9239 -0.3827 0.3827 0.9239 -123.9978 42.002)" width="53.449" height="16"/>
			<rect x="120.92" y="352.261" transform="matrix(0.7071 -0.7071 0.7071 0.7071 -214.9963 201.4752)" width="29.568" height="16"/>
			<rect x="97.958" y="378.634" transform="matrix(-0.7071 -0.7071 0.7071 -0.7071 -94.917 740.7604)" width="16" height="22.808"/>
			
				<rect x="71.904" y="405.904" transform="matrix(-0.7071 -0.7071 0.7071 -0.7071 -157.8542 766.9018)" width="16" height="20.48"/>
			
				<rect x="181.887" y="380.413" transform="matrix(-0.9238 -0.3828 0.3828 -0.9238 216.6876 819.5906)" width="16" height="15.648"/>
			
				<rect x="170.775" y="407.219" transform="matrix(-0.9238 -0.3828 0.3828 -0.9238 185.033 866.9911)" width="16" height="15.736"/>
			
				<rect x="153.602" y="434.436" transform="matrix(-0.9238 -0.3828 0.3828 -0.9238 136.0896 940.3499)" width="16" height="44.399"/>
			<rect x="240" y="392" width="16" height="32"/>
			<rect x="240" y="440" width="16" height="56"/>
			<rect x="298.388" y="380.373" transform="matrix(0.9238 -0.3828 0.3828 0.9238 -125.524 146.9086)" width="16" height="16.992"/>
			
				<rect x="312.955" y="409.895" transform="matrix(0.9238 -0.3828 0.3828 0.9238 -137.8815 155.1661)" width="16" height="28.303"/>
			<rect x="323.993" y="456.538" transform="matrix(-0.3827 -0.9239 0.9239 -0.3827 37.7005 954.266)" width="27.329" height="16"/>
			
				<rect x="342.631" y="359.173" transform="matrix(-0.7071 -0.7071 0.7071 -0.7071 367.1695 886.4329)" width="49.08" height="16"/>
			
				<rect x="390.364" y="401.697" transform="matrix(-0.7071 -0.7071 0.7071 -0.7071 409.6748 989.0869)" width="38.64" height="16"/>
			
				<rect x="379.743" y="301.732" transform="matrix(-0.9239 -0.3827 0.3827 -0.9239 645.2761 747.8201)" width="34.545" height="16"/>
			
				<rect x="426.018" y="319.306" transform="matrix(-0.9239 -0.3827 0.3827 -0.9239 720.2755 797.8865)" width="26.953" height="16"/>
			
				<rect x="464.572" y="332.348" transform="matrix(-0.924 -0.3825 0.3825 -0.924 776.217 835.0089)" width="13.072" height="16.001"/>
			<rect x="392" y="240" width="40" height="16"/>
			<rect x="448" y="240" width="16" height="16"/>
			<rect x="480" y="240" width="16" height="16"/>
			
				<rect x="378.708" y="173.182" transform="matrix(-0.9239 0.3826 -0.3826 -0.9239 856.8093 191.9722)" width="61.215" height="16"/>
			
				<rect x="456.729" y="144.806" transform="matrix(0.3828 0.9238 -0.9238 0.3828 432.9604 -331.6984)" width="16" height="26.759"/>
			
				<rect x="346.875" y="131.074" transform="matrix(-0.7071 0.7071 -0.7071 -0.7071 707.6462 -14.9686)" width="20.096" height="16"/>
			<rect x="380.37" y="88.228" transform="matrix(0.7071 0.7071 -0.7071 0.7071 189.872 -243.0885)" width="16" height="38.848"/>
			<rect x="409.672" y="70.259" transform="matrix(0.7071 0.7071 -0.7071 0.7071 177.7271 -272.3934)" width="16" height="16.16"/>
			<rect x="304.103" y="69.65" transform="matrix(0.9238 0.3828 -0.3828 0.9238 59.4559 -112.3769)" width="16" height="47.119"/>
			<rect x="326.813" y="17.301" transform="matrix(0.9238 0.3828 -0.3828 0.9238 40.2164 -125.2431)" width="16" height="42.263"/>
		</g>
	</g>
</g>
<g>
</g>
<g>
</g>
<g>
</g>
<g>
</g>
<g>
</g>
<g>
</g>
<g>
</g>
<g>
</g>
<g>
</g>
<g>
</g>
<g>
</g>
<g>
</g>
<g>
</g>
<g>
</g>
<g>
</g>
</svg>
