<?xml version="1.0" encoding="iso-8859-1"?>
<!-- Generator: Adobe Illustrator 19.0.0, SVG Export Plug-In . SVG Version: 6.00 Build 0)  -->
<svg version="1.1" id="Layer_1" xmlns="http://www.w3.org/2000/svg" xmlns:xlink="http://www.w3.org/1999/xlink" x="0px" y="0px"
	 viewBox="0 0 496 496" style="enable-background:new 0 0 496 496;" xml:space="preserve">
<g>
	<g>
		<g>
			<path d="M208,72c-52.936,0-96,43.064-96,96c0,52.936,43.064,96,96,96c52.936,0,96-43.064,96-96C304,115.064,260.936,72,208,72z
				 M208,248c-44.112,0-80-35.888-80-80s35.888-80,80-80s80,35.888,80,80S252.112,248,208,248z"/>
			<rect x="200" y="32" width="16" height="24"/>
			<rect x="200" width="16" height="16"/>
			<rect x="138.016" y="48.644" transform="matrix(-0.8661 0.4999 -0.4999 -0.8661 302.7953 40.1752)" width="16" height="24"/>
			<rect x="120.006" y="21.444" transform="matrix(0.4999 0.8661 -0.8661 0.4999 89.5184 -96.139)" width="16" height="16"/>
			<rect x="88.604" y="97.986" transform="matrix(0.866 0.5 -0.5 0.866 66.4729 -36.1031)" width="23.999" height="16"/>
			<rect x="61.428" y="80" transform="matrix(0.866 0.5 -0.5 0.866 53.3029 -22.9244)" width="16" height="16"/>
			<rect x="72" y="160" width="24" height="16"/>
			<rect x="40" y="160" width="16" height="16"/>
			<rect x="92.633" y="217.995" transform="matrix(0.4999 0.8661 -0.8661 0.4999 249.5228 27.8647)" width="16" height="24"/>
			<rect x="61.456" y="240.004" transform="matrix(0.866 -0.5 0.5 0.866 -114.6992 67.9569)" width="16" height="16"/>
			<rect x="138.003" y="263.376" transform="matrix(0.8661 0.4999 -0.4999 0.8661 157.2094 -36.1097)" width="16" height="24"/>
			<rect x="120.023" y="298.551" transform="matrix(-0.8661 -0.4999 0.4999 -0.8661 85.659 636.0485)" width="16" height="16"/>
			<rect x="200" y="280" width="16" height="24"/>
			<rect x="200" y="320" width="16" height="16"/>
			<rect x="258.003" y="267.399" transform="matrix(-0.4999 -0.8661 0.8661 -0.4999 166.4574 646.9152)" width="24" height="16"/>
			<rect x="280.018" y="298.554" transform="matrix(0.4999 0.8661 -0.8661 0.4999 409.5423 -96.139)" width="16" height="16"/>
			<rect x="303.372" y="222.01" transform="matrix(0.866 0.5 -0.5 0.866 157.2615 -126.8725)" width="23.999" height="16"/>
			<rect x="338.552" y="239.999" transform="matrix(0.866 0.5 -0.5 0.866 170.4341 -140.0529)" width="16" height="16"/>
			<rect x="320" y="160" width="24" height="16"/>
			<rect x="360" y="160" width="16" height="16"/>
			<rect x="307.402" y="94.012" transform="matrix(0.4999 0.8661 -0.8661 0.4999 249.5497 -220.1486)" width="16" height="24"/>
			<rect x="338.567" y="79.985" transform="matrix(0.4999 0.8661 -0.8661 0.4999 249.5232 -256.1551)" width="16" height="16"/>
			<rect x="261.989" y="48.597" transform="matrix(0.8661 0.4999 -0.4999 0.8661 66.4467 -126.8505)" width="16" height="24"/>
			<rect x="279.993" y="21.427" transform="matrix(0.8661 0.4999 -0.4999 0.8661 53.2762 -140.0252)" width="16" height="16"/>
			<path d="M392,464v-56h64v-16H344v16h-53.576l-21.984-14.656l-57.504-21.792c-6.296-2.36-12.896-3.552-19.608-3.552
				C178.464,368,168,378.464,168,391.32c0,8.16,4.336,15.824,11.328,20l20.064,12.04l-1.28,0.64h-24.696l-10.408-26.024
				c-3.4-8.488-11.504-13.976-20.656-13.976c-7.144,0-13.896,3.472-18.064,9.264c-4.168,5.808-5.296,13.312-3.016,20.08l0.952,2.824
				l-6.448-3.224c-6.472-3.232-13.712-4.944-20.944-4.944C82.24,408,72,418.24,72,430.832c0,8.696,4.832,16.52,12.624,20.424
				l39.8,19.896l82.008,16.688l106.36,0.16L344,481.76V496h112v-16h-96v-72h16v56H392z M137.28,402.6
				c2.688-3.752,9.16-2.952,10.872,1.32l8.032,20.08h-14.432l-5.312-15.768C135.792,406.304,136.096,404.256,137.28,402.6z
				 M344,465.44L311.208,472H208.792l-78.168-15.632l-38.84-19.424c-2.336-1.16-3.784-3.504-3.784-6.112
				c0-3.76,3.064-6.832,6.832-6.832c4.76,0,9.528,1.128,13.792,3.256L134.112,440h67.776l30.72-15.36l-45.056-27.04
				c-2.192-1.312-3.552-3.72-3.552-6.28c0-4.04,3.288-7.32,7.328-7.32c4.792,0,9.504,0.848,13.992,2.536l55.008,20.624L285.576,424
				H344V465.44z"/>
		</g>
	</g>
</g>
<g>
</g>
<g>
</g>
<g>
</g>
<g>
</g>
<g>
</g>
<g>
</g>
<g>
</g>
<g>
</g>
<g>
</g>
<g>
</g>
<g>
</g>
<g>
</g>
<g>
</g>
<g>
</g>
<g>
</g>
</svg>
