<?xml version="1.0" encoding="iso-8859-1"?>
<!-- Generator: Adobe Illustrator 19.0.0, SVG Export Plug-In . SVG Version: 6.00 Build 0)  -->
<svg version="1.1" id="Layer_1" xmlns="http://www.w3.org/2000/svg" xmlns:xlink="http://www.w3.org/1999/xlink" x="0px" y="0px"
	 viewBox="0 0 496 496" style="enable-background:new 0 0 496 496;" xml:space="preserve">
<g>
	<g>
		<g>
			<path d="M112,400h-4.32c7.632-8.504,12.32-19.696,12.32-32c0-26.472-21.528-48-48-48s-48,21.528-48,48
				c0,12.304,4.688,23.496,12.32,32H32c-17.648,0-32,14.352-32,32v64h144v-64C144,414.352,129.648,400,112,400z M72,336
				c17.648,0,32,14.352,32,32s-14.352,32-32,32s-32-14.352-32-32S54.352,336,72,336z M128,480h-16v-40H96v40H48v-40H32v40H16v-48
				c0-8.824,7.176-16,16-16h80c8.824,0,16,7.176,16,16V480z"/>
			<path d="M288,400h-4.32c7.632-8.504,12.32-19.696,12.32-32c0-26.472-21.528-48-48-48s-48,21.528-48,48
				c0,12.304,4.688,23.496,12.32,32H208c-17.648,0-32,14.352-32,32v64h144v-64C320,414.352,305.648,400,288,400z M248,336
				c17.648,0,32,14.352,32,32s-14.352,32-32,32s-32-14.352-32-32S230.352,336,248,336z M304,480h-16v-40h-16v40h-48v-40h-16v40h-16
				v-48c0-8.824,7.176-16,16-16h80c8.824,0,16,7.176,16,16V480z"/>
			<path d="M464,400h-4.32c7.632-8.504,12.32-19.696,12.32-32c0-26.472-21.528-48-48-48s-48,21.528-48,48
				c0,12.304,4.688,23.496,12.32,32H384c-17.648,0-32,14.352-32,32v64h144v-64C496,414.352,481.648,400,464,400z M424,336
				c17.648,0,32,14.352,32,32s-14.352,32-32,32s-32-14.352-32-32S406.352,336,424,336z M480,480h-16v-40h-16v40h-48v-40h-16v40h-16
				v-48c0-8.824,7.176-16,16-16h80c8.824,0,16,7.176,16,16V480z"/>
			<path d="M280,152c0-17.648-14.352-32-32-32s-32,14.352-32,32s14.352,32,32,32S280,169.648,280,152z M248,168
				c-8.824,0-16-7.176-16-16c0-8.824,7.176-16,16-16c8.824,0,16,7.176,16,16C264,160.824,256.824,168,248,168z"/>
			<path d="M400,160v-16h-16.408C379.576,75.4,324.6,20.424,256,16.408V0h-16v16.408C171.4,20.424,116.424,75.4,112.408,144H96v16
				h16.408C116.424,228.6,171.4,283.576,240,287.592V304h16v-16.408C324.6,283.576,379.576,228.6,383.592,160H400z M240,32.408v16
				C189.04,52.312,148.312,93.04,144.408,144h-16C132.376,84.224,180.224,36.376,240,32.408z M240,271.592
				C180.224,267.624,132.376,219.776,128.408,160h16c3.904,50.96,44.632,91.688,95.592,95.592V271.592z M240,224v15.592
				c-42.144-3.824-75.776-37.448-79.592-79.592H176v-16h-15.592c3.824-42.144,37.448-75.776,79.592-79.592V80h16V64.408
				c42.144,3.824,75.776,37.448,79.592,79.592H320v16h15.592c-3.824,42.144-37.448,75.776-79.592,79.592V224H240z M256,271.592v-16
				c50.96-3.904,91.688-44.632,95.592-95.592h16C363.624,219.776,315.776,267.624,256,271.592z M351.592,144
				C347.688,93.04,306.96,52.312,256,48.408v-16C315.776,36.376,363.624,84.224,367.592,144H351.592z"/>
			<rect x="416" y="272" width="16" height="16"/>
			<rect x="416" y="240" width="16" height="16"/>
			<rect x="416" y="208" width="16" height="16"/>
			<rect x="416" y="176" width="16" height="16"/>
			<rect x="416" y="144" width="16" height="16"/>
			<rect x="64" y="272" width="16" height="16"/>
			<rect x="64" y="240" width="16" height="16"/>
			<rect x="64" y="208" width="16" height="16"/>
			<rect x="64" y="176" width="16" height="16"/>
			<rect x="64" y="144" width="16" height="16"/>
		</g>
	</g>
</g>
<g>
</g>
<g>
</g>
<g>
</g>
<g>
</g>
<g>
</g>
<g>
</g>
<g>
</g>
<g>
</g>
<g>
</g>
<g>
</g>
<g>
</g>
<g>
</g>
<g>
</g>
<g>
</g>
<g>
</g>
</svg>
