<?xml version="1.0" encoding="iso-8859-1"?>
<!-- Generator: Adobe Illustrator 19.0.0, SVG Export Plug-In . SVG Version: 6.00 Build 0)  -->
<svg version="1.1" id="Layer_1" xmlns="http://www.w3.org/2000/svg" xmlns:xlink="http://www.w3.org/1999/xlink" x="0px" y="0px"
	 viewBox="0 0 496 496" style="enable-background:new 0 0 496 496;" xml:space="preserve">
<g>
	<g>
		<g>
			<path d="M304,0C198.136,0,112,86.136,112,192c0,24.32,4.536,47.96,13.416,70.408L0,314.664V344.8l166.648-15.872L142.776,496
				H173.2l56.448-127.016C253.208,378.92,278.168,384,304,384c105.864,0,192-86.136,192-192S409.864,0,304,0z M162.8,480h-1.576
				l24.136-168.928L16,327.2v-1.872l264.528-110.216L162.8,480z M273.376,200.76l-22.304,9.296C249.064,204.24,248,198.2,248,192
				c0-30.88,25.12-56,56-56s56,25.12,56,56s-25.12,56-56,56c-6.584,0-12.968-1.168-19.072-3.392l9.84-22.128
				c2.944,0.896,6,1.52,9.232,1.52c17.648,0,32-14.352,32-32s-14.352-32-32-32s-32,14.352-32,32
				C272,195.056,272.568,197.96,273.376,200.76z M288.256,194.56C288.12,193.72,288,192.88,288,192c0-8.824,7.176-16,16-16
				c8.824,0,16,7.176,16,16c0,8.824-7.176,16-16,16c-0.92,0-1.808-0.12-2.68-0.272l10.152-22.84L288.256,194.56z M304,264
				c39.696,0,72-32.304,72-72s-32.304-72-72-72s-72,32.304-72,72c0,8.336,1.432,16.456,4.24,24.232l-22.04,9.184
				c-4.04-10.76-6.2-21.952-6.2-33.416c0-52.936,43.064-96,96-96c52.936,0,96,43.064,96,96c0,52.936-43.064,96-96,96
				c-12.16,0-23.968-2.416-35.272-6.936l9.688-21.8C286.576,262.368,295.28,264,304,264z M304,304c61.76,0,112-50.24,112-112
				S365.76,80,304,80s-112,50.24-112,112c0,13.592,2.6,26.84,7.456,39.56l-22.12,9.216C171.264,225.104,168,208.76,168,192
				c0-74.992,61.008-136,136-136s136,61.008,136,136s-61.008,136-136,136c-17.736,0-34.984-3.656-51.48-10.48l9.72-21.864
				C275.6,301.088,289.584,304,304,304z M304,368c-23.568,0-46.352-4.608-67.856-13.632l9.792-22.04
				C264.496,340.072,283.992,344,304,344c83.816,0,152-68.184,152-152S387.816,40,304,40s-152,68.184-152,152
				c0,18.888,3.696,37.296,10.592,54.92l-22.408,9.336C132.112,235.768,128,214.192,128,192c0-97.048,78.952-176,176-176
				s176,78.952,176,176S401.048,368,304,368z"/>
			
				<rect x="124.723" y="351.991" transform="matrix(0.7071 -0.7071 0.7071 0.7071 -214.7079 201.6302)" width="22.624" height="16"/>
			
				<rect x="96.035" y="380.685" transform="matrix(-0.7071 -0.7071 0.7071 -0.7071 -99.5844 742.7444)" width="16" height="22.624"/>
			
				<rect x="64.035" y="412.683" transform="matrix(-0.7071 -0.7071 0.7071 -0.7071 -176.8381 774.7416)" width="16" height="22.624"/>
			
				<rect x="32.035" y="444.682" transform="matrix(-0.7071 -0.7071 0.7071 -0.7071 -254.0918 806.7389)" width="16" height="22.624"/>
		</g>
	</g>
</g>
<g>
</g>
<g>
</g>
<g>
</g>
<g>
</g>
<g>
</g>
<g>
</g>
<g>
</g>
<g>
</g>
<g>
</g>
<g>
</g>
<g>
</g>
<g>
</g>
<g>
</g>
<g>
</g>
<g>
</g>
</svg>
