<?xml version="1.0" encoding="iso-8859-1"?>
<!-- Generator: Adobe Illustrator 19.0.0, SVG Export Plug-In . SVG Version: 6.00 Build 0)  -->
<svg version="1.1" id="Layer_1" xmlns="http://www.w3.org/2000/svg" xmlns:xlink="http://www.w3.org/1999/xlink" x="0px" y="0px"
	 viewBox="0 0 496 496" style="enable-background:new 0 0 496 496;" xml:space="preserve">
<g>
	<g>
		<g>
			<path d="M484.672,480L340.68,224H277.4l-8.616-16h-81.136l-176,272H0v16h496v-16H484.672z M30.704,480l165.648-256h62.864
				l53.736,99.792l14.096-7.576L286.008,240h45.312l135.008,240H30.704z"/>
			<rect x="416" y="448" width="16" height="16"/>
			<rect x="384" y="448" width="16" height="16"/>
			<rect x="352" y="448" width="16" height="16"/>
			<path d="M248,192c142.856,0,233.768-86.568,237.568-90.256L491.496,96l-5.92-5.744C481.768,86.568,390.856,0,248,0
				S14.232,86.568,10.432,90.256L4.504,96l5.92,5.744C14.232,105.432,105.144,192,248,192z M467.888,96
				c-18.688,15.64-76.32,58.808-159.24,74.336C330.208,152.72,344,125.944,344,96c0-29.944-13.792-56.72-35.352-74.336
				C391.568,37.192,449.2,80.36,467.888,96z M248,16c44.112,0,80,35.888,80,80s-35.888,80-80,80s-80-35.888-80-80S203.888,16,248,16
				z M187.352,21.664C165.792,39.28,152,66.056,152,96c0,29.944,13.792,56.72,35.352,74.336C104.432,154.808,46.8,111.64,28.112,96
				C46.8,80.36,104.432,37.192,187.352,21.664z"/>
			<path d="M192.64,104c3.528,24.472,22.888,43.832,47.36,47.36V168h16v-16.64c24.472-3.528,43.832-22.888,47.36-47.36H320V88
				h-16.64c-3.528-24.472-22.888-43.832-47.36-47.36V24h-16v16.64c-24.472,3.528-43.832,22.888-47.36,47.36H176v16H192.64z
				 M208.808,88C212,72.352,224.352,60,240,56.808V64h16v-7.192C271.648,60,284,72.352,287.192,88H280v16h7.192
				C284,119.648,271.648,132,256,135.192V128h-16v7.192C224.352,132,212,119.648,208.808,104H216V88H208.808z"/>
			<rect x="240" y="88" width="16" height="16"/>
			<rect x="360" y="88" width="16" height="16"/>
			<rect x="392" y="88" width="16" height="16"/>
			<rect x="424" y="88" width="16" height="16"/>
			<rect x="56" y="88" width="16" height="16"/>
			<rect x="88" y="88" width="16" height="16"/>
			<rect x="120" y="88" width="16" height="16"/>
		</g>
	</g>
</g>
<g>
</g>
<g>
</g>
<g>
</g>
<g>
</g>
<g>
</g>
<g>
</g>
<g>
</g>
<g>
</g>
<g>
</g>
<g>
</g>
<g>
</g>
<g>
</g>
<g>
</g>
<g>
</g>
<g>
</g>
</svg>
