<?xml version="1.0" encoding="iso-8859-1"?>
<!-- Generator: Adobe Illustrator 19.0.0, SVG Export Plug-In . SVG Version: 6.00 Build 0)  -->
<svg version="1.1" id="Layer_1" xmlns="http://www.w3.org/2000/svg" xmlns:xlink="http://www.w3.org/1999/xlink" x="0px" y="0px"
	 viewBox="0 0 496 496" style="enable-background:new 0 0 496 496;" xml:space="preserve">
<g>
	<g>
		<g>
			<path d="M496,144h-51.864l1.856-1.072l-8-13.856l-34.64,20L409.664,160h-37.832C343.28,119.872,297.352,96,248,96
				c-59.44,0-112.888,34.4-137.792,88H64v-16H0v160h64v-16h46.208c24.904,53.6,78.352,88,137.792,88
				c49.344,0,95.28-23.872,123.832-64h37.832l-6.312,10.928l34.64,20l8-13.856L444.136,352H496V144z M48,312H16V184h32V312z
				 M248,112c40.208,0,77.912,17.712,103.624,48H176v24h-47.968C151.536,139.912,197.344,112,248,112z M64,296v-96h112v96H64z
				 M248,384c-50.656,0-96.464-27.912-119.968-72H176v24h175.624C325.912,366.288,288.208,384,248,384z M432,344.992L416.424,336
				H432V344.992z M432,320H192v-8V184v-8h240V320z M432,160h-15.576L432,151.008V160z M480,336h-32V160h32V336z"/>
			<path d="M248,288c19.312,0,35.472-13.768,39.192-32H352v24h16v-24h32v24h16v-40H287.192c-3.72-18.232-19.872-32-39.192-32
				c-22.056,0-40,17.944-40,40C208,270.056,225.944,288,248,288z M248,224c13.232,0,24,10.768,24,24s-10.768,24-24,24
				s-24-10.768-24-24S234.768,224,248,224z"/>
			<rect x="240" y="24" width="16" height="40"/>
			<rect x="125.996" y="63.33" transform="matrix(0.5 0.866 -0.866 0.5 134.7695 -90.7711)" width="39.999" height="16"/>
			<rect x="51.324" y="137.998" transform="matrix(0.866 0.5 -0.5 0.866 82.5567 -16.1018)" width="39.999" height="16"/>
			
				<rect x="63.35" y="330.007" transform="matrix(-0.4999 -0.8661 0.8661 -0.4999 -196.1191 586.7702)" width="16" height="40.001"/>
			
				<rect x="138.014" y="404.641" transform="matrix(-0.8661 -0.4999 0.4999 -0.8661 60.1998 865.4092)" width="16" height="40.001"/>
			<rect x="240" y="432" width="16" height="40"/>
			<rect x="329.964" y="416.662" transform="matrix(-0.5 -0.866 0.866 -0.5 157.1848 940.0732)" width="39.999" height="16"/>
			<rect x="341.998" y="51.312" transform="matrix(0.8661 0.4999 -0.4999 0.8661 82.517 -165.4112)" width="16" height="40.001"/>
		</g>
	</g>
</g>
<g>
</g>
<g>
</g>
<g>
</g>
<g>
</g>
<g>
</g>
<g>
</g>
<g>
</g>
<g>
</g>
<g>
</g>
<g>
</g>
<g>
</g>
<g>
</g>
<g>
</g>
<g>
</g>
<g>
</g>
</svg>
