<?xml version="1.0" encoding="iso-8859-1"?>
<!-- Generator: Adobe Illustrator 19.0.0, SVG Export Plug-In . SVG Version: 6.00 Build 0)  -->
<svg version="1.1" id="Layer_1" xmlns="http://www.w3.org/2000/svg" xmlns:xlink="http://www.w3.org/1999/xlink" x="0px" y="0px"
	 viewBox="0 0 496 496" style="enable-background:new 0 0 496 496;" xml:space="preserve">
<g>
	<g>
		<g>
			<path d="M496,128C496,57.424,438.576,0,368,0c-44.152,0-83.144,22.472-106.168,56.576c-15.432-1.12-30.512-0.44-45.04,1.92
				l-54.256-18.088l-5.064,15.176l30.16,10.056C111.184,90.936,56,163.208,56,248c0,4.544,0.224,9.184,0.56,13.84
				C22.464,284.864,0,323.856,0,368c0,70.576,57.424,128,128,128c44.144,0,83.136-22.464,106.16-56.56
				c4.656,0.336,9.296,0.56,13.84,0.56c10.576,0,20.936-0.896,31.048-2.544l54.416,18.136l5.064-15.168l-30.36-10.128
				C384.648,404.976,440,332.856,440,248c0-4.544-0.224-9.184-0.56-13.84C473.536,211.136,496,172.144,496,128z M461.936,188.776
				c-5.856-3.592-15.328-8.36-29.2-12.448c3.744-11.904,6.216-25.336,6.896-40.328h39.96
				C478.216,155.36,471.944,173.36,461.936,188.776z M461.936,67.224C471.944,82.64,478.208,100.64,479.592,120h-39.96
				c-0.688-14.992-3.152-28.424-6.896-40.328C446.608,75.584,456.08,70.816,461.936,67.224z M452.2,54.384
				c-5.032,2.912-13.208,6.816-25.128,10.232c-8.776-19.872-20.56-34.672-31.08-44.936C418.112,25.408,437.576,37.68,452.2,54.384z
				 M376,23.4c10.12,8.24,24.608,22.84,35.056,44.936c-9.888,1.824-21.552,3.112-35.056,3.496V23.4z M376,87.824
				c15.928-0.424,29.544-2.048,41.024-4.336c3.52,10.752,5.904,22.904,6.608,36.512H376V87.824z M376,136h47.64
				c-0.688,13.64-3.04,25.792-6.512,36.528c-11.496-2.296-25.152-3.928-41.128-4.352V136z M376,184.16
				c13.592,0.384,25.304,1.688,35.232,3.528c-10.448,22.304-25.04,36.88-35.232,45.056V184.16z M360,23.256V71.84
				c-13.592-0.384-25.304-1.688-35.232-3.528C335.216,46.008,349.808,31.432,360,23.256z M308.928,191.384
				c8.776,19.872,20.56,34.672,31.08,44.936c-22.128-5.72-41.592-18-56.208-34.704C288.832,198.704,297.016,194.8,308.928,191.384z
				 M274.064,188.776c-10.008-15.416-16.28-33.416-17.656-52.776h39.96c0.688,14.992,3.152,28.424,6.896,40.328
				C289.392,180.416,279.92,185.184,274.064,188.776z M324.944,187.656c9.896-1.824,21.552-3.112,35.056-3.496v48.432
				C349.88,224.36,335.392,209.76,324.944,187.656z M318.976,172.512c-3.528-10.752-5.904-22.904-6.608-36.512H360v32.176
				C344.072,168.6,330.456,170.224,318.976,172.512z M312.36,120c0.688-13.64,3.04-25.792,6.512-36.528
				c11.496,2.296,25.152,3.928,41.128,4.352V120H312.36z M340.016,19.68c-10.52,10.264-22.312,25.064-31.08,44.936
				c-11.92-3.416-20.096-7.32-25.128-10.232C298.424,37.68,317.888,25.408,340.016,19.68z M274.056,67.224
				c5.856,3.592,15.328,8.36,29.2,12.448c-3.744,11.904-6.208,25.336-6.896,40.328H256.4
				C257.784,100.64,264.056,82.64,274.056,67.224z M128,480c-61.76,0-112-50.24-112-112s50.24-112,112-112s112,50.24,112,112
				S189.76,480,128,480z M301.928,415.52l9.664-28.984l-15.168-5.064l-12.984,38.944C271.984,422.768,260.136,424,248,424
				c-1.624,0-3.312-0.2-4.96-0.248C251.256,406.872,256,388,256,368c0-70.576-57.424-128-128-128c-20,0-38.872,4.744-55.752,12.96
				C72.2,251.312,72,249.624,72,248c0-78.28,51.224-144.888,122.112-167.624l-9.696,29.096l15.168,5.064l12.992-38.976
				c13.016-2.648,26.544-3.856,40.44-3.44C244.768,89.032,240,107.952,240,128c0,70.576,57.424,128,128,128
				c20,0,38.872-4.744,55.752-12.96C423.8,244.688,424,246.376,424,248C424,326.24,372.672,392.688,301.928,415.52z M395.984,236.32
				c10.52-10.264,22.312-25.064,31.08-44.936c11.92,3.416,20.096,7.32,25.128,10.232C437.576,218.32,418.112,230.592,395.984,236.32
				z"/>
			<path d="M144,296h-8v-24h-16v24h-8c-22.056,0-40,17.944-40,40c0,22.056,17.944,40,40,40h32c13.232,0,24,10.768,24,24
				s-10.768,24-24,24h-32c-13.232,0-24-10.768-24-24v-8H72v8c0,22.056,17.944,40,40,40h8v24h16v-24h8c22.056,0,40-17.944,40-40
				c0-22.056-17.944-40-40-40h-32c-13.232,0-24-10.768-24-24s10.768-24,24-24h32c13.232,0,24,10.768,24,24v8h16v-8
				C184,313.944,166.056,296,144,296z"/>
			<rect x="200" y="360" width="16" height="16"/>
			<rect x="40" y="360" width="16" height="16"/>
		</g>
	</g>
</g>
<g>
</g>
<g>
</g>
<g>
</g>
<g>
</g>
<g>
</g>
<g>
</g>
<g>
</g>
<g>
</g>
<g>
</g>
<g>
</g>
<g>
</g>
<g>
</g>
<g>
</g>
<g>
</g>
<g>
</g>
</svg>
